M48
; DRILL file {KiCad 9.0.5} date 2026-08-10T19:44:18-0400
; FORMAT={-:-/ absolute / metric / decimal}
; #@! TF.CreationDate,2026-08-10T19:44:18-04:00
; #@! TF.GenerationSoftware,Kicad,Pcbnew,9.0.5
; #@! TF.FileFunction,Plated,1,4,PTH
FMAT,2
METRIC
; #@! TA.AperFunction,Plated,PTH,ComponentDrill
T1C0.200
; #@! TA.AperFunction,Plated,PTH,ViaDrill
T2C0.250
; #@! TA.AperFunction,Plated,PTH,ViaDrill
T3C0.300
; #@! TA.AperFunction,Plated,PTH,ViaDrill
T4C0.400
; #@! TA.AperFunction,Plated,PTH,ComponentDrill
T5C0.600
; #@! TA.AperFunction,Plated,PTH,ComponentDrill
T6C0.750
; #@! TA.AperFunction,Plated,PTH,ComponentDrill
T7C1.000
%
G90
G05
T1
X41.85Y-40.05
X41.85Y-41.35
X41.85Y-42.65
X41.85Y-43.95
X41.85Y-55.85
X41.85Y-57.15
X41.85Y-58.45
X41.85Y-59.75
X43.15Y-40.05
X43.15Y-41.35
X43.15Y-42.65
X43.15Y-43.95
X43.15Y-55.85
X43.15Y-57.15
X43.15Y-58.45
X43.15Y-59.75
X49.1Y-8.56
X49.1Y-9.96
X49.8Y-7.86
X49.8Y-9.26
X49.8Y-10.66
X50.5Y-8.56
X50.5Y-9.96
X51.2Y-7.86
X51.2Y-9.26
X51.2Y-10.66
X51.9Y-8.56
X51.9Y-9.96
T2
X64.07Y-15.945
T3
X11.0Y-19.197
X12.21Y-33.317
X12.988Y-57.436
X13.718Y-63.133
X18.474Y-40.982
X20.157Y-24.949
X20.412Y-35.885
X20.657Y-16.547
X21.65Y-21.82
X22.668Y-12.185
X23.694Y-32.926
X25.653Y-28.089
X26.134Y-20.119
X26.512Y-12.185
X28.191Y-29.719
X29.363Y-27.413
X29.465Y-26.0
X29.515Y-16.456
X30.037Y-21.669
X32.361Y-38.012
X37.258Y-16.547
X38.056Y-13.454
X38.547Y-42.635
X38.75Y-57.794
X39.911Y-38.694
X40.032Y-21.689
X40.044Y-54.367
X40.117Y-12.819
X41.669Y-11.028
X41.897Y-14.55
X41.955Y-2.627
X42.275Y-21.502
X42.524Y-19.093
X43.893Y-38.89
X44.025Y-32.453
X44.227Y-54.831
X44.544Y-5.737
X45.805Y-18.036
X45.898Y-5.285
X46.242Y-14.473
X46.464Y-42.462
X46.576Y-28.438
X46.721Y-26.585
X46.943Y-57.474
X47.528Y-14.968
X47.528Y-18.041
X47.627Y-32.951
X48.155Y-17.232
X48.425Y-29.14
X49.505Y-17.543
X49.817Y-30.295
X50.668Y-12.314
X50.9Y-24.426
X51.692Y-16.273
X51.737Y-31.915
X51.737Y-35.415
X52.438Y-29.691
X53.103Y-10.357
X53.334Y-20.555
X54.654Y-30.026
X55.521Y-5.35
X55.541Y-16.428
X56.249Y-6.62
X56.701Y-3.386
X57.328Y-2.509
X57.438Y-36.515
X57.571Y-17.881
X57.598Y-24.68
X57.706Y-23.875
X57.969Y-35.65
X58.104Y-4.08
X58.176Y-33.724
X58.185Y-16.033
X58.688Y-32.676
X58.764Y-12.914
X58.811Y-14.612
X59.421Y-13.944
X59.443Y-15.407
X60.044Y-27.52
X60.256Y-29.539
X60.399Y-23.171
X61.521Y-23.96
X62.63Y-39.21
X62.762Y-29.475
X63.288Y-52.958
X64.074Y-14.525
X64.691Y-34.968
X65.196Y-17.718
X65.667Y-10.018
X65.744Y-9.187
X65.876Y-45.2
X66.537Y-30.434
X67.671Y-61.221
X70.039Y-50.145
X70.188Y-60.386
X70.675Y-30.511
X71.945Y-57.573
X72.972Y-28.31
X75.433Y-7.428
X75.433Y-8.682
X82.435Y-20.922
T4
X8.995Y-64.025
X11.775Y-7.795
X11.775Y-9.695
X12.245Y-30.31
X12.954Y-60.462
X13.061Y-18.508
X13.15Y-22.705
X13.915Y-64.749
X16.56Y-36.585
X16.7Y-67.165
X16.851Y-39.718
X17.0Y-22.705
X17.195Y-32.85
X18.841Y-39.718
X20.275Y-7.795
X20.275Y-9.695
X20.741Y-39.718
X21.024Y-13.68
X21.561Y-18.508
X21.65Y-22.705
X22.795Y-48.845
X22.897Y-64.976
X24.285Y-35.885
X24.631Y-39.718
X25.5Y-22.705
X27.345Y-28.175
X27.445Y-25.275
X27.845Y-14.075
X28.61Y-39.075
X28.775Y-7.795
X28.775Y-9.695
X29.245Y-33.975
X29.645Y-24.475
X30.061Y-18.508
X30.15Y-22.705
X30.885Y-58.185
X31.445Y-38.775
X32.975Y-24.695
X32.975Y-26.595
X34.0Y-22.705
X34.214Y-31.835
X34.214Y-34.225
X34.261Y-29.427
X34.646Y-24.734
X34.75Y-68.2
X35.545Y-15.875
X35.8Y-45.1
X35.845Y-14.475
X35.945Y-33.625
X36.216Y-42.812
X36.875Y-7.795
X36.875Y-9.695
X37.597Y-25.196
X37.675Y-46.75
X37.675Y-56.365
X38.045Y-33.625
X38.161Y-18.508
X38.24Y-28.785
X38.25Y-22.705
X38.545Y-52.075
X38.55Y-55.895
X38.736Y-40.495
X40.425Y-48.2
X40.425Y-64.0
X40.677Y-32.817
X40.789Y-8.323
X42.1Y-22.705
X43.045Y-69.175
X44.425Y-48.2
X44.425Y-64.0
X44.5Y-1.54
X44.5Y-2.81
X44.661Y-34.627
X45.25Y-29.795
X45.25Y-30.795
X46.094Y-65.039
X46.425Y-51.0
X46.425Y-66.8
X46.695Y-34.015
X47.2Y-30.795
X47.839Y-33.888
X47.839Y-35.913
X48.0Y-46.247
X51.1Y-63.6
X51.907Y-21.612
X52.95Y-66.6
X53.417Y-50.603
X53.77Y-31.892
X53.906Y-48.5
X53.906Y-64.3
X54.695Y-22.595
X55.966Y-23.761
X56.1Y-63.6
X56.416Y-66.812
X56.667Y-46.587
X57.6Y-57.8
X58.45Y-50.4
X58.45Y-66.2
X58.512Y-64.812
X58.795Y-59.095
X59.035Y-22.425
X59.05Y-47.8
X59.719Y-35.194
X60.319Y-55.224
X60.964Y-61.395
X61.275Y-51.995
X62.0Y-1.54
X62.65Y-56.575
X63.751Y-68.385
X64.319Y-30.574
X64.343Y-18.235
X64.661Y-27.727
X64.945Y-24.495
X65.514Y-22.475
X65.625Y-51.995
X65.842Y-25.727
X66.295Y-64.295
X66.561Y-27.727
X66.751Y-19.985
X67.535Y-16.604
X67.751Y-25.195
X68.161Y-50.603
X68.169Y-30.574
X68.554Y-15.395
X68.554Y-26.051
X69.437Y-14.375
X69.437Y-19.265
X69.5Y-21.875
X70.451Y-27.727
X71.025Y-38.675
X71.651Y-24.938
X71.918Y-51.4
X72.019Y-30.574
X72.099Y-28.124
X73.641Y-24.938
X75.418Y-51.4
X75.675Y-24.325
X76.2Y-58.4
X76.2Y-65.4
X77.347Y-9.433
X81.27Y-4.75
X81.27Y-11.25
X81.385Y-5.674
X81.678Y-10.36
X81.725Y-46.575
X82.5Y-58.4
X82.5Y-65.4
T6
X5.0Y-18.0
X5.0Y-20.0
X5.0Y-22.0
X5.0Y-24.0
X5.0Y-26.0
X5.0Y-28.0
X5.0Y-30.0
X5.0Y-32.0
X5.0Y-50.0
X5.0Y-52.0
X5.0Y-54.0
X5.0Y-56.0
T7
X10.0Y-3.0
X12.54Y-3.0
X15.08Y-3.0
X21.7Y-3.0
X24.24Y-3.0
X26.0Y-71.5
X26.78Y-3.0
X28.54Y-71.5
X29.32Y-3.0
X31.08Y-71.5
X31.86Y-3.0
X33.62Y-71.5
X34.4Y-3.0
X41.0Y-71.5
X43.54Y-71.5
X46.08Y-71.5
X48.62Y-71.5
X56.0Y-71.5
X58.54Y-71.5
X61.08Y-71.5
X63.62Y-71.5
X70.5Y-71.5
X73.04Y-71.5
X75.58Y-71.5
T5
X75.25Y-3.68G85X74.65Y-3.68
G05
X75.25Y-12.32G85X74.65Y-12.32
G05
X79.68Y-3.68G85X78.58Y-3.68
G05
X79.68Y-12.32G85X78.58Y-12.32
G05
M30
