M48
; DRILL file {KiCad 9.0.5} date 2026-08-11T16:22:35-0400
; FORMAT={-:-/ absolute / metric / decimal}
; #@! TF.CreationDate,2026-08-11T16:22:35-04:00
; #@! TF.GenerationSoftware,Kicad,Pcbnew,9.0.5
; #@! TF.FileFunction,Plated,1,4,PTH
FMAT,2
METRIC
; #@! TA.AperFunction,Plated,PTH,ComponentDrill
T1C0.200
; #@! TA.AperFunction,Plated,PTH,ViaDrill
T2C0.250
; #@! TA.AperFunction,Plated,PTH,ViaDrill
T3C0.300
; #@! TA.AperFunction,Plated,PTH,ViaDrill
T4C0.400
; #@! TA.AperFunction,Plated,PTH,ComponentDrill
T5C0.600
; #@! TA.AperFunction,Plated,PTH,ComponentDrill
T6C0.750
; #@! TA.AperFunction,Plated,PTH,ComponentDrill
T7C1.000
%
G90
G05
T1
X41.85Y-40.05
X41.85Y-41.35
X41.85Y-42.65
X41.85Y-43.95
X41.85Y-55.85
X41.85Y-57.15
X41.85Y-58.45
X41.85Y-59.75
X43.15Y-40.05
X43.15Y-41.35
X43.15Y-42.65
X43.15Y-43.95
X43.15Y-55.85
X43.15Y-57.15
X43.15Y-58.45
X43.15Y-59.75
X49.1Y-8.56
X49.1Y-9.96
X49.8Y-7.86
X49.8Y-9.26
X49.8Y-10.66
X50.5Y-8.56
X50.5Y-9.96
X51.2Y-7.86
X51.2Y-9.26
X51.2Y-10.66
X51.9Y-8.56
X51.9Y-9.96
T2
X64.07Y-9.745
T3
X9.694Y-27.481
X11.044Y-63.622
X12.643Y-39.173
X13.622Y-70.365
X16.766Y-27.011
X22.219Y-19.203
X22.219Y-30.514
X22.513Y-38.895
X23.56Y-26.325
X25.563Y-21.195
X26.001Y-11.901
X26.743Y-30.202
X27.988Y-35.417
X28.328Y-29.77
X29.206Y-24.049
X31.831Y-12.098
X33.242Y-23.442
X33.242Y-29.942
X35.213Y-5.54
X36.001Y-16.229
X37.349Y-10.579
X37.498Y-30.46
X37.639Y-24.03
X38.524Y-42.868
X38.61Y-19.203
X39.034Y-11.7
X39.038Y-10.214
X39.643Y-38.843
X39.675Y-23.109
X39.755Y-19.3
X40.63Y-49.907
X40.973Y-13.926
X41.0Y-54.636
X41.741Y-24.086
X41.947Y-33.606
X42.794Y-31.295
X43.063Y-36.042
X43.239Y-38.924
X43.735Y-36.572
X44.022Y-19.038
X44.057Y-46.537
X44.514Y-12.226
X44.538Y-17.58
X44.62Y-5.81
X45.034Y-8.214
X45.715Y-16.209
X46.287Y-41.973
X46.305Y-49.953
X46.318Y-57.746
X46.478Y-45.468
X46.484Y-15.775
X46.962Y-3.165
X47.182Y-30.295
X47.626Y-25.723
X47.794Y-24.307
X48.012Y-74.062
X49.584Y-52.759
X49.912Y-14.362
X49.948Y-15.223
X50.386Y-24.637
X50.466Y-27.171
X50.718Y-18.022
X51.571Y-21.345
X52.401Y-27.19
X52.474Y-22.989
X52.549Y-5.406
X52.863Y-14.461
X53.045Y-36.715
X53.175Y-7.925
X54.528Y-12.853
X54.984Y-27.77
X54.984Y-37.244
X55.351Y-20.698
X55.789Y-30.426
X55.808Y-6.62
X56.592Y-10.158
X57.252Y-17.748
X58.261Y-29.94
X58.611Y-18.014
X58.75Y-44.878
X58.969Y-39.247
X58.979Y-13.76
X59.143Y-16.492
X59.301Y-11.242
X59.448Y-4.08
X59.808Y-27.825
X60.07Y-33.358
X60.119Y-40.137
X60.785Y-36.635
X61.21Y-30.602
X61.837Y-34.366
X62.066Y-37.284
X62.146Y-74.712
X62.284Y-12.493
X63.051Y-4.529
X63.295Y-53.034
X63.777Y-11.536
X64.843Y-69.876
X68.647Y-22.785
X69.648Y-9.59
X71.143Y-26.548
T4
X8.995Y-70.478
X11.775Y-12.67
X11.775Y-14.57
X12.245Y-36.11
X12.761Y-74.287
X13.061Y-26.037
X13.15Y-32.005
X16.56Y-42.498
X16.711Y-75.659
X16.795Y-8.795
X16.795Y-76.995
X16.851Y-45.744
X17.0Y-32.005
X17.195Y-38.65
X18.841Y-45.744
X20.275Y-12.67
X20.275Y-14.57
X20.59Y-73.645
X20.741Y-45.744
X21.561Y-26.037
X21.65Y-32.005
X22.795Y-55.245
X23.763Y-20.39
X24.285Y-41.798
X24.302Y-69.908
X24.35Y-40.734
X24.631Y-45.744
X24.733Y-77.095
X25.295Y-8.795
X25.5Y-32.005
X27.111Y-76.375
X28.61Y-45.102
X28.775Y-12.67
X28.775Y-14.57
X29.222Y-20.39
X29.742Y-38.842
X30.061Y-26.037
X30.15Y-32.005
X30.885Y-64.612
X33.795Y-8.795
X34.0Y-32.005
X34.75Y-68.2
X35.597Y-23.187
X35.8Y-45.1
X35.9Y-44.1
X36.216Y-42.812
X36.275Y-70.595
X36.275Y-72.495
X36.45Y-39.9
X36.45Y-55.7
X36.875Y-12.67
X36.875Y-14.57
X37.514Y-79.005
X37.561Y-75.962
X37.675Y-46.75
X37.675Y-56.365
X38.161Y-26.037
X38.25Y-32.005
X38.55Y-55.895
X38.736Y-40.495
X39.245Y-78.405
X40.425Y-48.2
X40.425Y-64.0
X41.345Y-78.405
X41.408Y-75.92
X41.895Y-8.795
X42.1Y-32.005
X44.425Y-48.2
X44.425Y-64.0
X44.5Y-1.54
X44.5Y-2.81
X44.661Y-35.587
X45.25Y-29.795
X45.25Y-30.795
X45.283Y-73.776
X45.39Y-75.32
X45.4Y-47.9
X46.094Y-65.039
X46.25Y-21.795
X46.25Y-24.6
X46.25Y-27.405
X46.425Y-51.0
X46.425Y-66.8
X46.695Y-34.975
X46.883Y-71.096
X49.65Y-30.795
X51.1Y-63.6
X52.95Y-66.6
X53.906Y-48.5
X53.906Y-64.3
X54.695Y-22.595
X55.837Y-24.009
X56.1Y-63.6
X56.416Y-66.812
X57.295Y-70.595
X57.6Y-57.8
X57.781Y-45.2
X58.06Y-31.472
X58.45Y-50.4
X58.45Y-66.2
X59.035Y-22.425
X59.05Y-47.8
X59.05Y-63.6
X59.464Y-72.895
X59.719Y-36.444
X60.02Y-42.006
X60.319Y-55.339
X61.275Y-51.995
X62.0Y-1.54
X62.65Y-56.805
X63.631Y-26.482
X64.945Y-24.195
X65.561Y-18.317
X65.625Y-51.995
X65.961Y-12.481
X66.561Y-28.427
X66.65Y-31.235
X66.684Y-19.257
X66.751Y-14.785
X67.751Y-24.895
X67.77Y-40.761
X67.77Y-49.331
X68.209Y-28.824
X68.417Y-8.666
X69.54Y-17.675
X71.025Y-38.675
X71.651Y-24.637
X72.059Y-28.824
X73.39Y-17.675
X73.641Y-24.637
X73.805Y-13.5
X74.58Y-12.75
X74.705Y-18.4
X75.541Y-24.637
X75.909Y-28.824
X76.2Y-58.4
X76.2Y-65.4
X76.417Y-19.943
X77.531Y-24.637
X79.565Y-24.025
X79.759Y-28.824
X81.725Y-46.575
X82.5Y-58.4
X82.5Y-65.4
T6
X5.0Y-18.0
X5.0Y-20.0
X5.0Y-22.0
X5.0Y-24.0
X5.0Y-26.0
X5.0Y-28.0
X5.0Y-30.0
X5.0Y-32.0
X5.0Y-50.0
X5.0Y-52.0
X5.0Y-54.0
X5.0Y-56.0
T7
X10.0Y-3.0
X12.54Y-3.0
X15.08Y-3.0
X17.62Y-3.0
X20.16Y-3.0
X22.7Y-3.0
X26.0Y-81.5
X27.5Y-3.0
X28.54Y-81.5
X30.04Y-3.0
X31.08Y-81.5
X32.58Y-3.0
X33.62Y-81.5
X35.12Y-3.0
X37.66Y-3.0
X40.2Y-3.0
X41.0Y-81.5
X43.54Y-81.5
X46.08Y-81.5
X48.62Y-81.5
X56.0Y-81.5
X58.54Y-81.5
X61.08Y-81.5
X63.62Y-81.5
X69.0Y-81.5
X71.54Y-81.5
X74.08Y-81.5
T5
X76.17Y-11.68G85X77.27Y-11.68
G05
X76.17Y-20.32G85X77.27Y-20.32
G05
X80.6Y-11.68G85X81.2Y-11.68
G05
X80.6Y-20.32G85X81.2Y-20.32
G05
M30
