M48
; DRILL file {KiCad 9.0.5} date 2026-08-11T06:14:38-0400
; FORMAT={-:-/ absolute / metric / decimal}
; #@! TF.CreationDate,2026-08-11T06:14:38-04:00
; #@! TF.GenerationSoftware,Kicad,Pcbnew,9.0.5
; #@! TF.FileFunction,Plated,1,4,PTH
FMAT,2
METRIC
; #@! TA.AperFunction,Plated,PTH,ComponentDrill
T1C0.200
; #@! TA.AperFunction,Plated,PTH,ViaDrill
T2C0.250
; #@! TA.AperFunction,Plated,PTH,ViaDrill
T3C0.300
; #@! TA.AperFunction,Plated,PTH,ViaDrill
T4C0.400
; #@! TA.AperFunction,Plated,PTH,ComponentDrill
T5C0.600
; #@! TA.AperFunction,Plated,PTH,ComponentDrill
T6C0.750
; #@! TA.AperFunction,Plated,PTH,ComponentDrill
T7C1.000
%
G90
G05
T1
X41.85Y-40.05
X41.85Y-41.35
X41.85Y-42.65
X41.85Y-43.95
X41.85Y-55.85
X41.85Y-57.15
X41.85Y-58.45
X41.85Y-59.75
X43.15Y-40.05
X43.15Y-41.35
X43.15Y-42.65
X43.15Y-43.95
X43.15Y-55.85
X43.15Y-57.15
X43.15Y-58.45
X43.15Y-59.75
X49.1Y-8.56
X49.1Y-9.96
X49.8Y-7.86
X49.8Y-9.26
X49.8Y-10.66
X50.5Y-8.56
X50.5Y-9.96
X51.2Y-7.86
X51.2Y-9.26
X51.2Y-10.66
X51.9Y-8.56
X51.9Y-9.96
T2
X64.07Y-15.945
T3
X8.985Y-16.177
X8.985Y-25.902
X10.575Y-65.779
X12.091Y-55.149
X12.475Y-33.203
X13.689Y-64.025
X14.107Y-27.907
X14.202Y-16.401
X15.305Y-16.199
X16.02Y-5.163
X16.08Y-20.451
X16.738Y-66.39
X17.62Y-1.149
X18.107Y-34.034
X18.107Y-41.372
X18.474Y-27.945
X20.95Y-30.277
X23.16Y-16.683
X25.318Y-27.662
X26.573Y-27.892
X26.63Y-38.067
X28.34Y-6.954
X34.024Y-7.92
X34.194Y-28.489
X34.572Y-27.682
X35.27Y-71.436
X35.337Y-37.168
X35.573Y-12.833
X35.991Y-5.556
X36.003Y-20.653
X36.373Y-2.162
X37.197Y-6.762
X37.688Y-13.839
X37.856Y-70.223
X38.109Y-38.912
X38.134Y-20.872
X38.261Y-17.467
X38.393Y-42.693
X38.467Y-31.16
X38.487Y-58.552
X40.035Y-6.989
X40.07Y-12.131
X40.084Y-54.59
X40.152Y-32.448
X40.519Y-27.937
X40.945Y-54.673
X41.965Y-4.177
X42.621Y-25.215
X43.95Y-32.615
X44.503Y-6.861
X44.512Y-13.114
X44.514Y-14.24
X44.527Y-11.988
X44.836Y-17.71
X44.921Y-32.466
X45.465Y-6.05
X45.841Y-32.362
X46.119Y-7.89
X46.199Y-18.047
X46.504Y-17.014
X46.539Y-43.376
X46.539Y-50.18
X46.935Y-57.474
X47.341Y-2.502
X47.81Y-37.6
X47.81Y-52.079
X47.968Y-5.123
X48.173Y-29.14
X48.755Y-17.184
X49.07Y-21.93
X49.088Y-20.554
X50.311Y-30.089
X50.516Y-52.59
X50.536Y-24.402
X52.205Y-20.575
X52.579Y-6.232
X53.256Y-29.852
X53.317Y-3.165
X53.471Y-27.924
X53.668Y-31.246
X53.675Y-15.979
X55.228Y-20.635
X55.293Y-32.912
X55.41Y-15.619
X55.77Y-26.681
X55.871Y-17.984
X56.566Y-14.463
X57.498Y-18.015
X57.619Y-10.407
X57.759Y-28.475
X58.098Y-4.08
X58.183Y-31.352
X58.203Y-5.879
X58.26Y-39.065
X58.358Y-11.7
X58.453Y-26.681
X58.495Y-36.103
X59.218Y-10.43
X59.431Y-16.606
X59.675Y-68.513
X60.304Y-29.687
X60.304Y-27.378
X61.03Y-49.347
X61.366Y-30.035
X61.368Y-35.858
X62.468Y-17.864
X63.384Y-41.264
X63.723Y-43.129
X64.029Y-14.386
X65.527Y-38.052
X66.978Y-52.149
X67.849Y-36.925
X68.319Y-25.281
X68.52Y-30.693
X71.979Y-34.034
X73.227Y-30.61
T4
X8.995Y-64.025
X11.044Y-70.069
X11.775Y-11.785
X11.775Y-13.685
X12.245Y-30.31
X12.761Y-67.807
X13.061Y-22.497
X13.15Y-26.695
X16.56Y-36.585
X16.795Y-8.795
X16.795Y-71.595
X16.851Y-39.718
X17.0Y-26.695
X17.195Y-32.85
X18.841Y-39.718
X19.084Y-20.54
X20.275Y-11.785
X20.275Y-13.685
X20.59Y-67.165
X20.741Y-39.718
X21.561Y-22.497
X21.65Y-26.695
X22.795Y-48.845
X24.163Y-64.453
X24.285Y-35.885
X24.631Y-39.718
X24.877Y-70.995
X25.295Y-8.795
X25.5Y-26.695
X27.726Y-20.528
X28.61Y-39.075
X28.775Y-11.785
X28.775Y-13.685
X30.061Y-22.497
X30.15Y-26.695
X30.885Y-58.185
X33.275Y-70.595
X33.275Y-72.495
X33.795Y-8.795
X34.0Y-26.695
X34.514Y-77.735
X34.561Y-75.328
X34.75Y-68.2
X35.219Y-17.801
X35.8Y-45.1
X36.216Y-42.812
X36.245Y-77.135
X36.45Y-39.9
X36.45Y-55.7
X36.875Y-11.785
X36.875Y-13.685
X37.675Y-46.75
X37.675Y-56.365
X38.161Y-22.497
X38.25Y-26.695
X38.345Y-77.135
X38.408Y-75.285
X38.55Y-55.895
X38.736Y-40.495
X40.425Y-48.2
X40.425Y-64.0
X41.895Y-8.795
X42.1Y-26.695
X42.39Y-74.685
X42.675Y-73.765
X43.883Y-71.096
X44.425Y-48.2
X44.425Y-64.0
X44.5Y-1.54
X44.5Y-2.81
X44.661Y-34.627
X45.25Y-29.795
X45.25Y-30.795
X46.094Y-65.039
X46.25Y-21.795
X46.25Y-24.185
X46.25Y-26.575
X46.425Y-51.0
X46.425Y-66.8
X46.695Y-34.015
X47.2Y-30.795
X51.1Y-63.6
X51.461Y-30.19
X52.003Y-23.701
X52.95Y-66.6
X53.906Y-48.5
X53.906Y-64.3
X54.695Y-22.595
X54.886Y-52.618
X56.1Y-63.6
X56.416Y-66.812
X57.295Y-70.595
X57.6Y-57.8
X58.45Y-50.4
X58.45Y-66.2
X59.035Y-22.425
X59.05Y-47.8
X59.05Y-63.6
X59.464Y-72.895
X59.719Y-35.194
X60.243Y-51.045
X60.247Y-38.653
X60.319Y-55.224
X61.275Y-51.995
X62.0Y-1.54
X62.65Y-56.575
X64.319Y-32.874
X64.561Y-19.322
X64.661Y-30.027
X64.945Y-26.795
X65.561Y-22.517
X65.625Y-51.995
X66.561Y-30.027
X66.602Y-45.599
X66.65Y-34.225
X66.751Y-19.985
X67.48Y-16.615
X67.751Y-27.495
X68.169Y-32.874
X68.615Y-28.402
X69.54Y-21.875
X69.573Y-19.265
X70.451Y-30.027
X71.025Y-38.675
X71.651Y-27.237
X71.935Y-14.995
X72.019Y-32.874
X72.099Y-30.424
X72.635Y-27.995
X73.39Y-21.875
X73.641Y-27.237
X75.675Y-26.625
X76.2Y-58.4
X76.2Y-65.4
X81.27Y-4.75
X81.27Y-11.25
X81.373Y-9.0
X81.433Y-5.831
X81.725Y-46.575
X82.5Y-58.4
X82.5Y-65.4
T6
X5.0Y-18.0
X5.0Y-20.0
X5.0Y-22.0
X5.0Y-24.0
X5.0Y-26.0
X5.0Y-28.0
X5.0Y-30.0
X5.0Y-32.0
X5.0Y-50.0
X5.0Y-52.0
X5.0Y-54.0
X5.0Y-56.0
T7
X10.0Y-3.0
X12.54Y-3.0
X15.08Y-3.0
X17.62Y-3.0
X20.16Y-3.0
X22.7Y-3.0
X26.0Y-81.5
X27.5Y-3.0
X28.54Y-81.5
X30.04Y-3.0
X31.08Y-81.5
X32.58Y-3.0
X33.62Y-81.5
X35.12Y-3.0
X37.66Y-3.0
X40.2Y-3.0
X41.0Y-81.5
X43.54Y-81.5
X46.08Y-81.5
X48.62Y-81.5
X56.0Y-81.5
X58.54Y-81.5
X61.08Y-81.5
X63.62Y-81.5
X70.5Y-81.5
X73.04Y-81.5
X75.58Y-81.5
T5
X75.25Y-3.68G85X74.65Y-3.68
G05
X75.25Y-12.32G85X74.65Y-12.32
G05
X79.68Y-3.68G85X78.58Y-3.68
G05
X79.68Y-12.32G85X78.58Y-12.32
G05
M30
