M48
; DRILL file {KiCad 9.0.5} date 2026-08-11T16:08:32-0400
; FORMAT={-:-/ absolute / metric / decimal}
; #@! TF.CreationDate,2026-08-11T16:08:32-04:00
; #@! TF.GenerationSoftware,Kicad,Pcbnew,9.0.5
; #@! TF.FileFunction,Plated,1,4,PTH
FMAT,2
METRIC
; #@! TA.AperFunction,Plated,PTH,ComponentDrill
T1C0.200
; #@! TA.AperFunction,Plated,PTH,ViaDrill
T2C0.250
; #@! TA.AperFunction,Plated,PTH,ViaDrill
T3C0.300
; #@! TA.AperFunction,Plated,PTH,ViaDrill
T4C0.400
; #@! TA.AperFunction,Plated,PTH,ComponentDrill
T5C0.600
; #@! TA.AperFunction,Plated,PTH,ComponentDrill
T6C0.750
; #@! TA.AperFunction,Plated,PTH,ComponentDrill
T7C1.000
%
G90
G05
T1
X41.85Y-40.05
X41.85Y-41.35
X41.85Y-42.65
X41.85Y-43.95
X41.85Y-55.85
X41.85Y-57.15
X41.85Y-58.45
X41.85Y-59.75
X43.15Y-40.05
X43.15Y-41.35
X43.15Y-42.65
X43.15Y-43.95
X43.15Y-55.85
X43.15Y-57.15
X43.15Y-58.45
X43.15Y-59.75
X49.1Y-8.56
X49.1Y-9.96
X49.8Y-7.86
X49.8Y-9.26
X49.8Y-10.66
X50.5Y-8.56
X50.5Y-9.96
X51.2Y-7.86
X51.2Y-9.26
X51.2Y-10.66
X51.9Y-8.56
X51.9Y-9.96
T2
X64.07Y-9.745
X73.488Y-18.988
X77.245Y-14.219
T3
X9.708Y-11.043
X10.425Y-68.717
X11.17Y-30.657
X11.697Y-20.544
X12.543Y-39.158
X12.988Y-63.05
X13.372Y-23.751
X13.622Y-70.311
X14.447Y-11.97
X15.496Y-26.899
X17.714Y-9.883
X18.135Y-47.852
X18.715Y-5.64
X20.215Y-42.866
X20.428Y-19.203
X20.988Y-23.346
X23.286Y-30.562
X23.625Y-38.227
X23.862Y-23.418
X25.643Y-67.835
X27.931Y-16.653
X27.931Y-19.34
X28.17Y-30.934
X30.113Y-30.955
X30.261Y-24.367
X30.612Y-11.97
X32.34Y-80.3
X33.204Y-17.945
X34.02Y-41.2
X35.326Y-11.199
X36.867Y-7.218
X38.157Y-15.976
X38.241Y-71.545
X38.332Y-20.113
X38.534Y-42.859
X38.72Y-10.548
X38.725Y-23.724
X38.969Y-11.7
X39.05Y-52.2
X39.05Y-61.5
X39.686Y-14.24
X39.95Y-11.966
X39.979Y-23.378
X40.009Y-38.63
X40.175Y-30.874
X40.381Y-54.574
X40.765Y-18.473
X41.008Y-62.555
X42.328Y-19.12
X42.328Y-26.769
X42.537Y-50.667
X42.65Y-31.295
X43.15Y-61.5
X43.895Y-46.37
X44.192Y-36.294
X44.32Y-28.5
X44.532Y-6.982
X44.82Y-46.262
X45.012Y-36.393
X45.526Y-7.833
X46.194Y-9.776
X46.38Y-15.1
X46.452Y-57.88
X46.812Y-38.3
X46.88Y-26.695
X46.88Y-29.195
X46.975Y-31.795
X46.975Y-33.685
X47.052Y-45.925
X48.18Y-27.795
X48.48Y-51.695
X48.58Y-14.4
X48.84Y-70.1
X49.025Y-29.595
X49.099Y-26.806
X49.32Y-28.0
X49.352Y-18.026
X49.48Y-52.695
X49.737Y-5.225
X49.75Y-51.5
X50.284Y-18.034
X50.721Y-5.409
X51.14Y-67.8
X51.507Y-13.45
X51.861Y-15.179
X51.861Y-18.026
X52.62Y-24.7
X52.88Y-6.4
X53.667Y-30.94
X53.667Y-37.728
X54.021Y-18.022
X54.021Y-26.844
X54.633Y-7.966
X54.702Y-30.941
X54.797Y-36.834
X55.02Y-23.4
X55.12Y-20.0
X55.18Y-11.5
X55.582Y-15.51
X55.856Y-8.239
X56.025Y-11.8
X56.08Y-37.728
X56.238Y-12.692
X56.457Y-18.047
X57.259Y-18.024
X57.39Y-27.674
X57.454Y-16.66
X57.953Y-24.429
X58.564Y-14.849
X58.646Y-34.109
X58.778Y-16.052
X58.964Y-17.561
X59.168Y-30.341
X59.45Y-13.2
X59.48Y-11.1
X59.484Y-4.579
X60.537Y-34.036
X60.749Y-27.884
X60.869Y-20.929
X61.176Y-30.551
X61.78Y-12.6
X61.837Y-38.524
X62.03Y-11.735
X62.469Y-39.775
X62.707Y-40.834
X62.74Y-6.7
X64.04Y-49.2
X64.25Y-19.0
X64.28Y-15.3
X64.73Y-69.505
X64.924Y-72.178
X64.934Y-21.146
X65.58Y-16.6
X65.752Y-52.853
X66.447Y-73.022
X67.14Y-11.1
X67.38Y-18.9
X68.14Y-45.7
X68.93Y-8.326
X69.34Y-11.9
X72.28Y-22.2
X76.78Y-27.2
T4
X6.981Y-78.177
X8.995Y-70.478
X11.775Y-12.67
X11.775Y-14.57
X12.245Y-36.11
X12.761Y-74.287
X13.061Y-26.037
X13.15Y-32.005
X16.56Y-42.498
X16.795Y-8.795
X16.795Y-76.995
X16.851Y-45.744
X17.0Y-32.005
X17.195Y-38.65
X18.704Y-40.272
X18.841Y-45.744
X18.941Y-23.205
X20.275Y-12.67
X20.275Y-14.57
X20.59Y-73.645
X20.741Y-45.744
X21.561Y-26.037
X21.65Y-32.005
X22.795Y-55.245
X23.0Y-35.995
X24.285Y-41.798
X24.307Y-69.908
X24.631Y-45.744
X24.733Y-77.095
X25.295Y-8.795
X25.5Y-32.005
X25.855Y-20.617
X26.744Y-74.966
X26.9Y-49.8
X28.61Y-45.102
X28.775Y-12.67
X28.775Y-14.57
X30.061Y-26.037
X30.15Y-32.005
X30.885Y-64.612
X33.795Y-8.795
X34.0Y-32.005
X34.75Y-68.2
X35.508Y-20.403
X35.8Y-45.1
X36.216Y-42.812
X36.275Y-70.595
X36.275Y-72.495
X36.45Y-39.9
X36.45Y-55.7
X36.875Y-12.67
X36.875Y-14.57
X37.514Y-79.005
X37.561Y-75.962
X37.675Y-46.75
X37.675Y-56.365
X38.161Y-26.037
X38.25Y-32.005
X38.55Y-55.895
X38.736Y-40.495
X39.075Y-72.465
X39.245Y-78.405
X40.425Y-48.2
X40.425Y-64.0
X41.345Y-78.405
X41.408Y-75.92
X41.895Y-8.795
X42.1Y-32.005
X44.425Y-48.2
X44.425Y-64.0
X44.475Y-72.965
X44.5Y-1.54
X44.5Y-2.81
X44.661Y-35.587
X45.25Y-29.795
X45.25Y-30.795
X45.39Y-75.32
X46.094Y-65.039
X46.175Y-74.665
X46.25Y-21.795
X46.25Y-24.6
X46.25Y-27.405
X46.425Y-51.0
X46.425Y-66.8
X46.695Y-34.975
X46.883Y-71.096
X49.65Y-30.795
X51.1Y-63.6
X52.95Y-66.6
X53.906Y-48.5
X53.906Y-64.3
X54.695Y-22.595
X56.1Y-63.6
X56.416Y-66.812
X57.295Y-70.595
X57.6Y-57.8
X58.027Y-32.672
X58.45Y-50.4
X58.45Y-66.2
X59.035Y-22.425
X59.05Y-47.8
X59.05Y-63.6
X59.464Y-72.895
X59.719Y-36.444
X60.319Y-55.339
X60.567Y-51.045
X61.275Y-51.995
X62.0Y-1.54
X62.65Y-56.805
X63.792Y-40.875
X64.945Y-24.195
X65.561Y-18.317
X65.625Y-51.995
X66.414Y-26.112
X66.561Y-28.427
X66.65Y-31.235
X66.751Y-14.785
X67.751Y-24.895
X67.77Y-44.753
X68.209Y-28.824
X68.514Y-9.195
X69.54Y-17.675
X71.025Y-38.675
X71.651Y-24.637
X72.059Y-28.824
X72.582Y-15.497
X73.39Y-17.675
X73.641Y-24.637
X74.382Y-19.297
X74.58Y-12.75
X75.541Y-24.637
X75.909Y-28.824
X76.2Y-58.4
X76.2Y-65.4
X76.417Y-19.943
X77.531Y-24.637
X79.565Y-24.025
X79.759Y-28.824
X81.725Y-46.575
X82.5Y-58.4
X82.5Y-65.4
T6
X5.0Y-18.0
X5.0Y-20.0
X5.0Y-22.0
X5.0Y-24.0
X5.0Y-26.0
X5.0Y-28.0
X5.0Y-30.0
X5.0Y-32.0
X5.0Y-50.0
X5.0Y-52.0
X5.0Y-54.0
X5.0Y-56.0
T7
X10.0Y-3.0
X12.54Y-3.0
X15.08Y-3.0
X17.62Y-3.0
X20.16Y-3.0
X22.7Y-3.0
X26.0Y-81.5
X27.5Y-3.0
X28.54Y-81.5
X30.04Y-3.0
X31.08Y-81.5
X32.58Y-3.0
X33.62Y-81.5
X35.12Y-3.0
X37.66Y-3.0
X40.2Y-3.0
X41.0Y-81.5
X43.54Y-81.5
X46.08Y-81.5
X48.62Y-81.5
X56.0Y-81.5
X58.54Y-81.5
X61.08Y-81.5
X63.62Y-81.5
X70.5Y-81.5
X73.04Y-81.5
X75.58Y-81.5
T5
X76.17Y-11.68G85X77.27Y-11.68
G05
X76.17Y-20.32G85X77.27Y-20.32
G05
X80.6Y-11.68G85X81.2Y-11.68
G05
X80.6Y-20.32G85X81.2Y-20.32
G05
M30
