%TF.GenerationSoftware,KiCad,Pcbnew,9.0.5*%
%TF.CreationDate,2026-08-10T16:35:44-04:00*%
%TF.ProjectId,esp32s3-can-sd-logger,65737033-3273-4332-9d63-616e2d73642d,rev?*%
%TF.SameCoordinates,Original*%
%TF.FileFunction,Copper,L3,Inr*%
%TF.FilePolarity,Positive*%
%FSLAX46Y46*%
G04 Gerber Fmt 4.6, Leading zero omitted, Abs format (unit mm)*
G04 Created by KiCad (PCBNEW 9.0.5) date 2026-08-10 16:35:44*
%MOMM*%
%LPD*%
G01*
G04 APERTURE LIST*
G04 Aperture macros list*
%AMRoundRect*
0 Rectangle with rounded corners*
0 $1 Rounding radius*
0 $2 $3 $4 $5 $6 $7 $8 $9 X,Y pos of 4 corners*
0 Add a 4 corners polygon primitive as box body*
4,1,4,$2,$3,$4,$5,$6,$7,$8,$9,$2,$3,0*
0 Add four circle primitives for the rounded corners*
1,1,$1+$1,$2,$3*
1,1,$1+$1,$4,$5*
1,1,$1+$1,$6,$7*
1,1,$1+$1,$8,$9*
0 Add four rect primitives between the rounded corners*
20,1,$1+$1,$2,$3,$4,$5,0*
20,1,$1+$1,$4,$5,$6,$7,0*
20,1,$1+$1,$6,$7,$8,$9,0*
20,1,$1+$1,$8,$9,$2,$3,0*%
G04 Aperture macros list end*
%TA.AperFunction,ComponentPad*%
%ADD10R,1.700000X1.700000*%
%TD*%
%TA.AperFunction,ComponentPad*%
%ADD11C,1.700000*%
%TD*%
%TA.AperFunction,HeatsinkPad*%
%ADD12C,0.500000*%
%TD*%
%TA.AperFunction,ComponentPad*%
%ADD13RoundRect,0.250000X-0.625000X0.350000X-0.625000X-0.350000X0.625000X-0.350000X0.625000X0.350000X0*%
%TD*%
%TA.AperFunction,ComponentPad*%
%ADD14O,1.750000X1.200000*%
%TD*%
%TA.AperFunction,HeatsinkPad*%
%ADD15O,2.100000X1.000000*%
%TD*%
%TA.AperFunction,HeatsinkPad*%
%ADD16O,1.600000X1.000000*%
%TD*%
%TA.AperFunction,HeatsinkPad*%
%ADD17C,0.600000*%
%TD*%
%TA.AperFunction,ViaPad*%
%ADD18C,0.600000*%
%TD*%
G04 APERTURE END LIST*
D10*
%TO.N,+3V3*%
%TO.C,J5*%
X21700000Y-3000000D03*
D11*
%TO.N,GND*%
X24240000Y-3000000D03*
%TO.N,SPI_SCK*%
X26780000Y-3000000D03*
%TO.N,SPI_MISO*%
X29320000Y-3000000D03*
%TO.N,SPI_MOSI*%
X31860000Y-3000000D03*
%TO.N,SPI_CS*%
X34400000Y-3000000D03*
%TD*%
D10*
%TO.N,IO3*%
%TO.C,J7*%
X10000000Y-3000000D03*
D11*
%TO.N,IO45*%
X12540000Y-3000000D03*
%TO.N,IO46*%
X15080000Y-3000000D03*
%TD*%
D10*
%TO.N,GND*%
%TO.C,J4*%
X41000000Y-71500000D03*
D11*
%TO.N,+3V3*%
X43540000Y-71500000D03*
%TO.N,I2C_SDA*%
X46080000Y-71500000D03*
%TO.N,I2C_SCL*%
X48620000Y-71500000D03*
%TD*%
D10*
%TO.N,LED_5V*%
%TO.C,J6*%
X70500000Y-71500000D03*
D11*
%TO.N,LED_DIN*%
X73040000Y-71500000D03*
%TO.N,GND*%
X75580000Y-71500000D03*
%TD*%
D12*
%TO.N,GND*%
%TO.C,U2*%
X41850000Y-40050000D03*
X41850000Y-41350000D03*
X41850000Y-42650000D03*
X41850000Y-43950000D03*
X43150000Y-40050000D03*
X43150000Y-41350000D03*
X43150000Y-42650000D03*
X43150000Y-43950000D03*
%TD*%
D13*
%TO.N,+5VS*%
%TO.C,J10*%
X5000000Y-18000000D03*
D14*
%TO.N,AIN1_IN*%
X5000000Y-20000000D03*
%TO.N,AIN2_IN*%
X5000000Y-22000000D03*
%TO.N,AIN3_IN*%
X5000000Y-24000000D03*
%TO.N,AIN4_IN*%
X5000000Y-26000000D03*
%TO.N,GND*%
X5000000Y-28000000D03*
X5000000Y-30000000D03*
%TO.N,+5VS*%
X5000000Y-32000000D03*
%TD*%
D15*
%TO.N,GND*%
%TO.C,J2*%
X79130000Y-3680000D03*
D16*
X74950000Y-3680000D03*
D15*
X79130000Y-12320000D03*
D16*
X74950000Y-12320000D03*
%TD*%
D10*
%TO.N,+3V3*%
%TO.C,J3*%
X26000000Y-71500000D03*
D11*
%TO.N,UART_TX*%
X28540000Y-71500000D03*
%TO.N,UART_RX*%
X31080000Y-71500000D03*
%TO.N,GND*%
X33620000Y-71500000D03*
%TD*%
D13*
%TO.N,VBAT_IN*%
%TO.C,J1*%
X5000000Y-50000000D03*
D14*
%TO.N,GND*%
X5000000Y-52000000D03*
%TO.N,CAN_H*%
X5000000Y-54000000D03*
%TO.N,CAN_L*%
X5000000Y-56000000D03*
%TD*%
D10*
%TO.N,+5V*%
%TO.C,J8*%
X56000000Y-71500000D03*
D11*
%TO.N,+3V3*%
X58540000Y-71500000D03*
%TO.N,GND*%
X61080000Y-71500000D03*
X63620000Y-71500000D03*
%TD*%
D12*
%TO.N,GND*%
%TO.C,U3*%
X41850000Y-55850000D03*
X41850000Y-57150000D03*
X41850000Y-58450000D03*
X41850000Y-59750000D03*
X43150000Y-55850000D03*
X43150000Y-57150000D03*
X43150000Y-58450000D03*
X43150000Y-59750000D03*
%TD*%
D17*
%TO.N,GND*%
%TO.C,U4*%
X49100000Y-8560000D03*
X49100000Y-9960000D03*
X49800000Y-7860000D03*
X49800000Y-9260000D03*
X49800000Y-10660000D03*
X50500000Y-8560000D03*
X50500000Y-9960000D03*
X51200000Y-7860000D03*
X51200000Y-9260000D03*
X51200000Y-10660000D03*
X51900000Y-8560000D03*
X51900000Y-9960000D03*
%TD*%
D18*
%TO.N,+VBAT*%
X37675000Y-56365000D03*
X37675000Y-46750000D03*
%TD*%
M02*
