%TF.GenerationSoftware,KiCad,Pcbnew,9.0.5*%
%TF.CreationDate,2026-08-12T17:59:09-04:00*%
%TF.ProjectId,esp32s3-can-sd-logger,65737033-3273-4332-9d63-616e2d73642d,rev?*%
%TF.SameCoordinates,Original*%
%TF.FileFunction,Soldermask,Top*%
%TF.FilePolarity,Negative*%
%FSLAX46Y46*%
G04 Gerber Fmt 4.6, Leading zero omitted, Abs format (unit mm)*
G04 Created by KiCad (PCBNEW 9.0.5) date 2026-08-12 17:59:09*
%MOMM*%
%LPD*%
G01*
G04 APERTURE LIST*
G04 Aperture macros list*
%AMRoundRect*
0 Rectangle with rounded corners*
0 $1 Rounding radius*
0 $2 $3 $4 $5 $6 $7 $8 $9 X,Y pos of 4 corners*
0 Add a 4 corners polygon primitive as box body*
4,1,4,$2,$3,$4,$5,$6,$7,$8,$9,$2,$3,0*
0 Add four circle primitives for the rounded corners*
1,1,$1+$1,$2,$3*
1,1,$1+$1,$4,$5*
1,1,$1+$1,$6,$7*
1,1,$1+$1,$8,$9*
0 Add four rect primitives between the rounded corners*
20,1,$1+$1,$2,$3,$4,$5,0*
20,1,$1+$1,$4,$5,$6,$7,0*
20,1,$1+$1,$6,$7,$8,$9,0*
20,1,$1+$1,$8,$9,$2,$3,0*%
G04 Aperture macros list end*
%ADD10RoundRect,0.250000X-0.262500X-0.450000X0.262500X-0.450000X0.262500X0.450000X-0.262500X0.450000X0*%
%ADD11RoundRect,0.250000X-0.625000X0.350000X-0.625000X-0.350000X0.625000X-0.350000X0.625000X0.350000X0*%
%ADD12O,1.750000X1.200000*%
%ADD13RoundRect,0.250000X-0.375000X-0.625000X0.375000X-0.625000X0.375000X0.625000X-0.375000X0.625000X0*%
%ADD14RoundRect,0.250000X-0.250000X-0.475000X0.250000X-0.475000X0.250000X0.475000X-0.250000X0.475000X0*%
%ADD15C,1.500000*%
%ADD16RoundRect,0.150000X-0.587500X-0.150000X0.587500X-0.150000X0.587500X0.150000X-0.587500X0.150000X0*%
%ADD17R,1.000000X1.500000*%
%ADD18RoundRect,0.250000X-0.325000X-0.650000X0.325000X-0.650000X0.325000X0.650000X-0.325000X0.650000X0*%
%ADD19RoundRect,0.250000X-1.000000X-0.650000X1.000000X-0.650000X1.000000X0.650000X-1.000000X0.650000X0*%
%ADD20RoundRect,0.150000X-0.512500X-0.150000X0.512500X-0.150000X0.512500X0.150000X-0.512500X0.150000X0*%
%ADD21RoundRect,0.250000X-0.275000X-0.700000X0.275000X-0.700000X0.275000X0.700000X-0.275000X0.700000X0*%
%ADD22RoundRect,0.250000X-0.312500X-0.625000X0.312500X-0.625000X0.312500X0.625000X-0.312500X0.625000X0*%
%ADD23RoundRect,0.218750X-0.218750X-0.381250X0.218750X-0.381250X0.218750X0.381250X-0.218750X0.381250X0*%
%ADD24RoundRect,0.249998X-3.650002X-4.550002X3.650002X-4.550002X3.650002X4.550002X-3.650002X4.550002X0*%
%ADD25RoundRect,0.250000X-0.850000X-0.350000X0.850000X-0.350000X0.850000X0.350000X-0.850000X0.350000X0*%
%ADD26RoundRect,0.249997X-2.950003X-2.650003X2.950003X-2.650003X2.950003X2.650003X-2.950003X2.650003X0*%
%ADD27R,1.700000X1.700000*%
%ADD28C,1.700000*%
%ADD29R,1.700000X1.000000*%
%ADD30RoundRect,0.150000X-0.825000X-0.150000X0.825000X-0.150000X0.825000X0.150000X-0.825000X0.150000X0*%
%ADD31RoundRect,0.243750X-0.243750X-0.456250X0.243750X-0.456250X0.243750X0.456250X-0.243750X0.456250X0*%
%ADD32RoundRect,0.225000X-0.225000X-0.375000X0.225000X-0.375000X0.225000X0.375000X-0.225000X0.375000X0*%
%ADD33R,2.710000X3.400000*%
%ADD34RoundRect,0.150000X-0.737500X-0.150000X0.737500X-0.150000X0.737500X0.150000X-0.737500X0.150000X0*%
%ADD35RoundRect,0.250000X1.000000X-1.400000X1.000000X1.400000X-1.000000X1.400000X-1.000000X-1.400000X0*%
%ADD36C,3.200000*%
%ADD37RoundRect,0.249999X-0.850001X-3.500001X0.850001X-3.500001X0.850001X3.500001X-0.850001X3.500001X0*%
%ADD38RoundRect,0.112500X-0.187500X-0.112500X0.187500X-0.112500X0.187500X0.112500X-0.187500X0.112500X0*%
%ADD39RoundRect,0.250000X0.325000X0.650000X-0.325000X0.650000X-0.325000X-0.650000X0.325000X-0.650000X0*%
%ADD40R,1.500000X0.900000*%
%ADD41R,0.900000X1.500000*%
%ADD42C,0.600000*%
%ADD43R,3.900000X3.900000*%
%ADD44R,1.750000X0.700000*%
%ADD45R,1.000000X1.450000*%
%ADD46R,1.550000X1.000000*%
%ADD47R,1.500000X0.800000*%
%ADD48R,1.500000X1.300000*%
%ADD49R,1.500000X1.500000*%
%ADD50R,1.400000X0.800000*%
%ADD51R,1.350000X0.900000*%
%ADD52C,0.650000*%
%ADD53R,1.450000X0.600000*%
%ADD54R,1.450000X0.300000*%
%ADD55O,2.100000X1.000000*%
%ADD56O,1.600000X1.000000*%
%ADD57RoundRect,0.075000X-0.650000X-0.075000X0.650000X-0.075000X0.650000X0.075000X-0.650000X0.075000X0*%
%ADD58RoundRect,0.250000X-1.950000X-1.000000X1.950000X-1.000000X1.950000X1.000000X-1.950000X1.000000X0*%
%ADD59RoundRect,0.250000X0.250000X0.475000X-0.250000X0.475000X-0.250000X-0.475000X0.250000X-0.475000X0*%
G04 APERTURE END LIST*
%TO.C,JP7*%
G36*
X19545000Y-17195000D02*
G01*
X21145000Y-17195000D01*
X21145000Y-18695000D01*
X19545000Y-18695000D01*
X19545000Y-17195000D01*
G37*
%TO.C,JP13*%
G36*
X36145000Y-17195000D02*
G01*
X37745000Y-17195000D01*
X37745000Y-18695000D01*
X36145000Y-18695000D01*
X36145000Y-17195000D01*
G37*
%TO.C,JP2*%
G36*
X11045000Y-21070000D02*
G01*
X11345000Y-21070000D01*
X11345000Y-22570000D01*
X11045000Y-22570000D01*
X11045000Y-21070000D01*
G37*
%TO.C,JP12*%
G36*
X39935000Y-21070000D02*
G01*
X40235000Y-21070000D01*
X40235000Y-22570000D01*
X39935000Y-22570000D01*
X39935000Y-21070000D01*
G37*
%TO.C,JP8*%
G36*
X28045000Y-21070000D02*
G01*
X28345000Y-21070000D01*
X28345000Y-22570000D01*
X28045000Y-22570000D01*
X28045000Y-21070000D01*
G37*
%TO.C,JP9*%
G36*
X31835000Y-21070000D02*
G01*
X32135000Y-21070000D01*
X32135000Y-22570000D01*
X31835000Y-22570000D01*
X31835000Y-21070000D01*
G37*
%TO.C,JP1*%
G36*
X11045000Y-44651700D02*
G01*
X11345000Y-44651700D01*
X11345000Y-46151700D01*
X11045000Y-46151700D01*
X11045000Y-44651700D01*
G37*
%TO.C,JP11*%
G36*
X36145000Y-21070000D02*
G01*
X36445000Y-21070000D01*
X36445000Y-22570000D01*
X36145000Y-22570000D01*
X36145000Y-21070000D01*
G37*
%TO.C,JP5*%
G36*
X19545000Y-21070000D02*
G01*
X19845000Y-21070000D01*
X19845000Y-22570000D01*
X19545000Y-22570000D01*
X19545000Y-21070000D01*
G37*
%TO.C,JP10*%
G36*
X28045000Y-17195000D02*
G01*
X29645000Y-17195000D01*
X29645000Y-18695000D01*
X28045000Y-18695000D01*
X28045000Y-17195000D01*
G37*
%TO.C,JP6*%
G36*
X23335000Y-21070000D02*
G01*
X23635000Y-21070000D01*
X23635000Y-22570000D01*
X23335000Y-22570000D01*
X23335000Y-21070000D01*
G37*
%TO.C,JP4*%
G36*
X11045000Y-17195000D02*
G01*
X12645000Y-17195000D01*
X12645000Y-18695000D01*
X11045000Y-18695000D01*
X11045000Y-17195000D01*
G37*
%TO.C,JP3*%
G36*
X14835000Y-21070000D02*
G01*
X15135000Y-21070000D01*
X15135000Y-22570000D01*
X14835000Y-22570000D01*
X14835000Y-21070000D01*
G37*
%TD*%
D10*
%TO.C,R20*%
X44787500Y-53400000D03*
X46612500Y-53400000D03*
%TD*%
D11*
%TO.C,J1*%
X5000000Y-50000000D03*
D12*
X5000000Y-52000000D03*
X5000000Y-54000000D03*
X5000000Y-56000000D03*
%TD*%
D13*
%TO.C,F1*%
X22897500Y-69908300D03*
X25697500Y-69908300D03*
%TD*%
D14*
%TO.C,C15*%
X55550000Y-50400000D03*
X57450000Y-50400000D03*
%TD*%
D15*
%TO.C,TP2*%
X56140000Y-70796200D03*
%TD*%
D16*
%TO.C,Q6*%
X60037500Y-50095000D03*
X60037500Y-51995000D03*
X61912500Y-51045000D03*
%TD*%
D10*
%TO.C,R52*%
X54912500Y-35405000D03*
X56737500Y-35405000D03*
%TD*%
D17*
%TO.C,JP7*%
X19045000Y-17945000D03*
X20345000Y-17945000D03*
X21645000Y-17945000D03*
%TD*%
D10*
%TO.C,R16*%
X37387500Y-53400000D03*
X39212500Y-53400000D03*
%TD*%
D18*
%TO.C,C30*%
X68060000Y-16975000D03*
X71010000Y-16975000D03*
%TD*%
D10*
%TO.C,R47*%
X59212500Y-29100000D03*
X61037500Y-29100000D03*
%TD*%
%TO.C,R67*%
X31202500Y-25395000D03*
X33027500Y-25395000D03*
%TD*%
D14*
%TO.C,C26*%
X73235000Y-25525000D03*
X75135000Y-25525000D03*
%TD*%
D19*
%TO.C,D6*%
X11045000Y-41798300D03*
X15045000Y-41798300D03*
%TD*%
D14*
%TO.C,C8*%
X35295000Y-74008300D03*
X37195000Y-74008300D03*
%TD*%
D15*
%TO.C,TP8*%
X64597500Y-43499600D03*
%TD*%
D10*
%TO.C,R40*%
X63662500Y-54300000D03*
X65487500Y-54300000D03*
%TD*%
D15*
%TO.C,TP10*%
X25777500Y-41299600D03*
%TD*%
D10*
%TO.C,R56*%
X10312500Y-48205000D03*
X12137500Y-48205000D03*
%TD*%
D20*
%TO.C,U7*%
X62957500Y-8795000D03*
X62957500Y-9745000D03*
X62957500Y-10695000D03*
X65232500Y-10695000D03*
X65232500Y-9745000D03*
X65232500Y-8795000D03*
%TD*%
D15*
%TO.C,TP6*%
X43287500Y-82296200D03*
%TD*%
D10*
%TO.C,R12*%
X45587500Y-48200000D03*
X47412500Y-48200000D03*
%TD*%
D14*
%TO.C,C34*%
X56135000Y-22425000D03*
X58035000Y-22425000D03*
%TD*%
D10*
%TO.C,R62*%
X22702500Y-25395000D03*
X24527500Y-25395000D03*
%TD*%
%TO.C,R38*%
X43412500Y-27405000D03*
X45237500Y-27405000D03*
%TD*%
D14*
%TO.C,C19*%
X41050000Y-53400000D03*
X42950000Y-53400000D03*
%TD*%
D21*
%TO.C,FB1*%
X17602500Y-69978300D03*
X20752500Y-69978300D03*
%TD*%
D17*
%TO.C,JP13*%
X35645000Y-17945000D03*
X36945000Y-17945000D03*
X38245000Y-17945000D03*
%TD*%
D10*
%TO.C,R7*%
X43012500Y-76521700D03*
X44837500Y-76521700D03*
%TD*%
D17*
%TO.C,JP2*%
X10545000Y-21820000D03*
X11845000Y-21820000D03*
%TD*%
D10*
%TO.C,R43*%
X54912500Y-25947500D03*
X56737500Y-25947500D03*
%TD*%
D22*
%TO.C,PF1*%
X40452500Y-86165000D03*
X43377500Y-86165000D03*
%TD*%
D23*
%TO.C,FB2*%
X35232500Y-88675000D03*
X37357500Y-88675000D03*
%TD*%
D24*
%TO.C,C7*%
X65750000Y-77000000D03*
X78250000Y-77000000D03*
%TD*%
D10*
%TO.C,R26*%
X62812500Y-22315000D03*
X64637500Y-22315000D03*
%TD*%
D25*
%TO.C,Q1*%
X10595000Y-62481700D03*
X10595000Y-64761700D03*
D26*
X16895000Y-64761700D03*
D25*
X10595000Y-67041700D03*
%TD*%
D10*
%TO.C,R10*%
X37387500Y-37600000D03*
X39212500Y-37600000D03*
%TD*%
D15*
%TO.C,TP5*%
X33500000Y-68200000D03*
%TD*%
D10*
%TO.C,R46*%
X54912500Y-29100000D03*
X56737500Y-29100000D03*
%TD*%
%TO.C,R44*%
X59212500Y-25947500D03*
X61037500Y-25947500D03*
%TD*%
D14*
%TO.C,C28*%
X77125000Y-25525000D03*
X79025000Y-25525000D03*
%TD*%
D10*
%TO.C,R51*%
X50612500Y-35405000D03*
X52437500Y-35405000D03*
%TD*%
%TO.C,R50*%
X59212500Y-32252500D03*
X61037500Y-32252500D03*
%TD*%
D17*
%TO.C,JP12*%
X39435000Y-21820000D03*
X40735000Y-21820000D03*
%TD*%
%TO.C,JP8*%
X27545000Y-21820000D03*
X28845000Y-21820000D03*
%TD*%
D10*
%TO.C,R70*%
X27312500Y-32005000D03*
X29137500Y-32005000D03*
%TD*%
D14*
%TO.C,C41*%
X35395000Y-25425000D03*
X37295000Y-25425000D03*
%TD*%
%TO.C,C38*%
X10295000Y-25425000D03*
X12195000Y-25425000D03*
%TD*%
D27*
%TO.C,J5*%
X27500000Y-3000000D03*
D28*
X30040000Y-3000000D03*
X32580000Y-3000000D03*
X35120000Y-3000000D03*
X37660000Y-3000000D03*
X40200000Y-3000000D03*
%TD*%
D27*
%TO.C,J4*%
X41000000Y-97500000D03*
D28*
X43540000Y-97500000D03*
X46080000Y-97500000D03*
X48620000Y-97500000D03*
%TD*%
D29*
%TO.C,SW2*%
X74850000Y-61600000D03*
X81150000Y-61600000D03*
X74850000Y-65400000D03*
X81150000Y-65400000D03*
%TD*%
D30*
%TO.C,U12*%
X10770000Y-34840000D03*
X10770000Y-36110000D03*
X10770000Y-37380000D03*
X10770000Y-38650000D03*
X15720000Y-38650000D03*
X15720000Y-37380000D03*
X15720000Y-36110000D03*
X15720000Y-34840000D03*
%TD*%
D14*
%TO.C,C24*%
X55550000Y-66200000D03*
X57450000Y-66200000D03*
%TD*%
D31*
%TO.C,D4*%
X52177500Y-75385000D03*
X54052500Y-75385000D03*
%TD*%
D10*
%TO.C,R68*%
X27312500Y-28730000D03*
X29137500Y-28730000D03*
%TD*%
D18*
%TO.C,C14*%
X55025000Y-47800000D03*
X57975000Y-47800000D03*
%TD*%
D10*
%TO.C,R21*%
X43587500Y-66800000D03*
X45412500Y-66800000D03*
%TD*%
D14*
%TO.C,C12*%
X39550000Y-51000000D03*
X41450000Y-51000000D03*
%TD*%
D32*
%TO.C,D5*%
X62745000Y-16975000D03*
X66045000Y-16975000D03*
%TD*%
D19*
%TO.C,D3*%
X36045000Y-82795000D03*
X40045000Y-82795000D03*
%TD*%
D16*
%TO.C,Q5*%
X67387500Y-12685000D03*
X67387500Y-14585000D03*
X69262500Y-13635000D03*
%TD*%
D15*
%TO.C,TP4*%
X33800000Y-37400000D03*
%TD*%
D10*
%TO.C,R72*%
X39302500Y-25395000D03*
X41127500Y-25395000D03*
%TD*%
D22*
%TO.C,PF2*%
X62862500Y-19745000D03*
X65787500Y-19745000D03*
%TD*%
D10*
%TO.C,R59*%
X14162500Y-28730000D03*
X15987500Y-28730000D03*
%TD*%
D27*
%TO.C,J7*%
X10000000Y-3000000D03*
D28*
X12540000Y-3000000D03*
X15080000Y-3000000D03*
X17620000Y-3000000D03*
X20160000Y-3000000D03*
X22700000Y-3000000D03*
%TD*%
D33*
%TO.C,U4*%
X42500000Y-57800000D03*
D34*
X39937500Y-55895000D03*
X39937500Y-57165000D03*
X39937500Y-58435000D03*
X39937500Y-59705000D03*
X45062500Y-59705000D03*
X45062500Y-58435000D03*
X45062500Y-57165000D03*
X45062500Y-55895000D03*
%TD*%
D17*
%TO.C,JP9*%
X31335000Y-21820000D03*
X32635000Y-21820000D03*
%TD*%
D20*
%TO.C,U10*%
X64257500Y-34795000D03*
X64257500Y-35745000D03*
X64257500Y-36695000D03*
X66532500Y-36695000D03*
X66532500Y-35745000D03*
X66532500Y-34795000D03*
%TD*%
D35*
%TO.C,D1*%
X22335000Y-64611700D03*
X29135000Y-64611700D03*
%TD*%
D17*
%TO.C,JP1*%
X10545000Y-45401700D03*
X11845000Y-45401700D03*
%TD*%
D14*
%TO.C,C31*%
X67845000Y-19595000D03*
X69745000Y-19595000D03*
%TD*%
D17*
%TO.C,JP11*%
X35645000Y-21820000D03*
X36945000Y-21820000D03*
%TD*%
D36*
%TO.C,H1*%
X4000000Y-4000000D03*
%TD*%
D37*
%TO.C,L2*%
X50000000Y-57800000D03*
X56000000Y-57800000D03*
%TD*%
D17*
%TO.C,JP5*%
X19045000Y-21820000D03*
X20345000Y-21820000D03*
%TD*%
D16*
%TO.C,Q4*%
X63037500Y-12685000D03*
X63037500Y-14585000D03*
X64912500Y-13635000D03*
%TD*%
D10*
%TO.C,R34*%
X58952500Y-86795000D03*
X60777500Y-86795000D03*
%TD*%
%TO.C,R65*%
X18812500Y-32005000D03*
X20637500Y-32005000D03*
%TD*%
D11*
%TO.C,J10*%
X5000000Y-18000000D03*
D12*
X5000000Y-20000000D03*
X5000000Y-22000000D03*
X5000000Y-24000000D03*
X5000000Y-26000000D03*
X5000000Y-28000000D03*
X5000000Y-30000000D03*
X5000000Y-32000000D03*
%TD*%
D14*
%TO.C,C2*%
X9995000Y-73675000D03*
X11895000Y-73675000D03*
%TD*%
D10*
%TO.C,R17*%
X37587500Y-64000000D03*
X39412500Y-64000000D03*
%TD*%
D27*
%TO.C,J3*%
X26000000Y-97500000D03*
D28*
X28540000Y-97500000D03*
X31080000Y-97500000D03*
X33620000Y-97500000D03*
%TD*%
D14*
%TO.C,C40*%
X27295000Y-25425000D03*
X29195000Y-25425000D03*
%TD*%
D10*
%TO.C,R27*%
X75402500Y-29670000D03*
X77227500Y-29670000D03*
%TD*%
D38*
%TO.C,D2*%
X55795000Y-78835000D03*
X57895000Y-78835000D03*
%TD*%
D39*
%TO.C,C17*%
X37675000Y-60900000D03*
X34725000Y-60900000D03*
%TD*%
D14*
%TO.C,C11*%
X50050000Y-50800000D03*
X51950000Y-50800000D03*
%TD*%
D10*
%TO.C,R58*%
X10312500Y-28730000D03*
X12137500Y-28730000D03*
%TD*%
D14*
%TO.C,C20*%
X50050000Y-66600000D03*
X51950000Y-66600000D03*
%TD*%
D16*
%TO.C,U6*%
X64037500Y-25295000D03*
X64037500Y-27195000D03*
X65912500Y-26245000D03*
%TD*%
D14*
%TO.C,C10*%
X41050000Y-37600000D03*
X42950000Y-37600000D03*
%TD*%
D10*
%TO.C,R37*%
X43412500Y-24600000D03*
X45237500Y-24600000D03*
%TD*%
%TO.C,R2*%
X17752500Y-73645000D03*
X19577500Y-73645000D03*
%TD*%
%TO.C,R78*%
X52162500Y-78835000D03*
X53987500Y-78835000D03*
%TD*%
D18*
%TO.C,C33*%
X50670000Y-22595000D03*
X53620000Y-22595000D03*
%TD*%
D40*
%TO.C,U5*%
X43250000Y-1540000D03*
X43250000Y-2810000D03*
X43250000Y-4080000D03*
X43250000Y-5350000D03*
X43250000Y-6620000D03*
X43250000Y-7890000D03*
X43250000Y-9160000D03*
X43250000Y-10430000D03*
X43250000Y-11700000D03*
X43250000Y-12970000D03*
X43250000Y-14240000D03*
X43250000Y-15510000D03*
X43250000Y-16780000D03*
X43250000Y-18050000D03*
D41*
X45015000Y-19300000D03*
X46285000Y-19300000D03*
X47555000Y-19300000D03*
X48825000Y-19300000D03*
X50095000Y-19300000D03*
X51365000Y-19300000D03*
X52635000Y-19300000D03*
X53905000Y-19300000D03*
X55175000Y-19300000D03*
X56445000Y-19300000D03*
X57715000Y-19300000D03*
X58985000Y-19300000D03*
D40*
X60750000Y-18050000D03*
X60750000Y-16780000D03*
X60750000Y-15510000D03*
X60750000Y-14240000D03*
X60750000Y-12970000D03*
X60750000Y-11700000D03*
X60750000Y-10430000D03*
X60750000Y-9160000D03*
X60750000Y-7890000D03*
X60750000Y-6620000D03*
X60750000Y-5350000D03*
X60750000Y-4080000D03*
X60750000Y-2810000D03*
X60750000Y-1540000D03*
D42*
X49100000Y-8560000D03*
X49100000Y-9960000D03*
X49800000Y-7860000D03*
X49800000Y-9260000D03*
X49800000Y-10660000D03*
X50500000Y-8560000D03*
D43*
X50500000Y-9260000D03*
D42*
X50500000Y-9960000D03*
X51200000Y-7860000D03*
X51200000Y-9260000D03*
X51200000Y-10660000D03*
X51900000Y-8560000D03*
X51900000Y-9960000D03*
%TD*%
D36*
%TO.C,H2*%
X4000000Y-96000000D03*
%TD*%
D16*
%TO.C,D16*%
X48537500Y-70295000D03*
X48537500Y-72195000D03*
X50412500Y-71245000D03*
%TD*%
%TO.C,U2*%
X35537500Y-69795000D03*
X35537500Y-71695000D03*
X37412500Y-70745000D03*
%TD*%
D10*
%TO.C,R54*%
X21882500Y-45101700D03*
X23707500Y-45101700D03*
%TD*%
%TO.C,R14*%
X44787500Y-37600000D03*
X46612500Y-37600000D03*
%TD*%
%TO.C,R35*%
X49312500Y-91685000D03*
X51137500Y-91685000D03*
%TD*%
%TO.C,R25*%
X71752500Y-19565000D03*
X73577500Y-19565000D03*
%TD*%
%TO.C,R53*%
X59212500Y-35405000D03*
X61037500Y-35405000D03*
%TD*%
D16*
%TO.C,D9*%
X10537500Y-12670000D03*
X10537500Y-14570000D03*
X12412500Y-13620000D03*
%TD*%
D10*
%TO.C,R74*%
X39262500Y-28730000D03*
X41087500Y-28730000D03*
%TD*%
D44*
%TO.C,J9*%
X69650000Y-44175000D03*
X69650000Y-43075000D03*
X69650000Y-41975000D03*
X69650000Y-40875000D03*
X69650000Y-39775000D03*
X69650000Y-38675000D03*
X69650000Y-37575000D03*
X69650000Y-36475000D03*
D45*
X78875000Y-35350000D03*
D46*
X80450000Y-46575000D03*
D47*
X77375000Y-35025000D03*
D48*
X69775000Y-35275000D03*
D49*
X69775000Y-46625000D03*
D50*
X78025000Y-46975000D03*
%TD*%
D33*
%TO.C,U3*%
X42500000Y-42000000D03*
D34*
X39937500Y-40095000D03*
X39937500Y-41365000D03*
X39937500Y-42635000D03*
X39937500Y-43905000D03*
X45062500Y-43905000D03*
X45062500Y-42635000D03*
X45062500Y-41365000D03*
X45062500Y-40095000D03*
%TD*%
D51*
%TO.C,L3*%
X18360000Y-34745000D03*
X22910000Y-34745000D03*
X18360000Y-37245000D03*
X22910000Y-37245000D03*
%TD*%
D36*
%TO.C,H4*%
X80000000Y-96000000D03*
%TD*%
D15*
%TO.C,TP3*%
X15087500Y-70029600D03*
%TD*%
D18*
%TO.C,C25*%
X35370000Y-86185000D03*
X38320000Y-86185000D03*
%TD*%
D20*
%TO.C,U8*%
X67547500Y-8795000D03*
X67547500Y-9745000D03*
X67547500Y-10695000D03*
X69822500Y-10695000D03*
X69822500Y-9745000D03*
X69822500Y-8795000D03*
%TD*%
D10*
%TO.C,R77*%
X48312500Y-78835000D03*
X50137500Y-78835000D03*
%TD*%
D17*
%TO.C,JP10*%
X27545000Y-17945000D03*
X28845000Y-17945000D03*
X30145000Y-17945000D03*
%TD*%
D10*
%TO.C,R3*%
X39202500Y-73978300D03*
X41027500Y-73978300D03*
%TD*%
%TO.C,R71*%
X31162500Y-32005000D03*
X32987500Y-32005000D03*
%TD*%
D17*
%TO.C,JP6*%
X22835000Y-21820000D03*
X24135000Y-21820000D03*
%TD*%
D10*
%TO.C,R5*%
X35312500Y-76521700D03*
X37137500Y-76521700D03*
%TD*%
D39*
%TO.C,C4*%
X37675000Y-45100000D03*
X34725000Y-45100000D03*
%TD*%
D10*
%TO.C,R23*%
X67702500Y-29670000D03*
X69527500Y-29670000D03*
%TD*%
%TO.C,R41*%
X59812500Y-56805000D03*
X61637500Y-56805000D03*
%TD*%
%TO.C,R49*%
X54912500Y-32252500D03*
X56737500Y-32252500D03*
%TD*%
D15*
%TO.C,TP1*%
X53147500Y-70796200D03*
%TD*%
D36*
%TO.C,H3*%
X80000000Y-4000000D03*
%TD*%
D14*
%TO.C,C37*%
X17975000Y-45131700D03*
X19875000Y-45131700D03*
%TD*%
%TO.C,C43*%
X48295000Y-75415000D03*
X50195000Y-75415000D03*
%TD*%
D19*
%TO.C,D14*%
X36145000Y-8795000D03*
X40145000Y-8795000D03*
%TD*%
D10*
%TO.C,R19*%
X41587500Y-64000000D03*
X43412500Y-64000000D03*
%TD*%
%TO.C,R76*%
X39262500Y-32005000D03*
X41087500Y-32005000D03*
%TD*%
D16*
%TO.C,D15*%
X35637500Y-12670000D03*
X35637500Y-14570000D03*
X37512500Y-13620000D03*
%TD*%
D14*
%TO.C,C18*%
X33550000Y-55700000D03*
X35450000Y-55700000D03*
%TD*%
D10*
%TO.C,R29*%
X63812500Y-32405000D03*
X65637500Y-32405000D03*
%TD*%
D15*
%TO.C,TP7*%
X59132500Y-70796200D03*
%TD*%
D19*
%TO.C,D7*%
X18535000Y-41798300D03*
X22535000Y-41798300D03*
%TD*%
D10*
%TO.C,R18*%
X45587500Y-64000000D03*
X47412500Y-64000000D03*
%TD*%
%TO.C,R11*%
X37587500Y-48200000D03*
X39412500Y-48200000D03*
%TD*%
%TO.C,R36*%
X43412500Y-21795000D03*
X45237500Y-21795000D03*
%TD*%
%TO.C,R48*%
X50612500Y-32252500D03*
X52437500Y-32252500D03*
%TD*%
D52*
%TO.C,J2*%
X77250000Y-18890000D03*
X77250000Y-13110000D03*
D53*
X75805000Y-19250000D03*
X75805000Y-18450000D03*
D54*
X75805000Y-17250000D03*
X75805000Y-16250000D03*
X75805000Y-15750000D03*
X75805000Y-14750000D03*
D53*
X75805000Y-13550000D03*
X75805000Y-12750000D03*
X75805000Y-12750000D03*
X75805000Y-13550000D03*
D54*
X75805000Y-14250000D03*
X75805000Y-15250000D03*
X75805000Y-16750000D03*
X75805000Y-17750000D03*
D53*
X75805000Y-18450000D03*
X75805000Y-19250000D03*
D55*
X76720000Y-20320000D03*
D56*
X80900000Y-20320000D03*
D55*
X76720000Y-11680000D03*
D56*
X80900000Y-11680000D03*
%TD*%
D10*
%TO.C,R1*%
X13902500Y-73645000D03*
X15727500Y-73645000D03*
%TD*%
D17*
%TO.C,JP4*%
X10545000Y-17945000D03*
X11845000Y-17945000D03*
X13145000Y-17945000D03*
%TD*%
D16*
%TO.C,Q2*%
X39887500Y-69795000D03*
X39887500Y-71695000D03*
X41762500Y-70745000D03*
%TD*%
D57*
%TO.C,U13*%
X44025000Y-29795000D03*
X44025000Y-30295000D03*
X44025000Y-30795000D03*
X44025000Y-31295000D03*
X44025000Y-31795000D03*
X48425000Y-31795000D03*
X48425000Y-31295000D03*
X48425000Y-30795000D03*
X48425000Y-30295000D03*
X48425000Y-29795000D03*
%TD*%
D17*
%TO.C,JP3*%
X14335000Y-21820000D03*
X15635000Y-21820000D03*
%TD*%
D18*
%TO.C,C22*%
X50025000Y-63600000D03*
X52975000Y-63600000D03*
%TD*%
D20*
%TO.C,U9*%
X49457500Y-86595000D03*
X49457500Y-87545000D03*
X49457500Y-88495000D03*
X51732500Y-88495000D03*
X51732500Y-86595000D03*
%TD*%
D10*
%TO.C,R32*%
X75362500Y-32405000D03*
X77187500Y-32405000D03*
%TD*%
%TO.C,R30*%
X67662500Y-32405000D03*
X69487500Y-32405000D03*
%TD*%
%TO.C,R55*%
X25732500Y-45101700D03*
X27557500Y-45101700D03*
%TD*%
D58*
%TO.C,C3*%
X11695000Y-55245000D03*
X20095000Y-55245000D03*
%TD*%
D19*
%TO.C,D12*%
X28045000Y-8795000D03*
X32045000Y-8795000D03*
%TD*%
D59*
%TO.C,C16*%
X37250000Y-58000000D03*
X35350000Y-58000000D03*
%TD*%
D14*
%TO.C,C29*%
X63795000Y-29700000D03*
X65695000Y-29700000D03*
%TD*%
D10*
%TO.C,R73*%
X35412500Y-28730000D03*
X37237500Y-28730000D03*
%TD*%
D15*
%TO.C,TP11*%
X28770000Y-41299600D03*
%TD*%
D10*
%TO.C,R63*%
X18812500Y-28730000D03*
X20637500Y-28730000D03*
%TD*%
%TO.C,R64*%
X22662500Y-28730000D03*
X24487500Y-28730000D03*
%TD*%
D37*
%TO.C,L1*%
X50000000Y-42000000D03*
X56000000Y-42000000D03*
%TD*%
D10*
%TO.C,R57*%
X14202500Y-25395000D03*
X16027500Y-25395000D03*
%TD*%
D27*
%TO.C,J6*%
X69000000Y-97500000D03*
D28*
X71540000Y-97500000D03*
X74080000Y-97500000D03*
%TD*%
D20*
%TO.C,U11*%
X64257500Y-38896700D03*
X64257500Y-39846700D03*
X64257500Y-40796700D03*
X66532500Y-40796700D03*
X66532500Y-39846700D03*
X66532500Y-38896700D03*
%TD*%
D18*
%TO.C,C13*%
X50025000Y-47800000D03*
X52975000Y-47800000D03*
%TD*%
D59*
%TO.C,C32*%
X51750000Y-84500000D03*
X49850000Y-84500000D03*
%TD*%
%TO.C,C35*%
X8550000Y-37400000D03*
X6650000Y-37400000D03*
%TD*%
D10*
%TO.C,R61*%
X14162500Y-32005000D03*
X15987500Y-32005000D03*
%TD*%
D18*
%TO.C,C23*%
X55025000Y-63600000D03*
X57975000Y-63600000D03*
%TD*%
D29*
%TO.C,SW1*%
X74850000Y-54600000D03*
X81150000Y-54600000D03*
X74850000Y-58400000D03*
X81150000Y-58400000D03*
%TD*%
D10*
%TO.C,R69*%
X31162500Y-28730000D03*
X32987500Y-28730000D03*
%TD*%
%TO.C,R75*%
X35412500Y-32005000D03*
X37237500Y-32005000D03*
%TD*%
D22*
%TO.C,PF3*%
X53952500Y-86975000D03*
X56877500Y-86975000D03*
%TD*%
D27*
%TO.C,J8*%
X56000000Y-97500000D03*
D28*
X58540000Y-97500000D03*
X61080000Y-97500000D03*
X63620000Y-97500000D03*
%TD*%
D10*
%TO.C,R9*%
X39162500Y-79005000D03*
X40987500Y-79005000D03*
%TD*%
D19*
%TO.C,D10*%
X19545000Y-8795000D03*
X23545000Y-8795000D03*
%TD*%
D16*
%TO.C,D11*%
X19037500Y-12670000D03*
X19037500Y-14570000D03*
X20912500Y-13620000D03*
%TD*%
D15*
%TO.C,TP9*%
X64597500Y-46703800D03*
%TD*%
D10*
%TO.C,R60*%
X10312500Y-32005000D03*
X12137500Y-32005000D03*
%TD*%
%TO.C,R28*%
X79252500Y-29670000D03*
X81077500Y-29670000D03*
%TD*%
%TO.C,R13*%
X41587500Y-48200000D03*
X43412500Y-48200000D03*
%TD*%
%TO.C,R66*%
X22662500Y-32005000D03*
X24487500Y-32005000D03*
%TD*%
%TO.C,R45*%
X50612500Y-29100000D03*
X52437500Y-29100000D03*
%TD*%
%TO.C,R24*%
X71552500Y-29670000D03*
X73377500Y-29670000D03*
%TD*%
%TO.C,R33*%
X79212500Y-32405000D03*
X81037500Y-32405000D03*
%TD*%
D14*
%TO.C,C42*%
X43795000Y-34975000D03*
X45695000Y-34975000D03*
%TD*%
%TO.C,C21*%
X39550000Y-66800000D03*
X41450000Y-66800000D03*
%TD*%
%TO.C,C39*%
X18795000Y-25425000D03*
X20695000Y-25425000D03*
%TD*%
D10*
%TO.C,R39*%
X59812500Y-54300000D03*
X61637500Y-54300000D03*
%TD*%
D20*
%TO.C,U1*%
X10157500Y-69528300D03*
X10157500Y-70478300D03*
X10157500Y-71428300D03*
X12432500Y-71428300D03*
X12432500Y-70478300D03*
X12432500Y-69528300D03*
%TD*%
D14*
%TO.C,C9*%
X33550000Y-39900000D03*
X35450000Y-39900000D03*
%TD*%
D10*
%TO.C,R6*%
X39162500Y-76521700D03*
X40987500Y-76521700D03*
%TD*%
%TO.C,R4*%
X43052500Y-73978300D03*
X44877500Y-73978300D03*
%TD*%
D18*
%TO.C,C27*%
X68220000Y-25695000D03*
X71170000Y-25695000D03*
%TD*%
D16*
%TO.C,Q7*%
X64387500Y-50095000D03*
X64387500Y-51995000D03*
X66262500Y-51045000D03*
%TD*%
D19*
%TO.C,D8*%
X11045000Y-8795000D03*
X15045000Y-8795000D03*
%TD*%
D14*
%TO.C,C36*%
X14085000Y-45131700D03*
X15985000Y-45131700D03*
%TD*%
D10*
%TO.C,R22*%
X56052500Y-75385000D03*
X57877500Y-75385000D03*
%TD*%
D14*
%TO.C,C1*%
X27817500Y-69758300D03*
X29717500Y-69758300D03*
%TD*%
D10*
%TO.C,R15*%
X43587500Y-51000000D03*
X45412500Y-51000000D03*
%TD*%
%TO.C,R42*%
X50612500Y-25947500D03*
X52437500Y-25947500D03*
%TD*%
%TO.C,R8*%
X35312500Y-79005000D03*
X37137500Y-79005000D03*
%TD*%
%TO.C,R31*%
X71512500Y-32405000D03*
X73337500Y-32405000D03*
%TD*%
D16*
%TO.C,D13*%
X27537500Y-12670000D03*
X27537500Y-14570000D03*
X29412500Y-13620000D03*
%TD*%
D59*
%TO.C,C5*%
X37250000Y-42200000D03*
X35350000Y-42200000D03*
%TD*%
D16*
%TO.C,Q3*%
X44237500Y-69795000D03*
X44237500Y-71695000D03*
X46112500Y-70745000D03*
%TD*%
D24*
%TO.C,C6*%
X14250000Y-83500000D03*
X26750000Y-83500000D03*
%TD*%
M02*
