M48
; DRILL file {KiCad 9.0.5} date 2026-08-10T16:35:45-0400
; FORMAT={-:-/ absolute / metric / decimal}
; #@! TF.CreationDate,2026-08-10T16:35:45-04:00
; #@! TF.GenerationSoftware,Kicad,Pcbnew,9.0.5
; #@! TF.FileFunction,Plated,1,4,PTH
FMAT,2
METRIC
; #@! TA.AperFunction,Plated,PTH,ComponentDrill
T1C0.200
; #@! TA.AperFunction,Plated,PTH,ViaDrill
T2C0.300
; #@! TA.AperFunction,Plated,PTH,ComponentDrill
T3C0.600
; #@! TA.AperFunction,Plated,PTH,ComponentDrill
T4C0.750
; #@! TA.AperFunction,Plated,PTH,ComponentDrill
T5C1.000
%
G90
G05
T1
X41.85Y-40.05
X41.85Y-41.35
X41.85Y-42.65
X41.85Y-43.95
X41.85Y-55.85
X41.85Y-57.15
X41.85Y-58.45
X41.85Y-59.75
X43.15Y-40.05
X43.15Y-41.35
X43.15Y-42.65
X43.15Y-43.95
X43.15Y-55.85
X43.15Y-57.15
X43.15Y-58.45
X43.15Y-59.75
X49.1Y-8.56
X49.1Y-9.96
X49.8Y-7.86
X49.8Y-9.26
X49.8Y-10.66
X50.5Y-8.56
X50.5Y-9.96
X51.2Y-7.86
X51.2Y-9.26
X51.2Y-10.66
X51.9Y-8.56
X51.9Y-9.96
T2
X37.675Y-46.75
X37.675Y-56.365
T4
X5.0Y-18.0
X5.0Y-20.0
X5.0Y-22.0
X5.0Y-24.0
X5.0Y-26.0
X5.0Y-28.0
X5.0Y-30.0
X5.0Y-32.0
X5.0Y-50.0
X5.0Y-52.0
X5.0Y-54.0
X5.0Y-56.0
T5
X10.0Y-3.0
X12.54Y-3.0
X15.08Y-3.0
X21.7Y-3.0
X24.24Y-3.0
X26.0Y-71.5
X26.78Y-3.0
X28.54Y-71.5
X29.32Y-3.0
X31.08Y-71.5
X31.86Y-3.0
X33.62Y-71.5
X34.4Y-3.0
X41.0Y-71.5
X43.54Y-71.5
X46.08Y-71.5
X48.62Y-71.5
X56.0Y-71.5
X58.54Y-71.5
X61.08Y-71.5
X63.62Y-71.5
X70.5Y-71.5
X73.04Y-71.5
X75.58Y-71.5
T3
X75.25Y-3.68G85X74.65Y-3.68
G05
X75.25Y-12.32G85X74.65Y-12.32
G05
X79.68Y-3.68G85X78.58Y-3.68
G05
X79.68Y-12.32G85X78.58Y-12.32
G05
M30
