M48
; DRILL file {KiCad 9.0.5} date 2026-08-11T20:09:24-0400
; FORMAT={-:-/ absolute / metric / decimal}
; #@! TF.CreationDate,2026-08-11T20:09:24-04:00
; #@! TF.GenerationSoftware,Kicad,Pcbnew,9.0.5
; #@! TF.FileFunction,Plated,1,4,PTH
FMAT,2
METRIC
; #@! TA.AperFunction,Plated,PTH,ComponentDrill
T1C0.200
; #@! TA.AperFunction,Plated,PTH,ViaDrill
T2C0.250
; #@! TA.AperFunction,Plated,PTH,ViaDrill
T3C0.300
; #@! TA.AperFunction,Plated,PTH,ViaDrill
T4C0.400
; #@! TA.AperFunction,Plated,PTH,ComponentDrill
T5C0.600
; #@! TA.AperFunction,Plated,PTH,ComponentDrill
T6C0.750
; #@! TA.AperFunction,Plated,PTH,ComponentDrill
T7C1.000
%
G90
G05
T1
X41.85Y-40.05
X41.85Y-41.35
X41.85Y-42.65
X41.85Y-43.95
X41.85Y-55.85
X41.85Y-57.15
X41.85Y-58.45
X41.85Y-59.75
X43.15Y-40.05
X43.15Y-41.35
X43.15Y-42.65
X43.15Y-43.95
X43.15Y-55.85
X43.15Y-57.15
X43.15Y-58.45
X43.15Y-59.75
X49.1Y-8.56
X49.1Y-9.96
X49.8Y-7.86
X49.8Y-9.26
X49.8Y-10.66
X50.5Y-8.56
X50.5Y-9.96
X51.2Y-7.86
X51.2Y-9.26
X51.2Y-10.66
X51.9Y-8.56
X51.9Y-9.96
T2
X64.07Y-9.745
T3
X2.918Y-33.489
X10.357Y-68.712
X11.443Y-68.179
X11.724Y-63.657
X13.185Y-36.149
X13.38Y-34.73
X14.203Y-35.973
X16.401Y-23.718
X18.176Y-11.633
X20.373Y-11.454
X20.975Y-44.204
X21.172Y-20.657
X22.004Y-24.277
X22.164Y-29.965
X25.27Y-21.999
X26.202Y-64.653
X26.922Y-68.863
X29.481Y-20.265
X30.534Y-61.928
X35.413Y-30.307
X36.039Y-20.068
X38.32Y-20.279
X38.333Y-32.862
X38.504Y-58.099
X38.546Y-42.602
X38.645Y-39.178
X39.118Y-27.505
X39.212Y-54.994
X41.592Y-23.396
X41.947Y-54.297
X41.951Y-10.536
X41.956Y-38.505
X41.978Y-11.896
X42.337Y-24.1
X42.689Y-19.002
X42.751Y-29.19
X43.584Y-19.711
X43.587Y-49.774
X44.559Y-16.257
X45.472Y-79.33
X45.904Y-18.004
X45.947Y-15.822
X46.085Y-30.785
X46.287Y-45.19
X46.318Y-57.746
X46.476Y-42.372
X47.183Y-30.101
X48.337Y-13.425
X48.425Y-29.141
X48.762Y-67.26
X48.967Y-14.061
X49.808Y-17.492
X50.606Y-72.084
X51.564Y-17.094
X52.763Y-17.348
X53.032Y-10.878
X53.478Y-29.141
X53.486Y-34.662
X53.503Y-18.032
X53.893Y-25.909
X54.408Y-20.785
X54.676Y-11.737
X54.875Y-27.853
X55.512Y-30.941
X56.545Y-7.706
X57.618Y-31.318
X57.783Y-32.224
X58.657Y-17.896
X58.729Y-13.039
X59.426Y-7.939
X59.458Y-23.255
X59.464Y-8.951
X59.485Y-10.242
X59.487Y-6.579
X59.487Y-17.767
X61.037Y-30.404
X62.036Y-12.76
X62.492Y-36.365
X63.662Y-52.942
X64.091Y-8.308
X64.425Y-11.502
X64.732Y-36.834
X64.99Y-33.462
X65.56Y-20.441
X66.189Y-7.848
X67.805Y-43.196
X68.267Y-37.915
X70.624Y-30.34
X71.713Y-30.809
X72.275Y-31.869
X73.337Y-25.511
X73.723Y-53.648
X74.58Y-15.25
X74.58Y-16.25
X74.85Y-55.6
X74.85Y-62.6
X77.03Y-15.75
X77.03Y-16.75
X77.379Y-25.859
X81.15Y-55.6
X81.15Y-62.6
T4
X6.375Y-18.0
X6.375Y-32.0
X7.516Y-38.012
X8.995Y-70.478
X10.265Y-23.407
X11.775Y-12.67
X11.775Y-14.57
X12.245Y-36.11
X12.761Y-74.287
X13.061Y-26.037
X13.15Y-32.005
X14.951Y-45.744
X16.377Y-68.943
X16.56Y-42.498
X16.795Y-8.795
X16.851Y-45.744
X17.0Y-32.005
X17.195Y-38.65
X19.098Y-23.476
X20.275Y-12.67
X20.275Y-14.57
X20.59Y-73.645
X20.741Y-45.744
X21.142Y-67.295
X21.561Y-26.037
X21.65Y-32.005
X22.795Y-55.245
X24.285Y-41.798
X24.72Y-45.102
X25.249Y-71.406
X25.295Y-8.795
X25.5Y-32.005
X27.856Y-23.256
X28.775Y-12.67
X28.775Y-14.57
X30.061Y-26.037
X30.15Y-32.005
X30.885Y-64.612
X31.15Y-83.5
X33.795Y-8.795
X34.0Y-32.005
X34.75Y-68.2
X35.556Y-23.433
X35.8Y-45.1
X35.8Y-60.9
X35.819Y-77.561
X36.216Y-42.812
X36.216Y-58.612
X36.45Y-39.9
X36.45Y-55.7
X36.875Y-12.67
X36.875Y-14.57
X37.25Y-56.35
X37.387Y-39.366
X37.675Y-46.75
X38.061Y-74.621
X38.161Y-26.037
X38.236Y-73.011
X38.25Y-32.005
X38.65Y-70.745
X38.736Y-40.495
X38.736Y-56.295
X39.251Y-86.885
X40.367Y-84.313
X40.425Y-48.2
X40.425Y-64.0
X41.353Y-72.171
X41.762Y-69.841
X41.795Y-82.795
X41.895Y-8.795
X42.0Y-79.005
X42.1Y-32.005
X43.87Y-77.608
X44.425Y-48.2
X44.425Y-64.0
X44.5Y-1.54
X44.5Y-2.81
X44.661Y-35.587
X45.25Y-29.795
X45.25Y-30.795
X45.475Y-71.695
X45.89Y-73.978
X46.094Y-65.039
X46.25Y-21.795
X46.25Y-24.6
X46.25Y-27.405
X46.425Y-51.0
X46.425Y-66.8
X46.695Y-34.975
X48.295Y-86.595
X49.444Y-32.553
X49.65Y-30.795
X49.775Y-70.295
X49.775Y-72.195
X50.42Y-24.285
X50.464Y-88.895
X50.716Y-85.112
X51.061Y-76.028
X51.1Y-63.6
X51.751Y-52.401
X52.84Y-24.033
X52.95Y-66.6
X53.906Y-48.5
X53.906Y-64.3
X54.695Y-22.595
X54.864Y-79.435
X54.908Y-75.985
X56.1Y-63.6
X56.416Y-66.812
X56.595Y-78.835
X57.6Y-57.8
X58.45Y-50.4
X58.45Y-66.2
X58.695Y-78.835
X58.89Y-75.385
X59.035Y-22.425
X59.05Y-47.8
X59.05Y-63.6
X59.719Y-36.444
X60.319Y-55.339
X60.383Y-70.796
X61.275Y-51.995
X61.887Y-85.404
X62.0Y-1.54
X62.65Y-56.805
X64.319Y-28.824
X64.945Y-24.195
X65.561Y-18.317
X65.625Y-51.995
X66.751Y-14.785
X67.751Y-24.895
X68.169Y-28.824
X68.395Y-8.849
X69.54Y-17.675
X71.025Y-38.675
X71.651Y-24.637
X72.019Y-28.824
X72.377Y-18.875
X73.58Y-13.55
X73.58Y-18.45
X73.641Y-24.637
X74.58Y-12.75
X75.541Y-24.637
X75.805Y-20.05
X75.869Y-28.824
X76.2Y-58.4
X76.2Y-65.4
X77.531Y-24.637
X79.565Y-24.025
X81.725Y-46.575
X82.05Y-27.785
X82.5Y-58.4
X82.5Y-65.4
X82.65Y-77.0
T6
X5.0Y-18.0
X5.0Y-20.0
X5.0Y-22.0
X5.0Y-24.0
X5.0Y-26.0
X5.0Y-28.0
X5.0Y-30.0
X5.0Y-32.0
X5.0Y-50.0
X5.0Y-52.0
X5.0Y-54.0
X5.0Y-56.0
T7
X10.0Y-3.0
X12.54Y-3.0
X15.08Y-3.0
X17.62Y-3.0
X20.16Y-3.0
X22.7Y-3.0
X26.0Y-97.5
X27.5Y-3.0
X28.54Y-97.5
X30.04Y-3.0
X31.08Y-97.5
X32.58Y-3.0
X33.62Y-97.5
X35.12Y-3.0
X37.66Y-3.0
X40.2Y-3.0
X41.0Y-97.5
X43.54Y-97.5
X46.08Y-97.5
X48.62Y-97.5
X56.0Y-97.5
X58.54Y-97.5
X61.08Y-97.5
X63.62Y-97.5
X69.0Y-97.5
X71.54Y-97.5
X74.08Y-97.5
T5
X76.17Y-11.68G85X77.27Y-11.68
G05
X76.17Y-20.32G85X77.27Y-20.32
G05
X80.6Y-11.68G85X81.2Y-11.68
G05
X80.6Y-20.32G85X81.2Y-20.32
G05
M30
