%TF.GenerationSoftware,KiCad,Pcbnew,9.0.5*%
%TF.CreationDate,2026-08-11T06:14:37-04:00*%
%TF.ProjectId,esp32s3-can-sd-logger,65737033-3273-4332-9d63-616e2d73642d,rev?*%
%TF.SameCoordinates,Original*%
%TF.FileFunction,Legend,Bot*%
%TF.FilePolarity,Positive*%
%FSLAX46Y46*%
G04 Gerber Fmt 4.6, Leading zero omitted, Abs format (unit mm)*
G04 Created by KiCad (PCBNEW 9.0.5) date 2026-08-11 06:14:37*
%MOMM*%
%LPD*%
G01*
G04 APERTURE LIST*
G04 Aperture macros list*
%AMRoundRect*
0 Rectangle with rounded corners*
0 $1 Rounding radius*
0 $2 $3 $4 $5 $6 $7 $8 $9 X,Y pos of 4 corners*
0 Add a 4 corners polygon primitive as box body*
4,1,4,$2,$3,$4,$5,$6,$7,$8,$9,$2,$3,0*
0 Add four circle primitives for the rounded corners*
1,1,$1+$1,$2,$3*
1,1,$1+$1,$4,$5*
1,1,$1+$1,$6,$7*
1,1,$1+$1,$8,$9*
0 Add four rect primitives between the rounded corners*
20,1,$1+$1,$2,$3,$4,$5,0*
20,1,$1+$1,$4,$5,$6,$7,0*
20,1,$1+$1,$6,$7,$8,$9,0*
20,1,$1+$1,$8,$9,$2,$3,0*%
G04 Aperture macros list end*
%ADD10C,3.200000*%
%ADD11R,1.700000X1.700000*%
%ADD12C,1.700000*%
%ADD13C,0.650000*%
%ADD14O,2.100000X1.000000*%
%ADD15O,1.600000X1.000000*%
%ADD16RoundRect,0.250000X-0.625000X0.350000X-0.625000X-0.350000X0.625000X-0.350000X0.625000X0.350000X0*%
%ADD17O,1.750000X1.200000*%
G04 APERTURE END LIST*
%LPC*%
D10*
%TO.C,H2*%
X4000000Y-70000000D03*
%TD*%
D11*
%TO.C,J8*%
X56000000Y-81500000D03*
D12*
X58540000Y-81500000D03*
X61080000Y-81500000D03*
X63620000Y-81500000D03*
%TD*%
D10*
%TO.C,H4*%
X80000000Y-26000000D03*
%TD*%
D11*
%TO.C,J7*%
X10000000Y-3000000D03*
D12*
X12540000Y-3000000D03*
X15080000Y-3000000D03*
X17620000Y-3000000D03*
X20160000Y-3000000D03*
X22700000Y-3000000D03*
%TD*%
D13*
%TO.C,J2*%
X78600000Y-5110000D03*
X78600000Y-10890000D03*
D14*
X79130000Y-3680000D03*
D15*
X74950000Y-3680000D03*
D14*
X79130000Y-12320000D03*
D15*
X74950000Y-12320000D03*
%TD*%
D10*
%TO.C,H3*%
X66000000Y-4000000D03*
%TD*%
D11*
%TO.C,J6*%
X70500000Y-81500000D03*
D12*
X73040000Y-81500000D03*
X75580000Y-81500000D03*
%TD*%
D11*
%TO.C,J3*%
X26000000Y-81500000D03*
D12*
X28540000Y-81500000D03*
X31080000Y-81500000D03*
X33620000Y-81500000D03*
%TD*%
D11*
%TO.C,J4*%
X41000000Y-81500000D03*
D12*
X43540000Y-81500000D03*
X46080000Y-81500000D03*
X48620000Y-81500000D03*
%TD*%
D16*
%TO.C,J1*%
X5000000Y-50000000D03*
D17*
X5000000Y-52000000D03*
X5000000Y-54000000D03*
X5000000Y-56000000D03*
%TD*%
D16*
%TO.C,J10*%
X5000000Y-18000000D03*
D17*
X5000000Y-20000000D03*
X5000000Y-22000000D03*
X5000000Y-24000000D03*
X5000000Y-26000000D03*
X5000000Y-28000000D03*
X5000000Y-30000000D03*
X5000000Y-32000000D03*
%TD*%
D10*
%TO.C,H1*%
X4000000Y-4000000D03*
%TD*%
D11*
%TO.C,J5*%
X27500000Y-3000000D03*
D12*
X30040000Y-3000000D03*
X32580000Y-3000000D03*
X35120000Y-3000000D03*
X37660000Y-3000000D03*
X40200000Y-3000000D03*
%TD*%
%LPD*%
M02*
