M48
; DRILL file {KiCad 9.0.5} date 2026-08-10T23:02:33-0400
; FORMAT={-:-/ absolute / metric / decimal}
; #@! TF.CreationDate,2026-08-10T23:02:33-04:00
; #@! TF.GenerationSoftware,Kicad,Pcbnew,9.0.5
; #@! TF.FileFunction,Plated,1,4,PTH
FMAT,2
METRIC
; #@! TA.AperFunction,Plated,PTH,ComponentDrill
T1C0.200
; #@! TA.AperFunction,Plated,PTH,ViaDrill
T2C0.250
; #@! TA.AperFunction,Plated,PTH,ViaDrill
T3C0.300
; #@! TA.AperFunction,Plated,PTH,ViaDrill
T4C0.400
; #@! TA.AperFunction,Plated,PTH,ComponentDrill
T5C0.600
; #@! TA.AperFunction,Plated,PTH,ComponentDrill
T6C0.750
; #@! TA.AperFunction,Plated,PTH,ComponentDrill
T7C1.000
%
G90
G05
T1
X41.85Y-40.05
X41.85Y-41.35
X41.85Y-42.65
X41.85Y-43.95
X41.85Y-55.85
X41.85Y-57.15
X41.85Y-58.45
X41.85Y-59.75
X43.15Y-40.05
X43.15Y-41.35
X43.15Y-42.65
X43.15Y-43.95
X43.15Y-55.85
X43.15Y-57.15
X43.15Y-58.45
X43.15Y-59.75
X49.1Y-8.56
X49.1Y-9.96
X49.8Y-7.86
X49.8Y-9.26
X49.8Y-10.66
X50.5Y-8.56
X50.5Y-9.96
X51.2Y-7.86
X51.2Y-9.26
X51.2Y-10.66
X51.9Y-8.56
X51.9Y-9.96
T2
X64.07Y-15.945
T3
X8.129Y-25.364
X11.044Y-10.198
X12.572Y-33.479
X12.678Y-37.373
X14.312Y-16.175
X15.648Y-40.529
X16.008Y-10.339
X17.039Y-23.614
X18.474Y-10.351
X18.9Y-17.459
X19.464Y-23.149
X19.582Y-20.631
X21.517Y-19.165
X24.298Y-30.255
X24.393Y-23.08
X26.278Y-27.387
X26.381Y-20.328
X28.706Y-10.365
X30.034Y-27.723
X30.224Y-21.016
X30.485Y-18.037
X30.875Y-28.464
X30.93Y-10.794
X31.367Y-17.41
X32.068Y-32.962
X34.21Y-16.209
X34.21Y-19.795
X36.629Y-40.764
X37.449Y-6.263
X38.056Y-3.805
X38.1Y-20.327
X38.15Y-6.74
X38.533Y-42.635
X38.546Y-73.122
X38.81Y-14.24
X39.331Y-5.159
X39.405Y-38.892
X40.081Y-28.464
X40.302Y-69.382
X40.647Y-13.053
X40.757Y-1.77
X40.939Y-5.385
X41.949Y-5.122
X41.971Y-1.192
X41.99Y-3.805
X42.115Y-24.441
X42.593Y-49.881
X43.865Y-54.738
X43.949Y-45.545
X44.297Y-20.5
X44.544Y-4.403
X44.718Y-6.13
X44.892Y-14.279
X45.29Y-17.229
X45.348Y-12.11
X45.917Y-32.335
X45.974Y-11.579
X45.975Y-6.415
X46.113Y-15.104
X46.316Y-38.833
X46.36Y-7.47
X46.457Y-57.33
X46.606Y-17.069
X46.649Y-12.051
X47.0Y-9.275
X47.01Y-21.274
X47.07Y-14.906
X47.196Y-50.543
X47.347Y-52.155
X47.788Y-69.61
X47.796Y-72.985
X47.865Y-32.962
X47.889Y-5.699
X48.04Y-20.653
X48.892Y-6.468
X49.395Y-28.883
X49.781Y-5.797
X49.847Y-30.295
X49.892Y-18.02
X50.298Y-37.69
X50.932Y-29.689
X51.111Y-17.786
X51.369Y-14.664
X51.482Y-26.901
X51.954Y-15.327
X52.702Y-23.849
X52.702Y-30.101
X53.014Y-69.376
X55.342Y-20.708
X55.782Y-29.614
X55.782Y-35.604
X56.032Y-16.765
X56.48Y-2.81
X56.701Y-13.144
X57.046Y-20.854
X57.107Y-6.468
X57.109Y-17.515
X57.772Y-25.116
X57.846Y-11.438
X58.077Y-27.983
X58.186Y-28.826
X58.197Y-30.928
X58.562Y-13.993
X58.724Y-3.706
X58.825Y-17.63
X58.879Y-32.757
X59.481Y-15.235
X60.03Y-21.204
X61.378Y-29.922
X61.451Y-38.873
X62.053Y-34.696
X62.053Y-36.475
X62.082Y-25.635
X62.16Y-27.055
X62.76Y-12.97
X62.926Y-53.125
X62.954Y-33.269
X63.229Y-39.729
X63.814Y-20.393
X64.046Y-14.249
X65.035Y-40.5
X65.571Y-9.909
X68.114Y-25.049
X68.291Y-71.006
X68.444Y-34.504
X68.58Y-30.929
X69.682Y-58.255
X73.297Y-30.61
X74.672Y-49.06
X78.078Y-51.813
T4
X8.564Y-10.982
X8.995Y-64.025
X9.026Y-66.048
X11.683Y-61.831
X11.775Y-11.785
X11.775Y-13.685
X11.775Y-70.395
X11.775Y-72.295
X12.245Y-30.31
X12.761Y-67.807
X12.988Y-55.534
X13.061Y-22.497
X13.15Y-26.695
X13.875Y-64.776
X16.56Y-36.585
X16.795Y-8.795
X16.851Y-39.718
X17.0Y-26.695
X17.195Y-32.85
X18.841Y-39.718
X20.275Y-11.785
X20.275Y-13.685
X20.59Y-67.165
X20.741Y-39.718
X20.759Y-32.581
X21.561Y-22.497
X21.65Y-26.695
X22.383Y-70.896
X22.795Y-48.845
X24.129Y-63.455
X24.285Y-35.885
X24.631Y-39.718
X25.295Y-8.795
X25.5Y-26.695
X26.389Y-71.237
X27.428Y-17.679
X28.61Y-39.075
X28.775Y-11.785
X28.775Y-13.685
X30.061Y-22.497
X30.15Y-26.695
X30.235Y-71.195
X30.885Y-58.185
X30.984Y-14.132
X31.296Y-35.485
X33.795Y-8.795
X34.0Y-26.695
X34.082Y-71.195
X34.75Y-68.2
X35.556Y-71.937
X35.8Y-45.1
X36.216Y-42.812
X36.45Y-39.9
X36.45Y-55.7
X36.875Y-11.785
X36.875Y-13.685
X37.675Y-46.75
X37.675Y-56.365
X38.161Y-22.497
X38.25Y-26.695
X38.55Y-55.895
X38.736Y-40.495
X40.425Y-48.2
X40.425Y-64.0
X41.782Y-71.195
X41.895Y-8.795
X42.1Y-26.695
X43.512Y-70.595
X44.425Y-48.2
X44.425Y-64.0
X44.5Y-1.54
X44.5Y-2.81
X44.661Y-34.627
X45.25Y-29.795
X45.25Y-30.795
X45.612Y-70.595
X46.094Y-65.039
X46.425Y-51.0
X46.425Y-66.8
X46.695Y-34.015
X47.2Y-30.795
X51.1Y-63.6
X51.514Y-71.195
X51.65Y-72.985
X52.95Y-66.6
X53.307Y-21.03
X53.667Y-31.444
X53.906Y-48.5
X53.906Y-64.3
X54.695Y-22.595
X55.5Y-70.595
X55.83Y-36.939
X56.1Y-63.6
X56.416Y-66.812
X56.691Y-46.4
X57.295Y-69.595
X57.6Y-57.8
X58.198Y-51.931
X58.45Y-50.4
X58.45Y-66.2
X59.035Y-22.425
X59.05Y-47.8
X59.05Y-63.6
X59.464Y-71.895
X59.719Y-35.194
X60.319Y-55.224
X61.275Y-51.995
X61.571Y-68.654
X62.0Y-1.54
X62.65Y-56.575
X63.751Y-65.685
X64.319Y-32.874
X64.661Y-30.027
X64.945Y-26.795
X65.561Y-22.517
X65.625Y-51.995
X66.295Y-61.595
X66.561Y-30.027
X66.65Y-34.225
X66.751Y-19.985
X67.108Y-17.209
X67.237Y-23.437
X67.466Y-40.875
X67.466Y-49.237
X67.751Y-27.495
X68.169Y-32.874
X68.505Y-28.274
X69.494Y-19.265
X69.54Y-21.875
X70.451Y-30.027
X71.025Y-38.675
X71.651Y-27.237
X71.918Y-51.4
X72.019Y-32.874
X72.099Y-30.424
X72.957Y-45.2
X73.39Y-21.875
X73.641Y-27.237
X74.452Y-14.342
X75.418Y-51.4
X75.675Y-26.625
X76.2Y-58.4
X76.2Y-65.4
X81.27Y-4.75
X81.27Y-11.25
X81.385Y-5.674
X81.725Y-46.575
X82.02Y-5.55
X82.02Y-10.45
X82.5Y-58.4
X82.5Y-65.4
T6
X5.0Y-18.0
X5.0Y-20.0
X5.0Y-22.0
X5.0Y-24.0
X5.0Y-26.0
X5.0Y-28.0
X5.0Y-30.0
X5.0Y-32.0
X5.0Y-50.0
X5.0Y-52.0
X5.0Y-54.0
X5.0Y-56.0
T7
X10.0Y-3.0
X12.54Y-3.0
X15.08Y-3.0
X21.7Y-3.0
X24.24Y-3.0
X26.0Y-77.5
X26.78Y-3.0
X28.54Y-77.5
X29.32Y-3.0
X31.08Y-77.5
X31.86Y-3.0
X33.62Y-77.5
X34.4Y-3.0
X41.0Y-77.5
X43.54Y-77.5
X46.08Y-77.5
X48.62Y-77.5
X56.0Y-77.5
X58.54Y-77.5
X61.08Y-77.5
X63.62Y-77.5
X70.5Y-77.5
X73.04Y-77.5
X75.58Y-77.5
T5
X75.25Y-3.68G85X74.65Y-3.68
G05
X75.25Y-12.32G85X74.65Y-12.32
G05
X79.68Y-3.68G85X78.58Y-3.68
G05
X79.68Y-12.32G85X78.58Y-12.32
G05
M30
