%TF.GenerationSoftware,KiCad,Pcbnew,9.0.5*%
%TF.CreationDate,2026-08-11T16:22:34-04:00*%
%TF.ProjectId,esp32s3-can-sd-logger,65737033-3273-4332-9d63-616e2d73642d,rev?*%
%TF.SameCoordinates,Original*%
%TF.FileFunction,Copper,L1,Top*%
%TF.FilePolarity,Positive*%
%FSLAX46Y46*%
G04 Gerber Fmt 4.6, Leading zero omitted, Abs format (unit mm)*
G04 Created by KiCad (PCBNEW 9.0.5) date 2026-08-11 16:22:34*
%MOMM*%
%LPD*%
G01*
G04 APERTURE LIST*
G04 Aperture macros list*
%AMRoundRect*
0 Rectangle with rounded corners*
0 $1 Rounding radius*
0 $2 $3 $4 $5 $6 $7 $8 $9 X,Y pos of 4 corners*
0 Add a 4 corners polygon primitive as box body*
4,1,4,$2,$3,$4,$5,$6,$7,$8,$9,$2,$3,0*
0 Add four circle primitives for the rounded corners*
1,1,$1+$1,$2,$3*
1,1,$1+$1,$4,$5*
1,1,$1+$1,$6,$7*
1,1,$1+$1,$8,$9*
0 Add four rect primitives between the rounded corners*
20,1,$1+$1,$2,$3,$4,$5,0*
20,1,$1+$1,$4,$5,$6,$7,0*
20,1,$1+$1,$6,$7,$8,$9,0*
20,1,$1+$1,$8,$9,$2,$3,0*%
G04 Aperture macros list end*
%TA.AperFunction,EtchedComponent*%
%ADD10C,0.000000*%
%TD*%
%TA.AperFunction,SMDPad,CuDef*%
%ADD11RoundRect,0.250000X-0.262500X-0.450000X0.262500X-0.450000X0.262500X0.450000X-0.262500X0.450000X0*%
%TD*%
%TA.AperFunction,SMDPad,CuDef*%
%ADD12R,1.700000X1.000000*%
%TD*%
%TA.AperFunction,SMDPad,CuDef*%
%ADD13RoundRect,0.250000X-0.250000X-0.475000X0.250000X-0.475000X0.250000X0.475000X-0.250000X0.475000X0*%
%TD*%
%TA.AperFunction,SMDPad,CuDef*%
%ADD14RoundRect,0.075000X-0.650000X-0.075000X0.650000X-0.075000X0.650000X0.075000X-0.650000X0.075000X0*%
%TD*%
%TA.AperFunction,SMDPad,CuDef*%
%ADD15R,1.000000X1.500000*%
%TD*%
%TA.AperFunction,SMDPad,CuDef*%
%ADD16C,1.500000*%
%TD*%
%TA.AperFunction,SMDPad,CuDef*%
%ADD17RoundRect,0.150000X-0.587500X-0.150000X0.587500X-0.150000X0.587500X0.150000X-0.587500X0.150000X0*%
%TD*%
%TA.AperFunction,SMDPad,CuDef*%
%ADD18R,1.750000X0.700000*%
%TD*%
%TA.AperFunction,SMDPad,CuDef*%
%ADD19R,1.000000X1.450000*%
%TD*%
%TA.AperFunction,SMDPad,CuDef*%
%ADD20R,1.550000X1.000000*%
%TD*%
%TA.AperFunction,SMDPad,CuDef*%
%ADD21R,1.500000X0.800000*%
%TD*%
%TA.AperFunction,SMDPad,CuDef*%
%ADD22R,1.500000X1.300000*%
%TD*%
%TA.AperFunction,SMDPad,CuDef*%
%ADD23R,1.500000X1.500000*%
%TD*%
%TA.AperFunction,SMDPad,CuDef*%
%ADD24R,1.400000X0.800000*%
%TD*%
%TA.AperFunction,SMDPad,CuDef*%
%ADD25RoundRect,0.250000X-1.000000X-0.650000X1.000000X-0.650000X1.000000X0.650000X-1.000000X0.650000X0*%
%TD*%
%TA.AperFunction,ComponentPad*%
%ADD26RoundRect,0.250000X-0.625000X0.350000X-0.625000X-0.350000X0.625000X-0.350000X0.625000X0.350000X0*%
%TD*%
%TA.AperFunction,ComponentPad*%
%ADD27O,1.750000X1.200000*%
%TD*%
%TA.AperFunction,SMDPad,CuDef*%
%ADD28RoundRect,0.150000X-0.825000X-0.150000X0.825000X-0.150000X0.825000X0.150000X-0.825000X0.150000X0*%
%TD*%
%TA.AperFunction,ComponentPad*%
%ADD29R,1.700000X1.700000*%
%TD*%
%TA.AperFunction,ComponentPad*%
%ADD30C,1.700000*%
%TD*%
%TA.AperFunction,SMDPad,CuDef*%
%ADD31RoundRect,0.150000X-0.737500X-0.150000X0.737500X-0.150000X0.737500X0.150000X-0.737500X0.150000X0*%
%TD*%
%TA.AperFunction,HeatsinkPad*%
%ADD32C,0.500000*%
%TD*%
%TA.AperFunction,HeatsinkPad*%
%ADD33R,2.950000X4.900000*%
%TD*%
%TA.AperFunction,SMDPad,CuDef*%
%ADD34R,1.450000X0.600000*%
%TD*%
%TA.AperFunction,SMDPad,CuDef*%
%ADD35R,1.450000X0.300000*%
%TD*%
%TA.AperFunction,HeatsinkPad*%
%ADD36O,2.100000X1.000000*%
%TD*%
%TA.AperFunction,HeatsinkPad*%
%ADD37O,1.600000X1.000000*%
%TD*%
%TA.AperFunction,SMDPad,CuDef*%
%ADD38RoundRect,0.150000X-0.512500X-0.150000X0.512500X-0.150000X0.512500X0.150000X-0.512500X0.150000X0*%
%TD*%
%TA.AperFunction,SMDPad,CuDef*%
%ADD39RoundRect,0.112500X-0.187500X-0.112500X0.187500X-0.112500X0.187500X0.112500X-0.187500X0.112500X0*%
%TD*%
%TA.AperFunction,SMDPad,CuDef*%
%ADD40RoundRect,0.250000X0.325000X0.650000X-0.325000X0.650000X-0.325000X-0.650000X0.325000X-0.650000X0*%
%TD*%
%TA.AperFunction,SMDPad,CuDef*%
%ADD41RoundRect,0.250000X-0.325000X-0.650000X0.325000X-0.650000X0.325000X0.650000X-0.325000X0.650000X0*%
%TD*%
%TA.AperFunction,SMDPad,CuDef*%
%ADD42RoundRect,0.250000X-0.375000X-0.625000X0.375000X-0.625000X0.375000X0.625000X-0.375000X0.625000X0*%
%TD*%
%TA.AperFunction,SMDPad,CuDef*%
%ADD43RoundRect,0.250000X-0.850000X-0.350000X0.850000X-0.350000X0.850000X0.350000X-0.850000X0.350000X0*%
%TD*%
%TA.AperFunction,SMDPad,CuDef*%
%ADD44RoundRect,0.249997X-2.950003X-2.650003X2.950003X-2.650003X2.950003X2.650003X-2.950003X2.650003X0*%
%TD*%
%TA.AperFunction,SMDPad,CuDef*%
%ADD45RoundRect,0.250000X-1.950000X-1.000000X1.950000X-1.000000X1.950000X1.000000X-1.950000X1.000000X0*%
%TD*%
%TA.AperFunction,SMDPad,CuDef*%
%ADD46RoundRect,0.250000X-0.312500X-0.625000X0.312500X-0.625000X0.312500X0.625000X-0.312500X0.625000X0*%
%TD*%
%TA.AperFunction,SMDPad,CuDef*%
%ADD47RoundRect,0.249999X-0.850001X-3.500001X0.850001X-3.500001X0.850001X3.500001X-0.850001X3.500001X0*%
%TD*%
%TA.AperFunction,SMDPad,CuDef*%
%ADD48R,1.500000X0.900000*%
%TD*%
%TA.AperFunction,SMDPad,CuDef*%
%ADD49R,0.900000X1.500000*%
%TD*%
%TA.AperFunction,HeatsinkPad*%
%ADD50C,0.600000*%
%TD*%
%TA.AperFunction,HeatsinkPad*%
%ADD51R,3.900000X3.900000*%
%TD*%
%TA.AperFunction,SMDPad,CuDef*%
%ADD52RoundRect,0.250000X0.250000X0.475000X-0.250000X0.475000X-0.250000X-0.475000X0.250000X-0.475000X0*%
%TD*%
%TA.AperFunction,SMDPad,CuDef*%
%ADD53RoundRect,0.243750X-0.243750X-0.456250X0.243750X-0.456250X0.243750X0.456250X-0.243750X0.456250X0*%
%TD*%
%TA.AperFunction,SMDPad,CuDef*%
%ADD54RoundRect,0.218750X-0.218750X-0.381250X0.218750X-0.381250X0.218750X0.381250X-0.218750X0.381250X0*%
%TD*%
%TA.AperFunction,SMDPad,CuDef*%
%ADD55RoundRect,0.250000X-0.275000X-0.700000X0.275000X-0.700000X0.275000X0.700000X-0.275000X0.700000X0*%
%TD*%
%TA.AperFunction,SMDPad,CuDef*%
%ADD56RoundRect,0.225000X-0.225000X-0.375000X0.225000X-0.375000X0.225000X0.375000X-0.225000X0.375000X0*%
%TD*%
%TA.AperFunction,SMDPad,CuDef*%
%ADD57RoundRect,0.250000X1.000000X-1.400000X1.000000X1.400000X-1.000000X1.400000X-1.000000X-1.400000X0*%
%TD*%
%TA.AperFunction,SMDPad,CuDef*%
%ADD58R,1.350000X0.900000*%
%TD*%
%TA.AperFunction,ViaPad*%
%ADD59C,0.600000*%
%TD*%
%TA.AperFunction,ViaPad*%
%ADD60C,0.800000*%
%TD*%
%TA.AperFunction,ViaPad*%
%ADD61C,0.500000*%
%TD*%
%TA.AperFunction,Conductor*%
%ADD62C,0.300000*%
%TD*%
%TA.AperFunction,Conductor*%
%ADD63C,0.500000*%
%TD*%
%TA.AperFunction,Conductor*%
%ADD64C,0.450000*%
%TD*%
%TA.AperFunction,Conductor*%
%ADD65C,0.250000*%
%TD*%
%TA.AperFunction,Conductor*%
%ADD66C,0.200000*%
%TD*%
G04 APERTURE END LIST*
D10*
%TA.AperFunction,EtchedComponent*%
%TO.C,JP1*%
G36*
X11445000Y-45701700D02*
G01*
X10945000Y-45701700D01*
X10945000Y-45101700D01*
X11445000Y-45101700D01*
X11445000Y-45701700D01*
G37*
%TD.AperFunction*%
%TD*%
D11*
%TO.P,R66,1*%
%TO.N,+VBAT*%
X46402500Y-75320000D03*
%TO.P,R66,2*%
%TO.N,VBAT_SNS*%
X48227500Y-75320000D03*
%TD*%
D12*
%TO.P,SW1,1*%
%TO.N,MCU_EN*%
X74850000Y-54600000D03*
X81150000Y-54600000D03*
%TO.P,SW1,2*%
%TO.N,GND*%
X74850000Y-58400000D03*
X81150000Y-58400000D03*
%TD*%
D11*
%TO.P,R67,1*%
%TO.N,VBAT_SNS*%
X34812500Y-78405000D03*
%TO.P,R67,2*%
%TO.N,GND*%
X36637500Y-78405000D03*
%TD*%
%TO.P,R25,1*%
%TO.N,IO3*%
X43412500Y-21795000D03*
%TO.P,R25,2*%
%TO.N,GND*%
X45237500Y-21795000D03*
%TD*%
%TO.P,R58,1*%
%TO.N,AIN3_A*%
X31162500Y-28730000D03*
%TO.P,R58,2*%
%TO.N,AIN3*%
X32987500Y-28730000D03*
%TD*%
D12*
%TO.P,SW2,1*%
%TO.N,MCU_BOOT*%
X74850000Y-61600000D03*
X81150000Y-61600000D03*
%TO.P,SW2,2*%
%TO.N,GND*%
X74850000Y-65400000D03*
X81150000Y-65400000D03*
%TD*%
D13*
%TO.P,C38,1*%
%TO.N,VBAT_SNS*%
X34795000Y-75350000D03*
%TO.P,C38,2*%
%TO.N,GND*%
X36695000Y-75350000D03*
%TD*%
D14*
%TO.P,U8,1*%
%TO.N,GND*%
X44025000Y-29795000D03*
%TO.P,U8,2*%
%TO.N,N/C*%
X44025000Y-30295000D03*
%TO.P,U8,3*%
%TO.N,GND*%
X44025000Y-30795000D03*
%TO.P,U8,4*%
%TO.N,AIN1*%
X44025000Y-31295000D03*
%TO.P,U8,5*%
%TO.N,AIN2*%
X44025000Y-31795000D03*
%TO.P,U8,6*%
%TO.N,AIN3*%
X48425000Y-31795000D03*
%TO.P,U8,7*%
%TO.N,AIN4*%
X48425000Y-31295000D03*
%TO.P,U8,8*%
%TO.N,+3V3*%
X48425000Y-30795000D03*
%TO.P,U8,9*%
%TO.N,I2C_SDA*%
X48425000Y-30295000D03*
%TO.P,U8,10*%
%TO.N,I2C_SCL*%
X48425000Y-29795000D03*
%TD*%
D15*
%TO.P,JP8,1*%
%TO.N,+5VS*%
X27545000Y-21820000D03*
%TO.P,JP8,2*%
%TO.N,AIN3_PU*%
X28845000Y-21820000D03*
%TD*%
D16*
%TO.P,TP2,1*%
%TO.N,PG_3V3*%
X42640000Y-71096200D03*
%TD*%
D11*
%TO.P,R33,1*%
%TO.N,SD_D0*%
X59212500Y-25947500D03*
%TO.P,R33,2*%
%TO.N,SD_D0_C*%
X61037500Y-25947500D03*
%TD*%
D17*
%TO.P,D11,1*%
%TO.N,GND*%
X19037500Y-12670000D03*
%TO.P,D11,2*%
%TO.N,+3V3*%
X19037500Y-14570000D03*
%TO.P,D11,3*%
%TO.N,AIN2*%
X20912500Y-13620000D03*
%TD*%
D18*
%TO.P,J9,1*%
%TO.N,SD_D2_C*%
X69650000Y-44175000D03*
%TO.P,J9,2*%
%TO.N,SD_D3_C*%
X69650000Y-43075000D03*
%TO.P,J9,3*%
%TO.N,SD_CMD_C*%
X69650000Y-41975000D03*
%TO.P,J9,4*%
%TO.N,SD_VDD*%
X69650000Y-40875000D03*
%TO.P,J9,5*%
%TO.N,SD_CLK_C*%
X69650000Y-39775000D03*
%TO.P,J9,6*%
%TO.N,GND*%
X69650000Y-38675000D03*
%TO.P,J9,7*%
%TO.N,SD_D0_C*%
X69650000Y-37575000D03*
%TO.P,J9,8*%
%TO.N,SD_D1_C*%
X69650000Y-36475000D03*
D19*
%TO.P,J9,9*%
%TO.N,SD_CD*%
X78875000Y-35350000D03*
D20*
%TO.P,J9,10*%
%TO.N,GND*%
X80450000Y-46575000D03*
D21*
%TO.P,J9,11*%
%TO.N,N/C*%
X77375000Y-35025000D03*
D22*
X69775000Y-35275000D03*
D23*
X69775000Y-46625000D03*
D24*
X78025000Y-46975000D03*
%TD*%
D11*
%TO.P,R43,1*%
%TO.N,CAN_S*%
X25772500Y-45101700D03*
%TO.P,R43,2*%
%TO.N,GND*%
X27597500Y-45101700D03*
%TD*%
D15*
%TO.P,JP2,1*%
%TO.N,+5VS*%
X10545000Y-21820000D03*
%TO.P,JP2,2*%
%TO.N,AIN1_PU*%
X11845000Y-21820000D03*
%TD*%
D11*
%TO.P,R48,1*%
%TO.N,AIN1_A*%
X14162500Y-28730000D03*
%TO.P,R48,2*%
%TO.N,AIN1*%
X15987500Y-28730000D03*
%TD*%
D13*
%TO.P,C29,1*%
%TO.N,SD_VDD*%
X56135000Y-22425000D03*
%TO.P,C29,2*%
%TO.N,GND*%
X58035000Y-22425000D03*
%TD*%
D11*
%TO.P,R32,1*%
%TO.N,SD_CMD*%
X54912500Y-25947500D03*
%TO.P,R32,2*%
%TO.N,SD_CMD_C*%
X56737500Y-25947500D03*
%TD*%
D25*
%TO.P,D3,1*%
%TO.N,+5VS*%
X11045000Y-76995000D03*
%TO.P,D3,2*%
%TO.N,GND*%
X15045000Y-76995000D03*
%TD*%
D15*
%TO.P,JP9,1*%
%TO.N,AIN3_A*%
X31335000Y-21820000D03*
%TO.P,JP9,2*%
%TO.N,AIN3*%
X32635000Y-21820000D03*
%TD*%
D11*
%TO.P,R5,1*%
%TO.N,+5V*%
X45587500Y-48200000D03*
%TO.P,R5,2*%
%TO.N,FB_5V*%
X47412500Y-48200000D03*
%TD*%
%TO.P,R42,1*%
%TO.N,+3V3*%
X59212500Y-35405000D03*
%TO.P,R42,2*%
%TO.N,SD_CD*%
X61037500Y-35405000D03*
%TD*%
D26*
%TO.P,J10,1*%
%TO.N,+5VS*%
X5000000Y-18000000D03*
D27*
%TO.P,J10,2*%
%TO.N,AIN1_IN*%
X5000000Y-20000000D03*
%TO.P,J10,3*%
%TO.N,AIN2_IN*%
X5000000Y-22000000D03*
%TO.P,J10,4*%
%TO.N,AIN3_IN*%
X5000000Y-24000000D03*
%TO.P,J10,5*%
%TO.N,AIN4_IN*%
X5000000Y-26000000D03*
%TO.P,J10,6*%
%TO.N,GND*%
X5000000Y-28000000D03*
%TO.P,J10,7*%
X5000000Y-30000000D03*
%TO.P,J10,8*%
%TO.N,+5VS*%
X5000000Y-32000000D03*
%TD*%
D28*
%TO.P,U7,1*%
%TO.N,CAN_TX*%
X10770000Y-34840000D03*
%TO.P,U7,2*%
%TO.N,GND*%
X10770000Y-36110000D03*
%TO.P,U7,3*%
%TO.N,+5V*%
X10770000Y-37380000D03*
%TO.P,U7,4*%
%TO.N,CAN_RX*%
X10770000Y-38650000D03*
%TO.P,U7,5*%
%TO.N,+3V3*%
X15720000Y-38650000D03*
%TO.P,U7,6*%
%TO.N,CANL_T*%
X15720000Y-37380000D03*
%TO.P,U7,7*%
%TO.N,CANH_T*%
X15720000Y-36110000D03*
%TO.P,U7,8*%
%TO.N,CAN_S*%
X15720000Y-34840000D03*
%TD*%
D15*
%TO.P,JP7,1*%
%TO.N,AIN2_R1*%
X19045000Y-17945000D03*
%TO.P,JP7,2*%
%TO.N,AIN2*%
X20345000Y-17945000D03*
%TO.P,JP7,3*%
%TO.N,AIN2_R2*%
X21645000Y-17945000D03*
%TD*%
D13*
%TO.P,C1,1*%
%TO.N,VCAP*%
X27817500Y-69758300D03*
%TO.P,C1,2*%
%TO.N,VBAT_FB*%
X29717500Y-69758300D03*
%TD*%
D11*
%TO.P,R21,1*%
%TO.N,+3V3*%
X79252500Y-27785000D03*
%TO.P,R21,2*%
%TO.N,I2C_SCL*%
X81077500Y-27785000D03*
%TD*%
%TO.P,R47,1*%
%TO.N,AIN1_PU*%
X10312500Y-28730000D03*
%TO.P,R47,2*%
%TO.N,AIN1_A*%
X12137500Y-28730000D03*
%TD*%
D29*
%TO.P,J8,1*%
%TO.N,+5V*%
X56000000Y-81500000D03*
D30*
%TO.P,J8,2*%
%TO.N,+3V3*%
X58540000Y-81500000D03*
%TO.P,J8,3*%
%TO.N,GND*%
X61080000Y-81500000D03*
%TO.P,J8,4*%
X63620000Y-81500000D03*
%TD*%
D31*
%TO.P,U2,1*%
%TO.N,GND*%
X39937500Y-40095000D03*
%TO.P,U2,2*%
%TO.N,+VBAT*%
X39937500Y-41365000D03*
%TO.P,U2,3*%
%TO.N,EN_5V*%
X39937500Y-42635000D03*
%TO.P,U2,4*%
%TO.N,RON_5V*%
X39937500Y-43905000D03*
%TO.P,U2,5*%
%TO.N,FB_5V*%
X45062500Y-43905000D03*
%TO.P,U2,6*%
%TO.N,PG_5V*%
X45062500Y-42635000D03*
%TO.P,U2,7*%
%TO.N,BST_5V*%
X45062500Y-41365000D03*
%TO.P,U2,8*%
%TO.N,SW_5V*%
X45062500Y-40095000D03*
D32*
%TO.P,U2,9*%
%TO.N,GND*%
X41850000Y-40050000D03*
X41850000Y-41350000D03*
X41850000Y-42650000D03*
X41850000Y-43950000D03*
D33*
X42500000Y-42000000D03*
D32*
X43150000Y-40050000D03*
X43150000Y-41350000D03*
X43150000Y-42650000D03*
X43150000Y-43950000D03*
%TD*%
D11*
%TO.P,R53,1*%
%TO.N,AIN2_A*%
X22662500Y-28730000D03*
%TO.P,R53,2*%
%TO.N,AIN2*%
X24487500Y-28730000D03*
%TD*%
D29*
%TO.P,J5,1*%
%TO.N,+3V3*%
X27500000Y-3000000D03*
D30*
%TO.P,J5,2*%
%TO.N,GND*%
X30040000Y-3000000D03*
%TO.P,J5,3*%
%TO.N,SPI_SCK*%
X32580000Y-3000000D03*
%TO.P,J5,4*%
%TO.N,SPI_MISO*%
X35120000Y-3000000D03*
%TO.P,J5,5*%
%TO.N,SPI_MOSI*%
X37660000Y-3000000D03*
%TO.P,J5,6*%
%TO.N,SPI_CS*%
X40200000Y-3000000D03*
%TD*%
D11*
%TO.P,R49,1*%
%TO.N,AIN1_R1*%
X10312500Y-32005000D03*
%TO.P,R49,2*%
%TO.N,GND*%
X12137500Y-32005000D03*
%TD*%
D13*
%TO.P,C24,1*%
%TO.N,+3V3*%
X76665000Y-24025000D03*
%TO.P,C24,2*%
%TO.N,GND*%
X78565000Y-24025000D03*
%TD*%
D29*
%TO.P,J7,1*%
%TO.N,IO3*%
X10000000Y-3000000D03*
D30*
%TO.P,J7,2*%
%TO.N,IO45*%
X12540000Y-3000000D03*
%TO.P,J7,3*%
%TO.N,IO46*%
X15080000Y-3000000D03*
%TO.P,J7,4*%
%TO.N,IO15*%
X17620000Y-3000000D03*
%TO.P,J7,5*%
%TO.N,IO16*%
X20160000Y-3000000D03*
%TO.P,J7,6*%
%TO.N,GND*%
X22700000Y-3000000D03*
%TD*%
D17*
%TO.P,D9,1*%
%TO.N,GND*%
X10537500Y-12670000D03*
%TO.P,D9,2*%
%TO.N,+3V3*%
X10537500Y-14570000D03*
%TO.P,D9,3*%
%TO.N,AIN1*%
X12412500Y-13620000D03*
%TD*%
D34*
%TO.P,J2,A1*%
%TO.N,GND*%
X75805000Y-19250000D03*
%TO.P,J2,A4*%
%TO.N,VBUS_IN*%
X75805000Y-18450000D03*
D35*
%TO.P,J2,A5*%
%TO.N,USB_CC1*%
X75805000Y-17250000D03*
%TO.P,J2,A6*%
%TO.N,USB_DP_CON*%
X75805000Y-16250000D03*
%TO.P,J2,A7*%
%TO.N,USB_DM_CON*%
X75805000Y-15750000D03*
%TO.P,J2,A8*%
%TO.N,N/C*%
X75805000Y-14750000D03*
D34*
%TO.P,J2,A9*%
%TO.N,VBUS_IN*%
X75805000Y-13550000D03*
%TO.P,J2,A12*%
%TO.N,GND*%
X75805000Y-12750000D03*
%TO.P,J2,B1*%
X75805000Y-12750000D03*
%TO.P,J2,B4*%
%TO.N,VBUS_IN*%
X75805000Y-13550000D03*
D35*
%TO.P,J2,B5*%
%TO.N,USB_CC2*%
X75805000Y-14250000D03*
%TO.P,J2,B6*%
%TO.N,USB_DP_CON*%
X75805000Y-15250000D03*
%TO.P,J2,B7*%
%TO.N,USB_DM_CON*%
X75805000Y-16750000D03*
%TO.P,J2,B8*%
%TO.N,N/C*%
X75805000Y-17750000D03*
D34*
%TO.P,J2,B9*%
%TO.N,VBUS_IN*%
X75805000Y-18450000D03*
%TO.P,J2,B12*%
%TO.N,GND*%
X75805000Y-19250000D03*
D36*
%TO.P,J2,S1*%
X76720000Y-20320000D03*
D37*
X80900000Y-20320000D03*
D36*
X76720000Y-11680000D03*
D37*
X80900000Y-11680000D03*
%TD*%
D13*
%TO.P,C12,1*%
%TO.N,+5V*%
X55550000Y-50400000D03*
%TO.P,C12,2*%
%TO.N,GND*%
X57450000Y-50400000D03*
%TD*%
D38*
%TO.P,U1,1*%
%TO.N,VCAP*%
X10157500Y-69528300D03*
%TO.P,U1,2*%
%TO.N,GND*%
X10157500Y-70478300D03*
%TO.P,U1,3*%
%TO.N,VBAT_UVLO*%
X10157500Y-71428300D03*
%TO.P,U1,4*%
%TO.N,+VBAT*%
X12432500Y-71428300D03*
%TO.P,U1,5*%
%TO.N,GATE_RB*%
X12432500Y-70478300D03*
%TO.P,U1,6*%
%TO.N,VBAT_FB*%
X12432500Y-69528300D03*
%TD*%
D11*
%TO.P,R29,1*%
%TO.N,SD_PWR_EN*%
X63662500Y-54300000D03*
%TO.P,R29,2*%
%TO.N,SD_EN_G*%
X65487500Y-54300000D03*
%TD*%
D39*
%TO.P,D2,1*%
%TO.N,+3V3*%
X38445000Y-78405000D03*
%TO.P,D2,2*%
%TO.N,GND*%
X40545000Y-78405000D03*
%TD*%
D11*
%TO.P,R36,1*%
%TO.N,SD_D3*%
X59212500Y-29100000D03*
%TO.P,R36,2*%
%TO.N,SD_D3_C*%
X61037500Y-29100000D03*
%TD*%
%TO.P,R24,1*%
%TO.N,LED_DIN*%
X58312500Y-75685000D03*
%TO.P,R24,2*%
%TO.N,LED_DIN_J*%
X60137500Y-75685000D03*
%TD*%
D17*
%TO.P,D13,1*%
%TO.N,GND*%
X27537500Y-12670000D03*
%TO.P,D13,2*%
%TO.N,+3V3*%
X27537500Y-14570000D03*
%TO.P,D13,3*%
%TO.N,AIN3*%
X29412500Y-13620000D03*
%TD*%
D11*
%TO.P,R40,1*%
%TO.N,SD_VDD*%
X50612500Y-35405000D03*
%TO.P,R40,2*%
%TO.N,SD_D2_C*%
X52437500Y-35405000D03*
%TD*%
D25*
%TO.P,D6,1*%
%TO.N,CAN_H*%
X11045000Y-41798300D03*
%TO.P,D6,2*%
%TO.N,GND*%
X15045000Y-41798300D03*
%TD*%
D38*
%TO.P,U6,1*%
%TO.N,GND*%
X58457500Y-70595000D03*
%TO.P,U6,2*%
%TO.N,LED_DIN_A*%
X58457500Y-71545000D03*
%TO.P,U6,3*%
%TO.N,GND*%
X58457500Y-72495000D03*
%TO.P,U6,4*%
%TO.N,LED_DIN*%
X60732500Y-72495000D03*
%TO.P,U6,5*%
%TO.N,+5V*%
X60732500Y-70595000D03*
%TD*%
D25*
%TO.P,D10,1*%
%TO.N,AIN2_IN*%
X19545000Y-8795000D03*
%TO.P,D10,2*%
%TO.N,GND*%
X23545000Y-8795000D03*
%TD*%
D11*
%TO.P,R65,1*%
%TO.N,AIN4_R2*%
X39262500Y-32005000D03*
%TO.P,R65,2*%
%TO.N,GND*%
X41087500Y-32005000D03*
%TD*%
D40*
%TO.P,C4,1*%
%TO.N,+VBAT*%
X37675000Y-45100000D03*
%TO.P,C4,2*%
%TO.N,GND*%
X34725000Y-45100000D03*
%TD*%
D16*
%TO.P,TP3,1*%
%TO.N,+VBAT*%
X15087500Y-70029600D03*
%TD*%
D11*
%TO.P,R59,1*%
%TO.N,AIN3_R1*%
X27312500Y-32005000D03*
%TO.P,R59,2*%
%TO.N,GND*%
X29137500Y-32005000D03*
%TD*%
%TO.P,R20,1*%
%TO.N,+3V3*%
X75402500Y-27785000D03*
%TO.P,R20,2*%
%TO.N,I2C_SDA*%
X77227500Y-27785000D03*
%TD*%
D41*
%TO.P,C22,1*%
%TO.N,+3V3*%
X63870000Y-24195000D03*
%TO.P,C22,2*%
%TO.N,GND*%
X66820000Y-24195000D03*
%TD*%
D42*
%TO.P,F1,1*%
%TO.N,VBAT_IN*%
X22897500Y-69908300D03*
%TO.P,F1,2*%
%TO.N,VBAT_F*%
X25697500Y-69908300D03*
%TD*%
D13*
%TO.P,C37,1*%
%TO.N,+3V3*%
X43795000Y-34975000D03*
%TO.P,C37,2*%
%TO.N,GND*%
X45695000Y-34975000D03*
%TD*%
D16*
%TO.P,TP6,1*%
%TO.N,+5VS*%
X18287500Y-76496200D03*
%TD*%
D17*
%TO.P,D16,1*%
%TO.N,GND*%
X35037500Y-70595000D03*
%TO.P,D16,2*%
%TO.N,+3V3*%
X35037500Y-72495000D03*
%TO.P,D16,3*%
%TO.N,VBAT_SNS*%
X36912500Y-71545000D03*
%TD*%
D13*
%TO.P,C26,1*%
%TO.N,VBUS*%
X62795000Y-17705000D03*
%TO.P,C26,2*%
%TO.N,GND*%
X64695000Y-17705000D03*
%TD*%
D11*
%TO.P,R16,1*%
%TO.N,+3V3*%
X67702500Y-27785000D03*
%TO.P,R16,2*%
%TO.N,MCU_EN*%
X69527500Y-27785000D03*
%TD*%
D15*
%TO.P,JP5,1*%
%TO.N,+5VS*%
X19045000Y-21820000D03*
%TO.P,JP5,2*%
%TO.N,AIN2_PU*%
X20345000Y-21820000D03*
%TD*%
D13*
%TO.P,C35,1*%
%TO.N,AIN3*%
X27295000Y-25425000D03*
%TO.P,C35,2*%
%TO.N,GND*%
X29195000Y-25425000D03*
%TD*%
D16*
%TO.P,TP1,1*%
%TO.N,PG_5V*%
X39647500Y-71096200D03*
%TD*%
D11*
%TO.P,R63,1*%
%TO.N,AIN4_A*%
X39262500Y-28730000D03*
%TO.P,R63,2*%
%TO.N,AIN4*%
X41087500Y-28730000D03*
%TD*%
D41*
%TO.P,C20,1*%
%TO.N,+5VS*%
X20852500Y-76395000D03*
%TO.P,C20,2*%
%TO.N,GND*%
X23802500Y-76395000D03*
%TD*%
D15*
%TO.P,JP4,1*%
%TO.N,AIN1_R1*%
X10545000Y-17945000D03*
%TO.P,JP4,2*%
%TO.N,AIN1*%
X11845000Y-17945000D03*
%TO.P,JP4,3*%
%TO.N,AIN1_R2*%
X13145000Y-17945000D03*
%TD*%
D26*
%TO.P,J1,1*%
%TO.N,VBAT_IN*%
X5000000Y-50000000D03*
D27*
%TO.P,J1,2*%
%TO.N,GND*%
X5000000Y-52000000D03*
%TO.P,J1,3*%
%TO.N,CAN_H*%
X5000000Y-54000000D03*
%TO.P,J1,4*%
%TO.N,CAN_L*%
X5000000Y-56000000D03*
%TD*%
D43*
%TO.P,Q1,1*%
%TO.N,GATE_RB*%
X10595000Y-62481700D03*
%TO.P,Q1,2*%
%TO.N,VBAT_FB*%
X10595000Y-64761700D03*
D44*
X16895000Y-64761700D03*
D43*
%TO.P,Q1,3*%
%TO.N,+VBAT*%
X10595000Y-67041700D03*
%TD*%
D11*
%TO.P,R11,1*%
%TO.N,+3V3*%
X45587500Y-64000000D03*
%TO.P,R11,2*%
%TO.N,FB_3V3*%
X47412500Y-64000000D03*
%TD*%
%TO.P,R10,1*%
%TO.N,RON_3V3*%
X37587500Y-64000000D03*
%TO.P,R10,2*%
%TO.N,GND*%
X39412500Y-64000000D03*
%TD*%
%TO.P,R17,1*%
%TO.N,+3V3*%
X71552500Y-27785000D03*
%TO.P,R17,2*%
%TO.N,MCU_BOOT*%
X73377500Y-27785000D03*
%TD*%
%TO.P,R55,1*%
%TO.N,AIN2_R2*%
X22662500Y-32005000D03*
%TO.P,R55,2*%
%TO.N,GND*%
X24487500Y-32005000D03*
%TD*%
D17*
%TO.P,D15,1*%
%TO.N,GND*%
X35637500Y-12670000D03*
%TO.P,D15,2*%
%TO.N,+3V3*%
X35637500Y-14570000D03*
%TO.P,D15,3*%
%TO.N,AIN4*%
X37512500Y-13620000D03*
%TD*%
D13*
%TO.P,C33,1*%
%TO.N,AIN1*%
X10295000Y-25425000D03*
%TO.P,C33,2*%
%TO.N,GND*%
X12195000Y-25425000D03*
%TD*%
D11*
%TO.P,R14,1*%
%TO.N,PG_3V3*%
X43587500Y-66800000D03*
%TO.P,R14,2*%
%TO.N,+3V3*%
X45412500Y-66800000D03*
%TD*%
%TO.P,R9,1*%
%TO.N,+VBAT*%
X37387500Y-53400000D03*
%TO.P,R9,2*%
%TO.N,EN_3V3*%
X39212500Y-53400000D03*
%TD*%
D16*
%TO.P,TP4,1*%
%TO.N,+5V*%
X33800000Y-37400000D03*
%TD*%
D13*
%TO.P,C9,1*%
%TO.N,RAMP_5V*%
X39550000Y-51000000D03*
%TO.P,C9,2*%
%TO.N,FB_5V*%
X41450000Y-51000000D03*
%TD*%
D16*
%TO.P,TP7,1*%
%TO.N,GND*%
X45632500Y-71096200D03*
%TD*%
D38*
%TO.P,U5,1*%
%TO.N,USB_DP_CON*%
X62957500Y-8795000D03*
%TO.P,U5,2*%
%TO.N,GND*%
X62957500Y-9745000D03*
%TO.P,U5,3*%
%TO.N,USB_DM_CON*%
X62957500Y-10695000D03*
%TO.P,U5,4*%
%TO.N,USB_DM*%
X65232500Y-10695000D03*
%TO.P,U5,5*%
%TO.N,VBUS*%
X65232500Y-9745000D03*
%TO.P,U5,6*%
%TO.N,USB_DP*%
X65232500Y-8795000D03*
%TD*%
D13*
%TO.P,C32,1*%
%TO.N,CAN_SPLIT*%
X21865000Y-45131700D03*
%TO.P,C32,2*%
%TO.N,GND*%
X23765000Y-45131700D03*
%TD*%
D11*
%TO.P,R7,1*%
%TO.N,SW_5V*%
X44787500Y-37600000D03*
%TO.P,R7,2*%
%TO.N,RAMP_5V*%
X46612500Y-37600000D03*
%TD*%
%TO.P,R4,1*%
%TO.N,RON_5V*%
X37587500Y-48200000D03*
%TO.P,R4,2*%
%TO.N,GND*%
X39412500Y-48200000D03*
%TD*%
D13*
%TO.P,C36,1*%
%TO.N,AIN4*%
X35395000Y-25425000D03*
%TO.P,C36,2*%
%TO.N,GND*%
X37295000Y-25425000D03*
%TD*%
D11*
%TO.P,R26,1*%
%TO.N,IO45*%
X43412500Y-24600000D03*
%TO.P,R26,2*%
%TO.N,GND*%
X45237500Y-24600000D03*
%TD*%
D45*
%TO.P,C3,1*%
%TO.N,+VBAT*%
X11695000Y-55245000D03*
%TO.P,C3,2*%
%TO.N,GND*%
X20095000Y-55245000D03*
%TD*%
D11*
%TO.P,R23,1*%
%TO.N,LED_DIN_MCU*%
X67952500Y-70795000D03*
%TO.P,R23,2*%
%TO.N,LED_DIN_A*%
X69777500Y-70795000D03*
%TD*%
D13*
%TO.P,C16,1*%
%TO.N,RAMP_3V3*%
X39550000Y-66800000D03*
%TO.P,C16,2*%
%TO.N,FB_3V3*%
X41450000Y-66800000D03*
%TD*%
D46*
%TO.P,PF1,1*%
%TO.N,+5V*%
X25935000Y-76375000D03*
%TO.P,PF1,2*%
%TO.N,VSENS_F*%
X28860000Y-76375000D03*
%TD*%
D29*
%TO.P,J3,1*%
%TO.N,+3V3*%
X26000000Y-81500000D03*
D30*
%TO.P,J3,2*%
%TO.N,UART_TX*%
X28540000Y-81500000D03*
%TO.P,J3,3*%
%TO.N,UART_RX*%
X31080000Y-81500000D03*
%TO.P,J3,4*%
%TO.N,GND*%
X33620000Y-81500000D03*
%TD*%
D13*
%TO.P,C7,1*%
%TO.N,BST_5V*%
X41050000Y-37600000D03*
%TO.P,C7,2*%
%TO.N,SW_5V*%
X42950000Y-37600000D03*
%TD*%
D25*
%TO.P,D12,1*%
%TO.N,AIN3_IN*%
X28045000Y-8795000D03*
%TO.P,D12,2*%
%TO.N,GND*%
X32045000Y-8795000D03*
%TD*%
D13*
%TO.P,C2,1*%
%TO.N,VBAT_FB*%
X9995000Y-73675000D03*
%TO.P,C2,2*%
%TO.N,GND*%
X11895000Y-73675000D03*
%TD*%
D47*
%TO.P,L2,1*%
%TO.N,SW_3V3*%
X50000000Y-57800000D03*
%TO.P,L2,2*%
%TO.N,+3V3*%
X56000000Y-57800000D03*
%TD*%
D11*
%TO.P,R1,1*%
%TO.N,VBAT_FB*%
X13902500Y-73645000D03*
%TO.P,R1,2*%
%TO.N,VBAT_UVLO*%
X15727500Y-73645000D03*
%TD*%
D41*
%TO.P,C25,1*%
%TO.N,VBUS*%
X62870000Y-14085000D03*
%TO.P,C25,2*%
%TO.N,GND*%
X65820000Y-14085000D03*
%TD*%
D11*
%TO.P,R3,1*%
%TO.N,+VBAT*%
X37387500Y-37600000D03*
%TO.P,R3,2*%
%TO.N,EN_5V*%
X39212500Y-37600000D03*
%TD*%
D13*
%TO.P,C30,1*%
%TO.N,+5V*%
X14085000Y-45131700D03*
%TO.P,C30,2*%
%TO.N,GND*%
X15985000Y-45131700D03*
%TD*%
D48*
%TO.P,U4,1*%
%TO.N,GND*%
X43250000Y-1540000D03*
%TO.P,U4,2*%
%TO.N,+3V3*%
X43250000Y-2810000D03*
%TO.P,U4,3*%
%TO.N,MCU_EN*%
X43250000Y-4080000D03*
%TO.P,U4,4*%
%TO.N,AIN3*%
X43250000Y-5350000D03*
%TO.P,U4,5*%
%TO.N,AIN4*%
X43250000Y-6620000D03*
%TO.P,U4,6*%
%TO.N,VBAT_SNS*%
X43250000Y-7890000D03*
%TO.P,U4,7*%
%TO.N,SD_PWR_EN*%
X43250000Y-9160000D03*
%TO.P,U4,8*%
%TO.N,IO15*%
X43250000Y-10430000D03*
%TO.P,U4,9*%
%TO.N,IO16*%
X43250000Y-11700000D03*
%TO.P,U4,10*%
%TO.N,CAN_TX*%
X43250000Y-12970000D03*
%TO.P,U4,11*%
%TO.N,CAN_RX*%
X43250000Y-14240000D03*
%TO.P,U4,12*%
%TO.N,SD_CD*%
X43250000Y-15510000D03*
%TO.P,U4,13*%
%TO.N,USB_DM*%
X43250000Y-16780000D03*
%TO.P,U4,14*%
%TO.N,USB_DP*%
X43250000Y-18050000D03*
D49*
%TO.P,U4,15*%
%TO.N,IO3*%
X45015000Y-19300000D03*
%TO.P,U4,16*%
%TO.N,IO46*%
X46285000Y-19300000D03*
%TO.P,U4,17*%
%TO.N,SD_D3*%
X47555000Y-19300000D03*
%TO.P,U4,18*%
%TO.N,SD_D2*%
X48825000Y-19300000D03*
%TO.P,U4,19*%
%TO.N,SD_D1*%
X50095000Y-19300000D03*
%TO.P,U4,20*%
%TO.N,SD_D0*%
X51365000Y-19300000D03*
%TO.P,U4,21*%
%TO.N,SD_CMD*%
X52635000Y-19300000D03*
%TO.P,U4,22*%
%TO.N,SD_CLK*%
X53905000Y-19300000D03*
%TO.P,U4,23*%
%TO.N,CAN_S*%
X55175000Y-19300000D03*
%TO.P,U4,24*%
%TO.N,SPI_CS*%
X56445000Y-19300000D03*
%TO.P,U4,25*%
%TO.N,LED_DIN_MCU*%
X57715000Y-19300000D03*
%TO.P,U4,26*%
%TO.N,IO45*%
X58985000Y-19300000D03*
D48*
%TO.P,U4,27*%
%TO.N,MCU_BOOT*%
X60750000Y-18050000D03*
%TO.P,U4,28*%
%TO.N,N/C*%
X60750000Y-16780000D03*
%TO.P,U4,29*%
X60750000Y-15510000D03*
%TO.P,U4,30*%
X60750000Y-14240000D03*
%TO.P,U4,31*%
%TO.N,I2C_SDA*%
X60750000Y-12970000D03*
%TO.P,U4,32*%
%TO.N,I2C_SCL*%
X60750000Y-11700000D03*
%TO.P,U4,33*%
%TO.N,SPI_SCK*%
X60750000Y-10430000D03*
%TO.P,U4,34*%
%TO.N,SPI_MISO*%
X60750000Y-9160000D03*
%TO.P,U4,35*%
%TO.N,SPI_MOSI*%
X60750000Y-7890000D03*
%TO.P,U4,36*%
%TO.N,UART_RX*%
X60750000Y-6620000D03*
%TO.P,U4,37*%
%TO.N,UART_TX*%
X60750000Y-5350000D03*
%TO.P,U4,38*%
%TO.N,AIN2*%
X60750000Y-4080000D03*
%TO.P,U4,39*%
%TO.N,AIN1*%
X60750000Y-2810000D03*
%TO.P,U4,40*%
%TO.N,GND*%
X60750000Y-1540000D03*
D50*
%TO.P,U4,41*%
X49100000Y-8560000D03*
X49100000Y-9960000D03*
X49800000Y-7860000D03*
X49800000Y-9260000D03*
X49800000Y-10660000D03*
X50500000Y-8560000D03*
D51*
X50500000Y-9260000D03*
D50*
X50500000Y-9960000D03*
X51200000Y-7860000D03*
X51200000Y-9260000D03*
X51200000Y-10660000D03*
X51900000Y-8560000D03*
X51900000Y-9960000D03*
%TD*%
D16*
%TO.P,TP5,1*%
%TO.N,+3V3*%
X33500000Y-68200000D03*
%TD*%
D15*
%TO.P,JP6,1*%
%TO.N,AIN2_A*%
X22835000Y-21820000D03*
%TO.P,JP6,2*%
%TO.N,AIN2*%
X24135000Y-21820000D03*
%TD*%
D11*
%TO.P,R39,1*%
%TO.N,SD_VDD*%
X59212500Y-32252500D03*
%TO.P,R39,2*%
%TO.N,SD_D1_C*%
X61037500Y-32252500D03*
%TD*%
D17*
%TO.P,Q2,1*%
%TO.N,SD_PG*%
X60037500Y-50095000D03*
%TO.P,Q2,2*%
%TO.N,+3V3*%
X60037500Y-51995000D03*
%TO.P,Q2,3*%
%TO.N,SD_VDD*%
X61912500Y-51045000D03*
%TD*%
D47*
%TO.P,L1,1*%
%TO.N,SW_5V*%
X50000000Y-42000000D03*
%TO.P,L1,2*%
%TO.N,+5V*%
X56000000Y-42000000D03*
%TD*%
D41*
%TO.P,C17,1*%
%TO.N,+3V3*%
X50025000Y-63600000D03*
%TO.P,C17,2*%
%TO.N,GND*%
X52975000Y-63600000D03*
%TD*%
D11*
%TO.P,R22,1*%
%TO.N,SPI_CS*%
X63812500Y-31235000D03*
%TO.P,R22,2*%
%TO.N,+3V3*%
X65637500Y-31235000D03*
%TD*%
%TO.P,R6,1*%
%TO.N,FB_5V*%
X41587500Y-48200000D03*
%TO.P,R6,2*%
%TO.N,GND*%
X43412500Y-48200000D03*
%TD*%
%TO.P,R37,1*%
%TO.N,SD_VDD*%
X50612500Y-32252500D03*
%TO.P,R37,2*%
%TO.N,SD_CMD_C*%
X52437500Y-32252500D03*
%TD*%
%TO.P,R41,1*%
%TO.N,SD_VDD*%
X54912500Y-35405000D03*
%TO.P,R41,2*%
%TO.N,SD_D3_C*%
X56737500Y-35405000D03*
%TD*%
%TO.P,R62,1*%
%TO.N,AIN4_PU*%
X35412500Y-28730000D03*
%TO.P,R62,2*%
%TO.N,AIN4_A*%
X37237500Y-28730000D03*
%TD*%
%TO.P,R51,1*%
%TO.N,AIN2_IN*%
X22702500Y-25395000D03*
%TO.P,R51,2*%
%TO.N,AIN2_A*%
X24527500Y-25395000D03*
%TD*%
D13*
%TO.P,C13,1*%
%TO.N,EN_3V3*%
X33550000Y-55700000D03*
%TO.P,C13,2*%
%TO.N,GND*%
X35450000Y-55700000D03*
%TD*%
D11*
%TO.P,R18,1*%
%TO.N,USB_CC1*%
X66702500Y-17675000D03*
%TO.P,R18,2*%
%TO.N,GND*%
X68527500Y-17675000D03*
%TD*%
%TO.P,R35,1*%
%TO.N,SD_D2*%
X54912500Y-29100000D03*
%TO.P,R35,2*%
%TO.N,SD_D2_C*%
X56737500Y-29100000D03*
%TD*%
D41*
%TO.P,C10,1*%
%TO.N,+5V*%
X50025000Y-47800000D03*
%TO.P,C10,2*%
%TO.N,GND*%
X52975000Y-47800000D03*
%TD*%
D52*
%TO.P,C5,1*%
%TO.N,+VBAT*%
X37250000Y-42200000D03*
%TO.P,C5,2*%
%TO.N,GND*%
X35350000Y-42200000D03*
%TD*%
D17*
%TO.P,Q3,1*%
%TO.N,SD_EN_G*%
X64387500Y-50095000D03*
%TO.P,Q3,2*%
%TO.N,GND*%
X64387500Y-51995000D03*
%TO.P,Q3,3*%
%TO.N,SD_PG*%
X66262500Y-51045000D03*
%TD*%
D13*
%TO.P,C27,1*%
%TO.N,+5V*%
X63795000Y-27815000D03*
%TO.P,C27,2*%
%TO.N,GND*%
X65695000Y-27815000D03*
%TD*%
D11*
%TO.P,R50,1*%
%TO.N,AIN1_R2*%
X14162500Y-32005000D03*
%TO.P,R50,2*%
%TO.N,GND*%
X15987500Y-32005000D03*
%TD*%
%TO.P,R12,1*%
%TO.N,FB_3V3*%
X41587500Y-64000000D03*
%TO.P,R12,2*%
%TO.N,GND*%
X43412500Y-64000000D03*
%TD*%
%TO.P,R28,1*%
%TO.N,+3V3*%
X59812500Y-54300000D03*
%TO.P,R28,2*%
%TO.N,SD_PG*%
X61637500Y-54300000D03*
%TD*%
%TO.P,R13,1*%
%TO.N,SW_3V3*%
X44787500Y-53400000D03*
%TO.P,R13,2*%
%TO.N,RAMP_3V3*%
X46612500Y-53400000D03*
%TD*%
D15*
%TO.P,JP3,1*%
%TO.N,AIN1_A*%
X14335000Y-21820000D03*
%TO.P,JP3,2*%
%TO.N,AIN1*%
X15635000Y-21820000D03*
%TD*%
%TO.P,JP13,1*%
%TO.N,AIN4_R1*%
X35645000Y-17945000D03*
%TO.P,JP13,2*%
%TO.N,AIN4*%
X36945000Y-17945000D03*
%TO.P,JP13,3*%
%TO.N,AIN4_R2*%
X38245000Y-17945000D03*
%TD*%
D11*
%TO.P,R34,1*%
%TO.N,SD_D1*%
X50612500Y-29100000D03*
%TO.P,R34,2*%
%TO.N,SD_D1_C*%
X52437500Y-29100000D03*
%TD*%
D25*
%TO.P,D7,1*%
%TO.N,CAN_L*%
X18535000Y-41798300D03*
%TO.P,D7,2*%
%TO.N,GND*%
X22535000Y-41798300D03*
%TD*%
D41*
%TO.P,C18,1*%
%TO.N,+3V3*%
X55025000Y-63600000D03*
%TO.P,C18,2*%
%TO.N,GND*%
X57975000Y-63600000D03*
%TD*%
D53*
%TO.P,D4,1*%
%TO.N,PWR_LED_K*%
X38677500Y-75320000D03*
%TO.P,D4,2*%
%TO.N,+3V3*%
X40552500Y-75320000D03*
%TD*%
D13*
%TO.P,C34,1*%
%TO.N,AIN2*%
X18795000Y-25425000D03*
%TO.P,C34,2*%
%TO.N,GND*%
X20695000Y-25425000D03*
%TD*%
D11*
%TO.P,R38,1*%
%TO.N,SD_VDD*%
X54912500Y-32252500D03*
%TO.P,R38,2*%
%TO.N,SD_D0_C*%
X56737500Y-32252500D03*
%TD*%
%TO.P,R57,1*%
%TO.N,AIN3_PU*%
X27312500Y-28730000D03*
%TO.P,R57,2*%
%TO.N,AIN3_A*%
X29137500Y-28730000D03*
%TD*%
D15*
%TO.P,JP10,1*%
%TO.N,AIN3_R1*%
X27545000Y-17945000D03*
%TO.P,JP10,2*%
%TO.N,AIN3*%
X28845000Y-17945000D03*
%TO.P,JP10,3*%
%TO.N,AIN3_R2*%
X30145000Y-17945000D03*
%TD*%
D11*
%TO.P,R15,1*%
%TO.N,PWR_LED_K*%
X42552500Y-75320000D03*
%TO.P,R15,2*%
%TO.N,GND*%
X44377500Y-75320000D03*
%TD*%
D54*
%TO.P,FB2,1*%
%TO.N,VSENS_F*%
X10232500Y-80305000D03*
%TO.P,FB2,2*%
%TO.N,+5VS*%
X12357500Y-80305000D03*
%TD*%
D16*
%TO.P,TP9,1*%
%TO.N,CAN_L*%
X28770000Y-41299600D03*
%TD*%
D11*
%TO.P,R61,1*%
%TO.N,AIN4_IN*%
X39302500Y-25395000D03*
%TO.P,R61,2*%
%TO.N,AIN4_A*%
X41127500Y-25395000D03*
%TD*%
%TO.P,R45,1*%
%TO.N,CAN_SPLIT*%
X14162500Y-48205000D03*
%TO.P,R45,2*%
%TO.N,CAN_L*%
X15987500Y-48205000D03*
%TD*%
D13*
%TO.P,C14,1*%
%TO.N,BST_3V3*%
X41050000Y-53400000D03*
%TO.P,C14,2*%
%TO.N,SW_3V3*%
X42950000Y-53400000D03*
%TD*%
D46*
%TO.P,PF3,1*%
%TO.N,+5V*%
X62952500Y-70975000D03*
%TO.P,PF3,2*%
%TO.N,LED_5V*%
X65877500Y-70975000D03*
%TD*%
D41*
%TO.P,C11,1*%
%TO.N,+5V*%
X55025000Y-47800000D03*
%TO.P,C11,2*%
%TO.N,GND*%
X57975000Y-47800000D03*
%TD*%
D55*
%TO.P,FB1,1*%
%TO.N,VBAT_F*%
X17602500Y-69978300D03*
%TO.P,FB1,2*%
%TO.N,VBAT_FB*%
X20752500Y-69978300D03*
%TD*%
D13*
%TO.P,C15,1*%
%TO.N,RAMP_3V3*%
X50050000Y-66600000D03*
%TO.P,C15,2*%
%TO.N,+3V3*%
X51950000Y-66600000D03*
%TD*%
D31*
%TO.P,U3,1*%
%TO.N,GND*%
X39937500Y-55895000D03*
%TO.P,U3,2*%
%TO.N,+VBAT*%
X39937500Y-57165000D03*
%TO.P,U3,3*%
%TO.N,EN_3V3*%
X39937500Y-58435000D03*
%TO.P,U3,4*%
%TO.N,RON_3V3*%
X39937500Y-59705000D03*
%TO.P,U3,5*%
%TO.N,FB_3V3*%
X45062500Y-59705000D03*
%TO.P,U3,6*%
%TO.N,PG_3V3*%
X45062500Y-58435000D03*
%TO.P,U3,7*%
%TO.N,BST_3V3*%
X45062500Y-57165000D03*
%TO.P,U3,8*%
%TO.N,SW_3V3*%
X45062500Y-55895000D03*
D32*
%TO.P,U3,9*%
%TO.N,GND*%
X41850000Y-55850000D03*
X41850000Y-57150000D03*
X41850000Y-58450000D03*
X41850000Y-59750000D03*
D33*
X42500000Y-57800000D03*
D32*
X43150000Y-55850000D03*
X43150000Y-57150000D03*
X43150000Y-58450000D03*
X43150000Y-59750000D03*
%TD*%
D11*
%TO.P,R31,1*%
%TO.N,SD_CLK*%
X50612500Y-25947500D03*
%TO.P,R31,2*%
%TO.N,SD_CLK_C*%
X52437500Y-25947500D03*
%TD*%
D13*
%TO.P,C8,1*%
%TO.N,RAMP_5V*%
X50050000Y-50800000D03*
%TO.P,C8,2*%
%TO.N,+5V*%
X51950000Y-50800000D03*
%TD*%
D11*
%TO.P,R52,1*%
%TO.N,AIN2_PU*%
X18812500Y-28730000D03*
%TO.P,R52,2*%
%TO.N,AIN2_A*%
X20637500Y-28730000D03*
%TD*%
D15*
%TO.P,JP11,1*%
%TO.N,+5VS*%
X35645000Y-21820000D03*
%TO.P,JP11,2*%
%TO.N,AIN4_PU*%
X36945000Y-21820000D03*
%TD*%
D11*
%TO.P,R8,1*%
%TO.N,PG_5V*%
X43587500Y-51000000D03*
%TO.P,R8,2*%
%TO.N,+3V3*%
X45412500Y-51000000D03*
%TD*%
%TO.P,R27,1*%
%TO.N,IO46*%
X43412500Y-27405000D03*
%TO.P,R27,2*%
%TO.N,GND*%
X45237500Y-27405000D03*
%TD*%
%TO.P,R56,1*%
%TO.N,AIN3_IN*%
X31202500Y-25395000D03*
%TO.P,R56,2*%
%TO.N,AIN3_A*%
X33027500Y-25395000D03*
%TD*%
D56*
%TO.P,D5,1*%
%TO.N,+5V*%
X67335000Y-9195000D03*
%TO.P,D5,2*%
%TO.N,VBUS*%
X70635000Y-9195000D03*
%TD*%
D25*
%TO.P,D8,1*%
%TO.N,AIN1_IN*%
X11045000Y-8795000D03*
%TO.P,D8,2*%
%TO.N,GND*%
X15045000Y-8795000D03*
%TD*%
D13*
%TO.P,C19,1*%
%TO.N,+3V3*%
X55550000Y-66200000D03*
%TO.P,C19,2*%
%TO.N,GND*%
X57450000Y-66200000D03*
%TD*%
%TO.P,C21,1*%
%TO.N,MCU_EN*%
X68885000Y-24025000D03*
%TO.P,C21,2*%
%TO.N,GND*%
X70785000Y-24025000D03*
%TD*%
D25*
%TO.P,D14,1*%
%TO.N,AIN4_IN*%
X36145000Y-8795000D03*
%TO.P,D14,2*%
%TO.N,GND*%
X40145000Y-8795000D03*
%TD*%
D13*
%TO.P,C6,1*%
%TO.N,EN_5V*%
X33550000Y-39900000D03*
%TO.P,C6,2*%
%TO.N,GND*%
X35450000Y-39900000D03*
%TD*%
%TO.P,C31,1*%
%TO.N,+3V3*%
X17975000Y-45131700D03*
%TO.P,C31,2*%
%TO.N,GND*%
X19875000Y-45131700D03*
%TD*%
D29*
%TO.P,J6,1*%
%TO.N,LED_5V*%
X69000000Y-81500000D03*
D30*
%TO.P,J6,2*%
%TO.N,LED_DIN_J*%
X71540000Y-81500000D03*
%TO.P,J6,3*%
%TO.N,GND*%
X74080000Y-81500000D03*
%TD*%
D11*
%TO.P,R54,1*%
%TO.N,AIN2_R1*%
X18812500Y-32005000D03*
%TO.P,R54,2*%
%TO.N,GND*%
X20637500Y-32005000D03*
%TD*%
%TO.P,R19,1*%
%TO.N,USB_CC2*%
X70552500Y-17675000D03*
%TO.P,R19,2*%
%TO.N,GND*%
X72377500Y-17675000D03*
%TD*%
D13*
%TO.P,C23,1*%
%TO.N,+3V3*%
X72775000Y-24025000D03*
%TO.P,C23,2*%
%TO.N,GND*%
X74675000Y-24025000D03*
%TD*%
D15*
%TO.P,JP12,1*%
%TO.N,AIN4_A*%
X39435000Y-21820000D03*
%TO.P,JP12,2*%
%TO.N,AIN4*%
X40735000Y-21820000D03*
%TD*%
D57*
%TO.P,D1,1*%
%TO.N,VBAT_F*%
X22335000Y-64611700D03*
%TO.P,D1,2*%
%TO.N,GND*%
X29135000Y-64611700D03*
%TD*%
D11*
%TO.P,R2,1*%
%TO.N,VBAT_UVLO*%
X17752500Y-73645000D03*
%TO.P,R2,2*%
%TO.N,GND*%
X19577500Y-73645000D03*
%TD*%
%TO.P,R60,1*%
%TO.N,AIN3_R2*%
X31162500Y-32005000D03*
%TO.P,R60,2*%
%TO.N,GND*%
X32987500Y-32005000D03*
%TD*%
%TO.P,R30,1*%
%TO.N,SD_EN_G*%
X59812500Y-56805000D03*
%TO.P,R30,2*%
%TO.N,GND*%
X61637500Y-56805000D03*
%TD*%
D16*
%TO.P,TP8,1*%
%TO.N,CAN_H*%
X25777500Y-41299600D03*
%TD*%
D41*
%TO.P,C28,1*%
%TO.N,SD_VDD*%
X50670000Y-22595000D03*
%TO.P,C28,2*%
%TO.N,GND*%
X53620000Y-22595000D03*
%TD*%
D11*
%TO.P,R46,1*%
%TO.N,AIN1_IN*%
X14202500Y-25395000D03*
%TO.P,R46,2*%
%TO.N,AIN1_A*%
X16027500Y-25395000D03*
%TD*%
D58*
%TO.P,L3,1*%
%TO.N,CANH_T*%
X18360000Y-34745000D03*
%TO.P,L3,2*%
%TO.N,CAN_H*%
X22910000Y-34745000D03*
%TO.P,L3,3*%
%TO.N,CANL_T*%
X18360000Y-37245000D03*
%TO.P,L3,4*%
%TO.N,CAN_L*%
X22910000Y-37245000D03*
%TD*%
D46*
%TO.P,PF2,1*%
%TO.N,VBUS_IN*%
X67952500Y-14065000D03*
%TO.P,PF2,2*%
%TO.N,VBUS*%
X70877500Y-14065000D03*
%TD*%
D11*
%TO.P,R64,1*%
%TO.N,AIN4_R1*%
X35412500Y-32005000D03*
%TO.P,R64,2*%
%TO.N,GND*%
X37237500Y-32005000D03*
%TD*%
D15*
%TO.P,JP1,1*%
%TO.N,CAN_H*%
X10545000Y-45401700D03*
%TO.P,JP1,2*%
%TO.N,TERM_A*%
X11845000Y-45401700D03*
%TD*%
D29*
%TO.P,J4,1*%
%TO.N,GND*%
X41000000Y-81500000D03*
D30*
%TO.P,J4,2*%
%TO.N,+3V3*%
X43540000Y-81500000D03*
%TO.P,J4,3*%
%TO.N,I2C_SDA*%
X46080000Y-81500000D03*
%TO.P,J4,4*%
%TO.N,I2C_SCL*%
X48620000Y-81500000D03*
%TD*%
D11*
%TO.P,R44,1*%
%TO.N,TERM_A*%
X10312500Y-48205000D03*
%TO.P,R44,2*%
%TO.N,CAN_SPLIT*%
X12137500Y-48205000D03*
%TD*%
D59*
%TO.N,+3V3*%
X36275000Y-72495000D03*
X68208800Y-28824200D03*
X46425000Y-51000000D03*
X72058700Y-28824200D03*
X61275000Y-51995000D03*
X77531000Y-24637500D03*
X46093800Y-65039200D03*
X56100000Y-63600000D03*
X39245000Y-78405000D03*
X44500000Y-2810000D03*
X11775000Y-14570000D03*
X59718700Y-36444200D03*
X51100000Y-63600000D03*
X49650000Y-30795000D03*
X60318800Y-55339200D03*
X79758700Y-28824200D03*
X64945000Y-24195000D03*
X36875000Y-14570000D03*
X17195000Y-38650000D03*
X75908700Y-28824200D03*
X73641000Y-24637500D03*
X28775000Y-14570000D03*
X66650000Y-31235000D03*
X41407700Y-75920000D03*
X34750000Y-68200000D03*
X18841000Y-45744200D03*
X46425000Y-66800000D03*
X52950000Y-66600000D03*
X57600000Y-57800000D03*
X44661000Y-35587500D03*
X56416000Y-66812500D03*
X20275000Y-14570000D03*
D60*
%TO.N,+5V*%
X29741900Y-38842400D03*
X45400000Y-47900000D03*
X27110900Y-76375000D03*
X68416700Y-8665600D03*
X24349900Y-40733900D03*
X35900000Y-44100000D03*
X60020000Y-42006400D03*
X63631000Y-26482100D03*
%TO.N,+5VS*%
X35597200Y-23187300D03*
X29221800Y-20390500D03*
X16710600Y-75658500D03*
X23763100Y-20390500D03*
D59*
%TO.N,+VBAT*%
X37675000Y-46750000D03*
D60*
X45282600Y-73775700D03*
D59*
X37675000Y-56365000D03*
%TO.N,AIN1*%
X46961600Y-3165200D03*
X26743000Y-30201900D03*
X16766100Y-27011000D03*
X42793600Y-31295000D03*
%TO.N,AIN1_IN*%
X9693500Y-27481100D03*
%TO.N,AIN2*%
X58978700Y-13759900D03*
X41946600Y-33606400D03*
X45715300Y-16209200D03*
X63050800Y-4528500D03*
%TO.N,AIN2_IN*%
X25563100Y-21195200D03*
X23559800Y-26324800D03*
%TO.N,AIN2_R2*%
X22218800Y-30514300D03*
X22218800Y-19203000D03*
%TO.N,AIN3*%
X33242500Y-23441800D03*
X27988400Y-35416900D03*
X33242500Y-29942200D03*
%TO.N,AIN3_IN*%
X26000700Y-11901400D03*
%TO.N,AIN3_R2*%
X28328200Y-29770000D03*
X29205600Y-24048800D03*
%TO.N,AIN4_IN*%
X37349400Y-10579200D03*
X31831200Y-12097600D03*
X37639300Y-24030100D03*
%TO.N,AIN4_R2*%
X38609600Y-19203000D03*
X37498000Y-30460500D03*
%TO.N,BST_3V3*%
X46318000Y-57746200D03*
X40999800Y-54636400D03*
%TO.N,BST_5V*%
X43238800Y-38924500D03*
X46287300Y-41973000D03*
%TO.N,CAN_RX*%
X12642900Y-39173200D03*
X40972600Y-13926500D03*
%TO.N,CAN_S*%
X55351500Y-20698000D03*
X43735300Y-36572300D03*
X43062600Y-36042200D03*
X53045000Y-36714800D03*
%TO.N,CAN_TX*%
X22513000Y-38894600D03*
X36001400Y-16229400D03*
%TO.N,EN_5V*%
X38523700Y-42867800D03*
X39643100Y-38843100D03*
%TO.N,GATE_RB*%
X11044300Y-63621700D03*
X13622500Y-70365500D03*
%TO.N,GND*%
X44425000Y-48200000D03*
X75541000Y-24637500D03*
X16851000Y-45744200D03*
X38735900Y-40495000D03*
X36275000Y-70595000D03*
X28775000Y-12670000D03*
X21650000Y-32005000D03*
X59035000Y-22425000D03*
X58450000Y-50400000D03*
X58450000Y-66200000D03*
X38250000Y-32005000D03*
X79565000Y-24025000D03*
X40425000Y-48200000D03*
X66751000Y-14785000D03*
X66561000Y-28427500D03*
X62000000Y-1540000D03*
X53906000Y-64300000D03*
X67751000Y-24895000D03*
X17000000Y-32005000D03*
X36450000Y-39900000D03*
X82500000Y-65400000D03*
X46250000Y-24600000D03*
X36875000Y-12670000D03*
X46695000Y-34975000D03*
X59050000Y-47800000D03*
X74580000Y-12750000D03*
X59050000Y-63600000D03*
X42100000Y-32005000D03*
X59464300Y-72895000D03*
X13150000Y-32005000D03*
X24733500Y-77095000D03*
X46250000Y-21795000D03*
X45250000Y-30795000D03*
X41345000Y-78405000D03*
X82500000Y-58400000D03*
X25295000Y-8795000D03*
X35800000Y-45100000D03*
X24285000Y-41798300D03*
X73390000Y-17675000D03*
X54695000Y-22595000D03*
X76417500Y-19942800D03*
X46250000Y-27405000D03*
X21561000Y-26037500D03*
X28610000Y-45101700D03*
X38161000Y-26037500D03*
X11775000Y-12670000D03*
X44425000Y-64000000D03*
X30885000Y-64611700D03*
X12245000Y-36110000D03*
X46882500Y-71096200D03*
X16795000Y-76995000D03*
X30061000Y-26037500D03*
X22795000Y-55245000D03*
X71025000Y-38675000D03*
X16795000Y-8795000D03*
X65561000Y-18317500D03*
X20741000Y-45744200D03*
X76200000Y-65400000D03*
X76200000Y-58400000D03*
X36450000Y-55700000D03*
X12761000Y-74287500D03*
X44500000Y-1540000D03*
X41895000Y-8795000D03*
X71651000Y-24637500D03*
X13061000Y-26037500D03*
X34000000Y-32005000D03*
X45390000Y-75320000D03*
X45250000Y-29795000D03*
D61*
X64070000Y-9745000D03*
D59*
X8995000Y-70478300D03*
X37561000Y-75962500D03*
X40425000Y-64000000D03*
X33795000Y-8795000D03*
X25500000Y-32005000D03*
X20275000Y-12670000D03*
X69540000Y-17675000D03*
X16560500Y-42498300D03*
X62650000Y-56805000D03*
X36216000Y-42812500D03*
X38550000Y-55895000D03*
X37514300Y-79005000D03*
X65625000Y-51995000D03*
X53906000Y-48500000D03*
X20590000Y-73645000D03*
X30150000Y-32005000D03*
X57295000Y-70595000D03*
X24631000Y-45744200D03*
X81725000Y-46575000D03*
%TO.N,I2C_SCL*%
X63776600Y-11536100D03*
X52862800Y-14460600D03*
X49912300Y-14361900D03*
X47793600Y-24306700D03*
X71142700Y-26548500D03*
%TO.N,I2C_SDA*%
X49947700Y-15222700D03*
X47182400Y-30295000D03*
X47626400Y-25722500D03*
%TO.N,IO15*%
X39037600Y-10214500D03*
%TO.N,IO16*%
X39033900Y-11700000D03*
%TO.N,IO3*%
X35213200Y-5539800D03*
X39754800Y-19300000D03*
%TO.N,IO45*%
X44538200Y-17580100D03*
X41741300Y-24085800D03*
%TO.N,IO46*%
X39674800Y-23108700D03*
%TO.N,LED_DIN_J*%
X62146300Y-74712200D03*
%TO.N,LED_DIN_MCU*%
X64842600Y-69876500D03*
X58610900Y-18013800D03*
%TO.N,MCU_EN*%
X68647100Y-22785100D03*
X59448500Y-4080000D03*
%TO.N,PG_5V*%
X46477900Y-45467800D03*
X46305400Y-49953300D03*
%TO.N,RAMP_5V*%
X40630200Y-49906700D03*
X44057500Y-46536700D03*
%TO.N,SD_CD*%
X54527700Y-12853100D03*
X61836900Y-34365800D03*
%TO.N,SD_CLK*%
X52474100Y-22989000D03*
X50465800Y-27170600D03*
%TO.N,SD_CLK_C*%
X49584200Y-52759500D03*
X52400800Y-27189800D03*
%TO.N,SD_CMD*%
X51570600Y-21344600D03*
X50386500Y-24636800D03*
%TO.N,SD_CMD_C*%
X58750500Y-44878100D03*
X55788700Y-30426000D03*
%TO.N,SD_D0_C*%
X61210100Y-30602400D03*
X62066400Y-37284100D03*
%TO.N,SD_D1_C*%
X60785100Y-36634900D03*
X58968900Y-39247100D03*
X54984000Y-37244200D03*
X60069800Y-33357500D03*
X54984000Y-27769700D03*
%TO.N,SD_D2_C*%
X60118700Y-40136600D03*
X59807800Y-27824900D03*
%TO.N,SD_D3*%
X57252200Y-17747600D03*
X58260800Y-29939600D03*
%TO.N,SD_PWR_EN*%
X56592100Y-10157900D03*
X63294600Y-53033600D03*
D60*
%TO.N,SD_VDD*%
X67770300Y-49331300D03*
X55836600Y-24008600D03*
X57781200Y-45200000D03*
X67770300Y-40761200D03*
X58060200Y-31471700D03*
D59*
%TO.N,SPI_CS*%
X50718000Y-18022200D03*
%TO.N,SPI_MISO*%
X45033700Y-8214100D03*
%TO.N,SPI_MOSI*%
X44620300Y-5809700D03*
%TO.N,SPI_SCK*%
X44513700Y-12226400D03*
%TO.N,UART_RX*%
X55808100Y-6620000D03*
%TO.N,UART_TX*%
X52548800Y-5405700D03*
%TO.N,USB_DM*%
X59142700Y-16492000D03*
X62283600Y-12492800D03*
%TO.N,USB_DP*%
X59301500Y-11242300D03*
X69647700Y-9589800D03*
X44022100Y-19038500D03*
X46484400Y-15775100D03*
D60*
%TO.N,VBAT_IN*%
X24302300Y-69908300D03*
D59*
%TO.N,VBAT_SNS*%
X53175500Y-7925000D03*
X48011600Y-74062400D03*
D60*
%TO.N,VBUS_IN*%
X65961100Y-12480900D03*
X73805000Y-13500000D03*
X74705000Y-18400000D03*
X66684000Y-19256600D03*
%TD*%
D62*
%TO.N,+3V3*%
X15720000Y-38650000D02*
X17195000Y-38650000D01*
X75402500Y-27785000D02*
X75908700Y-28824200D01*
X19037500Y-14570000D02*
X20275000Y-14570000D01*
X59812500Y-54300000D02*
X60318800Y-55339200D01*
X59212500Y-35405000D02*
X59718700Y-36444200D01*
X35037500Y-72495000D02*
X36275000Y-72495000D01*
X43795000Y-34975000D02*
X44661000Y-35587500D01*
X76665000Y-24025000D02*
X77531000Y-24637500D01*
X79252500Y-27785000D02*
X79758700Y-28824200D01*
X72775000Y-24025000D02*
X73641000Y-24637500D01*
X56000000Y-57800000D02*
X57600000Y-57800000D01*
X55025000Y-63600000D02*
X56100000Y-63600000D01*
X60037500Y-51995000D02*
X61275000Y-51995000D01*
X45412500Y-51000000D02*
X46425000Y-51000000D01*
X67702500Y-27785000D02*
X68208800Y-28824200D01*
X50025000Y-63600000D02*
X51100000Y-63600000D01*
X38445000Y-78405000D02*
X39245000Y-78405000D01*
X33500000Y-68200000D02*
X34750000Y-68200000D01*
X65637500Y-31235000D02*
X66650000Y-31235000D01*
X51950000Y-66600000D02*
X52950000Y-66600000D01*
X35637500Y-14570000D02*
X36875000Y-14570000D01*
X40552500Y-75320000D02*
X41407700Y-75920000D01*
X10537500Y-14570000D02*
X11775000Y-14570000D01*
X45412500Y-66800000D02*
X46425000Y-66800000D01*
X45587500Y-64000000D02*
X46093800Y-65039200D01*
X48425000Y-30795000D02*
X49650000Y-30795000D01*
X63870000Y-24195000D02*
X64945000Y-24195000D01*
X27537500Y-14570000D02*
X28775000Y-14570000D01*
X71552500Y-27785000D02*
X72058700Y-28824200D01*
X55550000Y-66200000D02*
X56416000Y-66812500D01*
X43250000Y-2810000D02*
X44500000Y-2810000D01*
X17975000Y-45131700D02*
X18841000Y-45744200D01*
D63*
%TO.N,+5V*%
X60013600Y-42000000D02*
X60020000Y-42006400D01*
X56000000Y-46825000D02*
X55025000Y-47800000D01*
X13305000Y-44351700D02*
X14085000Y-45131700D01*
X50755900Y-51994100D02*
X49409300Y-51994100D01*
X62952500Y-70975000D02*
X62952500Y-74969100D01*
X13394600Y-38861800D02*
X11912800Y-37380000D01*
X33800000Y-37400000D02*
X32357600Y-38842400D01*
X51950000Y-50400000D02*
X51950000Y-50800000D01*
X23998500Y-40382500D02*
X13394600Y-40382500D01*
X56000000Y-42000000D02*
X56000000Y-46825000D01*
X51950000Y-49725000D02*
X51950000Y-50400000D01*
X11912800Y-37380000D02*
X10770000Y-37380000D01*
X13394600Y-40382500D02*
X13394600Y-38861800D01*
X63631000Y-27651000D02*
X63631000Y-26482100D01*
X34900000Y-43700000D02*
X34400000Y-43200000D01*
X13305000Y-40472100D02*
X13305000Y-44351700D01*
X55025000Y-50400000D02*
X55550000Y-50400000D01*
X49409300Y-51994100D02*
X45615200Y-48200000D01*
X56421600Y-81500000D02*
X56000000Y-81500000D01*
X67335000Y-9195000D02*
X67864400Y-8665600D01*
X13394600Y-40382500D02*
X13305000Y-40472100D01*
X25935000Y-76375000D02*
X27110900Y-76375000D01*
X51950000Y-50800000D02*
X50755900Y-51994100D01*
X35900000Y-44100000D02*
X35500000Y-43700000D01*
X62952500Y-74969100D02*
X56421600Y-81500000D01*
X34400000Y-43200000D02*
X34400000Y-42700000D01*
X62952500Y-70975000D02*
X61112500Y-70975000D01*
X67864400Y-8665600D02*
X68416700Y-8665600D01*
X63795000Y-27815000D02*
X63631000Y-27651000D01*
X56000000Y-42000000D02*
X60013600Y-42000000D01*
X51950000Y-50400000D02*
X55025000Y-50400000D01*
X32599999Y-39100000D02*
X32500000Y-39000000D01*
X45615200Y-48200000D02*
X45587500Y-48200000D01*
X61112500Y-70975000D02*
X60732500Y-70595000D01*
X35500000Y-43700000D02*
X34900000Y-43700000D01*
X55025000Y-50400000D02*
X55025000Y-47800000D01*
X32599999Y-40900000D02*
X32599999Y-39100000D01*
X24349900Y-40733900D02*
X23998500Y-40382500D01*
X32357600Y-38842400D02*
X29741900Y-38842400D01*
X50025000Y-47800000D02*
X51950000Y-49725000D01*
X34400000Y-42700000D02*
X32599999Y-40900000D01*
%TO.N,+5VS*%
X27545000Y-21218300D02*
X27545000Y-21820000D01*
X12357500Y-78307500D02*
X11045000Y-76995000D01*
X35645000Y-23021700D02*
X35645000Y-23139500D01*
X18287500Y-76612800D02*
X18287500Y-76496200D01*
X12357500Y-78388500D02*
X12357500Y-78307500D01*
X19045000Y-21820000D02*
X19045000Y-20618300D01*
X10545000Y-21820000D02*
X9593300Y-21820000D01*
X20852500Y-76395000D02*
X18388700Y-76395000D01*
X12357500Y-80305000D02*
X12357500Y-78388500D01*
X23763100Y-20390500D02*
X19272800Y-20390500D01*
X16710600Y-75658500D02*
X17449800Y-75658500D01*
X17449800Y-75658500D02*
X18287500Y-76496200D01*
X7127100Y-24286200D02*
X7127100Y-29872900D01*
X16511800Y-78388500D02*
X18287500Y-76612800D01*
X18388700Y-76395000D02*
X18287500Y-76496200D01*
X9593300Y-21820000D02*
X7127100Y-24286200D01*
X35645000Y-23139500D02*
X35597200Y-23187300D01*
X28372800Y-20390500D02*
X27545000Y-21218300D01*
X29221800Y-20390500D02*
X28372800Y-20390500D01*
X12357500Y-78388500D02*
X16511800Y-78388500D01*
X19272800Y-20390500D02*
X19045000Y-20618300D01*
X7127100Y-29872900D02*
X5000000Y-32000000D01*
X35645000Y-21820000D02*
X35645000Y-23021700D01*
%TO.N,+VBAT*%
X37387500Y-41240200D02*
X37512300Y-41365000D01*
X16537300Y-50402700D02*
X11695000Y-55245000D01*
X24648400Y-46750000D02*
X20995700Y-50402700D01*
D64*
X37250000Y-42200000D02*
X37675000Y-45100000D01*
D63*
X46402500Y-74895600D02*
X46402500Y-75320000D01*
X12099600Y-67041700D02*
X10595000Y-67041700D01*
D64*
X37675000Y-45100000D02*
X37675000Y-46750000D01*
D63*
X10595000Y-67041700D02*
X9017700Y-65464400D01*
X20995700Y-50402700D02*
X16537300Y-50402700D01*
D64*
X37675000Y-56365000D02*
X39937500Y-57165000D01*
D63*
X45282600Y-73775700D02*
X46402500Y-74895600D01*
X37387500Y-37600000D02*
X37387500Y-41240200D01*
X12432500Y-71428300D02*
X13688800Y-71428300D01*
X15087500Y-70029600D02*
X12099600Y-67041700D01*
X37675000Y-46750000D02*
X24648400Y-46750000D01*
X13688800Y-71428300D02*
X15087500Y-70029600D01*
X9017700Y-65464400D02*
X9017700Y-57922300D01*
X37675000Y-56365000D02*
X37387500Y-56077500D01*
X9017700Y-57922300D02*
X11695000Y-55245000D01*
D64*
X37250000Y-41365000D02*
X37250000Y-42200000D01*
D63*
X37387500Y-56077500D02*
X37387500Y-53400000D01*
D64*
X39937500Y-41365000D02*
X37512300Y-41365000D01*
X37512300Y-41365000D02*
X37250000Y-41365000D01*
D65*
%TO.N,AIN1*%
X15055700Y-20742700D02*
X13700200Y-20742700D01*
X12733400Y-21709500D02*
X12733400Y-22986600D01*
X16461700Y-21820000D02*
X16461700Y-23118000D01*
X27061700Y-30201900D02*
X26743000Y-30201900D01*
X16766100Y-27011000D02*
X16766100Y-27951400D01*
X28225000Y-32633800D02*
X28225000Y-31365200D01*
X41687100Y-32979700D02*
X41610200Y-33056600D01*
X12412500Y-15961600D02*
X11845000Y-16529100D01*
X16891400Y-26885700D02*
X16766100Y-27011000D01*
X28225000Y-31365200D02*
X27061700Y-30201900D01*
X16766100Y-27951400D02*
X15987500Y-28730000D01*
X15943800Y-21820000D02*
X16461700Y-21820000D01*
X15943800Y-21820000D02*
X15943800Y-21630800D01*
X59673300Y-2810000D02*
X59318100Y-3165200D01*
X59318100Y-3165200D02*
X46961600Y-3165200D01*
X44025000Y-31295000D02*
X42793600Y-31295000D01*
X13633100Y-20809800D02*
X12733400Y-21709500D01*
X41610200Y-33056600D02*
X28647800Y-33056600D01*
X16461700Y-23118000D02*
X16891400Y-23547700D01*
X42021500Y-32979700D02*
X41687100Y-32979700D01*
X11845000Y-16529100D02*
X11845000Y-17945000D01*
X11845000Y-19021700D02*
X13633100Y-20809800D01*
X42793600Y-31295000D02*
X42793600Y-32207600D01*
X12412500Y-13620000D02*
X12412500Y-15961600D01*
X11845000Y-17945000D02*
X11845000Y-19021700D01*
X13700200Y-20742700D02*
X13633100Y-20809800D01*
X15635000Y-21820000D02*
X15943800Y-21820000D01*
X15943800Y-21630800D02*
X15055700Y-20742700D01*
X28647800Y-33056600D02*
X28225000Y-32633800D01*
X60750000Y-2810000D02*
X59673300Y-2810000D01*
X42793600Y-32207600D02*
X42021500Y-32979700D01*
X16891400Y-23547700D02*
X16891400Y-26885700D01*
X12733400Y-22986600D02*
X10295000Y-25425000D01*
%TO.N,AIN1_A*%
X12137500Y-28730000D02*
X14162500Y-28730000D01*
X14162500Y-28730000D02*
X14162500Y-27260000D01*
X14335000Y-21820000D02*
X14335000Y-22896700D01*
X14335000Y-22896700D02*
X16027500Y-24589200D01*
X16027500Y-24589200D02*
X16027500Y-25395000D01*
X14162500Y-27260000D02*
X16027500Y-25395000D01*
%TO.N,AIN1_IN*%
X7709600Y-12130400D02*
X7709600Y-17174600D01*
X9693500Y-27481100D02*
X12562000Y-27481100D01*
X12562000Y-27481100D02*
X14202500Y-25840600D01*
X14202500Y-25840600D02*
X14202500Y-25395000D01*
X5000000Y-20000000D02*
X5000000Y-19073300D01*
X7709600Y-17174600D02*
X5810900Y-19073300D01*
X11045000Y-8795000D02*
X7709600Y-12130400D01*
X5810900Y-19073300D02*
X5000000Y-19073300D01*
%TO.N,AIN1_PU*%
X9066800Y-27740600D02*
X10056200Y-28730000D01*
X11235200Y-22896700D02*
X9066800Y-25065100D01*
X9066800Y-25065100D02*
X9066800Y-27740600D01*
X11845000Y-21820000D02*
X11845000Y-22896700D01*
X11845000Y-22896700D02*
X11235200Y-22896700D01*
X10056200Y-28730000D02*
X10312500Y-28730000D01*
%TO.N,AIN1_R1*%
X3770800Y-27592300D02*
X3770800Y-32364600D01*
X4359400Y-32953200D02*
X9364300Y-32953200D01*
X3770800Y-32364600D02*
X4359400Y-32953200D01*
X5602200Y-27000000D02*
X4363100Y-27000000D01*
X6535400Y-21127900D02*
X6535400Y-26066800D01*
X6535400Y-26066800D02*
X5602200Y-27000000D01*
X10545000Y-17945000D02*
X9718300Y-17945000D01*
X4363100Y-27000000D02*
X3770800Y-27592300D01*
X9718300Y-17945000D02*
X6535400Y-21127900D01*
X9364300Y-32953200D02*
X10312500Y-32005000D01*
%TO.N,AIN1_R2*%
X17026900Y-23044400D02*
X17410900Y-23428400D01*
X17026900Y-21000200D02*
X17026900Y-23044400D01*
X17410900Y-28873700D02*
X14279600Y-32005000D01*
X13145000Y-17945000D02*
X13971700Y-17945000D01*
X14279600Y-32005000D02*
X14162500Y-32005000D01*
X13971700Y-17945000D02*
X17026900Y-21000200D01*
X17410900Y-23428400D02*
X17410900Y-28873700D01*
%TO.N,AIN2*%
X42311700Y-33508300D02*
X44025000Y-31795000D01*
X21834400Y-16412100D02*
X24548400Y-19126100D01*
X18211700Y-20490400D02*
X18211700Y-22726400D01*
X41946600Y-33508300D02*
X42311700Y-33508300D01*
X20345000Y-16747700D02*
X20345000Y-17362200D01*
X20345000Y-17362200D02*
X19871700Y-17835500D01*
X19871700Y-18830400D02*
X18211700Y-20490400D01*
X20680600Y-16412100D02*
X20345000Y-16747700D01*
X24487500Y-28730000D02*
X25378100Y-27839400D01*
X58978700Y-13759900D02*
X56698300Y-16040300D01*
X24548400Y-21820000D02*
X24961700Y-21820000D01*
X20912500Y-16412100D02*
X20680600Y-16412100D01*
X19871700Y-17835500D02*
X19871700Y-18830400D01*
X45907900Y-16401800D02*
X45715300Y-16209200D01*
X25378100Y-27839400D02*
X25378100Y-22236400D01*
X26247200Y-31756300D02*
X26247200Y-32488800D01*
X24135000Y-21820000D02*
X24548400Y-21820000D01*
X60750000Y-4080000D02*
X62602300Y-4080000D01*
X27266700Y-33508300D02*
X41946600Y-33508300D01*
X26247200Y-32488800D02*
X27266700Y-33508300D01*
X18795000Y-23309700D02*
X18795000Y-25425000D01*
X62602300Y-4080000D02*
X63050800Y-4528500D01*
X18211700Y-22726400D02*
X18795000Y-23309700D01*
X47105500Y-16040300D02*
X46744000Y-16401800D01*
X20345000Y-16747700D02*
X20345000Y-17945000D01*
X41946600Y-33508300D02*
X41946600Y-33606400D01*
X25378100Y-22236400D02*
X24961700Y-21820000D01*
X24487500Y-29996600D02*
X26247200Y-31756300D01*
X20912500Y-13620000D02*
X20912500Y-16412100D01*
X46744000Y-16401800D02*
X45907900Y-16401800D01*
X24487500Y-28730000D02*
X24487500Y-29996600D01*
X24548400Y-19126100D02*
X24548400Y-21820000D01*
X20912500Y-16412100D02*
X21834400Y-16412100D01*
X56698300Y-16040300D02*
X47105500Y-16040300D01*
%TO.N,AIN2_A*%
X24373400Y-27019100D02*
X22662500Y-28730000D01*
X24373400Y-25395000D02*
X24373400Y-27019100D01*
X22835000Y-21820000D02*
X22835000Y-23856600D01*
X24373400Y-25395000D02*
X24527500Y-25395000D01*
X20637500Y-28730000D02*
X22662500Y-28730000D01*
X22835000Y-23856600D02*
X24373400Y-25395000D01*
%TO.N,AIN2_IN*%
X8883600Y-12903800D02*
X11540800Y-10246600D01*
X19040300Y-10246600D02*
X19040300Y-9299700D01*
X5000000Y-22000000D02*
X5000000Y-21073300D01*
X19040300Y-10246600D02*
X25563100Y-16769400D01*
X25563100Y-16769400D02*
X25563100Y-21195200D01*
X11540800Y-10246600D02*
X19040300Y-10246600D01*
X5579200Y-21073300D02*
X8883600Y-17768900D01*
X19040300Y-9299700D02*
X19545000Y-8795000D01*
X8883600Y-17768900D02*
X8883600Y-12903800D01*
X22702500Y-25467500D02*
X23559800Y-26324800D01*
X5000000Y-21073300D02*
X5579200Y-21073300D01*
X22702500Y-25395000D02*
X22702500Y-25467500D01*
%TO.N,AIN2_PU*%
X19744800Y-24824200D02*
X19744800Y-27797700D01*
X19744800Y-27797700D02*
X18812500Y-28730000D01*
X20345000Y-24224000D02*
X19744800Y-24824200D01*
X20345000Y-21820000D02*
X20345000Y-24224000D01*
%TO.N,AIN2_R1*%
X19045000Y-17945000D02*
X18218300Y-17945000D01*
X17930300Y-23309000D02*
X17930300Y-31122800D01*
X17478600Y-18684700D02*
X17478600Y-22857300D01*
X17478600Y-22857300D02*
X17930300Y-23309000D01*
X17930300Y-31122800D02*
X18812500Y-32005000D01*
X18218300Y-17945000D02*
X17478600Y-18684700D01*
%TO.N,AIN2_R2*%
X22037500Y-19021700D02*
X22218800Y-19203000D01*
X21645000Y-17945000D02*
X21645000Y-19021700D01*
X22662500Y-32005000D02*
X22662500Y-30958000D01*
X22662500Y-30958000D02*
X22218800Y-30514300D01*
X21645000Y-19021700D02*
X22037500Y-19021700D01*
%TO.N,AIN3*%
X26467400Y-10464400D02*
X25374000Y-11557800D01*
X32987500Y-28730000D02*
X32987500Y-29687200D01*
X29965200Y-15372300D02*
X32635000Y-18042100D01*
X29412500Y-13620000D02*
X26456800Y-13620000D01*
X29284300Y-7567300D02*
X26805800Y-7567300D01*
X32079000Y-11470900D02*
X31561600Y-11470900D01*
X25374000Y-15207200D02*
X27035100Y-16868300D01*
X28610900Y-19021700D02*
X26716800Y-20915800D01*
X41709800Y-35416900D02*
X45331700Y-31795000D01*
X28768700Y-10022700D02*
X29284300Y-10022700D01*
X26716800Y-20915800D02*
X26716800Y-24846800D01*
X27988400Y-35416900D02*
X41709800Y-35416900D01*
X43250000Y-5350000D02*
X37071100Y-5350000D01*
X27035100Y-16868300D02*
X28845000Y-16868300D01*
X26805800Y-7567300D02*
X26467400Y-7905700D01*
X26889700Y-15372300D02*
X29965200Y-15372300D01*
X26456800Y-12334600D02*
X28768700Y-10022700D01*
X32635000Y-18042100D02*
X32635000Y-21820000D01*
X31561600Y-11470900D02*
X29412500Y-13620000D01*
X37071100Y-5350000D02*
X34494600Y-7926500D01*
X32697400Y-22896700D02*
X33242500Y-23441800D01*
X28845000Y-17406600D02*
X28845000Y-17945000D01*
X28845000Y-17406600D02*
X28845000Y-16868300D01*
X34494600Y-9055300D02*
X32079000Y-11470900D01*
X25374000Y-11557800D02*
X25374000Y-15207200D01*
X29622700Y-9684300D02*
X29622700Y-7905700D01*
X32635000Y-21820000D02*
X32635000Y-22896700D01*
X26456800Y-14939400D02*
X26889700Y-15372300D01*
X34494600Y-7926500D02*
X34494600Y-9055300D01*
X29284300Y-10022700D02*
X29622700Y-9684300D01*
X26716800Y-24846800D02*
X27295000Y-25425000D01*
X32987500Y-29687200D02*
X33242500Y-29942200D01*
X32635000Y-22896700D02*
X32697400Y-22896700D01*
X26467400Y-7905700D02*
X26467400Y-10464400D01*
X28845000Y-17945000D02*
X28845000Y-19021700D01*
X26456800Y-13620000D02*
X26456800Y-14939400D01*
X28845000Y-19021700D02*
X28610900Y-19021700D01*
X26456800Y-13620000D02*
X26456800Y-12334600D01*
X29622700Y-7905700D02*
X29284300Y-7567300D01*
X45331700Y-31795000D02*
X48425000Y-31795000D01*
%TO.N,AIN3_A*%
X32873400Y-25395000D02*
X32873400Y-27019100D01*
X31335000Y-23856600D02*
X31335000Y-21820000D01*
X32873400Y-27019100D02*
X31162500Y-28730000D01*
X29137500Y-28730000D02*
X31162500Y-28730000D01*
X32873400Y-25395000D02*
X33027500Y-25395000D01*
X32873400Y-25395000D02*
X31335000Y-23856600D01*
%TO.N,AIN3_IN*%
X29373700Y-16271900D02*
X29970100Y-16868300D01*
X28045000Y-9857200D02*
X28045000Y-8795000D01*
X27098700Y-16271900D02*
X29373700Y-16271900D01*
X26000800Y-15174000D02*
X27098700Y-16271900D01*
X29970100Y-16868300D02*
X30822400Y-16868300D01*
X31684900Y-17730800D02*
X31684900Y-19670100D01*
X26000800Y-11901400D02*
X28045000Y-9857200D01*
X31684900Y-19670100D02*
X30508300Y-20846700D01*
X30508300Y-24700800D02*
X31202500Y-25395000D01*
X30508300Y-20846700D02*
X30508300Y-24700800D01*
X30822400Y-16868300D02*
X31684900Y-17730800D01*
X26000700Y-11901400D02*
X26000800Y-11901400D01*
X26000800Y-11901400D02*
X26000800Y-15174000D01*
%TO.N,AIN3_PU*%
X28845000Y-23205000D02*
X28307000Y-23743000D01*
X28845000Y-21820000D02*
X28845000Y-23205000D01*
X28307000Y-23743000D02*
X28307000Y-27735500D01*
X28307000Y-27735500D02*
X27312500Y-28730000D01*
%TO.N,AIN3_R1*%
X26718300Y-17945000D02*
X26219400Y-18443900D01*
X26219400Y-29839300D02*
X26116300Y-29942400D01*
X26219400Y-18443900D02*
X26219400Y-29839300D01*
X27545000Y-17945000D02*
X26718300Y-17945000D01*
X26116300Y-29942400D02*
X26116300Y-30808800D01*
X26116300Y-30808800D02*
X27312500Y-32005000D01*
%TO.N,AIN3_R2*%
X29948500Y-23305900D02*
X29948500Y-19218200D01*
X29948500Y-19218200D02*
X30145000Y-19021700D01*
X28927500Y-29770000D02*
X28328200Y-29770000D01*
X29205600Y-24048800D02*
X29948500Y-23305900D01*
X31162500Y-32005000D02*
X28927500Y-29770000D01*
X30145000Y-17945000D02*
X30145000Y-19021700D01*
%TO.N,AIN4*%
X34499500Y-15660700D02*
X35707100Y-16868300D01*
X35395000Y-25425000D02*
X34797500Y-24827500D01*
X35707100Y-16868300D02*
X36945000Y-16868300D01*
X36945000Y-18483300D02*
X36945000Y-19021700D01*
X36945000Y-18483300D02*
X36945000Y-17945000D01*
X34912400Y-29786500D02*
X40031000Y-29786500D01*
X36945000Y-17945000D02*
X36945000Y-16868300D01*
X40735000Y-21820000D02*
X40735000Y-20743300D01*
X40735000Y-20743300D02*
X37800100Y-20743300D01*
X40031000Y-29786500D02*
X41087500Y-28730000D01*
X37512500Y-13620000D02*
X35143200Y-13620000D01*
X34570900Y-26249100D02*
X34570900Y-29445000D01*
X46176400Y-29780000D02*
X45126400Y-28730000D01*
X34570900Y-29445000D02*
X34912400Y-29786500D01*
X36945000Y-19888200D02*
X36945000Y-19021700D01*
X38406000Y-8039000D02*
X38406000Y-12726500D01*
X45126400Y-28730000D02*
X41087500Y-28730000D01*
X35143200Y-13620000D02*
X34499500Y-14263700D01*
X38406000Y-12726500D02*
X37512500Y-13620000D01*
X34797500Y-24827500D02*
X34797500Y-20910800D01*
X39825000Y-6620000D02*
X38406000Y-8039000D01*
X43250000Y-6620000D02*
X39825000Y-6620000D01*
X46176400Y-30180800D02*
X46176400Y-29780000D01*
X37800100Y-20743300D02*
X36945000Y-19888200D01*
X47290600Y-31295000D02*
X46176400Y-30180800D01*
X35395000Y-25425000D02*
X34570900Y-26249100D01*
X34797500Y-20910800D02*
X35820100Y-19888200D01*
X48425000Y-31295000D02*
X47290600Y-31295000D01*
X34499500Y-14263700D02*
X34499500Y-15660700D01*
X35820100Y-19888200D02*
X36945000Y-19888200D01*
%TO.N,AIN4_A*%
X40598500Y-25395000D02*
X40598500Y-27394000D01*
X39435000Y-21820000D02*
X39048100Y-22206900D01*
X37237500Y-28730000D02*
X39262500Y-28730000D01*
X40598400Y-24918500D02*
X40598500Y-24918500D01*
X40598500Y-25395000D02*
X41127500Y-25395000D01*
X39048100Y-22206900D02*
X39048100Y-23368200D01*
X40598500Y-27394000D02*
X39262500Y-28730000D01*
X39048100Y-23368200D02*
X40598400Y-24918500D01*
X40598500Y-24918500D02*
X40598500Y-25395000D01*
%TO.N,AIN4_IN*%
X31831200Y-12097600D02*
X33584500Y-12097600D01*
X37937600Y-24030100D02*
X37639300Y-24030100D01*
X37349400Y-9999400D02*
X37349400Y-10579200D01*
X39302500Y-25395000D02*
X37937600Y-24030100D01*
X36145000Y-8795000D02*
X37349400Y-9999400D01*
X33584500Y-12097600D02*
X35102900Y-10579200D01*
X35102900Y-10579200D02*
X37349400Y-10579200D01*
%TO.N,AIN4_PU*%
X36345000Y-27797500D02*
X36345000Y-23915100D01*
X36945000Y-23315100D02*
X36945000Y-21820000D01*
X35412500Y-28730000D02*
X36345000Y-27797500D01*
X36345000Y-23915100D02*
X36945000Y-23315100D01*
%TO.N,AIN4_R1*%
X35645000Y-17945000D02*
X34818300Y-17945000D01*
X34067400Y-30659900D02*
X35412500Y-32005000D01*
X34067400Y-18695900D02*
X34067400Y-30659900D01*
X34818300Y-17945000D02*
X34067400Y-18695900D01*
%TO.N,AIN4_R2*%
X37718000Y-30460500D02*
X37498000Y-30460500D01*
X38245000Y-17945000D02*
X38245000Y-19021700D01*
X38428300Y-19021700D02*
X38245000Y-19021700D01*
X39262500Y-32005000D02*
X37718000Y-30460500D01*
X38609600Y-19203000D02*
X38428300Y-19021700D01*
%TO.N,BST_3V3*%
X41050000Y-53400000D02*
X41050000Y-54586200D01*
X46318000Y-57746200D02*
X45736800Y-57165000D01*
X45736800Y-57165000D02*
X45062500Y-57165000D01*
X41050000Y-54586200D02*
X40999800Y-54636400D01*
%TO.N,BST_5V*%
X43238800Y-38924500D02*
X42374500Y-38924500D01*
X42374500Y-38924500D02*
X41050000Y-37600000D01*
X45679300Y-41365000D02*
X46287300Y-41973000D01*
X45062500Y-41365000D02*
X45679300Y-41365000D01*
%TO.N,CANH_T*%
X16187600Y-36110000D02*
X15720000Y-36110000D01*
X17358300Y-34745000D02*
X17358300Y-34939300D01*
X17358300Y-34939300D02*
X16187600Y-36110000D01*
X18360000Y-34745000D02*
X17358300Y-34745000D01*
%TO.N,CANL_T*%
X15855000Y-37245000D02*
X15720000Y-37380000D01*
X18360000Y-37245000D02*
X15855000Y-37245000D01*
%TO.N,CAN_H*%
X10545000Y-42298300D02*
X11045000Y-41798300D01*
X22911600Y-38267900D02*
X22279500Y-38267900D01*
X14646800Y-36745000D02*
X12073000Y-34171200D01*
X9779900Y-34171200D02*
X9423200Y-34527900D01*
X17016400Y-36463700D02*
X16735100Y-36745000D01*
X21908300Y-36463700D02*
X21908300Y-34745000D01*
X8767900Y-49884600D02*
X8767900Y-46352100D01*
X12073000Y-34171200D02*
X9779900Y-34171200D01*
X10545000Y-45401700D02*
X9718300Y-45401700D01*
X21908300Y-37896700D02*
X21908300Y-36463700D01*
X16735100Y-36745000D02*
X14646800Y-36745000D01*
X8767900Y-46352100D02*
X9718300Y-45401700D01*
X5000000Y-53073300D02*
X5579200Y-53073300D01*
X25777500Y-41133800D02*
X22911600Y-38267900D01*
X21908300Y-36463700D02*
X17016400Y-36463700D01*
X5000000Y-54000000D02*
X5000000Y-53073300D01*
X22279500Y-38267900D02*
X21908300Y-37896700D01*
X9423200Y-40176500D02*
X11045000Y-41798300D01*
X5579200Y-53073300D02*
X8767900Y-49884600D01*
X9423200Y-34527900D02*
X9423200Y-40176500D01*
X10545000Y-45401700D02*
X10545000Y-42298300D01*
X25777500Y-41299600D02*
X25777500Y-41133800D01*
X22910000Y-34745000D02*
X21908300Y-34745000D01*
%TO.N,CAN_L*%
X11172500Y-49827500D02*
X14365000Y-49827500D01*
X22910000Y-37245000D02*
X24715400Y-37245000D01*
X27015700Y-43053900D02*
X22725200Y-43053900D01*
X15987500Y-48205000D02*
X20338000Y-48205000D01*
X24715400Y-37245000D02*
X28770000Y-41299600D01*
X28770000Y-41299600D02*
X27015700Y-43053900D01*
X5000000Y-56000000D02*
X5000000Y-55073300D01*
X22725200Y-43053900D02*
X19790600Y-43053900D01*
X5000000Y-55073300D02*
X5926700Y-55073300D01*
X22725200Y-45817800D02*
X22725200Y-43053900D01*
X14365000Y-49827500D02*
X15987500Y-48205000D01*
X5926700Y-55073300D02*
X11172500Y-49827500D01*
X20338000Y-48205000D02*
X22725200Y-45817800D01*
X19790600Y-43053900D02*
X18535000Y-41798300D01*
%TO.N,CAN_RX*%
X42173300Y-14240000D02*
X41859800Y-13926500D01*
X43250000Y-14240000D02*
X42173300Y-14240000D01*
X10770000Y-38650000D02*
X11293200Y-39173200D01*
X41859800Y-13926500D02*
X40972600Y-13926500D01*
X11293200Y-39173200D02*
X12642900Y-39173200D01*
%TO.N,CAN_S*%
X55175000Y-19300000D02*
X55175000Y-20521500D01*
X29859700Y-41791600D02*
X29859700Y-40040300D01*
X52902500Y-36572300D02*
X43735300Y-36572300D01*
X55175000Y-20521500D02*
X55351500Y-20698000D01*
X53045000Y-36714800D02*
X52902500Y-36572300D01*
X23758900Y-33939500D02*
X16620500Y-33939500D01*
X31493600Y-36042200D02*
X43062600Y-36042200D01*
X28170100Y-42704100D02*
X28947200Y-42704100D01*
X25772500Y-45101700D02*
X28170100Y-42704100D01*
X29859700Y-40040300D02*
X28677600Y-38858200D01*
X28677600Y-38858200D02*
X23758900Y-33939500D01*
X28677600Y-38858200D02*
X31493600Y-36042200D01*
X16620500Y-33939500D02*
X15720000Y-34840000D01*
X28947200Y-42704100D02*
X29859700Y-41791600D01*
%TO.N,CAN_SPLIT*%
X15190200Y-47177300D02*
X14162500Y-48205000D01*
X20304300Y-47177300D02*
X15190200Y-47177300D01*
X12137500Y-48205000D02*
X14162500Y-48205000D01*
X21865000Y-45131700D02*
X21865000Y-45616600D01*
X21865000Y-45616600D02*
X20304300Y-47177300D01*
%TO.N,CAN_TX*%
X20424400Y-38894600D02*
X19553100Y-38023300D01*
X39626400Y-12970000D02*
X36367000Y-16229400D01*
X14632800Y-38015000D02*
X12968300Y-36350500D01*
X22513000Y-38894600D02*
X20424400Y-38894600D01*
X36367000Y-16229400D02*
X36001400Y-16229400D01*
X12968300Y-36350500D02*
X12968300Y-35946900D01*
X19553100Y-38023300D02*
X17358900Y-38023300D01*
X11861400Y-34840000D02*
X10770000Y-34840000D01*
X12968300Y-35946900D02*
X11861400Y-34840000D01*
X17350600Y-38015000D02*
X14632800Y-38015000D01*
X43250000Y-12970000D02*
X39626400Y-12970000D01*
X17358900Y-38023300D02*
X17350600Y-38015000D01*
%TO.N,EN_3V3*%
X36933500Y-52316500D02*
X33550000Y-55700000D01*
X33550000Y-55700000D02*
X36285000Y-58435000D01*
X39212500Y-53400000D02*
X38129000Y-52316500D01*
X38129000Y-52316500D02*
X36933500Y-52316500D01*
X36285000Y-58435000D02*
X39937500Y-58435000D01*
%TO.N,EN_5V*%
X36916200Y-36533800D02*
X38146300Y-36533800D01*
X38146300Y-36533800D02*
X39212500Y-37600000D01*
X38756500Y-42635000D02*
X38523700Y-42867800D01*
X33550000Y-39900000D02*
X36916200Y-36533800D01*
X39212500Y-37600000D02*
X39212500Y-38412500D01*
X39937500Y-42635000D02*
X38756500Y-42635000D01*
X39212500Y-38412500D02*
X39643100Y-38843100D01*
%TO.N,FB_3V3*%
X44742600Y-60024900D02*
X44742600Y-61330100D01*
X41587500Y-66662500D02*
X41450000Y-66800000D01*
X45062500Y-59705000D02*
X44742600Y-60024900D01*
X47412500Y-64000000D02*
X44742600Y-61330100D01*
X44257400Y-61330100D02*
X41587500Y-64000000D01*
X44742600Y-61330100D02*
X44257400Y-61330100D01*
X41587500Y-64000000D02*
X41587500Y-66662500D01*
%TO.N,FB_5V*%
X41450000Y-48337500D02*
X41587500Y-48200000D01*
X43199800Y-46587700D02*
X41587500Y-48200000D01*
X45062500Y-43905000D02*
X43199800Y-45767700D01*
X46384800Y-47172300D02*
X47412500Y-48200000D01*
X43199800Y-46587700D02*
X43784400Y-47172300D01*
X43199800Y-45767700D02*
X43199800Y-46587700D01*
X43784400Y-47172300D02*
X46384800Y-47172300D01*
X41450000Y-51000000D02*
X41450000Y-48337500D01*
%TO.N,GATE_RB*%
X10595000Y-62481700D02*
X11044300Y-62931000D01*
X13622500Y-70365500D02*
X12545300Y-70365500D01*
X11044300Y-62931000D02*
X11044300Y-63621700D01*
X12545300Y-70365500D02*
X12432500Y-70478300D01*
D62*
%TO.N,GND*%
X15045000Y-8795000D02*
X16795000Y-8795000D01*
X19875000Y-45131700D02*
X20741000Y-45744200D01*
X58035000Y-22425000D02*
X59035000Y-22425000D01*
X32987500Y-32005000D02*
X34000000Y-32005000D01*
X65695000Y-27815000D02*
X66561000Y-28427500D01*
D63*
X43150000Y-42650000D02*
X42500000Y-42000000D01*
D62*
X57450000Y-66200000D02*
X58450000Y-66200000D01*
X58457500Y-70595000D02*
X57295000Y-70595000D01*
D63*
X51200000Y-9260000D02*
X50500000Y-9260000D01*
D62*
X10770000Y-36110000D02*
X12245000Y-36110000D01*
X61637500Y-56805000D02*
X62650000Y-56805000D01*
X72377500Y-17675000D02*
X73390000Y-17675000D01*
X43250000Y-1540000D02*
X44500000Y-1540000D01*
X66820000Y-24195000D02*
X67751000Y-24895000D01*
X74850000Y-65400000D02*
X76200000Y-65400000D01*
X27597500Y-45101700D02*
X28610000Y-45101700D01*
X44025000Y-30795000D02*
X45250000Y-30795000D01*
X75805000Y-12750000D02*
X74580000Y-12750000D01*
X11895000Y-73675000D02*
X12761000Y-74287500D01*
X45237500Y-27405000D02*
X46250000Y-27405000D01*
X62957500Y-9745000D02*
X64070000Y-9745000D01*
X44377500Y-75320000D02*
X45390000Y-75320000D01*
X81150000Y-65400000D02*
X82500000Y-65400000D01*
X12195000Y-25425000D02*
X13061000Y-26037500D01*
X20095000Y-55245000D02*
X22795000Y-55245000D01*
X43412500Y-64000000D02*
X44425000Y-64000000D01*
X24487500Y-32005000D02*
X25500000Y-32005000D01*
X29135000Y-64611700D02*
X30885000Y-64611700D01*
X36695000Y-75350000D02*
X37561000Y-75962500D01*
X35637500Y-12670000D02*
X36875000Y-12670000D01*
X23765000Y-45131700D02*
X24631000Y-45744200D01*
X35037500Y-70595000D02*
X36275000Y-70595000D01*
X64387500Y-51995000D02*
X65625000Y-51995000D01*
X80450000Y-46575000D02*
X81725000Y-46575000D01*
X65820000Y-14085000D02*
X66751000Y-14785000D01*
X19577500Y-73645000D02*
X20590000Y-73645000D01*
X32045000Y-8795000D02*
X33795000Y-8795000D01*
X22535000Y-41798300D02*
X24285000Y-41798300D01*
X15985000Y-45131700D02*
X16851000Y-45744200D01*
X64695000Y-17705000D02*
X65561000Y-18317500D01*
D63*
X43150000Y-58450000D02*
X42500000Y-57800000D01*
D62*
X19037500Y-12670000D02*
X20275000Y-12670000D01*
X35450000Y-39900000D02*
X36450000Y-39900000D01*
X74850000Y-58400000D02*
X76200000Y-58400000D01*
X23802500Y-76395000D02*
X24733500Y-77095000D01*
X45632500Y-71096200D02*
X46882500Y-71096200D01*
X27537500Y-12670000D02*
X28775000Y-12670000D01*
X37237500Y-32005000D02*
X38250000Y-32005000D01*
X45237500Y-21795000D02*
X46250000Y-21795000D01*
X29137500Y-32005000D02*
X30150000Y-32005000D01*
X81150000Y-58400000D02*
X82500000Y-58400000D01*
X36637500Y-78405000D02*
X37514300Y-79005000D01*
X39937500Y-55895000D02*
X38550000Y-55895000D01*
X40545000Y-78405000D02*
X41345000Y-78405000D01*
X15987500Y-32005000D02*
X17000000Y-32005000D01*
X35350000Y-42200000D02*
X36216000Y-42812500D01*
X39937500Y-40095000D02*
X38735900Y-40495000D01*
X39412500Y-64000000D02*
X40425000Y-64000000D01*
X41087500Y-32005000D02*
X42100000Y-32005000D01*
X75805000Y-19250000D02*
X76417500Y-19942800D01*
X39412500Y-48200000D02*
X40425000Y-48200000D01*
X45237500Y-24600000D02*
X46250000Y-24600000D01*
X74675000Y-24025000D02*
X75541000Y-24637500D01*
X15045000Y-41798300D02*
X16560500Y-42498300D01*
X78565000Y-24025000D02*
X79565000Y-24025000D01*
X20637500Y-32005000D02*
X21650000Y-32005000D01*
X57975000Y-47800000D02*
X59050000Y-47800000D01*
X68527500Y-17675000D02*
X69540000Y-17675000D01*
X35450000Y-55700000D02*
X36450000Y-55700000D01*
X34725000Y-45100000D02*
X35800000Y-45100000D01*
X70785000Y-24025000D02*
X71651000Y-24637500D01*
X57975000Y-63600000D02*
X59050000Y-63600000D01*
X69650000Y-38675000D02*
X71025000Y-38675000D01*
X37295000Y-25425000D02*
X38161000Y-26037500D01*
X10157500Y-70478300D02*
X8995000Y-70478300D01*
X20695000Y-25425000D02*
X21561000Y-26037500D01*
X10537500Y-12670000D02*
X11775000Y-12670000D01*
X60750000Y-1540000D02*
X62000000Y-1540000D01*
X29195000Y-25425000D02*
X30061000Y-26037500D01*
X53620000Y-22595000D02*
X54695000Y-22595000D01*
X57450000Y-50400000D02*
X58450000Y-50400000D01*
X44025000Y-29795000D02*
X45250000Y-29795000D01*
X40145000Y-8795000D02*
X41895000Y-8795000D01*
X52975000Y-63600000D02*
X53906000Y-64300000D01*
X45695000Y-34975000D02*
X46695000Y-34975000D01*
X12137500Y-32005000D02*
X13150000Y-32005000D01*
X15045000Y-76995000D02*
X16795000Y-76995000D01*
X23545000Y-8795000D02*
X25295000Y-8795000D01*
X43412500Y-48200000D02*
X44425000Y-48200000D01*
X58457500Y-72495000D02*
X59464300Y-72895000D01*
X52975000Y-47800000D02*
X53906000Y-48500000D01*
D65*
%TO.N,I2C_SCL*%
X60581000Y-11869000D02*
X60750000Y-11700000D01*
X48425000Y-29795000D02*
X48253100Y-29623100D01*
X57037000Y-11869000D02*
X60581000Y-11869000D01*
X48253100Y-24766200D02*
X47793600Y-24306700D01*
X48253100Y-29623100D02*
X48253100Y-24766200D01*
X61990600Y-11536100D02*
X61826700Y-11700000D01*
X54445400Y-14460600D02*
X57037000Y-11869000D01*
X52862800Y-14460600D02*
X54445400Y-14460600D01*
X81077500Y-27785000D02*
X79841000Y-26548500D01*
X50011000Y-14460600D02*
X49912300Y-14361900D01*
X79841000Y-26548500D02*
X71142700Y-26548500D01*
X60750000Y-11700000D02*
X61826700Y-11700000D01*
X63776600Y-11536100D02*
X61990600Y-11536100D01*
X52862800Y-14460600D02*
X50011000Y-14460600D01*
%TO.N,I2C_SDA*%
X58816100Y-12970000D02*
X56563400Y-15222700D01*
X61826700Y-12970000D02*
X61826700Y-18283600D01*
X47182400Y-26166500D02*
X47626400Y-25722500D01*
X61175000Y-12970000D02*
X60750000Y-12970000D01*
X56563400Y-15222700D02*
X49947700Y-15222700D01*
X78949700Y-29507200D02*
X77227500Y-27785000D01*
X60750000Y-12970000D02*
X58816100Y-12970000D01*
X81925300Y-28539100D02*
X80957200Y-29507200D01*
X61175000Y-12970000D02*
X61826700Y-12970000D01*
X61826700Y-18283600D02*
X64754300Y-21211200D01*
X81925300Y-25412500D02*
X81925300Y-28539100D01*
X64754300Y-21211200D02*
X77724000Y-21211200D01*
X47182400Y-30295000D02*
X47182400Y-26166500D01*
X80957200Y-29507200D02*
X78949700Y-29507200D01*
X77724000Y-21211200D02*
X81925300Y-25412500D01*
X47182400Y-30295000D02*
X48425000Y-30295000D01*
%TO.N,IO15*%
X41957800Y-10214500D02*
X39037600Y-10214500D01*
X42173300Y-10430000D02*
X41957800Y-10214500D01*
X43250000Y-10430000D02*
X42173300Y-10430000D01*
%TO.N,IO16*%
X43250000Y-11700000D02*
X39033900Y-11700000D01*
%TO.N,IO3*%
X44335500Y-20872000D02*
X43412500Y-21795000D01*
X13348800Y-5539800D02*
X35213200Y-5539800D01*
X10000000Y-3000000D02*
X11176700Y-3000000D01*
X11176700Y-3367700D02*
X13348800Y-5539800D01*
X45015000Y-19300000D02*
X45015000Y-20376700D01*
X11176700Y-3000000D02*
X11176700Y-3367700D01*
X39754800Y-19300000D02*
X43258800Y-19300000D01*
X44335500Y-20376700D02*
X44335500Y-20872000D01*
X45015000Y-20376700D02*
X44335500Y-20376700D01*
X43258800Y-19300000D02*
X44335500Y-20376700D01*
%TO.N,IO45*%
X42898300Y-24085800D02*
X41741300Y-24085800D01*
X48966100Y-17580100D02*
X44538200Y-17580100D01*
X59250000Y-17691100D02*
X58502600Y-16943700D01*
X58502600Y-16943700D02*
X49602500Y-16943700D01*
X59250000Y-19035000D02*
X59250000Y-17691100D01*
X49602500Y-16943700D02*
X48966100Y-17580100D01*
X58985000Y-19300000D02*
X59250000Y-19035000D01*
X43412500Y-24600000D02*
X42898300Y-24085800D01*
%TO.N,IO46*%
X44325000Y-26492500D02*
X43412500Y-27405000D01*
X44325000Y-23979200D02*
X44325000Y-26492500D01*
X43454500Y-23108700D02*
X39674800Y-23108700D01*
X46916600Y-21547300D02*
X46916600Y-22095600D01*
X44325000Y-23979200D02*
X43454500Y-23108700D01*
X45740900Y-23271300D02*
X45032900Y-23271300D01*
X46916600Y-22095600D02*
X45740900Y-23271300D01*
X46285000Y-19300000D02*
X46285000Y-20915700D01*
X45032900Y-23271300D02*
X44325000Y-23979200D01*
X46285000Y-20915700D02*
X46916600Y-21547300D01*
D63*
%TO.N,LED_5V*%
X69000000Y-74097500D02*
X65877500Y-70975000D01*
X69000000Y-81500000D02*
X69000000Y-74097500D01*
D65*
%TO.N,LED_DIN*%
X60732500Y-73265000D02*
X58312500Y-75685000D01*
X60732500Y-72495000D02*
X60732500Y-73265000D01*
%TO.N,LED_DIN_A*%
X59505300Y-70484400D02*
X59505300Y-70884900D01*
X60744800Y-69244900D02*
X59505300Y-70484400D01*
X68227400Y-69244900D02*
X60744800Y-69244900D01*
X59505300Y-70884900D02*
X58845200Y-71545000D01*
X58845200Y-71545000D02*
X58457500Y-71545000D01*
X69777500Y-70795000D02*
X68227400Y-69244900D01*
%TO.N,LED_DIN_J*%
X61110300Y-74712200D02*
X60137500Y-75685000D01*
X62146300Y-74712200D02*
X61110300Y-74712200D01*
%TO.N,LED_DIN_MCU*%
X57715000Y-19300000D02*
X57715000Y-18223300D01*
X66409800Y-69752900D02*
X64966200Y-69752900D01*
X67304300Y-70146800D02*
X66803600Y-70146800D01*
X67952500Y-70795000D02*
X67304300Y-70146800D01*
X58401400Y-18223300D02*
X58610900Y-18013800D01*
X66803600Y-70146800D02*
X66803600Y-70146700D01*
X57715000Y-18223300D02*
X58401400Y-18223300D01*
X66803600Y-70146700D02*
X66409800Y-69752900D01*
X64966200Y-69752900D02*
X64842600Y-69876500D01*
%TO.N,MCU_BOOT*%
X69835000Y-23086700D02*
X68906700Y-22158400D01*
X79964900Y-57760300D02*
X82841100Y-54884100D01*
X73377500Y-29459000D02*
X71673000Y-29459000D01*
X79964900Y-61600000D02*
X79964900Y-57760300D01*
X70441800Y-26064900D02*
X69835000Y-25458100D01*
X79964900Y-61600000D02*
X74850000Y-61600000D01*
X82841100Y-36969400D02*
X75330700Y-29459000D01*
X68906700Y-22158400D02*
X64858400Y-22158400D01*
X75330700Y-29459000D02*
X73377500Y-29459000D01*
X81150000Y-61600000D02*
X79964900Y-61600000D01*
X82841100Y-54884100D02*
X82841100Y-36969400D01*
X69835000Y-25458100D02*
X69835000Y-23086700D01*
X73377500Y-27785000D02*
X73377500Y-29459000D01*
X71673000Y-29459000D02*
X70441800Y-28227800D01*
X70441800Y-28227800D02*
X70441800Y-26064900D01*
X64858400Y-22158400D02*
X60750000Y-18050000D01*
%TO.N,MCU_EN*%
X69527500Y-27785000D02*
X69527500Y-28024500D01*
X68647100Y-22785100D02*
X68647100Y-23787100D01*
X68647100Y-23787100D02*
X68885000Y-24025000D01*
X81150000Y-54600000D02*
X82326700Y-54600000D01*
X81150000Y-54600000D02*
X74850000Y-54600000D01*
X69527500Y-27785000D02*
X68885000Y-27142500D01*
X73058700Y-31555700D02*
X76779600Y-31555700D01*
X82389400Y-54537300D02*
X82326700Y-54600000D01*
X43250000Y-4080000D02*
X59448500Y-4080000D01*
X69527500Y-28024500D02*
X73058700Y-31555700D01*
X82389400Y-37165500D02*
X82389400Y-54537300D01*
X68885000Y-27142500D02*
X68885000Y-24025000D01*
X76779600Y-31555700D02*
X82389400Y-37165500D01*
%TO.N,PG_3V3*%
X45062500Y-58435000D02*
X45368300Y-58435000D01*
X48279700Y-61346400D02*
X48279700Y-64663500D01*
X42640000Y-71096200D02*
X43587500Y-70148700D01*
X45368300Y-58435000D02*
X48279700Y-61346400D01*
X48279700Y-64663500D02*
X47227200Y-65716000D01*
X43587500Y-70148700D02*
X43587500Y-66800000D01*
X47227200Y-65716000D02*
X44671500Y-65716000D01*
X44671500Y-65716000D02*
X43587500Y-66800000D01*
%TO.N,PG_5V*%
X45062500Y-42635000D02*
X45365800Y-42635000D01*
X38721400Y-51863900D02*
X35762800Y-51863900D01*
X46477800Y-43747000D02*
X46477800Y-45467800D01*
X44634200Y-49953300D02*
X43587500Y-51000000D01*
X43587500Y-51000000D02*
X42496000Y-52091500D01*
X35762800Y-51863900D02*
X32665900Y-54960800D01*
X38949000Y-52091500D02*
X38721400Y-51863900D01*
X32665900Y-64114600D02*
X39647500Y-71096200D01*
X46305400Y-49953300D02*
X44634200Y-49953300D01*
X45365800Y-42635000D02*
X46477800Y-43747000D01*
X32665900Y-54960800D02*
X32665900Y-64114600D01*
X46477800Y-45467800D02*
X46477900Y-45467800D01*
X42496000Y-52091500D02*
X38949000Y-52091500D01*
%TO.N,PWR_LED_K*%
X41473800Y-74241300D02*
X42552500Y-75320000D01*
X39756200Y-74241300D02*
X41473800Y-74241300D01*
X38677500Y-75320000D02*
X39756200Y-74241300D01*
%TO.N,RAMP_3V3*%
X48578200Y-66600000D02*
X44555800Y-70622400D01*
X43092900Y-72214300D02*
X42210200Y-72214300D01*
X44555800Y-70751400D02*
X43092900Y-72214300D01*
X41143800Y-71147900D02*
X41143800Y-68393800D01*
X50050000Y-66600000D02*
X48578200Y-66600000D01*
X50823200Y-53400000D02*
X51782400Y-54359200D01*
X41143800Y-68393800D02*
X39550000Y-66800000D01*
X51782400Y-54359200D02*
X51782400Y-64867600D01*
X44555800Y-70622400D02*
X44555800Y-70751400D01*
X42210200Y-72214300D02*
X41143800Y-71147900D01*
X51782400Y-64867600D02*
X50050000Y-66600000D01*
X46612500Y-53400000D02*
X50823200Y-53400000D01*
%TO.N,RAMP_5V*%
X50783500Y-37600000D02*
X51464500Y-38281000D01*
X49101900Y-46858600D02*
X48780000Y-46536700D01*
X46612500Y-37600000D02*
X50783500Y-37600000D01*
X48780000Y-46536700D02*
X44057500Y-46536700D01*
X49101900Y-49851900D02*
X50050000Y-50800000D01*
X49101900Y-46858600D02*
X49101900Y-49851900D01*
X49458600Y-46501900D02*
X49101900Y-46858600D01*
X51464500Y-38281000D02*
X51464500Y-45740100D01*
X39550000Y-51000000D02*
X39550000Y-50986900D01*
X50702700Y-46501900D02*
X49458600Y-46501900D01*
X39550000Y-50986900D02*
X40630200Y-49906700D01*
X51464500Y-45740100D02*
X50702700Y-46501900D01*
%TO.N,RON_3V3*%
X37587500Y-62055000D02*
X37587500Y-64000000D01*
X39937500Y-59705000D02*
X37587500Y-62055000D01*
%TO.N,RON_5V*%
X37587500Y-48200000D02*
X39937500Y-45850000D01*
X39937500Y-45850000D02*
X39937500Y-43905000D01*
%TO.N,SD_CD*%
X78875000Y-35350000D02*
X78875000Y-34298300D01*
X61037500Y-35405000D02*
X61956800Y-34485700D01*
X62144200Y-34298300D02*
X78875000Y-34298300D01*
X48502500Y-12853100D02*
X54527700Y-12853100D01*
X45845600Y-15510000D02*
X48502500Y-12853100D01*
X61956800Y-34485700D02*
X61836900Y-34365800D01*
X61956800Y-34485700D02*
X62144200Y-34298300D01*
X43250000Y-15510000D02*
X45845600Y-15510000D01*
%TO.N,SD_CLK*%
X53905000Y-19300000D02*
X53905000Y-20376700D01*
X53905000Y-20376700D02*
X52474100Y-21807600D01*
X50612500Y-27023900D02*
X50612500Y-25947500D01*
X50465800Y-27170600D02*
X50612500Y-27023900D01*
X52474100Y-21807600D02*
X52474100Y-22989000D01*
%TO.N,SD_CLK_C*%
X71354200Y-50018500D02*
X63313100Y-58059600D01*
X52325800Y-54201500D02*
X50883800Y-52759500D01*
X63313100Y-58059600D02*
X58226700Y-58059600D01*
X50883800Y-52759500D02*
X49584200Y-52759500D01*
X71354200Y-40277500D02*
X71354200Y-50018500D01*
X57427800Y-58858600D02*
X57427700Y-58858600D01*
X57089400Y-61877600D02*
X54910700Y-61877600D01*
X57427700Y-61539300D02*
X57089400Y-61877600D01*
X54910700Y-61877600D02*
X52325800Y-59292700D01*
X52400800Y-27189800D02*
X52400800Y-25984200D01*
X52400800Y-25984200D02*
X52437500Y-25947500D01*
X70851700Y-39775000D02*
X71354200Y-40277500D01*
X58226700Y-58059700D02*
X57427800Y-58858600D01*
X69650000Y-39775000D02*
X70851700Y-39775000D01*
X57427700Y-58858600D02*
X57427700Y-61539300D01*
X52325800Y-59292700D02*
X52325800Y-54201500D01*
X58226700Y-58059600D02*
X58226700Y-58059700D01*
%TO.N,SD_CMD*%
X53024100Y-27835900D02*
X54912500Y-25947500D01*
X52635000Y-19300000D02*
X52635000Y-20376700D01*
X50386500Y-24636800D02*
X49753800Y-25269500D01*
X50170700Y-27835900D02*
X53024100Y-27835900D01*
X49753800Y-25269500D02*
X49753800Y-27419000D01*
X52635000Y-20376700D02*
X52538500Y-20376700D01*
X52538500Y-20376700D02*
X51570600Y-21344600D01*
X49753800Y-27419000D02*
X50170700Y-27835900D01*
%TO.N,SD_CMD_C*%
X52437500Y-32252500D02*
X54264000Y-30426000D01*
X70851700Y-44706700D02*
X70680300Y-44878100D01*
X55788700Y-26896300D02*
X56737500Y-25947500D01*
X69650000Y-41975000D02*
X70851700Y-41975000D01*
X54264000Y-30426000D02*
X55788700Y-30426000D01*
X55788700Y-30426000D02*
X55788700Y-26896300D01*
X70851700Y-41975000D02*
X70851700Y-44706700D01*
X70680300Y-44878100D02*
X58750500Y-44878100D01*
%TO.N,SD_D0*%
X58046700Y-24781700D02*
X51417700Y-24781700D01*
X51365000Y-19300000D02*
X51365000Y-20376700D01*
X59212500Y-25947500D02*
X58046700Y-24781700D01*
X50241600Y-24010100D02*
X49735300Y-23503800D01*
X51417700Y-24781700D02*
X50646100Y-24010100D01*
X49735300Y-21720700D02*
X51079300Y-20376700D01*
X51079300Y-20376700D02*
X51365000Y-20376700D01*
X49735300Y-23503800D02*
X49735300Y-21720700D01*
X50646100Y-24010100D02*
X50241600Y-24010100D01*
%TO.N,SD_D0_C*%
X60125000Y-28394000D02*
X61037500Y-27481500D01*
X56737500Y-31725200D02*
X57860300Y-30602400D01*
X68448300Y-37575000D02*
X68157400Y-37284100D01*
X68157400Y-37284100D02*
X62066400Y-37284100D01*
X60125000Y-30602400D02*
X61210100Y-30602400D01*
X57860300Y-30602400D02*
X60125000Y-30602400D01*
X69650000Y-37575000D02*
X68448300Y-37575000D01*
X60125000Y-30602400D02*
X60125000Y-28394000D01*
X56737500Y-32252500D02*
X56737500Y-31725200D01*
X61037500Y-27481500D02*
X61037500Y-25947500D01*
%TO.N,SD_D1*%
X49282100Y-27769600D02*
X50612500Y-29100000D01*
X50095000Y-20376700D02*
X49282100Y-21189600D01*
X50095000Y-19300000D02*
X50095000Y-20376700D01*
X49282100Y-21189600D02*
X49282100Y-27769600D01*
%TO.N,SD_D1_C*%
X61037500Y-32389800D02*
X60069800Y-33357500D01*
X56966000Y-37244200D02*
X54984000Y-37244200D01*
X69650000Y-36475000D02*
X68448300Y-36475000D01*
X60945000Y-36475000D02*
X60785100Y-36634900D01*
X58968900Y-39247100D02*
X56966000Y-37244200D01*
X53767800Y-27769700D02*
X52437500Y-29100000D01*
X61037500Y-32252500D02*
X61037500Y-32389800D01*
X68448300Y-36475000D02*
X60945000Y-36475000D01*
X54984000Y-27769700D02*
X53767800Y-27769700D01*
%TO.N,SD_D2*%
X48825000Y-28901500D02*
X50081500Y-30158000D01*
X53854500Y-30158000D02*
X54912500Y-29100000D01*
X48825000Y-19300000D02*
X48825000Y-20376700D01*
X48825000Y-20376700D02*
X48825000Y-28901500D01*
X50081500Y-30158000D02*
X53854500Y-30158000D01*
%TO.N,SD_D2_C*%
X60118700Y-39497800D02*
X57108700Y-36487800D01*
X64157100Y-44175000D02*
X60118700Y-40136600D01*
X57108700Y-36487800D02*
X53704300Y-36487800D01*
X60118700Y-40136600D02*
X60118700Y-39497800D01*
X52621500Y-35405000D02*
X52437500Y-35405000D01*
X59807800Y-27824900D02*
X58012600Y-27824900D01*
X69650000Y-44175000D02*
X64157100Y-44175000D01*
X58012600Y-27824900D02*
X56737500Y-29100000D01*
X53704300Y-36487800D02*
X52621500Y-35405000D01*
%TO.N,SD_D3*%
X50428300Y-17395400D02*
X56900000Y-17395400D01*
X47555000Y-19300000D02*
X47555000Y-18223300D01*
X59212500Y-29100000D02*
X59100400Y-29100000D01*
X59100400Y-29100000D02*
X58260800Y-29939600D01*
X56900000Y-17395400D02*
X57252200Y-17747600D01*
X47555000Y-18223300D02*
X49600400Y-18223300D01*
X49600400Y-18223300D02*
X50428300Y-17395400D01*
%TO.N,SD_D3_C*%
X57844200Y-34298300D02*
X56737500Y-35405000D01*
X64407500Y-43075000D02*
X69650000Y-43075000D01*
X60521200Y-34298300D02*
X57844200Y-34298300D01*
X61037500Y-29100000D02*
X61909200Y-29971700D01*
X56737500Y-35405000D02*
X64407500Y-43075000D01*
X61909200Y-29971700D02*
X61909200Y-32910300D01*
X61909200Y-32910300D02*
X60521200Y-34298300D01*
%TO.N,SD_EN_G*%
X67350800Y-50666300D02*
X67350800Y-52436700D01*
X59812500Y-56805000D02*
X61249800Y-55367700D01*
X67350800Y-52436700D02*
X65487500Y-54300000D01*
X61249800Y-55367700D02*
X64419800Y-55367700D01*
X64387500Y-50095000D02*
X66779500Y-50095000D01*
X66779500Y-50095000D02*
X67350800Y-50666300D01*
X64419800Y-55367700D02*
X65487500Y-54300000D01*
%TO.N,SD_PG*%
X61637500Y-52976600D02*
X59582400Y-52976600D01*
X58971100Y-52365300D02*
X58971100Y-51161400D01*
X66262500Y-51045000D02*
X63569100Y-51045000D01*
X61637500Y-52976600D02*
X61637500Y-54300000D01*
X59582400Y-52976600D02*
X58971100Y-52365300D01*
X63569100Y-51045000D02*
X61637500Y-52976600D01*
X58971100Y-51161400D02*
X60037500Y-50095000D01*
%TO.N,SD_PWR_EN*%
X43250000Y-9160000D02*
X44326700Y-9160000D01*
X44326700Y-9160000D02*
X46703400Y-11536700D01*
X63294600Y-53033600D02*
X63662500Y-53401500D01*
X46703400Y-11536700D02*
X54863100Y-11536700D01*
X56241900Y-10157900D02*
X56592100Y-10157900D01*
X63662500Y-53401500D02*
X63662500Y-54300000D01*
X54863100Y-11536700D02*
X56241900Y-10157900D01*
D63*
%TO.N,SD_VDD*%
X52083600Y-24008600D02*
X55836600Y-24008600D01*
X54912500Y-33433100D02*
X58031900Y-33433100D01*
X50633300Y-33828700D02*
X54912500Y-33828700D01*
X56135000Y-22425000D02*
X55836600Y-22723400D01*
X50633300Y-33828700D02*
X50633300Y-32273300D01*
X54912500Y-32252500D02*
X54912500Y-33433100D01*
X50633300Y-32273300D02*
X50612500Y-32252500D01*
X69650000Y-40875000D02*
X68323300Y-40875000D01*
X55836600Y-22723400D02*
X55836600Y-24008600D01*
X59212500Y-32252500D02*
X58431700Y-31471700D01*
X61912500Y-51045000D02*
X61912500Y-49331300D01*
X61912500Y-49331300D02*
X57781200Y-45200000D01*
X61912500Y-49331300D02*
X67770300Y-49331300D01*
X58031900Y-33433100D02*
X59212500Y-32252500D01*
X50612500Y-33849500D02*
X50633300Y-33828700D01*
X54912500Y-33828700D02*
X54912500Y-35405000D01*
X58431700Y-31471700D02*
X58060200Y-31471700D01*
X68209500Y-40761200D02*
X68323300Y-40875000D01*
X67770300Y-40761200D02*
X68209500Y-40761200D01*
X50670000Y-22595000D02*
X52083600Y-24008600D01*
X50612500Y-35405000D02*
X50612500Y-33849500D01*
X54912500Y-33433100D02*
X54912500Y-33828700D01*
D65*
%TO.N,SPI_CS*%
X62903700Y-30326200D02*
X62903700Y-25361300D01*
X56243900Y-18022200D02*
X56445000Y-18223300D01*
X57919100Y-20376700D02*
X56445000Y-20376700D01*
X56445000Y-18761600D02*
X56445000Y-18223300D01*
X56445000Y-18761600D02*
X56445000Y-19300000D01*
X62903700Y-25361300D02*
X57919100Y-20376700D01*
X56445000Y-19300000D02*
X56445000Y-20376700D01*
X50718000Y-18022200D02*
X56243900Y-18022200D01*
X63812500Y-31235000D02*
X62903700Y-30326200D01*
%TO.N,SPI_MISO*%
X53425200Y-7184300D02*
X52738900Y-6498000D01*
X53425200Y-7264100D02*
X53425200Y-7184300D01*
X52738900Y-6498000D02*
X46749800Y-6498000D01*
X59673300Y-9160000D02*
X55321100Y-9160000D01*
X46749800Y-6498000D02*
X45033700Y-8214100D01*
X60750000Y-9160000D02*
X59673300Y-9160000D01*
X55321100Y-9160000D02*
X53425200Y-7264100D01*
%TO.N,SPI_MOSI*%
X54769700Y-7890000D02*
X52926000Y-6046300D01*
X44856900Y-6046300D02*
X44620300Y-5809700D01*
X60750000Y-7890000D02*
X54769700Y-7890000D01*
X52926000Y-6046300D02*
X44856900Y-6046300D01*
%TO.N,SPI_SCK*%
X58873000Y-10784600D02*
X56365200Y-10784600D01*
X60750000Y-10430000D02*
X59673300Y-10430000D01*
X56365200Y-10784600D02*
X54923400Y-12226400D01*
X59673300Y-10430000D02*
X59227600Y-10430000D01*
X59227600Y-10430000D02*
X58873000Y-10784600D01*
X54923400Y-12226400D02*
X44513700Y-12226400D01*
D63*
%TO.N,SW_3V3*%
X42950000Y-53400000D02*
X44787500Y-53400000D01*
X44787500Y-55620000D02*
X45062500Y-55895000D01*
X45062500Y-55895000D02*
X50000000Y-57800000D01*
X44787500Y-53400000D02*
X44787500Y-55620000D01*
%TO.N,SW_5V*%
X44787500Y-39820000D02*
X45062500Y-40095000D01*
X42950000Y-37600000D02*
X44787500Y-37600000D01*
X44787500Y-37600000D02*
X44787500Y-39820000D01*
X45062500Y-40095000D02*
X50000000Y-42000000D01*
D65*
%TO.N,TERM_A*%
X11845000Y-45401700D02*
X11845000Y-46672500D01*
X11845000Y-46672500D02*
X10312500Y-48205000D01*
%TO.N,UART_RX*%
X60750000Y-6620000D02*
X55808100Y-6620000D01*
%TO.N,UART_TX*%
X59673300Y-5350000D02*
X59617600Y-5405700D01*
X60750000Y-5350000D02*
X59673300Y-5350000D01*
X59617600Y-5405700D02*
X52548800Y-5405700D01*
D66*
%TO.N,USB_CC1*%
X73348200Y-18680100D02*
X67707600Y-18680100D01*
X75805000Y-17250000D02*
X74778300Y-17250000D01*
X74778300Y-17250000D02*
X73348200Y-18680100D01*
X67707600Y-18680100D02*
X66702500Y-17675000D01*
%TO.N,USB_CC2*%
X73977500Y-14250000D02*
X75805000Y-14250000D01*
X70552500Y-17675000D02*
X73977500Y-14250000D01*
D65*
%TO.N,USB_DM*%
X44326700Y-16780000D02*
X44400200Y-16853500D01*
X62283600Y-12492800D02*
X63706200Y-12492800D01*
X65232500Y-10966500D02*
X65232500Y-10695000D01*
X63706200Y-12492800D02*
X65232500Y-10966500D01*
X44400200Y-16853500D02*
X49053800Y-16853500D01*
X49415300Y-16492000D02*
X59142700Y-16492000D01*
X49053800Y-16853500D02*
X49415300Y-16492000D01*
X43250000Y-16780000D02*
X44326700Y-16780000D01*
%TO.N,USB_DM_CON*%
X62518900Y-10695000D02*
X62957500Y-10695000D01*
X61913200Y-10089300D02*
X62518900Y-10695000D01*
X63395600Y-7015000D02*
X61913200Y-8497400D01*
X78661400Y-11189100D02*
X74487300Y-7015000D01*
X76856700Y-15751500D02*
X77016100Y-15751500D01*
X75805000Y-16750000D02*
X76856700Y-16750000D01*
X76856700Y-15751500D02*
X76855200Y-15750000D01*
X78661400Y-14106200D02*
X78661400Y-11189100D01*
X61913200Y-8497400D02*
X61913200Y-10089300D01*
X77016100Y-15751500D02*
X78661400Y-14106200D01*
X74487300Y-7015000D02*
X63395600Y-7015000D01*
X76856700Y-16750000D02*
X76856700Y-15751500D01*
X75805000Y-15750000D02*
X76855200Y-15750000D01*
%TO.N,USB_DP*%
X66109100Y-7918400D02*
X68715100Y-7918400D01*
X48770900Y-13488600D02*
X54778500Y-13488600D01*
X57024700Y-11242300D02*
X59301500Y-11242300D01*
X57024700Y-11242400D02*
X57024700Y-11242300D01*
X43250000Y-18050000D02*
X43250000Y-18266400D01*
X69647600Y-9589800D02*
X69647700Y-9589800D01*
X54778500Y-13488600D02*
X57024700Y-11242400D01*
X68715100Y-7918400D02*
X69647600Y-8850900D01*
X65232500Y-8795000D02*
X66109100Y-7918400D01*
X69647600Y-8850900D02*
X69647600Y-9589800D01*
X43250000Y-18266400D02*
X44022100Y-19038500D01*
X46484400Y-15775100D02*
X48770900Y-13488600D01*
%TO.N,USB_DP_CON*%
X78207700Y-13899000D02*
X78207700Y-11447100D01*
X76330900Y-15250000D02*
X75805000Y-15250000D01*
X75805000Y-16250000D02*
X74753300Y-16250000D01*
X78207700Y-11447100D02*
X74227300Y-7466700D01*
X74227300Y-7466700D02*
X64285800Y-7466700D01*
X64285800Y-7466700D02*
X62957500Y-8795000D01*
X74753300Y-16250000D02*
X74753300Y-15250000D01*
X76856700Y-15250000D02*
X78207700Y-13899000D01*
X76330900Y-15250000D02*
X76856700Y-15250000D01*
X75805000Y-15250000D02*
X74753300Y-15250000D01*
D63*
%TO.N,VBAT_F*%
X22335000Y-65957500D02*
X18544900Y-69747600D01*
X18544900Y-69747600D02*
X17833200Y-69747600D01*
X20190000Y-71392700D02*
X24213100Y-71392700D01*
X22335000Y-64611700D02*
X22335000Y-65957500D01*
X18544900Y-69747600D02*
X20190000Y-71392700D01*
X24213100Y-71392700D02*
X25697500Y-69908300D01*
X17833200Y-69747600D02*
X17602500Y-69978300D01*
%TO.N,VBAT_FB*%
X9995000Y-73675000D02*
X11372300Y-75052300D01*
X23635000Y-62507200D02*
X24043200Y-62915400D01*
X11372300Y-75052300D02*
X13537700Y-75052300D01*
X24043200Y-68182800D02*
X22548000Y-68182800D01*
X29625600Y-69741600D02*
X24560400Y-74806800D01*
X13902500Y-74687500D02*
X13902500Y-73645000D01*
X9374800Y-68736900D02*
X8242100Y-69869600D01*
X13537700Y-75052300D02*
X13902500Y-74687500D01*
X14021800Y-74806800D02*
X13902500Y-74687500D01*
X24043200Y-62915400D02*
X24043200Y-68182800D01*
X29625600Y-69741600D02*
X28066800Y-68182800D01*
X28066800Y-68182800D02*
X24043200Y-68182800D01*
X29700800Y-69741600D02*
X29717500Y-69758300D01*
X8242100Y-69869600D02*
X8242100Y-71922100D01*
X16895000Y-64761700D02*
X19149500Y-62507200D01*
X12432500Y-69528300D02*
X11641100Y-68736900D01*
X22548000Y-68182800D02*
X20752500Y-69978300D01*
X8242100Y-71922100D02*
X9995000Y-73675000D01*
X11641100Y-68736900D02*
X9374800Y-68736900D01*
X29625600Y-69741600D02*
X29700800Y-69741600D01*
X10595000Y-64761700D02*
X16895000Y-64761700D01*
X19149500Y-62507200D02*
X23635000Y-62507200D01*
X24560400Y-74806800D02*
X14021800Y-74806800D01*
%TO.N,VBAT_IN*%
X22897500Y-69908300D02*
X24302300Y-69908300D01*
D65*
%TO.N,VBAT_SNS*%
X52973500Y-7371400D02*
X52973500Y-7723000D01*
X52551800Y-6949700D02*
X52973500Y-7371400D01*
X48227500Y-75320000D02*
X48011600Y-75104100D01*
X44326700Y-8421300D02*
X44777500Y-8872100D01*
X45332300Y-8872100D02*
X47254700Y-6949700D01*
X36912500Y-71545000D02*
X36912500Y-73049000D01*
X36912500Y-73049000D02*
X46998200Y-73049000D01*
X44326700Y-7890000D02*
X44326700Y-8421300D01*
X36912500Y-73049000D02*
X36912500Y-73232500D01*
X48011600Y-75104100D02*
X48011600Y-74062400D01*
X44777500Y-8872100D02*
X45332300Y-8872100D01*
X43250000Y-7890000D02*
X44326700Y-7890000D01*
X46998200Y-73049000D02*
X48011600Y-74062400D01*
X34812500Y-75367500D02*
X34795000Y-75350000D01*
X47254700Y-6949700D02*
X52551800Y-6949700D01*
X36912500Y-73232500D02*
X34795000Y-75350000D01*
X34812500Y-78405000D02*
X34812500Y-75367500D01*
X52973500Y-7723000D02*
X53175500Y-7925000D01*
%TO.N,VBAT_UVLO*%
X14666700Y-72584200D02*
X15727500Y-73645000D01*
X11313400Y-72584200D02*
X14666700Y-72584200D01*
X17752500Y-73645000D02*
X15727500Y-73645000D01*
X10157500Y-71428300D02*
X11313400Y-72584200D01*
D63*
%TO.N,VBUS*%
X65232500Y-9745000D02*
X66061900Y-9745000D01*
X69735600Y-12923100D02*
X70877500Y-14065000D01*
X69735600Y-10654100D02*
X69735600Y-12923100D01*
X69343500Y-15599000D02*
X64039300Y-15599000D01*
X70877500Y-14065000D02*
X69343500Y-15599000D01*
X64039300Y-15599000D02*
X64039300Y-16460700D01*
X69735600Y-10654100D02*
X70635000Y-9754700D01*
X64039300Y-15254300D02*
X64039300Y-15599000D01*
X62870000Y-14085000D02*
X64039300Y-15254300D01*
X70635000Y-9754700D02*
X70635000Y-9195000D01*
X66061900Y-9745000D02*
X66971000Y-10654100D01*
X66971000Y-10654100D02*
X69735600Y-10654100D01*
X64039300Y-16460700D02*
X62795000Y-17705000D01*
%TO.N,VBUS_IN*%
X66368400Y-12480900D02*
X65961100Y-12480900D01*
X75805000Y-18450000D02*
X74556400Y-18450000D01*
X74556400Y-18450000D02*
X73749800Y-19256600D01*
X73749800Y-19256600D02*
X66684000Y-19256600D01*
X73805000Y-13500000D02*
X75105000Y-13500000D01*
X67952500Y-14065000D02*
X66368400Y-12480900D01*
D65*
%TO.N,VCAP*%
X25510100Y-72065700D02*
X27817500Y-69758300D01*
X10621200Y-69528300D02*
X11265600Y-70172700D01*
X10157500Y-69528300D02*
X10621200Y-69528300D01*
X11265600Y-70172700D02*
X11265600Y-71599000D01*
X11732300Y-72065700D02*
X25510100Y-72065700D01*
X11265600Y-71599000D02*
X11732300Y-72065700D01*
D63*
%TO.N,VSENS_F*%
X28860000Y-76375000D02*
X25820700Y-79414300D01*
X22841100Y-81397900D02*
X11325400Y-81397900D01*
X25820700Y-79414300D02*
X24824700Y-79414300D01*
X24824700Y-79414300D02*
X22841100Y-81397900D01*
X11325400Y-81397900D02*
X10232500Y-80305000D01*
%TD*%
M02*
