%TF.GenerationSoftware,KiCad,Pcbnew,9.0.5*%
%TF.CreationDate,2026-08-11T21:54:40-04:00*%
%TF.ProjectId,esp32s3-can-sd-logger,65737033-3273-4332-9d63-616e2d73642d,rev?*%
%TF.SameCoordinates,Original*%
%TF.FileFunction,Copper,L4,Bot*%
%TF.FilePolarity,Positive*%
%FSLAX46Y46*%
G04 Gerber Fmt 4.6, Leading zero omitted, Abs format (unit mm)*
G04 Created by KiCad (PCBNEW 9.0.5) date 2026-08-11 21:54:40*
%MOMM*%
%LPD*%
G01*
G04 APERTURE LIST*
G04 Aperture macros list*
%AMRoundRect*
0 Rectangle with rounded corners*
0 $1 Rounding radius*
0 $2 $3 $4 $5 $6 $7 $8 $9 X,Y pos of 4 corners*
0 Add a 4 corners polygon primitive as box body*
4,1,4,$2,$3,$4,$5,$6,$7,$8,$9,$2,$3,0*
0 Add four circle primitives for the rounded corners*
1,1,$1+$1,$2,$3*
1,1,$1+$1,$4,$5*
1,1,$1+$1,$6,$7*
1,1,$1+$1,$8,$9*
0 Add four rect primitives between the rounded corners*
20,1,$1+$1,$2,$3,$4,$5,0*
20,1,$1+$1,$4,$5,$6,$7,0*
20,1,$1+$1,$6,$7,$8,$9,0*
20,1,$1+$1,$8,$9,$2,$3,0*%
G04 Aperture macros list end*
%TA.AperFunction,ComponentPad*%
%ADD10R,1.700000X1.700000*%
%TD*%
%TA.AperFunction,ComponentPad*%
%ADD11C,1.700000*%
%TD*%
%TA.AperFunction,HeatsinkPad*%
%ADD12C,0.500000*%
%TD*%
%TA.AperFunction,HeatsinkPad*%
%ADD13R,1.800000X4.400000*%
%TD*%
%TA.AperFunction,ComponentPad*%
%ADD14RoundRect,0.250000X-0.625000X0.350000X-0.625000X-0.350000X0.625000X-0.350000X0.625000X0.350000X0*%
%TD*%
%TA.AperFunction,ComponentPad*%
%ADD15O,1.750000X1.200000*%
%TD*%
%TA.AperFunction,HeatsinkPad*%
%ADD16O,2.100000X1.000000*%
%TD*%
%TA.AperFunction,HeatsinkPad*%
%ADD17O,1.600000X1.000000*%
%TD*%
%TA.AperFunction,HeatsinkPad*%
%ADD18C,0.600000*%
%TD*%
%TA.AperFunction,ViaPad*%
%ADD19C,0.600000*%
%TD*%
%TA.AperFunction,ViaPad*%
%ADD20C,0.800000*%
%TD*%
%TA.AperFunction,ViaPad*%
%ADD21C,0.500000*%
%TD*%
%TA.AperFunction,Conductor*%
%ADD22C,0.550000*%
%TD*%
%TA.AperFunction,Conductor*%
%ADD23C,0.250000*%
%TD*%
%TA.AperFunction,Conductor*%
%ADD24C,0.200000*%
%TD*%
G04 APERTURE END LIST*
D10*
%TO.P,J3,1*%
%TO.N,+3V3*%
X26000000Y-97500000D03*
D11*
%TO.P,J3,2*%
%TO.N,UART_TX*%
X28540000Y-97500000D03*
%TO.P,J3,3*%
%TO.N,UART_RX*%
X31080000Y-97500000D03*
%TO.P,J3,4*%
%TO.N,GND*%
X33620000Y-97500000D03*
%TD*%
D10*
%TO.P,J7,1*%
%TO.N,IO3*%
X10000000Y-3000000D03*
D11*
%TO.P,J7,2*%
%TO.N,IO45*%
X12540000Y-3000000D03*
%TO.P,J7,3*%
%TO.N,IO46*%
X15080000Y-3000000D03*
%TO.P,J7,4*%
%TO.N,PWR_FAIL*%
X17620000Y-3000000D03*
%TO.P,J7,5*%
%TO.N,SENS_EN*%
X20160000Y-3000000D03*
%TO.P,J7,6*%
%TO.N,GND*%
X22700000Y-3000000D03*
%TD*%
D12*
%TO.P,U3,9*%
%TO.N,GND*%
X41850000Y-40050000D03*
X41850000Y-41350000D03*
X41850000Y-42650000D03*
X41850000Y-43950000D03*
D13*
X42500000Y-42000000D03*
D12*
X43150000Y-40050000D03*
X43150000Y-41350000D03*
X43150000Y-42650000D03*
X43150000Y-43950000D03*
%TD*%
D14*
%TO.P,J1,1*%
%TO.N,VBAT_IN*%
X5000000Y-50000000D03*
D15*
%TO.P,J1,2*%
%TO.N,GND*%
X5000000Y-52000000D03*
%TO.P,J1,3*%
%TO.N,CAN_H*%
X5000000Y-54000000D03*
%TO.P,J1,4*%
%TO.N,CAN_L*%
X5000000Y-56000000D03*
%TD*%
D10*
%TO.P,J5,1*%
%TO.N,+3V3*%
X27500000Y-3000000D03*
D11*
%TO.P,J5,2*%
%TO.N,GND*%
X30040000Y-3000000D03*
%TO.P,J5,3*%
%TO.N,SPI_SCK*%
X32580000Y-3000000D03*
%TO.P,J5,4*%
%TO.N,SPI_MISO*%
X35120000Y-3000000D03*
%TO.P,J5,5*%
%TO.N,SPI_MOSI*%
X37660000Y-3000000D03*
%TO.P,J5,6*%
%TO.N,SPI_CS*%
X40200000Y-3000000D03*
%TD*%
D16*
%TO.P,J2,S1*%
%TO.N,GND*%
X76720000Y-20320000D03*
D17*
X80900000Y-20320000D03*
D16*
X76720000Y-11680000D03*
D17*
X80900000Y-11680000D03*
%TD*%
D10*
%TO.P,J8,1*%
%TO.N,+5V*%
X56000000Y-97500000D03*
D11*
%TO.P,J8,2*%
%TO.N,+3V3*%
X58540000Y-97500000D03*
%TO.P,J8,3*%
%TO.N,GND*%
X61080000Y-97500000D03*
%TO.P,J8,4*%
X63620000Y-97500000D03*
%TD*%
D14*
%TO.P,J10,1*%
%TO.N,+5VS*%
X5000000Y-18000000D03*
D15*
%TO.P,J10,2*%
%TO.N,AIN1_IN*%
X5000000Y-20000000D03*
%TO.P,J10,3*%
%TO.N,AIN2_IN*%
X5000000Y-22000000D03*
%TO.P,J10,4*%
%TO.N,AIN3_IN*%
X5000000Y-24000000D03*
%TO.P,J10,5*%
%TO.N,AIN4_IN*%
X5000000Y-26000000D03*
%TO.P,J10,6*%
%TO.N,GND*%
X5000000Y-28000000D03*
%TO.P,J10,7*%
X5000000Y-30000000D03*
%TO.P,J10,8*%
%TO.N,+5VS*%
X5000000Y-32000000D03*
%TD*%
D10*
%TO.P,J6,1*%
%TO.N,LED_5V*%
X69000000Y-97500000D03*
D11*
%TO.P,J6,2*%
%TO.N,LED_DIN_J*%
X71540000Y-97500000D03*
%TO.P,J6,3*%
%TO.N,GND*%
X74080000Y-97500000D03*
%TD*%
D12*
%TO.P,U4,9*%
%TO.N,GND*%
X41850000Y-55850000D03*
X41850000Y-57150000D03*
X41850000Y-58450000D03*
X41850000Y-59750000D03*
D13*
X42500000Y-57800000D03*
D12*
X43150000Y-55850000D03*
X43150000Y-57150000D03*
X43150000Y-58450000D03*
X43150000Y-59750000D03*
%TD*%
D10*
%TO.P,J4,1*%
%TO.N,GND*%
X41000000Y-97500000D03*
D11*
%TO.P,J4,2*%
%TO.N,+3V3*%
X43540000Y-97500000D03*
%TO.P,J4,3*%
%TO.N,I2C_SDA*%
X46080000Y-97500000D03*
%TO.P,J4,4*%
%TO.N,I2C_SCL*%
X48620000Y-97500000D03*
%TD*%
D18*
%TO.P,U5,41*%
%TO.N,GND*%
X49100000Y-8560000D03*
X49100000Y-9960000D03*
X49800000Y-7860000D03*
X49800000Y-9260000D03*
X49800000Y-10660000D03*
X50500000Y-8560000D03*
X50500000Y-9960000D03*
X51200000Y-7860000D03*
X51200000Y-9260000D03*
X51200000Y-10660000D03*
X51900000Y-8560000D03*
X51900000Y-9960000D03*
%TD*%
D19*
%TO.N,+3V3*%
X67695000Y-35745000D03*
X46425000Y-66800000D03*
X59718700Y-36444200D03*
X60318800Y-55339200D03*
X56416000Y-66812500D03*
X35818800Y-77560900D03*
X46093800Y-65039200D03*
X54907700Y-75985000D03*
X64661000Y-30312500D03*
X68208800Y-30709200D03*
X20275000Y-14570000D03*
X49650000Y-30795000D03*
X75868700Y-33444200D03*
X14951000Y-45744200D03*
X46425000Y-51000000D03*
X11775000Y-14570000D03*
X52950000Y-66600000D03*
X61275000Y-51995000D03*
X44661000Y-35587500D03*
X67695000Y-39846700D03*
X72058700Y-30709200D03*
X36875000Y-14570000D03*
X56100000Y-63600000D03*
X51100000Y-63600000D03*
X72018700Y-33444200D03*
X69295000Y-25695000D03*
X56595000Y-78835000D03*
X17195000Y-38650000D03*
X82050000Y-32405000D03*
X57600000Y-57800000D03*
X28775000Y-14570000D03*
X49775000Y-72195000D03*
X44500000Y-2810000D03*
X34750000Y-68200000D03*
X77991000Y-26137500D03*
D20*
%TO.N,+5V*%
X58618000Y-57216500D03*
X42668000Y-72627900D03*
X46217900Y-76177800D03*
X64071300Y-19039100D03*
%TO.N,+5VS*%
X19154700Y-20407700D03*
X6375000Y-32000000D03*
X6375000Y-18000000D03*
X31240200Y-66357500D03*
X27700600Y-20437700D03*
X34472200Y-21918500D03*
D19*
%TO.N,+VBAT*%
X37675000Y-46750000D03*
X37250000Y-56350000D03*
%TO.N,AIN1*%
X52825300Y-15525800D03*
X23129600Y-11426500D03*
X46248600Y-28303700D03*
X50831300Y-12680700D03*
%TO.N,AIN2*%
X41776300Y-15912500D03*
X57983900Y-9220100D03*
X25137000Y-13432900D03*
%TO.N,AIN2_IN*%
X20616000Y-19893700D03*
%TO.N,AIN2_R2*%
X23609000Y-27226500D03*
X21852000Y-23042800D03*
%TO.N,AIN3_IN*%
X29167500Y-23453000D03*
X25388800Y-21391200D03*
%TO.N,AIN3_R2*%
X31162500Y-30599600D03*
X31154600Y-18275000D03*
%TO.N,AIN4*%
X46885900Y-31432100D03*
X35497500Y-27430700D03*
X41329700Y-29940000D03*
X40858500Y-24158800D03*
X40716000Y-27430700D03*
%TO.N,AIN4_IN*%
X38417500Y-20539400D03*
X33803400Y-18629800D03*
%TO.N,BST_3V3*%
X46276100Y-57775300D03*
X41969900Y-54319900D03*
%TO.N,BST_5V*%
X41956000Y-38506000D03*
X46465000Y-41533100D03*
%TO.N,CAN_L*%
X14260800Y-38021700D03*
%TO.N,CAN_RX*%
X41292000Y-19757000D03*
X18232900Y-40155700D03*
%TO.N,CAN_S*%
X14283400Y-35605900D03*
X21382200Y-43763000D03*
X10343400Y-33859900D03*
X49528300Y-11879800D03*
%TO.N,CAN_TX*%
X13197500Y-34735900D03*
X40461700Y-19538700D03*
%TO.N,EN_3V3*%
X38537400Y-58133200D03*
X39843700Y-55059900D03*
%TO.N,EN_5V*%
X38508300Y-42235900D03*
X38299800Y-39788100D03*
%TO.N,GATE_RB*%
X13585800Y-68348600D03*
X10595000Y-63605900D03*
%TO.N,GND*%
X21650000Y-32005000D03*
X58695000Y-78835000D03*
X30061000Y-26037500D03*
X59050000Y-63600000D03*
X54695000Y-22595000D03*
X82650000Y-77000000D03*
X35800000Y-45100000D03*
X34000000Y-32005000D03*
X7516000Y-38012500D03*
X30150000Y-32005000D03*
X13061000Y-26037500D03*
D21*
X68660000Y-9745000D03*
D19*
X25295000Y-8795000D03*
X36450000Y-55700000D03*
X74590000Y-19565000D03*
X13150000Y-32005000D03*
X44500000Y-1540000D03*
X75805000Y-20050000D03*
X76200000Y-58400000D03*
X59035000Y-22425000D03*
X36875000Y-12670000D03*
X65650000Y-22315000D03*
X40425000Y-64000000D03*
X38735900Y-56295000D03*
X44425000Y-48200000D03*
X66561000Y-30312500D03*
X71025000Y-38675000D03*
X46250000Y-21795000D03*
X48295000Y-86595000D03*
X36216000Y-42812500D03*
X41795000Y-82795000D03*
X63095000Y-35745000D03*
X16851000Y-45744200D03*
X35800000Y-60900000D03*
X51061000Y-76027500D03*
X74580000Y-12750000D03*
X72085000Y-16975000D03*
X53906000Y-48500000D03*
X50464300Y-88895000D03*
X20741000Y-45744200D03*
X45250000Y-30795000D03*
X81725000Y-46575000D03*
X16560500Y-42498300D03*
X54864300Y-79435000D03*
X12761000Y-74287500D03*
X41895000Y-8795000D03*
X38250000Y-32005000D03*
X38650000Y-70745000D03*
X42000000Y-79005000D03*
X40425000Y-48200000D03*
X50716000Y-85112500D03*
X62000000Y-1540000D03*
X33795000Y-8795000D03*
X65625000Y-51995000D03*
X28775000Y-12670000D03*
X45475000Y-71695000D03*
X58890000Y-75385000D03*
X25500000Y-32005000D03*
X46250000Y-24600000D03*
X78240000Y-29670000D03*
X53906000Y-64300000D03*
X70611000Y-20207500D03*
X20275000Y-12670000D03*
X12245000Y-36110000D03*
X58450000Y-66200000D03*
X44425000Y-64000000D03*
X82500000Y-58400000D03*
X59050000Y-47800000D03*
X36216000Y-58612500D03*
X24285000Y-41798300D03*
X31150000Y-83500000D03*
X20590000Y-73645000D03*
X38061000Y-74620800D03*
X45250000Y-29795000D03*
D21*
X64070000Y-9745000D03*
D19*
X39251000Y-86885000D03*
X8995000Y-70478300D03*
X17000000Y-32005000D03*
X60382500Y-70796200D03*
X45890000Y-73978300D03*
X80025000Y-25525000D03*
X36450000Y-39900000D03*
X46695000Y-34975000D03*
X30885000Y-64611700D03*
X70364300Y-33005000D03*
X38735900Y-40495000D03*
X72101000Y-26395000D03*
X21561000Y-26037500D03*
X58450000Y-50400000D03*
X49775000Y-70295000D03*
X63095000Y-39846700D03*
X46250000Y-27405000D03*
X16795000Y-8795000D03*
X66984200Y-26645000D03*
X42100000Y-32005000D03*
X62650000Y-56805000D03*
X38161000Y-26037500D03*
X76001000Y-26137500D03*
X22795000Y-55245000D03*
X11775000Y-12670000D03*
X76200000Y-65400000D03*
X82500000Y-65400000D03*
X24720000Y-45101700D03*
%TO.N,I2C_SCL*%
X48250300Y-25794300D03*
X73758100Y-37017400D03*
X58312400Y-16633600D03*
X73769800Y-55648100D03*
%TO.N,I2C_SDA*%
X47358800Y-22521700D03*
X60682800Y-74881400D03*
X58939100Y-15918000D03*
X71686600Y-35136500D03*
%TO.N,IO3*%
X43122700Y-19327800D03*
%TO.N,IO45*%
X56917500Y-15494900D03*
X43412500Y-23011100D03*
%TO.N,IO46*%
X45055000Y-17703000D03*
%TO.N,LED_DIN_MCU*%
X58136000Y-20836300D03*
X72409000Y-37493800D03*
%TO.N,MCU_BOOT*%
X81150000Y-62600000D03*
X62818400Y-23719900D03*
X72198700Y-28529400D03*
X74850000Y-62600000D03*
%TO.N,MCU_EN*%
X74850000Y-55600000D03*
X81150000Y-55600000D03*
X44638500Y-3947000D03*
%TO.N,PG_5V*%
X44523200Y-51896400D03*
X46277300Y-46041100D03*
%TO.N,PWR_FAIL*%
X36282400Y-67412600D03*
X39794500Y-11355200D03*
X39794500Y-18166400D03*
%TO.N,RAMP_3V3*%
X46612500Y-55196300D03*
X48279300Y-62176700D03*
%TO.N,RAMP_5V*%
X46811700Y-50245800D03*
X46452100Y-39654800D03*
%TO.N,SD_CD*%
X61938900Y-34503600D03*
X65522300Y-37958600D03*
X51005000Y-18022400D03*
X77101800Y-37070500D03*
%TO.N,SD_CLK_C*%
X52437500Y-27182500D03*
X61817900Y-33532700D03*
%TO.N,SD_CMD*%
X55223300Y-24552600D03*
X53064500Y-18022400D03*
%TO.N,SD_CMD_C*%
X68257000Y-41783700D03*
X63985800Y-37536900D03*
X53729300Y-31003200D03*
%TO.N,SD_D0*%
X55081400Y-20942700D03*
X51826000Y-18045800D03*
%TO.N,SD_D0_C*%
X67774100Y-37194800D03*
X60143300Y-30036700D03*
%TO.N,SD_D1_C*%
X60178500Y-33213700D03*
X51529100Y-30008500D03*
%TO.N,SD_D2*%
X54657700Y-27894300D03*
X48686700Y-23136100D03*
%TO.N,SD_D2_C*%
X55897300Y-34462100D03*
X53379900Y-34553100D03*
X63069500Y-38896700D03*
%TO.N,SD_D3*%
X48828900Y-24182100D03*
X56158300Y-27323700D03*
%TO.N,SD_D3_C*%
X64257500Y-41616900D03*
X56969900Y-36636000D03*
%TO.N,SD_PWR_EN*%
X48203000Y-16928800D03*
X62828300Y-52506900D03*
%TO.N,SENS_EN*%
X41979000Y-30529000D03*
X41853900Y-11875600D03*
X32655500Y-47551400D03*
%TO.N,SENS_EN_G*%
X45513300Y-69795000D03*
X43965000Y-72547300D03*
%TO.N,SPI_CS*%
X56417800Y-5946300D03*
X78385700Y-30965700D03*
%TO.N,SPI_MISO*%
X59473500Y-8854800D03*
%TO.N,SPI_MOSI*%
X59495400Y-7068600D03*
%TO.N,SPI_SCK*%
X59485200Y-9835100D03*
%TO.N,TERM_A*%
X18407600Y-43503600D03*
X14350100Y-43293600D03*
%TO.N,UART_RX*%
X62019400Y-6253300D03*
%TO.N,UART_TX*%
X68003800Y-6803100D03*
D21*
%TO.N,USB_CC1*%
X68685000Y-9013500D03*
X71360700Y-11773800D03*
%TO.N,USB_CC2*%
X68679500Y-11431600D03*
X74624400Y-14405400D03*
D19*
%TO.N,USB_DM*%
X46219800Y-16089600D03*
X65232500Y-11615300D03*
%TO.N,USB_DM_CON*%
X62848000Y-11514300D03*
X77030000Y-15750000D03*
X77030000Y-16750000D03*
%TO.N,USB_DP*%
X63587900Y-7867300D03*
X45148700Y-16893300D03*
%TO.N,USB_DP_CON*%
X74580000Y-16250000D03*
X74580000Y-15250000D03*
X62735600Y-7762100D03*
D20*
%TO.N,VBAT_F*%
X26947300Y-70895100D03*
X40000900Y-75283400D03*
%TO.N,VBAT_IN*%
X21142300Y-67295300D03*
D19*
%TO.N,VBAT_SNS*%
X48387300Y-15824000D03*
X49168800Y-71124700D03*
%TO.N,VBAT_UVLO*%
X8983500Y-71497100D03*
X16632400Y-72528600D03*
D20*
%TO.N,VBUS_G*%
X64436600Y-12685000D03*
X75416100Y-27604400D03*
X69262500Y-14567100D03*
%TO.N,VBUS_IN*%
X73879000Y-18095900D03*
X70737100Y-21152900D03*
%TO.N,VBUS_R*%
X66658000Y-15516200D03*
X62041000Y-24961800D03*
X78303100Y-28634200D03*
X64265700Y-17541300D03*
D19*
%TO.N,VCAP*%
X11172200Y-68900600D03*
X26907800Y-68848600D03*
D20*
%TO.N,VSENS_SW*%
X41762500Y-71653900D03*
X44514200Y-78576700D03*
%TD*%
D22*
%TO.N,+5V*%
X46217900Y-75687400D02*
X47435100Y-75687400D01*
X63947300Y-52875500D02*
X63947300Y-52232000D01*
X63947300Y-52232000D02*
X77890000Y-38289300D01*
X58618000Y-57216500D02*
X59606300Y-57216500D01*
X46217900Y-75687400D02*
X46217900Y-76177800D01*
X72360300Y-27752700D02*
X70184100Y-25576500D01*
X51875200Y-64947600D02*
X58618000Y-58204800D01*
X70184100Y-25151900D02*
X64071300Y-19039100D01*
X58618000Y-58204800D02*
X58618000Y-57216500D01*
X59606300Y-57216500D02*
X63947300Y-52875500D01*
X42668000Y-72627900D02*
X45727500Y-75687400D01*
X45727500Y-75687400D02*
X46217900Y-75687400D01*
X77890000Y-33122300D02*
X72520400Y-27752700D01*
X51875200Y-71247300D02*
X51875200Y-64947600D01*
X70184100Y-25576500D02*
X70184100Y-25151900D01*
X47435100Y-75687400D02*
X51875200Y-71247300D01*
X72520400Y-27752700D02*
X72360300Y-27752700D01*
X77890000Y-38289300D02*
X77890000Y-33122300D01*
%TO.N,+5VS*%
X27184600Y-50887600D02*
X27184600Y-62301900D01*
X6375000Y-20091300D02*
X18838300Y-20091300D01*
X27700600Y-20437700D02*
X32991400Y-20437700D01*
X12420800Y-35057600D02*
X16225500Y-38862300D01*
X19417400Y-20670400D02*
X20937700Y-20670400D01*
X27184600Y-62301900D02*
X31240200Y-66357500D01*
X27523800Y-20614500D02*
X27700600Y-20437700D01*
X6375000Y-18000000D02*
X6375000Y-20091300D01*
X18838300Y-20091300D02*
X19154700Y-20407700D01*
X6375000Y-31350000D02*
X8953500Y-31350000D01*
X6375000Y-20091300D02*
X6375000Y-31350000D01*
X16225500Y-39928500D02*
X27184600Y-50887600D01*
X12420800Y-34817300D02*
X12420800Y-35057600D01*
X6375000Y-31350000D02*
X6375000Y-32000000D01*
X32991400Y-20437700D02*
X34472200Y-21918500D01*
X8953500Y-31350000D02*
X12420800Y-34817300D01*
X20993600Y-20614500D02*
X27523800Y-20614500D01*
X16225500Y-38862300D02*
X16225500Y-39928500D01*
X19154700Y-20407700D02*
X19417400Y-20670400D01*
X20937700Y-20670400D02*
X20993600Y-20614500D01*
%TO.N,+VBAT*%
X37675000Y-56350000D02*
X37250000Y-56350000D01*
X37675000Y-46750000D02*
X37675000Y-56350000D01*
D23*
%TO.N,AIN1*%
X38791700Y-12680700D02*
X37539000Y-11428000D01*
X50831300Y-12680700D02*
X38791700Y-12680700D01*
X45588400Y-27643500D02*
X46248600Y-28303700D01*
X45588400Y-21201000D02*
X45588400Y-27643500D01*
X51263600Y-15525800D02*
X45588400Y-21201000D01*
X37539000Y-11428000D02*
X23131100Y-11428000D01*
X52825300Y-15525800D02*
X51263600Y-15525800D01*
X23131100Y-11428000D02*
X23129600Y-11426500D01*
%TO.N,AIN2*%
X41776300Y-15912500D02*
X39296700Y-13432900D01*
X53794000Y-13410000D02*
X44278800Y-13410000D01*
X57983900Y-9220100D02*
X53794000Y-13410000D01*
X39296700Y-13432900D02*
X25137000Y-13432900D01*
X44278800Y-13410000D02*
X41776300Y-15912500D01*
%TO.N,AIN2_IN*%
X3789600Y-17331100D02*
X4130300Y-16990400D01*
X4420800Y-21073300D02*
X3789600Y-20442100D01*
X5000000Y-22000000D02*
X5000000Y-21073300D01*
X4130300Y-16990400D02*
X17712700Y-16990400D01*
X3789600Y-20442100D02*
X3789600Y-17331100D01*
X5000000Y-21073300D02*
X4420800Y-21073300D01*
X17712700Y-16990400D02*
X20616000Y-19893700D01*
%TO.N,AIN2_R2*%
X23609000Y-24799800D02*
X21852000Y-23042800D01*
X23609000Y-27226500D02*
X23609000Y-24799800D01*
%TO.N,AIN3_IN*%
X25388800Y-21391200D02*
X27105700Y-21391200D01*
X27105700Y-21391200D02*
X29167500Y-23453000D01*
%TO.N,AIN3_R2*%
X38731400Y-18852400D02*
X41321100Y-18852400D01*
X37882100Y-18003100D02*
X38731400Y-18852400D01*
X31154600Y-18275000D02*
X31426500Y-18003100D01*
X31162500Y-30599500D02*
X31162500Y-30599600D01*
X41321100Y-18852400D02*
X41971300Y-19502600D01*
X31426500Y-18003100D02*
X37882100Y-18003100D01*
X41971300Y-19502600D02*
X41971300Y-20003200D01*
X41971300Y-20003200D02*
X31375000Y-30599500D01*
X31375000Y-30599500D02*
X31162500Y-30599500D01*
%TO.N,AIN4*%
X46885900Y-31432100D02*
X44971400Y-31432100D01*
X44971400Y-31432100D02*
X43435300Y-29896000D01*
X43435300Y-29896000D02*
X41373700Y-29896000D01*
X40716000Y-27430700D02*
X35497500Y-27430700D01*
X40858500Y-24158800D02*
X40858500Y-27288200D01*
X41373700Y-29896000D02*
X41329700Y-29940000D01*
X40858500Y-27288200D02*
X40716000Y-27430700D01*
%TO.N,AIN4_IN*%
X36779900Y-18901800D02*
X38417500Y-20539400D01*
X33803400Y-18901800D02*
X36779900Y-18901800D01*
X3316000Y-23968500D02*
X3316000Y-17096000D01*
X33803400Y-18629800D02*
X33803400Y-18901800D01*
X27023200Y-18901800D02*
X33803400Y-18901800D01*
X3316000Y-17096000D02*
X3902000Y-16510000D01*
X3902000Y-16510000D02*
X24631400Y-16510000D01*
X5000000Y-25073300D02*
X4420800Y-25073300D01*
X24631400Y-16510000D02*
X27023200Y-18901800D01*
X5000000Y-26000000D02*
X5000000Y-25073300D01*
X4420800Y-25073300D02*
X3316000Y-23968500D01*
%TO.N,BST_3V3*%
X42820700Y-54319900D02*
X41969900Y-54319900D01*
X46276100Y-57775300D02*
X42820700Y-54319900D01*
%TO.N,BST_5V*%
X46465000Y-41533100D02*
X43437900Y-38506000D01*
X43437900Y-38506000D02*
X41956000Y-38506000D01*
%TO.N,CAN_L*%
X3756800Y-54409300D02*
X3756800Y-48525700D01*
X5000000Y-55073300D02*
X4420800Y-55073300D01*
X4420800Y-55073300D02*
X3756800Y-54409300D01*
X3756800Y-48525700D02*
X14260800Y-38021700D01*
X5000000Y-56000000D02*
X5000000Y-55073300D01*
%TO.N,CAN_RX*%
X36166800Y-24882200D02*
X35530500Y-24882200D01*
X41292000Y-19757000D02*
X36166800Y-24882200D01*
X20257000Y-40155700D02*
X18232900Y-40155700D01*
X35530500Y-24882200D02*
X20257000Y-40155700D01*
%TO.N,CAN_S*%
X8984900Y-1823300D02*
X8823300Y-1984900D01*
X17568900Y-39854100D02*
X17568900Y-40399700D01*
X5251700Y-33859900D02*
X10343400Y-33859900D01*
X17568900Y-40399700D02*
X20932200Y-43763000D01*
X14283400Y-35605900D02*
X15055100Y-35605900D01*
X15055100Y-35605900D02*
X17837100Y-38387900D01*
X23874100Y-1823300D02*
X8984900Y-1823300D01*
X20932200Y-43763000D02*
X21382200Y-43763000D01*
X2842400Y-16353100D02*
X2842400Y-31450600D01*
X8823300Y-1984900D02*
X8823300Y-10372200D01*
X29231000Y-7180200D02*
X23874100Y-1823300D01*
X49528300Y-11879800D02*
X44828700Y-7180200D01*
X8823300Y-10372200D02*
X2842400Y-16353100D01*
X2842400Y-31450600D02*
X5251700Y-33859900D01*
X17837100Y-38387900D02*
X17837100Y-39585900D01*
X17837100Y-39585900D02*
X17568900Y-39854100D01*
X44828700Y-7180200D02*
X29231000Y-7180200D01*
%TO.N,CAN_TX*%
X13197500Y-34735900D02*
X20433700Y-34735900D01*
X20433700Y-34735900D02*
X31091400Y-24078200D01*
X35922200Y-24078200D02*
X40461700Y-19538700D01*
X31091400Y-24078200D02*
X35922200Y-24078200D01*
%TO.N,EN_3V3*%
X39843700Y-55059900D02*
X39843700Y-56826900D01*
X39843700Y-56826900D02*
X38537400Y-58133200D01*
%TO.N,EN_5V*%
X38299800Y-39788100D02*
X38109200Y-39978700D01*
X38109200Y-41836800D02*
X38508300Y-42235900D01*
X38109200Y-39978700D02*
X38109200Y-41836800D01*
%TO.N,GATE_RB*%
X10595000Y-63605900D02*
X13585800Y-66596700D01*
X13585800Y-66596700D02*
X13585800Y-68348600D01*
D22*
%TO.N,GND*%
X43150000Y-58450000D02*
X42500000Y-57800000D01*
X43150000Y-42650000D02*
X42500000Y-42000000D01*
D23*
%TO.N,I2C_SCL*%
X60852500Y-20990900D02*
X57403800Y-17542200D01*
X48060000Y-23148400D02*
X47725100Y-23483300D01*
X47725100Y-25269100D02*
X48250300Y-25794300D01*
X64549400Y-31160100D02*
X60852500Y-27463200D01*
X50700100Y-17395600D02*
X48060000Y-20035700D01*
X57257200Y-17395600D02*
X50700100Y-17395600D01*
X60852500Y-27463200D02*
X60852500Y-20990900D01*
X73758100Y-37017400D02*
X72831100Y-36090400D01*
X69704400Y-36090400D02*
X64774100Y-31160100D01*
X73769800Y-72350200D02*
X48620000Y-97500000D01*
X48060000Y-20035700D02*
X48060000Y-23148400D01*
X64774100Y-31160100D02*
X64549400Y-31160100D01*
X73769800Y-55648100D02*
X73769800Y-72350200D01*
X57403800Y-17542200D02*
X57257200Y-17395600D01*
X47725100Y-23483300D02*
X47725100Y-25269100D01*
X57403800Y-17542200D02*
X58312400Y-16633600D01*
X72831100Y-36090400D02*
X69704400Y-36090400D01*
%TO.N,I2C_SDA*%
X57904100Y-15918000D02*
X58939100Y-15918000D01*
X71686600Y-35136500D02*
X70453600Y-35136500D01*
X60682800Y-82897200D02*
X46080000Y-97500000D01*
X70453600Y-35136500D02*
X61304200Y-25987100D01*
X57534800Y-16287300D02*
X57904100Y-15918000D01*
X61304200Y-25987100D02*
X61304200Y-18283100D01*
X51155300Y-16287300D02*
X57534800Y-16287300D01*
X47358800Y-22521700D02*
X47358800Y-20083800D01*
X47358800Y-20083800D02*
X51155300Y-16287300D01*
X61304200Y-18283100D02*
X58939100Y-15918000D01*
X60682800Y-74881400D02*
X60682800Y-82897200D01*
%TO.N,IO3*%
X41286000Y-17491100D02*
X43122700Y-19327800D01*
X13070500Y-4176700D02*
X26384900Y-17491100D01*
X11985600Y-4176700D02*
X13070500Y-4176700D01*
X11176700Y-3367800D02*
X11985600Y-4176700D01*
X11176700Y-3000000D02*
X11176700Y-3367800D01*
X26384900Y-17491100D02*
X41286000Y-17491100D01*
X10000000Y-3000000D02*
X11176700Y-3000000D01*
%TO.N,IO45*%
X48435300Y-14888600D02*
X45869600Y-17454300D01*
X26530900Y-16990900D02*
X12540000Y-3000000D01*
X56917500Y-15494900D02*
X56311200Y-14888600D01*
X41672500Y-16990900D02*
X26530900Y-16990900D01*
X45869600Y-17454300D02*
X45869600Y-17774900D01*
X56311200Y-14888600D02*
X48435300Y-14888600D01*
X43412500Y-23011100D02*
X43784200Y-22639400D01*
X44541900Y-19102600D02*
X43784200Y-19102600D01*
X43784200Y-22639400D02*
X43784200Y-19102600D01*
X45869600Y-17774900D02*
X44541900Y-19102600D01*
X43784200Y-19102600D02*
X41672500Y-16990900D01*
%TO.N,IO46*%
X15080000Y-4263100D02*
X15080000Y-3000000D01*
X27356100Y-16539200D02*
X15080000Y-4263100D01*
X43891200Y-16539200D02*
X27356100Y-16539200D01*
X45055000Y-17703000D02*
X43891200Y-16539200D01*
%TO.N,LED_DIN_MCU*%
X70394600Y-37493800D02*
X72409000Y-37493800D01*
X58136000Y-25388800D02*
X65085800Y-32338600D01*
X58136000Y-20836300D02*
X58136000Y-25388800D01*
X65085800Y-32338600D02*
X65239400Y-32338600D01*
X65239400Y-32338600D02*
X70394600Y-37493800D01*
%TO.N,MCU_BOOT*%
X72198700Y-28529400D02*
X67627900Y-28529400D01*
X67627900Y-28529400D02*
X62818400Y-23719900D01*
X74850000Y-62600000D02*
X81150000Y-62600000D01*
%TO.N,MCU_EN*%
X82681000Y-15185400D02*
X71442600Y-3947000D01*
X81099800Y-55600000D02*
X81150000Y-55600000D01*
X74850000Y-55600000D02*
X81099800Y-55600000D01*
X81099800Y-55600000D02*
X82681000Y-54018800D01*
X71442600Y-3947000D02*
X44638500Y-3947000D01*
X82681000Y-54018800D02*
X82681000Y-15185400D01*
%TO.N,PG_5V*%
X46137200Y-50282400D02*
X46137200Y-46181200D01*
X44523200Y-51896400D02*
X46137200Y-50282400D01*
X46137200Y-46181200D02*
X46277300Y-46041100D01*
%TO.N,PWR_FAIL*%
X40394600Y-30746800D02*
X32018700Y-39122700D01*
X25596300Y-10976300D02*
X39415600Y-10976300D01*
X39794500Y-18166400D02*
X41293000Y-18166400D01*
X41293000Y-18166400D02*
X42461200Y-19334600D01*
X42461200Y-19334600D02*
X42461200Y-27894600D01*
X39415600Y-10976300D02*
X39794500Y-11355200D01*
X32018700Y-63148900D02*
X36282400Y-67412600D01*
X40394600Y-29961200D02*
X40394600Y-30746800D01*
X17620000Y-3000000D02*
X25596300Y-10976300D01*
X32018700Y-39122700D02*
X32018700Y-63148900D01*
X42461200Y-27894600D02*
X40394600Y-29961200D01*
%TO.N,RAMP_3V3*%
X48279300Y-56863100D02*
X48279300Y-62176700D01*
X46612500Y-55196300D02*
X48279300Y-56863100D01*
%TO.N,RAMP_5V*%
X46452100Y-39654800D02*
X47156700Y-40359400D01*
X47156700Y-40359400D02*
X47156700Y-49900800D01*
X47156700Y-49900800D02*
X46811700Y-50245800D01*
%TO.N,SD_CD*%
X62203700Y-34503600D02*
X61938900Y-34503600D01*
X62459900Y-34247400D02*
X62572300Y-34247400D01*
X76051800Y-38120500D02*
X77101800Y-37070500D01*
X62572300Y-34247400D02*
X65522300Y-37197400D01*
X62459900Y-33239500D02*
X62459900Y-34247400D01*
X65522300Y-37197400D02*
X65522300Y-37958600D01*
X51005000Y-18022400D02*
X51005000Y-21278300D01*
X65522300Y-37958600D02*
X71987600Y-37958600D01*
X59516600Y-29789900D02*
X59516600Y-30296200D01*
X71987600Y-37958600D02*
X72149500Y-38120500D01*
X59516600Y-30296200D02*
X62459900Y-33239500D01*
X72149500Y-38120500D02*
X76051800Y-38120500D01*
X62459900Y-34247400D02*
X62203700Y-34503600D01*
X51005000Y-21278300D02*
X59516600Y-29789900D01*
%TO.N,SD_CLK_C*%
X52437500Y-27182500D02*
X55048900Y-27182500D01*
X61399100Y-33532700D02*
X61817900Y-33532700D01*
X55048900Y-27182500D02*
X61399100Y-33532700D01*
%TO.N,SD_CMD*%
X55223300Y-24552600D02*
X55719000Y-24056900D01*
X55719000Y-20676900D02*
X53064500Y-18022400D01*
X55719000Y-24056900D02*
X55719000Y-20676900D01*
%TO.N,SD_CMD_C*%
X63985800Y-37536900D02*
X68232600Y-41783700D01*
X68232600Y-41783700D02*
X68257000Y-41783700D01*
X63985800Y-37536900D02*
X63253300Y-37536900D01*
X63253300Y-37536900D02*
X56719600Y-31003200D01*
X56719600Y-31003200D02*
X53729300Y-31003200D01*
%TO.N,SD_D0*%
X51826000Y-18045800D02*
X52184500Y-18045800D01*
X52184500Y-18045800D02*
X55081400Y-20942700D01*
%TO.N,SD_D0_C*%
X60143300Y-30036700D02*
X60616000Y-30036700D01*
X60616000Y-30036700D02*
X67774100Y-37194800D01*
%TO.N,SD_D1_C*%
X56973300Y-30008500D02*
X60178500Y-33213700D01*
X51529100Y-30008500D02*
X56973300Y-30008500D01*
%TO.N,SD_D2*%
X48200600Y-24443100D02*
X48200600Y-23796300D01*
X48200600Y-23796300D02*
X48686700Y-23310200D01*
X51651800Y-27894300D02*
X48200600Y-24443100D01*
X54657700Y-27894300D02*
X51651800Y-27894300D01*
X48686700Y-23310200D02*
X48686700Y-23136100D01*
%TO.N,SD_D2_C*%
X55897300Y-34462100D02*
X55897300Y-34553100D01*
X55897300Y-34553100D02*
X53379900Y-34553100D01*
X55897300Y-34553100D02*
X60240900Y-38896700D01*
X60240900Y-38896700D02*
X63069500Y-38896700D01*
%TO.N,SD_D3*%
X48828900Y-24182100D02*
X53016700Y-24182100D01*
X53016700Y-24182100D02*
X56158300Y-27323700D01*
%TO.N,SD_D3_C*%
X61950800Y-41616900D02*
X64257500Y-41616900D01*
X56969900Y-36636000D02*
X61950800Y-41616900D01*
%TO.N,SD_PWR_EN*%
X62828200Y-45769600D02*
X45075000Y-28016400D01*
X48203000Y-17773800D02*
X48203000Y-16928800D01*
X45075000Y-20901800D02*
X48203000Y-17773800D01*
X45075000Y-28016400D02*
X45075000Y-20901800D01*
X62828300Y-52506900D02*
X62828200Y-52506900D01*
X62828200Y-52506900D02*
X62828200Y-45769600D01*
%TO.N,SENS_EN*%
X37834900Y-7856600D02*
X25016600Y-7856600D01*
X32655500Y-47551400D02*
X32655500Y-39852500D01*
X32655500Y-39852500D02*
X41979000Y-30529000D01*
X25016600Y-7856600D02*
X20160000Y-3000000D01*
X41853900Y-11875600D02*
X37834900Y-7856600D01*
%TO.N,SENS_EN_G*%
X43965000Y-71343300D02*
X45513300Y-69795000D01*
X43965000Y-72547300D02*
X43965000Y-71343300D01*
%TO.N,SPI_CS*%
X74405200Y-13548400D02*
X75763800Y-13548400D01*
X60731000Y-5946300D02*
X61730500Y-6945800D01*
X77361000Y-23784600D02*
X77361000Y-26632600D01*
X77361000Y-26632600D02*
X79046300Y-28317900D01*
X70769300Y-12695800D02*
X73552600Y-12695800D01*
X78185400Y-15970000D02*
X78185400Y-22960200D01*
X40200000Y-3000000D02*
X42573400Y-5373400D01*
X55844900Y-5373400D02*
X56417800Y-5946300D01*
X75763800Y-13548400D02*
X78185400Y-15970000D01*
X78185400Y-22960200D02*
X77361000Y-23784600D01*
X42573400Y-5373400D02*
X55844900Y-5373400D01*
X73552600Y-12695800D02*
X74405200Y-13548400D01*
X63003000Y-6765800D02*
X64839300Y-6765800D01*
X79046300Y-30305100D02*
X78385700Y-30965700D01*
X79046300Y-28317900D02*
X79046300Y-30305100D01*
X62823000Y-6945800D02*
X63003000Y-6765800D01*
X64839300Y-6765800D02*
X70769300Y-12695800D01*
X61730500Y-6945800D02*
X62823000Y-6945800D01*
X56417800Y-5946300D02*
X60731000Y-5946300D01*
%TO.N,SPI_MISO*%
X55373000Y-7520300D02*
X58139000Y-7520300D01*
X58139000Y-7520300D02*
X59473500Y-8854800D01*
X35120000Y-3000000D02*
X38396800Y-6276800D01*
X54129500Y-6276800D02*
X55373000Y-7520300D01*
X38396800Y-6276800D02*
X54129500Y-6276800D01*
%TO.N,SPI_MOSI*%
X54316600Y-5825100D02*
X55560100Y-7068600D01*
X40485100Y-5825100D02*
X54316600Y-5825100D01*
X37660000Y-3000000D02*
X40485100Y-5825100D01*
X55560100Y-7068600D02*
X59495400Y-7068600D01*
%TO.N,SPI_SCK*%
X59485200Y-9835100D02*
X58243500Y-8593400D01*
X55807300Y-8593400D02*
X53942400Y-6728500D01*
X58243500Y-8593400D02*
X55807300Y-8593400D01*
X36308500Y-6728500D02*
X32580000Y-3000000D01*
X53942400Y-6728500D02*
X36308500Y-6728500D01*
%TO.N,TERM_A*%
X18197600Y-43293600D02*
X18407600Y-43503600D01*
X14350100Y-43293600D02*
X18197600Y-43293600D01*
%TO.N,UART_RX*%
X79185200Y-26301700D02*
X79953700Y-27070200D01*
X72996000Y-6176400D02*
X79185200Y-12365600D01*
X79185200Y-12365600D02*
X79185200Y-26301700D01*
X31080000Y-97451700D02*
X31080000Y-97500000D01*
X79953700Y-27070200D02*
X79953700Y-48578000D01*
X79953700Y-48578000D02*
X31080000Y-97451700D01*
X62019400Y-6253300D02*
X62096300Y-6176400D01*
X62096300Y-6176400D02*
X72996000Y-6176400D01*
%TO.N,UART_TX*%
X78685300Y-26758700D02*
X78685300Y-15825800D01*
X69662600Y-6803100D02*
X68003800Y-6803100D01*
X50381600Y-76643400D02*
X50381600Y-75820000D01*
X79499500Y-46702100D02*
X79499500Y-27572900D01*
X50381600Y-75820000D02*
X79499500Y-46702100D01*
X39498100Y-87526900D02*
X50381600Y-76643400D01*
X79499500Y-27572900D02*
X78685300Y-26758700D01*
X38513100Y-87526900D02*
X39498100Y-87526900D01*
X28540000Y-97500000D02*
X38513100Y-87526900D01*
X78685300Y-15825800D02*
X69662600Y-6803100D01*
D24*
%TO.N,USB_CC1*%
X68685000Y-9013500D02*
X68793800Y-9013500D01*
X71360700Y-11580400D02*
X71360700Y-11773800D01*
X68793800Y-9013500D02*
X71360700Y-11580400D01*
%TO.N,USB_CC2*%
X73743700Y-13524700D02*
X74624400Y-14405400D01*
X68679500Y-11431600D02*
X70772600Y-13524700D01*
X70772600Y-13524700D02*
X73743700Y-13524700D01*
D23*
%TO.N,USB_DM*%
X61499800Y-14427700D02*
X64312200Y-11615300D01*
X47881700Y-14427700D02*
X61499800Y-14427700D01*
X64312200Y-11615300D02*
X65232500Y-11615300D01*
X46219800Y-16089600D02*
X47881700Y-14427700D01*
%TO.N,USB_DM_CON*%
X63387800Y-10974500D02*
X62848000Y-11514300D01*
X68995300Y-13840400D02*
X66129400Y-10974500D01*
X76890700Y-16889300D02*
X73525700Y-16889300D01*
X70299900Y-14449300D02*
X69691000Y-13840400D01*
X77030000Y-16750000D02*
X76890700Y-16889300D01*
X71085700Y-14449300D02*
X70299900Y-14449300D01*
X73525700Y-16889300D02*
X71085700Y-14449300D01*
X69691000Y-13840400D02*
X68995300Y-13840400D01*
X66129400Y-10974500D02*
X63387800Y-10974500D01*
X77030000Y-15750000D02*
X77030000Y-16750000D01*
%TO.N,USB_DP*%
X47561500Y-13861700D02*
X45369300Y-16053900D01*
X57593500Y-13861700D02*
X47561500Y-13861700D01*
X45369300Y-16672800D02*
X45369200Y-16672800D01*
X63587900Y-7867300D02*
X57593500Y-13861700D01*
X45369300Y-16053900D02*
X45369300Y-16672800D01*
X45369200Y-16672800D02*
X45148700Y-16893300D01*
%TO.N,USB_DP_CON*%
X74580000Y-15250000D02*
X73281400Y-13951400D01*
X63844900Y-7219300D02*
X63278400Y-7219300D01*
X73281400Y-13951400D02*
X70440900Y-13951400D01*
X74580000Y-15250000D02*
X74580000Y-16250000D01*
X64338400Y-7712800D02*
X63844900Y-7219300D01*
X63278400Y-7219300D02*
X62735600Y-7762100D01*
X69791800Y-13388700D02*
X64338400Y-7935300D01*
X64338400Y-7935300D02*
X64338400Y-7712800D01*
X69878200Y-13388700D02*
X69791800Y-13388700D01*
X70440900Y-13951400D02*
X69878200Y-13388700D01*
D22*
%TO.N,VBAT_F*%
X35612600Y-70895100D02*
X26947300Y-70895100D01*
X40000900Y-75283400D02*
X35612600Y-70895100D01*
%TO.N,VBAT_IN*%
X21142300Y-66142300D02*
X21142300Y-67295300D01*
X5000000Y-50000000D02*
X21142300Y-66142300D01*
D23*
%TO.N,VBAT_SNS*%
X46321300Y-17890000D02*
X46321300Y-18820900D01*
X48387300Y-15824000D02*
X46321300Y-17890000D01*
X49128700Y-71084600D02*
X49168800Y-71124700D01*
X46321300Y-18820900D02*
X44621000Y-20521200D01*
X44621000Y-20521200D02*
X44621000Y-28242200D01*
X49128700Y-32749900D02*
X49128700Y-71084600D01*
X44621000Y-28242200D02*
X49128700Y-32749900D01*
%TO.N,VBAT_UVLO*%
X10015000Y-72528600D02*
X8983500Y-71497100D01*
X16632400Y-72528600D02*
X10015000Y-72528600D01*
D22*
%TO.N,VBUS_G*%
X75416100Y-27174100D02*
X75416100Y-27604400D01*
X69262500Y-21020500D02*
X75416100Y-27174100D01*
X64436600Y-12685000D02*
X66318700Y-14567100D01*
X66318700Y-14567100D02*
X69262500Y-14567100D01*
X69262500Y-14567100D02*
X69262500Y-21020500D01*
%TO.N,VBUS_IN*%
X70737100Y-21152900D02*
X70822000Y-21152900D01*
X70822000Y-21152900D02*
X73879000Y-18095900D01*
%TO.N,VBUS_R*%
X64265700Y-17559200D02*
X64265700Y-17541300D01*
X64717400Y-17559200D02*
X74539400Y-27381200D01*
X74539400Y-27381200D02*
X74539400Y-27967400D01*
X74539400Y-27967400D02*
X75206200Y-28634200D01*
X64717400Y-17456800D02*
X66658000Y-15516200D01*
X75206200Y-28634200D02*
X78303100Y-28634200D01*
X64717400Y-17559200D02*
X64265700Y-17559200D01*
X64717400Y-17559200D02*
X64717400Y-17456800D01*
X62041100Y-24961800D02*
X62041000Y-24961800D01*
X62041100Y-19783800D02*
X62041100Y-24961800D01*
X64265700Y-17559200D02*
X62041100Y-19783800D01*
D23*
%TO.N,VCAP*%
X26776500Y-68979900D02*
X26907800Y-68848600D01*
X11251500Y-68979900D02*
X26776500Y-68979900D01*
X11172200Y-68900600D02*
X11251500Y-68979900D01*
D22*
%TO.N,VSENS_SW*%
X41762500Y-75825000D02*
X41762500Y-71653900D01*
X44514200Y-78576700D02*
X41762500Y-75825000D01*
%TD*%
M02*
