%TF.GenerationSoftware,KiCad,Pcbnew,9.0.5*%
%TF.CreationDate,2026-08-11T10:30:33-04:00*%
%TF.ProjectId,esp32s3-can-sd-logger,65737033-3273-4332-9d63-616e2d73642d,rev?*%
%TF.SameCoordinates,Original*%
%TF.FileFunction,Soldermask,Top*%
%TF.FilePolarity,Negative*%
%FSLAX46Y46*%
G04 Gerber Fmt 4.6, Leading zero omitted, Abs format (unit mm)*
G04 Created by KiCad (PCBNEW 9.0.5) date 2026-08-11 10:30:33*
%MOMM*%
%LPD*%
G01*
G04 APERTURE LIST*
G04 Aperture macros list*
%AMRoundRect*
0 Rectangle with rounded corners*
0 $1 Rounding radius*
0 $2 $3 $4 $5 $6 $7 $8 $9 X,Y pos of 4 corners*
0 Add a 4 corners polygon primitive as box body*
4,1,4,$2,$3,$4,$5,$6,$7,$8,$9,$2,$3,0*
0 Add four circle primitives for the rounded corners*
1,1,$1+$1,$2,$3*
1,1,$1+$1,$4,$5*
1,1,$1+$1,$6,$7*
1,1,$1+$1,$8,$9*
0 Add four rect primitives between the rounded corners*
20,1,$1+$1,$2,$3,$4,$5,0*
20,1,$1+$1,$4,$5,$6,$7,0*
20,1,$1+$1,$6,$7,$8,$9,0*
20,1,$1+$1,$8,$9,$2,$3,0*%
G04 Aperture macros list end*
%ADD10RoundRect,0.250000X-0.262500X-0.450000X0.262500X-0.450000X0.262500X0.450000X-0.262500X0.450000X0*%
%ADD11R,1.000000X1.500000*%
%ADD12RoundRect,0.250000X-0.250000X-0.475000X0.250000X-0.475000X0.250000X0.475000X-0.250000X0.475000X0*%
%ADD13C,1.500000*%
%ADD14C,3.200000*%
%ADD15R,1.700000X1.700000*%
%ADD16C,1.700000*%
%ADD17RoundRect,0.250000X-1.000000X-0.650000X1.000000X-0.650000X1.000000X0.650000X-1.000000X0.650000X0*%
%ADD18RoundRect,0.150000X-0.587500X-0.150000X0.587500X-0.150000X0.587500X0.150000X-0.587500X0.150000X0*%
%ADD19RoundRect,0.150000X-0.512500X-0.150000X0.512500X-0.150000X0.512500X0.150000X-0.512500X0.150000X0*%
%ADD20C,0.650000*%
%ADD21R,1.450000X0.600000*%
%ADD22R,1.450000X0.300000*%
%ADD23O,2.100000X1.000000*%
%ADD24O,1.600000X1.000000*%
%ADD25R,1.750000X0.700000*%
%ADD26R,1.000000X1.450000*%
%ADD27R,1.550000X1.000000*%
%ADD28R,1.500000X0.800000*%
%ADD29R,1.500000X1.300000*%
%ADD30R,1.500000X1.500000*%
%ADD31R,1.400000X0.800000*%
%ADD32RoundRect,0.250000X1.000000X-1.400000X1.000000X1.400000X-1.000000X1.400000X-1.000000X-1.400000X0*%
%ADD33RoundRect,0.250000X-0.312500X-0.625000X0.312500X-0.625000X0.312500X0.625000X-0.312500X0.625000X0*%
%ADD34RoundRect,0.250000X-0.325000X-0.650000X0.325000X-0.650000X0.325000X0.650000X-0.325000X0.650000X0*%
%ADD35R,1.500000X0.900000*%
%ADD36R,0.900000X1.500000*%
%ADD37C,0.600000*%
%ADD38R,3.900000X3.900000*%
%ADD39RoundRect,0.250000X-1.950000X-1.000000X1.950000X-1.000000X1.950000X1.000000X-1.950000X1.000000X0*%
%ADD40RoundRect,0.250000X0.325000X0.650000X-0.325000X0.650000X-0.325000X-0.650000X0.325000X-0.650000X0*%
%ADD41R,2.710000X3.400000*%
%ADD42RoundRect,0.150000X-0.737500X-0.150000X0.737500X-0.150000X0.737500X0.150000X-0.737500X0.150000X0*%
%ADD43RoundRect,0.250000X-0.375000X-0.625000X0.375000X-0.625000X0.375000X0.625000X-0.375000X0.625000X0*%
%ADD44RoundRect,0.250000X-0.625000X0.350000X-0.625000X-0.350000X0.625000X-0.350000X0.625000X0.350000X0*%
%ADD45O,1.750000X1.200000*%
%ADD46R,1.350000X0.900000*%
%ADD47RoundRect,0.250000X-0.850000X-0.350000X0.850000X-0.350000X0.850000X0.350000X-0.850000X0.350000X0*%
%ADD48RoundRect,0.249997X-2.950003X-2.650003X2.950003X-2.650003X2.950003X2.650003X-2.950003X2.650003X0*%
%ADD49RoundRect,0.218750X-0.218750X-0.381250X0.218750X-0.381250X0.218750X0.381250X-0.218750X0.381250X0*%
%ADD50RoundRect,0.249999X-0.850001X-3.500001X0.850001X-3.500001X0.850001X3.500001X-0.850001X3.500001X0*%
%ADD51RoundRect,0.225000X-0.225000X-0.375000X0.225000X-0.375000X0.225000X0.375000X-0.225000X0.375000X0*%
%ADD52RoundRect,0.075000X-0.650000X-0.075000X0.650000X-0.075000X0.650000X0.075000X-0.650000X0.075000X0*%
%ADD53RoundRect,0.243750X-0.243750X-0.456250X0.243750X-0.456250X0.243750X0.456250X-0.243750X0.456250X0*%
%ADD54RoundRect,0.250000X-0.275000X-0.700000X0.275000X-0.700000X0.275000X0.700000X-0.275000X0.700000X0*%
%ADD55R,1.700000X1.000000*%
%ADD56RoundRect,0.250000X0.250000X0.475000X-0.250000X0.475000X-0.250000X-0.475000X0.250000X-0.475000X0*%
%ADD57RoundRect,0.150000X-0.825000X-0.150000X0.825000X-0.150000X0.825000X0.150000X-0.825000X0.150000X0*%
%ADD58RoundRect,0.112500X-0.187500X-0.112500X0.187500X-0.112500X0.187500X0.112500X-0.187500X0.112500X0*%
G04 APERTURE END LIST*
%TO.C,JP3*%
G36*
X14835000Y-18415000D02*
G01*
X15135000Y-18415000D01*
X15135000Y-19915000D01*
X14835000Y-19915000D01*
X14835000Y-18415000D01*
G37*
%TO.C,JP11*%
G36*
X36145000Y-18415000D02*
G01*
X36445000Y-18415000D01*
X36445000Y-19915000D01*
X36145000Y-19915000D01*
X36145000Y-18415000D01*
G37*
%TO.C,JP10*%
G36*
X28045000Y-15425000D02*
G01*
X29645000Y-15425000D01*
X29645000Y-16925000D01*
X28045000Y-16925000D01*
X28045000Y-15425000D01*
G37*
%TO.C,JP13*%
G36*
X36145000Y-15425000D02*
G01*
X37745000Y-15425000D01*
X37745000Y-16925000D01*
X36145000Y-16925000D01*
X36145000Y-15425000D01*
G37*
%TO.C,JP12*%
G36*
X39935000Y-18415000D02*
G01*
X40235000Y-18415000D01*
X40235000Y-19915000D01*
X39935000Y-19915000D01*
X39935000Y-18415000D01*
G37*
%TO.C,JP2*%
G36*
X11045000Y-18415000D02*
G01*
X11345000Y-18415000D01*
X11345000Y-19915000D01*
X11045000Y-19915000D01*
X11045000Y-18415000D01*
G37*
%TO.C,JP4*%
G36*
X11045000Y-15425000D02*
G01*
X12645000Y-15425000D01*
X12645000Y-16925000D01*
X11045000Y-16925000D01*
X11045000Y-15425000D01*
G37*
%TO.C,JP1*%
G36*
X11045000Y-38625000D02*
G01*
X11345000Y-38625000D01*
X11345000Y-40125000D01*
X11045000Y-40125000D01*
X11045000Y-38625000D01*
G37*
%TO.C,JP9*%
G36*
X31835000Y-18415000D02*
G01*
X32135000Y-18415000D01*
X32135000Y-19915000D01*
X31835000Y-19915000D01*
X31835000Y-18415000D01*
G37*
%TO.C,JP5*%
G36*
X19545000Y-18415000D02*
G01*
X19845000Y-18415000D01*
X19845000Y-19915000D01*
X19545000Y-19915000D01*
X19545000Y-18415000D01*
G37*
%TO.C,JP6*%
G36*
X23335000Y-18415000D02*
G01*
X23635000Y-18415000D01*
X23635000Y-19915000D01*
X23335000Y-19915000D01*
X23335000Y-18415000D01*
G37*
%TO.C,JP8*%
G36*
X28045000Y-18415000D02*
G01*
X28345000Y-18415000D01*
X28345000Y-19915000D01*
X28045000Y-19915000D01*
X28045000Y-18415000D01*
G37*
%TO.C,JP7*%
G36*
X19545000Y-15425000D02*
G01*
X21145000Y-15425000D01*
X21145000Y-16925000D01*
X19545000Y-16925000D01*
X19545000Y-15425000D01*
G37*
%TD*%
D10*
%TO.C,R3*%
X37387500Y-37600000D03*
X39212500Y-37600000D03*
%TD*%
D11*
%TO.C,JP3*%
X14335000Y-19165000D03*
X15635000Y-19165000D03*
%TD*%
D12*
%TO.C,C24*%
X63795000Y-29415000D03*
X65695000Y-29415000D03*
%TD*%
D11*
%TO.C,JP11*%
X35645000Y-19165000D03*
X36945000Y-19165000D03*
%TD*%
D12*
%TO.C,C38*%
X31795000Y-74715000D03*
X33695000Y-74715000D03*
%TD*%
D10*
%TO.C,R2*%
X17752500Y-67165000D03*
X19577500Y-67165000D03*
%TD*%
%TO.C,R15*%
X39552500Y-74685000D03*
X41377500Y-74685000D03*
%TD*%
D13*
%TO.C,TP9*%
X28770000Y-35386200D03*
%TD*%
D12*
%TO.C,C6*%
X33550000Y-39900000D03*
X35450000Y-39900000D03*
%TD*%
D10*
%TO.C,R57*%
X27312500Y-24305000D03*
X29137500Y-24305000D03*
%TD*%
D14*
%TO.C,H2*%
X4000000Y-70000000D03*
%TD*%
D10*
%TO.C,R26*%
X43412500Y-24185000D03*
X45237500Y-24185000D03*
%TD*%
D11*
%TO.C,JP10*%
X27545000Y-16175000D03*
X28845000Y-16175000D03*
X30145000Y-16175000D03*
%TD*%
D15*
%TO.C,J8*%
X56000000Y-81500000D03*
D16*
X58540000Y-81500000D03*
X61080000Y-81500000D03*
X63620000Y-81500000D03*
%TD*%
D10*
%TO.C,R29*%
X63662500Y-54185000D03*
X65487500Y-54185000D03*
%TD*%
%TO.C,R5*%
X45587500Y-48200000D03*
X47412500Y-48200000D03*
%TD*%
%TO.C,R32*%
X54912500Y-25635000D03*
X56737500Y-25635000D03*
%TD*%
D12*
%TO.C,C19*%
X55550000Y-66200000D03*
X57450000Y-66200000D03*
%TD*%
%TO.C,C30*%
X14085000Y-39105000D03*
X15985000Y-39105000D03*
%TD*%
D11*
%TO.C,JP13*%
X35645000Y-16175000D03*
X36945000Y-16175000D03*
X38245000Y-16175000D03*
%TD*%
D14*
%TO.C,H3*%
X66000000Y-4000000D03*
%TD*%
D10*
%TO.C,R14*%
X43587500Y-66800000D03*
X45412500Y-66800000D03*
%TD*%
%TO.C,R44*%
X10312500Y-42065000D03*
X12137500Y-42065000D03*
%TD*%
D17*
%TO.C,D6*%
X11045000Y-35885000D03*
X15045000Y-35885000D03*
%TD*%
D10*
%TO.C,R63*%
X39262500Y-24305000D03*
X41087500Y-24305000D03*
%TD*%
D12*
%TO.C,C34*%
X18795000Y-21885000D03*
X20695000Y-21885000D03*
%TD*%
%TO.C,C27*%
X67685000Y-29415000D03*
X69585000Y-29415000D03*
%TD*%
D14*
%TO.C,H4*%
X80000000Y-26000000D03*
%TD*%
D10*
%TO.C,R60*%
X31162500Y-26695000D03*
X32987500Y-26695000D03*
%TD*%
%TO.C,R18*%
X66702500Y-21875000D03*
X68527500Y-21875000D03*
%TD*%
%TO.C,R40*%
X50612500Y-34155000D03*
X52437500Y-34155000D03*
%TD*%
D18*
%TO.C,D16*%
X32037500Y-70595000D03*
X32037500Y-72495000D03*
X33912500Y-71545000D03*
%TD*%
D10*
%TO.C,R50*%
X14162500Y-26695000D03*
X15987500Y-26695000D03*
%TD*%
D13*
%TO.C,TP1*%
X36647500Y-71096200D03*
%TD*%
D19*
%TO.C,U1*%
X10157500Y-63075000D03*
X10157500Y-64025000D03*
X10157500Y-64975000D03*
X12432500Y-64975000D03*
X12432500Y-64025000D03*
X12432500Y-63075000D03*
%TD*%
D10*
%TO.C,R67*%
X31812500Y-77135000D03*
X33637500Y-77135000D03*
%TD*%
D20*
%TO.C,J2*%
X75750000Y-10890000D03*
X75750000Y-5110000D03*
D21*
X74305000Y-11250000D03*
X74305000Y-10450000D03*
D22*
X74305000Y-9250000D03*
X74305000Y-8250000D03*
X74305000Y-7750000D03*
X74305000Y-6750000D03*
D21*
X74305000Y-5550000D03*
X74305000Y-4750000D03*
X74305000Y-4750000D03*
X74305000Y-5550000D03*
D22*
X74305000Y-6250000D03*
X74305000Y-7250000D03*
X74305000Y-8750000D03*
X74305000Y-9750000D03*
D21*
X74305000Y-10450000D03*
X74305000Y-11250000D03*
D23*
X75220000Y-12320000D03*
D24*
X79400000Y-12320000D03*
D23*
X75220000Y-3680000D03*
D24*
X79400000Y-3680000D03*
%TD*%
D12*
%TO.C,C1*%
X27817500Y-63305000D03*
X29717500Y-63305000D03*
%TD*%
D10*
%TO.C,R20*%
X67662500Y-31835000D03*
X69487500Y-31835000D03*
%TD*%
D12*
%TO.C,C15*%
X50050000Y-66600000D03*
X51950000Y-66600000D03*
%TD*%
%TO.C,C2*%
X9995000Y-67195000D03*
X11895000Y-67195000D03*
%TD*%
D10*
%TO.C,R7*%
X44787500Y-37600000D03*
X46612500Y-37600000D03*
%TD*%
%TO.C,R24*%
X58312500Y-74685000D03*
X60137500Y-74685000D03*
%TD*%
D18*
%TO.C,D9*%
X10537500Y-11785000D03*
X10537500Y-13685000D03*
X12412500Y-12735000D03*
%TD*%
D10*
%TO.C,R37*%
X50612500Y-31315000D03*
X52437500Y-31315000D03*
%TD*%
%TO.C,R33*%
X59212500Y-25635000D03*
X61037500Y-25635000D03*
%TD*%
%TO.C,R34*%
X50612500Y-28475000D03*
X52437500Y-28475000D03*
%TD*%
%TO.C,R35*%
X54912500Y-28475000D03*
X56737500Y-28475000D03*
%TD*%
D25*
%TO.C,J9*%
X69650000Y-44175000D03*
X69650000Y-43075000D03*
X69650000Y-41975000D03*
X69650000Y-40875000D03*
X69650000Y-39775000D03*
X69650000Y-38675000D03*
X69650000Y-37575000D03*
X69650000Y-36475000D03*
D26*
X78875000Y-35350000D03*
D27*
X80450000Y-46575000D03*
D28*
X77375000Y-35025000D03*
D29*
X69775000Y-35275000D03*
D30*
X69775000Y-46625000D03*
D31*
X78025000Y-46975000D03*
%TD*%
D32*
%TO.C,D1*%
X22335000Y-58185000D03*
X29135000Y-58185000D03*
%TD*%
D10*
%TO.C,R41*%
X54912500Y-34155000D03*
X56737500Y-34155000D03*
%TD*%
%TO.C,R58*%
X31162500Y-24305000D03*
X32987500Y-24305000D03*
%TD*%
D33*
%TO.C,PF3*%
X62952500Y-70975000D03*
X65877500Y-70975000D03*
%TD*%
D10*
%TO.C,R27*%
X43412500Y-26575000D03*
X45237500Y-26575000D03*
%TD*%
D34*
%TO.C,C22*%
X63870000Y-26795000D03*
X66820000Y-26795000D03*
%TD*%
D35*
%TO.C,U4*%
X43250000Y-1540000D03*
X43250000Y-2810000D03*
X43250000Y-4080000D03*
X43250000Y-5350000D03*
X43250000Y-6620000D03*
X43250000Y-7890000D03*
X43250000Y-9160000D03*
X43250000Y-10430000D03*
X43250000Y-11700000D03*
X43250000Y-12970000D03*
X43250000Y-14240000D03*
X43250000Y-15510000D03*
X43250000Y-16780000D03*
X43250000Y-18050000D03*
D36*
X45015000Y-19300000D03*
X46285000Y-19300000D03*
X47555000Y-19300000D03*
X48825000Y-19300000D03*
X50095000Y-19300000D03*
X51365000Y-19300000D03*
X52635000Y-19300000D03*
X53905000Y-19300000D03*
X55175000Y-19300000D03*
X56445000Y-19300000D03*
X57715000Y-19300000D03*
X58985000Y-19300000D03*
D35*
X60750000Y-18050000D03*
X60750000Y-16780000D03*
X60750000Y-15510000D03*
X60750000Y-14240000D03*
X60750000Y-12970000D03*
X60750000Y-11700000D03*
X60750000Y-10430000D03*
X60750000Y-9160000D03*
X60750000Y-7890000D03*
X60750000Y-6620000D03*
X60750000Y-5350000D03*
X60750000Y-4080000D03*
X60750000Y-2810000D03*
X60750000Y-1540000D03*
D37*
X49100000Y-8560000D03*
X49100000Y-9960000D03*
X49800000Y-7860000D03*
X49800000Y-9260000D03*
X49800000Y-10660000D03*
X50500000Y-8560000D03*
D38*
X50500000Y-9260000D03*
D37*
X50500000Y-9960000D03*
X51200000Y-7860000D03*
X51200000Y-9260000D03*
X51200000Y-10660000D03*
X51900000Y-8560000D03*
X51900000Y-9960000D03*
%TD*%
D34*
%TO.C,C25*%
X62870000Y-19285000D03*
X65820000Y-19285000D03*
%TD*%
D11*
%TO.C,JP12*%
X39435000Y-19165000D03*
X40735000Y-19165000D03*
%TD*%
D17*
%TO.C,D8*%
X11045000Y-8795000D03*
X15045000Y-8795000D03*
%TD*%
D34*
%TO.C,C17*%
X50025000Y-63600000D03*
X52975000Y-63600000D03*
%TD*%
D39*
%TO.C,C3*%
X11695000Y-48845000D03*
X20095000Y-48845000D03*
%TD*%
D11*
%TO.C,JP2*%
X10545000Y-19165000D03*
X11845000Y-19165000D03*
%TD*%
D14*
%TO.C,H1*%
X4000000Y-4000000D03*
%TD*%
D19*
%TO.C,U5*%
X62957500Y-14995000D03*
X62957500Y-15945000D03*
X62957500Y-16895000D03*
X65232500Y-16895000D03*
X65232500Y-15945000D03*
X65232500Y-14995000D03*
%TD*%
D10*
%TO.C,R48*%
X14162500Y-24305000D03*
X15987500Y-24305000D03*
%TD*%
D13*
%TO.C,TP2*%
X39640000Y-71096200D03*
%TD*%
D34*
%TO.C,C18*%
X55025000Y-63600000D03*
X57975000Y-63600000D03*
%TD*%
D10*
%TO.C,R9*%
X37387500Y-53400000D03*
X39212500Y-53400000D03*
%TD*%
%TO.C,R43*%
X25772500Y-39075000D03*
X27597500Y-39075000D03*
%TD*%
D40*
%TO.C,C4*%
X37675000Y-45100000D03*
X34725000Y-45100000D03*
%TD*%
D10*
%TO.C,R49*%
X10312500Y-26695000D03*
X12137500Y-26695000D03*
%TD*%
%TO.C,R66*%
X43402500Y-74685000D03*
X45227500Y-74685000D03*
%TD*%
D11*
%TO.C,JP4*%
X10545000Y-16175000D03*
X11845000Y-16175000D03*
X13145000Y-16175000D03*
%TD*%
D15*
%TO.C,J3*%
X26000000Y-81500000D03*
D16*
X28540000Y-81500000D03*
X31080000Y-81500000D03*
X33620000Y-81500000D03*
%TD*%
D12*
%TO.C,C16*%
X39550000Y-66800000D03*
X41450000Y-66800000D03*
%TD*%
%TO.C,C32*%
X21865000Y-39105000D03*
X23765000Y-39105000D03*
%TD*%
D13*
%TO.C,TP7*%
X42632500Y-71096200D03*
%TD*%
D12*
%TO.C,C33*%
X10295000Y-21885000D03*
X12195000Y-21885000D03*
%TD*%
%TO.C,C14*%
X41050000Y-53400000D03*
X42950000Y-53400000D03*
%TD*%
D10*
%TO.C,R38*%
X54912500Y-31315000D03*
X56737500Y-31315000D03*
%TD*%
D17*
%TO.C,D14*%
X36145000Y-8795000D03*
X40145000Y-8795000D03*
%TD*%
D10*
%TO.C,R45*%
X14162500Y-42065000D03*
X15987500Y-42065000D03*
%TD*%
%TO.C,R42*%
X59212500Y-34155000D03*
X61037500Y-34155000D03*
%TD*%
D12*
%TO.C,C8*%
X50050000Y-50800000D03*
X51950000Y-50800000D03*
%TD*%
D41*
%TO.C,U2*%
X42500000Y-42000000D03*
D42*
X39937500Y-40095000D03*
X39937500Y-41365000D03*
X39937500Y-42635000D03*
X39937500Y-43905000D03*
X45062500Y-43905000D03*
X45062500Y-42635000D03*
X45062500Y-41365000D03*
X45062500Y-40095000D03*
%TD*%
D10*
%TO.C,R46*%
X14202500Y-21855000D03*
X16027500Y-21855000D03*
%TD*%
%TO.C,R12*%
X41587500Y-64000000D03*
X43412500Y-64000000D03*
%TD*%
%TO.C,R56*%
X31202500Y-21855000D03*
X33027500Y-21855000D03*
%TD*%
D11*
%TO.C,JP1*%
X10545000Y-39375000D03*
X11845000Y-39375000D03*
%TD*%
D43*
%TO.C,F1*%
X22897500Y-63455000D03*
X25697500Y-63455000D03*
%TD*%
D10*
%TO.C,R6*%
X41587500Y-48200000D03*
X43412500Y-48200000D03*
%TD*%
%TO.C,R64*%
X35412500Y-26695000D03*
X37237500Y-26695000D03*
%TD*%
D15*
%TO.C,J5*%
X27500000Y-3000000D03*
D16*
X30040000Y-3000000D03*
X32580000Y-3000000D03*
X35120000Y-3000000D03*
X37660000Y-3000000D03*
X40200000Y-3000000D03*
%TD*%
D18*
%TO.C,D15*%
X35637500Y-11785000D03*
X35637500Y-13685000D03*
X37512500Y-12735000D03*
%TD*%
D10*
%TO.C,R10*%
X37587500Y-64000000D03*
X39412500Y-64000000D03*
%TD*%
D12*
%TO.C,C37*%
X43795000Y-34015000D03*
X45695000Y-34015000D03*
%TD*%
D10*
%TO.C,R19*%
X70552500Y-21875000D03*
X72377500Y-21875000D03*
%TD*%
D18*
%TO.C,Q3*%
X64387500Y-50095000D03*
X64387500Y-51995000D03*
X66262500Y-51045000D03*
%TD*%
D10*
%TO.C,R53*%
X22662500Y-24305000D03*
X24487500Y-24305000D03*
%TD*%
D44*
%TO.C,J10*%
X5000000Y-18000000D03*
D45*
X5000000Y-20000000D03*
X5000000Y-22000000D03*
X5000000Y-24000000D03*
X5000000Y-26000000D03*
X5000000Y-28000000D03*
X5000000Y-30000000D03*
X5000000Y-32000000D03*
%TD*%
D12*
%TO.C,C31*%
X17975000Y-39105000D03*
X19875000Y-39105000D03*
%TD*%
D34*
%TO.C,C10*%
X50025000Y-47800000D03*
X52975000Y-47800000D03*
%TD*%
D46*
%TO.C,L3*%
X18360000Y-28945000D03*
X22910000Y-28945000D03*
X18360000Y-31445000D03*
X22910000Y-31445000D03*
%TD*%
D10*
%TO.C,R11*%
X45587500Y-64000000D03*
X47412500Y-64000000D03*
%TD*%
D41*
%TO.C,U3*%
X42500000Y-57800000D03*
D42*
X39937500Y-55895000D03*
X39937500Y-57165000D03*
X39937500Y-58435000D03*
X39937500Y-59705000D03*
X45062500Y-59705000D03*
X45062500Y-58435000D03*
X45062500Y-57165000D03*
X45062500Y-55895000D03*
%TD*%
D47*
%TO.C,Q1*%
X10595000Y-56055000D03*
X10595000Y-58335000D03*
D48*
X16895000Y-58335000D03*
D47*
X10595000Y-60615000D03*
%TD*%
D34*
%TO.C,C28*%
X50670000Y-22595000D03*
X53620000Y-22595000D03*
%TD*%
D17*
%TO.C,D12*%
X28045000Y-8795000D03*
X32045000Y-8795000D03*
%TD*%
D13*
%TO.C,TP4*%
X33800000Y-37400000D03*
%TD*%
D11*
%TO.C,JP9*%
X31335000Y-19165000D03*
X32635000Y-19165000D03*
%TD*%
D13*
%TO.C,TP3*%
X15087500Y-63576200D03*
%TD*%
D10*
%TO.C,R22*%
X63812500Y-34225000D03*
X65637500Y-34225000D03*
%TD*%
%TO.C,R52*%
X18812500Y-24305000D03*
X20637500Y-24305000D03*
%TD*%
D49*
%TO.C,FB2*%
X15282500Y-74685000D03*
X17407500Y-74685000D03*
%TD*%
D10*
%TO.C,R54*%
X18812500Y-26695000D03*
X20637500Y-26695000D03*
%TD*%
D17*
%TO.C,D3*%
X11045000Y-71595000D03*
X15045000Y-71595000D03*
%TD*%
D50*
%TO.C,L1*%
X50000000Y-42000000D03*
X56000000Y-42000000D03*
%TD*%
D51*
%TO.C,D5*%
X67335000Y-15395000D03*
X70635000Y-15395000D03*
%TD*%
D15*
%TO.C,J6*%
X70500000Y-81500000D03*
D16*
X73040000Y-81500000D03*
X75580000Y-81500000D03*
%TD*%
D12*
%TO.C,C29*%
X56135000Y-22425000D03*
X58035000Y-22425000D03*
%TD*%
D50*
%TO.C,L2*%
X50000000Y-57800000D03*
X56000000Y-57800000D03*
%TD*%
D15*
%TO.C,J7*%
X10000000Y-3000000D03*
D16*
X12540000Y-3000000D03*
X15080000Y-3000000D03*
X17620000Y-3000000D03*
X20160000Y-3000000D03*
X22700000Y-3000000D03*
%TD*%
D52*
%TO.C,U8*%
X44025000Y-29795000D03*
X44025000Y-30295000D03*
X44025000Y-30795000D03*
X44025000Y-31295000D03*
X44025000Y-31795000D03*
X48425000Y-31795000D03*
X48425000Y-31295000D03*
X48425000Y-30795000D03*
X48425000Y-30295000D03*
X48425000Y-29795000D03*
%TD*%
D33*
%TO.C,PF2*%
X67952500Y-19265000D03*
X70877500Y-19265000D03*
%TD*%
D10*
%TO.C,R17*%
X63812500Y-31835000D03*
X65637500Y-31835000D03*
%TD*%
D17*
%TO.C,D10*%
X19545000Y-8795000D03*
X23545000Y-8795000D03*
%TD*%
D12*
%TO.C,C12*%
X55550000Y-50400000D03*
X57450000Y-50400000D03*
%TD*%
D10*
%TO.C,R28*%
X59812500Y-54185000D03*
X61637500Y-54185000D03*
%TD*%
D18*
%TO.C,Q2*%
X60037500Y-50095000D03*
X60037500Y-51995000D03*
X61912500Y-51045000D03*
%TD*%
%TO.C,D13*%
X27537500Y-11785000D03*
X27537500Y-13685000D03*
X29412500Y-12735000D03*
%TD*%
D34*
%TO.C,C11*%
X55025000Y-47800000D03*
X57975000Y-47800000D03*
%TD*%
D53*
%TO.C,D4*%
X35677500Y-74685000D03*
X37552500Y-74685000D03*
%TD*%
D13*
%TO.C,TP5*%
X33500000Y-68200000D03*
%TD*%
D15*
%TO.C,J4*%
X41000000Y-81500000D03*
D16*
X43540000Y-81500000D03*
X46080000Y-81500000D03*
X48620000Y-81500000D03*
%TD*%
D10*
%TO.C,R16*%
X71592500Y-29385000D03*
X73417500Y-29385000D03*
%TD*%
%TO.C,R47*%
X10312500Y-24305000D03*
X12137500Y-24305000D03*
%TD*%
D17*
%TO.C,D7*%
X18535000Y-35885000D03*
X22535000Y-35885000D03*
%TD*%
D33*
%TO.C,PF1*%
X10362500Y-74965000D03*
X13287500Y-74965000D03*
%TD*%
D10*
%TO.C,R30*%
X59812500Y-56575000D03*
X61637500Y-56575000D03*
%TD*%
D11*
%TO.C,JP5*%
X19045000Y-19165000D03*
X20345000Y-19165000D03*
%TD*%
D44*
%TO.C,J1*%
X5000000Y-50000000D03*
D45*
X5000000Y-52000000D03*
X5000000Y-54000000D03*
X5000000Y-56000000D03*
%TD*%
D10*
%TO.C,R4*%
X37587500Y-48200000D03*
X39412500Y-48200000D03*
%TD*%
%TO.C,R61*%
X39302500Y-21855000D03*
X41127500Y-21855000D03*
%TD*%
%TO.C,R59*%
X27312500Y-26695000D03*
X29137500Y-26695000D03*
%TD*%
D12*
%TO.C,C13*%
X33550000Y-55700000D03*
X35450000Y-55700000D03*
%TD*%
D54*
%TO.C,FB1*%
X17602500Y-63525000D03*
X20752500Y-63525000D03*
%TD*%
D12*
%TO.C,C36*%
X35395000Y-21885000D03*
X37295000Y-21885000D03*
%TD*%
D13*
%TO.C,TP8*%
X25777500Y-35386200D03*
%TD*%
D10*
%TO.C,R62*%
X35412500Y-24305000D03*
X37237500Y-24305000D03*
%TD*%
D11*
%TO.C,JP6*%
X22835000Y-19165000D03*
X24135000Y-19165000D03*
%TD*%
D55*
%TO.C,SW1*%
X74850000Y-54600000D03*
X81150000Y-54600000D03*
X74850000Y-58400000D03*
X81150000Y-58400000D03*
%TD*%
D11*
%TO.C,JP8*%
X27545000Y-19165000D03*
X28845000Y-19165000D03*
%TD*%
D10*
%TO.C,R25*%
X43412500Y-21795000D03*
X45237500Y-21795000D03*
%TD*%
D12*
%TO.C,C23*%
X72775000Y-26625000D03*
X74675000Y-26625000D03*
%TD*%
D10*
%TO.C,R65*%
X39262500Y-26695000D03*
X41087500Y-26695000D03*
%TD*%
%TO.C,R36*%
X59212500Y-28475000D03*
X61037500Y-28475000D03*
%TD*%
D12*
%TO.C,C35*%
X27295000Y-21885000D03*
X29195000Y-21885000D03*
%TD*%
D19*
%TO.C,U6*%
X58457500Y-70595000D03*
X58457500Y-71545000D03*
X58457500Y-72495000D03*
X60732500Y-72495000D03*
X60732500Y-70595000D03*
%TD*%
D13*
%TO.C,TP6*%
X18287500Y-71096200D03*
%TD*%
D10*
%TO.C,R13*%
X44787500Y-53400000D03*
X46612500Y-53400000D03*
%TD*%
%TO.C,R8*%
X43587500Y-51000000D03*
X45412500Y-51000000D03*
%TD*%
%TO.C,R51*%
X22702500Y-21855000D03*
X24527500Y-21855000D03*
%TD*%
%TO.C,R23*%
X67952500Y-70795000D03*
X69777500Y-70795000D03*
%TD*%
D12*
%TO.C,C7*%
X41050000Y-37600000D03*
X42950000Y-37600000D03*
%TD*%
%TO.C,C9*%
X39550000Y-51000000D03*
X41450000Y-51000000D03*
%TD*%
D56*
%TO.C,C5*%
X37250000Y-42200000D03*
X35350000Y-42200000D03*
%TD*%
D11*
%TO.C,JP7*%
X19045000Y-16175000D03*
X20345000Y-16175000D03*
X21645000Y-16175000D03*
%TD*%
D12*
%TO.C,C26*%
X62795000Y-21905000D03*
X64695000Y-21905000D03*
%TD*%
D55*
%TO.C,SW2*%
X74850000Y-61600000D03*
X81150000Y-61600000D03*
X74850000Y-65400000D03*
X81150000Y-65400000D03*
%TD*%
D12*
%TO.C,C21*%
X68885000Y-26625000D03*
X70785000Y-26625000D03*
%TD*%
D18*
%TO.C,D11*%
X19037500Y-11785000D03*
X19037500Y-13685000D03*
X20912500Y-12735000D03*
%TD*%
D10*
%TO.C,R39*%
X59212500Y-31315000D03*
X61037500Y-31315000D03*
%TD*%
%TO.C,R21*%
X71512500Y-31835000D03*
X73337500Y-31835000D03*
%TD*%
D34*
%TO.C,C20*%
X20852500Y-70995000D03*
X23802500Y-70995000D03*
%TD*%
D57*
%TO.C,U7*%
X10770000Y-29040000D03*
X10770000Y-30310000D03*
X10770000Y-31580000D03*
X10770000Y-32850000D03*
X15720000Y-32850000D03*
X15720000Y-31580000D03*
X15720000Y-30310000D03*
X15720000Y-29040000D03*
%TD*%
D58*
%TO.C,D2*%
X35445000Y-77135000D03*
X37545000Y-77135000D03*
%TD*%
D10*
%TO.C,R55*%
X22662500Y-26695000D03*
X24487500Y-26695000D03*
%TD*%
%TO.C,R31*%
X50612500Y-25635000D03*
X52437500Y-25635000D03*
%TD*%
%TO.C,R1*%
X13902500Y-67165000D03*
X15727500Y-67165000D03*
%TD*%
M02*
