M48
; DRILL file {KiCad 9.0.5} date 2026-08-12T17:59:10-0400
; FORMAT={-:-/ absolute / metric / decimal}
; #@! TF.CreationDate,2026-08-12T17:59:10-04:00
; #@! TF.GenerationSoftware,Kicad,Pcbnew,9.0.5
; #@! TF.FileFunction,Plated,1,4,PTH
FMAT,2
METRIC
; #@! TA.AperFunction,Plated,PTH,ComponentDrill
T1C0.200
; #@! TA.AperFunction,Plated,PTH,ViaDrill
T2C0.250
; #@! TA.AperFunction,Plated,PTH,ViaDrill
T3C0.300
; #@! TA.AperFunction,Plated,PTH,ViaDrill
T4C0.400
; #@! TA.AperFunction,Plated,PTH,ComponentDrill
T5C0.600
; #@! TA.AperFunction,Plated,PTH,ComponentDrill
T6C0.750
; #@! TA.AperFunction,Plated,PTH,ComponentDrill
T7C1.000
%
G90
G05
T1
X41.85Y-40.05
X41.85Y-41.35
X41.85Y-42.65
X41.85Y-43.95
X41.85Y-55.85
X41.85Y-57.15
X41.85Y-58.45
X41.85Y-59.75
X43.15Y-40.05
X43.15Y-41.35
X43.15Y-42.65
X43.15Y-43.95
X43.15Y-55.85
X43.15Y-57.15
X43.15Y-58.45
X43.15Y-59.75
X49.1Y-8.56
X49.1Y-9.96
X49.8Y-7.86
X49.8Y-9.26
X49.8Y-10.66
X50.5Y-8.56
X50.5Y-9.96
X51.2Y-7.86
X51.2Y-9.26
X51.2Y-10.66
X51.9Y-8.56
X51.9Y-9.96
T2
X64.07Y-9.745
X68.66Y-9.745
T3
X1.816Y-44.382
X2.837Y-79.326
X2.963Y-15.352
X6.016Y-72.869
X7.188Y-24.837
X7.672Y-33.867
X8.454Y-27.501
X8.992Y-69.528
X10.157Y-72.24
X10.312Y-33.418
X10.545Y-16.418
X10.744Y-24.193
X10.945Y-72.79
X11.293Y-30.8
X11.845Y-16.4
X11.845Y-46.666
X12.855Y-22.637
X13.045Y-6.482
X14.402Y-35.5
X15.076Y-29.813
X16.224Y-72.427
X21.521Y-19.887
X25.35Y-27.66
X25.781Y-43.527
X26.059Y-21.14
X26.997Y-30.222
X27.108Y-68.646
X28.409Y-46.666
X28.845Y-19.469
X31.162Y-30.519
X31.18Y-18.654
X31.202Y-23.886
X31.722Y-55.792
X33.271Y-17.565
X33.55Y-57.272
X33.656Y-22.093
X33.919Y-29.811
X34.266Y-79.326
X38.283Y-38.53
X38.537Y-58.133
X38.546Y-42.602
X39.212Y-55.002
X39.302Y-27.024
X39.837Y-17.878
X40.183Y-38.535
X40.215Y-27.059
X40.901Y-18.731
X40.929Y-19.533
X41.05Y-54.732
X41.647Y-10.801
X41.984Y-11.627
X41.996Y-16.293
X42.32Y-28.938
X42.381Y-27.347
X42.667Y-31.161
X42.971Y-68.568
X43.413Y-23.014
X43.485Y-19.669
X43.587Y-49.774
X44.65Y-15.0
X45.28Y-31.74
X45.323Y-11.967
X46.163Y-30.758
X46.285Y-15.666
X46.326Y-57.752
X46.364Y-28.452
X46.443Y-60.253
X46.482Y-42.357
X46.612Y-38.932
X46.612Y-55.578
X46.876Y-46.675
X46.902Y-23.213
X46.902Y-26.754
X47.101Y-32.673
X47.28Y-74.76
X47.28Y-78.928
X47.555Y-29.11
X48.192Y-50.199
X48.456Y-25.293
X48.678Y-18.021
X49.252Y-28.46
X50.243Y-16.146
X50.55Y-65.154
X51.365Y-17.044
X51.411Y-23.927
X51.457Y-30.283
X52.4Y-22.258
X52.438Y-30.33
X53.099Y-17.387
X53.389Y-89.102
X53.453Y-35.005
X53.466Y-32.884
X53.533Y-85.553
X53.905Y-17.496
X54.723Y-8.45
X54.766Y-84.095
X54.887Y-24.641
X55.188Y-17.997
X55.212Y-87.357
X55.364Y-27.727
X55.8Y-24.097
X56.538Y-4.916
X56.737Y-27.276
X57.512Y-15.802
X57.718Y-20.564
X57.773Y-32.539
X58.003Y-26.65
X58.25Y-37.365
X58.765Y-15.936
X59.024Y-11.199
X59.212Y-27.18
X59.475Y-5.866
X59.475Y-9.16
X59.491Y-10.43
X59.495Y-3.478
X59.748Y-20.984
X60.379Y-24.176
X61.035Y-20.571
X61.039Y-38.602
X61.986Y-33.201
X62.05Y-11.5
X62.285Y-34.391
X62.832Y-52.511
X63.056Y-34.808
X63.206Y-7.962
X63.758Y-11.495
X64.597Y-42.232
X65.233Y-7.957
X65.356Y-37.973
X65.855Y-28.371
X66.85Y-7.3
X67.115Y-41.618
X68.85Y-27.707
X69.792Y-33.609
X70.009Y-31.199
X70.15Y-12.5
X70.855Y-27.114
X71.55Y-8.3
X72.0Y-34.796
X72.566Y-35.995
X72.566Y-67.269
X73.35Y-11.5
X73.847Y-60.027
X74.58Y-15.25
X74.58Y-16.25
X74.85Y-55.6
X74.85Y-62.6
X76.283Y-31.5
X77.03Y-15.75
X77.03Y-16.75
X78.875Y-36.813
X80.975Y-30.899
X81.15Y-55.6
X81.15Y-62.6
X82.677Y-36.47
T4
X6.375Y-18.0
X6.375Y-32.0
X7.516Y-38.012
X8.995Y-70.478
X11.775Y-12.67
X11.775Y-14.57
X12.245Y-36.11
X12.761Y-74.287
X13.061Y-26.037
X13.15Y-32.005
X14.951Y-45.744
X16.56Y-42.498
X16.795Y-8.795
X16.851Y-45.744
X17.0Y-32.005
X17.195Y-38.65
X19.045Y-20.426
X20.275Y-12.67
X20.275Y-14.57
X20.59Y-73.645
X20.741Y-45.744
X21.561Y-26.037
X21.65Y-32.005
X22.795Y-55.245
X22.897Y-67.825
X24.285Y-41.798
X24.72Y-45.102
X25.295Y-8.795
X25.5Y-32.005
X25.903Y-75.451
X28.775Y-12.67
X28.775Y-14.57
X30.061Y-26.037
X30.15Y-32.005
X30.855Y-20.364
X30.885Y-64.612
X31.15Y-83.5
X33.185Y-74.196
X33.795Y-8.795
X34.0Y-32.005
X34.75Y-68.2
X35.8Y-45.1
X35.8Y-60.9
X35.819Y-77.561
X36.192Y-37.6
X36.216Y-42.812
X36.216Y-58.612
X36.45Y-39.9
X36.45Y-55.7
X36.875Y-12.67
X36.875Y-14.57
X37.25Y-56.35
X37.675Y-46.75
X38.061Y-74.621
X38.161Y-26.037
X38.25Y-32.005
X38.65Y-70.745
X38.736Y-40.495
X38.736Y-56.295
X39.251Y-86.885
X39.887Y-75.223
X40.425Y-48.2
X40.425Y-64.0
X41.316Y-72.128
X41.509Y-69.82
X41.795Y-82.795
X41.895Y-8.795
X42.0Y-79.005
X42.1Y-32.005
X44.425Y-48.2
X44.425Y-64.0
X44.5Y-1.54
X44.5Y-2.81
X44.661Y-35.587
X45.25Y-29.795
X45.25Y-30.795
X45.475Y-71.695
X45.89Y-73.978
X46.094Y-65.039
X46.25Y-21.795
X46.25Y-24.6
X46.25Y-27.405
X46.425Y-51.0
X46.425Y-66.8
X46.695Y-34.975
X48.295Y-86.595
X49.65Y-30.795
X49.775Y-70.295
X49.775Y-72.195
X50.464Y-88.895
X50.716Y-85.112
X51.061Y-76.028
X51.1Y-63.6
X52.95Y-66.6
X53.906Y-48.5
X53.906Y-64.3
X54.695Y-22.595
X54.864Y-79.435
X54.908Y-75.985
X55.87Y-62.18
X56.1Y-63.6
X56.416Y-66.812
X56.595Y-78.835
X57.6Y-57.8
X58.45Y-50.4
X58.45Y-66.2
X58.473Y-54.106
X58.695Y-78.835
X58.89Y-75.385
X59.035Y-22.425
X59.05Y-47.8
X59.05Y-63.6
X59.719Y-36.444
X60.319Y-55.339
X60.383Y-70.796
X61.275Y-51.995
X61.855Y-44.459
X62.0Y-1.54
X62.65Y-56.805
X63.037Y-13.641
X63.095Y-35.745
X63.095Y-39.847
X63.245Y-18.25
X64.045Y-15.645
X64.31Y-18.987
X64.661Y-30.312
X65.625Y-51.995
X65.65Y-22.315
X65.812Y-9.7
X66.561Y-30.312
X66.743Y-15.645
X66.909Y-20.866
X66.984Y-26.645
X67.695Y-35.745
X67.695Y-39.847
X68.029Y-42.056
X68.209Y-30.709
X68.781Y-12.685
X69.295Y-25.695
X69.512Y-9.7
X70.364Y-33.005
X70.611Y-20.207
X71.025Y-38.675
X72.019Y-33.444
X72.059Y-30.709
X72.085Y-16.975
X72.101Y-26.395
X73.64Y-16.19
X74.58Y-12.75
X74.59Y-19.565
X75.18Y-28.331
X75.805Y-20.05
X75.869Y-33.444
X76.001Y-26.137
X76.2Y-58.4
X76.2Y-65.4
X77.991Y-26.137
X78.24Y-29.67
X78.754Y-10.694
X79.252Y-28.11
X80.025Y-25.525
X81.725Y-46.575
X82.05Y-32.405
X82.5Y-58.4
X82.5Y-65.4
X82.65Y-77.0
T6
X5.0Y-18.0
X5.0Y-20.0
X5.0Y-22.0
X5.0Y-24.0
X5.0Y-26.0
X5.0Y-28.0
X5.0Y-30.0
X5.0Y-32.0
X5.0Y-50.0
X5.0Y-52.0
X5.0Y-54.0
X5.0Y-56.0
T7
X10.0Y-3.0
X12.54Y-3.0
X15.08Y-3.0
X17.62Y-3.0
X20.16Y-3.0
X22.7Y-3.0
X26.0Y-97.5
X27.5Y-3.0
X28.54Y-97.5
X30.04Y-3.0
X31.08Y-97.5
X32.58Y-3.0
X33.62Y-97.5
X35.12Y-3.0
X37.66Y-3.0
X40.2Y-3.0
X41.0Y-97.5
X43.54Y-97.5
X46.08Y-97.5
X48.62Y-97.5
X56.0Y-97.5
X58.54Y-97.5
X61.08Y-97.5
X63.62Y-97.5
X69.0Y-97.5
X71.54Y-97.5
X74.08Y-97.5
T5
X76.17Y-11.68G85X77.27Y-11.68
G05
X76.17Y-20.32G85X77.27Y-20.32
G05
X80.6Y-11.68G85X81.2Y-11.68
G05
X80.6Y-20.32G85X81.2Y-20.32
G05
M30
