%TF.GenerationSoftware,KiCad,Pcbnew,9.0.5*%
%TF.CreationDate,2026-08-10T21:12:28-04:00*%
%TF.ProjectId,esp32s3-can-sd-logger,65737033-3273-4332-9d63-616e2d73642d,rev?*%
%TF.SameCoordinates,Original*%
%TF.FileFunction,Copper,L4,Bot*%
%TF.FilePolarity,Positive*%
%FSLAX46Y46*%
G04 Gerber Fmt 4.6, Leading zero omitted, Abs format (unit mm)*
G04 Created by KiCad (PCBNEW 9.0.5) date 2026-08-10 21:12:28*
%MOMM*%
%LPD*%
G01*
G04 APERTURE LIST*
G04 Aperture macros list*
%AMRoundRect*
0 Rectangle with rounded corners*
0 $1 Rounding radius*
0 $2 $3 $4 $5 $6 $7 $8 $9 X,Y pos of 4 corners*
0 Add a 4 corners polygon primitive as box body*
4,1,4,$2,$3,$4,$5,$6,$7,$8,$9,$2,$3,0*
0 Add four circle primitives for the rounded corners*
1,1,$1+$1,$2,$3*
1,1,$1+$1,$4,$5*
1,1,$1+$1,$6,$7*
1,1,$1+$1,$8,$9*
0 Add four rect primitives between the rounded corners*
20,1,$1+$1,$2,$3,$4,$5,0*
20,1,$1+$1,$4,$5,$6,$7,0*
20,1,$1+$1,$6,$7,$8,$9,0*
20,1,$1+$1,$8,$9,$2,$3,0*%
G04 Aperture macros list end*
%TA.AperFunction,ComponentPad*%
%ADD10R,1.700000X1.700000*%
%TD*%
%TA.AperFunction,ComponentPad*%
%ADD11C,1.700000*%
%TD*%
%TA.AperFunction,HeatsinkPad*%
%ADD12C,0.600000*%
%TD*%
%TA.AperFunction,ComponentPad*%
%ADD13RoundRect,0.250000X-0.625000X0.350000X-0.625000X-0.350000X0.625000X-0.350000X0.625000X0.350000X0*%
%TD*%
%TA.AperFunction,ComponentPad*%
%ADD14O,1.750000X1.200000*%
%TD*%
%TA.AperFunction,HeatsinkPad*%
%ADD15O,2.100000X1.000000*%
%TD*%
%TA.AperFunction,HeatsinkPad*%
%ADD16O,1.600000X1.000000*%
%TD*%
%TA.AperFunction,HeatsinkPad*%
%ADD17C,0.500000*%
%TD*%
%TA.AperFunction,HeatsinkPad*%
%ADD18R,1.800000X4.400000*%
%TD*%
%TA.AperFunction,ViaPad*%
%ADD19C,0.600000*%
%TD*%
%TA.AperFunction,ViaPad*%
%ADD20C,0.800000*%
%TD*%
%TA.AperFunction,ViaPad*%
%ADD21C,0.500000*%
%TD*%
%TA.AperFunction,Conductor*%
%ADD22C,0.500000*%
%TD*%
%TA.AperFunction,Conductor*%
%ADD23C,0.450000*%
%TD*%
%TA.AperFunction,Conductor*%
%ADD24C,0.250000*%
%TD*%
G04 APERTURE END LIST*
D10*
%TO.P,J4,1*%
%TO.N,GND*%
X41000000Y-71500000D03*
D11*
%TO.P,J4,2*%
%TO.N,+3V3*%
X43540000Y-71500000D03*
%TO.P,J4,3*%
%TO.N,I2C_SDA*%
X46080000Y-71500000D03*
%TO.P,J4,4*%
%TO.N,I2C_SCL*%
X48620000Y-71500000D03*
%TD*%
D12*
%TO.P,U4,41*%
%TO.N,GND*%
X49100000Y-8560000D03*
X49100000Y-9960000D03*
X49800000Y-7860000D03*
X49800000Y-9260000D03*
X49800000Y-10660000D03*
X50500000Y-8560000D03*
X50500000Y-9960000D03*
X51200000Y-7860000D03*
X51200000Y-9260000D03*
X51200000Y-10660000D03*
X51900000Y-8560000D03*
X51900000Y-9960000D03*
%TD*%
D10*
%TO.P,J7,1*%
%TO.N,IO3*%
X10000000Y-3000000D03*
D11*
%TO.P,J7,2*%
%TO.N,IO45*%
X12540000Y-3000000D03*
%TO.P,J7,3*%
%TO.N,IO46*%
X15080000Y-3000000D03*
%TD*%
D13*
%TO.P,J10,1*%
%TO.N,+5VS*%
X5000000Y-18000000D03*
D14*
%TO.P,J10,2*%
%TO.N,AIN1_IN*%
X5000000Y-20000000D03*
%TO.P,J10,3*%
%TO.N,AIN2_IN*%
X5000000Y-22000000D03*
%TO.P,J10,4*%
%TO.N,AIN3_IN*%
X5000000Y-24000000D03*
%TO.P,J10,5*%
%TO.N,AIN4_IN*%
X5000000Y-26000000D03*
%TO.P,J10,6*%
%TO.N,GND*%
X5000000Y-28000000D03*
%TO.P,J10,7*%
X5000000Y-30000000D03*
%TO.P,J10,8*%
%TO.N,+5VS*%
X5000000Y-32000000D03*
%TD*%
D13*
%TO.P,J1,1*%
%TO.N,VBAT_IN*%
X5000000Y-50000000D03*
D14*
%TO.P,J1,2*%
%TO.N,GND*%
X5000000Y-52000000D03*
%TO.P,J1,3*%
%TO.N,CAN_H*%
X5000000Y-54000000D03*
%TO.P,J1,4*%
%TO.N,CAN_L*%
X5000000Y-56000000D03*
%TD*%
D15*
%TO.P,J2,S1*%
%TO.N,GND*%
X79130000Y-3680000D03*
D16*
X74950000Y-3680000D03*
D15*
X79130000Y-12320000D03*
D16*
X74950000Y-12320000D03*
%TD*%
D10*
%TO.P,J8,1*%
%TO.N,+5V*%
X56000000Y-71500000D03*
D11*
%TO.P,J8,2*%
%TO.N,+3V3*%
X58540000Y-71500000D03*
%TO.P,J8,3*%
%TO.N,GND*%
X61080000Y-71500000D03*
%TO.P,J8,4*%
X63620000Y-71500000D03*
%TD*%
D17*
%TO.P,U2,9*%
%TO.N,GND*%
X41850000Y-40050000D03*
X41850000Y-41350000D03*
X41850000Y-42650000D03*
X41850000Y-43950000D03*
D18*
X42500000Y-42000000D03*
D17*
X43150000Y-40050000D03*
X43150000Y-41350000D03*
X43150000Y-42650000D03*
X43150000Y-43950000D03*
%TD*%
D10*
%TO.P,J5,1*%
%TO.N,+3V3*%
X21700000Y-3000000D03*
D11*
%TO.P,J5,2*%
%TO.N,GND*%
X24240000Y-3000000D03*
%TO.P,J5,3*%
%TO.N,SPI_SCK*%
X26780000Y-3000000D03*
%TO.P,J5,4*%
%TO.N,SPI_MISO*%
X29320000Y-3000000D03*
%TO.P,J5,5*%
%TO.N,SPI_MOSI*%
X31860000Y-3000000D03*
%TO.P,J5,6*%
%TO.N,SPI_CS*%
X34400000Y-3000000D03*
%TD*%
D10*
%TO.P,J6,1*%
%TO.N,LED_5V*%
X70500000Y-71500000D03*
D11*
%TO.P,J6,2*%
%TO.N,LED_DIN*%
X73040000Y-71500000D03*
%TO.P,J6,3*%
%TO.N,GND*%
X75580000Y-71500000D03*
%TD*%
D10*
%TO.P,J3,1*%
%TO.N,+3V3*%
X26000000Y-71500000D03*
D11*
%TO.P,J3,2*%
%TO.N,UART_TX*%
X28540000Y-71500000D03*
%TO.P,J3,3*%
%TO.N,UART_RX*%
X31080000Y-71500000D03*
%TO.P,J3,4*%
%TO.N,GND*%
X33620000Y-71500000D03*
%TD*%
D17*
%TO.P,U3,9*%
%TO.N,GND*%
X41850000Y-55850000D03*
X41850000Y-57150000D03*
X41850000Y-58450000D03*
X41850000Y-59750000D03*
D18*
X42500000Y-57800000D03*
D17*
X43150000Y-55850000D03*
X43150000Y-57150000D03*
X43150000Y-58450000D03*
X43150000Y-59750000D03*
%TD*%
D19*
%TO.N,+3V3*%
X44661000Y-34627500D03*
X28775000Y-9695000D03*
X46425000Y-66800000D03*
X17195000Y-32850000D03*
X46425000Y-51000000D03*
X44500000Y-2810000D03*
X46093800Y-65039200D03*
X64661000Y-27727500D03*
X20275000Y-9695000D03*
X56100000Y-63600000D03*
X72098800Y-28124200D03*
X59718700Y-35194200D03*
X57600000Y-57800000D03*
X52950000Y-66600000D03*
X36875000Y-9695000D03*
X56416000Y-66812500D03*
X73641000Y-24937500D03*
X72018700Y-30574200D03*
X18841000Y-39717500D03*
X64945000Y-24495000D03*
X60318800Y-55224200D03*
X35945000Y-33625000D03*
X34750000Y-68200000D03*
X47200000Y-30795000D03*
X64318700Y-30574200D03*
X11775000Y-9695000D03*
X38240000Y-28785000D03*
X68168700Y-30574200D03*
X61275000Y-51995000D03*
X32975000Y-26595000D03*
X51100000Y-63600000D03*
D20*
%TO.N,+5V*%
X47839300Y-35913200D03*
X68160600Y-50602700D03*
X53417000Y-50602700D03*
X68554000Y-15395000D03*
X65841800Y-25727000D03*
X68554000Y-26050900D03*
X47839300Y-33887800D03*
X47999700Y-46246600D03*
%TO.N,+5VS*%
X27445000Y-25275000D03*
X35845000Y-14475000D03*
X31445000Y-38775000D03*
X43045000Y-69175000D03*
X35545000Y-15875000D03*
X27345000Y-28175000D03*
X21023600Y-13680000D03*
X29645000Y-24475000D03*
X27845000Y-14075000D03*
X29245000Y-33975000D03*
X38545000Y-52075000D03*
%TO.N,+VBAT*%
X12954200Y-60462100D03*
X13914600Y-64749100D03*
D19*
X37675000Y-56365000D03*
X37675000Y-46750000D03*
D20*
X40677100Y-32817200D03*
D19*
%TO.N,AIN1*%
X41954800Y-2626500D03*
X46575900Y-28438300D03*
X57327700Y-2509000D03*
%TO.N,AIN1_IN*%
X11000500Y-19196700D03*
%TO.N,AIN2*%
X44025000Y-32452900D03*
X26133700Y-20119100D03*
X28190700Y-29718900D03*
X56700900Y-3386100D03*
%TO.N,AIN2_IN*%
X20657500Y-16547000D03*
%TO.N,AIN2_R2*%
X21650000Y-21819700D03*
X22668300Y-12185000D03*
%TO.N,AIN3*%
X30037500Y-21669200D03*
X29515200Y-16455800D03*
%TO.N,AIN3_R1*%
X20156600Y-24949200D03*
X26512400Y-12185000D03*
%TO.N,AIN4*%
X47626800Y-32950700D03*
X41897000Y-14550300D03*
X46720500Y-26585000D03*
X42274800Y-21502300D03*
%TO.N,AIN4_IN*%
X37257500Y-16547000D03*
X29465200Y-26000000D03*
%TO.N,AIN4_R2*%
X41668500Y-11028300D03*
X40032400Y-21689400D03*
%TO.N,BST_3V3*%
X46943300Y-57474000D03*
X44227400Y-54831000D03*
%TO.N,BST_5V*%
X46464000Y-42461700D03*
X43893500Y-38889800D03*
%TO.N,CAN_L*%
X20412400Y-35885000D03*
X18473800Y-40981600D03*
X23694500Y-32925900D03*
%TO.N,CAN_RX*%
X12210000Y-33316800D03*
X38056400Y-13454100D03*
%TO.N,CAN_S*%
X25653100Y-28088800D03*
X49504900Y-17542600D03*
X32361300Y-38012000D03*
%TO.N,CAN_TX*%
X40116900Y-12819500D03*
X29363300Y-27413300D03*
%TO.N,EN_3V3*%
X38750200Y-57794100D03*
X40043600Y-54366600D03*
%TO.N,EN_5V*%
X38546700Y-42635000D03*
X39911300Y-38694100D03*
%TO.N,GATE_RB*%
X12988300Y-57435600D03*
X13717600Y-63133200D03*
%TO.N,GND*%
X38250000Y-22705000D03*
X38735900Y-40495000D03*
X44425000Y-48200000D03*
X40425000Y-48200000D03*
X20275000Y-7795000D03*
X67751000Y-25195000D03*
X53906000Y-64300000D03*
X34214300Y-34225000D03*
X21561000Y-18507500D03*
X38550000Y-55895000D03*
X37597500Y-25196200D03*
X38045000Y-33625000D03*
X76200000Y-58400000D03*
X63751000Y-68385000D03*
X76200000Y-65400000D03*
X70451000Y-27727500D03*
X58450000Y-50400000D03*
X22795000Y-48845000D03*
X28610000Y-39075000D03*
X21650000Y-22705000D03*
X34000000Y-22705000D03*
X59035000Y-22425000D03*
X30061000Y-18507500D03*
X71025000Y-38675000D03*
X44425000Y-64000000D03*
X44500000Y-1540000D03*
X65625000Y-51995000D03*
X17000000Y-22705000D03*
X28775000Y-7795000D03*
X69500000Y-21875000D03*
X12245000Y-30310000D03*
X71651000Y-24937500D03*
X58512500Y-64812400D03*
D21*
X64070000Y-15945000D03*
D19*
X75417700Y-51400000D03*
X82500000Y-65400000D03*
X65514300Y-22475000D03*
X66561000Y-27727500D03*
X36216000Y-42812500D03*
X16700000Y-67165000D03*
X71917700Y-51400000D03*
X24285000Y-35885000D03*
X16560500Y-36585000D03*
X30150000Y-22705000D03*
X35800000Y-45100000D03*
X58795000Y-59095000D03*
X13150000Y-22705000D03*
X32975000Y-24695000D03*
X45250000Y-29795000D03*
X42100000Y-22705000D03*
X36875000Y-7795000D03*
X20741000Y-39717500D03*
X11775000Y-7795000D03*
X59050000Y-47800000D03*
X45250000Y-30795000D03*
X54695000Y-22595000D03*
X81270000Y-11250000D03*
X62000000Y-1540000D03*
X25500000Y-22705000D03*
X38161000Y-18507500D03*
X66751000Y-19985000D03*
X34214300Y-31835000D03*
X75675000Y-24325000D03*
X8995000Y-64025000D03*
X46695000Y-34015000D03*
X34261000Y-29427500D03*
X30885000Y-58185000D03*
X58450000Y-66200000D03*
X53906000Y-48500000D03*
X13061000Y-18507500D03*
X24631000Y-39717500D03*
X82500000Y-58400000D03*
X16851000Y-39717500D03*
X40425000Y-64000000D03*
X81725000Y-46575000D03*
X60964300Y-61395000D03*
X66295000Y-64295000D03*
X62650000Y-56575000D03*
X81270000Y-4750000D03*
%TO.N,I2C_SCL*%
X65743800Y-9187000D03*
X72971600Y-28310000D03*
X48425000Y-29140200D03*
%TO.N,I2C_SDA*%
X70674800Y-30511100D03*
X49816600Y-30295000D03*
X65667400Y-10017800D03*
%TO.N,IO3*%
X42523700Y-19093400D03*
%TO.N,IO45*%
X46241700Y-14473000D03*
%TO.N,IO46*%
X45805200Y-18036000D03*
%TO.N,LED1*%
X58811500Y-14612500D03*
X65876400Y-45200000D03*
%TO.N,LED2*%
X70038800Y-50145200D03*
X59443400Y-15406700D03*
%TO.N,LED_DIN*%
X67670600Y-61220800D03*
%TO.N,LED_DIN_MCU*%
X70188200Y-60385700D03*
X60398600Y-23171300D03*
%TO.N,MCU_BOOT*%
X71945100Y-57573300D03*
X66536600Y-30434100D03*
%TO.N,MCU_EN*%
X82435300Y-20921900D03*
X58104500Y-4080000D03*
%TO.N,SD_CD*%
X57705900Y-23875300D03*
X58687500Y-32676300D03*
X62762300Y-29475400D03*
X58184800Y-16033400D03*
X61521400Y-23960100D03*
%TO.N,SD_CLK*%
X50899900Y-24425600D03*
X53334000Y-20555200D03*
%TO.N,SD_CMD_C*%
X51737500Y-31915000D03*
X62630400Y-39209900D03*
X57437500Y-36515000D03*
X51737500Y-35415000D03*
X57598500Y-24680200D03*
%TO.N,SD_D1_C*%
X64690800Y-34968300D03*
X52437600Y-29691300D03*
%TO.N,SD_D2_C*%
X54654000Y-30025800D03*
X57969300Y-35650200D03*
%TO.N,SD_D3*%
X57571100Y-17880900D03*
X60044100Y-27520500D03*
X47528300Y-14967700D03*
X47528300Y-18040800D03*
%TO.N,SD_D3_C*%
X60255700Y-29538900D03*
X58175800Y-33724000D03*
%TO.N,SD_PWR_EN*%
X63287800Y-52957600D03*
X58764400Y-12913800D03*
D20*
%TO.N,SD_VDD*%
X51907400Y-21612400D03*
X56666600Y-46587300D03*
X53770500Y-31891800D03*
X55965900Y-23761000D03*
D19*
%TO.N,SPI_CS*%
X51692000Y-16272600D03*
%TO.N,SPI_MISO*%
X44543700Y-5737000D03*
%TO.N,SPI_MOSI*%
X45898300Y-5285300D03*
%TO.N,SPI_SCK*%
X53103100Y-10356600D03*
%TO.N,UART_RX*%
X56249200Y-6620000D03*
%TO.N,UART_TX*%
X55520900Y-5350000D03*
%TO.N,USB_DM*%
X55541300Y-16428500D03*
X65195800Y-17717800D03*
%TO.N,USB_DP*%
X59421400Y-13943600D03*
X50668300Y-12313700D03*
X64073700Y-14525300D03*
X48155000Y-17231700D03*
%TO.N,USB_DP_CON*%
X75433300Y-8681600D03*
X75433300Y-7428100D03*
D20*
%TO.N,VBAT_IN*%
X22897500Y-64976100D03*
%TO.N,VBAT_SNS*%
X34645800Y-24733600D03*
X40788700Y-8323300D03*
%TO.N,VBUS*%
X67534800Y-16603800D03*
X64342900Y-18235100D03*
%TO.N,VBUS_IN*%
X81677800Y-10359700D03*
X81385200Y-5674000D03*
X77347300Y-9433300D03*
X69437400Y-19265000D03*
X69437400Y-14374900D03*
%TD*%
D22*
%TO.N,+5V*%
X47839300Y-33887800D02*
X47839300Y-35913200D01*
X52886400Y-51133300D02*
X53417000Y-50602700D01*
X56000000Y-68284300D02*
X52886400Y-65170700D01*
X68554000Y-26050900D02*
X68554000Y-15395000D01*
X67352600Y-49794700D02*
X67352600Y-27237800D01*
X56000000Y-71500000D02*
X56000000Y-68284300D01*
X52886400Y-65170700D02*
X52886400Y-51133300D01*
X67352600Y-27237800D02*
X65841800Y-25727000D01*
X52886400Y-51133300D02*
X47999700Y-46246600D01*
X68160600Y-50602700D02*
X67352600Y-49794700D01*
%TO.N,+5VS*%
X3700000Y-19100000D02*
X3700000Y-19200000D01*
X30945000Y-20475000D02*
X35545000Y-15875000D01*
X38445000Y-14275000D02*
X36045000Y-14275000D01*
X38545000Y-14175000D02*
X38445000Y-14275000D01*
X31445000Y-38775000D02*
X31445000Y-36175000D01*
X38845000Y-12975000D02*
X38845000Y-13975000D01*
X38845000Y-13975000D02*
X38645000Y-14175000D01*
X9320000Y-13680000D02*
X5000000Y-18000000D01*
X27845000Y-14075000D02*
X30145000Y-14075000D01*
X4200000Y-18500000D02*
X4200000Y-18600000D01*
X3600000Y-19300000D02*
X3600000Y-30900000D01*
X31345000Y-12875000D02*
X37345000Y-12875000D01*
X30945000Y-23175000D02*
X30945000Y-20475000D01*
X43045000Y-62175000D02*
X41145000Y-60275000D01*
X21023600Y-13680000D02*
X9320000Y-13680000D01*
X3700000Y-19200000D02*
X3600000Y-19300000D01*
X4200000Y-18600000D02*
X3700000Y-19100000D01*
X38645000Y-14175000D02*
X38545000Y-14175000D01*
X31445000Y-36175000D02*
X29245000Y-33975000D01*
X38545000Y-12675000D02*
X38845000Y-12975000D01*
X37345000Y-12875000D02*
X37545000Y-12675000D01*
X3600000Y-30900000D02*
X4300000Y-31600000D01*
X43045000Y-69175000D02*
X43045000Y-62175000D01*
X29645000Y-24475000D02*
X30945000Y-23175000D01*
X27345000Y-28175000D02*
X27345000Y-25375000D01*
X27345000Y-25375000D02*
X27445000Y-25275000D01*
X36045000Y-14275000D02*
X35845000Y-14475000D01*
X40545000Y-53575000D02*
X40045000Y-53575000D01*
X30145000Y-14075000D02*
X31345000Y-12875000D01*
X40045000Y-53575000D02*
X38545000Y-52075000D01*
X41145000Y-60275000D02*
X41145000Y-54175000D01*
X41145000Y-54175000D02*
X40545000Y-53575000D01*
X37545000Y-12675000D02*
X38545000Y-12675000D01*
D23*
%TO.N,+VBAT*%
X37675000Y-46750000D02*
X37675000Y-56365000D01*
D22*
X12954200Y-60462100D02*
X12954200Y-63788700D01*
X37675000Y-46750000D02*
X40677100Y-43747900D01*
X12954200Y-63788700D02*
X13914600Y-64749100D01*
X40677100Y-43747900D02*
X40677100Y-32817200D01*
D24*
%TO.N,AIN1*%
X46302200Y-5912000D02*
X45605000Y-5912000D01*
X52367100Y-18400300D02*
X51987700Y-18400300D01*
X42319500Y-2626500D02*
X41954800Y-2626500D01*
X57327700Y-2715600D02*
X49498600Y-2715600D01*
X51638400Y-18749600D02*
X51100800Y-18749600D01*
X49090000Y-25924200D02*
X46575900Y-28438300D01*
X57327700Y-2715600D02*
X57327700Y-2509000D01*
X49093100Y-20757300D02*
X49093100Y-21294900D01*
X49498600Y-2715600D02*
X46302200Y-5912000D01*
X52582900Y-18184500D02*
X52367100Y-18400300D01*
X45605000Y-5912000D02*
X42319500Y-2626500D01*
X49090000Y-21298000D02*
X49090000Y-25924200D01*
X53740000Y-17029500D02*
X52585000Y-18184500D01*
X56876000Y-11952300D02*
X56876000Y-11977100D01*
X51987700Y-18400300D02*
X51638400Y-18749600D01*
X57327700Y-2715600D02*
X57327700Y-11500600D01*
X56876000Y-11977100D02*
X53996800Y-14856300D01*
X53996800Y-16133900D02*
X53740000Y-16390700D01*
X51100800Y-18749600D02*
X49093100Y-20757300D01*
X49093100Y-21294900D02*
X49090000Y-21298000D01*
X53740000Y-16390700D02*
X53740000Y-17029500D01*
X57327700Y-11500600D02*
X56876000Y-11952300D01*
X53996800Y-14856300D02*
X53996800Y-16133900D01*
X52585000Y-18184500D02*
X52582900Y-18184500D01*
%TO.N,AIN1_IN*%
X5000000Y-19073300D02*
X10877100Y-19073300D01*
X10877100Y-19073300D02*
X11000500Y-19196700D01*
X5000000Y-20000000D02*
X5000000Y-19073300D01*
%TO.N,AIN2*%
X51766700Y-17948600D02*
X51417400Y-18297900D01*
X52180000Y-17948600D02*
X51766700Y-17948600D01*
X56876000Y-3561200D02*
X56876000Y-11313500D01*
X56424300Y-11765200D02*
X56424300Y-11790000D01*
X46594300Y-25958300D02*
X46461000Y-25958300D01*
X48638300Y-23914300D02*
X46594300Y-25958300D01*
X53545100Y-14669200D02*
X53545100Y-15946800D01*
X50913700Y-18297900D02*
X48641400Y-20570200D01*
X48638300Y-21077000D02*
X48638300Y-23914300D01*
X53288300Y-16203600D02*
X53288300Y-16842400D01*
X44025000Y-28660900D02*
X44025000Y-32452900D01*
X56876000Y-11313500D02*
X56424300Y-11765200D01*
X46461000Y-25958300D02*
X46093800Y-26325500D01*
X52395800Y-17732800D02*
X52180000Y-17948600D01*
X46093800Y-26592100D02*
X44025000Y-28660900D01*
X56424300Y-11790000D02*
X53545100Y-14669200D01*
X56700900Y-3386100D02*
X56876000Y-3561200D01*
X52397900Y-17732800D02*
X52395800Y-17732800D01*
X28190700Y-22176100D02*
X28190700Y-29718900D01*
X51417400Y-18297900D02*
X50913700Y-18297900D01*
X48641400Y-21073900D02*
X48638300Y-21077000D01*
X48641400Y-20570200D02*
X48641400Y-21073900D01*
X53545100Y-15946800D02*
X53288300Y-16203600D01*
X26133700Y-20119100D02*
X28190700Y-22176100D01*
X46093800Y-26325500D02*
X46093800Y-26592100D01*
X53288300Y-16842400D02*
X52397900Y-17732800D01*
%TO.N,AIN2_IN*%
X5000000Y-22000000D02*
X15204500Y-22000000D01*
X15204500Y-22000000D02*
X20657500Y-16547000D01*
%TO.N,AIN2_R2*%
X22668300Y-20801400D02*
X22668300Y-12185000D01*
X21650000Y-21819700D02*
X22668300Y-20801400D01*
%TO.N,AIN3*%
X29420900Y-21052600D02*
X29420900Y-16550100D01*
X30037500Y-21669200D02*
X29420900Y-21052600D01*
X29420900Y-16550100D02*
X29515200Y-16455800D01*
%TO.N,AIN3_R1*%
X26512400Y-18150200D02*
X26512400Y-12185000D01*
X20320300Y-24949200D02*
X22968400Y-22301100D01*
X22968400Y-21694200D02*
X26512400Y-18150200D01*
X22968400Y-22301100D02*
X22968400Y-21694200D01*
X20156600Y-24949200D02*
X20320300Y-24949200D01*
%TO.N,AIN4*%
X46720500Y-26733700D02*
X46720500Y-26585000D01*
X41897000Y-14550300D02*
X41897000Y-21124500D01*
X41897000Y-21124500D02*
X42274800Y-21502300D01*
X45934700Y-31258600D02*
X45934700Y-27519500D01*
X47626800Y-32950700D02*
X45934700Y-31258600D01*
X45934700Y-27519500D02*
X46720500Y-26733700D01*
%TO.N,AIN4_IN*%
X37257500Y-16547000D02*
X37257500Y-18207700D01*
X37257500Y-18207700D02*
X29465200Y-26000000D01*
%TO.N,AIN4_R2*%
X41637600Y-13923600D02*
X41637500Y-13923600D01*
X41668500Y-11028300D02*
X41668500Y-13892700D01*
X41270300Y-14290800D02*
X41270300Y-20451500D01*
X41668500Y-13892700D02*
X41637600Y-13923600D01*
X41637500Y-13923600D02*
X41270300Y-14290800D01*
X41270300Y-20451500D02*
X40032400Y-21689400D01*
%TO.N,BST_3V3*%
X44300400Y-54831100D02*
X44227400Y-54831100D01*
X44227400Y-54831100D02*
X44227400Y-54831000D01*
X46943300Y-57474000D02*
X44300400Y-54831100D01*
%TO.N,BST_5V*%
X43893500Y-39891200D02*
X46464000Y-42461700D01*
X43893500Y-38889800D02*
X43893500Y-39891200D01*
%TO.N,CAN_L*%
X18473800Y-40981600D02*
X20412400Y-39043000D01*
X20412400Y-35885000D02*
X23371500Y-32925900D01*
X20412400Y-39043000D02*
X20412400Y-35885000D01*
X23371500Y-32925900D02*
X23694500Y-32925900D01*
%TO.N,CAN_RX*%
X23471800Y-22533600D02*
X12688600Y-33316800D01*
X38056400Y-13454100D02*
X31630700Y-13454100D01*
X12688600Y-33316800D02*
X12210000Y-33316800D01*
X28700000Y-16384800D02*
X28700000Y-16666600D01*
X28700000Y-16666600D02*
X23471800Y-21894800D01*
X31630700Y-13454100D02*
X28700000Y-16384800D01*
X23471800Y-21894800D02*
X23471800Y-22533600D01*
%TO.N,CAN_S*%
X32361300Y-35695600D02*
X32810600Y-35246300D01*
X34954800Y-32960000D02*
X34954800Y-34418500D01*
X49504900Y-17542600D02*
X49628800Y-17666400D01*
X34954800Y-34418500D02*
X34127000Y-35246300D01*
X32361300Y-38012000D02*
X32361300Y-35695600D01*
X34127000Y-35246300D02*
X32810600Y-35246300D01*
X49628800Y-17666400D02*
X47286300Y-20008900D01*
X47286300Y-20206300D02*
X47281700Y-20210900D01*
X47286300Y-20008900D02*
X47286300Y-20206300D01*
X47281700Y-20633100D02*
X34954800Y-32960000D01*
X32810600Y-35246300D02*
X25653100Y-28088800D01*
X47281700Y-20210900D02*
X47281700Y-20633100D01*
%TO.N,CAN_TX*%
X34240600Y-23432500D02*
X40116900Y-17556200D01*
X29363300Y-27413300D02*
X33344100Y-23432500D01*
X40116900Y-17556200D02*
X40116900Y-12819500D01*
X33344100Y-23432500D02*
X34240600Y-23432500D01*
%TO.N,EN_3V3*%
X40043600Y-56500700D02*
X40043600Y-54366600D01*
X38750200Y-57794100D02*
X40043600Y-56500700D01*
%TO.N,EN_5V*%
X38546700Y-42635000D02*
X39911300Y-41270400D01*
X39911300Y-41270400D02*
X39911300Y-38694100D01*
%TO.N,GATE_RB*%
X13717600Y-58164900D02*
X13717600Y-63133200D01*
X12988300Y-57435600D02*
X13717600Y-58164900D01*
D22*
%TO.N,GND*%
X43150000Y-42650000D02*
X42500000Y-42000000D01*
X43150000Y-58450000D02*
X42500000Y-57800000D01*
D24*
%TO.N,I2C_SCL*%
X72971600Y-16074500D02*
X66084100Y-9187000D01*
X49544800Y-21487700D02*
X49541900Y-21490600D01*
X65743800Y-9187000D02*
X60181000Y-9187000D01*
X54191700Y-16577800D02*
X54191700Y-17216600D01*
X49541900Y-28023300D02*
X48425000Y-29140200D01*
X51831200Y-19201300D02*
X51287900Y-19201300D01*
X43596000Y-55333900D02*
X43596000Y-46254900D01*
X52554200Y-18852000D02*
X52180500Y-18852000D01*
X57779400Y-11687700D02*
X57327700Y-12139400D01*
X60181000Y-9187000D02*
X57779400Y-11588600D01*
X47441400Y-72678600D02*
X45592400Y-72678600D01*
X57327700Y-12139400D02*
X57327700Y-12164200D01*
X54191700Y-17216600D02*
X52772100Y-18636200D01*
X49541900Y-21490600D02*
X49541900Y-28023300D01*
X48566000Y-29281200D02*
X48425000Y-29140200D01*
X54448500Y-16321000D02*
X54191700Y-16577800D01*
X48566000Y-41284900D02*
X48566000Y-29281200D01*
X54448500Y-15043400D02*
X54448500Y-16321000D01*
X44810000Y-69931300D02*
X43726700Y-68848000D01*
X66084100Y-9187000D02*
X65743800Y-9187000D01*
X49544800Y-20944400D02*
X49544800Y-21487700D01*
X43596000Y-46254900D02*
X48566000Y-41284900D01*
X72971600Y-28310000D02*
X72971600Y-16074500D01*
X52180500Y-18852000D02*
X51831200Y-19201300D01*
X57327700Y-12164200D02*
X54448500Y-15043400D01*
X52770000Y-18636200D02*
X52554200Y-18852000D01*
X51287900Y-19201300D02*
X49544800Y-20944400D01*
X44810000Y-71896200D02*
X44810000Y-69931300D01*
X43726700Y-68848000D02*
X43726700Y-55464600D01*
X45592400Y-72678600D02*
X44810000Y-71896200D01*
X43726700Y-55464600D02*
X43596000Y-55333900D01*
X52772100Y-18636200D02*
X52770000Y-18636200D01*
X57779400Y-11588600D02*
X57779400Y-11687700D01*
X48620000Y-71500000D02*
X47441400Y-72678600D01*
%TO.N,I2C_SDA*%
X54900200Y-15230500D02*
X54900200Y-17146900D01*
X52743400Y-19303700D02*
X52383600Y-19303700D01*
X54900200Y-17146900D02*
X52743400Y-19303700D01*
X70674800Y-30511100D02*
X71106700Y-30079200D01*
X52034300Y-19653000D02*
X51475000Y-19653000D01*
X49996500Y-21131500D02*
X49996500Y-21690800D01*
X47214200Y-43500700D02*
X47214200Y-47732400D01*
X49993600Y-21693700D02*
X49993600Y-30118000D01*
X71106700Y-30079200D02*
X71106700Y-25449500D01*
X47214200Y-47732400D02*
X47607000Y-48125200D01*
X51475000Y-19653000D02*
X49996500Y-21131500D01*
X70332200Y-24675000D02*
X70332200Y-14073900D01*
X52383600Y-19303700D02*
X52034300Y-19653000D01*
X71106700Y-25449500D02*
X70332200Y-24675000D01*
X65667400Y-10017800D02*
X60088000Y-10017800D01*
X49993600Y-30118000D02*
X49816600Y-30295000D01*
X49816600Y-40898300D02*
X47214200Y-43500700D01*
X57779400Y-12326500D02*
X57779400Y-12351300D01*
X47607000Y-69973000D02*
X46080000Y-71500000D01*
X47607000Y-48125200D02*
X47607000Y-69973000D01*
X49816600Y-30295000D02*
X49816600Y-40898300D01*
X69297800Y-13648200D02*
X65667400Y-10017800D01*
X60088000Y-10017800D02*
X60088000Y-10017900D01*
X49996500Y-21690800D02*
X49993600Y-21693700D01*
X57779400Y-12351300D02*
X54900200Y-15230500D01*
X70332200Y-14073900D02*
X69906500Y-13648200D01*
X60088000Y-10017900D02*
X57779400Y-12326500D01*
X69906500Y-13648200D02*
X69297800Y-13648200D01*
%TO.N,IO3*%
X42523700Y-9030300D02*
X42523700Y-19093400D01*
X40510100Y-7016700D02*
X42523700Y-9030300D01*
X14825700Y-7016700D02*
X40510100Y-7016700D01*
X11176700Y-3367700D02*
X14825700Y-7016700D01*
X11176700Y-3000000D02*
X11176700Y-3367700D01*
X10000000Y-3000000D02*
X11176700Y-3000000D01*
%TO.N,IO45*%
X16192200Y-1818300D02*
X20485700Y-6111800D01*
X41006800Y-6111800D02*
X46241700Y-11346700D01*
X20485700Y-6111800D02*
X41006800Y-6111800D01*
X46241700Y-11346700D02*
X46241700Y-14473000D01*
X12540000Y-3000000D02*
X13721700Y-1818300D01*
X13721700Y-1818300D02*
X16192200Y-1818300D01*
%TO.N,IO46*%
X42975400Y-15206200D02*
X45805200Y-18036000D01*
X18645000Y-6565000D02*
X40750800Y-6565000D01*
X42975400Y-8789600D02*
X42975400Y-15206200D01*
X15080000Y-3000000D02*
X18645000Y-6565000D01*
X40750800Y-6565000D02*
X42975400Y-8789600D01*
%TO.N,LED1*%
X59152000Y-16849000D02*
X59152000Y-20378000D01*
X58811500Y-16508500D02*
X59152000Y-16849000D01*
X58811500Y-14612500D02*
X58811500Y-16508500D01*
X65876400Y-27102400D02*
X65876400Y-45200000D01*
X59152000Y-20378000D02*
X65876400Y-27102400D01*
%TO.N,LED2*%
X70038800Y-28659400D02*
X59603700Y-18224300D01*
X70038800Y-50145200D02*
X70038800Y-28659400D01*
X59603700Y-18224300D02*
X59603700Y-15567000D01*
X59603700Y-15567000D02*
X59443400Y-15406700D01*
%TO.N,LED_DIN*%
X73040000Y-66590200D02*
X67670600Y-61220800D01*
X73040000Y-71500000D02*
X73040000Y-66590200D01*
%TO.N,LED_DIN_MCU*%
X70188200Y-60385700D02*
X64979500Y-55177000D01*
X60398600Y-23723500D02*
X60398600Y-23171300D01*
X62135500Y-25460400D02*
X60398600Y-23723500D01*
X64979500Y-55177000D02*
X64979500Y-36079100D01*
X64979500Y-36079100D02*
X65331900Y-35726700D01*
X65331900Y-32932700D02*
X62135500Y-29736300D01*
X62135500Y-29736300D02*
X62135500Y-25460400D01*
X65331900Y-35726700D02*
X65331900Y-32932700D01*
%TO.N,MCU_BOOT*%
X71945100Y-57573300D02*
X66536600Y-52164800D01*
X66536600Y-52164800D02*
X66536600Y-30434100D01*
%TO.N,MCU_EN*%
X73889200Y-2805000D02*
X80227100Y-2805000D01*
X60201200Y-6176700D02*
X70517500Y-6176700D01*
X80227100Y-2805000D02*
X82435300Y-5013200D01*
X82435300Y-5013200D02*
X82435300Y-20921900D01*
X70517500Y-6176700D02*
X73889200Y-2805000D01*
X58104500Y-4080000D02*
X60201200Y-6176700D01*
%TO.N,SD_CD*%
X61521400Y-23386200D02*
X61521400Y-23960100D01*
X58687500Y-32676300D02*
X58687500Y-24856900D01*
X58184800Y-16639300D02*
X58700300Y-17154800D01*
X58687500Y-24856900D02*
X57705900Y-23875300D01*
X58700300Y-17154800D02*
X58700300Y-20565100D01*
X58700300Y-20565100D02*
X61521400Y-23386200D01*
X62762300Y-25201000D02*
X62762300Y-29475400D01*
X61521400Y-23960100D02*
X62762300Y-25201000D01*
X58184800Y-16033400D02*
X58184800Y-16639300D01*
%TO.N,SD_CLK*%
X52883500Y-20104700D02*
X51662100Y-20104700D01*
X50448200Y-23973900D02*
X50899900Y-24425600D01*
X50448200Y-21318600D02*
X50448200Y-23973900D01*
X53334000Y-20555200D02*
X52883500Y-20104700D01*
X51662100Y-20104700D02*
X50448200Y-21318600D01*
%TO.N,SD_CMD_C*%
X57530000Y-34109500D02*
X57530000Y-24748700D01*
X58437500Y-36315000D02*
X57637500Y-36315000D01*
X51737500Y-35415000D02*
X51737500Y-31915000D01*
X57530000Y-24748700D02*
X57598500Y-24680200D01*
X57637500Y-36315000D02*
X57437500Y-36515000D01*
X59037500Y-35715000D02*
X58437500Y-36315000D01*
X62630400Y-39209900D02*
X57530000Y-34109500D01*
%TO.N,SD_D1_C*%
X63970700Y-35688400D02*
X64690800Y-34968300D01*
X59941200Y-50960800D02*
X59941200Y-51581400D01*
X63610200Y-53593200D02*
X63970700Y-53232700D01*
X63970700Y-53232700D02*
X63970700Y-35688400D01*
X52437600Y-43457200D02*
X59941200Y-50960800D01*
X59941200Y-51581400D02*
X61953000Y-53593200D01*
X61953000Y-53593200D02*
X63610200Y-53593200D01*
X52437600Y-29691300D02*
X52437600Y-43457200D01*
%TO.N,SD_D2_C*%
X57969300Y-35231300D02*
X54654000Y-31916000D01*
X57969300Y-35650200D02*
X57969300Y-35231300D01*
X54654000Y-31916000D02*
X54654000Y-30025800D01*
%TO.N,SD_D3*%
X57571100Y-22458700D02*
X57571100Y-17880900D01*
X47528300Y-14967700D02*
X47528300Y-18040800D01*
X60044100Y-24931700D02*
X57571100Y-22458700D01*
X60044100Y-27520500D02*
X60044100Y-24931700D01*
%TO.N,SD_D3_C*%
X58526100Y-33724000D02*
X60255700Y-31994400D01*
X58175800Y-33724000D02*
X58526100Y-33724000D01*
X60255700Y-31994400D02*
X60255700Y-29538900D01*
%TO.N,SD_PWR_EN*%
X58197800Y-17621300D02*
X57558100Y-16981600D01*
X57558100Y-14120100D02*
X58764400Y-12913800D01*
X59661700Y-23654900D02*
X59661700Y-22165300D01*
X61683800Y-25677000D02*
X59661700Y-23654900D01*
X63287800Y-31533900D02*
X61683800Y-29929900D01*
X59661700Y-22165300D02*
X59294700Y-21798300D01*
X57558100Y-16981600D02*
X57558100Y-14120100D01*
X63287800Y-52957600D02*
X63287800Y-31533900D01*
X58197800Y-20833900D02*
X58197800Y-17621300D01*
X59162200Y-21798300D02*
X58197800Y-20833900D01*
X61683800Y-29929900D02*
X61683800Y-25677000D01*
X59294700Y-21798300D02*
X59162200Y-21798300D01*
D22*
%TO.N,SD_VDD*%
X53770500Y-25956400D02*
X55965900Y-23761000D01*
X56666600Y-34787900D02*
X56666600Y-46587300D01*
X53770500Y-31891800D02*
X53770500Y-25956400D01*
X53770500Y-31891800D02*
X56666600Y-34787900D01*
X54056000Y-23761000D02*
X51907400Y-21612400D01*
X55965900Y-23761000D02*
X54056000Y-23761000D01*
D24*
%TO.N,SPI_CS*%
X42126500Y-4370800D02*
X44119500Y-6363800D01*
X44119500Y-6363800D02*
X50667000Y-6363800D01*
X35770800Y-4370800D02*
X42126500Y-4370800D01*
X53731900Y-9428700D02*
X53731900Y-12038600D01*
X53731900Y-12038600D02*
X51692000Y-14078500D01*
X50667000Y-6363800D02*
X53731900Y-9428700D01*
X51692000Y-14078500D02*
X51692000Y-16272600D01*
X34400000Y-3000000D02*
X35770800Y-4370800D01*
%TO.N,SPI_MISO*%
X39852700Y-1774800D02*
X33961100Y-1774800D01*
X33223300Y-3311400D02*
X32358000Y-4176700D01*
X33961100Y-1774800D02*
X33223300Y-2512600D01*
X33223300Y-2512600D02*
X33223300Y-3311400D01*
X30496700Y-4176700D02*
X29320000Y-3000000D01*
X42059900Y-3253200D02*
X41331100Y-3253200D01*
X32358000Y-4176700D02*
X30496700Y-4176700D01*
X41331100Y-3253200D02*
X39852700Y-1774800D01*
X44543700Y-5737000D02*
X42059900Y-3253200D01*
%TO.N,SPI_MOSI*%
X41896500Y-1283500D02*
X45898300Y-5285300D01*
X33576500Y-1283500D02*
X41896500Y-1283500D01*
X31860000Y-3000000D02*
X33576500Y-1283500D01*
%TO.N,SPI_SCK*%
X52118000Y-11341700D02*
X46976500Y-11341700D01*
X41294900Y-5660100D02*
X29440100Y-5660100D01*
X29440100Y-5660100D02*
X26780000Y-3000000D01*
X53103100Y-10356600D02*
X52118000Y-11341700D01*
X46976500Y-11341700D02*
X41294900Y-5660100D01*
%TO.N,UART_RX*%
X55972600Y-6896600D02*
X55972600Y-11602900D01*
X39411100Y-40805000D02*
X37048300Y-43167800D01*
X51603000Y-17467000D02*
X51223800Y-17846200D01*
X48189700Y-20880300D02*
X48186600Y-20883400D01*
X52208700Y-17281100D02*
X52022800Y-17467000D01*
X37048300Y-43167800D02*
X37048300Y-54206700D01*
X53093400Y-15759700D02*
X52836600Y-16016500D01*
X52836600Y-16655300D02*
X52210800Y-17281100D01*
X52210800Y-17281100D02*
X52208700Y-17281100D01*
X48189700Y-20383100D02*
X48189700Y-20880300D01*
X48186600Y-23593900D02*
X39229800Y-32550700D01*
X56249200Y-6620000D02*
X55972600Y-6896600D01*
X37048300Y-54206700D02*
X31080000Y-60175000D01*
X55972600Y-11602900D02*
X53093400Y-14482100D01*
X31080000Y-60175000D02*
X31080000Y-71500000D01*
X48186600Y-20883400D02*
X48186600Y-23593900D01*
X53093400Y-14482100D02*
X53093400Y-15759700D01*
X39229800Y-39275500D02*
X39411100Y-39456800D01*
X39411100Y-39456800D02*
X39411100Y-40805000D01*
X52836600Y-16016500D02*
X52836600Y-16655300D01*
X39229800Y-32550700D02*
X39229800Y-39275500D01*
X52022800Y-17467000D02*
X51603000Y-17467000D01*
X51223800Y-17846200D02*
X50726600Y-17846200D01*
X50726600Y-17846200D02*
X48189700Y-20383100D01*
%TO.N,UART_TX*%
X55520900Y-5350000D02*
X55520900Y-11415800D01*
X47738000Y-20196000D02*
X47738000Y-20692600D01*
X51835700Y-17015300D02*
X51415300Y-17015300D01*
X33035600Y-37724300D02*
X33035600Y-38224000D01*
X33035600Y-38224000D02*
X28540000Y-42719600D01*
X51415300Y-17015300D02*
X51036100Y-17394500D01*
X55520900Y-11415800D02*
X52384900Y-14551800D01*
X51036100Y-17394500D02*
X50539500Y-17394500D01*
X52384900Y-16466100D02*
X51835700Y-17015300D01*
X47733400Y-20697200D02*
X47733400Y-23026500D01*
X47733400Y-23026500D02*
X33035600Y-37724300D01*
X47738000Y-20692600D02*
X47733400Y-20697200D01*
X52384900Y-14551800D02*
X52384900Y-16466100D01*
X50539500Y-17394500D02*
X47738000Y-20196000D01*
X28540000Y-42719600D02*
X28540000Y-71500000D01*
%TO.N,USB_DM*%
X65195800Y-17717800D02*
X65195800Y-14681800D01*
X55351900Y-16239100D02*
X55541300Y-16428500D01*
X55351900Y-15417600D02*
X55351900Y-16239100D01*
X62789600Y-12275600D02*
X58493900Y-12275600D01*
X65195800Y-14681800D02*
X62789600Y-12275600D01*
X58493900Y-12275600D02*
X55351900Y-15417600D01*
%TO.N,USB_DP*%
X60003100Y-14525300D02*
X64073700Y-14525300D01*
X50668300Y-14718400D02*
X50668300Y-12313700D01*
X48155000Y-17231700D02*
X50668300Y-14718400D01*
X59421400Y-13943600D02*
X60003100Y-14525300D01*
%TO.N,USB_DP_CON*%
X75433300Y-8681600D02*
X75433300Y-7428100D01*
D22*
%TO.N,VBAT_IN*%
X5000000Y-50000000D02*
X7921400Y-50000000D01*
X7921400Y-50000000D02*
X22897500Y-64976100D01*
%TO.N,VBAT_SNS*%
X40788700Y-11211500D02*
X41086400Y-11509200D01*
X41086400Y-13659100D02*
X40693600Y-14051900D01*
X40693600Y-14051900D02*
X40693600Y-18685800D01*
X40693600Y-18685800D02*
X34645800Y-24733600D01*
X40788700Y-8323300D02*
X40788700Y-11211500D01*
X41086400Y-11509200D02*
X41086400Y-13659100D01*
%TO.N,VBUS*%
X64613900Y-18506100D02*
X64342900Y-18235100D01*
X67534800Y-16603800D02*
X65632500Y-18506100D01*
X65632500Y-18506100D02*
X64613900Y-18506100D01*
%TO.N,VBUS_IN*%
X78321200Y-8459400D02*
X77347300Y-9433300D01*
X79777500Y-7281700D02*
X79777500Y-8459400D01*
X79777500Y-8459400D02*
X81677800Y-10359700D01*
X69437400Y-19265000D02*
X69437400Y-14374900D01*
X79777500Y-8459400D02*
X78321200Y-8459400D01*
X81385200Y-5674000D02*
X79777500Y-7281700D01*
%TD*%
M02*
