M48
; DRILL file {KiCad 9.0.5} date 2026-08-11T21:54:41-0400
; FORMAT={-:-/ absolute / metric / decimal}
; #@! TF.CreationDate,2026-08-11T21:54:41-04:00
; #@! TF.GenerationSoftware,Kicad,Pcbnew,9.0.5
; #@! TF.FileFunction,Plated,1,4,PTH
FMAT,2
METRIC
; #@! TA.AperFunction,Plated,PTH,ComponentDrill
T1C0.200
; #@! TA.AperFunction,Plated,PTH,ViaDrill
T2C0.250
; #@! TA.AperFunction,Plated,PTH,ViaDrill
T3C0.300
; #@! TA.AperFunction,Plated,PTH,ViaDrill
T4C0.400
; #@! TA.AperFunction,Plated,PTH,ComponentDrill
T5C0.600
; #@! TA.AperFunction,Plated,PTH,ComponentDrill
T6C0.750
; #@! TA.AperFunction,Plated,PTH,ComponentDrill
T7C1.000
%
G90
G05
T1
X41.85Y-40.05
X41.85Y-41.35
X41.85Y-42.65
X41.85Y-43.95
X41.85Y-55.85
X41.85Y-57.15
X41.85Y-58.45
X41.85Y-59.75
X43.15Y-40.05
X43.15Y-41.35
X43.15Y-42.65
X43.15Y-43.95
X43.15Y-55.85
X43.15Y-57.15
X43.15Y-58.45
X43.15Y-59.75
X49.1Y-8.56
X49.1Y-9.96
X49.8Y-7.86
X49.8Y-9.26
X49.8Y-10.66
X50.5Y-8.56
X50.5Y-9.96
X51.2Y-7.86
X51.2Y-9.26
X51.2Y-10.66
X51.9Y-8.56
X51.9Y-9.96
T2
X64.07Y-9.745
X68.66Y-9.745
X68.679Y-11.432
X68.685Y-9.013
X71.361Y-11.774
X74.624Y-14.405
T3
X8.983Y-71.497
X10.343Y-33.86
X10.595Y-63.606
X11.172Y-68.901
X13.197Y-34.736
X13.586Y-68.349
X14.261Y-38.022
X14.283Y-35.606
X14.35Y-43.294
X16.632Y-72.529
X18.233Y-40.156
X18.408Y-43.504
X20.616Y-19.894
X21.382Y-43.763
X21.852Y-23.043
X23.13Y-11.426
X23.609Y-27.226
X25.137Y-13.433
X25.389Y-21.391
X26.908Y-68.849
X29.168Y-23.453
X31.155Y-18.275
X31.162Y-30.6
X32.655Y-47.551
X33.803Y-18.63
X35.497Y-27.431
X36.282Y-67.413
X38.3Y-39.788
X38.417Y-20.539
X38.508Y-42.236
X38.537Y-58.133
X39.794Y-11.355
X39.794Y-18.166
X39.844Y-55.06
X40.462Y-19.539
X40.716Y-27.431
X40.858Y-24.159
X41.292Y-19.757
X41.33Y-29.94
X41.776Y-15.912
X41.854Y-11.876
X41.956Y-38.506
X41.97Y-54.32
X41.979Y-30.529
X43.123Y-19.328
X43.413Y-23.011
X43.965Y-72.547
X44.523Y-51.896
X44.639Y-3.947
X45.055Y-17.703
X45.149Y-16.893
X45.513Y-69.795
X46.22Y-16.09
X46.249Y-28.304
X46.276Y-57.775
X46.277Y-46.041
X46.452Y-39.655
X46.465Y-41.533
X46.612Y-55.196
X46.812Y-50.246
X46.886Y-31.432
X47.359Y-22.522
X48.203Y-16.929
X48.25Y-25.794
X48.279Y-62.177
X48.387Y-15.824
X48.687Y-23.136
X48.829Y-24.182
X49.169Y-71.125
X49.528Y-11.88
X50.831Y-12.681
X51.005Y-18.022
X51.529Y-30.008
X51.826Y-18.046
X52.438Y-27.182
X52.825Y-15.526
X53.064Y-18.022
X53.38Y-34.553
X53.729Y-31.003
X54.658Y-27.894
X55.081Y-20.943
X55.223Y-24.553
X55.897Y-34.462
X56.158Y-27.324
X56.418Y-5.946
X56.917Y-15.495
X56.97Y-36.636
X57.984Y-9.22
X58.136Y-20.836
X58.312Y-16.634
X58.939Y-15.918
X59.473Y-8.855
X59.485Y-9.835
X59.495Y-7.069
X60.143Y-30.037
X60.178Y-33.214
X60.683Y-74.881
X61.818Y-33.533
X61.939Y-34.504
X62.019Y-6.253
X62.736Y-7.762
X62.818Y-23.72
X62.828Y-52.507
X62.848Y-11.514
X63.069Y-38.897
X63.588Y-7.867
X63.986Y-37.537
X64.257Y-41.617
X65.233Y-11.615
X65.522Y-37.959
X67.774Y-37.195
X68.004Y-6.803
X68.257Y-41.784
X71.687Y-35.136
X72.199Y-28.529
X72.409Y-37.494
X73.758Y-37.017
X73.77Y-55.648
X74.58Y-15.25
X74.58Y-16.25
X74.85Y-55.6
X74.85Y-62.6
X77.03Y-15.75
X77.03Y-16.75
X77.102Y-37.07
X78.386Y-30.966
X81.15Y-55.6
X81.15Y-62.6
T4
X6.375Y-18.0
X6.375Y-32.0
X7.516Y-38.012
X8.995Y-70.478
X11.775Y-12.67
X11.775Y-14.57
X12.245Y-36.11
X12.761Y-74.287
X13.061Y-26.037
X13.15Y-32.005
X14.951Y-45.744
X16.56Y-42.498
X16.795Y-8.795
X16.851Y-45.744
X17.0Y-32.005
X17.195Y-38.65
X19.155Y-20.408
X20.275Y-12.67
X20.275Y-14.57
X20.59Y-73.645
X20.741Y-45.744
X21.142Y-67.295
X21.561Y-26.037
X21.65Y-32.005
X22.795Y-55.245
X24.285Y-41.798
X24.72Y-45.102
X25.295Y-8.795
X25.5Y-32.005
X26.947Y-70.895
X27.701Y-20.438
X28.775Y-12.67
X28.775Y-14.57
X30.061Y-26.037
X30.15Y-32.005
X30.885Y-64.612
X31.15Y-83.5
X31.24Y-66.358
X33.795Y-8.795
X34.0Y-32.005
X34.472Y-21.918
X34.75Y-68.2
X35.8Y-45.1
X35.8Y-60.9
X35.819Y-77.561
X36.216Y-42.812
X36.216Y-58.612
X36.45Y-39.9
X36.45Y-55.7
X36.875Y-12.67
X36.875Y-14.57
X37.25Y-56.35
X37.675Y-46.75
X38.061Y-74.621
X38.161Y-26.037
X38.25Y-32.005
X38.65Y-70.745
X38.736Y-40.495
X38.736Y-56.295
X39.251Y-86.885
X40.001Y-75.283
X40.425Y-48.2
X40.425Y-64.0
X41.762Y-71.654
X41.795Y-82.795
X41.895Y-8.795
X42.0Y-79.005
X42.1Y-32.005
X42.668Y-72.628
X44.425Y-48.2
X44.425Y-64.0
X44.5Y-1.54
X44.5Y-2.81
X44.514Y-78.577
X44.661Y-35.587
X45.25Y-29.795
X45.25Y-30.795
X45.475Y-71.695
X45.89Y-73.978
X46.094Y-65.039
X46.218Y-76.178
X46.25Y-21.795
X46.25Y-24.6
X46.25Y-27.405
X46.425Y-51.0
X46.425Y-66.8
X46.695Y-34.975
X48.295Y-86.595
X49.65Y-30.795
X49.775Y-70.295
X49.775Y-72.195
X50.464Y-88.895
X50.716Y-85.112
X51.061Y-76.028
X51.1Y-63.6
X52.95Y-66.6
X53.906Y-48.5
X53.906Y-64.3
X54.695Y-22.595
X54.864Y-79.435
X54.908Y-75.985
X56.1Y-63.6
X56.416Y-66.812
X56.595Y-78.835
X57.6Y-57.8
X58.45Y-50.4
X58.45Y-66.2
X58.618Y-57.216
X58.695Y-78.835
X58.89Y-75.385
X59.035Y-22.425
X59.05Y-47.8
X59.05Y-63.6
X59.719Y-36.444
X60.319Y-55.339
X60.383Y-70.796
X61.275Y-51.995
X62.0Y-1.54
X62.041Y-24.962
X62.65Y-56.805
X63.095Y-35.745
X63.095Y-39.847
X64.071Y-19.039
X64.266Y-17.541
X64.437Y-12.685
X64.661Y-30.312
X65.625Y-51.995
X65.65Y-22.315
X66.561Y-30.312
X66.658Y-15.516
X66.984Y-26.645
X67.695Y-35.745
X67.695Y-39.847
X68.209Y-30.709
X69.263Y-14.567
X69.295Y-25.695
X70.364Y-33.005
X70.611Y-20.207
X70.737Y-21.153
X71.025Y-38.675
X72.019Y-33.444
X72.059Y-30.709
X72.085Y-16.975
X72.101Y-26.395
X73.879Y-18.096
X74.58Y-12.75
X74.59Y-19.565
X75.416Y-27.604
X75.805Y-20.05
X75.869Y-33.444
X76.001Y-26.137
X76.2Y-58.4
X76.2Y-65.4
X77.991Y-26.137
X78.24Y-29.67
X78.303Y-28.634
X80.025Y-25.525
X81.725Y-46.575
X82.05Y-32.405
X82.5Y-58.4
X82.5Y-65.4
X82.65Y-77.0
T6
X5.0Y-18.0
X5.0Y-20.0
X5.0Y-22.0
X5.0Y-24.0
X5.0Y-26.0
X5.0Y-28.0
X5.0Y-30.0
X5.0Y-32.0
X5.0Y-50.0
X5.0Y-52.0
X5.0Y-54.0
X5.0Y-56.0
T7
X10.0Y-3.0
X12.54Y-3.0
X15.08Y-3.0
X17.62Y-3.0
X20.16Y-3.0
X22.7Y-3.0
X26.0Y-97.5
X27.5Y-3.0
X28.54Y-97.5
X30.04Y-3.0
X31.08Y-97.5
X32.58Y-3.0
X33.62Y-97.5
X35.12Y-3.0
X37.66Y-3.0
X40.2Y-3.0
X41.0Y-97.5
X43.54Y-97.5
X46.08Y-97.5
X48.62Y-97.5
X56.0Y-97.5
X58.54Y-97.5
X61.08Y-97.5
X63.62Y-97.5
X69.0Y-97.5
X71.54Y-97.5
X74.08Y-97.5
T5
X76.17Y-11.68G85X77.27Y-11.68
G05
X76.17Y-20.32G85X77.27Y-20.32
G05
X80.6Y-11.68G85X81.2Y-11.68
G05
X80.6Y-20.32G85X81.2Y-20.32
G05
M30
