M48
; DRILL file {KiCad 9.0.5} date 2026-08-10T18:55:49-0400
; FORMAT={-:-/ absolute / metric / decimal}
; #@! TF.CreationDate,2026-08-10T18:55:49-04:00
; #@! TF.GenerationSoftware,Kicad,Pcbnew,9.0.5
; #@! TF.FileFunction,Plated,1,4,PTH
FMAT,2
METRIC
; #@! TA.AperFunction,Plated,PTH,ComponentDrill
T1C0.200
; #@! TA.AperFunction,Plated,PTH,ViaDrill
T2C0.250
; #@! TA.AperFunction,Plated,PTH,ViaDrill
T3C0.300
; #@! TA.AperFunction,Plated,PTH,ComponentDrill
T4C0.600
; #@! TA.AperFunction,Plated,PTH,ComponentDrill
T5C0.750
; #@! TA.AperFunction,Plated,PTH,ComponentDrill
T6C1.000
%
G90
G05
T1
X41.85Y-40.05
X41.85Y-41.35
X41.85Y-42.65
X41.85Y-43.95
X41.85Y-55.85
X41.85Y-57.15
X41.85Y-58.45
X41.85Y-59.75
X43.15Y-40.05
X43.15Y-41.35
X43.15Y-42.65
X43.15Y-43.95
X43.15Y-55.85
X43.15Y-57.15
X43.15Y-58.45
X43.15Y-59.75
X49.1Y-8.56
X49.1Y-9.96
X49.8Y-7.86
X49.8Y-9.26
X49.8Y-10.66
X50.5Y-8.56
X50.5Y-9.96
X51.2Y-7.86
X51.2Y-9.26
X51.2Y-10.66
X51.9Y-8.56
X51.9Y-9.96
T2
X45.025Y-23.6
X48.525Y-29.695
X52.235Y-22.0
X52.435Y-20.8
X52.535Y-23.3
X53.825Y-14.6
X54.212Y-19.8
X54.435Y-25.0
X54.612Y-23.7
X55.265Y-26.8
X58.365Y-24.9
X61.425Y-11.7
X64.07Y-15.945
X67.057Y-9.8
X72.525Y-28.9
X78.457Y-7.7
T3
X8.995Y-64.025
X11.775Y-7.795
X11.775Y-9.695
X12.245Y-30.31
X13.061Y-18.508
X13.15Y-22.705
X16.56Y-36.585
X16.7Y-67.165
X16.851Y-39.718
X17.0Y-22.705
X17.195Y-32.85
X18.616Y-16.432
X18.841Y-39.718
X20.275Y-7.795
X20.275Y-9.695
X20.741Y-39.718
X21.561Y-18.508
X21.645Y-14.727
X21.65Y-22.705
X21.729Y-17.028
X21.923Y-60.611
X22.795Y-48.845
X23.575Y-19.42
X24.053Y-63.455
X24.285Y-35.885
X24.631Y-39.718
X25.5Y-22.705
X26.823Y-13.928
X27.477Y-26.337
X28.03Y-19.245
X28.197Y-27.369
X28.545Y-21.51
X28.61Y-39.075
X28.775Y-7.795
X28.775Y-9.695
X30.061Y-18.508
X30.15Y-22.705
X30.885Y-58.185
X32.285Y-12.908
X32.975Y-24.695
X32.975Y-26.595
X33.561Y-14.123
X34.0Y-22.705
X34.127Y-20.568
X34.214Y-31.835
X34.214Y-34.225
X34.261Y-29.427
X34.75Y-68.2
X35.8Y-45.1
X35.945Y-33.625
X36.216Y-42.812
X36.328Y-13.458
X36.875Y-7.795
X36.875Y-9.695
X37.597Y-25.196
X37.675Y-46.75
X37.675Y-56.365
X38.045Y-33.625
X38.161Y-18.508
X38.24Y-28.785
X38.25Y-22.705
X38.406Y-15.706
X38.442Y-31.176
X38.526Y-58.435
X38.547Y-42.635
X38.55Y-55.895
X38.736Y-40.495
X39.419Y-54.61
X39.911Y-38.694
X40.175Y-21.811
X40.425Y-48.2
X40.425Y-64.0
X40.523Y-30.2
X40.601Y-26.256
X40.933Y-16.446
X41.15Y-4.433
X41.764Y-13.228
X42.1Y-22.705
X42.537Y-51.143
X43.239Y-19.093
X44.425Y-48.2
X44.425Y-64.0
X44.5Y-1.54
X44.5Y-2.81
X44.523Y-10.696
X44.533Y-13.381
X44.554Y-7.31
X44.555Y-14.182
X44.582Y-54.954
X44.661Y-34.627
X44.856Y-8.156
X45.084Y-32.29
X45.25Y-29.795
X45.25Y-30.795
X45.255Y-6.615
X45.582Y-27.28
X46.094Y-65.039
X46.252Y-44.547
X46.318Y-57.764
X46.425Y-51.0
X46.425Y-66.8
X46.486Y-20.552
X46.695Y-34.015
X47.2Y-30.795
X47.663Y-37.935
X47.663Y-50.8
X47.858Y-32.956
X47.904Y-23.989
X49.02Y-18.043
X49.452Y-32.323
X49.965Y-16.904
X50.058Y-36.355
X51.1Y-63.6
X51.222Y-30.113
X52.95Y-66.6
X53.314Y-27.569
X53.454Y-31.316
X53.866Y-32.335
X53.906Y-48.5
X53.906Y-64.3
X54.495Y-20.56
X54.695Y-22.595
X54.965Y-5.447
X55.075Y-8.26
X55.296Y-24.409
X55.725Y-17.53
X55.725Y-23.684
X55.743Y-11.7
X56.1Y-63.6
X56.344Y-7.359
X56.416Y-66.812
X57.37Y-15.203
X57.37Y-20.952
X57.6Y-57.8
X57.773Y-34.866
X58.101Y-16.405
X58.19Y-15.465
X58.307Y-6.049
X58.45Y-50.4
X58.45Y-66.2
X58.512Y-64.812
X58.795Y-59.095
X58.842Y-4.495
X58.999Y-23.462
X59.035Y-22.425
X59.05Y-47.8
X59.719Y-35.194
X59.962Y-36.248
X59.962Y-51.045
X60.23Y-58.035
X60.319Y-55.224
X60.84Y-21.332
X60.964Y-61.395
X61.275Y-51.995
X62.0Y-1.54
X62.006Y-8.262
X62.456Y-13.342
X62.547Y-33.951
X62.65Y-56.575
X63.461Y-44.807
X63.538Y-34.68
X63.724Y-20.964
X63.751Y-68.385
X64.117Y-52.941
X64.139Y-14.481
X64.319Y-30.574
X64.583Y-13.128
X64.661Y-27.727
X64.945Y-24.495
X65.514Y-22.475
X65.625Y-51.995
X66.142Y-25.885
X66.247Y-14.4
X66.295Y-64.295
X66.305Y-59.941
X66.561Y-27.727
X66.751Y-19.985
X67.37Y-23.085
X67.751Y-25.195
X68.004Y-33.533
X68.169Y-30.574
X68.462Y-58.393
X68.901Y-28.343
X69.5Y-21.875
X69.888Y-16.604
X70.451Y-27.727
X71.025Y-38.675
X71.651Y-24.938
X71.918Y-51.4
X72.019Y-30.574
X72.099Y-28.124
X72.21Y-33.891
X73.641Y-24.938
X73.718Y-17.423
X75.418Y-51.4
X75.675Y-24.325
X76.2Y-58.4
X76.2Y-65.4
X77.735Y-48.37
X77.791Y-11.627
X77.862Y-51.37
X81.27Y-4.75
X81.27Y-11.25
X81.725Y-46.575
X82.5Y-58.4
X82.5Y-65.4
T5
X5.0Y-18.0
X5.0Y-20.0
X5.0Y-22.0
X5.0Y-24.0
X5.0Y-26.0
X5.0Y-28.0
X5.0Y-30.0
X5.0Y-32.0
X5.0Y-50.0
X5.0Y-52.0
X5.0Y-54.0
X5.0Y-56.0
T6
X10.0Y-3.0
X12.54Y-3.0
X15.08Y-3.0
X21.7Y-3.0
X24.24Y-3.0
X26.0Y-71.5
X26.78Y-3.0
X28.54Y-71.5
X29.32Y-3.0
X31.08Y-71.5
X31.86Y-3.0
X33.62Y-71.5
X34.4Y-3.0
X41.0Y-71.5
X43.54Y-71.5
X46.08Y-71.5
X48.62Y-71.5
X56.0Y-71.5
X58.54Y-71.5
X61.08Y-71.5
X63.62Y-71.5
X70.5Y-71.5
X73.04Y-71.5
X75.58Y-71.5
T4
X75.25Y-3.68G85X74.65Y-3.68
G05
X75.25Y-12.32G85X74.65Y-12.32
G05
X79.68Y-3.68G85X78.58Y-3.68
G05
X79.68Y-12.32G85X78.58Y-12.32
G05
M30
