%TF.GenerationSoftware,KiCad,Pcbnew,9.0.5*%
%TF.CreationDate,2026-08-11T16:08:32-04:00*%
%TF.ProjectId,esp32s3-can-sd-logger,65737033-3273-4332-9d63-616e2d73642d,rev?*%
%TF.SameCoordinates,Original*%
%TF.FileFunction,Paste,Top*%
%TF.FilePolarity,Positive*%
%FSLAX46Y46*%
G04 Gerber Fmt 4.6, Leading zero omitted, Abs format (unit mm)*
G04 Created by KiCad (PCBNEW 9.0.5) date 2026-08-11 16:08:32*
%MOMM*%
%LPD*%
G01*
G04 APERTURE LIST*
G04 Aperture macros list*
%AMRoundRect*
0 Rectangle with rounded corners*
0 $1 Rounding radius*
0 $2 $3 $4 $5 $6 $7 $8 $9 X,Y pos of 4 corners*
0 Add a 4 corners polygon primitive as box body*
4,1,4,$2,$3,$4,$5,$6,$7,$8,$9,$2,$3,0*
0 Add four circle primitives for the rounded corners*
1,1,$1+$1,$2,$3*
1,1,$1+$1,$4,$5*
1,1,$1+$1,$6,$7*
1,1,$1+$1,$8,$9*
0 Add four rect primitives between the rounded corners*
20,1,$1+$1,$2,$3,$4,$5,0*
20,1,$1+$1,$4,$5,$6,$7,0*
20,1,$1+$1,$6,$7,$8,$9,0*
20,1,$1+$1,$8,$9,$2,$3,0*%
G04 Aperture macros list end*
%ADD10RoundRect,0.250000X-0.262500X-0.450000X0.262500X-0.450000X0.262500X0.450000X-0.262500X0.450000X0*%
%ADD11RoundRect,0.250000X-0.312500X-0.625000X0.312500X-0.625000X0.312500X0.625000X-0.312500X0.625000X0*%
%ADD12RoundRect,0.250000X-1.275000X-1.125000X1.275000X-1.125000X1.275000X1.125000X-1.275000X1.125000X0*%
%ADD13RoundRect,0.250000X-0.850000X-0.350000X0.850000X-0.350000X0.850000X0.350000X-0.850000X0.350000X0*%
%ADD14RoundRect,0.250000X-0.250000X-0.475000X0.250000X-0.475000X0.250000X0.475000X-0.250000X0.475000X0*%
%ADD15RoundRect,0.225000X-0.225000X-0.375000X0.225000X-0.375000X0.225000X0.375000X-0.225000X0.375000X0*%
%ADD16RoundRect,0.250000X1.000000X-1.400000X1.000000X1.400000X-1.000000X1.400000X-1.000000X-1.400000X0*%
%ADD17RoundRect,0.150000X-0.587500X-0.150000X0.587500X-0.150000X0.587500X0.150000X-0.587500X0.150000X0*%
%ADD18R,0.900000X0.900000*%
%ADD19R,1.500000X0.900000*%
%ADD20R,0.900000X1.500000*%
%ADD21RoundRect,0.250000X-0.315000X-0.460000X0.315000X-0.460000X0.315000X0.460000X-0.315000X0.460000X0*%
%ADD22RoundRect,0.150000X-0.737500X-0.150000X0.737500X-0.150000X0.737500X0.150000X-0.737500X0.150000X0*%
%ADD23RoundRect,0.218750X-0.218750X-0.381250X0.218750X-0.381250X0.218750X0.381250X-0.218750X0.381250X0*%
%ADD24RoundRect,0.250000X-0.325000X-0.650000X0.325000X-0.650000X0.325000X0.650000X-0.325000X0.650000X0*%
%ADD25R,1.700000X1.000000*%
%ADD26R,1.450000X0.600000*%
%ADD27R,1.450000X0.300000*%
%ADD28R,1.750000X0.700000*%
%ADD29R,1.000000X1.450000*%
%ADD30R,1.550000X1.000000*%
%ADD31R,1.500000X0.800000*%
%ADD32R,1.500000X1.300000*%
%ADD33R,1.500000X1.500000*%
%ADD34R,1.400000X0.800000*%
%ADD35RoundRect,0.112500X-0.187500X-0.112500X0.187500X-0.112500X0.187500X0.112500X-0.187500X0.112500X0*%
%ADD36RoundRect,0.150000X-0.512500X-0.150000X0.512500X-0.150000X0.512500X0.150000X-0.512500X0.150000X0*%
%ADD37RoundRect,0.250000X0.325000X0.650000X-0.325000X0.650000X-0.325000X-0.650000X0.325000X-0.650000X0*%
%ADD38RoundRect,0.250000X-1.000000X-0.650000X1.000000X-0.650000X1.000000X0.650000X-1.000000X0.650000X0*%
%ADD39RoundRect,0.249999X-0.850001X-3.500001X0.850001X-3.500001X0.850001X3.500001X-0.850001X3.500001X0*%
%ADD40RoundRect,0.243750X-0.243750X-0.456250X0.243750X-0.456250X0.243750X0.456250X-0.243750X0.456250X0*%
%ADD41RoundRect,0.250000X0.250000X0.475000X-0.250000X0.475000X-0.250000X-0.475000X0.250000X-0.475000X0*%
%ADD42RoundRect,0.150000X-0.825000X-0.150000X0.825000X-0.150000X0.825000X0.150000X-0.825000X0.150000X0*%
%ADD43RoundRect,0.075000X-0.650000X-0.075000X0.650000X-0.075000X0.650000X0.075000X-0.650000X0.075000X0*%
%ADD44RoundRect,0.250000X-0.275000X-0.700000X0.275000X-0.700000X0.275000X0.700000X-0.275000X0.700000X0*%
%ADD45RoundRect,0.250000X-1.950000X-1.000000X1.950000X-1.000000X1.950000X1.000000X-1.950000X1.000000X0*%
%ADD46RoundRect,0.250000X-0.375000X-0.625000X0.375000X-0.625000X0.375000X0.625000X-0.375000X0.625000X0*%
%ADD47R,1.350000X0.900000*%
G04 APERTURE END LIST*
D10*
%TO.C,R67*%
X34812500Y-78405000D03*
X36637500Y-78405000D03*
%TD*%
%TO.C,R47*%
X10312500Y-28730000D03*
X12137500Y-28730000D03*
%TD*%
D11*
%TO.C,PF2*%
X67952500Y-14065000D03*
X70877500Y-14065000D03*
%TD*%
D12*
%TO.C,Q1*%
X15220000Y-63236700D03*
X15220000Y-66286700D03*
X18570000Y-63236700D03*
X18570000Y-66286700D03*
D13*
X10595000Y-62481700D03*
X10595000Y-64761700D03*
X10595000Y-67041700D03*
%TD*%
D10*
%TO.C,R61*%
X39302500Y-25395000D03*
X41127500Y-25395000D03*
%TD*%
%TO.C,R41*%
X54912500Y-35405000D03*
X56737500Y-35405000D03*
%TD*%
%TO.C,R43*%
X25772500Y-45101700D03*
X27597500Y-45101700D03*
%TD*%
%TO.C,R25*%
X43412500Y-21795000D03*
X45237500Y-21795000D03*
%TD*%
D14*
%TO.C,C31*%
X17975000Y-45131700D03*
X19875000Y-45131700D03*
%TD*%
D15*
%TO.C,D5*%
X67335000Y-9195000D03*
X70635000Y-9195000D03*
%TD*%
D10*
%TO.C,R12*%
X41587500Y-64000000D03*
X43412500Y-64000000D03*
%TD*%
%TO.C,R64*%
X35412500Y-32005000D03*
X37237500Y-32005000D03*
%TD*%
%TO.C,R42*%
X59212500Y-35405000D03*
X61037500Y-35405000D03*
%TD*%
%TO.C,R66*%
X46402500Y-75320000D03*
X48227500Y-75320000D03*
%TD*%
D16*
%TO.C,D1*%
X22335000Y-64611700D03*
X29135000Y-64611700D03*
%TD*%
D10*
%TO.C,R21*%
X79252500Y-27785000D03*
X81077500Y-27785000D03*
%TD*%
%TO.C,R17*%
X71552500Y-27785000D03*
X73377500Y-27785000D03*
%TD*%
D14*
%TO.C,C29*%
X56135000Y-22425000D03*
X58035000Y-22425000D03*
%TD*%
D10*
%TO.C,R22*%
X63812500Y-31235000D03*
X65637500Y-31235000D03*
%TD*%
%TO.C,R36*%
X59212500Y-29100000D03*
X61037500Y-29100000D03*
%TD*%
D17*
%TO.C,D16*%
X35037500Y-70595000D03*
X35037500Y-72495000D03*
X36912500Y-71545000D03*
%TD*%
D18*
%TO.C,U4*%
X49100000Y-7860000D03*
X49100000Y-9260000D03*
X49100000Y-10660000D03*
X50500000Y-7860000D03*
X50500000Y-9260000D03*
X50500000Y-10660000D03*
X51900000Y-7860000D03*
X51900000Y-9260000D03*
X51900000Y-10660000D03*
D19*
X43250000Y-1540000D03*
X43250000Y-2810000D03*
X43250000Y-4080000D03*
X43250000Y-5350000D03*
X43250000Y-6620000D03*
X43250000Y-7890000D03*
X43250000Y-9160000D03*
X43250000Y-10430000D03*
X43250000Y-11700000D03*
X43250000Y-12970000D03*
X43250000Y-14240000D03*
X43250000Y-15510000D03*
X43250000Y-16780000D03*
X43250000Y-18050000D03*
D20*
X45015000Y-19300000D03*
X46285000Y-19300000D03*
X47555000Y-19300000D03*
X48825000Y-19300000D03*
X50095000Y-19300000D03*
X51365000Y-19300000D03*
X52635000Y-19300000D03*
X53905000Y-19300000D03*
X55175000Y-19300000D03*
X56445000Y-19300000D03*
X57715000Y-19300000D03*
X58985000Y-19300000D03*
D19*
X60750000Y-18050000D03*
X60750000Y-16780000D03*
X60750000Y-15510000D03*
X60750000Y-14240000D03*
X60750000Y-12970000D03*
X60750000Y-11700000D03*
X60750000Y-10430000D03*
X60750000Y-9160000D03*
X60750000Y-7890000D03*
X60750000Y-6620000D03*
X60750000Y-5350000D03*
X60750000Y-4080000D03*
X60750000Y-2810000D03*
X60750000Y-1540000D03*
%TD*%
D10*
%TO.C,R53*%
X22662500Y-28730000D03*
X24487500Y-28730000D03*
%TD*%
%TO.C,R20*%
X75402500Y-27785000D03*
X77227500Y-27785000D03*
%TD*%
D21*
%TO.C,U2*%
X41820000Y-41150000D03*
X41820000Y-42850000D03*
X43180000Y-41150000D03*
X43180000Y-42850000D03*
D22*
X39937500Y-40095000D03*
X39937500Y-41365000D03*
X39937500Y-42635000D03*
X39937500Y-43905000D03*
X45062500Y-43905000D03*
X45062500Y-42635000D03*
X45062500Y-41365000D03*
X45062500Y-40095000D03*
%TD*%
D10*
%TO.C,R58*%
X31162500Y-28730000D03*
X32987500Y-28730000D03*
%TD*%
D23*
%TO.C,FB2*%
X10232500Y-80305000D03*
X12357500Y-80305000D03*
%TD*%
D10*
%TO.C,R46*%
X14202500Y-25395000D03*
X16027500Y-25395000D03*
%TD*%
%TO.C,R19*%
X70552500Y-17675000D03*
X72377500Y-17675000D03*
%TD*%
D14*
%TO.C,C1*%
X27817500Y-69758300D03*
X29717500Y-69758300D03*
%TD*%
D24*
%TO.C,C20*%
X20852500Y-76395000D03*
X23802500Y-76395000D03*
%TD*%
D10*
%TO.C,R8*%
X43587500Y-51000000D03*
X45412500Y-51000000D03*
%TD*%
%TO.C,R54*%
X18812500Y-32005000D03*
X20637500Y-32005000D03*
%TD*%
%TO.C,R59*%
X27312500Y-32005000D03*
X29137500Y-32005000D03*
%TD*%
D25*
%TO.C,SW2*%
X74850000Y-61600000D03*
X81150000Y-61600000D03*
X74850000Y-65400000D03*
X81150000Y-65400000D03*
%TD*%
D14*
%TO.C,C9*%
X39550000Y-51000000D03*
X41450000Y-51000000D03*
%TD*%
D26*
%TO.C,J2*%
X75805000Y-19250000D03*
X75805000Y-18450000D03*
D27*
X75805000Y-17250000D03*
X75805000Y-16250000D03*
X75805000Y-15750000D03*
X75805000Y-14750000D03*
D26*
X75805000Y-13550000D03*
X75805000Y-12750000D03*
X75805000Y-12750000D03*
X75805000Y-13550000D03*
D27*
X75805000Y-14250000D03*
X75805000Y-15250000D03*
X75805000Y-16750000D03*
X75805000Y-17750000D03*
D26*
X75805000Y-18450000D03*
X75805000Y-19250000D03*
%TD*%
D10*
%TO.C,R40*%
X50612500Y-35405000D03*
X52437500Y-35405000D03*
%TD*%
%TO.C,R28*%
X59812500Y-54300000D03*
X61637500Y-54300000D03*
%TD*%
D25*
%TO.C,SW1*%
X74850000Y-54600000D03*
X81150000Y-54600000D03*
X74850000Y-58400000D03*
X81150000Y-58400000D03*
%TD*%
D14*
%TO.C,C37*%
X43795000Y-34975000D03*
X45695000Y-34975000D03*
%TD*%
D17*
%TO.C,Q3*%
X64387500Y-50095000D03*
X64387500Y-51995000D03*
X66262500Y-51045000D03*
%TD*%
D10*
%TO.C,R5*%
X45587500Y-48200000D03*
X47412500Y-48200000D03*
%TD*%
D14*
%TO.C,C27*%
X63795000Y-27815000D03*
X65695000Y-27815000D03*
%TD*%
D24*
%TO.C,C17*%
X50025000Y-63600000D03*
X52975000Y-63600000D03*
%TD*%
D10*
%TO.C,R37*%
X50612500Y-32252500D03*
X52437500Y-32252500D03*
%TD*%
%TO.C,R3*%
X37387500Y-37600000D03*
X39212500Y-37600000D03*
%TD*%
%TO.C,R35*%
X54912500Y-29100000D03*
X56737500Y-29100000D03*
%TD*%
%TO.C,R6*%
X41587500Y-48200000D03*
X43412500Y-48200000D03*
%TD*%
D14*
%TO.C,C6*%
X33550000Y-39900000D03*
X35450000Y-39900000D03*
%TD*%
D17*
%TO.C,D9*%
X10537500Y-12670000D03*
X10537500Y-14570000D03*
X12412500Y-13620000D03*
%TD*%
D21*
%TO.C,U3*%
X41820000Y-56950000D03*
X41820000Y-58650000D03*
X43180000Y-56950000D03*
X43180000Y-58650000D03*
D22*
X39937500Y-55895000D03*
X39937500Y-57165000D03*
X39937500Y-58435000D03*
X39937500Y-59705000D03*
X45062500Y-59705000D03*
X45062500Y-58435000D03*
X45062500Y-57165000D03*
X45062500Y-55895000D03*
%TD*%
D28*
%TO.C,J9*%
X69650000Y-44175000D03*
X69650000Y-43075000D03*
X69650000Y-41975000D03*
X69650000Y-40875000D03*
X69650000Y-39775000D03*
X69650000Y-38675000D03*
X69650000Y-37575000D03*
X69650000Y-36475000D03*
D29*
X78875000Y-35350000D03*
D30*
X80450000Y-46575000D03*
D31*
X77375000Y-35025000D03*
D32*
X69775000Y-35275000D03*
D33*
X69775000Y-46625000D03*
D34*
X78025000Y-46975000D03*
%TD*%
D10*
%TO.C,R7*%
X44787500Y-37600000D03*
X46612500Y-37600000D03*
%TD*%
%TO.C,R23*%
X67952500Y-70795000D03*
X69777500Y-70795000D03*
%TD*%
%TO.C,R49*%
X10312500Y-32005000D03*
X12137500Y-32005000D03*
%TD*%
D14*
%TO.C,C8*%
X50050000Y-50800000D03*
X51950000Y-50800000D03*
%TD*%
D10*
%TO.C,R2*%
X17752500Y-73645000D03*
X19577500Y-73645000D03*
%TD*%
D11*
%TO.C,PF1*%
X25935000Y-76375000D03*
X28860000Y-76375000D03*
%TD*%
D10*
%TO.C,R24*%
X58312500Y-75685000D03*
X60137500Y-75685000D03*
%TD*%
%TO.C,R62*%
X35412500Y-28730000D03*
X37237500Y-28730000D03*
%TD*%
D35*
%TO.C,D2*%
X38445000Y-78405000D03*
X40545000Y-78405000D03*
%TD*%
D36*
%TO.C,U1*%
X10157500Y-69528300D03*
X10157500Y-70478300D03*
X10157500Y-71428300D03*
X12432500Y-71428300D03*
X12432500Y-70478300D03*
X12432500Y-69528300D03*
%TD*%
%TO.C,U6*%
X58457500Y-70595000D03*
X58457500Y-71545000D03*
X58457500Y-72495000D03*
X60732500Y-72495000D03*
X60732500Y-70595000D03*
%TD*%
D10*
%TO.C,R48*%
X14162500Y-28730000D03*
X15987500Y-28730000D03*
%TD*%
D14*
%TO.C,C16*%
X39550000Y-66800000D03*
X41450000Y-66800000D03*
%TD*%
D37*
%TO.C,C4*%
X37675000Y-45100000D03*
X34725000Y-45100000D03*
%TD*%
D10*
%TO.C,R60*%
X31162500Y-32005000D03*
X32987500Y-32005000D03*
%TD*%
D14*
%TO.C,C14*%
X41050000Y-53400000D03*
X42950000Y-53400000D03*
%TD*%
D38*
%TO.C,D12*%
X28045000Y-8795000D03*
X32045000Y-8795000D03*
%TD*%
D14*
%TO.C,C23*%
X72775000Y-24025000D03*
X74675000Y-24025000D03*
%TD*%
%TO.C,C24*%
X76665000Y-24025000D03*
X78565000Y-24025000D03*
%TD*%
D10*
%TO.C,R29*%
X63662500Y-54300000D03*
X65487500Y-54300000D03*
%TD*%
D39*
%TO.C,L2*%
X50000000Y-57800000D03*
X56000000Y-57800000D03*
%TD*%
D10*
%TO.C,R14*%
X43587500Y-66800000D03*
X45412500Y-66800000D03*
%TD*%
D14*
%TO.C,C12*%
X55550000Y-50400000D03*
X57450000Y-50400000D03*
%TD*%
D24*
%TO.C,C11*%
X55025000Y-47800000D03*
X57975000Y-47800000D03*
%TD*%
D40*
%TO.C,D4*%
X38677500Y-75320000D03*
X40552500Y-75320000D03*
%TD*%
D17*
%TO.C,D15*%
X35637500Y-12670000D03*
X35637500Y-14570000D03*
X37512500Y-13620000D03*
%TD*%
D24*
%TO.C,C10*%
X50025000Y-47800000D03*
X52975000Y-47800000D03*
%TD*%
D14*
%TO.C,C15*%
X50050000Y-66600000D03*
X51950000Y-66600000D03*
%TD*%
%TO.C,C19*%
X55550000Y-66200000D03*
X57450000Y-66200000D03*
%TD*%
D10*
%TO.C,R45*%
X14162500Y-48205000D03*
X15987500Y-48205000D03*
%TD*%
%TO.C,R13*%
X44787500Y-53400000D03*
X46612500Y-53400000D03*
%TD*%
%TO.C,R32*%
X54912500Y-25947500D03*
X56737500Y-25947500D03*
%TD*%
D24*
%TO.C,C25*%
X62870000Y-14085000D03*
X65820000Y-14085000D03*
%TD*%
D39*
%TO.C,L1*%
X50000000Y-42000000D03*
X56000000Y-42000000D03*
%TD*%
D14*
%TO.C,C2*%
X9995000Y-73675000D03*
X11895000Y-73675000D03*
%TD*%
D10*
%TO.C,R9*%
X37387500Y-53400000D03*
X39212500Y-53400000D03*
%TD*%
%TO.C,R44*%
X10312500Y-48205000D03*
X12137500Y-48205000D03*
%TD*%
D41*
%TO.C,C5*%
X37250000Y-42200000D03*
X35350000Y-42200000D03*
%TD*%
D38*
%TO.C,D7*%
X18535000Y-41798300D03*
X22535000Y-41798300D03*
%TD*%
D14*
%TO.C,C35*%
X27295000Y-25425000D03*
X29195000Y-25425000D03*
%TD*%
D10*
%TO.C,R63*%
X39262500Y-28730000D03*
X41087500Y-28730000D03*
%TD*%
D14*
%TO.C,C33*%
X10295000Y-25425000D03*
X12195000Y-25425000D03*
%TD*%
%TO.C,C7*%
X41050000Y-37600000D03*
X42950000Y-37600000D03*
%TD*%
D10*
%TO.C,R51*%
X22702500Y-25395000D03*
X24527500Y-25395000D03*
%TD*%
%TO.C,R50*%
X14162500Y-32005000D03*
X15987500Y-32005000D03*
%TD*%
D42*
%TO.C,U7*%
X10770000Y-34840000D03*
X10770000Y-36110000D03*
X10770000Y-37380000D03*
X10770000Y-38650000D03*
X15720000Y-38650000D03*
X15720000Y-37380000D03*
X15720000Y-36110000D03*
X15720000Y-34840000D03*
%TD*%
D38*
%TO.C,D14*%
X36145000Y-8795000D03*
X40145000Y-8795000D03*
%TD*%
D10*
%TO.C,R26*%
X43412500Y-24600000D03*
X45237500Y-24600000D03*
%TD*%
D24*
%TO.C,C28*%
X50670000Y-22595000D03*
X53620000Y-22595000D03*
%TD*%
D43*
%TO.C,U8*%
X44025000Y-29795000D03*
X44025000Y-30295000D03*
X44025000Y-30795000D03*
X44025000Y-31295000D03*
X44025000Y-31795000D03*
X48425000Y-31795000D03*
X48425000Y-31295000D03*
X48425000Y-30795000D03*
X48425000Y-30295000D03*
X48425000Y-29795000D03*
%TD*%
D10*
%TO.C,R52*%
X18812500Y-28730000D03*
X20637500Y-28730000D03*
%TD*%
D36*
%TO.C,U5*%
X62957500Y-8795000D03*
X62957500Y-9745000D03*
X62957500Y-10695000D03*
X65232500Y-10695000D03*
X65232500Y-9745000D03*
X65232500Y-8795000D03*
%TD*%
D10*
%TO.C,R18*%
X66702500Y-17675000D03*
X68527500Y-17675000D03*
%TD*%
D14*
%TO.C,C34*%
X18795000Y-25425000D03*
X20695000Y-25425000D03*
%TD*%
D24*
%TO.C,C18*%
X55025000Y-63600000D03*
X57975000Y-63600000D03*
%TD*%
D14*
%TO.C,C32*%
X21865000Y-45131700D03*
X23765000Y-45131700D03*
%TD*%
D38*
%TO.C,D6*%
X11045000Y-41798300D03*
X15045000Y-41798300D03*
%TD*%
D10*
%TO.C,R56*%
X31202500Y-25395000D03*
X33027500Y-25395000D03*
%TD*%
%TO.C,R11*%
X45587500Y-64000000D03*
X47412500Y-64000000D03*
%TD*%
%TO.C,R27*%
X43412500Y-27405000D03*
X45237500Y-27405000D03*
%TD*%
D14*
%TO.C,C30*%
X14085000Y-45131700D03*
X15985000Y-45131700D03*
%TD*%
%TO.C,C36*%
X35395000Y-25425000D03*
X37295000Y-25425000D03*
%TD*%
D44*
%TO.C,FB1*%
X17602500Y-69978300D03*
X20752500Y-69978300D03*
%TD*%
D10*
%TO.C,R34*%
X50612500Y-29100000D03*
X52437500Y-29100000D03*
%TD*%
D14*
%TO.C,C26*%
X62795000Y-17705000D03*
X64695000Y-17705000D03*
%TD*%
D10*
%TO.C,R33*%
X59212500Y-25947500D03*
X61037500Y-25947500D03*
%TD*%
%TO.C,R30*%
X59812500Y-56805000D03*
X61637500Y-56805000D03*
%TD*%
D17*
%TO.C,D13*%
X27537500Y-12670000D03*
X27537500Y-14570000D03*
X29412500Y-13620000D03*
%TD*%
D14*
%TO.C,C38*%
X34795000Y-75350000D03*
X36695000Y-75350000D03*
%TD*%
D10*
%TO.C,R57*%
X27312500Y-28730000D03*
X29137500Y-28730000D03*
%TD*%
D45*
%TO.C,C3*%
X11695000Y-55245000D03*
X20095000Y-55245000D03*
%TD*%
D10*
%TO.C,R38*%
X54912500Y-32252500D03*
X56737500Y-32252500D03*
%TD*%
%TO.C,R65*%
X39262500Y-32005000D03*
X41087500Y-32005000D03*
%TD*%
D14*
%TO.C,C13*%
X33550000Y-55700000D03*
X35450000Y-55700000D03*
%TD*%
%TO.C,C21*%
X68885000Y-24025000D03*
X70785000Y-24025000D03*
%TD*%
D10*
%TO.C,R15*%
X42552500Y-75320000D03*
X44377500Y-75320000D03*
%TD*%
D38*
%TO.C,D3*%
X11045000Y-76995000D03*
X15045000Y-76995000D03*
%TD*%
D17*
%TO.C,D11*%
X19037500Y-12670000D03*
X19037500Y-14570000D03*
X20912500Y-13620000D03*
%TD*%
D11*
%TO.C,PF3*%
X62952500Y-70975000D03*
X65877500Y-70975000D03*
%TD*%
D38*
%TO.C,D10*%
X19545000Y-8795000D03*
X23545000Y-8795000D03*
%TD*%
D24*
%TO.C,C22*%
X63870000Y-24195000D03*
X66820000Y-24195000D03*
%TD*%
D10*
%TO.C,R16*%
X67702500Y-27785000D03*
X69527500Y-27785000D03*
%TD*%
%TO.C,R55*%
X22662500Y-32005000D03*
X24487500Y-32005000D03*
%TD*%
%TO.C,R31*%
X50612500Y-25947500D03*
X52437500Y-25947500D03*
%TD*%
D17*
%TO.C,Q2*%
X60037500Y-50095000D03*
X60037500Y-51995000D03*
X61912500Y-51045000D03*
%TD*%
D38*
%TO.C,D8*%
X11045000Y-8795000D03*
X15045000Y-8795000D03*
%TD*%
D10*
%TO.C,R10*%
X37587500Y-64000000D03*
X39412500Y-64000000D03*
%TD*%
%TO.C,R4*%
X37587500Y-48200000D03*
X39412500Y-48200000D03*
%TD*%
%TO.C,R1*%
X13902500Y-73645000D03*
X15727500Y-73645000D03*
%TD*%
%TO.C,R39*%
X59212500Y-32252500D03*
X61037500Y-32252500D03*
%TD*%
D46*
%TO.C,F1*%
X22897500Y-69908300D03*
X25697500Y-69908300D03*
%TD*%
D47*
%TO.C,L3*%
X18360000Y-34745000D03*
X22910000Y-34745000D03*
X18360000Y-37245000D03*
X22910000Y-37245000D03*
%TD*%
M02*
