M48
; DRILL file {KiCad 9.0.5} date 2026-08-11T22:43:35-0400
; FORMAT={-:-/ absolute / metric / decimal}
; #@! TF.CreationDate,2026-08-11T22:43:35-04:00
; #@! TF.GenerationSoftware,Kicad,Pcbnew,9.0.5
; #@! TF.FileFunction,Plated,1,4,PTH
FMAT,2
METRIC
; #@! TA.AperFunction,Plated,PTH,ComponentDrill
T1C0.200
; #@! TA.AperFunction,Plated,PTH,ViaDrill
T2C0.250
; #@! TA.AperFunction,Plated,PTH,ViaDrill
T3C0.300
; #@! TA.AperFunction,Plated,PTH,ViaDrill
T4C0.400
; #@! TA.AperFunction,Plated,PTH,ComponentDrill
T5C0.600
; #@! TA.AperFunction,Plated,PTH,ComponentDrill
T6C0.750
; #@! TA.AperFunction,Plated,PTH,ComponentDrill
T7C1.000
%
G90
G05
T1
X41.85Y-40.05
X41.85Y-41.35
X41.85Y-42.65
X41.85Y-43.95
X41.85Y-55.85
X41.85Y-57.15
X41.85Y-58.45
X41.85Y-59.75
X43.15Y-40.05
X43.15Y-41.35
X43.15Y-42.65
X43.15Y-43.95
X43.15Y-55.85
X43.15Y-57.15
X43.15Y-58.45
X43.15Y-59.75
X49.1Y-8.56
X49.1Y-9.96
X49.8Y-7.86
X49.8Y-9.26
X49.8Y-10.66
X50.5Y-8.56
X50.5Y-9.96
X51.2Y-7.86
X51.2Y-9.26
X51.2Y-10.66
X51.9Y-8.56
X51.9Y-9.96
T2
X63.541Y-21.301
X64.07Y-9.745
X67.547Y-11.593
X68.66Y-9.745
X76.99Y-14.979
T3
X3.919Y-24.901
X4.534Y-16.351
X8.977Y-62.957
X11.803Y-72.306
X12.257Y-34.62
X12.851Y-44.996
X13.192Y-48.205
X13.679Y-13.338
X13.695Y-69.565
X13.731Y-37.524
X15.987Y-29.934
X16.082Y-72.439
X17.831Y-43.878
X18.873Y-27.272
X20.337Y-23.216
X23.552Y-17.024
X24.791Y-43.579
X30.226Y-22.532
X30.873Y-30.787
X31.24Y-66.523
X32.093Y-31.074
X32.6Y-19.815
X33.67Y-21.39
X34.266Y-76.952
X35.334Y-33.697
X36.397Y-29.934
X36.913Y-24.189
X38.228Y-29.536
X38.265Y-22.574
X38.3Y-39.788
X38.493Y-9.976
X38.508Y-42.236
X38.527Y-58.023
X39.212Y-54.994
X40.588Y-18.144
X41.044Y-54.738
X41.74Y-22.411
X41.87Y-19.592
X41.994Y-10.602
X42.213Y-28.685
X42.355Y-22.941
X42.526Y-33.724
X44.478Y-50.026
X44.571Y-14.843
X44.79Y-29.091
X45.031Y-16.377
X45.072Y-12.467
X45.619Y-15.694
X45.798Y-46.788
X46.076Y-14.402
X46.318Y-57.746
X46.535Y-12.997
X46.612Y-39.494
X47.596Y-26.305
X47.932Y-5.106
X48.21Y-25.69
X48.278Y-88.286
X48.527Y-47.826
X48.838Y-20.563
X49.836Y-12.34
X51.423Y-70.207
X51.476Y-18.016
X51.545Y-29.992
X51.908Y-69.558
X51.972Y-13.493
X52.438Y-27.175
X52.594Y-18.024
X53.404Y-17.849
X53.464Y-35.009
X54.051Y-30.447
X54.092Y-21.123
X54.372Y-17.197
X55.81Y-86.062
X56.067Y-31.091
X56.144Y-23.658
X57.085Y-21.531
X58.123Y-30.951
X58.208Y-13.719
X58.322Y-37.013
X58.835Y-7.748
X58.835Y-10.3
X58.846Y-8.958
X59.212Y-24.738
X59.463Y-16.564
X59.847Y-27.923
X60.575Y-31.041
X61.063Y-23.93
X62.024Y-6.423
X62.161Y-38.291
X62.679Y-11.547
X63.041Y-36.797
X63.069Y-53.066
X63.311Y-34.093
X63.713Y-11.782
X64.141Y-8.271
X64.257Y-38.094
X65.897Y-28.346
X66.085Y-8.026
X66.532Y-41.616
X67.795Y-36.578
X71.043Y-39.55
X71.5Y-34.072
X72.364Y-55.6
X72.997Y-70.583
X73.133Y-18.33
X73.629Y-72.491
X74.58Y-15.25
X74.58Y-16.25
X74.85Y-55.6
X74.85Y-62.6
X74.887Y-35.217
X77.03Y-15.75
X77.03Y-16.75
X77.124Y-36.046
X79.676Y-30.912
X81.15Y-55.6
X81.15Y-62.6
T4
X6.375Y-18.0
X6.375Y-32.0
X7.516Y-38.012
X8.995Y-70.478
X11.775Y-12.67
X11.775Y-14.57
X12.245Y-36.11
X12.414Y-37.38
X12.761Y-74.287
X13.061Y-26.037
X13.15Y-32.005
X13.924Y-71.489
X14.951Y-45.744
X16.56Y-42.498
X16.795Y-8.795
X16.851Y-45.744
X17.0Y-32.005
X17.195Y-38.65
X19.134Y-20.408
X20.275Y-12.67
X20.275Y-14.57
X20.59Y-73.645
X20.741Y-45.744
X21.561Y-26.037
X21.65Y-32.005
X22.127Y-67.501
X22.795Y-55.245
X24.285Y-41.798
X24.72Y-45.102
X25.295Y-8.795
X25.5Y-32.005
X26.359Y-21.481
X26.965Y-68.574
X28.775Y-12.67
X28.775Y-14.57
X30.061Y-26.037
X30.15Y-32.005
X30.885Y-64.612
X31.15Y-83.5
X32.44Y-39.469
X33.795Y-8.795
X34.0Y-32.005
X34.75Y-68.2
X35.523Y-23.42
X35.8Y-45.1
X35.8Y-60.9
X35.819Y-77.561
X36.216Y-42.812
X36.216Y-58.612
X36.45Y-39.9
X36.45Y-55.7
X36.875Y-12.67
X36.875Y-14.57
X37.25Y-56.35
X37.675Y-46.75
X38.061Y-74.621
X38.161Y-26.037
X38.198Y-73.015
X38.25Y-32.005
X38.65Y-70.745
X38.736Y-40.495
X38.736Y-56.295
X39.251Y-86.885
X40.425Y-48.2
X40.425Y-64.0
X40.453Y-84.399
X41.508Y-72.275
X41.795Y-82.795
X41.895Y-8.795
X42.0Y-79.005
X42.1Y-32.005
X42.678Y-69.859
X43.87Y-77.608
X44.425Y-48.2
X44.425Y-64.0
X44.5Y-1.54
X44.5Y-2.81
X44.611Y-47.223
X44.661Y-35.587
X45.25Y-29.795
X45.25Y-30.795
X45.475Y-71.695
X45.89Y-73.978
X46.094Y-65.039
X46.25Y-21.795
X46.25Y-24.6
X46.25Y-27.405
X46.425Y-51.0
X46.425Y-66.8
X46.695Y-34.975
X47.312Y-72.782
X48.295Y-86.595
X49.65Y-30.795
X49.775Y-70.295
X49.775Y-72.195
X50.464Y-88.895
X50.716Y-85.112
X51.061Y-76.028
X51.1Y-63.6
X52.95Y-66.6
X53.906Y-48.5
X53.906Y-64.3
X54.695Y-22.595
X54.864Y-79.435
X54.908Y-75.985
X56.1Y-63.6
X56.416Y-66.812
X56.595Y-78.835
X57.6Y-57.8
X57.733Y-44.625
X58.45Y-50.4
X58.45Y-66.2
X58.695Y-78.835
X58.89Y-75.385
X59.035Y-22.425
X59.05Y-47.8
X59.05Y-63.6
X59.719Y-36.444
X59.957Y-42.664
X60.319Y-55.339
X60.383Y-70.796
X61.275Y-51.995
X62.0Y-1.54
X62.65Y-56.805
X63.095Y-35.745
X63.095Y-39.847
X63.871Y-17.826
X64.032Y-19.745
X64.24Y-24.101
X64.661Y-30.312
X64.712Y-12.677
X65.02Y-14.554
X65.625Y-51.995
X65.65Y-22.315
X65.787Y-21.268
X66.561Y-30.312
X66.7Y-13.626
X66.851Y-15.869
X66.984Y-26.645
X67.695Y-35.745
X67.695Y-39.847
X68.13Y-42.664
X68.209Y-30.709
X69.263Y-14.803
X69.295Y-25.695
X69.403Y-22.563
X70.364Y-33.005
X70.611Y-20.207
X71.025Y-38.675
X71.94Y-23.822
X72.019Y-33.444
X72.059Y-30.709
X72.085Y-16.975
X72.101Y-26.395
X73.404Y-27.869
X74.58Y-12.75
X74.59Y-19.565
X75.605Y-30.989
X75.805Y-20.05
X75.869Y-33.444
X76.001Y-26.137
X76.2Y-58.4
X76.2Y-65.4
X77.991Y-26.137
X78.24Y-29.67
X80.025Y-25.525
X81.725Y-46.575
X82.05Y-32.405
X82.5Y-58.4
X82.5Y-65.4
X82.65Y-77.0
T6
X5.0Y-18.0
X5.0Y-20.0
X5.0Y-22.0
X5.0Y-24.0
X5.0Y-26.0
X5.0Y-28.0
X5.0Y-30.0
X5.0Y-32.0
X5.0Y-50.0
X5.0Y-52.0
X5.0Y-54.0
X5.0Y-56.0
T7
X10.0Y-3.0
X12.54Y-3.0
X15.08Y-3.0
X17.62Y-3.0
X20.16Y-3.0
X22.7Y-3.0
X26.0Y-97.5
X27.5Y-3.0
X28.54Y-97.5
X30.04Y-3.0
X31.08Y-97.5
X32.58Y-3.0
X33.62Y-97.5
X35.12Y-3.0
X37.66Y-3.0
X40.2Y-3.0
X41.0Y-97.5
X43.54Y-97.5
X46.08Y-97.5
X48.62Y-97.5
X56.0Y-97.5
X58.54Y-97.5
X61.08Y-97.5
X63.62Y-97.5
X69.0Y-97.5
X71.54Y-97.5
X74.08Y-97.5
T5
X76.17Y-11.68G85X77.27Y-11.68
G05
X76.17Y-20.32G85X77.27Y-20.32
G05
X80.6Y-11.68G85X81.2Y-11.68
G05
X80.6Y-20.32G85X81.2Y-20.32
G05
M30
