%TF.GenerationSoftware,KiCad,Pcbnew,9.0.5*%
%TF.CreationDate,2026-08-10T16:35:44-04:00*%
%TF.ProjectId,esp32s3-can-sd-logger,65737033-3273-4332-9d63-616e2d73642d,rev?*%
%TF.SameCoordinates,Original*%
%TF.FileFunction,Copper,L1,Top*%
%TF.FilePolarity,Positive*%
%FSLAX46Y46*%
G04 Gerber Fmt 4.6, Leading zero omitted, Abs format (unit mm)*
G04 Created by KiCad (PCBNEW 9.0.5) date 2026-08-10 16:35:44*
%MOMM*%
%LPD*%
G01*
G04 APERTURE LIST*
G04 Aperture macros list*
%AMRoundRect*
0 Rectangle with rounded corners*
0 $1 Rounding radius*
0 $2 $3 $4 $5 $6 $7 $8 $9 X,Y pos of 4 corners*
0 Add a 4 corners polygon primitive as box body*
4,1,4,$2,$3,$4,$5,$6,$7,$8,$9,$2,$3,0*
0 Add four circle primitives for the rounded corners*
1,1,$1+$1,$2,$3*
1,1,$1+$1,$4,$5*
1,1,$1+$1,$6,$7*
1,1,$1+$1,$8,$9*
0 Add four rect primitives between the rounded corners*
20,1,$1+$1,$2,$3,$4,$5,0*
20,1,$1+$1,$4,$5,$6,$7,0*
20,1,$1+$1,$6,$7,$8,$9,0*
20,1,$1+$1,$8,$9,$2,$3,0*%
G04 Aperture macros list end*
%TA.AperFunction,EtchedComponent*%
%ADD10C,0.000000*%
%TD*%
%TA.AperFunction,SMDPad,CuDef*%
%ADD11RoundRect,0.250000X-1.000000X-0.650000X1.000000X-0.650000X1.000000X0.650000X-1.000000X0.650000X0*%
%TD*%
%TA.AperFunction,SMDPad,CuDef*%
%ADD12R,1.000000X1.500000*%
%TD*%
%TA.AperFunction,SMDPad,CuDef*%
%ADD13RoundRect,0.250000X-0.262500X-0.450000X0.262500X-0.450000X0.262500X0.450000X-0.262500X0.450000X0*%
%TD*%
%TA.AperFunction,SMDPad,CuDef*%
%ADD14RoundRect,0.250000X-0.325000X-0.650000X0.325000X-0.650000X0.325000X0.650000X-0.325000X0.650000X0*%
%TD*%
%TA.AperFunction,SMDPad,CuDef*%
%ADD15C,1.500000*%
%TD*%
%TA.AperFunction,ComponentPad*%
%ADD16R,1.700000X1.700000*%
%TD*%
%TA.AperFunction,ComponentPad*%
%ADD17C,1.700000*%
%TD*%
%TA.AperFunction,SMDPad,CuDef*%
%ADD18RoundRect,0.250000X-0.250000X-0.475000X0.250000X-0.475000X0.250000X0.475000X-0.250000X0.475000X0*%
%TD*%
%TA.AperFunction,SMDPad,CuDef*%
%ADD19RoundRect,0.150000X-0.825000X-0.150000X0.825000X-0.150000X0.825000X0.150000X-0.825000X0.150000X0*%
%TD*%
%TA.AperFunction,SMDPad,CuDef*%
%ADD20RoundRect,0.150000X-0.587500X-0.150000X0.587500X-0.150000X0.587500X0.150000X-0.587500X0.150000X0*%
%TD*%
%TA.AperFunction,SMDPad,CuDef*%
%ADD21RoundRect,0.250000X0.325000X0.650000X-0.325000X0.650000X-0.325000X-0.650000X0.325000X-0.650000X0*%
%TD*%
%TA.AperFunction,SMDPad,CuDef*%
%ADD22RoundRect,0.150000X-0.512500X-0.150000X0.512500X-0.150000X0.512500X0.150000X-0.512500X0.150000X0*%
%TD*%
%TA.AperFunction,SMDPad,CuDef*%
%ADD23R,1.700000X1.000000*%
%TD*%
%TA.AperFunction,SMDPad,CuDef*%
%ADD24RoundRect,0.218750X-0.218750X-0.381250X0.218750X-0.381250X0.218750X0.381250X-0.218750X0.381250X0*%
%TD*%
%TA.AperFunction,SMDPad,CuDef*%
%ADD25RoundRect,0.250000X-0.850000X-0.350000X0.850000X-0.350000X0.850000X0.350000X-0.850000X0.350000X0*%
%TD*%
%TA.AperFunction,SMDPad,CuDef*%
%ADD26RoundRect,0.249997X-2.950003X-2.650003X2.950003X-2.650003X2.950003X2.650003X-2.950003X2.650003X0*%
%TD*%
%TA.AperFunction,SMDPad,CuDef*%
%ADD27RoundRect,0.075000X-0.650000X-0.075000X0.650000X-0.075000X0.650000X0.075000X-0.650000X0.075000X0*%
%TD*%
%TA.AperFunction,SMDPad,CuDef*%
%ADD28RoundRect,0.250000X0.250000X0.475000X-0.250000X0.475000X-0.250000X-0.475000X0.250000X-0.475000X0*%
%TD*%
%TA.AperFunction,SMDPad,CuDef*%
%ADD29R,1.750000X0.700000*%
%TD*%
%TA.AperFunction,SMDPad,CuDef*%
%ADD30R,1.000000X1.450000*%
%TD*%
%TA.AperFunction,SMDPad,CuDef*%
%ADD31R,1.550000X1.000000*%
%TD*%
%TA.AperFunction,SMDPad,CuDef*%
%ADD32R,1.500000X0.800000*%
%TD*%
%TA.AperFunction,SMDPad,CuDef*%
%ADD33R,1.500000X1.300000*%
%TD*%
%TA.AperFunction,SMDPad,CuDef*%
%ADD34R,1.500000X1.500000*%
%TD*%
%TA.AperFunction,SMDPad,CuDef*%
%ADD35R,1.400000X0.800000*%
%TD*%
%TA.AperFunction,SMDPad,CuDef*%
%ADD36RoundRect,0.250000X1.000000X-1.400000X1.000000X1.400000X-1.000000X1.400000X-1.000000X-1.400000X0*%
%TD*%
%TA.AperFunction,SMDPad,CuDef*%
%ADD37RoundRect,0.249999X-0.850001X-3.500001X0.850001X-3.500001X0.850001X3.500001X-0.850001X3.500001X0*%
%TD*%
%TA.AperFunction,SMDPad,CuDef*%
%ADD38RoundRect,0.243750X-0.243750X-0.456250X0.243750X-0.456250X0.243750X0.456250X-0.243750X0.456250X0*%
%TD*%
%TA.AperFunction,SMDPad,CuDef*%
%ADD39R,1.350000X0.900000*%
%TD*%
%TA.AperFunction,SMDPad,CuDef*%
%ADD40RoundRect,0.250000X-0.275000X-0.700000X0.275000X-0.700000X0.275000X0.700000X-0.275000X0.700000X0*%
%TD*%
%TA.AperFunction,SMDPad,CuDef*%
%ADD41RoundRect,0.250000X-0.312500X-0.625000X0.312500X-0.625000X0.312500X0.625000X-0.312500X0.625000X0*%
%TD*%
%TA.AperFunction,SMDPad,CuDef*%
%ADD42RoundRect,0.150000X-0.737500X-0.150000X0.737500X-0.150000X0.737500X0.150000X-0.737500X0.150000X0*%
%TD*%
%TA.AperFunction,HeatsinkPad*%
%ADD43C,0.500000*%
%TD*%
%TA.AperFunction,HeatsinkPad*%
%ADD44R,2.950000X4.900000*%
%TD*%
%TA.AperFunction,ComponentPad*%
%ADD45RoundRect,0.250000X-0.625000X0.350000X-0.625000X-0.350000X0.625000X-0.350000X0.625000X0.350000X0*%
%TD*%
%TA.AperFunction,ComponentPad*%
%ADD46O,1.750000X1.200000*%
%TD*%
%TA.AperFunction,SMDPad,CuDef*%
%ADD47R,1.450000X0.600000*%
%TD*%
%TA.AperFunction,SMDPad,CuDef*%
%ADD48R,1.450000X0.300000*%
%TD*%
%TA.AperFunction,HeatsinkPad*%
%ADD49O,2.100000X1.000000*%
%TD*%
%TA.AperFunction,HeatsinkPad*%
%ADD50O,1.600000X1.000000*%
%TD*%
%TA.AperFunction,SMDPad,CuDef*%
%ADD51RoundRect,0.112500X-0.187500X-0.112500X0.187500X-0.112500X0.187500X0.112500X-0.187500X0.112500X0*%
%TD*%
%TA.AperFunction,SMDPad,CuDef*%
%ADD52RoundRect,0.250000X-1.950000X-1.000000X1.950000X-1.000000X1.950000X1.000000X-1.950000X1.000000X0*%
%TD*%
%TA.AperFunction,SMDPad,CuDef*%
%ADD53RoundRect,0.225000X-0.225000X-0.375000X0.225000X-0.375000X0.225000X0.375000X-0.225000X0.375000X0*%
%TD*%
%TA.AperFunction,SMDPad,CuDef*%
%ADD54RoundRect,0.250000X-0.375000X-0.625000X0.375000X-0.625000X0.375000X0.625000X-0.375000X0.625000X0*%
%TD*%
%TA.AperFunction,SMDPad,CuDef*%
%ADD55R,1.500000X0.900000*%
%TD*%
%TA.AperFunction,SMDPad,CuDef*%
%ADD56R,0.900000X1.500000*%
%TD*%
%TA.AperFunction,HeatsinkPad*%
%ADD57C,0.600000*%
%TD*%
%TA.AperFunction,HeatsinkPad*%
%ADD58R,3.900000X3.900000*%
%TD*%
%TA.AperFunction,ViaPad*%
%ADD59C,0.600000*%
%TD*%
%TA.AperFunction,Conductor*%
%ADD60C,0.450000*%
%TD*%
%TA.AperFunction,Conductor*%
%ADD61C,0.500000*%
%TD*%
G04 APERTURE END LIST*
D10*
%TA.AperFunction,EtchedComponent*%
%TO.C,JP1*%
G36*
X11445000Y-39674999D02*
G01*
X10945000Y-39674999D01*
X10945000Y-39074999D01*
X11445000Y-39074999D01*
X11445000Y-39674999D01*
G37*
%TD.AperFunction*%
%TD*%
D11*
%TO.P,D8,1*%
%TO.N,CAN_H*%
X11045000Y-35885000D03*
%TO.P,D8,2*%
%TO.N,GND*%
X15045000Y-35885000D03*
%TD*%
D12*
%TO.P,JP2,1*%
%TO.N,+5VS*%
X10545000Y-15175000D03*
%TO.P,JP2,2*%
%TO.N,AIN1_PU*%
X11845000Y-15175000D03*
%TD*%
D13*
%TO.P,R50,1*%
%TO.N,AIN2_A*%
X22662500Y-20314999D03*
%TO.P,R50,2*%
%TO.N,AIN2*%
X24487500Y-20314999D03*
%TD*%
D11*
%TO.P,D3,1*%
%TO.N,+5VS*%
X60545000Y-64295000D03*
%TO.P,D3,2*%
%TO.N,GND*%
X64545000Y-64295000D03*
%TD*%
D14*
%TO.P,C19,1*%
%TO.N,+3V3*%
X63870000Y-24495000D03*
%TO.P,C19,2*%
%TO.N,GND*%
X66820000Y-24495000D03*
%TD*%
D15*
%TO.P,TP5,1*%
%TO.N,GND*%
X36347505Y-25196249D03*
%TD*%
D13*
%TO.P,R35,1*%
%TO.N,SD_VDD*%
X55662500Y-30964999D03*
%TO.P,R35,2*%
%TO.N,SD_D0_C*%
X57487500Y-30964999D03*
%TD*%
%TO.P,R25,1*%
%TO.N,+3V3*%
X59812500Y-54185000D03*
%TO.P,R25,2*%
%TO.N,SD_PG*%
X61637500Y-54185000D03*
%TD*%
D16*
%TO.P,J5,1*%
%TO.N,+3V3*%
X21700000Y-3000000D03*
D17*
%TO.P,J5,2*%
%TO.N,GND*%
X24240000Y-3000000D03*
%TO.P,J5,3*%
%TO.N,SPI_SCK*%
X26780000Y-3000000D03*
%TO.P,J5,4*%
%TO.N,SPI_MISO*%
X29320000Y-3000000D03*
%TO.P,J5,5*%
%TO.N,SPI_MOSI*%
X31860000Y-3000000D03*
%TO.P,J5,6*%
%TO.N,SPI_CS*%
X34400000Y-3000000D03*
%TD*%
D12*
%TO.P,JP11,1*%
%TO.N,+5VS*%
X35645000Y-15175000D03*
%TO.P,JP11,2*%
%TO.N,AIN4_PU*%
X36945000Y-15175000D03*
%TD*%
D13*
%TO.P,R62,1*%
%TO.N,AIN4_R2*%
X39262500Y-22704999D03*
%TO.P,R62,2*%
%TO.N,GND*%
X41087500Y-22704999D03*
%TD*%
%TO.P,R48,1*%
%TO.N,AIN2_IN*%
X22702500Y-17864999D03*
%TO.P,R48,2*%
%TO.N,AIN2_A*%
X24527500Y-17864999D03*
%TD*%
%TO.P,R26,1*%
%TO.N,SD_PWR_EN*%
X63662500Y-54185000D03*
%TO.P,R26,2*%
%TO.N,SD_EN_G*%
X65487500Y-54185000D03*
%TD*%
D12*
%TO.P,JP10,1*%
%TO.N,AIN3_R1*%
X27545000Y-12185000D03*
%TO.P,JP10,2*%
%TO.N,AIN3*%
X28845000Y-12185000D03*
%TO.P,JP10,3*%
%TO.N,AIN3_R2*%
X30145000Y-12185000D03*
%TD*%
D16*
%TO.P,J7,1*%
%TO.N,IO3*%
X10000000Y-3000000D03*
D17*
%TO.P,J7,2*%
%TO.N,IO45*%
X12540000Y-3000000D03*
%TO.P,J7,3*%
%TO.N,IO46*%
X15080000Y-3000000D03*
%TD*%
D18*
%TO.P,C10,1*%
%TO.N,+5V*%
X55550000Y-50400000D03*
%TO.P,C10,2*%
%TO.N,GND*%
X57450000Y-50400000D03*
%TD*%
%TO.P,C28,1*%
%TO.N,CAN_SPLIT*%
X21865000Y-39104999D03*
%TO.P,C28,2*%
%TO.N,GND*%
X23765000Y-39104999D03*
%TD*%
D13*
%TO.P,R37,1*%
%TO.N,SD_VDD*%
X51812500Y-33354999D03*
%TO.P,R37,2*%
%TO.N,SD_D2_C*%
X53637500Y-33354999D03*
%TD*%
D18*
%TO.P,C11,1*%
%TO.N,BST_3V3*%
X41050000Y-53400000D03*
%TO.P,C11,2*%
%TO.N,SW_3V3*%
X42950000Y-53400000D03*
%TD*%
D13*
%TO.P,R17,1*%
%TO.N,+3V3*%
X63812500Y-29535000D03*
%TO.P,R17,2*%
%TO.N,MCU_BOOT*%
X65637500Y-29535000D03*
%TD*%
D19*
%TO.P,U7,1*%
%TO.N,CAN_TX*%
X10770000Y-29040000D03*
%TO.P,U7,2*%
%TO.N,GND*%
X10770000Y-30310000D03*
%TO.P,U7,3*%
%TO.N,+5V*%
X10770000Y-31580000D03*
%TO.P,U7,4*%
%TO.N,CAN_RX*%
X10770000Y-32850000D03*
%TO.P,U7,5*%
%TO.N,+3V3*%
X15720000Y-32850000D03*
%TO.P,U7,6*%
%TO.N,CANL_T*%
X15720000Y-31580000D03*
%TO.P,U7,7*%
%TO.N,CANH_T*%
X15720000Y-30310000D03*
%TO.P,U7,8*%
%TO.N,CAN_S*%
X15720000Y-29040000D03*
%TD*%
D20*
%TO.P,D13,1*%
%TO.N,GND*%
X35637500Y-7795000D03*
%TO.P,D13,2*%
%TO.N,+3V3*%
X35637500Y-9695000D03*
%TO.P,D13,3*%
%TO.N,AIN4*%
X37512500Y-8745000D03*
%TD*%
D21*
%TO.P,C3,1*%
%TO.N,+VBAT*%
X37675000Y-45100000D03*
%TO.P,C3,2*%
%TO.N,GND*%
X34725000Y-45100000D03*
%TD*%
D16*
%TO.P,J4,1*%
%TO.N,GND*%
X41000000Y-71500000D03*
D17*
%TO.P,J4,2*%
%TO.N,+3V3*%
X43540000Y-71500000D03*
%TO.P,J4,3*%
%TO.N,I2C_SDA*%
X46080000Y-71500000D03*
%TO.P,J4,4*%
%TO.N,I2C_SCL*%
X48620000Y-71500000D03*
%TD*%
D22*
%TO.P,U6,1*%
%TO.N,GND*%
X59957500Y-59095000D03*
%TO.P,U6,2*%
%TO.N,LED_DIN_A*%
X59957500Y-60045000D03*
%TO.P,U6,3*%
%TO.N,GND*%
X59957500Y-60995000D03*
%TO.P,U6,4*%
%TO.N,LED_DIN*%
X62232500Y-60995000D03*
%TO.P,U6,5*%
%TO.N,+5V*%
X62232500Y-59095000D03*
%TD*%
D23*
%TO.P,SW2,1*%
%TO.N,MCU_BOOT*%
X74850000Y-61600000D03*
X81150000Y-61600000D03*
%TO.P,SW2,2*%
%TO.N,GND*%
X74850000Y-65400000D03*
X81150000Y-65400000D03*
%TD*%
D12*
%TO.P,JP3,1*%
%TO.N,AIN1_A*%
X14335000Y-15175000D03*
%TO.P,JP3,2*%
%TO.N,AIN1*%
X15635000Y-15175000D03*
%TD*%
D18*
%TO.P,C6,1*%
%TO.N,RAMP_5V*%
X50050000Y-50800000D03*
%TO.P,C6,2*%
%TO.N,+5V*%
X51950000Y-50800000D03*
%TD*%
D13*
%TO.P,R63,1*%
%TO.N,+VBAT*%
X35362500Y-31235000D03*
%TO.P,R63,2*%
%TO.N,VBAT_SNS*%
X37187500Y-31235000D03*
%TD*%
%TO.P,R24,1*%
%TO.N,LED_DIN_MCU*%
X69452500Y-59295000D03*
%TO.P,R24,2*%
%TO.N,LED_DIN_A*%
X71277500Y-59295000D03*
%TD*%
D24*
%TO.P,FB2,1*%
%TO.N,VSENS_F*%
X69872500Y-67385000D03*
%TO.P,FB2,2*%
%TO.N,+5VS*%
X71997500Y-67385000D03*
%TD*%
D25*
%TO.P,Q1,1*%
%TO.N,GATE_RB*%
X10595000Y-56055000D03*
%TO.P,Q1,2*%
%TO.N,VBAT_FB*%
X10595000Y-58335000D03*
D26*
X16895000Y-58335000D03*
D25*
%TO.P,Q1,3*%
%TO.N,+VBAT*%
X10595000Y-60615000D03*
%TD*%
D12*
%TO.P,JP1,1*%
%TO.N,CAN_H*%
X10545000Y-39374999D03*
%TO.P,JP1,2*%
%TO.N,TERM_A*%
X11845000Y-39374999D03*
%TD*%
D27*
%TO.P,U8,1*%
%TO.N,GND*%
X44025000Y-29795000D03*
%TO.P,U8,2*%
%TO.N,N/C*%
X44025000Y-30295000D03*
%TO.P,U8,3*%
%TO.N,GND*%
X44025000Y-30795000D03*
%TO.P,U8,4*%
%TO.N,AIN1*%
X44025000Y-31295000D03*
%TO.P,U8,5*%
%TO.N,AIN2*%
X44025000Y-31795000D03*
%TO.P,U8,6*%
%TO.N,AIN3*%
X48425000Y-31795000D03*
%TO.P,U8,7*%
%TO.N,AIN4*%
X48425000Y-31295000D03*
%TO.P,U8,8*%
%TO.N,+3V3*%
X48425000Y-30795000D03*
%TO.P,U8,9*%
%TO.N,I2C_SDA*%
X48425000Y-30295000D03*
%TO.P,U8,10*%
%TO.N,I2C_SCL*%
X48425000Y-29795000D03*
%TD*%
D14*
%TO.P,C14,1*%
%TO.N,+3V3*%
X50025000Y-63600000D03*
%TO.P,C14,2*%
%TO.N,GND*%
X52975000Y-63600000D03*
%TD*%
D28*
%TO.P,C4,1*%
%TO.N,+VBAT*%
X37250000Y-42200000D03*
%TO.P,C4,2*%
%TO.N,GND*%
X35350000Y-42200000D03*
%TD*%
D29*
%TO.P,J9,1*%
%TO.N,SD_D2_C*%
X69650000Y-44175000D03*
%TO.P,J9,2*%
%TO.N,SD_D3_C*%
X69650000Y-43075000D03*
%TO.P,J9,3*%
%TO.N,SD_CMD_C*%
X69650000Y-41975000D03*
%TO.P,J9,4*%
%TO.N,SD_VDD*%
X69650000Y-40875000D03*
%TO.P,J9,5*%
%TO.N,SD_CLK_C*%
X69650000Y-39775000D03*
%TO.P,J9,6*%
%TO.N,GND*%
X69650000Y-38675000D03*
%TO.P,J9,7*%
%TO.N,SD_D0_C*%
X69650000Y-37575000D03*
%TO.P,J9,8*%
%TO.N,SD_D1_C*%
X69650000Y-36475000D03*
D30*
%TO.P,J9,9*%
%TO.N,SD_CD*%
X78875000Y-35350000D03*
D31*
%TO.P,J9,10*%
%TO.N,GND*%
X80450000Y-46575000D03*
D32*
%TO.P,J9,11*%
%TO.N,N/C*%
X77375000Y-35025000D03*
D33*
X69775000Y-35275000D03*
D34*
X69775000Y-46625000D03*
D35*
X78025000Y-46975000D03*
%TD*%
D18*
%TO.P,C27,1*%
%TO.N,+3V3*%
X17975000Y-39104999D03*
%TO.P,C27,2*%
%TO.N,GND*%
X19875000Y-39104999D03*
%TD*%
D13*
%TO.P,R55,1*%
%TO.N,AIN3_A*%
X31162500Y-20314999D03*
%TO.P,R55,2*%
%TO.N,AIN3*%
X32987500Y-20314999D03*
%TD*%
%TO.P,R59,1*%
%TO.N,AIN4_PU*%
X35412500Y-20314999D03*
%TO.P,R59,2*%
%TO.N,AIN4_A*%
X37237500Y-20314999D03*
%TD*%
%TO.P,R22,1*%
%TO.N,LED1*%
X79312500Y-49695000D03*
%TO.P,R22,2*%
%TO.N,LED1_A*%
X81137500Y-49695000D03*
%TD*%
%TO.P,R46,1*%
%TO.N,AIN1_R1*%
X10312500Y-22704999D03*
%TO.P,R46,2*%
%TO.N,GND*%
X12137500Y-22704999D03*
%TD*%
D18*
%TO.P,C13,1*%
%TO.N,RAMP_3V3*%
X39550000Y-66800000D03*
%TO.P,C13,2*%
%TO.N,FB_3V3*%
X41450000Y-66800000D03*
%TD*%
D13*
%TO.P,R15,1*%
%TO.N,PWR_LED_K*%
X31512500Y-31235000D03*
%TO.P,R15,2*%
%TO.N,GND*%
X33337500Y-31235000D03*
%TD*%
%TO.P,R52,1*%
%TO.N,AIN2_R2*%
X22662500Y-22704999D03*
%TO.P,R52,2*%
%TO.N,GND*%
X24487500Y-22704999D03*
%TD*%
D14*
%TO.P,C8,1*%
%TO.N,+5V*%
X50025000Y-47800000D03*
%TO.P,C8,2*%
%TO.N,GND*%
X52975000Y-47800000D03*
%TD*%
%TO.P,C24,1*%
%TO.N,SD_VDD*%
X51870000Y-23595000D03*
%TO.P,C24,2*%
%TO.N,GND*%
X54820000Y-23595000D03*
%TD*%
D18*
%TO.P,C25,1*%
%TO.N,SD_VDD*%
X56885000Y-23425000D03*
%TO.P,C25,2*%
%TO.N,GND*%
X58785000Y-23425000D03*
%TD*%
D36*
%TO.P,D1,1*%
%TO.N,+VBAT*%
X22335000Y-58185000D03*
%TO.P,D1,2*%
%TO.N,GND*%
X29135000Y-58185000D03*
%TD*%
D13*
%TO.P,R9,1*%
%TO.N,+VBAT*%
X37387500Y-53400000D03*
%TO.P,R9,2*%
%TO.N,EN_3V3*%
X39212500Y-53400000D03*
%TD*%
%TO.P,R40,1*%
%TO.N,CAN_S*%
X25772500Y-39074999D03*
%TO.P,R40,2*%
%TO.N,GND*%
X27597500Y-39074999D03*
%TD*%
%TO.P,R20,1*%
%TO.N,+3V3*%
X67662499Y-29535000D03*
%TO.P,R20,2*%
%TO.N,I2C_SDA*%
X69487499Y-29535000D03*
%TD*%
D12*
%TO.P,JP5,1*%
%TO.N,+5VS*%
X19045000Y-15175000D03*
%TO.P,JP5,2*%
%TO.N,AIN2_PU*%
X20345000Y-15175000D03*
%TD*%
D13*
%TO.P,R61,1*%
%TO.N,AIN4_R1*%
X35412500Y-22704999D03*
%TO.P,R61,2*%
%TO.N,GND*%
X37237500Y-22704999D03*
%TD*%
D37*
%TO.P,L2,1*%
%TO.N,SW_3V3*%
X50000000Y-57800000D03*
%TO.P,L2,2*%
%TO.N,+3V3*%
X56000000Y-57800000D03*
%TD*%
D14*
%TO.P,C22,1*%
%TO.N,VBUS*%
X62870000Y-19284999D03*
%TO.P,C22,2*%
%TO.N,GND*%
X65820000Y-19284999D03*
%TD*%
D18*
%TO.P,C1,1*%
%TO.N,VCAP*%
X27817503Y-63304999D03*
%TO.P,C1,2*%
%TO.N,VBAT_FB*%
X29717503Y-63304999D03*
%TD*%
D38*
%TO.P,D4,1*%
%TO.N,PWR_LED_K*%
X35377500Y-28785000D03*
%TO.P,D4,2*%
%TO.N,+3V3*%
X37252500Y-28785000D03*
%TD*%
D18*
%TO.P,C26,1*%
%TO.N,+5V*%
X14085000Y-39104999D03*
%TO.P,C26,2*%
%TO.N,GND*%
X15985000Y-39104999D03*
%TD*%
%TO.P,C7,1*%
%TO.N,RAMP_5V*%
X39550000Y-51000000D03*
%TO.P,C7,2*%
%TO.N,FB_5V*%
X41450000Y-51000000D03*
%TD*%
D13*
%TO.P,R4,1*%
%TO.N,RON_5V*%
X37587500Y-48200000D03*
%TO.P,R4,2*%
%TO.N,GND*%
X39412500Y-48200000D03*
%TD*%
D15*
%TO.P,TP3,1*%
%TO.N,+3V3*%
X33500000Y-68200000D03*
%TD*%
D18*
%TO.P,C5,1*%
%TO.N,BST_5V*%
X41050000Y-37600000D03*
%TO.P,C5,2*%
%TO.N,SW_5V*%
X42950000Y-37600000D03*
%TD*%
D13*
%TO.P,R33,1*%
%TO.N,SD_D3*%
X59512500Y-28574999D03*
%TO.P,R33,2*%
%TO.N,SD_D3_C*%
X61337500Y-28574999D03*
%TD*%
D39*
%TO.P,L3,1*%
%TO.N,CANH_T*%
X18360000Y-28945000D03*
%TO.P,L3,2*%
%TO.N,CAN_H*%
X22910000Y-28945000D03*
%TO.P,L3,3*%
%TO.N,CANL_T*%
X18360000Y-31445000D03*
%TO.P,L3,4*%
%TO.N,CAN_L*%
X22910000Y-31445000D03*
%TD*%
D20*
%TO.P,D14,1*%
%TO.N,GND*%
X31737500Y-24695000D03*
%TO.P,D14,2*%
%TO.N,+3V3*%
X31737500Y-26595000D03*
%TO.P,D14,3*%
%TO.N,VBAT_SNS*%
X33612500Y-25645000D03*
%TD*%
D12*
%TO.P,JP6,1*%
%TO.N,AIN2_A*%
X22835000Y-15175000D03*
%TO.P,JP6,2*%
%TO.N,AIN2*%
X24135000Y-15175000D03*
%TD*%
D13*
%TO.P,R56,1*%
%TO.N,AIN3_R1*%
X27312500Y-22704999D03*
%TO.P,R56,2*%
%TO.N,GND*%
X29137500Y-22704999D03*
%TD*%
D38*
%TO.P,D6,1*%
%TO.N,GND*%
X74562500Y-50800000D03*
%TO.P,D6,2*%
%TO.N,LED1_A*%
X76437500Y-50800000D03*
%TD*%
D13*
%TO.P,R39,1*%
%TO.N,+3V3*%
X59512500Y-33354999D03*
%TO.P,R39,2*%
%TO.N,SD_CD*%
X61337500Y-33354999D03*
%TD*%
%TO.P,R41,1*%
%TO.N,TERM_A*%
X10312500Y-42064999D03*
%TO.P,R41,2*%
%TO.N,CAN_SPLIT*%
X12137500Y-42064999D03*
%TD*%
D15*
%TO.P,TP2,1*%
%TO.N,+5V*%
X33800000Y-37400000D03*
%TD*%
D40*
%TO.P,FB1,1*%
%TO.N,VBAT_F*%
X17602503Y-63524999D03*
%TO.P,FB1,2*%
%TO.N,VBAT_FB*%
X20752503Y-63524999D03*
%TD*%
D12*
%TO.P,JP8,1*%
%TO.N,+5VS*%
X27545000Y-15175000D03*
%TO.P,JP8,2*%
%TO.N,AIN3_PU*%
X28845000Y-15175000D03*
%TD*%
D13*
%TO.P,R47,1*%
%TO.N,AIN1_R2*%
X14162500Y-22704999D03*
%TO.P,R47,2*%
%TO.N,GND*%
X15987500Y-22704999D03*
%TD*%
%TO.P,R29,1*%
%TO.N,SD_CMD*%
X55662500Y-26184999D03*
%TO.P,R29,2*%
%TO.N,SD_CMD_C*%
X57487500Y-26184999D03*
%TD*%
D18*
%TO.P,C16,1*%
%TO.N,+3V3*%
X55550000Y-66200000D03*
%TO.P,C16,2*%
%TO.N,GND*%
X57450000Y-66200000D03*
%TD*%
%TO.P,C12,1*%
%TO.N,RAMP_3V3*%
X50050000Y-66599999D03*
%TO.P,C12,2*%
%TO.N,+3V3*%
X51950000Y-66599999D03*
%TD*%
D12*
%TO.P,JP12,1*%
%TO.N,AIN4_A*%
X39435000Y-15175000D03*
%TO.P,JP12,2*%
%TO.N,AIN4*%
X40735000Y-15175000D03*
%TD*%
D23*
%TO.P,SW1,1*%
%TO.N,MCU_EN*%
X74850000Y-54600000D03*
X81150000Y-54600000D03*
%TO.P,SW1,2*%
%TO.N,GND*%
X74850000Y-58400000D03*
X81150000Y-58400000D03*
%TD*%
D12*
%TO.P,JP13,1*%
%TO.N,AIN4_R1*%
X35645000Y-12185000D03*
%TO.P,JP13,2*%
%TO.N,AIN4*%
X36945000Y-12185000D03*
%TO.P,JP13,3*%
%TO.N,AIN4_R2*%
X38245000Y-12185000D03*
%TD*%
D13*
%TO.P,R30,1*%
%TO.N,SD_D0*%
X59512500Y-26184999D03*
%TO.P,R30,2*%
%TO.N,SD_D0_C*%
X61337500Y-26184999D03*
%TD*%
D18*
%TO.P,C23,1*%
%TO.N,+5V*%
X67685000Y-27115000D03*
%TO.P,C23,2*%
%TO.N,GND*%
X69585000Y-27115000D03*
%TD*%
D13*
%TO.P,R43,1*%
%TO.N,AIN1_IN*%
X14202500Y-17864999D03*
%TO.P,R43,2*%
%TO.N,AIN1_A*%
X16027500Y-17864999D03*
%TD*%
D11*
%TO.P,D9,1*%
%TO.N,CAN_L*%
X18535000Y-35885000D03*
%TO.P,D9,2*%
%TO.N,GND*%
X22535000Y-35885000D03*
%TD*%
D41*
%TO.P,PF3,1*%
%TO.N,+5V*%
X64452500Y-59475000D03*
%TO.P,PF3,2*%
%TO.N,LED_5V*%
X67377500Y-59475000D03*
%TD*%
D16*
%TO.P,J6,1*%
%TO.N,LED_5V*%
X70500000Y-71500000D03*
D17*
%TO.P,J6,2*%
%TO.N,LED_DIN*%
X73040000Y-71500000D03*
%TO.P,J6,3*%
%TO.N,GND*%
X75580000Y-71500000D03*
%TD*%
D15*
%TO.P,TP1,1*%
%TO.N,+VBAT*%
X15087505Y-63576248D03*
%TD*%
D22*
%TO.P,U5,1*%
%TO.N,USB_DP_CON*%
X62957500Y-14995000D03*
%TO.P,U5,2*%
%TO.N,GND*%
X62957500Y-15945000D03*
%TO.P,U5,3*%
%TO.N,USB_DM_CON*%
X62957500Y-16895000D03*
%TO.P,U5,4*%
%TO.N,USB_DM*%
X65232500Y-16895000D03*
%TO.P,U5,5*%
%TO.N,VBUS*%
X65232500Y-15945000D03*
%TO.P,U5,6*%
%TO.N,USB_DP*%
X65232500Y-14995000D03*
%TD*%
D13*
%TO.P,R23,1*%
%TO.N,LED2*%
X79312500Y-52085000D03*
%TO.P,R23,2*%
%TO.N,LED2_A*%
X81137500Y-52085000D03*
%TD*%
D14*
%TO.P,C17,1*%
%TO.N,+5VS*%
X59870000Y-67685000D03*
%TO.P,C17,2*%
%TO.N,GND*%
X62820000Y-67685000D03*
%TD*%
D13*
%TO.P,R6,1*%
%TO.N,FB_5V*%
X41587500Y-48200000D03*
%TO.P,R6,2*%
%TO.N,GND*%
X43412500Y-48200000D03*
%TD*%
D18*
%TO.P,C31,1*%
%TO.N,AIN3*%
X27295000Y-17894999D03*
%TO.P,C31,2*%
%TO.N,GND*%
X29195000Y-17894999D03*
%TD*%
D41*
%TO.P,PF1,1*%
%TO.N,+5V*%
X64952500Y-67665000D03*
%TO.P,PF1,2*%
%TO.N,VSENS_F*%
X67877500Y-67665000D03*
%TD*%
D18*
%TO.P,C33,1*%
%TO.N,+3V3*%
X43795000Y-34015000D03*
%TO.P,C33,2*%
%TO.N,GND*%
X45695000Y-34015000D03*
%TD*%
D15*
%TO.P,TP7,1*%
%TO.N,CAN_L*%
X28770008Y-35386249D03*
%TD*%
D12*
%TO.P,JP7,1*%
%TO.N,AIN2_R1*%
X19045000Y-12185000D03*
%TO.P,JP7,2*%
%TO.N,AIN2*%
X20345000Y-12185000D03*
%TO.P,JP7,3*%
%TO.N,AIN2_R2*%
X21645000Y-12185000D03*
%TD*%
D13*
%TO.P,R38,1*%
%TO.N,SD_VDD*%
X55662500Y-33354999D03*
%TO.P,R38,2*%
%TO.N,SD_D3_C*%
X57487500Y-33354999D03*
%TD*%
%TO.P,R2,1*%
%TO.N,VBAT_UVLO*%
X13862499Y-67165000D03*
%TO.P,R2,2*%
%TO.N,GND*%
X15687499Y-67165000D03*
%TD*%
%TO.P,R32,1*%
%TO.N,SD_D2*%
X55662500Y-28574999D03*
%TO.P,R32,2*%
%TO.N,SD_D2_C*%
X57487500Y-28574999D03*
%TD*%
%TO.P,R12,1*%
%TO.N,FB_3V3*%
X41587500Y-64000000D03*
%TO.P,R12,2*%
%TO.N,GND*%
X43412500Y-64000000D03*
%TD*%
D20*
%TO.P,Q3,1*%
%TO.N,SD_EN_G*%
X64387500Y-50095000D03*
%TO.P,Q3,2*%
%TO.N,GND*%
X64387500Y-51995000D03*
%TO.P,Q3,3*%
%TO.N,SD_PG*%
X66262500Y-51045000D03*
%TD*%
D42*
%TO.P,U2,1*%
%TO.N,GND*%
X39937500Y-40095000D03*
%TO.P,U2,2*%
%TO.N,+VBAT*%
X39937500Y-41365000D03*
%TO.P,U2,3*%
%TO.N,EN_5V*%
X39937500Y-42635000D03*
%TO.P,U2,4*%
%TO.N,RON_5V*%
X39937500Y-43905000D03*
%TO.P,U2,5*%
%TO.N,FB_5V*%
X45062500Y-43905000D03*
%TO.P,U2,6*%
%TO.N,PG_5V*%
X45062500Y-42635000D03*
%TO.P,U2,7*%
%TO.N,BST_5V*%
X45062500Y-41365000D03*
%TO.P,U2,8*%
%TO.N,SW_5V*%
X45062500Y-40095000D03*
D43*
%TO.P,U2,9*%
%TO.N,GND*%
X41850000Y-40050000D03*
X41850000Y-41350000D03*
X41850000Y-42650000D03*
X41850000Y-43950000D03*
D44*
X42500000Y-42000000D03*
D43*
X43150000Y-40050000D03*
X43150000Y-41350000D03*
X43150000Y-42650000D03*
X43150000Y-43950000D03*
%TD*%
D45*
%TO.P,J10,1*%
%TO.N,+5VS*%
X5000000Y-18000000D03*
D46*
%TO.P,J10,2*%
%TO.N,AIN1_IN*%
X5000000Y-20000000D03*
%TO.P,J10,3*%
%TO.N,AIN2_IN*%
X5000000Y-22000000D03*
%TO.P,J10,4*%
%TO.N,AIN3_IN*%
X5000000Y-24000000D03*
%TO.P,J10,5*%
%TO.N,AIN4_IN*%
X5000000Y-26000000D03*
%TO.P,J10,6*%
%TO.N,GND*%
X5000000Y-28000000D03*
%TO.P,J10,7*%
X5000000Y-30000000D03*
%TO.P,J10,8*%
%TO.N,+5VS*%
X5000000Y-32000000D03*
%TD*%
D15*
%TO.P,TP4,1*%
%TO.N,+5VS*%
X67787504Y-63796249D03*
%TD*%
D13*
%TO.P,R3,1*%
%TO.N,+VBAT*%
X37387500Y-37600000D03*
%TO.P,R3,2*%
%TO.N,EN_5V*%
X39212500Y-37600000D03*
%TD*%
D37*
%TO.P,L1,1*%
%TO.N,SW_5V*%
X50000000Y-42000000D03*
%TO.P,L1,2*%
%TO.N,+5V*%
X56000000Y-42000000D03*
%TD*%
D13*
%TO.P,R27,1*%
%TO.N,SD_EN_G*%
X59812500Y-56575000D03*
%TO.P,R27,2*%
%TO.N,GND*%
X61637500Y-56575000D03*
%TD*%
D38*
%TO.P,D7,1*%
%TO.N,GND*%
X71062500Y-50800000D03*
%TO.P,D7,2*%
%TO.N,LED2_A*%
X72937500Y-50800000D03*
%TD*%
D13*
%TO.P,R44,1*%
%TO.N,AIN1_PU*%
X10312500Y-20314999D03*
%TO.P,R44,2*%
%TO.N,AIN1_A*%
X12137500Y-20314999D03*
%TD*%
%TO.P,R57,1*%
%TO.N,AIN3_R2*%
X31162500Y-22704999D03*
%TO.P,R57,2*%
%TO.N,GND*%
X32987500Y-22704999D03*
%TD*%
D15*
%TO.P,TP6,1*%
%TO.N,CAN_H*%
X25777505Y-35386249D03*
%TD*%
D13*
%TO.P,R58,1*%
%TO.N,AIN4_IN*%
X39302500Y-17864999D03*
%TO.P,R58,2*%
%TO.N,AIN4_A*%
X41127500Y-17864999D03*
%TD*%
D20*
%TO.P,D12,1*%
%TO.N,GND*%
X27537500Y-7795000D03*
%TO.P,D12,2*%
%TO.N,+3V3*%
X27537500Y-9695000D03*
%TO.P,D12,3*%
%TO.N,AIN3*%
X29412500Y-8745000D03*
%TD*%
D18*
%TO.P,C18,1*%
%TO.N,MCU_EN*%
X68885000Y-24325000D03*
%TO.P,C18,2*%
%TO.N,GND*%
X70785000Y-24325000D03*
%TD*%
D13*
%TO.P,R19,1*%
%TO.N,USB_CC2*%
X66662499Y-21874999D03*
%TO.P,R19,2*%
%TO.N,GND*%
X68487499Y-21874999D03*
%TD*%
%TO.P,R13,1*%
%TO.N,SW_3V3*%
X44787500Y-53400000D03*
%TO.P,R13,2*%
%TO.N,RAMP_3V3*%
X46612500Y-53400000D03*
%TD*%
D47*
%TO.P,J2,A1*%
%TO.N,GND*%
X80045000Y-4750000D03*
%TO.P,J2,A4*%
%TO.N,VBUS_IN*%
X80045000Y-5550000D03*
D48*
%TO.P,J2,A5*%
%TO.N,USB_CC1*%
X80045000Y-6750000D03*
%TO.P,J2,A6*%
%TO.N,USB_DP_CON*%
X80045000Y-7750000D03*
%TO.P,J2,A7*%
%TO.N,USB_DM_CON*%
X80045000Y-8250000D03*
%TO.P,J2,A8*%
%TO.N,N/C*%
X80045000Y-9250000D03*
D47*
%TO.P,J2,A9*%
%TO.N,VBUS_IN*%
X80045000Y-10450000D03*
%TO.P,J2,A12*%
%TO.N,GND*%
X80045000Y-11250000D03*
%TO.P,J2,B1*%
X80045000Y-11250000D03*
%TO.P,J2,B4*%
%TO.N,VBUS_IN*%
X80045000Y-10450000D03*
D48*
%TO.P,J2,B5*%
%TO.N,USB_CC2*%
X80045000Y-9750000D03*
%TO.P,J2,B6*%
%TO.N,USB_DP_CON*%
X80045000Y-8750000D03*
%TO.P,J2,B7*%
%TO.N,USB_DM_CON*%
X80045000Y-7250000D03*
%TO.P,J2,B8*%
%TO.N,N/C*%
X80045000Y-6250000D03*
D47*
%TO.P,J2,B9*%
%TO.N,VBUS_IN*%
X80045000Y-5550000D03*
%TO.P,J2,B12*%
%TO.N,GND*%
X80045000Y-4750000D03*
D49*
%TO.P,J2,S1*%
X79130000Y-3680000D03*
D50*
X74950000Y-3680000D03*
D49*
X79130000Y-12320000D03*
D50*
X74950000Y-12320000D03*
%TD*%
D13*
%TO.P,R51,1*%
%TO.N,AIN2_R1*%
X18812500Y-22704999D03*
%TO.P,R51,2*%
%TO.N,GND*%
X20637500Y-22704999D03*
%TD*%
%TO.P,R34,1*%
%TO.N,SD_VDD*%
X51812500Y-30964999D03*
%TO.P,R34,2*%
%TO.N,SD_CMD_C*%
X53637500Y-30964999D03*
%TD*%
%TO.P,R1,1*%
%TO.N,VBAT_FB*%
X10012500Y-67165000D03*
%TO.P,R1,2*%
%TO.N,VBAT_UVLO*%
X11837500Y-67165000D03*
%TD*%
%TO.P,R18,1*%
%TO.N,USB_CC1*%
X62812500Y-21874999D03*
%TO.P,R18,2*%
%TO.N,GND*%
X64637500Y-21874999D03*
%TD*%
%TO.P,R31,1*%
%TO.N,SD_D1*%
X51812500Y-28574999D03*
%TO.P,R31,2*%
%TO.N,SD_D1_C*%
X53637500Y-28574999D03*
%TD*%
%TO.P,R54,1*%
%TO.N,AIN3_PU*%
X27312500Y-20314999D03*
%TO.P,R54,2*%
%TO.N,AIN3_A*%
X29137500Y-20314999D03*
%TD*%
D16*
%TO.P,J3,1*%
%TO.N,+3V3*%
X26000000Y-71500000D03*
D17*
%TO.P,J3,2*%
%TO.N,UART_TX*%
X28540000Y-71500000D03*
%TO.P,J3,3*%
%TO.N,UART_RX*%
X31080000Y-71500000D03*
%TO.P,J3,4*%
%TO.N,GND*%
X33620000Y-71500000D03*
%TD*%
D13*
%TO.P,R60,1*%
%TO.N,AIN4_A*%
X39262500Y-20314999D03*
%TO.P,R60,2*%
%TO.N,AIN4*%
X41087500Y-20314999D03*
%TD*%
%TO.P,R16,1*%
%TO.N,+3V3*%
X71592500Y-27085000D03*
%TO.P,R16,2*%
%TO.N,MCU_EN*%
X73417500Y-27085000D03*
%TD*%
D18*
%TO.P,C32,1*%
%TO.N,AIN4*%
X35395000Y-17894999D03*
%TO.P,C32,2*%
%TO.N,GND*%
X37295000Y-17894999D03*
%TD*%
D20*
%TO.P,D11,1*%
%TO.N,GND*%
X19037500Y-7795000D03*
%TO.P,D11,2*%
%TO.N,+3V3*%
X19037500Y-9695000D03*
%TO.P,D11,3*%
%TO.N,AIN2*%
X20912500Y-8745000D03*
%TD*%
D14*
%TO.P,C15,1*%
%TO.N,+3V3*%
X55025000Y-63600000D03*
%TO.P,C15,2*%
%TO.N,GND*%
X57975000Y-63600000D03*
%TD*%
D20*
%TO.P,Q2,1*%
%TO.N,SD_PG*%
X60037500Y-50095000D03*
%TO.P,Q2,2*%
%TO.N,+3V3*%
X60037500Y-51995000D03*
%TO.P,Q2,3*%
%TO.N,SD_VDD*%
X61912500Y-51045000D03*
%TD*%
D41*
%TO.P,PF2,1*%
%TO.N,VBUS_IN*%
X67952500Y-19264999D03*
%TO.P,PF2,2*%
%TO.N,VBUS*%
X70877500Y-19264999D03*
%TD*%
D51*
%TO.P,D2,1*%
%TO.N,+3V3*%
X35145000Y-33624999D03*
%TO.P,D2,2*%
%TO.N,GND*%
X37245000Y-33624999D03*
%TD*%
D13*
%TO.P,R10,1*%
%TO.N,RON_3V3*%
X37587500Y-64000000D03*
%TO.P,R10,2*%
%TO.N,GND*%
X39412500Y-64000000D03*
%TD*%
D45*
%TO.P,J1,1*%
%TO.N,VBAT_IN*%
X5000000Y-50000000D03*
D46*
%TO.P,J1,2*%
%TO.N,GND*%
X5000000Y-52000000D03*
%TO.P,J1,3*%
%TO.N,CAN_H*%
X5000000Y-54000000D03*
%TO.P,J1,4*%
%TO.N,CAN_L*%
X5000000Y-56000000D03*
%TD*%
D13*
%TO.P,R14,1*%
%TO.N,PG_3V3*%
X43587500Y-66800000D03*
%TO.P,R14,2*%
%TO.N,+3V3*%
X45412500Y-66800000D03*
%TD*%
%TO.P,R64,1*%
%TO.N,VBAT_SNS*%
X31512500Y-33624999D03*
%TO.P,R64,2*%
%TO.N,GND*%
X33337500Y-33624999D03*
%TD*%
D18*
%TO.P,C20,1*%
%TO.N,+3V3*%
X72775000Y-24325000D03*
%TO.P,C20,2*%
%TO.N,GND*%
X74675000Y-24325000D03*
%TD*%
D13*
%TO.P,R11,1*%
%TO.N,+3V3*%
X45587500Y-64000000D03*
%TO.P,R11,2*%
%TO.N,FB_3V3*%
X47412500Y-64000000D03*
%TD*%
%TO.P,R36,1*%
%TO.N,SD_VDD*%
X59512500Y-30964999D03*
%TO.P,R36,2*%
%TO.N,SD_D1_C*%
X61337500Y-30964999D03*
%TD*%
%TO.P,R28,1*%
%TO.N,SD_CLK*%
X51812500Y-26184999D03*
%TO.P,R28,2*%
%TO.N,SD_CLK_C*%
X53637500Y-26184999D03*
%TD*%
D20*
%TO.P,D10,1*%
%TO.N,GND*%
X10537500Y-7795000D03*
%TO.P,D10,2*%
%TO.N,+3V3*%
X10537500Y-9695000D03*
%TO.P,D10,3*%
%TO.N,AIN1*%
X12412500Y-8745000D03*
%TD*%
D52*
%TO.P,C2,1*%
%TO.N,+VBAT*%
X11695000Y-48845000D03*
%TO.P,C2,2*%
%TO.N,GND*%
X20095000Y-48845000D03*
%TD*%
D14*
%TO.P,C9,1*%
%TO.N,+5V*%
X55025000Y-47800000D03*
%TO.P,C9,2*%
%TO.N,GND*%
X57975000Y-47800000D03*
%TD*%
D13*
%TO.P,R5,1*%
%TO.N,+5V*%
X45587500Y-48200000D03*
%TO.P,R5,2*%
%TO.N,FB_5V*%
X47412500Y-48200000D03*
%TD*%
D53*
%TO.P,D5,1*%
%TO.N,+5V*%
X67335000Y-15395000D03*
%TO.P,D5,2*%
%TO.N,VBUS*%
X70635000Y-15395000D03*
%TD*%
D18*
%TO.P,C21,1*%
%TO.N,+3V3*%
X63795000Y-27115000D03*
%TO.P,C21,2*%
%TO.N,GND*%
X65695000Y-27115000D03*
%TD*%
D13*
%TO.P,R8,1*%
%TO.N,PG_5V*%
X43587500Y-51000000D03*
%TO.P,R8,2*%
%TO.N,+3V3*%
X45412500Y-51000000D03*
%TD*%
D16*
%TO.P,J8,1*%
%TO.N,+5V*%
X56000000Y-71500000D03*
D17*
%TO.P,J8,2*%
%TO.N,+3V3*%
X58540000Y-71500000D03*
%TO.P,J8,3*%
%TO.N,GND*%
X61080000Y-71500000D03*
%TO.P,J8,4*%
X63620000Y-71500000D03*
%TD*%
D12*
%TO.P,JP9,1*%
%TO.N,AIN3_A*%
X31335000Y-15175000D03*
%TO.P,JP9,2*%
%TO.N,AIN3*%
X32635000Y-15175000D03*
%TD*%
D18*
%TO.P,C29,1*%
%TO.N,AIN1*%
X10295000Y-17894999D03*
%TO.P,C29,2*%
%TO.N,GND*%
X12195000Y-17894999D03*
%TD*%
%TO.P,C34,1*%
%TO.N,VBAT_SNS*%
X31495000Y-28815000D03*
%TO.P,C34,2*%
%TO.N,GND*%
X33395000Y-28815000D03*
%TD*%
D12*
%TO.P,JP4,1*%
%TO.N,AIN1_R1*%
X10545000Y-12185000D03*
%TO.P,JP4,2*%
%TO.N,AIN1*%
X11845000Y-12185000D03*
%TO.P,JP4,3*%
%TO.N,AIN1_R2*%
X13145000Y-12185000D03*
%TD*%
D54*
%TO.P,F1,1*%
%TO.N,VBAT_IN*%
X22897503Y-63454999D03*
%TO.P,F1,2*%
%TO.N,VBAT_F*%
X25697503Y-63454999D03*
%TD*%
D18*
%TO.P,C30,1*%
%TO.N,AIN2*%
X18795000Y-17894999D03*
%TO.P,C30,2*%
%TO.N,GND*%
X20695000Y-17894999D03*
%TD*%
D13*
%TO.P,R21,1*%
%TO.N,+3V3*%
X71512499Y-29535000D03*
%TO.P,R21,2*%
%TO.N,I2C_SCL*%
X73337499Y-29535000D03*
%TD*%
%TO.P,R45,1*%
%TO.N,AIN1_A*%
X14162500Y-20314999D03*
%TO.P,R45,2*%
%TO.N,AIN1*%
X15987500Y-20314999D03*
%TD*%
%TO.P,R42,1*%
%TO.N,CAN_SPLIT*%
X14162500Y-42064999D03*
%TO.P,R42,2*%
%TO.N,CAN_L*%
X15987500Y-42064999D03*
%TD*%
%TO.P,R7,1*%
%TO.N,SW_5V*%
X44787500Y-37600000D03*
%TO.P,R7,2*%
%TO.N,RAMP_5V*%
X46612500Y-37600000D03*
%TD*%
D22*
%TO.P,U1,1*%
%TO.N,VCAP*%
X10157500Y-63074999D03*
%TO.P,U1,2*%
%TO.N,GND*%
X10157500Y-64024999D03*
%TO.P,U1,3*%
%TO.N,VBAT_UVLO*%
X10157500Y-64974999D03*
%TO.P,U1,4*%
%TO.N,+VBAT*%
X12432500Y-64974999D03*
%TO.P,U1,5*%
%TO.N,GATE_RB*%
X12432500Y-64024999D03*
%TO.P,U1,6*%
%TO.N,VBAT_FB*%
X12432500Y-63074999D03*
%TD*%
D42*
%TO.P,U3,1*%
%TO.N,GND*%
X39937500Y-55895000D03*
%TO.P,U3,2*%
%TO.N,+VBAT*%
X39937500Y-57165000D03*
%TO.P,U3,3*%
%TO.N,EN_3V3*%
X39937500Y-58435000D03*
%TO.P,U3,4*%
%TO.N,RON_3V3*%
X39937500Y-59705000D03*
%TO.P,U3,5*%
%TO.N,FB_3V3*%
X45062500Y-59705000D03*
%TO.P,U3,6*%
%TO.N,PG_3V3*%
X45062500Y-58435000D03*
%TO.P,U3,7*%
%TO.N,BST_3V3*%
X45062500Y-57165000D03*
%TO.P,U3,8*%
%TO.N,SW_3V3*%
X45062500Y-55895000D03*
D43*
%TO.P,U3,9*%
%TO.N,GND*%
X41850000Y-55850000D03*
X41850000Y-57150000D03*
X41850000Y-58450000D03*
X41850000Y-59750000D03*
D44*
X42500000Y-57800000D03*
D43*
X43150000Y-55850000D03*
X43150000Y-57150000D03*
X43150000Y-58450000D03*
X43150000Y-59750000D03*
%TD*%
D13*
%TO.P,R53,1*%
%TO.N,AIN3_IN*%
X31202500Y-17864999D03*
%TO.P,R53,2*%
%TO.N,AIN3_A*%
X33027500Y-17864999D03*
%TD*%
D55*
%TO.P,U4,1*%
%TO.N,GND*%
X43250000Y-1540000D03*
%TO.P,U4,2*%
%TO.N,+3V3*%
X43250000Y-2810000D03*
%TO.P,U4,3*%
%TO.N,MCU_EN*%
X43250000Y-4080000D03*
%TO.P,U4,4*%
%TO.N,AIN3*%
X43250000Y-5350000D03*
%TO.P,U4,5*%
%TO.N,AIN4*%
X43250000Y-6620000D03*
%TO.P,U4,6*%
%TO.N,VBAT_SNS*%
X43250000Y-7890000D03*
%TO.P,U4,7*%
%TO.N,SD_PWR_EN*%
X43250000Y-9160000D03*
%TO.P,U4,8*%
%TO.N,LED1*%
X43250000Y-10430000D03*
%TO.P,U4,9*%
%TO.N,LED2*%
X43250000Y-11700000D03*
%TO.P,U4,10*%
%TO.N,CAN_TX*%
X43250000Y-12970000D03*
%TO.P,U4,11*%
%TO.N,CAN_RX*%
X43250000Y-14240000D03*
%TO.P,U4,12*%
%TO.N,SD_CD*%
X43250000Y-15510000D03*
%TO.P,U4,13*%
%TO.N,USB_DM*%
X43250000Y-16780000D03*
%TO.P,U4,14*%
%TO.N,USB_DP*%
X43250000Y-18050000D03*
D56*
%TO.P,U4,15*%
%TO.N,IO3*%
X45015000Y-19300000D03*
%TO.P,U4,16*%
%TO.N,IO46*%
X46285000Y-19300000D03*
%TO.P,U4,17*%
%TO.N,SD_D3*%
X47555000Y-19300000D03*
%TO.P,U4,18*%
%TO.N,SD_D2*%
X48825000Y-19300000D03*
%TO.P,U4,19*%
%TO.N,SD_D1*%
X50095000Y-19300000D03*
%TO.P,U4,20*%
%TO.N,SD_D0*%
X51365000Y-19300000D03*
%TO.P,U4,21*%
%TO.N,SD_CMD*%
X52635000Y-19300000D03*
%TO.P,U4,22*%
%TO.N,SD_CLK*%
X53905000Y-19300000D03*
%TO.P,U4,23*%
%TO.N,CAN_S*%
X55175000Y-19300000D03*
%TO.P,U4,24*%
%TO.N,SPI_CS*%
X56445000Y-19300000D03*
%TO.P,U4,25*%
%TO.N,LED_DIN_MCU*%
X57715000Y-19300000D03*
%TO.P,U4,26*%
%TO.N,IO45*%
X58985000Y-19300000D03*
D55*
%TO.P,U4,27*%
%TO.N,MCU_BOOT*%
X60750000Y-18050000D03*
%TO.P,U4,28*%
%TO.N,N/C*%
X60750000Y-16780000D03*
%TO.P,U4,29*%
X60750000Y-15510000D03*
%TO.P,U4,30*%
X60750000Y-14240000D03*
%TO.P,U4,31*%
%TO.N,I2C_SDA*%
X60750000Y-12970000D03*
%TO.P,U4,32*%
%TO.N,I2C_SCL*%
X60750000Y-11700000D03*
%TO.P,U4,33*%
%TO.N,SPI_SCK*%
X60750000Y-10430000D03*
%TO.P,U4,34*%
%TO.N,SPI_MISO*%
X60750000Y-9160000D03*
%TO.P,U4,35*%
%TO.N,SPI_MOSI*%
X60750000Y-7890000D03*
%TO.P,U4,36*%
%TO.N,UART_RX*%
X60750000Y-6620000D03*
%TO.P,U4,37*%
%TO.N,UART_TX*%
X60750000Y-5350000D03*
%TO.P,U4,38*%
%TO.N,AIN2*%
X60750000Y-4080000D03*
%TO.P,U4,39*%
%TO.N,AIN1*%
X60750000Y-2810000D03*
%TO.P,U4,40*%
%TO.N,GND*%
X60750000Y-1540000D03*
D57*
%TO.P,U4,41*%
X49100000Y-8560000D03*
X49100000Y-9960000D03*
X49800000Y-7860000D03*
X49800000Y-9260000D03*
X49800000Y-10660000D03*
X50500000Y-8560000D03*
D58*
X50500000Y-9260000D03*
D57*
X50500000Y-9960000D03*
X51200000Y-7860000D03*
X51200000Y-9260000D03*
X51200000Y-10660000D03*
X51900000Y-8560000D03*
X51900000Y-9960000D03*
%TD*%
D13*
%TO.P,R49,1*%
%TO.N,AIN2_PU*%
X18812500Y-20314999D03*
%TO.P,R49,2*%
%TO.N,AIN2_A*%
X20637500Y-20314999D03*
%TD*%
D59*
%TO.N,+VBAT*%
X37675000Y-56365000D03*
X37675000Y-46750000D03*
%TD*%
D60*
%TO.N,+VBAT*%
X37250000Y-41365000D02*
X37250000Y-42200000D01*
X37675000Y-45100000D02*
X37675000Y-46750000D01*
X37250000Y-42200000D02*
X37675000Y-45100000D01*
X39937500Y-41365000D02*
X37250000Y-41365000D01*
X37675000Y-56365000D02*
X39937500Y-57165000D01*
D61*
%TO.N,SW_3V3*%
X45062500Y-55895000D02*
X50000000Y-57800000D01*
%TO.N,SW_5V*%
X45062500Y-40095000D02*
X50000000Y-42000000D01*
%TD*%
M02*
