%TF.GenerationSoftware,KiCad,Pcbnew,9.0.5*%
%TF.CreationDate,2026-08-10T17:07:31-04:00*%
%TF.ProjectId,esp32s3-can-sd-logger,65737033-3273-4332-9d63-616e2d73642d,rev?*%
%TF.SameCoordinates,Original*%
%TF.FileFunction,Copper,L1,Top*%
%TF.FilePolarity,Positive*%
%FSLAX46Y46*%
G04 Gerber Fmt 4.6, Leading zero omitted, Abs format (unit mm)*
G04 Created by KiCad (PCBNEW 9.0.5) date 2026-08-10 17:07:31*
%MOMM*%
%LPD*%
G01*
G04 APERTURE LIST*
G04 Aperture macros list*
%AMRoundRect*
0 Rectangle with rounded corners*
0 $1 Rounding radius*
0 $2 $3 $4 $5 $6 $7 $8 $9 X,Y pos of 4 corners*
0 Add a 4 corners polygon primitive as box body*
4,1,4,$2,$3,$4,$5,$6,$7,$8,$9,$2,$3,0*
0 Add four circle primitives for the rounded corners*
1,1,$1+$1,$2,$3*
1,1,$1+$1,$4,$5*
1,1,$1+$1,$6,$7*
1,1,$1+$1,$8,$9*
0 Add four rect primitives between the rounded corners*
20,1,$1+$1,$2,$3,$4,$5,0*
20,1,$1+$1,$4,$5,$6,$7,0*
20,1,$1+$1,$6,$7,$8,$9,0*
20,1,$1+$1,$8,$9,$2,$3,0*%
G04 Aperture macros list end*
%TA.AperFunction,EtchedComponent*%
%ADD10C,0.000000*%
%TD*%
%TA.AperFunction,SMDPad,CuDef*%
%ADD11RoundRect,0.250000X-0.312500X-0.625000X0.312500X-0.625000X0.312500X0.625000X-0.312500X0.625000X0*%
%TD*%
%TA.AperFunction,SMDPad,CuDef*%
%ADD12RoundRect,0.250000X-0.262500X-0.450000X0.262500X-0.450000X0.262500X0.450000X-0.262500X0.450000X0*%
%TD*%
%TA.AperFunction,SMDPad,CuDef*%
%ADD13R,1.000000X1.500000*%
%TD*%
%TA.AperFunction,SMDPad,CuDef*%
%ADD14RoundRect,0.250000X-0.325000X-0.650000X0.325000X-0.650000X0.325000X0.650000X-0.325000X0.650000X0*%
%TD*%
%TA.AperFunction,SMDPad,CuDef*%
%ADD15RoundRect,0.250000X-0.275000X-0.700000X0.275000X-0.700000X0.275000X0.700000X-0.275000X0.700000X0*%
%TD*%
%TA.AperFunction,SMDPad,CuDef*%
%ADD16RoundRect,0.250000X-0.250000X-0.475000X0.250000X-0.475000X0.250000X0.475000X-0.250000X0.475000X0*%
%TD*%
%TA.AperFunction,ComponentPad*%
%ADD17R,1.700000X1.700000*%
%TD*%
%TA.AperFunction,ComponentPad*%
%ADD18C,1.700000*%
%TD*%
%TA.AperFunction,SMDPad,CuDef*%
%ADD19RoundRect,0.150000X-0.587500X-0.150000X0.587500X-0.150000X0.587500X0.150000X-0.587500X0.150000X0*%
%TD*%
%TA.AperFunction,SMDPad,CuDef*%
%ADD20R,1.700000X1.000000*%
%TD*%
%TA.AperFunction,SMDPad,CuDef*%
%ADD21R,1.500000X0.900000*%
%TD*%
%TA.AperFunction,SMDPad,CuDef*%
%ADD22R,0.900000X1.500000*%
%TD*%
%TA.AperFunction,HeatsinkPad*%
%ADD23C,0.600000*%
%TD*%
%TA.AperFunction,HeatsinkPad*%
%ADD24R,3.900000X3.900000*%
%TD*%
%TA.AperFunction,SMDPad,CuDef*%
%ADD25RoundRect,0.250000X-1.000000X-0.650000X1.000000X-0.650000X1.000000X0.650000X-1.000000X0.650000X0*%
%TD*%
%TA.AperFunction,SMDPad,CuDef*%
%ADD26C,1.500000*%
%TD*%
%TA.AperFunction,SMDPad,CuDef*%
%ADD27RoundRect,0.150000X-0.512500X-0.150000X0.512500X-0.150000X0.512500X0.150000X-0.512500X0.150000X0*%
%TD*%
%TA.AperFunction,SMDPad,CuDef*%
%ADD28RoundRect,0.243750X-0.243750X-0.456250X0.243750X-0.456250X0.243750X0.456250X-0.243750X0.456250X0*%
%TD*%
%TA.AperFunction,ComponentPad*%
%ADD29RoundRect,0.250000X-0.625000X0.350000X-0.625000X-0.350000X0.625000X-0.350000X0.625000X0.350000X0*%
%TD*%
%TA.AperFunction,ComponentPad*%
%ADD30O,1.750000X1.200000*%
%TD*%
%TA.AperFunction,SMDPad,CuDef*%
%ADD31RoundRect,0.150000X-0.825000X-0.150000X0.825000X-0.150000X0.825000X0.150000X-0.825000X0.150000X0*%
%TD*%
%TA.AperFunction,SMDPad,CuDef*%
%ADD32RoundRect,0.218750X-0.218750X-0.381250X0.218750X-0.381250X0.218750X0.381250X-0.218750X0.381250X0*%
%TD*%
%TA.AperFunction,SMDPad,CuDef*%
%ADD33RoundRect,0.250000X0.250000X0.475000X-0.250000X0.475000X-0.250000X-0.475000X0.250000X-0.475000X0*%
%TD*%
%TA.AperFunction,SMDPad,CuDef*%
%ADD34RoundRect,0.150000X-0.737500X-0.150000X0.737500X-0.150000X0.737500X0.150000X-0.737500X0.150000X0*%
%TD*%
%TA.AperFunction,HeatsinkPad*%
%ADD35C,0.500000*%
%TD*%
%TA.AperFunction,HeatsinkPad*%
%ADD36R,2.950000X4.900000*%
%TD*%
%TA.AperFunction,SMDPad,CuDef*%
%ADD37RoundRect,0.225000X-0.225000X-0.375000X0.225000X-0.375000X0.225000X0.375000X-0.225000X0.375000X0*%
%TD*%
%TA.AperFunction,SMDPad,CuDef*%
%ADD38RoundRect,0.250000X-1.950000X-1.000000X1.950000X-1.000000X1.950000X1.000000X-1.950000X1.000000X0*%
%TD*%
%TA.AperFunction,SMDPad,CuDef*%
%ADD39RoundRect,0.249999X-0.850001X-3.500001X0.850001X-3.500001X0.850001X3.500001X-0.850001X3.500001X0*%
%TD*%
%TA.AperFunction,SMDPad,CuDef*%
%ADD40RoundRect,0.250000X-0.850000X-0.350000X0.850000X-0.350000X0.850000X0.350000X-0.850000X0.350000X0*%
%TD*%
%TA.AperFunction,SMDPad,CuDef*%
%ADD41RoundRect,0.249997X-2.950003X-2.650003X2.950003X-2.650003X2.950003X2.650003X-2.950003X2.650003X0*%
%TD*%
%TA.AperFunction,SMDPad,CuDef*%
%ADD42RoundRect,0.075000X-0.650000X-0.075000X0.650000X-0.075000X0.650000X0.075000X-0.650000X0.075000X0*%
%TD*%
%TA.AperFunction,SMDPad,CuDef*%
%ADD43RoundRect,0.250000X1.000000X-1.400000X1.000000X1.400000X-1.000000X1.400000X-1.000000X-1.400000X0*%
%TD*%
%TA.AperFunction,SMDPad,CuDef*%
%ADD44RoundRect,0.112500X-0.187500X-0.112500X0.187500X-0.112500X0.187500X0.112500X-0.187500X0.112500X0*%
%TD*%
%TA.AperFunction,SMDPad,CuDef*%
%ADD45RoundRect,0.250000X0.325000X0.650000X-0.325000X0.650000X-0.325000X-0.650000X0.325000X-0.650000X0*%
%TD*%
%TA.AperFunction,SMDPad,CuDef*%
%ADD46R,1.750000X0.700000*%
%TD*%
%TA.AperFunction,SMDPad,CuDef*%
%ADD47R,1.000000X1.450000*%
%TD*%
%TA.AperFunction,SMDPad,CuDef*%
%ADD48R,1.550000X1.000000*%
%TD*%
%TA.AperFunction,SMDPad,CuDef*%
%ADD49R,1.500000X0.800000*%
%TD*%
%TA.AperFunction,SMDPad,CuDef*%
%ADD50R,1.500000X1.300000*%
%TD*%
%TA.AperFunction,SMDPad,CuDef*%
%ADD51R,1.500000X1.500000*%
%TD*%
%TA.AperFunction,SMDPad,CuDef*%
%ADD52R,1.400000X0.800000*%
%TD*%
%TA.AperFunction,SMDPad,CuDef*%
%ADD53R,1.450000X0.600000*%
%TD*%
%TA.AperFunction,SMDPad,CuDef*%
%ADD54R,1.450000X0.300000*%
%TD*%
%TA.AperFunction,HeatsinkPad*%
%ADD55O,2.100000X1.000000*%
%TD*%
%TA.AperFunction,HeatsinkPad*%
%ADD56O,1.600000X1.000000*%
%TD*%
%TA.AperFunction,SMDPad,CuDef*%
%ADD57RoundRect,0.250000X-0.375000X-0.625000X0.375000X-0.625000X0.375000X0.625000X-0.375000X0.625000X0*%
%TD*%
%TA.AperFunction,SMDPad,CuDef*%
%ADD58R,1.350000X0.900000*%
%TD*%
%TA.AperFunction,ViaPad*%
%ADD59C,0.600000*%
%TD*%
%TA.AperFunction,ViaPad*%
%ADD60C,0.500000*%
%TD*%
%TA.AperFunction,Conductor*%
%ADD61C,0.300000*%
%TD*%
%TA.AperFunction,Conductor*%
%ADD62C,0.200000*%
%TD*%
%TA.AperFunction,Conductor*%
%ADD63C,0.450000*%
%TD*%
%TA.AperFunction,Conductor*%
%ADD64C,0.500000*%
%TD*%
G04 APERTURE END LIST*
D10*
%TA.AperFunction,EtchedComponent*%
%TO.C,JP1*%
G36*
X11445000Y-39675000D02*
G01*
X10945000Y-39675000D01*
X10945000Y-39075000D01*
X11445000Y-39075000D01*
X11445000Y-39675000D01*
G37*
%TD.AperFunction*%
%TD*%
D11*
%TO.P,PF3,1*%
%TO.N,+5V*%
X64452500Y-59475000D03*
%TO.P,PF3,2*%
%TO.N,LED_5V*%
X67377500Y-59475000D03*
%TD*%
D12*
%TO.P,R2,1*%
%TO.N,VBAT_UVLO*%
X13862500Y-67165000D03*
%TO.P,R2,2*%
%TO.N,GND*%
X15687500Y-67165000D03*
%TD*%
D13*
%TO.P,JP9,1*%
%TO.N,AIN3_A*%
X31335000Y-15175000D03*
%TO.P,JP9,2*%
%TO.N,AIN3*%
X32635000Y-15175000D03*
%TD*%
D14*
%TO.P,C22,1*%
%TO.N,VBUS*%
X62870000Y-19285000D03*
%TO.P,C22,2*%
%TO.N,GND*%
X65820000Y-19285000D03*
%TD*%
D15*
%TO.P,FB1,1*%
%TO.N,VBAT_F*%
X17602500Y-63525000D03*
%TO.P,FB1,2*%
%TO.N,VBAT_FB*%
X20752500Y-63525000D03*
%TD*%
D16*
%TO.P,C29,1*%
%TO.N,AIN1*%
X10295000Y-17895000D03*
%TO.P,C29,2*%
%TO.N,GND*%
X12195000Y-17895000D03*
%TD*%
D17*
%TO.P,J5,1*%
%TO.N,+3V3*%
X21700000Y-3000000D03*
D18*
%TO.P,J5,2*%
%TO.N,GND*%
X24240000Y-3000000D03*
%TO.P,J5,3*%
%TO.N,SPI_SCK*%
X26780000Y-3000000D03*
%TO.P,J5,4*%
%TO.N,SPI_MISO*%
X29320000Y-3000000D03*
%TO.P,J5,5*%
%TO.N,SPI_MOSI*%
X31860000Y-3000000D03*
%TO.P,J5,6*%
%TO.N,SPI_CS*%
X34400000Y-3000000D03*
%TD*%
D12*
%TO.P,R9,1*%
%TO.N,+VBAT*%
X37387500Y-53400000D03*
%TO.P,R9,2*%
%TO.N,EN_3V3*%
X39212500Y-53400000D03*
%TD*%
%TO.P,R43,1*%
%TO.N,AIN1_IN*%
X14202500Y-17865000D03*
%TO.P,R43,2*%
%TO.N,AIN1_A*%
X16027500Y-17865000D03*
%TD*%
D16*
%TO.P,C5,1*%
%TO.N,BST_5V*%
X41050000Y-37600000D03*
%TO.P,C5,2*%
%TO.N,SW_5V*%
X42950000Y-37600000D03*
%TD*%
D12*
%TO.P,R42,1*%
%TO.N,CAN_SPLIT*%
X14162500Y-42065000D03*
%TO.P,R42,2*%
%TO.N,CAN_L*%
X15987500Y-42065000D03*
%TD*%
D19*
%TO.P,Q2,1*%
%TO.N,SD_PG*%
X60037500Y-50095000D03*
%TO.P,Q2,2*%
%TO.N,+3V3*%
X60037500Y-51995000D03*
%TO.P,Q2,3*%
%TO.N,SD_VDD*%
X61912500Y-51045000D03*
%TD*%
D13*
%TO.P,JP2,1*%
%TO.N,+5VS*%
X10545000Y-15175000D03*
%TO.P,JP2,2*%
%TO.N,AIN1_PU*%
X11845000Y-15175000D03*
%TD*%
D12*
%TO.P,R56,1*%
%TO.N,AIN3_R1*%
X27312500Y-22705000D03*
%TO.P,R56,2*%
%TO.N,GND*%
X29137500Y-22705000D03*
%TD*%
D20*
%TO.P,SW1,1*%
%TO.N,MCU_EN*%
X74850000Y-54600000D03*
X81150000Y-54600000D03*
%TO.P,SW1,2*%
%TO.N,GND*%
X74850000Y-58400000D03*
X81150000Y-58400000D03*
%TD*%
D12*
%TO.P,R10,1*%
%TO.N,RON_3V3*%
X37587500Y-64000000D03*
%TO.P,R10,2*%
%TO.N,GND*%
X39412500Y-64000000D03*
%TD*%
D17*
%TO.P,J3,1*%
%TO.N,+3V3*%
X26000000Y-71500000D03*
D18*
%TO.P,J3,2*%
%TO.N,UART_TX*%
X28540000Y-71500000D03*
%TO.P,J3,3*%
%TO.N,UART_RX*%
X31080000Y-71500000D03*
%TO.P,J3,4*%
%TO.N,GND*%
X33620000Y-71500000D03*
%TD*%
D13*
%TO.P,JP3,1*%
%TO.N,AIN1_A*%
X14335000Y-15175000D03*
%TO.P,JP3,2*%
%TO.N,AIN1*%
X15635000Y-15175000D03*
%TD*%
D17*
%TO.P,J8,1*%
%TO.N,+5V*%
X56000000Y-71500000D03*
D18*
%TO.P,J8,2*%
%TO.N,+3V3*%
X58540000Y-71500000D03*
%TO.P,J8,3*%
%TO.N,GND*%
X61080000Y-71500000D03*
%TO.P,J8,4*%
X63620000Y-71500000D03*
%TD*%
D12*
%TO.P,R35,1*%
%TO.N,SD_VDD*%
X54912500Y-31315000D03*
%TO.P,R35,2*%
%TO.N,SD_D0_C*%
X56737500Y-31315000D03*
%TD*%
%TO.P,R12,1*%
%TO.N,FB_3V3*%
X41587500Y-64000000D03*
%TO.P,R12,2*%
%TO.N,GND*%
X43412500Y-64000000D03*
%TD*%
D16*
%TO.P,C18,1*%
%TO.N,MCU_EN*%
X68885000Y-24325000D03*
%TO.P,C18,2*%
%TO.N,GND*%
X70785000Y-24325000D03*
%TD*%
D12*
%TO.P,R52,1*%
%TO.N,AIN2_R2*%
X22662500Y-22705000D03*
%TO.P,R52,2*%
%TO.N,GND*%
X24487500Y-22705000D03*
%TD*%
%TO.P,R23,1*%
%TO.N,LED2*%
X79312500Y-52085000D03*
%TO.P,R23,2*%
%TO.N,LED2_A*%
X81137500Y-52085000D03*
%TD*%
D19*
%TO.P,Q3,1*%
%TO.N,SD_EN_G*%
X64387500Y-50095000D03*
%TO.P,Q3,2*%
%TO.N,GND*%
X64387500Y-51995000D03*
%TO.P,Q3,3*%
%TO.N,SD_PG*%
X66262500Y-51045000D03*
%TD*%
D12*
%TO.P,R26,1*%
%TO.N,SD_PWR_EN*%
X63662500Y-54185000D03*
%TO.P,R26,2*%
%TO.N,SD_EN_G*%
X65487500Y-54185000D03*
%TD*%
%TO.P,R62,1*%
%TO.N,AIN4_R2*%
X39262500Y-22705000D03*
%TO.P,R62,2*%
%TO.N,GND*%
X41087500Y-22705000D03*
%TD*%
%TO.P,R33,1*%
%TO.N,SD_D3*%
X59212500Y-28475000D03*
%TO.P,R33,2*%
%TO.N,SD_D3_C*%
X61037500Y-28475000D03*
%TD*%
D16*
%TO.P,C12,1*%
%TO.N,RAMP_3V3*%
X50050000Y-66600000D03*
%TO.P,C12,2*%
%TO.N,+3V3*%
X51950000Y-66600000D03*
%TD*%
D21*
%TO.P,U4,1*%
%TO.N,GND*%
X43250000Y-1540000D03*
%TO.P,U4,2*%
%TO.N,+3V3*%
X43250000Y-2810000D03*
%TO.P,U4,3*%
%TO.N,MCU_EN*%
X43250000Y-4080000D03*
%TO.P,U4,4*%
%TO.N,AIN3*%
X43250000Y-5350000D03*
%TO.P,U4,5*%
%TO.N,AIN4*%
X43250000Y-6620000D03*
%TO.P,U4,6*%
%TO.N,VBAT_SNS*%
X43250000Y-7890000D03*
%TO.P,U4,7*%
%TO.N,SD_PWR_EN*%
X43250000Y-9160000D03*
%TO.P,U4,8*%
%TO.N,LED1*%
X43250000Y-10430000D03*
%TO.P,U4,9*%
%TO.N,LED2*%
X43250000Y-11700000D03*
%TO.P,U4,10*%
%TO.N,CAN_TX*%
X43250000Y-12970000D03*
%TO.P,U4,11*%
%TO.N,CAN_RX*%
X43250000Y-14240000D03*
%TO.P,U4,12*%
%TO.N,SD_CD*%
X43250000Y-15510000D03*
%TO.P,U4,13*%
%TO.N,USB_DM*%
X43250000Y-16780000D03*
%TO.P,U4,14*%
%TO.N,USB_DP*%
X43250000Y-18050000D03*
D22*
%TO.P,U4,15*%
%TO.N,IO3*%
X45015000Y-19300000D03*
%TO.P,U4,16*%
%TO.N,IO46*%
X46285000Y-19300000D03*
%TO.P,U4,17*%
%TO.N,SD_D3*%
X47555000Y-19300000D03*
%TO.P,U4,18*%
%TO.N,SD_D2*%
X48825000Y-19300000D03*
%TO.P,U4,19*%
%TO.N,SD_D1*%
X50095000Y-19300000D03*
%TO.P,U4,20*%
%TO.N,SD_D0*%
X51365000Y-19300000D03*
%TO.P,U4,21*%
%TO.N,SD_CMD*%
X52635000Y-19300000D03*
%TO.P,U4,22*%
%TO.N,SD_CLK*%
X53905000Y-19300000D03*
%TO.P,U4,23*%
%TO.N,CAN_S*%
X55175000Y-19300000D03*
%TO.P,U4,24*%
%TO.N,SPI_CS*%
X56445000Y-19300000D03*
%TO.P,U4,25*%
%TO.N,LED_DIN_MCU*%
X57715000Y-19300000D03*
%TO.P,U4,26*%
%TO.N,IO45*%
X58985000Y-19300000D03*
D21*
%TO.P,U4,27*%
%TO.N,MCU_BOOT*%
X60750000Y-18050000D03*
%TO.P,U4,28*%
%TO.N,N/C*%
X60750000Y-16780000D03*
%TO.P,U4,29*%
X60750000Y-15510000D03*
%TO.P,U4,30*%
X60750000Y-14240000D03*
%TO.P,U4,31*%
%TO.N,I2C_SDA*%
X60750000Y-12970000D03*
%TO.P,U4,32*%
%TO.N,I2C_SCL*%
X60750000Y-11700000D03*
%TO.P,U4,33*%
%TO.N,SPI_SCK*%
X60750000Y-10430000D03*
%TO.P,U4,34*%
%TO.N,SPI_MISO*%
X60750000Y-9160000D03*
%TO.P,U4,35*%
%TO.N,SPI_MOSI*%
X60750000Y-7890000D03*
%TO.P,U4,36*%
%TO.N,UART_RX*%
X60750000Y-6620000D03*
%TO.P,U4,37*%
%TO.N,UART_TX*%
X60750000Y-5350000D03*
%TO.P,U4,38*%
%TO.N,AIN2*%
X60750000Y-4080000D03*
%TO.P,U4,39*%
%TO.N,AIN1*%
X60750000Y-2810000D03*
%TO.P,U4,40*%
%TO.N,GND*%
X60750000Y-1540000D03*
D23*
%TO.P,U4,41*%
X49100000Y-8560000D03*
X49100000Y-9960000D03*
X49800000Y-7860000D03*
X49800000Y-9260000D03*
X49800000Y-10660000D03*
X50500000Y-8560000D03*
D24*
X50500000Y-9260000D03*
D23*
X50500000Y-9960000D03*
X51200000Y-7860000D03*
X51200000Y-9260000D03*
X51200000Y-10660000D03*
X51900000Y-8560000D03*
X51900000Y-9960000D03*
%TD*%
D14*
%TO.P,C24,1*%
%TO.N,SD_VDD*%
X50670000Y-22595000D03*
%TO.P,C24,2*%
%TO.N,GND*%
X53620000Y-22595000D03*
%TD*%
D25*
%TO.P,D8,1*%
%TO.N,CAN_H*%
X11045000Y-35885000D03*
%TO.P,D8,2*%
%TO.N,GND*%
X15045000Y-35885000D03*
%TD*%
D12*
%TO.P,R51,1*%
%TO.N,AIN2_R1*%
X18812500Y-22705000D03*
%TO.P,R51,2*%
%TO.N,GND*%
X20637500Y-22705000D03*
%TD*%
D20*
%TO.P,SW2,1*%
%TO.N,MCU_BOOT*%
X74850000Y-61600000D03*
X81150000Y-61600000D03*
%TO.P,SW2,2*%
%TO.N,GND*%
X74850000Y-65400000D03*
X81150000Y-65400000D03*
%TD*%
D26*
%TO.P,TP6,1*%
%TO.N,CAN_H*%
X25777500Y-35386200D03*
%TD*%
D12*
%TO.P,R58,1*%
%TO.N,AIN4_IN*%
X39302500Y-17865000D03*
%TO.P,R58,2*%
%TO.N,AIN4_A*%
X41127500Y-17865000D03*
%TD*%
%TO.P,R8,1*%
%TO.N,PG_5V*%
X43587500Y-51000000D03*
%TO.P,R8,2*%
%TO.N,+3V3*%
X45412500Y-51000000D03*
%TD*%
%TO.P,R49,1*%
%TO.N,AIN2_PU*%
X18812500Y-20315000D03*
%TO.P,R49,2*%
%TO.N,AIN2_A*%
X20637500Y-20315000D03*
%TD*%
D16*
%TO.P,C23,1*%
%TO.N,+5V*%
X67685000Y-27115000D03*
%TO.P,C23,2*%
%TO.N,GND*%
X69585000Y-27115000D03*
%TD*%
D27*
%TO.P,U1,1*%
%TO.N,VCAP*%
X10157500Y-63075000D03*
%TO.P,U1,2*%
%TO.N,GND*%
X10157500Y-64025000D03*
%TO.P,U1,3*%
%TO.N,VBAT_UVLO*%
X10157500Y-64975000D03*
%TO.P,U1,4*%
%TO.N,+VBAT*%
X12432500Y-64975000D03*
%TO.P,U1,5*%
%TO.N,GATE_RB*%
X12432500Y-64025000D03*
%TO.P,U1,6*%
%TO.N,VBAT_FB*%
X12432500Y-63075000D03*
%TD*%
D28*
%TO.P,D4,1*%
%TO.N,PWR_LED_K*%
X35377500Y-28785000D03*
%TO.P,D4,2*%
%TO.N,+3V3*%
X37252500Y-28785000D03*
%TD*%
D29*
%TO.P,J10,1*%
%TO.N,+5VS*%
X5000000Y-18000000D03*
D30*
%TO.P,J10,2*%
%TO.N,AIN1_IN*%
X5000000Y-20000000D03*
%TO.P,J10,3*%
%TO.N,AIN2_IN*%
X5000000Y-22000000D03*
%TO.P,J10,4*%
%TO.N,AIN3_IN*%
X5000000Y-24000000D03*
%TO.P,J10,5*%
%TO.N,AIN4_IN*%
X5000000Y-26000000D03*
%TO.P,J10,6*%
%TO.N,GND*%
X5000000Y-28000000D03*
%TO.P,J10,7*%
X5000000Y-30000000D03*
%TO.P,J10,8*%
%TO.N,+5VS*%
X5000000Y-32000000D03*
%TD*%
D31*
%TO.P,U7,1*%
%TO.N,CAN_TX*%
X10770000Y-29040000D03*
%TO.P,U7,2*%
%TO.N,GND*%
X10770000Y-30310000D03*
%TO.P,U7,3*%
%TO.N,+5V*%
X10770000Y-31580000D03*
%TO.P,U7,4*%
%TO.N,CAN_RX*%
X10770000Y-32850000D03*
%TO.P,U7,5*%
%TO.N,+3V3*%
X15720000Y-32850000D03*
%TO.P,U7,6*%
%TO.N,CANL_T*%
X15720000Y-31580000D03*
%TO.P,U7,7*%
%TO.N,CANH_T*%
X15720000Y-30310000D03*
%TO.P,U7,8*%
%TO.N,CAN_S*%
X15720000Y-29040000D03*
%TD*%
D12*
%TO.P,R64,1*%
%TO.N,VBAT_SNS*%
X31512500Y-33625000D03*
%TO.P,R64,2*%
%TO.N,GND*%
X33337500Y-33625000D03*
%TD*%
%TO.P,R60,1*%
%TO.N,AIN4_A*%
X39262500Y-20315000D03*
%TO.P,R60,2*%
%TO.N,AIN4*%
X41087500Y-20315000D03*
%TD*%
D13*
%TO.P,JP13,1*%
%TO.N,AIN4_R1*%
X35645000Y-12185000D03*
%TO.P,JP13,2*%
%TO.N,AIN4*%
X36945000Y-12185000D03*
%TO.P,JP13,3*%
%TO.N,AIN4_R2*%
X38245000Y-12185000D03*
%TD*%
D19*
%TO.P,D13,1*%
%TO.N,GND*%
X35637500Y-7795000D03*
%TO.P,D13,2*%
%TO.N,+3V3*%
X35637500Y-9695000D03*
%TO.P,D13,3*%
%TO.N,AIN4*%
X37512500Y-8745000D03*
%TD*%
D26*
%TO.P,TP1,1*%
%TO.N,+VBAT*%
X15087500Y-63576200D03*
%TD*%
D17*
%TO.P,J6,1*%
%TO.N,LED_5V*%
X70500000Y-71500000D03*
D18*
%TO.P,J6,2*%
%TO.N,LED_DIN*%
X73040000Y-71500000D03*
%TO.P,J6,3*%
%TO.N,GND*%
X75580000Y-71500000D03*
%TD*%
D12*
%TO.P,R27,1*%
%TO.N,SD_EN_G*%
X59812500Y-56575000D03*
%TO.P,R27,2*%
%TO.N,GND*%
X61637500Y-56575000D03*
%TD*%
D32*
%TO.P,FB2,1*%
%TO.N,VSENS_F*%
X69872500Y-67385000D03*
%TO.P,FB2,2*%
%TO.N,+5VS*%
X71997500Y-67385000D03*
%TD*%
D16*
%TO.P,C16,1*%
%TO.N,+3V3*%
X55550000Y-66200000D03*
%TO.P,C16,2*%
%TO.N,GND*%
X57450000Y-66200000D03*
%TD*%
D13*
%TO.P,JP6,1*%
%TO.N,AIN2_A*%
X22835000Y-15175000D03*
%TO.P,JP6,2*%
%TO.N,AIN2*%
X24135000Y-15175000D03*
%TD*%
D28*
%TO.P,D7,1*%
%TO.N,GND*%
X71062500Y-50800000D03*
%TO.P,D7,2*%
%TO.N,LED2_A*%
X72937500Y-50800000D03*
%TD*%
D13*
%TO.P,JP8,1*%
%TO.N,+5VS*%
X27545000Y-15175000D03*
%TO.P,JP8,2*%
%TO.N,AIN3_PU*%
X28845000Y-15175000D03*
%TD*%
D12*
%TO.P,R36,1*%
%TO.N,SD_VDD*%
X59212500Y-31315000D03*
%TO.P,R36,2*%
%TO.N,SD_D1_C*%
X61037500Y-31315000D03*
%TD*%
%TO.P,R25,1*%
%TO.N,+3V3*%
X59812500Y-54185000D03*
%TO.P,R25,2*%
%TO.N,SD_PG*%
X61637500Y-54185000D03*
%TD*%
D19*
%TO.P,D12,1*%
%TO.N,GND*%
X27537500Y-7795000D03*
%TO.P,D12,2*%
%TO.N,+3V3*%
X27537500Y-9695000D03*
%TO.P,D12,3*%
%TO.N,AIN3*%
X29412500Y-8745000D03*
%TD*%
D12*
%TO.P,R24,1*%
%TO.N,LED_DIN_MCU*%
X69452500Y-59295000D03*
%TO.P,R24,2*%
%TO.N,LED_DIN_A*%
X71277500Y-59295000D03*
%TD*%
D26*
%TO.P,TP7,1*%
%TO.N,CAN_L*%
X28770000Y-35386200D03*
%TD*%
%TO.P,TP5,1*%
%TO.N,GND*%
X36347500Y-25196200D03*
%TD*%
D12*
%TO.P,R40,1*%
%TO.N,CAN_S*%
X25772500Y-39075000D03*
%TO.P,R40,2*%
%TO.N,GND*%
X27597500Y-39075000D03*
%TD*%
D14*
%TO.P,C15,1*%
%TO.N,+3V3*%
X55025000Y-63600000D03*
%TO.P,C15,2*%
%TO.N,GND*%
X57975000Y-63600000D03*
%TD*%
%TO.P,C17,1*%
%TO.N,+5VS*%
X59870000Y-67685000D03*
%TO.P,C17,2*%
%TO.N,GND*%
X62820000Y-67685000D03*
%TD*%
D12*
%TO.P,R63,1*%
%TO.N,+VBAT*%
X35362500Y-31235000D03*
%TO.P,R63,2*%
%TO.N,VBAT_SNS*%
X37187500Y-31235000D03*
%TD*%
D16*
%TO.P,C28,1*%
%TO.N,CAN_SPLIT*%
X21865000Y-39105000D03*
%TO.P,C28,2*%
%TO.N,GND*%
X23765000Y-39105000D03*
%TD*%
%TO.P,C27,1*%
%TO.N,+3V3*%
X17975000Y-39105000D03*
%TO.P,C27,2*%
%TO.N,GND*%
X19875000Y-39105000D03*
%TD*%
D12*
%TO.P,R59,1*%
%TO.N,AIN4_PU*%
X35412500Y-20315000D03*
%TO.P,R59,2*%
%TO.N,AIN4_A*%
X37237500Y-20315000D03*
%TD*%
D16*
%TO.P,C33,1*%
%TO.N,+3V3*%
X43795000Y-34015000D03*
%TO.P,C33,2*%
%TO.N,GND*%
X45695000Y-34015000D03*
%TD*%
D12*
%TO.P,R21,1*%
%TO.N,+3V3*%
X71512500Y-29535000D03*
%TO.P,R21,2*%
%TO.N,I2C_SCL*%
X73337500Y-29535000D03*
%TD*%
%TO.P,R34,1*%
%TO.N,SD_VDD*%
X50612500Y-31315000D03*
%TO.P,R34,2*%
%TO.N,SD_CMD_C*%
X52437500Y-31315000D03*
%TD*%
D14*
%TO.P,C14,1*%
%TO.N,+3V3*%
X50025000Y-63600000D03*
%TO.P,C14,2*%
%TO.N,GND*%
X52975000Y-63600000D03*
%TD*%
D33*
%TO.P,C4,1*%
%TO.N,+VBAT*%
X37250000Y-42200000D03*
%TO.P,C4,2*%
%TO.N,GND*%
X35350000Y-42200000D03*
%TD*%
D25*
%TO.P,D9,1*%
%TO.N,CAN_L*%
X18535000Y-35885000D03*
%TO.P,D9,2*%
%TO.N,GND*%
X22535000Y-35885000D03*
%TD*%
D34*
%TO.P,U2,1*%
%TO.N,GND*%
X39937500Y-40095000D03*
%TO.P,U2,2*%
%TO.N,+VBAT*%
X39937500Y-41365000D03*
%TO.P,U2,3*%
%TO.N,EN_5V*%
X39937500Y-42635000D03*
%TO.P,U2,4*%
%TO.N,RON_5V*%
X39937500Y-43905000D03*
%TO.P,U2,5*%
%TO.N,FB_5V*%
X45062500Y-43905000D03*
%TO.P,U2,6*%
%TO.N,PG_5V*%
X45062500Y-42635000D03*
%TO.P,U2,7*%
%TO.N,BST_5V*%
X45062500Y-41365000D03*
%TO.P,U2,8*%
%TO.N,SW_5V*%
X45062500Y-40095000D03*
D35*
%TO.P,U2,9*%
%TO.N,GND*%
X41850000Y-40050000D03*
X41850000Y-41350000D03*
X41850000Y-42650000D03*
X41850000Y-43950000D03*
D36*
X42500000Y-42000000D03*
D35*
X43150000Y-40050000D03*
X43150000Y-41350000D03*
X43150000Y-42650000D03*
X43150000Y-43950000D03*
%TD*%
D16*
%TO.P,C25,1*%
%TO.N,SD_VDD*%
X56135000Y-22425000D03*
%TO.P,C25,2*%
%TO.N,GND*%
X58035000Y-22425000D03*
%TD*%
%TO.P,C6,1*%
%TO.N,RAMP_5V*%
X50050000Y-50800000D03*
%TO.P,C6,2*%
%TO.N,+5V*%
X51950000Y-50800000D03*
%TD*%
%TO.P,C11,1*%
%TO.N,BST_3V3*%
X41050000Y-53400000D03*
%TO.P,C11,2*%
%TO.N,SW_3V3*%
X42950000Y-53400000D03*
%TD*%
D12*
%TO.P,R22,1*%
%TO.N,LED1*%
X79312500Y-49695000D03*
%TO.P,R22,2*%
%TO.N,LED1_A*%
X81137500Y-49695000D03*
%TD*%
D13*
%TO.P,JP11,1*%
%TO.N,+5VS*%
X35645000Y-15175000D03*
%TO.P,JP11,2*%
%TO.N,AIN4_PU*%
X36945000Y-15175000D03*
%TD*%
%TO.P,JP7,1*%
%TO.N,AIN2_R1*%
X19045000Y-12185000D03*
%TO.P,JP7,2*%
%TO.N,AIN2*%
X20345000Y-12185000D03*
%TO.P,JP7,3*%
%TO.N,AIN2_R2*%
X21645000Y-12185000D03*
%TD*%
D16*
%TO.P,C10,1*%
%TO.N,+5V*%
X55550000Y-50400000D03*
%TO.P,C10,2*%
%TO.N,GND*%
X57450000Y-50400000D03*
%TD*%
D37*
%TO.P,D5,1*%
%TO.N,+5V*%
X67335000Y-15395000D03*
%TO.P,D5,2*%
%TO.N,VBUS*%
X70635000Y-15395000D03*
%TD*%
D25*
%TO.P,D3,1*%
%TO.N,+5VS*%
X60545000Y-64295000D03*
%TO.P,D3,2*%
%TO.N,GND*%
X64545000Y-64295000D03*
%TD*%
D12*
%TO.P,R53,1*%
%TO.N,AIN3_IN*%
X31202500Y-17865000D03*
%TO.P,R53,2*%
%TO.N,AIN3_A*%
X33027500Y-17865000D03*
%TD*%
%TO.P,R14,1*%
%TO.N,PG_3V3*%
X43587500Y-66800000D03*
%TO.P,R14,2*%
%TO.N,+3V3*%
X45412500Y-66800000D03*
%TD*%
%TO.P,R45,1*%
%TO.N,AIN1_A*%
X14162500Y-20315000D03*
%TO.P,R45,2*%
%TO.N,AIN1*%
X15987500Y-20315000D03*
%TD*%
%TO.P,R44,1*%
%TO.N,AIN1_PU*%
X10312500Y-20315000D03*
%TO.P,R44,2*%
%TO.N,AIN1_A*%
X12137500Y-20315000D03*
%TD*%
%TO.P,R7,1*%
%TO.N,SW_5V*%
X44787500Y-37600000D03*
%TO.P,R7,2*%
%TO.N,RAMP_5V*%
X46612500Y-37600000D03*
%TD*%
D16*
%TO.P,C13,1*%
%TO.N,RAMP_3V3*%
X39550000Y-66800000D03*
%TO.P,C13,2*%
%TO.N,FB_3V3*%
X41450000Y-66800000D03*
%TD*%
D19*
%TO.P,D14,1*%
%TO.N,GND*%
X31737500Y-24695000D03*
%TO.P,D14,2*%
%TO.N,+3V3*%
X31737500Y-26595000D03*
%TO.P,D14,3*%
%TO.N,VBAT_SNS*%
X33612500Y-25645000D03*
%TD*%
D28*
%TO.P,D6,1*%
%TO.N,GND*%
X74562500Y-50800000D03*
%TO.P,D6,2*%
%TO.N,LED1_A*%
X76437500Y-50800000D03*
%TD*%
D16*
%TO.P,C21,1*%
%TO.N,+3V3*%
X63795000Y-27115000D03*
%TO.P,C21,2*%
%TO.N,GND*%
X65695000Y-27115000D03*
%TD*%
D12*
%TO.P,R18,1*%
%TO.N,USB_CC1*%
X62812500Y-21875000D03*
%TO.P,R18,2*%
%TO.N,GND*%
X64637500Y-21875000D03*
%TD*%
%TO.P,R57,1*%
%TO.N,AIN3_R2*%
X31162500Y-22705000D03*
%TO.P,R57,2*%
%TO.N,GND*%
X32987500Y-22705000D03*
%TD*%
%TO.P,R55,1*%
%TO.N,AIN3_A*%
X31162500Y-20315000D03*
%TO.P,R55,2*%
%TO.N,AIN3*%
X32987500Y-20315000D03*
%TD*%
D38*
%TO.P,C2,1*%
%TO.N,+VBAT*%
X11695000Y-48845000D03*
%TO.P,C2,2*%
%TO.N,GND*%
X20095000Y-48845000D03*
%TD*%
D19*
%TO.P,D10,1*%
%TO.N,GND*%
X10537500Y-7795000D03*
%TO.P,D10,2*%
%TO.N,+3V3*%
X10537500Y-9695000D03*
%TO.P,D10,3*%
%TO.N,AIN1*%
X12412500Y-8745000D03*
%TD*%
D12*
%TO.P,R48,1*%
%TO.N,AIN2_IN*%
X22702500Y-17865000D03*
%TO.P,R48,2*%
%TO.N,AIN2_A*%
X24527500Y-17865000D03*
%TD*%
%TO.P,R6,1*%
%TO.N,FB_5V*%
X41587500Y-48200000D03*
%TO.P,R6,2*%
%TO.N,GND*%
X43412500Y-48200000D03*
%TD*%
%TO.P,R54,1*%
%TO.N,AIN3_PU*%
X27312500Y-20315000D03*
%TO.P,R54,2*%
%TO.N,AIN3_A*%
X29137500Y-20315000D03*
%TD*%
%TO.P,R46,1*%
%TO.N,AIN1_R1*%
X10312500Y-22705000D03*
%TO.P,R46,2*%
%TO.N,GND*%
X12137500Y-22705000D03*
%TD*%
D16*
%TO.P,C30,1*%
%TO.N,AIN2*%
X18795000Y-17895000D03*
%TO.P,C30,2*%
%TO.N,GND*%
X20695000Y-17895000D03*
%TD*%
D14*
%TO.P,C19,1*%
%TO.N,+3V3*%
X63870000Y-24495000D03*
%TO.P,C19,2*%
%TO.N,GND*%
X66820000Y-24495000D03*
%TD*%
D12*
%TO.P,R5,1*%
%TO.N,+5V*%
X45587500Y-48200000D03*
%TO.P,R5,2*%
%TO.N,FB_5V*%
X47412500Y-48200000D03*
%TD*%
%TO.P,R29,1*%
%TO.N,SD_CMD*%
X54912500Y-25635000D03*
%TO.P,R29,2*%
%TO.N,SD_CMD_C*%
X56737500Y-25635000D03*
%TD*%
D13*
%TO.P,JP5,1*%
%TO.N,+5VS*%
X19045000Y-15175000D03*
%TO.P,JP5,2*%
%TO.N,AIN2_PU*%
X20345000Y-15175000D03*
%TD*%
D26*
%TO.P,TP3,1*%
%TO.N,+3V3*%
X33500000Y-68200000D03*
%TD*%
D39*
%TO.P,L2,1*%
%TO.N,SW_3V3*%
X50000000Y-57800000D03*
%TO.P,L2,2*%
%TO.N,+3V3*%
X56000000Y-57800000D03*
%TD*%
D16*
%TO.P,C20,1*%
%TO.N,+3V3*%
X72775000Y-24325000D03*
%TO.P,C20,2*%
%TO.N,GND*%
X74675000Y-24325000D03*
%TD*%
D40*
%TO.P,Q1,1*%
%TO.N,GATE_RB*%
X10595000Y-56055000D03*
%TO.P,Q1,2*%
%TO.N,VBAT_FB*%
X10595000Y-58335000D03*
D41*
X16895000Y-58335000D03*
D40*
%TO.P,Q1,3*%
%TO.N,+VBAT*%
X10595000Y-60615000D03*
%TD*%
D26*
%TO.P,TP4,1*%
%TO.N,+5VS*%
X67787500Y-63796200D03*
%TD*%
D42*
%TO.P,U8,1*%
%TO.N,GND*%
X44025000Y-29795000D03*
%TO.P,U8,2*%
%TO.N,N/C*%
X44025000Y-30295000D03*
%TO.P,U8,3*%
%TO.N,GND*%
X44025000Y-30795000D03*
%TO.P,U8,4*%
%TO.N,AIN1*%
X44025000Y-31295000D03*
%TO.P,U8,5*%
%TO.N,AIN2*%
X44025000Y-31795000D03*
%TO.P,U8,6*%
%TO.N,AIN3*%
X48425000Y-31795000D03*
%TO.P,U8,7*%
%TO.N,AIN4*%
X48425000Y-31295000D03*
%TO.P,U8,8*%
%TO.N,+3V3*%
X48425000Y-30795000D03*
%TO.P,U8,9*%
%TO.N,I2C_SDA*%
X48425000Y-30295000D03*
%TO.P,U8,10*%
%TO.N,I2C_SCL*%
X48425000Y-29795000D03*
%TD*%
D12*
%TO.P,R32,1*%
%TO.N,SD_D2*%
X54912500Y-28475000D03*
%TO.P,R32,2*%
%TO.N,SD_D2_C*%
X56737500Y-28475000D03*
%TD*%
D16*
%TO.P,C31,1*%
%TO.N,AIN3*%
X27295000Y-17895000D03*
%TO.P,C31,2*%
%TO.N,GND*%
X29195000Y-17895000D03*
%TD*%
D17*
%TO.P,J7,1*%
%TO.N,IO3*%
X10000000Y-3000000D03*
D18*
%TO.P,J7,2*%
%TO.N,IO45*%
X12540000Y-3000000D03*
%TO.P,J7,3*%
%TO.N,IO46*%
X15080000Y-3000000D03*
%TD*%
D34*
%TO.P,U3,1*%
%TO.N,GND*%
X39937500Y-55895000D03*
%TO.P,U3,2*%
%TO.N,+VBAT*%
X39937500Y-57165000D03*
%TO.P,U3,3*%
%TO.N,EN_3V3*%
X39937500Y-58435000D03*
%TO.P,U3,4*%
%TO.N,RON_3V3*%
X39937500Y-59705000D03*
%TO.P,U3,5*%
%TO.N,FB_3V3*%
X45062500Y-59705000D03*
%TO.P,U3,6*%
%TO.N,PG_3V3*%
X45062500Y-58435000D03*
%TO.P,U3,7*%
%TO.N,BST_3V3*%
X45062500Y-57165000D03*
%TO.P,U3,8*%
%TO.N,SW_3V3*%
X45062500Y-55895000D03*
D35*
%TO.P,U3,9*%
%TO.N,GND*%
X41850000Y-55850000D03*
X41850000Y-57150000D03*
X41850000Y-58450000D03*
X41850000Y-59750000D03*
D36*
X42500000Y-57800000D03*
D35*
X43150000Y-55850000D03*
X43150000Y-57150000D03*
X43150000Y-58450000D03*
X43150000Y-59750000D03*
%TD*%
D43*
%TO.P,D1,1*%
%TO.N,+VBAT*%
X22335000Y-58185000D03*
%TO.P,D1,2*%
%TO.N,GND*%
X29135000Y-58185000D03*
%TD*%
D11*
%TO.P,PF2,1*%
%TO.N,VBUS_IN*%
X67952500Y-19265000D03*
%TO.P,PF2,2*%
%TO.N,VBUS*%
X70877500Y-19265000D03*
%TD*%
D12*
%TO.P,R41,1*%
%TO.N,TERM_A*%
X10312500Y-42065000D03*
%TO.P,R41,2*%
%TO.N,CAN_SPLIT*%
X12137500Y-42065000D03*
%TD*%
%TO.P,R20,1*%
%TO.N,+3V3*%
X67662500Y-29535000D03*
%TO.P,R20,2*%
%TO.N,I2C_SDA*%
X69487500Y-29535000D03*
%TD*%
D19*
%TO.P,D11,1*%
%TO.N,GND*%
X19037500Y-7795000D03*
%TO.P,D11,2*%
%TO.N,+3V3*%
X19037500Y-9695000D03*
%TO.P,D11,3*%
%TO.N,AIN2*%
X20912500Y-8745000D03*
%TD*%
D44*
%TO.P,D2,1*%
%TO.N,+3V3*%
X35145000Y-33625000D03*
%TO.P,D2,2*%
%TO.N,GND*%
X37245000Y-33625000D03*
%TD*%
D39*
%TO.P,L1,1*%
%TO.N,SW_5V*%
X50000000Y-42000000D03*
%TO.P,L1,2*%
%TO.N,+5V*%
X56000000Y-42000000D03*
%TD*%
D26*
%TO.P,TP2,1*%
%TO.N,+5V*%
X33800000Y-37400000D03*
%TD*%
D12*
%TO.P,R39,1*%
%TO.N,+3V3*%
X59212500Y-34155000D03*
%TO.P,R39,2*%
%TO.N,SD_CD*%
X61037500Y-34155000D03*
%TD*%
D13*
%TO.P,JP10,1*%
%TO.N,AIN3_R1*%
X27545000Y-12185000D03*
%TO.P,JP10,2*%
%TO.N,AIN3*%
X28845000Y-12185000D03*
%TO.P,JP10,3*%
%TO.N,AIN3_R2*%
X30145000Y-12185000D03*
%TD*%
D12*
%TO.P,R11,1*%
%TO.N,+3V3*%
X45587500Y-64000000D03*
%TO.P,R11,2*%
%TO.N,FB_3V3*%
X47412500Y-64000000D03*
%TD*%
%TO.P,R61,1*%
%TO.N,AIN4_R1*%
X35412500Y-22705000D03*
%TO.P,R61,2*%
%TO.N,GND*%
X37237500Y-22705000D03*
%TD*%
%TO.P,R50,1*%
%TO.N,AIN2_A*%
X22662500Y-20315000D03*
%TO.P,R50,2*%
%TO.N,AIN2*%
X24487500Y-20315000D03*
%TD*%
%TO.P,R28,1*%
%TO.N,SD_CLK*%
X50612500Y-25635000D03*
%TO.P,R28,2*%
%TO.N,SD_CLK_C*%
X52437500Y-25635000D03*
%TD*%
D16*
%TO.P,C34,1*%
%TO.N,VBAT_SNS*%
X31495000Y-28815000D03*
%TO.P,C34,2*%
%TO.N,GND*%
X33395000Y-28815000D03*
%TD*%
D12*
%TO.P,R15,1*%
%TO.N,PWR_LED_K*%
X31512500Y-31235000D03*
%TO.P,R15,2*%
%TO.N,GND*%
X33337500Y-31235000D03*
%TD*%
%TO.P,R47,1*%
%TO.N,AIN1_R2*%
X14162500Y-22705000D03*
%TO.P,R47,2*%
%TO.N,GND*%
X15987500Y-22705000D03*
%TD*%
%TO.P,R1,1*%
%TO.N,VBAT_FB*%
X10012500Y-67165000D03*
%TO.P,R1,2*%
%TO.N,VBAT_UVLO*%
X11837500Y-67165000D03*
%TD*%
D16*
%TO.P,C32,1*%
%TO.N,AIN4*%
X35395000Y-17895000D03*
%TO.P,C32,2*%
%TO.N,GND*%
X37295000Y-17895000D03*
%TD*%
D45*
%TO.P,C3,1*%
%TO.N,+VBAT*%
X37675000Y-45100000D03*
%TO.P,C3,2*%
%TO.N,GND*%
X34725000Y-45100000D03*
%TD*%
D12*
%TO.P,R30,1*%
%TO.N,SD_D0*%
X59212500Y-25635000D03*
%TO.P,R30,2*%
%TO.N,SD_D0_C*%
X61037500Y-25635000D03*
%TD*%
D46*
%TO.P,J9,1*%
%TO.N,SD_D2_C*%
X69650000Y-44175000D03*
%TO.P,J9,2*%
%TO.N,SD_D3_C*%
X69650000Y-43075000D03*
%TO.P,J9,3*%
%TO.N,SD_CMD_C*%
X69650000Y-41975000D03*
%TO.P,J9,4*%
%TO.N,SD_VDD*%
X69650000Y-40875000D03*
%TO.P,J9,5*%
%TO.N,SD_CLK_C*%
X69650000Y-39775000D03*
%TO.P,J9,6*%
%TO.N,GND*%
X69650000Y-38675000D03*
%TO.P,J9,7*%
%TO.N,SD_D0_C*%
X69650000Y-37575000D03*
%TO.P,J9,8*%
%TO.N,SD_D1_C*%
X69650000Y-36475000D03*
D47*
%TO.P,J9,9*%
%TO.N,SD_CD*%
X78875000Y-35350000D03*
D48*
%TO.P,J9,10*%
%TO.N,GND*%
X80450000Y-46575000D03*
D49*
%TO.P,J9,11*%
%TO.N,N/C*%
X77375000Y-35025000D03*
D50*
X69775000Y-35275000D03*
D51*
X69775000Y-46625000D03*
D52*
X78025000Y-46975000D03*
%TD*%
D16*
%TO.P,C26,1*%
%TO.N,+5V*%
X14085000Y-39105000D03*
%TO.P,C26,2*%
%TO.N,GND*%
X15985000Y-39105000D03*
%TD*%
D12*
%TO.P,R19,1*%
%TO.N,USB_CC2*%
X66662500Y-21875000D03*
%TO.P,R19,2*%
%TO.N,GND*%
X68487500Y-21875000D03*
%TD*%
D53*
%TO.P,J2,A1*%
%TO.N,GND*%
X80045000Y-4750000D03*
%TO.P,J2,A4*%
%TO.N,VBUS_IN*%
X80045000Y-5550000D03*
D54*
%TO.P,J2,A5*%
%TO.N,USB_CC1*%
X80045000Y-6750000D03*
%TO.P,J2,A6*%
%TO.N,USB_DP_CON*%
X80045000Y-7750000D03*
%TO.P,J2,A7*%
%TO.N,USB_DM_CON*%
X80045000Y-8250000D03*
%TO.P,J2,A8*%
%TO.N,N/C*%
X80045000Y-9250000D03*
D53*
%TO.P,J2,A9*%
%TO.N,VBUS_IN*%
X80045000Y-10450000D03*
%TO.P,J2,A12*%
%TO.N,GND*%
X80045000Y-11250000D03*
%TO.P,J2,B1*%
X80045000Y-11250000D03*
%TO.P,J2,B4*%
%TO.N,VBUS_IN*%
X80045000Y-10450000D03*
D54*
%TO.P,J2,B5*%
%TO.N,USB_CC2*%
X80045000Y-9750000D03*
%TO.P,J2,B6*%
%TO.N,USB_DP_CON*%
X80045000Y-8750000D03*
%TO.P,J2,B7*%
%TO.N,USB_DM_CON*%
X80045000Y-7250000D03*
%TO.P,J2,B8*%
%TO.N,N/C*%
X80045000Y-6250000D03*
D53*
%TO.P,J2,B9*%
%TO.N,VBUS_IN*%
X80045000Y-5550000D03*
%TO.P,J2,B12*%
%TO.N,GND*%
X80045000Y-4750000D03*
D55*
%TO.P,J2,S1*%
X79130000Y-3680000D03*
D56*
X74950000Y-3680000D03*
D55*
X79130000Y-12320000D03*
D56*
X74950000Y-12320000D03*
%TD*%
D12*
%TO.P,R38,1*%
%TO.N,SD_VDD*%
X54912500Y-34155000D03*
%TO.P,R38,2*%
%TO.N,SD_D3_C*%
X56737500Y-34155000D03*
%TD*%
%TO.P,R4,1*%
%TO.N,RON_5V*%
X37587500Y-48200000D03*
%TO.P,R4,2*%
%TO.N,GND*%
X39412500Y-48200000D03*
%TD*%
%TO.P,R17,1*%
%TO.N,+3V3*%
X63812500Y-29535000D03*
%TO.P,R17,2*%
%TO.N,MCU_BOOT*%
X65637500Y-29535000D03*
%TD*%
D14*
%TO.P,C8,1*%
%TO.N,+5V*%
X50025000Y-47800000D03*
%TO.P,C8,2*%
%TO.N,GND*%
X52975000Y-47800000D03*
%TD*%
D13*
%TO.P,JP4,1*%
%TO.N,AIN1_R1*%
X10545000Y-12185000D03*
%TO.P,JP4,2*%
%TO.N,AIN1*%
X11845000Y-12185000D03*
%TO.P,JP4,3*%
%TO.N,AIN1_R2*%
X13145000Y-12185000D03*
%TD*%
D16*
%TO.P,C1,1*%
%TO.N,VCAP*%
X27817500Y-63305000D03*
%TO.P,C1,2*%
%TO.N,VBAT_FB*%
X29717500Y-63305000D03*
%TD*%
D29*
%TO.P,J1,1*%
%TO.N,VBAT_IN*%
X5000000Y-50000000D03*
D30*
%TO.P,J1,2*%
%TO.N,GND*%
X5000000Y-52000000D03*
%TO.P,J1,3*%
%TO.N,CAN_H*%
X5000000Y-54000000D03*
%TO.P,J1,4*%
%TO.N,CAN_L*%
X5000000Y-56000000D03*
%TD*%
D57*
%TO.P,F1,1*%
%TO.N,VBAT_IN*%
X22897500Y-63455000D03*
%TO.P,F1,2*%
%TO.N,VBAT_F*%
X25697500Y-63455000D03*
%TD*%
D11*
%TO.P,PF1,1*%
%TO.N,+5V*%
X64952500Y-67665000D03*
%TO.P,PF1,2*%
%TO.N,VSENS_F*%
X67877500Y-67665000D03*
%TD*%
D12*
%TO.P,R37,1*%
%TO.N,SD_VDD*%
X50612500Y-34155000D03*
%TO.P,R37,2*%
%TO.N,SD_D2_C*%
X52437500Y-34155000D03*
%TD*%
%TO.P,R3,1*%
%TO.N,+VBAT*%
X37387500Y-37600000D03*
%TO.P,R3,2*%
%TO.N,EN_5V*%
X39212500Y-37600000D03*
%TD*%
D14*
%TO.P,C9,1*%
%TO.N,+5V*%
X55025000Y-47800000D03*
%TO.P,C9,2*%
%TO.N,GND*%
X57975000Y-47800000D03*
%TD*%
D13*
%TO.P,JP12,1*%
%TO.N,AIN4_A*%
X39435000Y-15175000D03*
%TO.P,JP12,2*%
%TO.N,AIN4*%
X40735000Y-15175000D03*
%TD*%
D27*
%TO.P,U5,1*%
%TO.N,USB_DP_CON*%
X62957500Y-14995000D03*
%TO.P,U5,2*%
%TO.N,GND*%
X62957500Y-15945000D03*
%TO.P,U5,3*%
%TO.N,USB_DM_CON*%
X62957500Y-16895000D03*
%TO.P,U5,4*%
%TO.N,USB_DM*%
X65232500Y-16895000D03*
%TO.P,U5,5*%
%TO.N,VBUS*%
X65232500Y-15945000D03*
%TO.P,U5,6*%
%TO.N,USB_DP*%
X65232500Y-14995000D03*
%TD*%
D12*
%TO.P,R16,1*%
%TO.N,+3V3*%
X71592500Y-27085000D03*
%TO.P,R16,2*%
%TO.N,MCU_EN*%
X73417500Y-27085000D03*
%TD*%
D58*
%TO.P,L3,1*%
%TO.N,CANH_T*%
X18360000Y-28945000D03*
%TO.P,L3,2*%
%TO.N,CAN_H*%
X22910000Y-28945000D03*
%TO.P,L3,3*%
%TO.N,CANL_T*%
X18360000Y-31445000D03*
%TO.P,L3,4*%
%TO.N,CAN_L*%
X22910000Y-31445000D03*
%TD*%
D17*
%TO.P,J4,1*%
%TO.N,GND*%
X41000000Y-71500000D03*
D18*
%TO.P,J4,2*%
%TO.N,+3V3*%
X43540000Y-71500000D03*
%TO.P,J4,3*%
%TO.N,I2C_SDA*%
X46080000Y-71500000D03*
%TO.P,J4,4*%
%TO.N,I2C_SCL*%
X48620000Y-71500000D03*
%TD*%
D12*
%TO.P,R31,1*%
%TO.N,SD_D1*%
X50612500Y-28475000D03*
%TO.P,R31,2*%
%TO.N,SD_D1_C*%
X52437500Y-28475000D03*
%TD*%
D16*
%TO.P,C7,1*%
%TO.N,RAMP_5V*%
X39550000Y-51000000D03*
%TO.P,C7,2*%
%TO.N,FB_5V*%
X41450000Y-51000000D03*
%TD*%
D27*
%TO.P,U6,1*%
%TO.N,GND*%
X59957500Y-59095000D03*
%TO.P,U6,2*%
%TO.N,LED_DIN_A*%
X59957500Y-60045000D03*
%TO.P,U6,3*%
%TO.N,GND*%
X59957500Y-60995000D03*
%TO.P,U6,4*%
%TO.N,LED_DIN*%
X62232500Y-60995000D03*
%TO.P,U6,5*%
%TO.N,+5V*%
X62232500Y-59095000D03*
%TD*%
D12*
%TO.P,R13,1*%
%TO.N,SW_3V3*%
X44787500Y-53400000D03*
%TO.P,R13,2*%
%TO.N,RAMP_3V3*%
X46612500Y-53400000D03*
%TD*%
D13*
%TO.P,JP1,1*%
%TO.N,CAN_H*%
X10545000Y-39375000D03*
%TO.P,JP1,2*%
%TO.N,TERM_A*%
X11845000Y-39375000D03*
%TD*%
D59*
%TO.N,+3V3*%
X17195000Y-32850000D03*
X56416000Y-66812500D03*
X44661000Y-34627500D03*
X38240000Y-28785000D03*
X64661000Y-27727500D03*
X64318700Y-30574200D03*
X32975000Y-26595000D03*
X46425000Y-66800000D03*
X52950000Y-66600000D03*
X35945000Y-33625000D03*
X20275000Y-9695000D03*
X72018700Y-30574200D03*
X61275000Y-51995000D03*
X64945000Y-24495000D03*
X36875000Y-9695000D03*
X11775000Y-9695000D03*
X18841000Y-39717500D03*
X56100000Y-63600000D03*
X72098800Y-28124200D03*
X34750000Y-68200000D03*
X57600000Y-57800000D03*
X46093800Y-65039200D03*
X59718700Y-35194200D03*
X60318800Y-55224200D03*
X51100000Y-63600000D03*
X28775000Y-9695000D03*
X68168700Y-30574200D03*
X47200000Y-30795000D03*
X44500000Y-2810000D03*
X73641000Y-24937500D03*
X46425000Y-51000000D03*
%TO.N,+5V*%
X63461300Y-44807100D03*
X66142300Y-25884600D03*
X69888500Y-16603800D03*
X60230000Y-58035200D03*
%TO.N,+5VS*%
X21922900Y-60610700D03*
X33561000Y-14123300D03*
X26823400Y-13927500D03*
X18615800Y-16431700D03*
%TO.N,+VBAT*%
X37675000Y-46750000D03*
X37675000Y-56365000D03*
X40523200Y-30199600D03*
%TO.N,AIN1*%
X47858000Y-32956300D03*
X62005800Y-8261800D03*
%TO.N,AIN2*%
X45581900Y-27280200D03*
X45083500Y-32290300D03*
X54965400Y-5447100D03*
%TO.N,AIN2_IN*%
X21729400Y-17027600D03*
%TO.N,AIN2_R2*%
X21645000Y-14727500D03*
X23575000Y-19420100D03*
%TO.N,AIN3_IN*%
X28029600Y-19245300D03*
%TO.N,AIN3_R2*%
X32284500Y-12907600D03*
X28545400Y-21510000D03*
%TO.N,AIN4*%
X47904100Y-23989300D03*
X49451900Y-32323200D03*
%TO.N,AIN4_IN*%
X38405700Y-15706400D03*
%TO.N,AIN4_R1*%
X36327900Y-13457600D03*
X34127400Y-20567900D03*
%TO.N,AIN4_R2*%
X40933000Y-16446300D03*
X40175000Y-21811100D03*
%TO.N,BST_3V3*%
X46318400Y-57763700D03*
X44582300Y-54953600D03*
%TO.N,CAN_RX*%
X27477200Y-26337200D03*
X44555200Y-14182400D03*
%TO.N,CAN_S*%
X50057700Y-36355100D03*
X54495300Y-20559800D03*
%TO.N,CAN_TX*%
X28196700Y-27369500D03*
X41763700Y-13228500D03*
%TO.N,EN_3V3*%
X39418500Y-54610300D03*
X38526000Y-58435000D03*
%TO.N,EN_5V*%
X38546700Y-42635000D03*
X39911300Y-38694100D03*
%TO.N,GND*%
X42100000Y-22705000D03*
X38045000Y-33625000D03*
X59035000Y-22425000D03*
X24285000Y-35885000D03*
X34214300Y-31835000D03*
X66561000Y-27727500D03*
X21561000Y-18507500D03*
X30061000Y-18507500D03*
X63751000Y-68385000D03*
X40425000Y-64000000D03*
X70451000Y-27727500D03*
X38550000Y-55895000D03*
X21650000Y-22705000D03*
X34261000Y-29427500D03*
X45250000Y-29795000D03*
X36216000Y-42812500D03*
X28610000Y-39075000D03*
X75417700Y-51400000D03*
X16560500Y-36585000D03*
X44425000Y-64000000D03*
X16700000Y-67165000D03*
X69500000Y-21875000D03*
X13150000Y-22705000D03*
X65514300Y-22475000D03*
X38735900Y-40495000D03*
X60964300Y-61395000D03*
X38161000Y-18507500D03*
X81270000Y-11250000D03*
X54695000Y-22595000D03*
X46695000Y-34015000D03*
X58450000Y-50400000D03*
X34000000Y-22705000D03*
X81725000Y-46575000D03*
X44425000Y-48200000D03*
X65625000Y-51995000D03*
X71651000Y-24937500D03*
X25500000Y-22705000D03*
X34214300Y-34225000D03*
X35800000Y-45100000D03*
X75675000Y-24325000D03*
X71917700Y-51400000D03*
X24631000Y-39717500D03*
X62000000Y-1540000D03*
X81270000Y-4750000D03*
X8995000Y-64025000D03*
X40425000Y-48200000D03*
X76200000Y-58400000D03*
X17000000Y-22705000D03*
X30150000Y-22705000D03*
X82500000Y-58400000D03*
X66295000Y-64295000D03*
X58512500Y-64812400D03*
X71025000Y-38675000D03*
X28775000Y-7795000D03*
X58795000Y-59095000D03*
X30885000Y-58185000D03*
X76200000Y-65400000D03*
X82500000Y-65400000D03*
X20275000Y-7795000D03*
X62650000Y-56575000D03*
X67751000Y-25195000D03*
X53906000Y-48500000D03*
X32975000Y-24695000D03*
X66751000Y-19985000D03*
X20741000Y-39717500D03*
X11775000Y-7795000D03*
D60*
X64070000Y-15945000D03*
D59*
X16851000Y-39717500D03*
X44500000Y-1540000D03*
X59050000Y-47800000D03*
X58450000Y-66200000D03*
X38250000Y-22705000D03*
X36875000Y-7795000D03*
X13061000Y-18507500D03*
X37597500Y-25196200D03*
X12245000Y-30310000D03*
X22795000Y-48845000D03*
X53906000Y-64300000D03*
X45250000Y-30795000D03*
%TO.N,I2C_SCL*%
X73337500Y-30756800D03*
X48473300Y-29116900D03*
X59497100Y-11700000D03*
%TO.N,I2C_SDA*%
X68900600Y-28342600D03*
X51222500Y-30113100D03*
X62456300Y-13342000D03*
%TO.N,IO3*%
X43238800Y-19092600D03*
%TO.N,IO45*%
X49965000Y-16904400D03*
%TO.N,IO46*%
X46485700Y-20552400D03*
X41150400Y-4433300D03*
%TO.N,LED1*%
X77735300Y-48370500D03*
X55075500Y-8259700D03*
%TO.N,LED2*%
X55742700Y-11700000D03*
X77862500Y-51369700D03*
%TO.N,LED_5V*%
X66305500Y-59940800D03*
%TO.N,LED_DIN_MCU*%
X68461500Y-58392700D03*
X60840300Y-21331700D03*
%TO.N,MCU_EN*%
X67369800Y-23085000D03*
X58841700Y-4494800D03*
%TO.N,PG_5V*%
X46252300Y-44547200D03*
X42537300Y-51142800D03*
%TO.N,RAMP_5V*%
X47663400Y-37934800D03*
X47663400Y-50800000D03*
%TO.N,SD_CD*%
X57370200Y-15203000D03*
X72209900Y-33890700D03*
X62546700Y-33951000D03*
X57370200Y-20952200D03*
%TO.N,SD_CLK_C*%
X68003800Y-33532900D03*
X55296400Y-24408600D03*
%TO.N,SD_CMD_C*%
X57773000Y-34866300D03*
X53454000Y-31316400D03*
%TO.N,SD_D1_C*%
X63537600Y-34679700D03*
X53313600Y-27568500D03*
%TO.N,SD_D3*%
X55725000Y-23684200D03*
X55725000Y-17530500D03*
%TO.N,SD_PWR_EN*%
X56344500Y-7359500D03*
X64117200Y-52940700D03*
%TO.N,SD_VDD*%
X53865900Y-32334800D03*
X59961600Y-36248200D03*
X58998600Y-23462400D03*
X59961600Y-51045000D03*
%TO.N,SPI_CS*%
X49019500Y-18043500D03*
%TO.N,SPI_MISO*%
X44522800Y-10695800D03*
%TO.N,SPI_MOSI*%
X44553800Y-7310400D03*
%TO.N,SPI_SCK*%
X44533400Y-13380600D03*
%TO.N,UART_RX*%
X45254900Y-6615300D03*
%TO.N,UART_TX*%
X58307100Y-6048900D03*
%TO.N,USB_CC1*%
X64583100Y-13128300D03*
X63723900Y-20963600D03*
%TO.N,USB_DM*%
X58190200Y-15464700D03*
X66246800Y-14400000D03*
%TO.N,USB_DP*%
X58101100Y-16404800D03*
X64139100Y-14480800D03*
%TO.N,VBAT_IN*%
X24052800Y-63455000D03*
%TO.N,VBAT_SNS*%
X38442000Y-31175900D03*
X44856400Y-8156500D03*
X40601300Y-26256200D03*
%TO.N,VBUS_IN*%
X77791000Y-11627400D03*
X73717900Y-17422800D03*
%TD*%
D61*
%TO.N,+3V3*%
X27537500Y-9695000D02*
X28775000Y-9695000D01*
X71512500Y-29535000D02*
X72018700Y-30574200D01*
X48425000Y-30795000D02*
X47200000Y-30795000D01*
X19037500Y-9695000D02*
X20275000Y-9695000D01*
X35637500Y-9695000D02*
X36875000Y-9695000D01*
X50025000Y-63600000D02*
X51100000Y-63600000D01*
X63795000Y-27115000D02*
X64661000Y-27727500D01*
X71592500Y-27085000D02*
X72098800Y-28124200D01*
X60037500Y-51995000D02*
X61275000Y-51995000D01*
X59212500Y-34155000D02*
X59718700Y-35194200D01*
X63870000Y-24495000D02*
X64945000Y-24495000D01*
X33500000Y-68200000D02*
X34750000Y-68200000D01*
X55550000Y-66200000D02*
X56416000Y-66812500D01*
X37252500Y-28785000D02*
X38240000Y-28785000D01*
X51950000Y-66600000D02*
X52950000Y-66600000D01*
X63812500Y-29535000D02*
X64318700Y-30574200D01*
X59812500Y-54185000D02*
X60318800Y-55224200D01*
X55025000Y-63600000D02*
X56100000Y-63600000D01*
X56000000Y-57800000D02*
X57600000Y-57800000D01*
X72775000Y-24325000D02*
X73641000Y-24937500D01*
X67662500Y-29535000D02*
X68168700Y-30574200D01*
X43795000Y-34015000D02*
X44661000Y-34627500D01*
X17975000Y-39105000D02*
X18841000Y-39717500D01*
X45412500Y-51000000D02*
X46425000Y-51000000D01*
X35145000Y-33625000D02*
X35945000Y-33625000D01*
X45587500Y-64000000D02*
X46093800Y-65039200D01*
X31737500Y-26595000D02*
X32975000Y-26595000D01*
X15720000Y-32850000D02*
X17195000Y-32850000D01*
X43250000Y-2810000D02*
X44500000Y-2810000D01*
X10537500Y-9695000D02*
X11775000Y-9695000D01*
X45412500Y-66800000D02*
X46425000Y-66800000D01*
D62*
%TO.N,+5V*%
X56769500Y-44807100D02*
X63461300Y-44807100D01*
X13045000Y-33456300D02*
X11168700Y-31580000D01*
X10770000Y-31580000D02*
X10421300Y-31580000D01*
X51254600Y-49029500D02*
X51254500Y-49029500D01*
X9468100Y-30626800D02*
X9468100Y-29982200D01*
X35449600Y-35750400D02*
X33800000Y-37400000D01*
X55025000Y-49875000D02*
X55025000Y-47800000D01*
X68543800Y-16603800D02*
X69888500Y-16603800D01*
X51254600Y-49029600D02*
X51254600Y-49029500D01*
X52487500Y-50262500D02*
X51254600Y-49029600D01*
X56000000Y-44037600D02*
X56769500Y-44807100D01*
X11168700Y-31580000D02*
X10770000Y-31580000D01*
X55550000Y-50400000D02*
X58097200Y-52947200D01*
X67685000Y-27115000D02*
X66454600Y-25884600D01*
X10421300Y-31580000D02*
X9468100Y-30626800D01*
X59759600Y-58035200D02*
X60230000Y-58035200D01*
X57151700Y-71500000D02*
X56000000Y-71500000D01*
X58015400Y-70348300D02*
X57151700Y-71212000D01*
X58097200Y-56372800D02*
X59759600Y-58035200D01*
X64452500Y-59475000D02*
X64072500Y-59095000D01*
X67335000Y-15395000D02*
X68543800Y-16603800D01*
X54637500Y-50262500D02*
X52487500Y-50262500D01*
X56000000Y-41431900D02*
X50318500Y-35750400D01*
X33575300Y-37400000D02*
X33800000Y-37400000D01*
X62232500Y-59095000D02*
X61172700Y-58035200D01*
X45587500Y-48200000D02*
X46639700Y-47147800D01*
X64952500Y-68087800D02*
X62692000Y-70348300D01*
X55025000Y-49875000D02*
X55550000Y-50400000D01*
X57151700Y-71212000D02*
X57151700Y-71500000D01*
X50318500Y-35750400D02*
X35449600Y-35750400D01*
X64952500Y-67665000D02*
X64952500Y-68087800D01*
X46639700Y-47147800D02*
X49372800Y-47147800D01*
X58097200Y-52947200D02*
X58097200Y-56372800D01*
X56000000Y-42000000D02*
X56000000Y-44037600D01*
X55025000Y-46551600D02*
X56769500Y-44807100D01*
X23964200Y-27788900D02*
X33575300Y-37400000D01*
X9808000Y-29642300D02*
X12041900Y-29642300D01*
X12041900Y-29642300D02*
X13895300Y-27788900D01*
X64072500Y-59095000D02*
X62232500Y-59095000D01*
X62692000Y-70348300D02*
X58015400Y-70348300D01*
X49372800Y-47147800D02*
X50025000Y-47800000D01*
X55025000Y-49875000D02*
X54637500Y-50262500D01*
X9468100Y-29982200D02*
X9808000Y-29642300D01*
X55025000Y-47800000D02*
X55025000Y-46551600D01*
X51254500Y-49029500D02*
X50025000Y-47800000D01*
X14085000Y-39105000D02*
X13045000Y-38065000D01*
X56000000Y-42000000D02*
X56000000Y-41431900D01*
X13045000Y-38065000D02*
X13045000Y-33456300D01*
X13895300Y-27788900D02*
X23964200Y-27788900D01*
X61172700Y-58035200D02*
X60230000Y-58035200D01*
X51950000Y-50800000D02*
X52487500Y-50262500D01*
X66454600Y-25884600D02*
X66142300Y-25884600D01*
%TO.N,+5VS*%
X59870000Y-67685000D02*
X58904700Y-68650300D01*
X60545000Y-67010000D02*
X59870000Y-67685000D01*
X6918300Y-18000000D02*
X9743300Y-15175000D01*
X58904700Y-68650300D02*
X38403000Y-68650300D01*
X27545000Y-14649100D02*
X26823400Y-13927500D01*
X67055800Y-63064500D02*
X61775500Y-63064500D01*
X61775500Y-63064500D02*
X60545000Y-64295000D01*
X60545000Y-64295000D02*
X60545000Y-67010000D01*
X30363400Y-60610700D02*
X21922900Y-60610700D01*
X5000000Y-18000000D02*
X6918300Y-18000000D01*
X27545000Y-15175000D02*
X27545000Y-14649100D01*
X35645000Y-15175000D02*
X35645000Y-14123300D01*
X19045000Y-16226700D02*
X18820800Y-16226700D01*
X19045000Y-15175000D02*
X19045000Y-16226700D01*
X38403000Y-68650300D02*
X30363400Y-60610700D01*
X18820800Y-16226700D02*
X18615800Y-16431700D01*
X71997500Y-67385000D02*
X68408700Y-63796200D01*
X68408700Y-63796200D02*
X67787500Y-63796200D01*
X67787500Y-63796200D02*
X67055800Y-63064500D01*
X35645000Y-14123300D02*
X33561000Y-14123300D01*
X9743300Y-15175000D02*
X10545000Y-15175000D01*
%TO.N,+VBAT*%
X37387500Y-37600000D02*
X37387500Y-41365000D01*
X14256100Y-63510500D02*
X14256100Y-63013500D01*
X9192400Y-57733200D02*
X9192400Y-59212400D01*
D63*
X37250000Y-41365000D02*
X37250000Y-42200000D01*
D62*
X37387500Y-56077500D02*
X37387500Y-53400000D01*
X11857600Y-60615000D02*
X10595000Y-60615000D01*
X12791600Y-64975000D02*
X14256100Y-63510500D01*
X37675000Y-56365000D02*
X37387500Y-56077500D01*
D63*
X37250000Y-42200000D02*
X37675000Y-45100000D01*
D62*
X24442500Y-56077500D02*
X22734200Y-57785800D01*
X9967900Y-56957700D02*
X9192400Y-57733200D01*
X17948600Y-53000300D02*
X15631300Y-53000300D01*
X22734200Y-57785800D02*
X17948600Y-53000300D01*
X35362500Y-31235000D02*
X36397900Y-30199600D01*
X15631300Y-53000300D02*
X11673900Y-56957700D01*
X11673900Y-56957700D02*
X9967900Y-56957700D01*
X37387500Y-56077500D02*
X24442500Y-56077500D01*
X15631300Y-53000300D02*
X15631300Y-52781300D01*
D63*
X37675000Y-56365000D02*
X39937500Y-57165000D01*
X39937500Y-41365000D02*
X37387500Y-41365000D01*
D62*
X14321800Y-63576200D02*
X14256100Y-63510500D01*
X14256100Y-63013500D02*
X11857600Y-60615000D01*
X36397900Y-30199600D02*
X40523200Y-30199600D01*
X9192400Y-59212400D02*
X10595000Y-60615000D01*
X15631300Y-52781300D02*
X11695000Y-48845000D01*
X15087500Y-63576200D02*
X14321800Y-63576200D01*
X12432500Y-64975000D02*
X12791600Y-64975000D01*
D63*
X37387500Y-41365000D02*
X37250000Y-41365000D01*
X37675000Y-45100000D02*
X37675000Y-46750000D01*
D62*
X22335000Y-58185000D02*
X22734200Y-57785800D01*
%TO.N,AIN1*%
X42998000Y-31563900D02*
X42998000Y-32026100D01*
X43266900Y-31295000D02*
X44025000Y-31295000D01*
X11845000Y-11113400D02*
X9536300Y-11113400D01*
X15635000Y-14123300D02*
X12920000Y-14123300D01*
X12920000Y-15832000D02*
X12083200Y-16668800D01*
X11845000Y-13236700D02*
X12033400Y-13236700D01*
X43928200Y-32956300D02*
X47858000Y-32956300D01*
X12920000Y-14123300D02*
X12920000Y-15832000D01*
X4443200Y-23000000D02*
X6909900Y-23000000D01*
X42998000Y-31563900D02*
X39090200Y-27656100D01*
X11845000Y-12185000D02*
X11845000Y-11113400D01*
X25743000Y-23752100D02*
X17601700Y-23752100D01*
X3333000Y-21889800D02*
X4443200Y-23000000D01*
X7662000Y-23752100D02*
X17601700Y-23752100D01*
X11845000Y-12185000D02*
X11845000Y-13236700D01*
X39090200Y-27656100D02*
X29647000Y-27656100D01*
X12083200Y-16668800D02*
X11521200Y-16668800D01*
X17601700Y-23752100D02*
X17601700Y-22375300D01*
X12033400Y-13236700D02*
X12920000Y-14123300D01*
X6909900Y-23000000D02*
X7662000Y-23752100D01*
X3333000Y-17316700D02*
X3333000Y-21889800D01*
X17601700Y-22375300D02*
X15987500Y-20761100D01*
X9536300Y-11113400D02*
X3333000Y-17316700D01*
X15987500Y-20761100D02*
X15987500Y-20315000D01*
X42998000Y-32026100D02*
X43928200Y-32956300D01*
X11521200Y-16668800D02*
X10295000Y-17895000D01*
X11845000Y-11113400D02*
X12412500Y-10545900D01*
X42998000Y-31563900D02*
X43266900Y-31295000D01*
X61801700Y-2810000D02*
X61801700Y-8057700D01*
X12412500Y-10545900D02*
X12412500Y-8745000D01*
X61801700Y-8057700D02*
X62005800Y-8261800D01*
X29647000Y-27656100D02*
X25743000Y-23752100D01*
X15635000Y-15175000D02*
X15635000Y-14123300D01*
X60750000Y-2810000D02*
X61801700Y-2810000D01*
%TO.N,AIN1_A*%
X16027500Y-17865000D02*
X14162500Y-19730000D01*
X14335000Y-16226700D02*
X14389200Y-16226700D01*
X14162500Y-19730000D02*
X14162500Y-20315000D01*
X14335000Y-15175000D02*
X14335000Y-16226700D01*
X12137500Y-20315000D02*
X14162500Y-20315000D01*
X14389200Y-16226700D02*
X16027500Y-17865000D01*
%TO.N,AIN1_IN*%
X9032400Y-21354200D02*
X7678200Y-20000000D01*
X10801500Y-21354200D02*
X9032400Y-21354200D01*
X14202500Y-18217000D02*
X13107200Y-19312300D01*
X11225000Y-20930700D02*
X10801500Y-21354200D01*
X14202500Y-17865000D02*
X14202500Y-18217000D01*
X13107200Y-19312300D02*
X11625600Y-19312300D01*
X7678200Y-20000000D02*
X5000000Y-20000000D01*
X11625600Y-19312300D02*
X11225000Y-19712900D01*
X11225000Y-19712900D02*
X11225000Y-20930700D01*
%TO.N,AIN1_PU*%
X10312500Y-20315000D02*
X9485200Y-19487700D01*
X10454000Y-16226700D02*
X11845000Y-16226700D01*
X9485200Y-19487700D02*
X9485200Y-17195500D01*
X11845000Y-16226700D02*
X11845000Y-15175000D01*
X9485200Y-17195500D02*
X10454000Y-16226700D01*
%TO.N,AIN1_R1*%
X8003400Y-20963900D02*
X4360100Y-20963900D01*
X10312500Y-22705000D02*
X9744500Y-22705000D01*
X9057900Y-12185000D02*
X10545000Y-12185000D01*
X9744500Y-22705000D02*
X8003400Y-20963900D01*
X3781000Y-20384800D02*
X3781000Y-17461900D01*
X4360100Y-20963900D02*
X3781000Y-20384800D01*
X3781000Y-17461900D02*
X9057900Y-12185000D01*
%TO.N,AIN1_R2*%
X14337800Y-12185000D02*
X16870200Y-14717400D01*
X15075000Y-21792500D02*
X14162500Y-22705000D01*
X16346300Y-19090000D02*
X15704600Y-19090000D01*
X15704600Y-19090000D02*
X15075000Y-19719600D01*
X16870200Y-14717400D02*
X16870200Y-18566100D01*
X16870200Y-18566100D02*
X16346300Y-19090000D01*
X15075000Y-19719600D02*
X15075000Y-21792500D01*
X13145000Y-12185000D02*
X14337800Y-12185000D01*
%TO.N,AIN2*%
X20345000Y-12185000D02*
X20345000Y-13236700D01*
X59698300Y-4080000D02*
X60750000Y-4080000D01*
X58768000Y-5447100D02*
X59698300Y-4516800D01*
X26182400Y-23086400D02*
X30350400Y-27254400D01*
X44588200Y-31795000D02*
X45083500Y-32290300D01*
X44025000Y-31795000D02*
X44588200Y-31795000D01*
X54965400Y-5447100D02*
X58768000Y-5447100D01*
X24135000Y-12930300D02*
X24135000Y-15175000D01*
X45556100Y-27254400D02*
X45581900Y-27280200D01*
X21770500Y-10565800D02*
X24135000Y-12930300D01*
X17979000Y-17079000D02*
X18795000Y-17895000D01*
X20345000Y-12185000D02*
X20345000Y-11133300D01*
X30350400Y-27254400D02*
X45556100Y-27254400D01*
X20912500Y-10565800D02*
X20912500Y-8745000D01*
X25367200Y-19435300D02*
X24487500Y-20315000D01*
X24487500Y-20315000D02*
X26182400Y-22009900D01*
X17979000Y-14558200D02*
X17979000Y-17079000D01*
X59698300Y-4516800D02*
X59698300Y-4080000D01*
X20912500Y-10565800D02*
X21770500Y-10565800D01*
X20345000Y-11133300D02*
X20912500Y-10565800D01*
X24135000Y-15175000D02*
X24936700Y-15175000D01*
X19300500Y-13236700D02*
X17979000Y-14558200D01*
X20345000Y-13236700D02*
X19300500Y-13236700D01*
X25367200Y-15605500D02*
X25367200Y-19435300D01*
X26182400Y-22009900D02*
X26182400Y-23086400D01*
X24936700Y-15175000D02*
X25367200Y-15605500D01*
%TO.N,AIN2_A*%
X22662500Y-20315000D02*
X20637500Y-20315000D01*
X24209600Y-17865000D02*
X22662500Y-19412100D01*
X22835000Y-16226700D02*
X22889200Y-16226700D01*
X24527500Y-17865000D02*
X24209600Y-17865000D01*
X22835000Y-15175000D02*
X22835000Y-16226700D01*
X22889200Y-16226700D02*
X24527500Y-17865000D01*
X22662500Y-19412100D02*
X22662500Y-20315000D01*
%TO.N,AIN2_IN*%
X22566800Y-17865000D02*
X22702500Y-17865000D01*
X21729400Y-17027600D02*
X22566800Y-17865000D01*
%TO.N,AIN2_PU*%
X20345000Y-16369000D02*
X19845200Y-16868800D01*
X20345000Y-15175000D02*
X20345000Y-16369000D01*
X19845200Y-16868800D02*
X19845200Y-19282300D01*
X19845200Y-19282300D02*
X18812500Y-20315000D01*
%TO.N,AIN2_R1*%
X18243300Y-12185000D02*
X17577300Y-12851000D01*
X17577300Y-21469800D02*
X18812500Y-22705000D01*
X17577300Y-12851000D02*
X17577300Y-21469800D01*
X19045000Y-12185000D02*
X18243300Y-12185000D01*
%TO.N,AIN2_R2*%
X21645000Y-12185000D02*
X21645000Y-14727500D01*
X23575000Y-21792500D02*
X22662500Y-22705000D01*
X23575000Y-19420100D02*
X23575000Y-21792500D01*
%TO.N,AIN3*%
X28561600Y-16628400D02*
X29111900Y-16628400D01*
X32635000Y-14123300D02*
X32635000Y-15175000D01*
X32159900Y-23401300D02*
X32159900Y-21142600D01*
X32886200Y-12610800D02*
X30582500Y-10307100D01*
X32807500Y-5350000D02*
X43250000Y-5350000D01*
X29412500Y-8745000D02*
X32807500Y-5350000D01*
X42929400Y-23762100D02*
X32520700Y-23762100D01*
X32886200Y-13872100D02*
X32886200Y-12610800D01*
X47349100Y-31795000D02*
X46445300Y-30891200D01*
X28845000Y-12185000D02*
X28845000Y-10874600D01*
X29662100Y-16078200D02*
X29662100Y-15091900D01*
X48425000Y-31795000D02*
X47349100Y-31795000D01*
X30630700Y-14123300D02*
X32635000Y-14123300D01*
X33436700Y-15175000D02*
X33873000Y-15611300D01*
X32635000Y-15175000D02*
X33436700Y-15175000D01*
X29111900Y-16628400D02*
X29662100Y-16078200D01*
X46445300Y-30891200D02*
X46445300Y-27278000D01*
X32635000Y-14123300D02*
X32886200Y-13872100D01*
X32520700Y-23762100D02*
X32159900Y-23401300D01*
X32159900Y-21142600D02*
X32987500Y-20315000D01*
X30582500Y-10307100D02*
X29412500Y-10307100D01*
X28845000Y-10874600D02*
X29412500Y-10307100D01*
X33873000Y-19429500D02*
X32987500Y-20315000D01*
X33873000Y-15611300D02*
X33873000Y-19429500D01*
X29412500Y-10307100D02*
X29412500Y-8745000D01*
X27295000Y-17895000D02*
X28561600Y-16628400D01*
X29662100Y-15091900D02*
X30630700Y-14123300D01*
X46445300Y-27278000D02*
X42929400Y-23762100D01*
%TO.N,AIN3_A*%
X33027500Y-17865000D02*
X31162500Y-19730000D01*
X31335000Y-16226700D02*
X31389200Y-16226700D01*
X31335000Y-15175000D02*
X31335000Y-16226700D01*
X31389200Y-16226700D02*
X33027500Y-17865000D01*
X31162500Y-19730000D02*
X31162500Y-20315000D01*
X29137500Y-20315000D02*
X31162500Y-20315000D01*
%TO.N,AIN3_IN*%
X30184200Y-19245300D02*
X28029600Y-19245300D01*
X31202500Y-18227000D02*
X30184200Y-19245300D01*
X31202500Y-17865000D02*
X31202500Y-18227000D01*
%TO.N,AIN3_PU*%
X27312500Y-20315000D02*
X26440200Y-19442700D01*
X26440200Y-19442700D02*
X26440200Y-17163400D01*
X26440200Y-17163400D02*
X27376900Y-16226700D01*
X28845000Y-16226700D02*
X28845000Y-15175000D01*
X27376900Y-16226700D02*
X28845000Y-16226700D01*
%TO.N,AIN3_R1*%
X27312500Y-22705000D02*
X27312500Y-22485900D01*
X26027300Y-21200700D02*
X26027300Y-12901000D01*
X27312500Y-22485900D02*
X26027300Y-21200700D01*
X26743300Y-12185000D02*
X27545000Y-12185000D01*
X26027300Y-12901000D02*
X26743300Y-12185000D01*
%TO.N,AIN3_R2*%
X30145000Y-12185000D02*
X31561900Y-12185000D01*
X29967500Y-21510000D02*
X31162500Y-22705000D01*
X28545400Y-21510000D02*
X29967500Y-21510000D01*
X31561900Y-12185000D02*
X32284500Y-12907600D01*
%TO.N,AIN4*%
X36306800Y-18806800D02*
X35395000Y-17895000D01*
X41087500Y-20315000D02*
X41087500Y-21085400D01*
X37294200Y-16547000D02*
X36743000Y-16547000D01*
X36306800Y-20934300D02*
X36306800Y-18806800D01*
X36945000Y-11021600D02*
X37512500Y-10454100D01*
X39771600Y-21363700D02*
X36736200Y-21363700D01*
X37512500Y-10454100D02*
X37512500Y-8745000D01*
X37776300Y-14068000D02*
X37776300Y-14123300D01*
X36945000Y-13236700D02*
X37776300Y-14068000D01*
X41087500Y-21085400D02*
X45000200Y-21085400D01*
X37776300Y-16064900D02*
X37294200Y-16547000D01*
X37776300Y-14123300D02*
X37776300Y-16064900D01*
X40735000Y-14123300D02*
X37776300Y-14123300D01*
X36743000Y-16547000D02*
X35395000Y-17895000D01*
X49452000Y-32323200D02*
X49451900Y-32323200D01*
X43250000Y-6620000D02*
X39637500Y-6620000D01*
X49452000Y-31483300D02*
X49452000Y-32323200D01*
X40049900Y-21085400D02*
X39771600Y-21363700D01*
X36945000Y-12185000D02*
X36945000Y-13236700D01*
X45000200Y-21085400D02*
X47904100Y-23989300D01*
X41087500Y-21085400D02*
X40049900Y-21085400D01*
X36945000Y-12185000D02*
X36945000Y-11021600D01*
X36736200Y-21363700D02*
X36306800Y-20934300D01*
X49263700Y-31295000D02*
X49452000Y-31483300D01*
X40735000Y-15175000D02*
X40735000Y-14123300D01*
X39637500Y-6620000D02*
X37512500Y-8745000D01*
X48425000Y-31295000D02*
X49263700Y-31295000D01*
%TO.N,AIN4_A*%
X39435000Y-16226700D02*
X39489200Y-16226700D01*
X37237500Y-20315000D02*
X39262500Y-20315000D01*
X39435000Y-15175000D02*
X39435000Y-16226700D01*
X39489200Y-16226700D02*
X41127500Y-17865000D01*
X39262500Y-20315000D02*
X41127500Y-18450000D01*
X41127500Y-18450000D02*
X41127500Y-17865000D01*
%TO.N,AIN4_IN*%
X38405700Y-15706400D02*
X38405700Y-16968200D01*
X38405700Y-16968200D02*
X39302500Y-17865000D01*
%TO.N,AIN4_PU*%
X35412500Y-20315000D02*
X34562900Y-19465400D01*
X34562900Y-19465400D02*
X34562900Y-17146100D01*
X34841700Y-16867300D02*
X35724700Y-16867300D01*
X36945000Y-15647000D02*
X36945000Y-15175000D01*
X35724700Y-16867300D02*
X36945000Y-15647000D01*
X34562900Y-17146100D02*
X34841700Y-16867300D01*
%TO.N,AIN4_R1*%
X35645000Y-12185000D02*
X35645000Y-13236700D01*
X34127400Y-21419900D02*
X35412500Y-22705000D01*
X35645000Y-13236700D02*
X36107000Y-13236700D01*
X36107000Y-13236700D02*
X36327900Y-13457600D01*
X34127400Y-20567900D02*
X34127400Y-21419900D01*
%TO.N,AIN4_R2*%
X39430100Y-12185000D02*
X41536700Y-14291600D01*
X38245000Y-12185000D02*
X39430100Y-12185000D01*
X41140400Y-16446300D02*
X40933000Y-16446300D01*
X41536700Y-14291600D02*
X41536700Y-16050000D01*
X41536700Y-16050000D02*
X41140400Y-16446300D01*
X40175000Y-21811100D02*
X40156400Y-21811100D01*
X40156400Y-21811100D02*
X39262500Y-22705000D01*
%TO.N,BST_3V3*%
X45062500Y-57165000D02*
X45719700Y-57165000D01*
X42603600Y-54953600D02*
X41050000Y-53400000D01*
X44582300Y-54953600D02*
X42603600Y-54953600D01*
X45719700Y-57165000D02*
X46318400Y-57763700D01*
%TO.N,BST_5V*%
X45354100Y-41365000D02*
X45062500Y-41365000D01*
X51116800Y-46100800D02*
X48933400Y-46100800D01*
X50448200Y-37260300D02*
X51484900Y-38297000D01*
X41050000Y-37600000D02*
X42092000Y-36558000D01*
X51484900Y-38297000D02*
X51484900Y-45732700D01*
X48141100Y-44152000D02*
X45354100Y-41365000D01*
X48141100Y-45308500D02*
X48141100Y-44152000D01*
X48933400Y-46100800D02*
X48141100Y-45308500D01*
X42092000Y-36558000D02*
X49367300Y-36558000D01*
X49367300Y-36558000D02*
X50069600Y-37260300D01*
X50069600Y-37260300D02*
X50448200Y-37260300D01*
X51484900Y-45732700D02*
X51116800Y-46100800D01*
%TO.N,CANH_T*%
X17383300Y-29039100D02*
X16112400Y-30310000D01*
X18360000Y-28945000D02*
X17383300Y-28945000D01*
X17383300Y-28945000D02*
X17383300Y-29039100D01*
X16112400Y-30310000D02*
X15720000Y-30310000D01*
%TO.N,CANL_T*%
X15855000Y-31445000D02*
X15720000Y-31580000D01*
X18360000Y-31445000D02*
X15855000Y-31445000D01*
%TO.N,CAN_H*%
X21933300Y-32036100D02*
X20416000Y-33553400D01*
X3757900Y-52419800D02*
X4436400Y-53098300D01*
X13492400Y-34907500D02*
X13492400Y-36809900D01*
X20416000Y-33553400D02*
X14846500Y-33553400D01*
X11045000Y-38323300D02*
X10545000Y-38323300D01*
X10545000Y-38323300D02*
X10545000Y-39375000D01*
X13564100Y-40186300D02*
X12692200Y-39314400D01*
X14846500Y-33553400D02*
X13492400Y-34907500D01*
X14549400Y-40186300D02*
X13564100Y-40186300D01*
X11045000Y-38323300D02*
X11045000Y-35885000D01*
X21933300Y-32036100D02*
X25283400Y-35386200D01*
X12692200Y-39314400D02*
X12692200Y-38490000D01*
X22910000Y-28945000D02*
X21933300Y-28945000D01*
X14930900Y-39804800D02*
X14549400Y-40186300D01*
X5000000Y-53098300D02*
X5000000Y-54000000D01*
X3757900Y-45360400D02*
X3757900Y-52419800D01*
X10545000Y-39375000D02*
X9743300Y-39375000D01*
X21933300Y-28945000D02*
X21933300Y-32036100D01*
X13492400Y-36809900D02*
X14930900Y-38248400D01*
X25283400Y-35386200D02*
X25777500Y-35386200D01*
X12525500Y-38323300D02*
X11045000Y-38323300D01*
X14930900Y-38248400D02*
X14930900Y-39804800D01*
X12692200Y-38490000D02*
X12525500Y-38323300D01*
X9743300Y-39375000D02*
X3757900Y-45360400D01*
X4436400Y-53098300D02*
X5000000Y-53098300D01*
%TO.N,CAN_L*%
X24828800Y-31445000D02*
X28770000Y-35386200D01*
X5000000Y-55098300D02*
X5000000Y-56000000D01*
X15987500Y-42065000D02*
X20423100Y-42065000D01*
X22667900Y-37108800D02*
X19758800Y-37108800D01*
X22910000Y-31445000D02*
X24828800Y-31445000D01*
X13302900Y-43466600D02*
X8751600Y-48017900D01*
X20423100Y-42065000D02*
X22667900Y-39820200D01*
X14585900Y-43466600D02*
X13302900Y-43466600D01*
X27047400Y-37108800D02*
X22667900Y-37108800D01*
X22667900Y-39820200D02*
X22667900Y-37108800D01*
X5486500Y-55098300D02*
X5000000Y-55098300D01*
X28770000Y-35386200D02*
X27047400Y-37108800D01*
X8751600Y-51833200D02*
X5486500Y-55098300D01*
X8751600Y-48017900D02*
X8751600Y-51833200D01*
X15987500Y-42065000D02*
X14585900Y-43466600D01*
X19758800Y-37108800D02*
X18535000Y-35885000D01*
%TO.N,CAN_RX*%
X44301700Y-14240000D02*
X44359300Y-14182400D01*
X10363600Y-32850000D02*
X9066400Y-31552800D01*
X10770000Y-32850000D02*
X10363600Y-32850000D01*
X44359300Y-14182400D02*
X44555200Y-14182400D01*
X11823200Y-26337200D02*
X27477200Y-26337200D01*
X9066400Y-29094000D02*
X11823200Y-26337200D01*
X9066400Y-31552800D02*
X9066400Y-29094000D01*
X43250000Y-14240000D02*
X44301700Y-14240000D01*
%TO.N,CAN_S*%
X23776800Y-28193300D02*
X29868200Y-34284700D01*
X15720000Y-29040000D02*
X16566700Y-28193300D01*
X16566700Y-28193300D02*
X23776800Y-28193300D01*
X50057700Y-36355100D02*
X49854700Y-36152100D01*
X55175000Y-19300000D02*
X55175000Y-20351700D01*
X34850200Y-38497600D02*
X32484900Y-38497600D01*
X49854700Y-36152100D02*
X37195700Y-36152100D01*
X28139100Y-36708400D02*
X29040700Y-36708400D01*
X29040700Y-36708400D02*
X29868200Y-35880900D01*
X32484900Y-38497600D02*
X29868200Y-35880900D01*
X37195700Y-36152100D02*
X34850200Y-38497600D01*
X55175000Y-20351700D02*
X54703400Y-20351700D01*
X29868200Y-34284700D02*
X29868200Y-35880900D01*
X25772500Y-39075000D02*
X28139100Y-36708400D01*
X54703400Y-20351700D02*
X54495300Y-20559800D01*
%TO.N,CAN_SPLIT*%
X21865000Y-39105000D02*
X21865000Y-39478300D01*
X15393500Y-40834000D02*
X14162500Y-42065000D01*
X15393500Y-40833900D02*
X15393500Y-40834000D01*
X12137500Y-42065000D02*
X14162500Y-42065000D01*
X20509400Y-40833900D02*
X15393500Y-40833900D01*
X21865000Y-39478300D02*
X20509400Y-40833900D01*
%TO.N,CAN_TX*%
X41939800Y-13228500D02*
X41763700Y-13228500D01*
X42198300Y-12970000D02*
X41939800Y-13228500D01*
X10770000Y-29040000D02*
X12440500Y-27369500D01*
X12440500Y-27369500D02*
X28196700Y-27369500D01*
X43250000Y-12970000D02*
X42198300Y-12970000D01*
%TO.N,EN_3V3*%
X39937500Y-58435000D02*
X38526000Y-58435000D01*
X39212500Y-54404300D02*
X39212500Y-53400000D01*
X39418500Y-54610300D02*
X39212500Y-54404300D01*
%TO.N,EN_5V*%
X39212500Y-37995300D02*
X39911300Y-38694100D01*
X39212500Y-37600000D02*
X39212500Y-37995300D01*
X39937500Y-42635000D02*
X38546700Y-42635000D01*
%TO.N,FB_3V3*%
X42731600Y-67438000D02*
X42088000Y-67438000D01*
X43131700Y-67838200D02*
X42731600Y-67438100D01*
X47412500Y-64000000D02*
X47412500Y-64628900D01*
X46244100Y-65797300D02*
X44900600Y-65797300D01*
X45062500Y-59705000D02*
X41587500Y-63180000D01*
X44500000Y-67385200D02*
X44047000Y-67838200D01*
X47412500Y-64628900D02*
X46244100Y-65797300D01*
X42088000Y-67438000D02*
X41450000Y-66800000D01*
X41587500Y-63180000D02*
X41587500Y-64000000D01*
X44500000Y-66197900D02*
X44500000Y-67385200D01*
X41450000Y-66800000D02*
X41450000Y-64137500D01*
X42731600Y-67438100D02*
X42731600Y-67438000D01*
X41450000Y-64137500D02*
X41587500Y-64000000D01*
X44047000Y-67838200D02*
X43131700Y-67838200D01*
X44900600Y-65797300D02*
X44500000Y-66197900D01*
%TO.N,FB_5V*%
X41587500Y-47380000D02*
X41587500Y-48200000D01*
X41450000Y-51000000D02*
X41450000Y-49390200D01*
X41587500Y-49252700D02*
X41587500Y-48200000D01*
X41587500Y-49252700D02*
X46359800Y-49252700D01*
X46359800Y-49252700D02*
X47412500Y-48200000D01*
X45062500Y-43905000D02*
X41587500Y-47380000D01*
X41450000Y-49390200D02*
X41587500Y-49252700D01*
%TO.N,GATE_RB*%
X13425000Y-62762000D02*
X13425000Y-63384700D01*
X8753000Y-60769200D02*
X9526400Y-61542600D01*
X10595000Y-56055000D02*
X10270000Y-56055000D01*
X8753000Y-57572000D02*
X8753000Y-60769200D01*
X12205600Y-61542600D02*
X13425000Y-62762000D01*
X12784700Y-64025000D02*
X12432500Y-64025000D01*
X13425000Y-63384700D02*
X12784700Y-64025000D01*
X10270000Y-56055000D02*
X8753000Y-57572000D01*
X9526400Y-61542600D02*
X12205600Y-61542600D01*
D61*
%TO.N,GND*%
X10537500Y-7795000D02*
X11775000Y-7795000D01*
X80450000Y-46575000D02*
X81725000Y-46575000D01*
X58035000Y-22425000D02*
X59035000Y-22425000D01*
X39412500Y-64000000D02*
X40425000Y-64000000D01*
X32987500Y-22705000D02*
X34000000Y-22705000D01*
X15045000Y-35885000D02*
X16560500Y-36585000D01*
X65695000Y-27115000D02*
X66561000Y-27727500D01*
X37245000Y-33625000D02*
X38045000Y-33625000D01*
X80045000Y-4750000D02*
X81270000Y-4750000D01*
X20637500Y-22705000D02*
X21650000Y-22705000D01*
X81150000Y-58400000D02*
X82500000Y-58400000D01*
X31737500Y-24695000D02*
X32975000Y-24695000D01*
X15987500Y-22705000D02*
X17000000Y-22705000D01*
X74850000Y-65400000D02*
X76200000Y-65400000D01*
X57450000Y-66200000D02*
X58450000Y-66200000D01*
X43412500Y-48200000D02*
X44425000Y-48200000D01*
X57975000Y-63600000D02*
X58512500Y-64812400D01*
X20095000Y-48845000D02*
X22795000Y-48845000D01*
X27537500Y-7795000D02*
X28775000Y-7795000D01*
D62*
X43150000Y-42650000D02*
X42500000Y-42000000D01*
D61*
X35350000Y-42200000D02*
X36216000Y-42812500D01*
X62957500Y-15945000D02*
X64070000Y-15945000D01*
X33337500Y-33625000D02*
X34214300Y-34225000D01*
X36347500Y-25196200D02*
X37597500Y-25196200D01*
X29137500Y-22705000D02*
X30150000Y-22705000D01*
X81150000Y-65400000D02*
X82500000Y-65400000D01*
X27597500Y-39075000D02*
X28610000Y-39075000D01*
X29195000Y-17895000D02*
X30061000Y-18507500D01*
X12195000Y-17895000D02*
X13061000Y-18507500D01*
X74675000Y-24325000D02*
X75675000Y-24325000D01*
X34725000Y-45100000D02*
X35800000Y-45100000D01*
X70785000Y-24325000D02*
X71651000Y-24937500D01*
X39937500Y-55895000D02*
X38550000Y-55895000D01*
X57450000Y-50400000D02*
X58450000Y-50400000D01*
D62*
X51200000Y-9260000D02*
X50500000Y-9260000D01*
D61*
X57975000Y-47800000D02*
X59050000Y-47800000D01*
X33337500Y-31235000D02*
X34214300Y-31835000D01*
X19875000Y-39105000D02*
X20741000Y-39717500D01*
X43412500Y-64000000D02*
X44425000Y-64000000D01*
X74850000Y-58400000D02*
X76200000Y-58400000D01*
X23765000Y-39105000D02*
X24631000Y-39717500D01*
X71062500Y-50800000D02*
X71917700Y-51400000D01*
X15687500Y-67165000D02*
X16700000Y-67165000D01*
X12137500Y-22705000D02*
X13150000Y-22705000D01*
X44025000Y-30795000D02*
X45250000Y-30795000D01*
X68487500Y-21875000D02*
X69500000Y-21875000D01*
X64637500Y-21875000D02*
X65514300Y-22475000D01*
X62820000Y-67685000D02*
X63751000Y-68385000D01*
X52975000Y-63600000D02*
X53906000Y-64300000D01*
D62*
X43150000Y-58450000D02*
X42500000Y-57800000D01*
D61*
X59957500Y-59095000D02*
X58795000Y-59095000D01*
X45695000Y-34015000D02*
X46695000Y-34015000D01*
X80045000Y-11250000D02*
X81270000Y-11250000D01*
X59957500Y-60995000D02*
X60964300Y-61395000D01*
X74562500Y-50800000D02*
X75417700Y-51400000D01*
X15985000Y-39105000D02*
X16851000Y-39717500D01*
X69585000Y-27115000D02*
X70451000Y-27727500D01*
X44025000Y-29795000D02*
X45250000Y-29795000D01*
X22535000Y-35885000D02*
X24285000Y-35885000D01*
X60750000Y-1540000D02*
X62000000Y-1540000D01*
X37295000Y-17895000D02*
X38161000Y-18507500D01*
X39937500Y-40095000D02*
X38735900Y-40495000D01*
X64387500Y-51995000D02*
X65625000Y-51995000D01*
X65820000Y-19285000D02*
X66751000Y-19985000D01*
X61637500Y-56575000D02*
X62650000Y-56575000D01*
X33395000Y-28815000D02*
X34261000Y-29427500D01*
X10157500Y-64025000D02*
X8995000Y-64025000D01*
X20695000Y-17895000D02*
X21561000Y-18507500D01*
X52975000Y-47800000D02*
X53906000Y-48500000D01*
X37237500Y-22705000D02*
X38250000Y-22705000D01*
X64545000Y-64295000D02*
X66295000Y-64295000D01*
X66820000Y-24495000D02*
X67751000Y-25195000D01*
X69650000Y-38675000D02*
X71025000Y-38675000D01*
X10770000Y-30310000D02*
X12245000Y-30310000D01*
X24487500Y-22705000D02*
X25500000Y-22705000D01*
X29135000Y-58185000D02*
X30885000Y-58185000D01*
X41087500Y-22705000D02*
X42100000Y-22705000D01*
X43250000Y-1540000D02*
X44500000Y-1540000D01*
X19037500Y-7795000D02*
X20275000Y-7795000D01*
X39412500Y-48200000D02*
X40425000Y-48200000D01*
X53620000Y-22595000D02*
X54695000Y-22595000D01*
X35637500Y-7795000D02*
X36875000Y-7795000D01*
D62*
%TO.N,I2C_SCL*%
X73337500Y-29535000D02*
X73337500Y-30756800D01*
X48473300Y-29746700D02*
X48473300Y-29116900D01*
X60750000Y-11700000D02*
X59497100Y-11700000D01*
X48425000Y-29795000D02*
X48473300Y-29746700D01*
%TO.N,I2C_SDA*%
X60750000Y-12970000D02*
X62084300Y-12970000D01*
X62084300Y-12970000D02*
X62456300Y-13342000D01*
X51040600Y-30295000D02*
X48425000Y-30295000D01*
X51222500Y-30113100D02*
X51040600Y-30295000D01*
X69487500Y-29535000D02*
X69487500Y-28929500D01*
X69487500Y-28929500D02*
X68900600Y-28342600D01*
%TO.N,IO3*%
X44807600Y-19092600D02*
X45015000Y-19300000D01*
X43238800Y-19092600D02*
X44807600Y-19092600D01*
%TO.N,IO45*%
X58985000Y-18248300D02*
X57641100Y-16904400D01*
X57641100Y-16904400D02*
X49965000Y-16904400D01*
X58985000Y-19300000D02*
X58985000Y-18248300D01*
%TO.N,IO46*%
X46285000Y-20351700D02*
X46485700Y-20552400D01*
X46285000Y-19300000D02*
X46285000Y-20351700D01*
X16513300Y-4433300D02*
X41150400Y-4433300D01*
X15080000Y-3000000D02*
X16513300Y-4433300D01*
%TO.N,LED1*%
X43905200Y-10430000D02*
X45175200Y-9160000D01*
X77735300Y-48370500D02*
X77988000Y-48370500D01*
X43250000Y-10430000D02*
X43905200Y-10430000D01*
X48283500Y-6557600D02*
X52692300Y-6557600D01*
X53092500Y-6957800D02*
X53126300Y-6957800D01*
X54558500Y-8259700D02*
X55075500Y-8259700D01*
X53490500Y-7358000D02*
X53656800Y-7358000D01*
X53656800Y-7358000D02*
X54558500Y-8259700D01*
X53126300Y-6957800D02*
X53326300Y-7157800D01*
X52692300Y-6557600D02*
X53092500Y-6957800D01*
X53326300Y-7157800D02*
X53326300Y-7193800D01*
X45681100Y-9160000D02*
X48283500Y-6557600D01*
X53326300Y-7193800D02*
X53490500Y-7358000D01*
X45175200Y-9160000D02*
X45681100Y-9160000D01*
X77988000Y-48370500D02*
X79312500Y-49695000D01*
%TO.N,LED1_A*%
X80064500Y-50768000D02*
X76469500Y-50768000D01*
X81137500Y-49695000D02*
X80064500Y-50768000D01*
X76469500Y-50768000D02*
X76437500Y-50800000D01*
%TO.N,LED2*%
X43250000Y-11700000D02*
X55742700Y-11700000D01*
X78597200Y-51369700D02*
X79312500Y-52085000D01*
X77862500Y-51369700D02*
X78597200Y-51369700D01*
%TO.N,LED2_A*%
X75259100Y-53121600D02*
X72937500Y-50800000D01*
X81137500Y-52085000D02*
X80100900Y-53121600D01*
X80100900Y-53121600D02*
X75259100Y-53121600D01*
%TO.N,LED_5V*%
X66305500Y-59940800D02*
X66911700Y-59940800D01*
X66911700Y-59940800D02*
X67377500Y-59475000D01*
%TO.N,LED_DIN*%
X62232500Y-60995000D02*
X62398800Y-61161300D01*
X62398800Y-61161300D02*
X67174300Y-61161300D01*
X73040000Y-67027000D02*
X73040000Y-71500000D01*
X67174300Y-61161300D02*
X73040000Y-67027000D01*
%TO.N,LED_DIN_A*%
X62747000Y-60045000D02*
X63424100Y-60722100D01*
X63424100Y-60722100D02*
X69850400Y-60722100D01*
X59957500Y-60045000D02*
X62747000Y-60045000D01*
X69850400Y-60722100D02*
X71277500Y-59295000D01*
%TO.N,LED_DIN_MCU*%
X59860300Y-20351700D02*
X60840300Y-21331700D01*
X57715000Y-20351700D02*
X59860300Y-20351700D01*
X68550200Y-58392700D02*
X68461500Y-58392700D01*
X69452500Y-59295000D02*
X68550200Y-58392700D01*
X57715000Y-19300000D02*
X57715000Y-20351700D01*
%TO.N,MCU_BOOT*%
X73698300Y-61600000D02*
X73698300Y-53914500D01*
X67925100Y-31822600D02*
X65637500Y-29535000D01*
X81150000Y-61600000D02*
X74850000Y-61600000D01*
X81205900Y-53569900D02*
X82359500Y-52416300D01*
X73698300Y-53914500D02*
X74042900Y-53569900D01*
X64627400Y-28524900D02*
X65637500Y-29535000D01*
X63688300Y-28524900D02*
X64627400Y-28524900D01*
X77026900Y-31822600D02*
X67925100Y-31822600D01*
X74042900Y-53569900D02*
X81205900Y-53569900D01*
X60750000Y-18050000D02*
X61801700Y-18050000D01*
X62977500Y-27814100D02*
X63688300Y-28524900D01*
X62977500Y-24002500D02*
X62977500Y-27814100D01*
X82359500Y-52416300D02*
X82359500Y-37155200D01*
X61801700Y-18050000D02*
X61801700Y-22826700D01*
X82359500Y-37155200D02*
X77026900Y-31822600D01*
X74850000Y-61600000D02*
X73698300Y-61600000D01*
X61801700Y-22826700D02*
X62977500Y-24002500D01*
%TO.N,MCU_EN*%
X67369800Y-23085000D02*
X67645000Y-23085000D01*
X82761200Y-36428700D02*
X73417500Y-27085000D01*
X58426900Y-4080000D02*
X58841700Y-4494800D01*
X81150000Y-54600000D02*
X82301700Y-54600000D01*
X43250000Y-4080000D02*
X58426900Y-4080000D01*
X81150000Y-54600000D02*
X74850000Y-54600000D01*
X68885000Y-24325000D02*
X70279000Y-25719000D01*
X67645000Y-23085000D02*
X68885000Y-24325000D01*
X72051500Y-25719000D02*
X73417500Y-27085000D01*
X82301700Y-54600000D02*
X82761200Y-54140500D01*
X82761200Y-54140500D02*
X82761200Y-36428700D01*
X70279000Y-25719000D02*
X72051500Y-25719000D01*
%TO.N,PG_3V3*%
X42568000Y-65780500D02*
X42568000Y-63274300D01*
X44321600Y-61976200D02*
X46268800Y-60029000D01*
X46268800Y-60029000D02*
X46268800Y-59331100D01*
X42568000Y-63274300D02*
X43866100Y-61976200D01*
X43866100Y-61976200D02*
X44321600Y-61976200D01*
X45372700Y-58435000D02*
X45062500Y-58435000D01*
X43587500Y-66800000D02*
X42568000Y-65780500D01*
X46268800Y-59331100D02*
X45372700Y-58435000D01*
%TO.N,PG_5V*%
X45062500Y-42635000D02*
X45381400Y-42635000D01*
X45381400Y-42635000D02*
X46252300Y-43505900D01*
X43444700Y-51142800D02*
X43587500Y-51000000D01*
X46252300Y-43505900D02*
X46252300Y-44547200D01*
X42537300Y-51142800D02*
X43444700Y-51142800D01*
%TO.N,PWR_LED_K*%
X34508000Y-30031500D02*
X32716000Y-30031500D01*
X32716000Y-30031500D02*
X31512500Y-31235000D01*
X35377500Y-29162000D02*
X34508000Y-30031500D01*
X35377500Y-28785000D02*
X35377500Y-29162000D01*
%TO.N,RAMP_3V3*%
X48410100Y-68239900D02*
X50050000Y-66600000D01*
X40989900Y-68239900D02*
X48410100Y-68239900D01*
X39550000Y-66800000D02*
X40989900Y-68239900D01*
X50733700Y-53400000D02*
X51734000Y-54400300D01*
X51734000Y-64916000D02*
X50050000Y-66600000D01*
X51734000Y-54400300D02*
X51734000Y-64916000D01*
X46612500Y-53400000D02*
X50733700Y-53400000D01*
%TO.N,RAMP_5V*%
X48783200Y-52066800D02*
X40616800Y-52066800D01*
X50050000Y-50800000D02*
X48783200Y-52066800D01*
X50050000Y-50800000D02*
X47663400Y-50800000D01*
X46947300Y-37934800D02*
X47663400Y-37934800D01*
X46612500Y-37600000D02*
X46947300Y-37934800D01*
X40616800Y-52066800D02*
X39550000Y-51000000D01*
%TO.N,RON_3V3*%
X37587500Y-62055000D02*
X37587500Y-64000000D01*
X39937500Y-59705000D02*
X37587500Y-62055000D01*
%TO.N,RON_5V*%
X39937500Y-43905000D02*
X39937500Y-45850000D01*
X39937500Y-45850000D02*
X37587500Y-48200000D01*
%TO.N,SD_CD*%
X72209900Y-33890700D02*
X70848700Y-32529500D01*
X44608700Y-15203000D02*
X57370200Y-15203000D01*
X44301700Y-15510000D02*
X44608700Y-15203000D01*
X58488600Y-20952200D02*
X57370200Y-20952200D01*
X65310600Y-32529500D02*
X62436600Y-29655500D01*
X61037500Y-34155000D02*
X62342700Y-34155000D01*
X78875000Y-35350000D02*
X78875000Y-34323300D01*
X78875000Y-34323300D02*
X72642500Y-34323300D01*
X62342700Y-34155000D02*
X62546700Y-33951000D01*
X62436600Y-29655500D02*
X62436600Y-24900200D01*
X70848700Y-32529500D02*
X65310600Y-32529500D01*
X72642500Y-34323300D02*
X72209900Y-33890700D01*
X43250000Y-15510000D02*
X44301700Y-15510000D01*
X62436600Y-24900200D02*
X58488600Y-20952200D01*
%TO.N,SD_CLK*%
X50522800Y-20899700D02*
X49764400Y-21658100D01*
X53905000Y-19674400D02*
X52679700Y-20899700D01*
X52679700Y-20899700D02*
X50522800Y-20899700D01*
X49764400Y-21658100D02*
X49764400Y-24786900D01*
X53905000Y-19300000D02*
X53905000Y-19674400D01*
X49764400Y-24786900D02*
X50612500Y-25635000D01*
%TO.N,SD_CLK_C*%
X70826700Y-39775000D02*
X71673100Y-38928600D01*
X68171700Y-33700800D02*
X68003800Y-33532900D01*
X53663900Y-24408600D02*
X55296400Y-24408600D01*
X71673100Y-38928600D02*
X71673100Y-34773100D01*
X52437500Y-25635000D02*
X53663900Y-24408600D01*
X69650000Y-39775000D02*
X70826700Y-39775000D01*
X71673100Y-34773100D02*
X70600800Y-33700800D01*
X70600800Y-33700800D02*
X68171700Y-33700800D01*
%TO.N,SD_CMD_C*%
X55260400Y-29679000D02*
X54987300Y-29679000D01*
X56737500Y-25635000D02*
X55887200Y-26485300D01*
X54987300Y-29679000D02*
X53454000Y-31212300D01*
X55887200Y-29052200D02*
X55260400Y-29679000D01*
X69650000Y-41975000D02*
X64834800Y-41975000D01*
X57773000Y-34913200D02*
X57773000Y-34866300D01*
X52438900Y-31316400D02*
X52437500Y-31315000D01*
X53454000Y-31316400D02*
X52438900Y-31316400D01*
X64834800Y-41975000D02*
X57773000Y-34913200D01*
X55887200Y-26485300D02*
X55887200Y-29052200D01*
X53454000Y-31212300D02*
X53454000Y-31316400D01*
%TO.N,SD_D0_C*%
X60199200Y-29991000D02*
X58061500Y-29991000D01*
X58061500Y-29991000D02*
X56737500Y-31315000D01*
X69650000Y-37575000D02*
X70826700Y-37575000D01*
X71173100Y-37228600D02*
X71173100Y-34841100D01*
X61632800Y-29991000D02*
X60199200Y-29991000D01*
X65964200Y-34322400D02*
X61632800Y-29991000D01*
X70654400Y-34322400D02*
X65964200Y-34322400D01*
X60199200Y-26473300D02*
X61037500Y-25635000D01*
X60199200Y-29991000D02*
X60199200Y-26473300D01*
X71173100Y-34841100D02*
X70654400Y-34322400D01*
X70826700Y-37575000D02*
X71173100Y-37228600D01*
%TO.N,SD_D1*%
X50095000Y-20351700D02*
X49352900Y-21093800D01*
X49352900Y-21093800D02*
X49352900Y-27215400D01*
X49352900Y-27215400D02*
X50612500Y-28475000D01*
X50095000Y-19300000D02*
X50095000Y-20351700D01*
%TO.N,SD_D1_C*%
X63590200Y-34679700D02*
X63537600Y-34679700D01*
X61360100Y-31315000D02*
X61037500Y-31315000D01*
X65385500Y-36475000D02*
X63590200Y-34679700D01*
X63590200Y-33545100D02*
X61360100Y-31315000D01*
X52437500Y-28475000D02*
X53313600Y-27598900D01*
X69650000Y-36475000D02*
X65385500Y-36475000D01*
X53313600Y-27598900D02*
X53313600Y-27568500D01*
X63590200Y-34679700D02*
X63590200Y-33545100D01*
%TO.N,SD_D2*%
X48825000Y-19300000D02*
X48825000Y-28200600D01*
X53876100Y-29511400D02*
X54912500Y-28475000D01*
X50135800Y-29511400D02*
X53876100Y-29511400D01*
X48825000Y-28200600D02*
X50135800Y-29511400D01*
%TO.N,SD_D2_C*%
X55762800Y-32016100D02*
X55762800Y-30353000D01*
X54466000Y-33054500D02*
X54724400Y-33054500D01*
X63385500Y-44175000D02*
X53365500Y-34155000D01*
X55762800Y-30353000D02*
X56737500Y-29378300D01*
X53365500Y-34155000D02*
X52437500Y-34155000D01*
X69650000Y-44175000D02*
X63385500Y-44175000D01*
X53365500Y-34155000D02*
X54466000Y-33054500D01*
X54724400Y-33054500D02*
X55762800Y-32016100D01*
X56737500Y-29378300D02*
X56737500Y-28475000D01*
%TO.N,SD_D3*%
X47555000Y-19300000D02*
X47555000Y-18653600D01*
X49551700Y-17436500D02*
X49645700Y-17530500D01*
X58303400Y-27565900D02*
X58303400Y-25706900D01*
X58303400Y-25706900D02*
X56280700Y-23684200D01*
X47555000Y-18653600D02*
X48772100Y-17436500D01*
X59212500Y-28475000D02*
X58303400Y-27565900D01*
X48772100Y-17436500D02*
X49551700Y-17436500D01*
X49645700Y-17530500D02*
X55725000Y-17530500D01*
X56280700Y-23684200D02*
X55725000Y-23684200D01*
%TO.N,SD_D3_C*%
X56737500Y-34723000D02*
X65089500Y-43075000D01*
X67754700Y-32931200D02*
X67571000Y-33114900D01*
X70826700Y-43075000D02*
X72074800Y-41826900D01*
X72074800Y-41826900D02*
X72074800Y-34606800D01*
X72074800Y-34606800D02*
X70399200Y-32931200D01*
X65089500Y-43075000D02*
X69650000Y-43075000D01*
X65324700Y-33114900D02*
X61037600Y-28827800D01*
X67571000Y-33114900D02*
X65324700Y-33114900D01*
X56737500Y-34155000D02*
X56737500Y-34723000D01*
X69650000Y-43075000D02*
X70826700Y-43075000D01*
X61037600Y-28827800D02*
X61037500Y-28827800D01*
X61037500Y-28827800D02*
X61037500Y-28475000D01*
X70399200Y-32931200D02*
X67754700Y-32931200D01*
%TO.N,SD_EN_G*%
X60130700Y-56575000D02*
X61388300Y-55317400D01*
X64355100Y-55317400D02*
X65487500Y-54185000D01*
X61388300Y-55317400D02*
X64355100Y-55317400D01*
X64387500Y-50095000D02*
X66772200Y-50095000D01*
X67358900Y-50681700D02*
X67358900Y-52313600D01*
X66772200Y-50095000D02*
X67358900Y-50681700D01*
X59812500Y-56575000D02*
X60130700Y-56575000D01*
X67358900Y-52313600D02*
X65487500Y-54185000D01*
%TO.N,SD_PG*%
X63478300Y-51191700D02*
X62381500Y-50095000D01*
X63478300Y-51191700D02*
X63331500Y-51338500D01*
X63331500Y-51338500D02*
X63331500Y-52491000D01*
X63331500Y-52491000D02*
X61637500Y-54185000D01*
X62381500Y-50095000D02*
X60037500Y-50095000D01*
X66262500Y-51045000D02*
X63625000Y-51045000D01*
X63625000Y-51045000D02*
X63478300Y-51191700D01*
%TO.N,SD_PWR_EN*%
X44301700Y-9160000D02*
X44703400Y-8758300D01*
X54023300Y-6956300D02*
X54426500Y-7359500D01*
X53692800Y-6956300D02*
X54023300Y-6956300D01*
X64117200Y-53730300D02*
X64117200Y-52940700D01*
X48117200Y-6155900D02*
X52892400Y-6155900D01*
X44703400Y-8758300D02*
X45514800Y-8758300D01*
X63662500Y-54185000D02*
X64117200Y-53730300D01*
X54426500Y-7359500D02*
X56344500Y-7359500D01*
X43250000Y-9160000D02*
X44301700Y-9160000D01*
X45514800Y-8758300D02*
X48117200Y-6155900D01*
X52892400Y-6155900D02*
X53692800Y-6956300D01*
%TO.N,SD_VDD*%
X58998600Y-23462400D02*
X57172400Y-23462400D01*
X60946800Y-36248200D02*
X59961600Y-36248200D01*
X57651000Y-32876500D02*
X59212500Y-31315000D01*
X62796000Y-33349200D02*
X62221900Y-33349200D01*
X56191000Y-32876500D02*
X57651000Y-32876500D01*
X50612500Y-32334800D02*
X50612500Y-31315000D01*
X55093400Y-21383400D02*
X56135000Y-22425000D01*
X62221900Y-33349200D02*
X61957200Y-33084500D01*
X63148500Y-34200100D02*
X63148500Y-33701700D01*
X50670000Y-22595000D02*
X51881600Y-21383400D01*
X50612500Y-32334800D02*
X53865900Y-32334800D01*
X57172400Y-23462400D02*
X56135000Y-22425000D01*
X54912500Y-34155000D02*
X56191000Y-32876500D01*
X68473300Y-40875000D02*
X62473500Y-34875100D01*
X60670000Y-32772500D02*
X59212500Y-31315000D01*
X69650000Y-40875000D02*
X68473300Y-40875000D01*
X53892700Y-32334800D02*
X54912500Y-31315000D01*
X62473500Y-34875100D02*
X63148500Y-34200100D01*
X62473500Y-34875100D02*
X62319900Y-34875100D01*
X61389200Y-33084500D02*
X61077200Y-32772500D01*
X63148500Y-33701700D02*
X62796000Y-33349200D01*
X51881600Y-21383400D02*
X55093400Y-21383400D01*
X61077200Y-32772500D02*
X60670000Y-32772500D01*
X62319900Y-34875100D02*
X60946800Y-36248200D01*
X61912500Y-51045000D02*
X59961600Y-51045000D01*
X50612500Y-32334800D02*
X50612500Y-34155000D01*
X61957200Y-33084500D02*
X61389200Y-33084500D01*
X53865900Y-32334800D02*
X53892700Y-32334800D01*
%TO.N,SPI_CS*%
X56445000Y-18248300D02*
X49224300Y-18248300D01*
X49224300Y-18248300D02*
X49019500Y-18043500D01*
X56445000Y-19300000D02*
X56445000Y-18248300D01*
%TO.N,SPI_MISO*%
X48474000Y-6959300D02*
X52526000Y-6959300D01*
X44737500Y-10695800D02*
X48474000Y-6959300D01*
X54724500Y-9160000D02*
X60750000Y-9160000D01*
X52526000Y-6959300D02*
X52924600Y-7357900D01*
X52924600Y-7360100D02*
X54724500Y-9160000D01*
X44522800Y-10695800D02*
X44737500Y-10695800D01*
X52924600Y-7357900D02*
X52924600Y-7360100D01*
%TO.N,SPI_MOSI*%
X46394700Y-7310400D02*
X44553800Y-7310400D01*
X57725900Y-7890000D02*
X56393500Y-6557600D01*
X53389200Y-5754200D02*
X47950900Y-5754200D01*
X54191100Y-6556100D02*
X53389200Y-5754200D01*
X47950900Y-5754200D02*
X46394700Y-7310400D01*
X60750000Y-7890000D02*
X57725900Y-7890000D01*
X54557000Y-6557600D02*
X54555500Y-6556100D01*
X56393500Y-6557600D02*
X54557000Y-6557600D01*
X54555500Y-6556100D02*
X54191100Y-6556100D01*
%TO.N,SPI_SCK*%
X56747700Y-13380600D02*
X44533400Y-13380600D01*
X59698300Y-10430000D02*
X56747700Y-13380600D01*
X60750000Y-10430000D02*
X59698300Y-10430000D01*
%TO.N,SW_3V3*%
X44787600Y-54308000D02*
X44787500Y-54308000D01*
X42950000Y-53400000D02*
X44787500Y-53400000D01*
X44787500Y-54308000D02*
X44787500Y-53400000D01*
X45184000Y-55773500D02*
X45184000Y-54704400D01*
X45184000Y-54704400D02*
X44787600Y-54308000D01*
D64*
X45062500Y-55895000D02*
X50000000Y-57800000D01*
D62*
X45062500Y-55895000D02*
X45184000Y-55773500D01*
%TO.N,SW_5V*%
X44787500Y-39820000D02*
X45062500Y-40095000D01*
X42950000Y-37600000D02*
X44787500Y-37600000D01*
D64*
X45062500Y-40095000D02*
X50000000Y-42000000D01*
D62*
X44787500Y-37600000D02*
X44787500Y-39820000D01*
%TO.N,TERM_A*%
X11845000Y-39375000D02*
X11845000Y-40532500D01*
X11845000Y-40532500D02*
X10312500Y-42065000D01*
%TO.N,UART_RX*%
X58058000Y-6650600D02*
X59667700Y-6650600D01*
X59698300Y-6620000D02*
X60750000Y-6620000D01*
X59667700Y-6650600D02*
X59698300Y-6620000D01*
X53919900Y-5352500D02*
X54723300Y-6155900D01*
X45254900Y-6615300D02*
X46517700Y-5352500D01*
X54723300Y-6155900D02*
X57563300Y-6155900D01*
X46517700Y-5352500D02*
X53919900Y-5352500D01*
X57563300Y-6155900D02*
X58058000Y-6650600D01*
%TO.N,UART_TX*%
X58999400Y-6048900D02*
X58307100Y-6048900D01*
X60750000Y-5350000D02*
X59698300Y-5350000D01*
X59698300Y-5350000D02*
X58999400Y-6048900D01*
%TO.N,USB_CC1*%
X80045000Y-6750000D02*
X73473600Y-6750000D01*
X73473600Y-6750000D02*
X73339800Y-6616200D01*
X62812500Y-21875000D02*
X63723900Y-20963600D01*
X73339800Y-6616200D02*
X71095200Y-6616200D01*
X71095200Y-6616200D02*
X64583100Y-13128300D01*
%TO.N,USB_CC2*%
X66662500Y-21875000D02*
X67680800Y-20856700D01*
X67680800Y-20856700D02*
X71585700Y-20856700D01*
X71585700Y-20856700D02*
X77189300Y-15253100D01*
X77189300Y-15253100D02*
X77189300Y-11020100D01*
X78459400Y-9750000D02*
X80045000Y-9750000D01*
X77189300Y-11020100D02*
X78459400Y-9750000D01*
%TO.N,USB_DM*%
X65646400Y-16895000D02*
X66246800Y-16294600D01*
X46096400Y-16780000D02*
X43250000Y-16780000D01*
X58190200Y-15464700D02*
X57850200Y-15804700D01*
X57850200Y-15804700D02*
X47071700Y-15804700D01*
X47071700Y-15804700D02*
X46096400Y-16780000D01*
X65232500Y-16895000D02*
X65646400Y-16895000D01*
X66246800Y-16294600D02*
X66246800Y-14400000D01*
%TO.N,USB_DM_CON*%
X81071700Y-7250000D02*
X80045000Y-7250000D01*
X80045000Y-8250000D02*
X81071700Y-8250000D01*
X81071700Y-8250000D02*
X81071700Y-7250000D01*
%TO.N,USB_DP*%
X65232500Y-14995000D02*
X64653300Y-14995000D01*
X49203500Y-16267700D02*
X47421200Y-18050000D01*
X64653300Y-14995000D02*
X64139100Y-14480800D01*
X47421200Y-18050000D02*
X43250000Y-18050000D01*
X58101100Y-16404800D02*
X57964000Y-16267700D01*
X57964000Y-16267700D02*
X49203500Y-16267700D01*
%TO.N,USB_DP_CON*%
X79018300Y-7750000D02*
X80045000Y-7750000D01*
X79018300Y-8750000D02*
X80045000Y-8750000D01*
X63976000Y-13730100D02*
X65111800Y-13730100D01*
X79018300Y-8750000D02*
X79018300Y-7750000D01*
X62957500Y-14995000D02*
X62957500Y-14748600D01*
X62957500Y-14748600D02*
X63976000Y-13730100D01*
X70091900Y-8750000D02*
X79018300Y-8750000D01*
X65111800Y-13730100D02*
X70091900Y-8750000D01*
%TO.N,VBAT_F*%
X24368700Y-64783800D02*
X25697500Y-63455000D01*
X18861300Y-64783800D02*
X24368700Y-64783800D01*
X17602500Y-63525000D02*
X18861300Y-64783800D01*
%TO.N,VBAT_FB*%
X11208300Y-68650700D02*
X10012500Y-67454900D01*
X29363800Y-63319300D02*
X24032400Y-68650700D01*
X10012500Y-67165000D02*
X7901200Y-65053700D01*
X24032400Y-68650700D02*
X11208300Y-68650700D01*
X29378100Y-63305000D02*
X29363800Y-63319300D01*
X9153600Y-62422700D02*
X11780200Y-62422700D01*
X20752500Y-63525000D02*
X20831700Y-63445800D01*
X11780200Y-62422700D02*
X12432500Y-63075000D01*
X28316100Y-62271700D02*
X20831700Y-62271700D01*
X16895000Y-58335000D02*
X10595000Y-58335000D01*
X10012500Y-67454900D02*
X10012500Y-67165000D01*
X29717500Y-63305000D02*
X29378100Y-63305000D01*
X20831700Y-62271700D02*
X16895000Y-58335000D01*
X7901200Y-63675100D02*
X9153600Y-62422700D01*
X20831700Y-63445800D02*
X20831700Y-62271700D01*
X29363800Y-63319300D02*
X28316100Y-62271700D01*
X7901200Y-65053700D02*
X7901200Y-63675100D01*
%TO.N,VBAT_IN*%
X22897500Y-63455000D02*
X24052800Y-63455000D01*
%TO.N,VBAT_SNS*%
X31186900Y-32484300D02*
X30646800Y-31944200D01*
X43516500Y-8156500D02*
X44856400Y-8156500D01*
X37187500Y-31235000D02*
X35938200Y-32484300D01*
X30646800Y-29663200D02*
X31495000Y-28815000D01*
X31512500Y-32484300D02*
X31512500Y-33625000D01*
X35938200Y-32484300D02*
X31512500Y-32484300D01*
X34223700Y-26256200D02*
X33612500Y-25645000D01*
X40601300Y-26256200D02*
X34223700Y-26256200D01*
X37246600Y-31175900D02*
X37187500Y-31235000D01*
X30646800Y-31944200D02*
X30646800Y-29663200D01*
X31512500Y-32484300D02*
X31186900Y-32484300D01*
X43250000Y-7890000D02*
X43516500Y-8156500D01*
X38442000Y-31175900D02*
X37246600Y-31175900D01*
%TO.N,VBAT_UVLO*%
X11837500Y-67165000D02*
X13862500Y-67165000D01*
X11160000Y-65977500D02*
X11837500Y-66655000D01*
X10893300Y-65710800D02*
X10893300Y-65712900D01*
X10893300Y-65712900D02*
X11157900Y-65977500D01*
X11837500Y-66655000D02*
X11837500Y-67165000D01*
X10157500Y-64975000D02*
X10893300Y-65710800D01*
X11157900Y-65977500D02*
X11160000Y-65977500D01*
%TO.N,VBUS*%
X64865300Y-15945000D02*
X64238400Y-16571900D01*
X70635000Y-17906300D02*
X64238400Y-17906300D01*
X64238400Y-17906300D02*
X62870000Y-19274700D01*
X70635000Y-19022500D02*
X70635000Y-17906300D01*
X62870000Y-19274700D02*
X62870000Y-19285000D01*
X64238400Y-16571900D02*
X64238400Y-17906300D01*
X70877500Y-19265000D02*
X70635000Y-19022500D01*
X65232500Y-15945000D02*
X64865300Y-15945000D01*
X70635000Y-17906300D02*
X70635000Y-15395000D01*
%TO.N,VBUS_IN*%
X80243300Y-13128000D02*
X78133000Y-13128000D01*
X81226900Y-10294800D02*
X81914300Y-10982200D01*
X80045000Y-10450000D02*
X81071700Y-10450000D01*
X72156100Y-19718300D02*
X72156100Y-18984600D01*
X77724800Y-11693600D02*
X77791000Y-11627400D01*
X80045000Y-5550000D02*
X81071700Y-5550000D01*
X69142500Y-20455000D02*
X71419400Y-20455000D01*
X77724800Y-12719800D02*
X77724800Y-11693600D01*
X81914300Y-11457000D02*
X80243300Y-13128000D01*
X67952500Y-19265000D02*
X69142500Y-20455000D01*
X81071700Y-10450000D02*
X81226900Y-10294800D01*
X81071700Y-5550000D02*
X81485600Y-5963900D01*
X71419400Y-20455000D02*
X72156100Y-19718300D01*
X81485600Y-10036100D02*
X81226900Y-10294800D01*
X72156100Y-18984600D02*
X73717900Y-17422800D01*
X81914300Y-10982200D02*
X81914300Y-11457000D01*
X81485600Y-5963900D02*
X81485600Y-10036100D01*
X78133000Y-13128000D02*
X77724800Y-12719800D01*
%TO.N,VCAP*%
X27817500Y-63305000D02*
X22910300Y-68212200D01*
X9084800Y-63075000D02*
X10157500Y-63075000D01*
X10263700Y-65901600D02*
X9701700Y-65901600D01*
X8348200Y-63811600D02*
X9084800Y-63075000D01*
X8348200Y-64548100D02*
X8348200Y-63811600D01*
X11362100Y-68212200D02*
X10925000Y-67775100D01*
X9701700Y-65901600D02*
X8348200Y-64548100D01*
X22910300Y-68212200D02*
X11362100Y-68212200D01*
X10925000Y-66562900D02*
X10263700Y-65901600D01*
X10925000Y-67775100D02*
X10925000Y-66562900D01*
%TO.N,VSENS_F*%
X68157500Y-67385000D02*
X67877500Y-67665000D01*
X69872500Y-67385000D02*
X68157500Y-67385000D01*
%TD*%
M02*
