%TF.GenerationSoftware,KiCad,Pcbnew,9.0.5*%
%TF.CreationDate,2026-08-11T06:14:37-04:00*%
%TF.ProjectId,esp32s3-can-sd-logger,65737033-3273-4332-9d63-616e2d73642d,rev?*%
%TF.SameCoordinates,Original*%
%TF.FileFunction,Copper,L1,Top*%
%TF.FilePolarity,Positive*%
%FSLAX46Y46*%
G04 Gerber Fmt 4.6, Leading zero omitted, Abs format (unit mm)*
G04 Created by KiCad (PCBNEW 9.0.5) date 2026-08-11 06:14:37*
%MOMM*%
%LPD*%
G01*
G04 APERTURE LIST*
G04 Aperture macros list*
%AMRoundRect*
0 Rectangle with rounded corners*
0 $1 Rounding radius*
0 $2 $3 $4 $5 $6 $7 $8 $9 X,Y pos of 4 corners*
0 Add a 4 corners polygon primitive as box body*
4,1,4,$2,$3,$4,$5,$6,$7,$8,$9,$2,$3,0*
0 Add four circle primitives for the rounded corners*
1,1,$1+$1,$2,$3*
1,1,$1+$1,$4,$5*
1,1,$1+$1,$6,$7*
1,1,$1+$1,$8,$9*
0 Add four rect primitives between the rounded corners*
20,1,$1+$1,$2,$3,$4,$5,0*
20,1,$1+$1,$4,$5,$6,$7,0*
20,1,$1+$1,$6,$7,$8,$9,0*
20,1,$1+$1,$8,$9,$2,$3,0*%
G04 Aperture macros list end*
%TA.AperFunction,EtchedComponent*%
%ADD10C,0.000000*%
%TD*%
%TA.AperFunction,SMDPad,CuDef*%
%ADD11RoundRect,0.250000X-0.250000X-0.475000X0.250000X-0.475000X0.250000X0.475000X-0.250000X0.475000X0*%
%TD*%
%TA.AperFunction,SMDPad,CuDef*%
%ADD12R,1.350000X0.900000*%
%TD*%
%TA.AperFunction,SMDPad,CuDef*%
%ADD13RoundRect,0.250000X-0.262500X-0.450000X0.262500X-0.450000X0.262500X0.450000X-0.262500X0.450000X0*%
%TD*%
%TA.AperFunction,SMDPad,CuDef*%
%ADD14RoundRect,0.250000X-0.325000X-0.650000X0.325000X-0.650000X0.325000X0.650000X-0.325000X0.650000X0*%
%TD*%
%TA.AperFunction,SMDPad,CuDef*%
%ADD15R,1.750000X0.700000*%
%TD*%
%TA.AperFunction,SMDPad,CuDef*%
%ADD16R,1.000000X1.450000*%
%TD*%
%TA.AperFunction,SMDPad,CuDef*%
%ADD17R,1.550000X1.000000*%
%TD*%
%TA.AperFunction,SMDPad,CuDef*%
%ADD18R,1.500000X0.800000*%
%TD*%
%TA.AperFunction,SMDPad,CuDef*%
%ADD19R,1.500000X1.300000*%
%TD*%
%TA.AperFunction,SMDPad,CuDef*%
%ADD20R,1.500000X1.500000*%
%TD*%
%TA.AperFunction,SMDPad,CuDef*%
%ADD21R,1.400000X0.800000*%
%TD*%
%TA.AperFunction,SMDPad,CuDef*%
%ADD22RoundRect,0.250000X-0.275000X-0.700000X0.275000X-0.700000X0.275000X0.700000X-0.275000X0.700000X0*%
%TD*%
%TA.AperFunction,SMDPad,CuDef*%
%ADD23RoundRect,0.150000X-0.587500X-0.150000X0.587500X-0.150000X0.587500X0.150000X-0.587500X0.150000X0*%
%TD*%
%TA.AperFunction,SMDPad,CuDef*%
%ADD24C,1.500000*%
%TD*%
%TA.AperFunction,SMDPad,CuDef*%
%ADD25RoundRect,0.250000X-0.375000X-0.625000X0.375000X-0.625000X0.375000X0.625000X-0.375000X0.625000X0*%
%TD*%
%TA.AperFunction,SMDPad,CuDef*%
%ADD26RoundRect,0.250000X-0.850000X-0.350000X0.850000X-0.350000X0.850000X0.350000X-0.850000X0.350000X0*%
%TD*%
%TA.AperFunction,SMDPad,CuDef*%
%ADD27RoundRect,0.249997X-2.950003X-2.650003X2.950003X-2.650003X2.950003X2.650003X-2.950003X2.650003X0*%
%TD*%
%TA.AperFunction,ComponentPad*%
%ADD28R,1.700000X1.700000*%
%TD*%
%TA.AperFunction,ComponentPad*%
%ADD29C,1.700000*%
%TD*%
%TA.AperFunction,SMDPad,CuDef*%
%ADD30R,1.000000X1.500000*%
%TD*%
%TA.AperFunction,SMDPad,CuDef*%
%ADD31RoundRect,0.250000X-1.000000X-0.650000X1.000000X-0.650000X1.000000X0.650000X-1.000000X0.650000X0*%
%TD*%
%TA.AperFunction,SMDPad,CuDef*%
%ADD32RoundRect,0.250000X0.250000X0.475000X-0.250000X0.475000X-0.250000X-0.475000X0.250000X-0.475000X0*%
%TD*%
%TA.AperFunction,SMDPad,CuDef*%
%ADD33R,1.450000X0.600000*%
%TD*%
%TA.AperFunction,SMDPad,CuDef*%
%ADD34R,1.450000X0.300000*%
%TD*%
%TA.AperFunction,HeatsinkPad*%
%ADD35O,2.100000X1.000000*%
%TD*%
%TA.AperFunction,HeatsinkPad*%
%ADD36O,1.600000X1.000000*%
%TD*%
%TA.AperFunction,SMDPad,CuDef*%
%ADD37RoundRect,0.250000X-0.312500X-0.625000X0.312500X-0.625000X0.312500X0.625000X-0.312500X0.625000X0*%
%TD*%
%TA.AperFunction,SMDPad,CuDef*%
%ADD38RoundRect,0.225000X-0.225000X-0.375000X0.225000X-0.375000X0.225000X0.375000X-0.225000X0.375000X0*%
%TD*%
%TA.AperFunction,SMDPad,CuDef*%
%ADD39RoundRect,0.243750X-0.243750X-0.456250X0.243750X-0.456250X0.243750X0.456250X-0.243750X0.456250X0*%
%TD*%
%TA.AperFunction,SMDPad,CuDef*%
%ADD40RoundRect,0.249999X-0.850001X-3.500001X0.850001X-3.500001X0.850001X3.500001X-0.850001X3.500001X0*%
%TD*%
%TA.AperFunction,SMDPad,CuDef*%
%ADD41RoundRect,0.150000X-0.737500X-0.150000X0.737500X-0.150000X0.737500X0.150000X-0.737500X0.150000X0*%
%TD*%
%TA.AperFunction,HeatsinkPad*%
%ADD42C,0.500000*%
%TD*%
%TA.AperFunction,HeatsinkPad*%
%ADD43R,2.950000X4.900000*%
%TD*%
%TA.AperFunction,SMDPad,CuDef*%
%ADD44R,1.500000X0.900000*%
%TD*%
%TA.AperFunction,SMDPad,CuDef*%
%ADD45R,0.900000X1.500000*%
%TD*%
%TA.AperFunction,HeatsinkPad*%
%ADD46C,0.600000*%
%TD*%
%TA.AperFunction,HeatsinkPad*%
%ADD47R,3.900000X3.900000*%
%TD*%
%TA.AperFunction,SMDPad,CuDef*%
%ADD48RoundRect,0.150000X-0.825000X-0.150000X0.825000X-0.150000X0.825000X0.150000X-0.825000X0.150000X0*%
%TD*%
%TA.AperFunction,SMDPad,CuDef*%
%ADD49RoundRect,0.150000X-0.512500X-0.150000X0.512500X-0.150000X0.512500X0.150000X-0.512500X0.150000X0*%
%TD*%
%TA.AperFunction,ComponentPad*%
%ADD50RoundRect,0.250000X-0.625000X0.350000X-0.625000X-0.350000X0.625000X-0.350000X0.625000X0.350000X0*%
%TD*%
%TA.AperFunction,ComponentPad*%
%ADD51O,1.750000X1.200000*%
%TD*%
%TA.AperFunction,SMDPad,CuDef*%
%ADD52RoundRect,0.075000X-0.650000X-0.075000X0.650000X-0.075000X0.650000X0.075000X-0.650000X0.075000X0*%
%TD*%
%TA.AperFunction,SMDPad,CuDef*%
%ADD53RoundRect,0.250000X1.000000X-1.400000X1.000000X1.400000X-1.000000X1.400000X-1.000000X-1.400000X0*%
%TD*%
%TA.AperFunction,SMDPad,CuDef*%
%ADD54RoundRect,0.218750X-0.218750X-0.381250X0.218750X-0.381250X0.218750X0.381250X-0.218750X0.381250X0*%
%TD*%
%TA.AperFunction,SMDPad,CuDef*%
%ADD55RoundRect,0.250000X-1.950000X-1.000000X1.950000X-1.000000X1.950000X1.000000X-1.950000X1.000000X0*%
%TD*%
%TA.AperFunction,SMDPad,CuDef*%
%ADD56R,1.700000X1.000000*%
%TD*%
%TA.AperFunction,SMDPad,CuDef*%
%ADD57RoundRect,0.112500X-0.187500X-0.112500X0.187500X-0.112500X0.187500X0.112500X-0.187500X0.112500X0*%
%TD*%
%TA.AperFunction,SMDPad,CuDef*%
%ADD58RoundRect,0.250000X0.325000X0.650000X-0.325000X0.650000X-0.325000X-0.650000X0.325000X-0.650000X0*%
%TD*%
%TA.AperFunction,ViaPad*%
%ADD59C,0.600000*%
%TD*%
%TA.AperFunction,ViaPad*%
%ADD60C,0.800000*%
%TD*%
%TA.AperFunction,ViaPad*%
%ADD61C,0.500000*%
%TD*%
%TA.AperFunction,Conductor*%
%ADD62C,0.300000*%
%TD*%
%TA.AperFunction,Conductor*%
%ADD63C,0.500000*%
%TD*%
%TA.AperFunction,Conductor*%
%ADD64C,0.450000*%
%TD*%
%TA.AperFunction,Conductor*%
%ADD65C,0.250000*%
%TD*%
%TA.AperFunction,Conductor*%
%ADD66C,0.200000*%
%TD*%
G04 APERTURE END LIST*
D10*
%TA.AperFunction,EtchedComponent*%
%TO.C,JP1*%
G36*
X11445000Y-39675000D02*
G01*
X10945000Y-39675000D01*
X10945000Y-39075000D01*
X11445000Y-39075000D01*
X11445000Y-39675000D01*
G37*
%TD.AperFunction*%
%TD*%
D11*
%TO.P,C36,1*%
%TO.N,AIN4*%
X35395000Y-21885000D03*
%TO.P,C36,2*%
%TO.N,GND*%
X37295000Y-21885000D03*
%TD*%
D12*
%TO.P,L3,1*%
%TO.N,CANH_T*%
X18360000Y-28945000D03*
%TO.P,L3,2*%
%TO.N,CAN_H*%
X22910000Y-28945000D03*
%TO.P,L3,3*%
%TO.N,CANL_T*%
X18360000Y-31445000D03*
%TO.P,L3,4*%
%TO.N,CAN_L*%
X22910000Y-31445000D03*
%TD*%
D13*
%TO.P,R16,1*%
%TO.N,+3V3*%
X71592500Y-29385000D03*
%TO.P,R16,2*%
%TO.N,MCU_EN*%
X73417500Y-29385000D03*
%TD*%
D14*
%TO.P,C22,1*%
%TO.N,+3V3*%
X63870000Y-26795000D03*
%TO.P,C22,2*%
%TO.N,GND*%
X66820000Y-26795000D03*
%TD*%
D13*
%TO.P,R55,1*%
%TO.N,AIN2_R2*%
X22662500Y-26695000D03*
%TO.P,R55,2*%
%TO.N,GND*%
X24487500Y-26695000D03*
%TD*%
%TO.P,R38,1*%
%TO.N,SD_VDD*%
X54912500Y-31315000D03*
%TO.P,R38,2*%
%TO.N,SD_D0_C*%
X56737500Y-31315000D03*
%TD*%
D15*
%TO.P,J9,1*%
%TO.N,SD_D2_C*%
X69650000Y-44175000D03*
%TO.P,J9,2*%
%TO.N,SD_D3_C*%
X69650000Y-43075000D03*
%TO.P,J9,3*%
%TO.N,SD_CMD_C*%
X69650000Y-41975000D03*
%TO.P,J9,4*%
%TO.N,SD_VDD*%
X69650000Y-40875000D03*
%TO.P,J9,5*%
%TO.N,SD_CLK_C*%
X69650000Y-39775000D03*
%TO.P,J9,6*%
%TO.N,GND*%
X69650000Y-38675000D03*
%TO.P,J9,7*%
%TO.N,SD_D0_C*%
X69650000Y-37575000D03*
%TO.P,J9,8*%
%TO.N,SD_D1_C*%
X69650000Y-36475000D03*
D16*
%TO.P,J9,9*%
%TO.N,SD_CD*%
X78875000Y-35350000D03*
D17*
%TO.P,J9,10*%
%TO.N,GND*%
X80450000Y-46575000D03*
D18*
%TO.P,J9,11*%
%TO.N,N/C*%
X77375000Y-35025000D03*
D19*
X69775000Y-35275000D03*
D20*
X69775000Y-46625000D03*
D21*
X78025000Y-46975000D03*
%TD*%
D22*
%TO.P,FB1,1*%
%TO.N,VBAT_F*%
X17602500Y-63525000D03*
%TO.P,FB1,2*%
%TO.N,VBAT_FB*%
X20752500Y-63525000D03*
%TD*%
D11*
%TO.P,C23,1*%
%TO.N,+3V3*%
X72775000Y-26625000D03*
%TO.P,C23,2*%
%TO.N,GND*%
X74675000Y-26625000D03*
%TD*%
D23*
%TO.P,Q2,1*%
%TO.N,SD_PG*%
X60037500Y-50095000D03*
%TO.P,Q2,2*%
%TO.N,+3V3*%
X60037500Y-51995000D03*
%TO.P,Q2,3*%
%TO.N,SD_VDD*%
X61912500Y-51045000D03*
%TD*%
%TO.P,D16,1*%
%TO.N,GND*%
X32037500Y-70595000D03*
%TO.P,D16,2*%
%TO.N,+3V3*%
X32037500Y-72495000D03*
%TO.P,D16,3*%
%TO.N,VBAT_SNS*%
X33912500Y-71545000D03*
%TD*%
D13*
%TO.P,R26,1*%
%TO.N,IO45*%
X43412500Y-24185000D03*
%TO.P,R26,2*%
%TO.N,GND*%
X45237500Y-24185000D03*
%TD*%
D23*
%TO.P,Q3,1*%
%TO.N,SD_EN_G*%
X64387500Y-50095000D03*
%TO.P,Q3,2*%
%TO.N,GND*%
X64387500Y-51995000D03*
%TO.P,Q3,3*%
%TO.N,SD_PG*%
X66262500Y-51045000D03*
%TD*%
D13*
%TO.P,R13,1*%
%TO.N,SW_3V3*%
X44787500Y-53400000D03*
%TO.P,R13,2*%
%TO.N,RAMP_3V3*%
X46612500Y-53400000D03*
%TD*%
%TO.P,R34,1*%
%TO.N,SD_D1*%
X50612500Y-28475000D03*
%TO.P,R34,2*%
%TO.N,SD_D1_C*%
X52437500Y-28475000D03*
%TD*%
D24*
%TO.P,TP3,1*%
%TO.N,+VBAT*%
X15087500Y-63576200D03*
%TD*%
D23*
%TO.P,D11,1*%
%TO.N,GND*%
X19037500Y-11785000D03*
%TO.P,D11,2*%
%TO.N,+3V3*%
X19037500Y-13685000D03*
%TO.P,D11,3*%
%TO.N,AIN2*%
X20912500Y-12735000D03*
%TD*%
D25*
%TO.P,F1,1*%
%TO.N,VBAT_IN*%
X22897500Y-63455000D03*
%TO.P,F1,2*%
%TO.N,VBAT_F*%
X25697500Y-63455000D03*
%TD*%
D13*
%TO.P,R3,1*%
%TO.N,+VBAT*%
X37387500Y-37600000D03*
%TO.P,R3,2*%
%TO.N,EN_5V*%
X39212500Y-37600000D03*
%TD*%
D26*
%TO.P,Q1,1*%
%TO.N,GATE_RB*%
X10595000Y-56055000D03*
%TO.P,Q1,2*%
%TO.N,VBAT_FB*%
X10595000Y-58335000D03*
D27*
X16895000Y-58335000D03*
D26*
%TO.P,Q1,3*%
%TO.N,+VBAT*%
X10595000Y-60615000D03*
%TD*%
D24*
%TO.P,TP7,1*%
%TO.N,GND*%
X42632500Y-71096200D03*
%TD*%
D28*
%TO.P,J8,1*%
%TO.N,+5V*%
X56000000Y-81500000D03*
D29*
%TO.P,J8,2*%
%TO.N,+3V3*%
X58540000Y-81500000D03*
%TO.P,J8,3*%
%TO.N,GND*%
X61080000Y-81500000D03*
%TO.P,J8,4*%
X63620000Y-81500000D03*
%TD*%
D13*
%TO.P,R59,1*%
%TO.N,AIN3_R1*%
X27312500Y-26695000D03*
%TO.P,R59,2*%
%TO.N,GND*%
X29137500Y-26695000D03*
%TD*%
D11*
%TO.P,C15,1*%
%TO.N,RAMP_3V3*%
X50050000Y-66600000D03*
%TO.P,C15,2*%
%TO.N,+3V3*%
X51950000Y-66600000D03*
%TD*%
D13*
%TO.P,R64,1*%
%TO.N,AIN4_R1*%
X35412500Y-26695000D03*
%TO.P,R64,2*%
%TO.N,GND*%
X37237500Y-26695000D03*
%TD*%
%TO.P,R54,1*%
%TO.N,AIN2_R1*%
X18812500Y-26695000D03*
%TO.P,R54,2*%
%TO.N,GND*%
X20637500Y-26695000D03*
%TD*%
%TO.P,R44,1*%
%TO.N,TERM_A*%
X10312500Y-42065000D03*
%TO.P,R44,2*%
%TO.N,CAN_SPLIT*%
X12137500Y-42065000D03*
%TD*%
D14*
%TO.P,C20,1*%
%TO.N,+5VS*%
X20852500Y-70995000D03*
%TO.P,C20,2*%
%TO.N,GND*%
X23802500Y-70995000D03*
%TD*%
D30*
%TO.P,JP8,1*%
%TO.N,+5VS*%
X27545000Y-19165000D03*
%TO.P,JP8,2*%
%TO.N,AIN3_PU*%
X28845000Y-19165000D03*
%TD*%
D11*
%TO.P,C16,1*%
%TO.N,RAMP_3V3*%
X39550000Y-66800000D03*
%TO.P,C16,2*%
%TO.N,FB_3V3*%
X41450000Y-66800000D03*
%TD*%
D13*
%TO.P,R33,1*%
%TO.N,SD_D0*%
X59212500Y-25635000D03*
%TO.P,R33,2*%
%TO.N,SD_D0_C*%
X61037500Y-25635000D03*
%TD*%
%TO.P,R28,1*%
%TO.N,+3V3*%
X59812500Y-54185000D03*
%TO.P,R28,2*%
%TO.N,SD_PG*%
X61637500Y-54185000D03*
%TD*%
%TO.P,R48,1*%
%TO.N,AIN1_A*%
X14162500Y-24305000D03*
%TO.P,R48,2*%
%TO.N,AIN1*%
X15987500Y-24305000D03*
%TD*%
D11*
%TO.P,C29,1*%
%TO.N,SD_VDD*%
X56135000Y-22425000D03*
%TO.P,C29,2*%
%TO.N,GND*%
X58035000Y-22425000D03*
%TD*%
D31*
%TO.P,D10,1*%
%TO.N,AIN2_IN*%
X19545000Y-8795000D03*
%TO.P,D10,2*%
%TO.N,GND*%
X23545000Y-8795000D03*
%TD*%
D23*
%TO.P,D13,1*%
%TO.N,GND*%
X27537500Y-11785000D03*
%TO.P,D13,2*%
%TO.N,+3V3*%
X27537500Y-13685000D03*
%TO.P,D13,3*%
%TO.N,AIN3*%
X29412500Y-12735000D03*
%TD*%
D13*
%TO.P,R56,1*%
%TO.N,AIN3_IN*%
X31202500Y-21855000D03*
%TO.P,R56,2*%
%TO.N,AIN3_A*%
X33027500Y-21855000D03*
%TD*%
%TO.P,R63,1*%
%TO.N,AIN4_A*%
X39262500Y-24305000D03*
%TO.P,R63,2*%
%TO.N,AIN4*%
X41087500Y-24305000D03*
%TD*%
D14*
%TO.P,C11,1*%
%TO.N,+5V*%
X55025000Y-47800000D03*
%TO.P,C11,2*%
%TO.N,GND*%
X57975000Y-47800000D03*
%TD*%
D13*
%TO.P,R6,1*%
%TO.N,FB_5V*%
X41587500Y-48200000D03*
%TO.P,R6,2*%
%TO.N,GND*%
X43412500Y-48200000D03*
%TD*%
D30*
%TO.P,JP9,1*%
%TO.N,AIN3_A*%
X31335000Y-19165000D03*
%TO.P,JP9,2*%
%TO.N,AIN3*%
X32635000Y-19165000D03*
%TD*%
D32*
%TO.P,C5,1*%
%TO.N,+VBAT*%
X37250000Y-42200000D03*
%TO.P,C5,2*%
%TO.N,GND*%
X35350000Y-42200000D03*
%TD*%
D13*
%TO.P,R12,1*%
%TO.N,FB_3V3*%
X41587500Y-64000000D03*
%TO.P,R12,2*%
%TO.N,GND*%
X43412500Y-64000000D03*
%TD*%
D28*
%TO.P,J7,1*%
%TO.N,IO3*%
X10000000Y-3000000D03*
D29*
%TO.P,J7,2*%
%TO.N,IO45*%
X12540000Y-3000000D03*
%TO.P,J7,3*%
%TO.N,IO46*%
X15080000Y-3000000D03*
%TO.P,J7,4*%
%TO.N,IO15*%
X17620000Y-3000000D03*
%TO.P,J7,5*%
%TO.N,IO16*%
X20160000Y-3000000D03*
%TO.P,J7,6*%
%TO.N,GND*%
X22700000Y-3000000D03*
%TD*%
D33*
%TO.P,J2,A1*%
%TO.N,GND*%
X80045000Y-4750000D03*
%TO.P,J2,A4*%
%TO.N,VBUS_IN*%
X80045000Y-5550000D03*
D34*
%TO.P,J2,A5*%
%TO.N,USB_CC1*%
X80045000Y-6750000D03*
%TO.P,J2,A6*%
%TO.N,USB_DP_CON*%
X80045000Y-7750000D03*
%TO.P,J2,A7*%
%TO.N,USB_DM_CON*%
X80045000Y-8250000D03*
%TO.P,J2,A8*%
%TO.N,N/C*%
X80045000Y-9250000D03*
D33*
%TO.P,J2,A9*%
%TO.N,VBUS_IN*%
X80045000Y-10450000D03*
%TO.P,J2,A12*%
%TO.N,GND*%
X80045000Y-11250000D03*
%TO.P,J2,B1*%
X80045000Y-11250000D03*
%TO.P,J2,B4*%
%TO.N,VBUS_IN*%
X80045000Y-10450000D03*
D34*
%TO.P,J2,B5*%
%TO.N,USB_CC2*%
X80045000Y-9750000D03*
%TO.P,J2,B6*%
%TO.N,USB_DP_CON*%
X80045000Y-8750000D03*
%TO.P,J2,B7*%
%TO.N,USB_DM_CON*%
X80045000Y-7250000D03*
%TO.P,J2,B8*%
%TO.N,N/C*%
X80045000Y-6250000D03*
D33*
%TO.P,J2,B9*%
%TO.N,VBUS_IN*%
X80045000Y-5550000D03*
%TO.P,J2,B12*%
%TO.N,GND*%
X80045000Y-4750000D03*
D35*
%TO.P,J2,S1*%
X79130000Y-3680000D03*
D36*
X74950000Y-3680000D03*
D35*
X79130000Y-12320000D03*
D36*
X74950000Y-12320000D03*
%TD*%
D13*
%TO.P,R9,1*%
%TO.N,+VBAT*%
X37387500Y-53400000D03*
%TO.P,R9,2*%
%TO.N,EN_3V3*%
X39212500Y-53400000D03*
%TD*%
D37*
%TO.P,PF3,1*%
%TO.N,+5V*%
X62952500Y-70975000D03*
%TO.P,PF3,2*%
%TO.N,LED_5V*%
X65877500Y-70975000D03*
%TD*%
D38*
%TO.P,D5,1*%
%TO.N,+5V*%
X67335000Y-15395000D03*
%TO.P,D5,2*%
%TO.N,VBUS*%
X70635000Y-15395000D03*
%TD*%
D13*
%TO.P,R60,1*%
%TO.N,AIN3_R2*%
X31162500Y-26695000D03*
%TO.P,R60,2*%
%TO.N,GND*%
X32987500Y-26695000D03*
%TD*%
%TO.P,R61,1*%
%TO.N,AIN4_IN*%
X39302500Y-21855000D03*
%TO.P,R61,2*%
%TO.N,AIN4_A*%
X41127500Y-21855000D03*
%TD*%
D39*
%TO.P,D4,1*%
%TO.N,PWR_LED_K*%
X35677500Y-74685000D03*
%TO.P,D4,2*%
%TO.N,+3V3*%
X37552500Y-74685000D03*
%TD*%
D40*
%TO.P,L2,1*%
%TO.N,SW_3V3*%
X50000000Y-57800000D03*
%TO.P,L2,2*%
%TO.N,+3V3*%
X56000000Y-57800000D03*
%TD*%
D24*
%TO.P,TP6,1*%
%TO.N,+5VS*%
X18287500Y-71096200D03*
%TD*%
D13*
%TO.P,R29,1*%
%TO.N,SD_PWR_EN*%
X63662500Y-54185000D03*
%TO.P,R29,2*%
%TO.N,SD_EN_G*%
X65487500Y-54185000D03*
%TD*%
%TO.P,R14,1*%
%TO.N,PG_3V3*%
X43587500Y-66800000D03*
%TO.P,R14,2*%
%TO.N,+3V3*%
X45412500Y-66800000D03*
%TD*%
D31*
%TO.P,D8,1*%
%TO.N,AIN1_IN*%
X11045000Y-8795000D03*
%TO.P,D8,2*%
%TO.N,GND*%
X15045000Y-8795000D03*
%TD*%
D13*
%TO.P,R35,1*%
%TO.N,SD_D2*%
X54912500Y-28475000D03*
%TO.P,R35,2*%
%TO.N,SD_D2_C*%
X56737500Y-28475000D03*
%TD*%
D11*
%TO.P,C38,1*%
%TO.N,VBAT_SNS*%
X31795000Y-74715000D03*
%TO.P,C38,2*%
%TO.N,GND*%
X33695000Y-74715000D03*
%TD*%
D13*
%TO.P,R2,1*%
%TO.N,VBAT_UVLO*%
X17752500Y-67165000D03*
%TO.P,R2,2*%
%TO.N,GND*%
X19577500Y-67165000D03*
%TD*%
%TO.P,R37,1*%
%TO.N,SD_VDD*%
X50612500Y-31315000D03*
%TO.P,R37,2*%
%TO.N,SD_CMD_C*%
X52437500Y-31315000D03*
%TD*%
D41*
%TO.P,U3,1*%
%TO.N,GND*%
X39937500Y-55895000D03*
%TO.P,U3,2*%
%TO.N,+VBAT*%
X39937500Y-57165000D03*
%TO.P,U3,3*%
%TO.N,EN_3V3*%
X39937500Y-58435000D03*
%TO.P,U3,4*%
%TO.N,RON_3V3*%
X39937500Y-59705000D03*
%TO.P,U3,5*%
%TO.N,FB_3V3*%
X45062500Y-59705000D03*
%TO.P,U3,6*%
%TO.N,PG_3V3*%
X45062500Y-58435000D03*
%TO.P,U3,7*%
%TO.N,BST_3V3*%
X45062500Y-57165000D03*
%TO.P,U3,8*%
%TO.N,SW_3V3*%
X45062500Y-55895000D03*
D42*
%TO.P,U3,9*%
%TO.N,GND*%
X41850000Y-55850000D03*
X41850000Y-57150000D03*
X41850000Y-58450000D03*
X41850000Y-59750000D03*
D43*
X42500000Y-57800000D03*
D42*
X43150000Y-55850000D03*
X43150000Y-57150000D03*
X43150000Y-58450000D03*
X43150000Y-59750000D03*
%TD*%
D11*
%TO.P,C34,1*%
%TO.N,AIN2*%
X18795000Y-21885000D03*
%TO.P,C34,2*%
%TO.N,GND*%
X20695000Y-21885000D03*
%TD*%
D13*
%TO.P,R45,1*%
%TO.N,CAN_SPLIT*%
X14162500Y-42065000D03*
%TO.P,R45,2*%
%TO.N,CAN_L*%
X15987500Y-42065000D03*
%TD*%
D14*
%TO.P,C10,1*%
%TO.N,+5V*%
X50025000Y-47800000D03*
%TO.P,C10,2*%
%TO.N,GND*%
X52975000Y-47800000D03*
%TD*%
D13*
%TO.P,R57,1*%
%TO.N,AIN3_PU*%
X27312500Y-24305000D03*
%TO.P,R57,2*%
%TO.N,AIN3_A*%
X29137500Y-24305000D03*
%TD*%
D24*
%TO.P,TP8,1*%
%TO.N,CAN_H*%
X25777500Y-35386200D03*
%TD*%
D13*
%TO.P,R62,1*%
%TO.N,AIN4_PU*%
X35412500Y-24305000D03*
%TO.P,R62,2*%
%TO.N,AIN4_A*%
X37237500Y-24305000D03*
%TD*%
%TO.P,R8,1*%
%TO.N,PG_5V*%
X43587500Y-51000000D03*
%TO.P,R8,2*%
%TO.N,+3V3*%
X45412500Y-51000000D03*
%TD*%
D30*
%TO.P,JP2,1*%
%TO.N,+5VS*%
X10545000Y-19165000D03*
%TO.P,JP2,2*%
%TO.N,AIN1_PU*%
X11845000Y-19165000D03*
%TD*%
D14*
%TO.P,C28,1*%
%TO.N,SD_VDD*%
X50670000Y-22595000D03*
%TO.P,C28,2*%
%TO.N,GND*%
X53620000Y-22595000D03*
%TD*%
D13*
%TO.P,R65,1*%
%TO.N,AIN4_R2*%
X39262500Y-26695000D03*
%TO.P,R65,2*%
%TO.N,GND*%
X41087500Y-26695000D03*
%TD*%
D14*
%TO.P,C25,1*%
%TO.N,VBUS*%
X62870000Y-19285000D03*
%TO.P,C25,2*%
%TO.N,GND*%
X65820000Y-19285000D03*
%TD*%
D11*
%TO.P,C37,1*%
%TO.N,+3V3*%
X43795000Y-34015000D03*
%TO.P,C37,2*%
%TO.N,GND*%
X45695000Y-34015000D03*
%TD*%
D13*
%TO.P,R7,1*%
%TO.N,SW_5V*%
X44787500Y-37600000D03*
%TO.P,R7,2*%
%TO.N,RAMP_5V*%
X46612500Y-37600000D03*
%TD*%
D44*
%TO.P,U4,1*%
%TO.N,GND*%
X43250000Y-1540000D03*
%TO.P,U4,2*%
%TO.N,+3V3*%
X43250000Y-2810000D03*
%TO.P,U4,3*%
%TO.N,MCU_EN*%
X43250000Y-4080000D03*
%TO.P,U4,4*%
%TO.N,AIN3*%
X43250000Y-5350000D03*
%TO.P,U4,5*%
%TO.N,AIN4*%
X43250000Y-6620000D03*
%TO.P,U4,6*%
%TO.N,VBAT_SNS*%
X43250000Y-7890000D03*
%TO.P,U4,7*%
%TO.N,SD_PWR_EN*%
X43250000Y-9160000D03*
%TO.P,U4,8*%
%TO.N,IO15*%
X43250000Y-10430000D03*
%TO.P,U4,9*%
%TO.N,IO16*%
X43250000Y-11700000D03*
%TO.P,U4,10*%
%TO.N,CAN_TX*%
X43250000Y-12970000D03*
%TO.P,U4,11*%
%TO.N,CAN_RX*%
X43250000Y-14240000D03*
%TO.P,U4,12*%
%TO.N,SD_CD*%
X43250000Y-15510000D03*
%TO.P,U4,13*%
%TO.N,USB_DM*%
X43250000Y-16780000D03*
%TO.P,U4,14*%
%TO.N,USB_DP*%
X43250000Y-18050000D03*
D45*
%TO.P,U4,15*%
%TO.N,IO3*%
X45015000Y-19300000D03*
%TO.P,U4,16*%
%TO.N,IO46*%
X46285000Y-19300000D03*
%TO.P,U4,17*%
%TO.N,SD_D3*%
X47555000Y-19300000D03*
%TO.P,U4,18*%
%TO.N,SD_D2*%
X48825000Y-19300000D03*
%TO.P,U4,19*%
%TO.N,SD_D1*%
X50095000Y-19300000D03*
%TO.P,U4,20*%
%TO.N,SD_D0*%
X51365000Y-19300000D03*
%TO.P,U4,21*%
%TO.N,SD_CMD*%
X52635000Y-19300000D03*
%TO.P,U4,22*%
%TO.N,SD_CLK*%
X53905000Y-19300000D03*
%TO.P,U4,23*%
%TO.N,CAN_S*%
X55175000Y-19300000D03*
%TO.P,U4,24*%
%TO.N,SPI_CS*%
X56445000Y-19300000D03*
%TO.P,U4,25*%
%TO.N,LED_DIN_MCU*%
X57715000Y-19300000D03*
%TO.P,U4,26*%
%TO.N,IO45*%
X58985000Y-19300000D03*
D44*
%TO.P,U4,27*%
%TO.N,MCU_BOOT*%
X60750000Y-18050000D03*
%TO.P,U4,28*%
%TO.N,N/C*%
X60750000Y-16780000D03*
%TO.P,U4,29*%
X60750000Y-15510000D03*
%TO.P,U4,30*%
X60750000Y-14240000D03*
%TO.P,U4,31*%
%TO.N,I2C_SDA*%
X60750000Y-12970000D03*
%TO.P,U4,32*%
%TO.N,I2C_SCL*%
X60750000Y-11700000D03*
%TO.P,U4,33*%
%TO.N,SPI_SCK*%
X60750000Y-10430000D03*
%TO.P,U4,34*%
%TO.N,SPI_MISO*%
X60750000Y-9160000D03*
%TO.P,U4,35*%
%TO.N,SPI_MOSI*%
X60750000Y-7890000D03*
%TO.P,U4,36*%
%TO.N,UART_RX*%
X60750000Y-6620000D03*
%TO.P,U4,37*%
%TO.N,UART_TX*%
X60750000Y-5350000D03*
%TO.P,U4,38*%
%TO.N,AIN2*%
X60750000Y-4080000D03*
%TO.P,U4,39*%
%TO.N,AIN1*%
X60750000Y-2810000D03*
%TO.P,U4,40*%
%TO.N,GND*%
X60750000Y-1540000D03*
D46*
%TO.P,U4,41*%
X49100000Y-8560000D03*
X49100000Y-9960000D03*
X49800000Y-7860000D03*
X49800000Y-9260000D03*
X49800000Y-10660000D03*
X50500000Y-8560000D03*
D47*
X50500000Y-9260000D03*
D46*
X50500000Y-9960000D03*
X51200000Y-7860000D03*
X51200000Y-9260000D03*
X51200000Y-10660000D03*
X51900000Y-8560000D03*
X51900000Y-9960000D03*
%TD*%
D28*
%TO.P,J6,1*%
%TO.N,LED_5V*%
X70500000Y-81500000D03*
D29*
%TO.P,J6,2*%
%TO.N,LED_DIN_J*%
X73040000Y-81500000D03*
%TO.P,J6,3*%
%TO.N,GND*%
X75580000Y-81500000D03*
%TD*%
D48*
%TO.P,U7,1*%
%TO.N,CAN_TX*%
X10770000Y-29040000D03*
%TO.P,U7,2*%
%TO.N,GND*%
X10770000Y-30310000D03*
%TO.P,U7,3*%
%TO.N,+5V*%
X10770000Y-31580000D03*
%TO.P,U7,4*%
%TO.N,CAN_RX*%
X10770000Y-32850000D03*
%TO.P,U7,5*%
%TO.N,+3V3*%
X15720000Y-32850000D03*
%TO.P,U7,6*%
%TO.N,CANL_T*%
X15720000Y-31580000D03*
%TO.P,U7,7*%
%TO.N,CANH_T*%
X15720000Y-30310000D03*
%TO.P,U7,8*%
%TO.N,CAN_S*%
X15720000Y-29040000D03*
%TD*%
D13*
%TO.P,R50,1*%
%TO.N,AIN1_R2*%
X14162500Y-26695000D03*
%TO.P,R50,2*%
%TO.N,GND*%
X15987500Y-26695000D03*
%TD*%
D11*
%TO.P,C30,1*%
%TO.N,+5V*%
X14085000Y-39105000D03*
%TO.P,C30,2*%
%TO.N,GND*%
X15985000Y-39105000D03*
%TD*%
D49*
%TO.P,U1,1*%
%TO.N,VCAP*%
X10157500Y-63075000D03*
%TO.P,U1,2*%
%TO.N,GND*%
X10157500Y-64025000D03*
%TO.P,U1,3*%
%TO.N,VBAT_UVLO*%
X10157500Y-64975000D03*
%TO.P,U1,4*%
%TO.N,+VBAT*%
X12432500Y-64975000D03*
%TO.P,U1,5*%
%TO.N,GATE_RB*%
X12432500Y-64025000D03*
%TO.P,U1,6*%
%TO.N,VBAT_FB*%
X12432500Y-63075000D03*
%TD*%
D24*
%TO.P,TP2,1*%
%TO.N,PG_3V3*%
X39640000Y-71096200D03*
%TD*%
D13*
%TO.P,R53,1*%
%TO.N,AIN2_A*%
X22662500Y-24305000D03*
%TO.P,R53,2*%
%TO.N,AIN2*%
X24487500Y-24305000D03*
%TD*%
D11*
%TO.P,C9,1*%
%TO.N,RAMP_5V*%
X39550000Y-51000000D03*
%TO.P,C9,2*%
%TO.N,FB_5V*%
X41450000Y-51000000D03*
%TD*%
D28*
%TO.P,J3,1*%
%TO.N,+3V3*%
X26000000Y-81500000D03*
D29*
%TO.P,J3,2*%
%TO.N,UART_TX*%
X28540000Y-81500000D03*
%TO.P,J3,3*%
%TO.N,UART_RX*%
X31080000Y-81500000D03*
%TO.P,J3,4*%
%TO.N,GND*%
X33620000Y-81500000D03*
%TD*%
D28*
%TO.P,J4,1*%
%TO.N,GND*%
X41000000Y-81500000D03*
D29*
%TO.P,J4,2*%
%TO.N,+3V3*%
X43540000Y-81500000D03*
%TO.P,J4,3*%
%TO.N,I2C_SDA*%
X46080000Y-81500000D03*
%TO.P,J4,4*%
%TO.N,I2C_SCL*%
X48620000Y-81500000D03*
%TD*%
D13*
%TO.P,R66,1*%
%TO.N,+VBAT*%
X43402500Y-74685000D03*
%TO.P,R66,2*%
%TO.N,VBAT_SNS*%
X45227500Y-74685000D03*
%TD*%
D31*
%TO.P,D14,1*%
%TO.N,AIN4_IN*%
X36145000Y-8795000D03*
%TO.P,D14,2*%
%TO.N,GND*%
X40145000Y-8795000D03*
%TD*%
D13*
%TO.P,R23,1*%
%TO.N,LED_DIN_MCU*%
X67952500Y-70795000D03*
%TO.P,R23,2*%
%TO.N,LED_DIN_A*%
X69777500Y-70795000D03*
%TD*%
D30*
%TO.P,JP7,1*%
%TO.N,AIN2_R1*%
X19045000Y-16175000D03*
%TO.P,JP7,2*%
%TO.N,AIN2*%
X20345000Y-16175000D03*
%TO.P,JP7,3*%
%TO.N,AIN2_R2*%
X21645000Y-16175000D03*
%TD*%
D11*
%TO.P,C1,1*%
%TO.N,VCAP*%
X27817500Y-63305000D03*
%TO.P,C1,2*%
%TO.N,VBAT_FB*%
X29717500Y-63305000D03*
%TD*%
D24*
%TO.P,TP5,1*%
%TO.N,+3V3*%
X33500000Y-68200000D03*
%TD*%
D50*
%TO.P,J1,1*%
%TO.N,VBAT_IN*%
X5000000Y-50000000D03*
D51*
%TO.P,J1,2*%
%TO.N,GND*%
X5000000Y-52000000D03*
%TO.P,J1,3*%
%TO.N,CAN_H*%
X5000000Y-54000000D03*
%TO.P,J1,4*%
%TO.N,CAN_L*%
X5000000Y-56000000D03*
%TD*%
D11*
%TO.P,C6,1*%
%TO.N,EN_5V*%
X33550000Y-39900000D03*
%TO.P,C6,2*%
%TO.N,GND*%
X35450000Y-39900000D03*
%TD*%
D13*
%TO.P,R24,1*%
%TO.N,LED_DIN*%
X58312500Y-74685000D03*
%TO.P,R24,2*%
%TO.N,LED_DIN_J*%
X60137500Y-74685000D03*
%TD*%
%TO.P,R31,1*%
%TO.N,SD_CLK*%
X50612500Y-25635000D03*
%TO.P,R31,2*%
%TO.N,SD_CLK_C*%
X52437500Y-25635000D03*
%TD*%
%TO.P,R4,1*%
%TO.N,RON_5V*%
X37587500Y-48200000D03*
%TO.P,R4,2*%
%TO.N,GND*%
X39412500Y-48200000D03*
%TD*%
%TO.P,R17,1*%
%TO.N,+3V3*%
X63812500Y-31835000D03*
%TO.P,R17,2*%
%TO.N,MCU_BOOT*%
X65637500Y-31835000D03*
%TD*%
D11*
%TO.P,C13,1*%
%TO.N,EN_3V3*%
X33550000Y-55700000D03*
%TO.P,C13,2*%
%TO.N,GND*%
X35450000Y-55700000D03*
%TD*%
D31*
%TO.P,D7,1*%
%TO.N,CAN_L*%
X18535000Y-35885000D03*
%TO.P,D7,2*%
%TO.N,GND*%
X22535000Y-35885000D03*
%TD*%
D14*
%TO.P,C17,1*%
%TO.N,+3V3*%
X50025000Y-63600000D03*
%TO.P,C17,2*%
%TO.N,GND*%
X52975000Y-63600000D03*
%TD*%
D13*
%TO.P,R32,1*%
%TO.N,SD_CMD*%
X54912500Y-25635000D03*
%TO.P,R32,2*%
%TO.N,SD_CMD_C*%
X56737500Y-25635000D03*
%TD*%
D52*
%TO.P,U8,1*%
%TO.N,GND*%
X44025000Y-29795000D03*
%TO.P,U8,2*%
%TO.N,N/C*%
X44025000Y-30295000D03*
%TO.P,U8,3*%
%TO.N,GND*%
X44025000Y-30795000D03*
%TO.P,U8,4*%
%TO.N,AIN1*%
X44025000Y-31295000D03*
%TO.P,U8,5*%
%TO.N,AIN2*%
X44025000Y-31795000D03*
%TO.P,U8,6*%
%TO.N,AIN3*%
X48425000Y-31795000D03*
%TO.P,U8,7*%
%TO.N,AIN4*%
X48425000Y-31295000D03*
%TO.P,U8,8*%
%TO.N,+3V3*%
X48425000Y-30795000D03*
%TO.P,U8,9*%
%TO.N,I2C_SDA*%
X48425000Y-30295000D03*
%TO.P,U8,10*%
%TO.N,I2C_SCL*%
X48425000Y-29795000D03*
%TD*%
D53*
%TO.P,D1,1*%
%TO.N,+VBAT*%
X22335000Y-58185000D03*
%TO.P,D1,2*%
%TO.N,GND*%
X29135000Y-58185000D03*
%TD*%
D23*
%TO.P,D9,1*%
%TO.N,GND*%
X10537500Y-11785000D03*
%TO.P,D9,2*%
%TO.N,+3V3*%
X10537500Y-13685000D03*
%TO.P,D9,3*%
%TO.N,AIN1*%
X12412500Y-12735000D03*
%TD*%
D13*
%TO.P,R10,1*%
%TO.N,RON_3V3*%
X37587500Y-64000000D03*
%TO.P,R10,2*%
%TO.N,GND*%
X39412500Y-64000000D03*
%TD*%
%TO.P,R20,1*%
%TO.N,+3V3*%
X67662500Y-31835000D03*
%TO.P,R20,2*%
%TO.N,I2C_SDA*%
X69487500Y-31835000D03*
%TD*%
%TO.P,R27,1*%
%TO.N,IO46*%
X43412500Y-26575000D03*
%TO.P,R27,2*%
%TO.N,GND*%
X45237500Y-26575000D03*
%TD*%
D40*
%TO.P,L1,1*%
%TO.N,SW_5V*%
X50000000Y-42000000D03*
%TO.P,L1,2*%
%TO.N,+5V*%
X56000000Y-42000000D03*
%TD*%
D13*
%TO.P,R19,1*%
%TO.N,USB_CC2*%
X70552500Y-21875000D03*
%TO.P,R19,2*%
%TO.N,GND*%
X72377500Y-21875000D03*
%TD*%
%TO.P,R30,1*%
%TO.N,SD_EN_G*%
X59812500Y-56575000D03*
%TO.P,R30,2*%
%TO.N,GND*%
X61637500Y-56575000D03*
%TD*%
D54*
%TO.P,FB2,1*%
%TO.N,VSENS_F*%
X15282500Y-74685000D03*
%TO.P,FB2,2*%
%TO.N,+5VS*%
X17407500Y-74685000D03*
%TD*%
D11*
%TO.P,C12,1*%
%TO.N,+5V*%
X55550000Y-50400000D03*
%TO.P,C12,2*%
%TO.N,GND*%
X57450000Y-50400000D03*
%TD*%
D13*
%TO.P,R43,1*%
%TO.N,CAN_S*%
X25772500Y-39075000D03*
%TO.P,R43,2*%
%TO.N,GND*%
X27597500Y-39075000D03*
%TD*%
D37*
%TO.P,PF2,1*%
%TO.N,VBUS_IN*%
X67952500Y-19265000D03*
%TO.P,PF2,2*%
%TO.N,VBUS*%
X70877500Y-19265000D03*
%TD*%
D30*
%TO.P,JP10,1*%
%TO.N,AIN3_R1*%
X27545000Y-16175000D03*
%TO.P,JP10,2*%
%TO.N,AIN3*%
X28845000Y-16175000D03*
%TO.P,JP10,3*%
%TO.N,AIN3_R2*%
X30145000Y-16175000D03*
%TD*%
D23*
%TO.P,D15,1*%
%TO.N,GND*%
X35637500Y-11785000D03*
%TO.P,D15,2*%
%TO.N,+3V3*%
X35637500Y-13685000D03*
%TO.P,D15,3*%
%TO.N,AIN4*%
X37512500Y-12735000D03*
%TD*%
D13*
%TO.P,R51,1*%
%TO.N,AIN2_IN*%
X22702500Y-21855000D03*
%TO.P,R51,2*%
%TO.N,AIN2_A*%
X24527500Y-21855000D03*
%TD*%
%TO.P,R22,1*%
%TO.N,SPI_CS*%
X63812500Y-34225000D03*
%TO.P,R22,2*%
%TO.N,+3V3*%
X65637500Y-34225000D03*
%TD*%
D50*
%TO.P,J10,1*%
%TO.N,+5VS*%
X5000000Y-18000000D03*
D51*
%TO.P,J10,2*%
%TO.N,AIN1_IN*%
X5000000Y-20000000D03*
%TO.P,J10,3*%
%TO.N,AIN2_IN*%
X5000000Y-22000000D03*
%TO.P,J10,4*%
%TO.N,AIN3_IN*%
X5000000Y-24000000D03*
%TO.P,J10,5*%
%TO.N,AIN4_IN*%
X5000000Y-26000000D03*
%TO.P,J10,6*%
%TO.N,GND*%
X5000000Y-28000000D03*
%TO.P,J10,7*%
X5000000Y-30000000D03*
%TO.P,J10,8*%
%TO.N,+5VS*%
X5000000Y-32000000D03*
%TD*%
D13*
%TO.P,R11,1*%
%TO.N,+3V3*%
X45587500Y-64000000D03*
%TO.P,R11,2*%
%TO.N,FB_3V3*%
X47412500Y-64000000D03*
%TD*%
D55*
%TO.P,C3,1*%
%TO.N,+VBAT*%
X11695000Y-48845000D03*
%TO.P,C3,2*%
%TO.N,GND*%
X20095000Y-48845000D03*
%TD*%
D11*
%TO.P,C33,1*%
%TO.N,AIN1*%
X10295000Y-21885000D03*
%TO.P,C33,2*%
%TO.N,GND*%
X12195000Y-21885000D03*
%TD*%
D13*
%TO.P,R58,1*%
%TO.N,AIN3_A*%
X31162500Y-24305000D03*
%TO.P,R58,2*%
%TO.N,AIN3*%
X32987500Y-24305000D03*
%TD*%
D11*
%TO.P,C7,1*%
%TO.N,BST_5V*%
X41050000Y-37600000D03*
%TO.P,C7,2*%
%TO.N,SW_5V*%
X42950000Y-37600000D03*
%TD*%
D30*
%TO.P,JP5,1*%
%TO.N,+5VS*%
X19045000Y-19165000D03*
%TO.P,JP5,2*%
%TO.N,AIN2_PU*%
X20345000Y-19165000D03*
%TD*%
D13*
%TO.P,R1,1*%
%TO.N,VBAT_FB*%
X13902500Y-67165000D03*
%TO.P,R1,2*%
%TO.N,VBAT_UVLO*%
X15727500Y-67165000D03*
%TD*%
%TO.P,R46,1*%
%TO.N,AIN1_IN*%
X14202500Y-21855000D03*
%TO.P,R46,2*%
%TO.N,AIN1_A*%
X16027500Y-21855000D03*
%TD*%
D30*
%TO.P,JP6,1*%
%TO.N,AIN2_A*%
X22835000Y-19165000D03*
%TO.P,JP6,2*%
%TO.N,AIN2*%
X24135000Y-19165000D03*
%TD*%
D24*
%TO.P,TP1,1*%
%TO.N,PG_5V*%
X36647500Y-71096200D03*
%TD*%
D11*
%TO.P,C26,1*%
%TO.N,VBUS*%
X62795000Y-21905000D03*
%TO.P,C26,2*%
%TO.N,GND*%
X64695000Y-21905000D03*
%TD*%
D41*
%TO.P,U2,1*%
%TO.N,GND*%
X39937500Y-40095000D03*
%TO.P,U2,2*%
%TO.N,+VBAT*%
X39937500Y-41365000D03*
%TO.P,U2,3*%
%TO.N,EN_5V*%
X39937500Y-42635000D03*
%TO.P,U2,4*%
%TO.N,RON_5V*%
X39937500Y-43905000D03*
%TO.P,U2,5*%
%TO.N,FB_5V*%
X45062500Y-43905000D03*
%TO.P,U2,6*%
%TO.N,PG_5V*%
X45062500Y-42635000D03*
%TO.P,U2,7*%
%TO.N,BST_5V*%
X45062500Y-41365000D03*
%TO.P,U2,8*%
%TO.N,SW_5V*%
X45062500Y-40095000D03*
D42*
%TO.P,U2,9*%
%TO.N,GND*%
X41850000Y-40050000D03*
X41850000Y-41350000D03*
X41850000Y-42650000D03*
X41850000Y-43950000D03*
D43*
X42500000Y-42000000D03*
D42*
X43150000Y-40050000D03*
X43150000Y-41350000D03*
X43150000Y-42650000D03*
X43150000Y-43950000D03*
%TD*%
D28*
%TO.P,J5,1*%
%TO.N,+3V3*%
X27500000Y-3000000D03*
D29*
%TO.P,J5,2*%
%TO.N,GND*%
X30040000Y-3000000D03*
%TO.P,J5,3*%
%TO.N,SPI_SCK*%
X32580000Y-3000000D03*
%TO.P,J5,4*%
%TO.N,SPI_MISO*%
X35120000Y-3000000D03*
%TO.P,J5,5*%
%TO.N,SPI_MOSI*%
X37660000Y-3000000D03*
%TO.P,J5,6*%
%TO.N,SPI_CS*%
X40200000Y-3000000D03*
%TD*%
D31*
%TO.P,D3,1*%
%TO.N,+5VS*%
X11045000Y-71595000D03*
%TO.P,D3,2*%
%TO.N,GND*%
X15045000Y-71595000D03*
%TD*%
D13*
%TO.P,R15,1*%
%TO.N,PWR_LED_K*%
X39552500Y-74685000D03*
%TO.P,R15,2*%
%TO.N,GND*%
X41377500Y-74685000D03*
%TD*%
D11*
%TO.P,C19,1*%
%TO.N,+3V3*%
X55550000Y-66200000D03*
%TO.P,C19,2*%
%TO.N,GND*%
X57450000Y-66200000D03*
%TD*%
D13*
%TO.P,R49,1*%
%TO.N,AIN1_R1*%
X10312500Y-26695000D03*
%TO.P,R49,2*%
%TO.N,GND*%
X12137500Y-26695000D03*
%TD*%
%TO.P,R67,1*%
%TO.N,VBAT_SNS*%
X31812500Y-77135000D03*
%TO.P,R67,2*%
%TO.N,GND*%
X33637500Y-77135000D03*
%TD*%
%TO.P,R36,1*%
%TO.N,SD_D3*%
X59212500Y-28475000D03*
%TO.P,R36,2*%
%TO.N,SD_D3_C*%
X61037500Y-28475000D03*
%TD*%
D14*
%TO.P,C18,1*%
%TO.N,+3V3*%
X55025000Y-63600000D03*
%TO.P,C18,2*%
%TO.N,GND*%
X57975000Y-63600000D03*
%TD*%
D13*
%TO.P,R40,1*%
%TO.N,SD_VDD*%
X50612500Y-34155000D03*
%TO.P,R40,2*%
%TO.N,SD_D2_C*%
X52437500Y-34155000D03*
%TD*%
D30*
%TO.P,JP4,1*%
%TO.N,AIN1_R1*%
X10545000Y-16175000D03*
%TO.P,JP4,2*%
%TO.N,AIN1*%
X11845000Y-16175000D03*
%TO.P,JP4,3*%
%TO.N,AIN1_R2*%
X13145000Y-16175000D03*
%TD*%
D13*
%TO.P,R25,1*%
%TO.N,IO3*%
X43412500Y-21795000D03*
%TO.P,R25,2*%
%TO.N,GND*%
X45237500Y-21795000D03*
%TD*%
D11*
%TO.P,C24,1*%
%TO.N,+3V3*%
X63795000Y-29415000D03*
%TO.P,C24,2*%
%TO.N,GND*%
X65695000Y-29415000D03*
%TD*%
D30*
%TO.P,JP1,1*%
%TO.N,CAN_H*%
X10545000Y-39375000D03*
%TO.P,JP1,2*%
%TO.N,TERM_A*%
X11845000Y-39375000D03*
%TD*%
D11*
%TO.P,C2,1*%
%TO.N,VBAT_FB*%
X9995000Y-67195000D03*
%TO.P,C2,2*%
%TO.N,GND*%
X11895000Y-67195000D03*
%TD*%
D13*
%TO.P,R41,1*%
%TO.N,SD_VDD*%
X54912500Y-34155000D03*
%TO.P,R41,2*%
%TO.N,SD_D3_C*%
X56737500Y-34155000D03*
%TD*%
%TO.P,R5,1*%
%TO.N,+5V*%
X45587500Y-48200000D03*
%TO.P,R5,2*%
%TO.N,FB_5V*%
X47412500Y-48200000D03*
%TD*%
D11*
%TO.P,C31,1*%
%TO.N,+3V3*%
X17975000Y-39105000D03*
%TO.P,C31,2*%
%TO.N,GND*%
X19875000Y-39105000D03*
%TD*%
D30*
%TO.P,JP3,1*%
%TO.N,AIN1_A*%
X14335000Y-19165000D03*
%TO.P,JP3,2*%
%TO.N,AIN1*%
X15635000Y-19165000D03*
%TD*%
D49*
%TO.P,U6,1*%
%TO.N,GND*%
X58457500Y-70595000D03*
%TO.P,U6,2*%
%TO.N,LED_DIN_A*%
X58457500Y-71545000D03*
%TO.P,U6,3*%
%TO.N,GND*%
X58457500Y-72495000D03*
%TO.P,U6,4*%
%TO.N,LED_DIN*%
X60732500Y-72495000D03*
%TO.P,U6,5*%
%TO.N,+5V*%
X60732500Y-70595000D03*
%TD*%
D30*
%TO.P,JP12,1*%
%TO.N,AIN4_A*%
X39435000Y-19165000D03*
%TO.P,JP12,2*%
%TO.N,AIN4*%
X40735000Y-19165000D03*
%TD*%
D24*
%TO.P,TP4,1*%
%TO.N,+5V*%
X33800000Y-37400000D03*
%TD*%
D13*
%TO.P,R21,1*%
%TO.N,+3V3*%
X71512500Y-31835000D03*
%TO.P,R21,2*%
%TO.N,I2C_SCL*%
X73337500Y-31835000D03*
%TD*%
D11*
%TO.P,C14,1*%
%TO.N,BST_3V3*%
X41050000Y-53400000D03*
%TO.P,C14,2*%
%TO.N,SW_3V3*%
X42950000Y-53400000D03*
%TD*%
D30*
%TO.P,JP11,1*%
%TO.N,+5VS*%
X35645000Y-19165000D03*
%TO.P,JP11,2*%
%TO.N,AIN4_PU*%
X36945000Y-19165000D03*
%TD*%
D11*
%TO.P,C32,1*%
%TO.N,CAN_SPLIT*%
X21865000Y-39105000D03*
%TO.P,C32,2*%
%TO.N,GND*%
X23765000Y-39105000D03*
%TD*%
%TO.P,C35,1*%
%TO.N,AIN3*%
X27295000Y-21885000D03*
%TO.P,C35,2*%
%TO.N,GND*%
X29195000Y-21885000D03*
%TD*%
%TO.P,C21,1*%
%TO.N,MCU_EN*%
X68885000Y-26625000D03*
%TO.P,C21,2*%
%TO.N,GND*%
X70785000Y-26625000D03*
%TD*%
D13*
%TO.P,R39,1*%
%TO.N,SD_VDD*%
X59212500Y-31315000D03*
%TO.P,R39,2*%
%TO.N,SD_D1_C*%
X61037500Y-31315000D03*
%TD*%
D30*
%TO.P,JP13,1*%
%TO.N,AIN4_R1*%
X35645000Y-16175000D03*
%TO.P,JP13,2*%
%TO.N,AIN4*%
X36945000Y-16175000D03*
%TO.P,JP13,3*%
%TO.N,AIN4_R2*%
X38245000Y-16175000D03*
%TD*%
D13*
%TO.P,R47,1*%
%TO.N,AIN1_PU*%
X10312500Y-24305000D03*
%TO.P,R47,2*%
%TO.N,AIN1_A*%
X12137500Y-24305000D03*
%TD*%
D56*
%TO.P,SW1,1*%
%TO.N,MCU_EN*%
X74850000Y-54600000D03*
X81150000Y-54600000D03*
%TO.P,SW1,2*%
%TO.N,GND*%
X74850000Y-58400000D03*
X81150000Y-58400000D03*
%TD*%
D13*
%TO.P,R18,1*%
%TO.N,USB_CC1*%
X66702500Y-21875000D03*
%TO.P,R18,2*%
%TO.N,GND*%
X68527500Y-21875000D03*
%TD*%
D57*
%TO.P,D2,1*%
%TO.N,+3V3*%
X35445000Y-77135000D03*
%TO.P,D2,2*%
%TO.N,GND*%
X37545000Y-77135000D03*
%TD*%
D24*
%TO.P,TP9,1*%
%TO.N,CAN_L*%
X28770000Y-35386200D03*
%TD*%
D11*
%TO.P,C8,1*%
%TO.N,RAMP_5V*%
X50050000Y-50800000D03*
%TO.P,C8,2*%
%TO.N,+5V*%
X51950000Y-50800000D03*
%TD*%
D13*
%TO.P,R52,1*%
%TO.N,AIN2_PU*%
X18812500Y-24305000D03*
%TO.P,R52,2*%
%TO.N,AIN2_A*%
X20637500Y-24305000D03*
%TD*%
D49*
%TO.P,U5,1*%
%TO.N,USB_DP_CON*%
X62957500Y-14995000D03*
%TO.P,U5,2*%
%TO.N,GND*%
X62957500Y-15945000D03*
%TO.P,U5,3*%
%TO.N,USB_DM_CON*%
X62957500Y-16895000D03*
%TO.P,U5,4*%
%TO.N,USB_DM*%
X65232500Y-16895000D03*
%TO.P,U5,5*%
%TO.N,VBUS*%
X65232500Y-15945000D03*
%TO.P,U5,6*%
%TO.N,USB_DP*%
X65232500Y-14995000D03*
%TD*%
D56*
%TO.P,SW2,1*%
%TO.N,MCU_BOOT*%
X74850000Y-61600000D03*
X81150000Y-61600000D03*
%TO.P,SW2,2*%
%TO.N,GND*%
X74850000Y-65400000D03*
X81150000Y-65400000D03*
%TD*%
D31*
%TO.P,D12,1*%
%TO.N,AIN3_IN*%
X28045000Y-8795000D03*
%TO.P,D12,2*%
%TO.N,GND*%
X32045000Y-8795000D03*
%TD*%
D11*
%TO.P,C27,1*%
%TO.N,+5V*%
X67685000Y-29415000D03*
%TO.P,C27,2*%
%TO.N,GND*%
X69585000Y-29415000D03*
%TD*%
D58*
%TO.P,C4,1*%
%TO.N,+VBAT*%
X37675000Y-45100000D03*
%TO.P,C4,2*%
%TO.N,GND*%
X34725000Y-45100000D03*
%TD*%
D37*
%TO.P,PF1,1*%
%TO.N,+5V*%
X10362500Y-74965000D03*
%TO.P,PF1,2*%
%TO.N,VSENS_F*%
X13287500Y-74965000D03*
%TD*%
D31*
%TO.P,D6,1*%
%TO.N,CAN_H*%
X11045000Y-35885000D03*
%TO.P,D6,2*%
%TO.N,GND*%
X15045000Y-35885000D03*
%TD*%
D13*
%TO.P,R42,1*%
%TO.N,+3V3*%
X59212500Y-34155000D03*
%TO.P,R42,2*%
%TO.N,SD_CD*%
X61037500Y-34155000D03*
%TD*%
D59*
%TO.N,+3V3*%
X38407700Y-75285000D03*
X68168700Y-32874200D03*
X36245000Y-77135000D03*
X60318800Y-55224200D03*
X33275000Y-72495000D03*
X66650000Y-34225000D03*
X28775000Y-13685000D03*
X18841000Y-39717500D03*
X73641000Y-27237500D03*
X34750000Y-68200000D03*
X47200000Y-30795000D03*
X46425000Y-51000000D03*
X57600000Y-57800000D03*
X20275000Y-13685000D03*
X72018700Y-32874200D03*
X17195000Y-32850000D03*
X59718700Y-35194200D03*
X36875000Y-13685000D03*
X64661000Y-30027500D03*
X44500000Y-2810000D03*
X64945000Y-26795000D03*
X61275000Y-51995000D03*
X56100000Y-63600000D03*
X11775000Y-13685000D03*
X46093800Y-65039200D03*
X64318700Y-32874200D03*
X52950000Y-66600000D03*
X56416000Y-66812500D03*
X46425000Y-66800000D03*
X44661000Y-34627500D03*
X51100000Y-63600000D03*
X72098800Y-30424200D03*
D60*
%TO.N,+5V*%
X72634999Y-27995000D03*
X71935000Y-14995000D03*
X66602100Y-45599500D03*
X54885900Y-52617700D03*
X68614600Y-28401900D03*
%TO.N,+5VS*%
X19083700Y-20539800D03*
X11044300Y-70069200D03*
X35218800Y-17801100D03*
X27725500Y-20528300D03*
%TO.N,+VBAT*%
X42675000Y-73765000D03*
D59*
X37675000Y-46750000D03*
X37675000Y-56365000D03*
%TO.N,AIN1*%
X38467200Y-31159800D03*
X25317700Y-27662400D03*
X16080400Y-20451400D03*
X47341400Y-2501800D03*
%TO.N,AIN1_R1*%
X8985400Y-25902200D03*
X8985400Y-16176600D03*
%TO.N,AIN1_R2*%
X14202000Y-16400500D03*
X14107300Y-27907100D03*
%TO.N,AIN2*%
X53317400Y-3165200D03*
X44921200Y-32466200D03*
%TO.N,AIN2_R2*%
X15305100Y-16199100D03*
X18473800Y-27945500D03*
%TO.N,AIN3*%
X35990600Y-5555700D03*
X35573000Y-12832900D03*
%TO.N,AIN3_R2*%
X23159600Y-16683400D03*
X26572600Y-27892200D03*
%TO.N,AIN4*%
X36003000Y-20653200D03*
X43950200Y-32614600D03*
X40518800Y-27937000D03*
X37197400Y-6762400D03*
X45840600Y-32361600D03*
X37688300Y-13838600D03*
X40152300Y-32448300D03*
%TO.N,AIN4_IN*%
X40069800Y-12131000D03*
X38134300Y-20871700D03*
X16019700Y-5163300D03*
%TO.N,AIN4_R2*%
X34572200Y-27682300D03*
X38261300Y-17466700D03*
%TO.N,BST_3V3*%
X40944900Y-54672900D03*
X46935500Y-57473700D03*
%TO.N,CAN_L*%
X18106900Y-34034400D03*
X18106900Y-41372500D03*
%TO.N,CAN_RX*%
X44513900Y-14240000D03*
X12474700Y-33203400D03*
%TO.N,CAN_S*%
X26629800Y-38067200D03*
X46198900Y-18047500D03*
X20950300Y-30277200D03*
X35337100Y-37168200D03*
%TO.N,CAN_TX*%
X34024300Y-7920400D03*
X28340200Y-6953800D03*
%TO.N,EN_3V3*%
X40084500Y-54590000D03*
X38487200Y-58552500D03*
%TO.N,EN_5V*%
X38393100Y-42693000D03*
X38109200Y-38912000D03*
%TO.N,GATE_RB*%
X13688700Y-64025000D03*
X12090700Y-55149500D03*
%TO.N,GND*%
X21561000Y-22497500D03*
X13150000Y-26695000D03*
X66751000Y-19985000D03*
X21650000Y-26695000D03*
D61*
X64070000Y-15945000D03*
D59*
X30885000Y-58185000D03*
X75675000Y-26625000D03*
X40425000Y-64000000D03*
X53906000Y-48500000D03*
X40425000Y-48200000D03*
X44425000Y-48200000D03*
X46250000Y-24185000D03*
X36450000Y-39900000D03*
X28775000Y-11785000D03*
X82500000Y-65400000D03*
X13061000Y-22497500D03*
X44500000Y-1540000D03*
X38161000Y-22497500D03*
X36216000Y-42812500D03*
X59035000Y-22425000D03*
X36875000Y-11785000D03*
X44425000Y-64000000D03*
X38735900Y-40495000D03*
X42390000Y-74685000D03*
X42100000Y-26695000D03*
X12761000Y-67807500D03*
X69540000Y-21875000D03*
X65625000Y-51995000D03*
X16560500Y-36585000D03*
X62000000Y-1540000D03*
X34561000Y-75327500D03*
X16795000Y-71595000D03*
X41895000Y-8795000D03*
X81270000Y-11250000D03*
X24285000Y-35885000D03*
X28610000Y-39075000D03*
X36450000Y-55700000D03*
X20275000Y-11785000D03*
X46250000Y-26575000D03*
X25500000Y-26695000D03*
X58450000Y-50400000D03*
X46250000Y-21795000D03*
X62650000Y-56575000D03*
X16851000Y-39717500D03*
X45250000Y-29795000D03*
X38550000Y-55895000D03*
X59050000Y-47800000D03*
X82500000Y-58400000D03*
X20741000Y-39717500D03*
X20590000Y-67165000D03*
X76200000Y-65400000D03*
X45250000Y-30795000D03*
X59464300Y-72895000D03*
X58450000Y-66200000D03*
X81270000Y-4750000D03*
X57295000Y-70595000D03*
X34514300Y-77735000D03*
X38345000Y-77135000D03*
X34000000Y-26695000D03*
X38250000Y-26695000D03*
X25295000Y-8795000D03*
X59050000Y-63600000D03*
X46695000Y-34015000D03*
X30061000Y-22497500D03*
X35800000Y-45100000D03*
X11775000Y-11785000D03*
X16795000Y-8795000D03*
X66561000Y-30027500D03*
X67751000Y-27495000D03*
X24877500Y-70995000D03*
X54695000Y-22595000D03*
X70451000Y-30027500D03*
X22795000Y-48845000D03*
X71025000Y-38675000D03*
X33795000Y-8795000D03*
X81725000Y-46575000D03*
X53906000Y-64300000D03*
X17000000Y-26695000D03*
X76200000Y-58400000D03*
X8995000Y-64025000D03*
X65561000Y-22517500D03*
X33275000Y-70595000D03*
X24631000Y-39717500D03*
X71651000Y-27237500D03*
X73390000Y-21875000D03*
X43882500Y-71096200D03*
X30150000Y-26695000D03*
X12245000Y-30310000D03*
%TO.N,I2C_SCL*%
X48172900Y-29140100D03*
X73227400Y-30610000D03*
X58358200Y-11700000D03*
%TO.N,I2C_SDA*%
X68519800Y-30692700D03*
X50311200Y-30088600D03*
X56566400Y-14463300D03*
%TO.N,IO15*%
X40035500Y-6989200D03*
X36372600Y-2161900D03*
X17620000Y-1149100D03*
%TO.N,IO3*%
X41964600Y-4176700D03*
X46504200Y-17014400D03*
%TO.N,IO45*%
X48755000Y-17183700D03*
X42621200Y-25215000D03*
%TO.N,IO46*%
X34194200Y-28489000D03*
%TO.N,LED_DIN_MCU*%
X59675400Y-68513000D03*
X57498000Y-18015100D03*
%TO.N,MCU_EN*%
X68319000Y-25281500D03*
X58097800Y-4080000D03*
%TO.N,PG_5V*%
X46539300Y-43375900D03*
X37856300Y-70222700D03*
X46539300Y-50180100D03*
%TO.N,RAMP_5V*%
X47810500Y-52079200D03*
X47810500Y-37600000D03*
%TO.N,SD_CD*%
X55292800Y-32911800D03*
X71979200Y-34034300D03*
X53675200Y-15978900D03*
X67849400Y-36925100D03*
%TO.N,SD_CLK*%
X53256500Y-29851800D03*
X55228200Y-20634800D03*
%TO.N,SD_CLK_C*%
X65527300Y-38051700D03*
X60304200Y-27378100D03*
%TO.N,SD_CMD*%
X52205400Y-20575000D03*
X50536500Y-24401800D03*
%TO.N,SD_CMD_C*%
X63384000Y-41264100D03*
X53668200Y-31246400D03*
X55770200Y-26681400D03*
X58452800Y-26681400D03*
%TO.N,SD_D0_C*%
X58494800Y-36103200D03*
X58183300Y-31351600D03*
%TO.N,SD_D2*%
X49087800Y-20553600D03*
X53471300Y-27924500D03*
%TO.N,SD_D2_C*%
X57759200Y-28475000D03*
X58259700Y-39064900D03*
%TO.N,SD_D3*%
X60303800Y-29687300D03*
X61029800Y-49347300D03*
X49070200Y-21929800D03*
X50515900Y-52590200D03*
%TO.N,SD_D3_C*%
X61366500Y-30034800D03*
X61367600Y-35858400D03*
X63723300Y-43128700D03*
%TO.N,SD_PWR_EN*%
X66978300Y-52149200D03*
X57619100Y-10407500D03*
D60*
%TO.N,SD_VDD*%
X52002900Y-23701400D03*
X60243400Y-51045000D03*
X51461100Y-30190000D03*
X60247400Y-38653400D03*
D59*
%TO.N,SPI_CS*%
X55870700Y-17983600D03*
X44511900Y-13114200D03*
X55410000Y-15619300D03*
%TO.N,SPI_MISO*%
X44526900Y-11988400D03*
%TO.N,SPI_MOSI*%
X44502700Y-6861500D03*
%TO.N,SPI_SCK*%
X59218300Y-10430000D03*
%TO.N,UART_RX*%
X52579100Y-6232500D03*
%TO.N,UART_TX*%
X47968300Y-5123400D03*
%TO.N,USB_DM*%
X59431500Y-16605700D03*
X62468200Y-17864400D03*
%TO.N,USB_DP*%
X44836000Y-17710100D03*
X58203300Y-5879400D03*
X45465000Y-6050500D03*
X64029100Y-14385800D03*
D60*
%TO.N,VBAT_IN*%
X24162700Y-64453000D03*
D59*
%TO.N,VBAT_SNS*%
X46118600Y-7890000D03*
X35269600Y-71436300D03*
%TO.N,VBAT_UVLO*%
X16738300Y-66390200D03*
X10574600Y-65779200D03*
D60*
%TO.N,VBUS*%
X64561000Y-19322500D03*
X67479800Y-16615200D03*
%TO.N,VBUS_IN*%
X81373500Y-9000000D03*
X81432700Y-5830800D03*
X69573500Y-19265000D03*
%TD*%
D62*
%TO.N,+3V3*%
X51950000Y-66600000D02*
X52950000Y-66600000D01*
X15720000Y-32850000D02*
X17195000Y-32850000D01*
X43250000Y-2810000D02*
X44500000Y-2810000D01*
X48425000Y-30795000D02*
X47200000Y-30795000D01*
X45412500Y-66800000D02*
X46425000Y-66800000D01*
X45412500Y-51000000D02*
X46425000Y-51000000D01*
X43795000Y-34015000D02*
X44661000Y-34627500D01*
X72775000Y-26625000D02*
X73641000Y-27237500D01*
X67662500Y-31835000D02*
X68168700Y-32874200D01*
X56000000Y-57800000D02*
X57600000Y-57800000D01*
X71512500Y-31835000D02*
X72018700Y-32874200D01*
X59212500Y-34155000D02*
X59718700Y-35194200D01*
X59812500Y-54185000D02*
X60318800Y-55224200D01*
X63812500Y-31835000D02*
X64318700Y-32874200D01*
X37552500Y-74685000D02*
X38407700Y-75285000D01*
X50025000Y-63600000D02*
X51100000Y-63600000D01*
X33500000Y-68200000D02*
X34750000Y-68200000D01*
X63870000Y-26795000D02*
X64945000Y-26795000D01*
X27537500Y-13685000D02*
X28775000Y-13685000D01*
X60037500Y-51995000D02*
X61275000Y-51995000D01*
X55550000Y-66200000D02*
X56416000Y-66812500D01*
X10537500Y-13685000D02*
X11775000Y-13685000D01*
X17975000Y-39105000D02*
X18841000Y-39717500D01*
X19037500Y-13685000D02*
X20275000Y-13685000D01*
X55025000Y-63600000D02*
X56100000Y-63600000D01*
X63795000Y-29415000D02*
X64661000Y-30027500D01*
X45587500Y-64000000D02*
X46093800Y-65039200D01*
X35445000Y-77135000D02*
X36245000Y-77135000D01*
X65637500Y-34225000D02*
X66650000Y-34225000D01*
X71592500Y-29385000D02*
X72098800Y-30424200D01*
X35637500Y-13685000D02*
X36875000Y-13685000D01*
X32037500Y-72495000D02*
X33275000Y-72495000D01*
D63*
%TO.N,+5V*%
X68335000Y-14295000D02*
X67735000Y-14895000D01*
X72535000Y-28095000D02*
X72634999Y-27995000D01*
X45587500Y-48200000D02*
X46797700Y-49410200D01*
X55550000Y-50400000D02*
X51950000Y-50400000D01*
X53767700Y-52617700D02*
X51950000Y-50800000D01*
X54885900Y-52617700D02*
X53767700Y-52617700D01*
X56000000Y-45599500D02*
X56000000Y-47350000D01*
X62952500Y-70975000D02*
X62952500Y-73641300D01*
X48414800Y-49410200D02*
X50025000Y-47800000D01*
X46797700Y-49410200D02*
X48414800Y-49410200D01*
X33800000Y-37400000D02*
X33715500Y-37315500D01*
X50025000Y-47800000D02*
X51950000Y-49725000D01*
X14085000Y-37400000D02*
X14085000Y-39105000D01*
X56000000Y-47350000D02*
X55550000Y-47800000D01*
X68935000Y-28095000D02*
X72535000Y-28095000D01*
X71235000Y-14295000D02*
X68335000Y-14295000D01*
X49923900Y-35923900D02*
X35276100Y-35923900D01*
X54698300Y-80198300D02*
X54698300Y-81500000D01*
X54698300Y-80198300D02*
X15595800Y-80198300D01*
X51950000Y-49725000D02*
X51950000Y-50400000D01*
X15595800Y-80198300D02*
X10362500Y-74965000D01*
X62572500Y-70595000D02*
X60732500Y-70595000D01*
X56000000Y-81500000D02*
X54698300Y-81500000D01*
X68614600Y-28401900D02*
X68614600Y-28485400D01*
X55025000Y-47800000D02*
X55550000Y-47800000D01*
X56000000Y-42000000D02*
X49923900Y-35923900D01*
X68614600Y-28485400D02*
X67685000Y-29415000D01*
X13226400Y-32892000D02*
X11914400Y-31580000D01*
X13824900Y-37400000D02*
X13226400Y-36801500D01*
X11914400Y-31580000D02*
X10770000Y-31580000D01*
X14085000Y-37400000D02*
X13824900Y-37400000D01*
X55550000Y-47800000D02*
X55550000Y-50400000D01*
X56395500Y-80198300D02*
X54698300Y-80198300D01*
X71935000Y-14995000D02*
X71235000Y-14295000D01*
X26234000Y-37400000D02*
X14085000Y-37400000D01*
X26318500Y-37315500D02*
X26234000Y-37400000D01*
X62952500Y-73641300D02*
X56395500Y-80198300D01*
X56000000Y-42000000D02*
X56000000Y-45599500D01*
X56000000Y-45599500D02*
X66602100Y-45599500D01*
X35276100Y-35923900D02*
X33800000Y-37400000D01*
X62952500Y-70975000D02*
X62572500Y-70595000D01*
X51950000Y-50400000D02*
X51950000Y-50800000D01*
X13226400Y-36801500D02*
X13226400Y-32892000D01*
X33715500Y-37315500D02*
X26318500Y-37315500D01*
%TO.N,+5VS*%
X5000000Y-18000000D02*
X8428300Y-18000000D01*
X27545000Y-20366700D02*
X27706600Y-20528300D01*
X10545000Y-19165000D02*
X9593300Y-19165000D01*
X27706600Y-20528300D02*
X27725500Y-20528300D01*
X35645000Y-17963300D02*
X35381000Y-17963300D01*
X17407500Y-74685000D02*
X17407500Y-73383700D01*
X27545000Y-19165000D02*
X27545000Y-20366700D01*
X11044300Y-70069200D02*
X11044300Y-71594300D01*
X12833700Y-73383700D02*
X17407500Y-73383700D01*
X19045000Y-19165000D02*
X19045000Y-20366700D01*
X18287500Y-72503700D02*
X18287500Y-71096200D01*
X11044300Y-71594300D02*
X11045000Y-71595000D01*
X35381000Y-17963300D02*
X35218800Y-17801100D01*
X8428300Y-18000000D02*
X9593300Y-19165000D01*
X35645000Y-19165000D02*
X35645000Y-17963300D01*
X17407500Y-73383700D02*
X18287500Y-72503700D01*
X11045000Y-71595000D02*
X12833700Y-73383700D01*
X19083700Y-20405400D02*
X19083700Y-20539800D01*
X20751300Y-71096200D02*
X20852500Y-70995000D01*
X18287500Y-71096200D02*
X20751300Y-71096200D01*
X19045000Y-20366700D02*
X19083700Y-20405400D01*
%TO.N,+VBAT*%
X15087500Y-63576200D02*
X12126300Y-60615000D01*
X37275200Y-41365000D02*
X37275200Y-37712300D01*
X15701600Y-52851600D02*
X12148800Y-56404400D01*
X37275200Y-37712300D02*
X37387500Y-37600000D01*
D64*
X37675000Y-56365000D02*
X39937500Y-57165000D01*
D63*
X22335000Y-57082200D02*
X22335000Y-58185000D01*
X15087500Y-63698900D02*
X15087500Y-63576200D01*
X12432500Y-64975000D02*
X13811400Y-64975000D01*
D64*
X39937500Y-41365000D02*
X37275200Y-41365000D01*
D63*
X42675000Y-73765000D02*
X42974999Y-74065000D01*
X37387500Y-53400000D02*
X36490900Y-54296600D01*
D64*
X37250000Y-42200000D02*
X37675000Y-45100000D01*
D63*
X36490900Y-54296600D02*
X37675000Y-55480700D01*
D64*
X37275200Y-41365000D02*
X37250000Y-41365000D01*
X37675000Y-45100000D02*
X37675000Y-46750000D01*
X37250000Y-41365000D02*
X37250000Y-42200000D01*
D63*
X12126300Y-60615000D02*
X10595000Y-60615000D01*
X37675000Y-55480700D02*
X37675000Y-56365000D01*
X12148800Y-56404400D02*
X12148800Y-60592500D01*
X25120600Y-54296600D02*
X36490900Y-54296600D01*
X18104400Y-52851600D02*
X15701600Y-52851600D01*
X22335000Y-57082200D02*
X18104400Y-52851600D01*
X13811400Y-64975000D02*
X15087500Y-63698900D01*
X22335000Y-57082200D02*
X25120600Y-54296600D01*
X12148800Y-60592500D02*
X12126300Y-60615000D01*
X15701600Y-52851600D02*
X11695000Y-48845000D01*
D65*
%TO.N,AIN1*%
X44025000Y-31295000D02*
X38602400Y-31295000D01*
X15987500Y-24305000D02*
X14919100Y-25373400D01*
X16201000Y-20451400D02*
X16890900Y-21141300D01*
X15870700Y-20241700D02*
X16080400Y-20451400D01*
X14798400Y-17251700D02*
X15635000Y-18088300D01*
X15635000Y-20241700D02*
X15870700Y-20241700D01*
X11190900Y-24993600D02*
X11190900Y-22780900D01*
X59673300Y-2810000D02*
X59365100Y-2501800D01*
X11845000Y-16175000D02*
X11845000Y-17251700D01*
X11190900Y-22780900D02*
X10295000Y-21885000D01*
X38602400Y-31295000D02*
X38467200Y-31159800D01*
X11845000Y-17251700D02*
X14798400Y-17251700D01*
X28815100Y-31159800D02*
X25317700Y-27662400D01*
X15635000Y-19015000D02*
X15635000Y-19165000D01*
X15635000Y-19015000D02*
X15635000Y-18088300D01*
X12412500Y-12735000D02*
X12412500Y-14530800D01*
X60750000Y-2810000D02*
X59673300Y-2810000D01*
X11845000Y-15636600D02*
X11845000Y-16175000D01*
X59365100Y-2501800D02*
X47341400Y-2501800D01*
X12412500Y-14530800D02*
X11845000Y-15098300D01*
X15635000Y-19165000D02*
X15635000Y-20241700D01*
X16080400Y-20451400D02*
X16201000Y-20451400D01*
X14919100Y-25373400D02*
X11570700Y-25373400D01*
X16890900Y-23401600D02*
X15987500Y-24305000D01*
X11845000Y-15636600D02*
X11845000Y-15098300D01*
X11570700Y-25373400D02*
X11190900Y-24993600D01*
X38467200Y-31159800D02*
X28815100Y-31159800D01*
X16890900Y-21141300D02*
X16890900Y-23401600D01*
%TO.N,AIN1_A*%
X15873400Y-21855000D02*
X15873400Y-22594100D01*
X15873400Y-21780100D02*
X15873400Y-21855000D01*
X12137500Y-24305000D02*
X14162500Y-24305000D01*
X14335000Y-20241700D02*
X15873400Y-21780100D01*
X15873400Y-22594100D02*
X14162500Y-24305000D01*
X15873400Y-21855000D02*
X16027500Y-21855000D01*
X14335000Y-19165000D02*
X14335000Y-20241700D01*
%TO.N,AIN1_IN*%
X12671700Y-18279600D02*
X12447200Y-18055100D01*
X4189100Y-19073300D02*
X3785100Y-18669300D01*
X3785100Y-18669300D02*
X3785100Y-17370200D01*
X5000000Y-20000000D02*
X5000000Y-19073300D01*
X9719800Y-18055100D02*
X7736000Y-16071300D01*
X14202500Y-21855000D02*
X12671700Y-20324200D01*
X11045000Y-8795000D02*
X7736000Y-12104000D01*
X12671700Y-20324200D02*
X12671700Y-18279600D01*
X5000000Y-19073300D02*
X4189100Y-19073300D01*
X12447200Y-18055100D02*
X9719800Y-18055100D01*
X5084000Y-16071300D02*
X7736000Y-16071300D01*
X3785100Y-17370200D02*
X5084000Y-16071300D01*
X7736000Y-12104000D02*
X7736000Y-16071300D01*
%TO.N,AIN1_PU*%
X11845000Y-19165000D02*
X11845000Y-20241700D01*
X11845000Y-20241700D02*
X10390200Y-20241700D01*
X9420900Y-23413400D02*
X10312500Y-24305000D01*
X9420900Y-21211000D02*
X9420900Y-23413400D01*
X10390200Y-20241700D02*
X9420900Y-21211000D01*
%TO.N,AIN1_R1*%
X10545000Y-16175000D02*
X8987000Y-16175000D01*
X9519700Y-25902200D02*
X8985400Y-25902200D01*
X10312500Y-26695000D02*
X9519700Y-25902200D01*
X8987000Y-16175000D02*
X8985400Y-16176600D01*
%TO.N,AIN1_R2*%
X14197200Y-16400500D02*
X13971700Y-16175000D01*
X14162500Y-27851900D02*
X14107300Y-27907100D01*
X13145000Y-16175000D02*
X13971700Y-16175000D01*
X14202000Y-16400500D02*
X14197200Y-16400500D01*
X14162500Y-26695000D02*
X14162500Y-27851900D01*
%TO.N,AIN2*%
X19230100Y-17251700D02*
X20345000Y-17251700D01*
X23632000Y-25347500D02*
X18325600Y-25347500D01*
X58228100Y-3165200D02*
X53317400Y-3165200D01*
X18325600Y-25347500D02*
X17963700Y-24985600D01*
X23632000Y-25347500D02*
X23632000Y-25160500D01*
X20345000Y-14677100D02*
X20912500Y-14109600D01*
X28057800Y-31795000D02*
X23632000Y-27369200D01*
X44025000Y-31795000D02*
X28057800Y-31795000D01*
X59142900Y-4080000D02*
X58228100Y-3165200D01*
X17963700Y-24985600D02*
X17963700Y-22125700D01*
X44696200Y-32466200D02*
X44921200Y-32466200D01*
X23632000Y-27369200D02*
X23632000Y-25347500D01*
X24961700Y-19165000D02*
X25389000Y-19592300D01*
X44025000Y-31795000D02*
X44696200Y-32466200D01*
X20345000Y-16175000D02*
X20345000Y-17251700D01*
X23632000Y-25160500D02*
X24487500Y-24305000D01*
X25389000Y-23403500D02*
X24487500Y-24305000D01*
X25389000Y-19592300D02*
X25389000Y-23403500D01*
X24135000Y-19165000D02*
X24961700Y-19165000D01*
X18204400Y-18277400D02*
X19230100Y-17251700D01*
X60750000Y-4080000D02*
X59142900Y-4080000D01*
X18204400Y-21885000D02*
X18204400Y-18277400D01*
X20345000Y-16175000D02*
X20345000Y-14677100D01*
X20912500Y-14109600D02*
X20912500Y-12735000D01*
X18795000Y-21885000D02*
X18204400Y-21885000D01*
X17963700Y-22125700D02*
X18204400Y-21885000D01*
%TO.N,AIN2_A*%
X24373400Y-21780100D02*
X24373400Y-21855000D01*
X22835000Y-20241700D02*
X24373400Y-21780100D01*
X20637500Y-24305000D02*
X22662500Y-24305000D01*
X22835000Y-19165000D02*
X22835000Y-20241700D01*
X24373400Y-22594100D02*
X22662500Y-24305000D01*
X24373400Y-21855000D02*
X24373400Y-22594100D01*
X24373400Y-21855000D02*
X24527500Y-21855000D01*
%TO.N,AIN2_IN*%
X5000000Y-21073300D02*
X4420800Y-21073300D01*
X9810400Y-7561500D02*
X18311500Y-7561500D01*
X21995800Y-21148300D02*
X21995800Y-18272200D01*
X5000000Y-22000000D02*
X5000000Y-21073300D01*
X22483500Y-11733500D02*
X19545000Y-8795000D01*
X3293300Y-19945800D02*
X3293300Y-14078600D01*
X22483500Y-17784500D02*
X22483500Y-11733500D01*
X21995800Y-18272200D02*
X22483500Y-17784500D01*
X4420800Y-21073300D02*
X3293300Y-19945800D01*
X18311500Y-7561500D02*
X19545000Y-8795000D01*
X22702500Y-21855000D02*
X21995800Y-21148300D01*
X3293300Y-14078600D02*
X9810400Y-7561500D01*
%TO.N,AIN2_PU*%
X19810400Y-20776300D02*
X20345000Y-20241700D01*
X18812500Y-24305000D02*
X19810400Y-23307100D01*
X19810400Y-23307100D02*
X19810400Y-20776300D01*
X20345000Y-19165000D02*
X20345000Y-20241700D01*
%TO.N,AIN2_R1*%
X18218300Y-16175000D02*
X17460300Y-16933000D01*
X19045000Y-16175000D02*
X18218300Y-16175000D01*
X17460300Y-16933000D02*
X17460300Y-25342800D01*
X17460300Y-25342800D02*
X18812500Y-26695000D01*
%TO.N,AIN2_R2*%
X18473800Y-27945500D02*
X21412000Y-27945500D01*
X18261100Y-11092700D02*
X15305100Y-14048700D01*
X15305100Y-14048700D02*
X15305100Y-16199100D01*
X21645000Y-15098300D02*
X22019800Y-14723500D01*
X22019800Y-12429300D02*
X20683200Y-11092700D01*
X21645000Y-16175000D02*
X21645000Y-15098300D01*
X22019800Y-14723500D02*
X22019800Y-12429300D01*
X21412000Y-27945500D02*
X22662500Y-26695000D01*
X20683200Y-11092700D02*
X18261100Y-11092700D01*
%TO.N,AIN3*%
X27295000Y-21885000D02*
X26451000Y-22729000D01*
X36196300Y-5350000D02*
X35990600Y-5555700D01*
X35025700Y-12832900D02*
X33461700Y-14396900D01*
X46275500Y-29876200D02*
X46275500Y-30800100D01*
X32075000Y-25518900D02*
X32075000Y-27351800D01*
X29412500Y-14109600D02*
X28845000Y-14677100D01*
X32987500Y-23765900D02*
X32987500Y-24305000D01*
X26846300Y-25368200D02*
X31924300Y-25368200D01*
X33461700Y-14396900D02*
X33461700Y-19165000D01*
X32075000Y-27351800D02*
X33877000Y-29153800D01*
X26451000Y-24972900D02*
X26846300Y-25368200D01*
X33877000Y-29153800D02*
X45553100Y-29153800D01*
X27732500Y-17251700D02*
X26642000Y-18342200D01*
X45553100Y-29153800D02*
X46275500Y-29876200D01*
X33461700Y-19165000D02*
X33889400Y-19592700D01*
X26642000Y-21232000D02*
X27295000Y-21885000D01*
X33889400Y-19592700D02*
X33889400Y-22864000D01*
X32635000Y-19165000D02*
X33461700Y-19165000D01*
X46275500Y-30800100D02*
X47270400Y-31795000D01*
X26642000Y-18342200D02*
X26642000Y-21232000D01*
X28845000Y-16175000D02*
X28845000Y-17251700D01*
X31924300Y-25368200D02*
X32075000Y-25518900D01*
X47270400Y-31795000D02*
X48425000Y-31795000D01*
X28845000Y-14677100D02*
X28845000Y-16175000D01*
X29412500Y-12735000D02*
X29412500Y-14109600D01*
X26451000Y-22729000D02*
X26451000Y-24972900D01*
X35573000Y-12832900D02*
X35025700Y-12832900D01*
X32987500Y-24305000D02*
X31924300Y-25368200D01*
X33889400Y-22864000D02*
X32987500Y-23765900D01*
X28845000Y-17251700D02*
X27732500Y-17251700D01*
X43250000Y-5350000D02*
X36196300Y-5350000D01*
%TO.N,AIN3_A*%
X31335000Y-19165000D02*
X31335000Y-20241700D01*
X31162500Y-24305000D02*
X31162500Y-23720000D01*
X31162500Y-23720000D02*
X33027500Y-21855000D01*
X31414200Y-20241700D02*
X33027500Y-21855000D01*
X31162500Y-24305000D02*
X29137500Y-24305000D01*
X31335000Y-20241700D02*
X31414200Y-20241700D01*
%TO.N,AIN3_IN*%
X31032100Y-11782100D02*
X28045000Y-8795000D01*
X2841600Y-13812000D02*
X9545300Y-7108300D01*
X2841600Y-21496200D02*
X2841600Y-13812000D01*
X30457500Y-21110000D02*
X30457500Y-18277800D01*
X30457500Y-18277800D02*
X31032100Y-17703200D01*
X5000000Y-23073300D02*
X4418700Y-23073300D01*
X5000000Y-24000000D02*
X5000000Y-23073300D01*
X31202500Y-21855000D02*
X30457500Y-21110000D01*
X4418700Y-23073300D02*
X2841600Y-21496200D01*
X9545300Y-7108300D02*
X26358300Y-7108300D01*
X26358300Y-7108300D02*
X28045000Y-8795000D01*
X31032100Y-17703200D02*
X31032100Y-11782100D01*
%TO.N,AIN3_PU*%
X28159100Y-21174800D02*
X28159100Y-23458400D01*
X28159100Y-23458400D02*
X27312500Y-24305000D01*
X28845000Y-20488900D02*
X28159100Y-21174800D01*
X28845000Y-19165000D02*
X28845000Y-20488900D01*
%TO.N,AIN3_R1*%
X27545000Y-16175000D02*
X26718300Y-16175000D01*
X26718300Y-16175000D02*
X25983800Y-16909500D01*
X25983800Y-16909500D02*
X25983800Y-25366300D01*
X25983800Y-25366300D02*
X27312500Y-26695000D01*
%TO.N,AIN3_R2*%
X29273300Y-11153800D02*
X30523700Y-12404200D01*
X30523700Y-12404200D02*
X30523700Y-14719600D01*
X30523700Y-14719600D02*
X30145000Y-15098300D01*
X29965300Y-27892200D02*
X31162500Y-26695000D01*
X23159600Y-14714100D02*
X26719900Y-11153800D01*
X30145000Y-16175000D02*
X30145000Y-15098300D01*
X26719900Y-11153800D02*
X29273300Y-11153800D01*
X26572600Y-27892200D02*
X29965300Y-27892200D01*
X23159600Y-16683400D02*
X23159600Y-14714100D01*
%TO.N,AIN4*%
X40035000Y-25357500D02*
X34935600Y-25357500D01*
X40735000Y-19165000D02*
X40735000Y-18088300D01*
X42173300Y-6620000D02*
X41915800Y-6362500D01*
X41087500Y-24305000D02*
X40035000Y-25357500D01*
X37512500Y-13838600D02*
X37688300Y-13838600D01*
X37418300Y-17551000D02*
X38001800Y-18134500D01*
X40518800Y-27937000D02*
X40175000Y-27593200D01*
X49159200Y-32361600D02*
X45840600Y-32361600D01*
X36945000Y-16175000D02*
X37418300Y-16175000D01*
X41915800Y-6362500D02*
X37597300Y-6362500D01*
X40318600Y-32614600D02*
X40152300Y-32448300D01*
X43250000Y-6620000D02*
X42173300Y-6620000D01*
X38567100Y-18088300D02*
X40735000Y-18088300D01*
X48425000Y-31295000D02*
X49288700Y-31295000D01*
X37418300Y-15289600D02*
X37418300Y-16175000D01*
X34527200Y-24949100D02*
X34527200Y-23660900D01*
X49477000Y-31483300D02*
X49477000Y-32043800D01*
X35395000Y-21261200D02*
X36003000Y-20653200D01*
X40175000Y-27593200D02*
X40175000Y-25497500D01*
X38001800Y-18134500D02*
X38520900Y-18134500D01*
X37418300Y-16175000D02*
X37418300Y-17551000D01*
X35395000Y-21885000D02*
X35395000Y-21261200D01*
X43950200Y-32614600D02*
X40318600Y-32614600D01*
X49288700Y-31295000D02*
X49477000Y-31483300D01*
X37512500Y-12735000D02*
X37512500Y-13838600D01*
X35395000Y-22793100D02*
X35395000Y-21885000D01*
X49477000Y-32043800D02*
X49159200Y-32361600D01*
X38520900Y-18134500D02*
X38567100Y-18088300D01*
X37597300Y-6362500D02*
X37197400Y-6762400D01*
X37512500Y-15195400D02*
X37418300Y-15289600D01*
X34935600Y-25357500D02*
X34527200Y-24949100D01*
X37512500Y-13838600D02*
X37512500Y-15195400D01*
X40175000Y-25497500D02*
X40035000Y-25357500D01*
X34527200Y-23660900D02*
X35395000Y-22793100D01*
%TO.N,AIN4_A*%
X39435000Y-19165000D02*
X39435000Y-20241700D01*
X40973400Y-21780100D02*
X40973400Y-21855000D01*
X37237500Y-24305000D02*
X39262500Y-24305000D01*
X40973400Y-21855000D02*
X40973400Y-22594100D01*
X39435000Y-20241700D02*
X40973400Y-21780100D01*
X40973400Y-21855000D02*
X41127500Y-21855000D01*
X40973400Y-22594100D02*
X39262500Y-24305000D01*
%TO.N,AIN4_IN*%
X32513300Y-5163300D02*
X36145000Y-8795000D01*
X39543200Y-11955900D02*
X39894700Y-11955900D01*
X36145000Y-8795000D02*
X36382300Y-8795000D01*
X16019700Y-5163300D02*
X32513300Y-5163300D01*
X38134300Y-20871700D02*
X39117600Y-21855000D01*
X39894700Y-11955900D02*
X40069800Y-12131000D01*
X39117600Y-21855000D02*
X39302500Y-21855000D01*
X36382300Y-8795000D02*
X39543200Y-11955900D01*
%TO.N,AIN4_PU*%
X36945000Y-20653200D02*
X36345000Y-21253200D01*
X36345000Y-21253200D02*
X36345000Y-23372500D01*
X36945000Y-19165000D02*
X36945000Y-20653200D01*
X36345000Y-23372500D02*
X35412500Y-24305000D01*
%TO.N,AIN4_R1*%
X34818300Y-16175000D02*
X34492100Y-16501200D01*
X34492100Y-16501200D02*
X34492100Y-22900100D01*
X34075500Y-25358000D02*
X35412500Y-26695000D01*
X35645000Y-16175000D02*
X34818300Y-16175000D01*
X34075500Y-23316700D02*
X34075500Y-25358000D01*
X34492100Y-22900100D02*
X34075500Y-23316700D01*
%TO.N,AIN4_R2*%
X38261300Y-17268000D02*
X38261300Y-17466700D01*
X34630200Y-27740300D02*
X34572200Y-27682300D01*
X38245000Y-16175000D02*
X38245000Y-17251700D01*
X38217200Y-27740300D02*
X34630200Y-27740300D01*
X39262500Y-26695000D02*
X38217200Y-27740300D01*
X38245000Y-17251700D02*
X38261300Y-17268000D01*
%TO.N,BST_3V3*%
X46626800Y-57165000D02*
X46935500Y-57473700D01*
X45062500Y-57165000D02*
X46626800Y-57165000D01*
X41050000Y-53400000D02*
X41050000Y-54567800D01*
X41050000Y-54567800D02*
X40944900Y-54672900D01*
%TO.N,BST_5V*%
X47802000Y-43724300D02*
X45442700Y-41365000D01*
X42138500Y-36511500D02*
X49687200Y-36511500D01*
X51124500Y-46106800D02*
X48900600Y-46106800D01*
X47802000Y-45008200D02*
X47802000Y-43724300D01*
X51496500Y-45734800D02*
X51124500Y-46106800D01*
X49687200Y-36511500D02*
X51496500Y-38320800D01*
X41050000Y-37600000D02*
X42138500Y-36511500D01*
X51496500Y-38320800D02*
X51496500Y-45734800D01*
X45442700Y-41365000D02*
X45062500Y-41365000D01*
X48900600Y-46106800D02*
X47802000Y-45008200D01*
%TO.N,CANH_T*%
X14668300Y-28387400D02*
X16800700Y-28387400D01*
X15288700Y-30310000D02*
X14400400Y-29421700D01*
X15720000Y-30310000D02*
X15288700Y-30310000D01*
X18360000Y-28945000D02*
X17358300Y-28945000D01*
X14400400Y-28655300D02*
X14668300Y-28387400D01*
X14400400Y-29421700D02*
X14400400Y-28655300D01*
X16800700Y-28387400D02*
X17358300Y-28945000D01*
%TO.N,CANL_T*%
X15720000Y-31580000D02*
X17223300Y-31580000D01*
X18360000Y-31445000D02*
X17358300Y-31445000D01*
X17223300Y-31580000D02*
X17358300Y-31445000D01*
%TO.N,CAN_H*%
X5000000Y-53073300D02*
X5579200Y-53073300D01*
X9428700Y-31239400D02*
X9723100Y-30945000D01*
X7015700Y-51636800D02*
X7015700Y-42077600D01*
X29860100Y-34893400D02*
X23911700Y-28945000D01*
X12285700Y-30945000D02*
X13562400Y-32221700D01*
X21908300Y-30222100D02*
X21908300Y-28945000D01*
X10545000Y-39375000D02*
X9718300Y-39375000D01*
X29860100Y-35826500D02*
X29860100Y-34893400D01*
X26868100Y-36476800D02*
X29209800Y-36476800D01*
X7015700Y-42077600D02*
X9718300Y-39375000D01*
X5579200Y-53073300D02*
X7015700Y-51636800D01*
X22910000Y-28945000D02*
X21908300Y-28945000D01*
X25777500Y-35386200D02*
X26868100Y-36476800D01*
X11045000Y-35885000D02*
X9428700Y-34268700D01*
X22910000Y-28945000D02*
X23911700Y-28945000D01*
X29209800Y-36476800D02*
X29860100Y-35826500D01*
X13562400Y-32221700D02*
X19908700Y-32221700D01*
X11045000Y-35885000D02*
X10545000Y-36385000D01*
X19908700Y-32221700D02*
X21908300Y-30222100D01*
X5000000Y-54000000D02*
X5000000Y-53073300D01*
X10545000Y-36385000D02*
X10545000Y-39375000D01*
X9428700Y-34268700D02*
X9428700Y-31239400D01*
X9723100Y-30945000D02*
X12285700Y-30945000D01*
%TO.N,CAN_L*%
X11176000Y-46876500D02*
X15987500Y-42065000D01*
X8706800Y-48033900D02*
X9864200Y-46876500D01*
X18535000Y-35885000D02*
X18535000Y-34034400D01*
X8706800Y-51945700D02*
X8706800Y-48033900D01*
X21908300Y-31445000D02*
X19318900Y-34034400D01*
X18535000Y-34034400D02*
X18106900Y-34034400D01*
X5000000Y-55073300D02*
X5579200Y-55073300D01*
X22910000Y-31445000D02*
X21908300Y-31445000D01*
X24828800Y-31445000D02*
X22910000Y-31445000D01*
X16680000Y-41372500D02*
X18106900Y-41372500D01*
X15987500Y-42065000D02*
X16680000Y-41372500D01*
X9864200Y-46876500D02*
X11176000Y-46876500D01*
X5579200Y-55073300D02*
X8706800Y-51945700D01*
X28770000Y-35386200D02*
X24828800Y-31445000D01*
X5000000Y-56000000D02*
X5000000Y-55073300D01*
X19318900Y-34034400D02*
X18535000Y-34034400D01*
%TO.N,CAN_RX*%
X10770000Y-32850000D02*
X11123400Y-33203400D01*
X44326700Y-14240000D02*
X44513900Y-14240000D01*
X43250000Y-14240000D02*
X44326700Y-14240000D01*
X11123400Y-33203400D02*
X12474700Y-33203400D01*
%TO.N,CAN_S*%
X55175000Y-18223300D02*
X46374700Y-18223300D01*
X33030000Y-38479200D02*
X34287700Y-38479200D01*
X26629800Y-38067200D02*
X26649700Y-38047300D01*
X17577800Y-30277200D02*
X20950300Y-30277200D01*
X34287700Y-38479200D02*
X35337100Y-37429800D01*
X35337100Y-37429800D02*
X35337100Y-37168200D01*
X16340600Y-29040000D02*
X17577800Y-30277200D01*
X15720000Y-29040000D02*
X16340600Y-29040000D01*
X26649700Y-38047300D02*
X32598100Y-38047300D01*
X46374700Y-18223300D02*
X46198900Y-18047500D01*
X25772500Y-38924500D02*
X26629800Y-38067200D01*
X55175000Y-19300000D02*
X55175000Y-18223300D01*
X25772500Y-39075000D02*
X25772500Y-38924500D01*
X32598100Y-38047300D02*
X33030000Y-38479200D01*
%TO.N,CAN_SPLIT*%
X21865000Y-39105000D02*
X21865000Y-39484000D01*
X20728400Y-40620600D02*
X15606900Y-40620600D01*
X21865000Y-39484000D02*
X20728400Y-40620600D01*
X14162500Y-42065000D02*
X12137500Y-42065000D01*
X15606900Y-40620600D02*
X14162500Y-42065000D01*
%TO.N,CAN_TX*%
X28340200Y-6953800D02*
X27954300Y-6567900D01*
X34567400Y-9721200D02*
X35375900Y-10529700D01*
X35375900Y-10529700D02*
X37478200Y-10529700D01*
X4374100Y-25000000D02*
X6730000Y-25000000D01*
X39918500Y-12970000D02*
X43250000Y-12970000D01*
X6730000Y-25000000D02*
X10770000Y-29040000D01*
X9398600Y-6567900D02*
X2372300Y-13594200D01*
X2372300Y-13594200D02*
X2372300Y-22998200D01*
X37478200Y-10529700D02*
X39918500Y-12970000D01*
X27954300Y-6567900D02*
X9398600Y-6567900D01*
X34567400Y-8463500D02*
X34567400Y-9721200D01*
X34024300Y-7920400D02*
X34567400Y-8463500D01*
X2372300Y-22998200D02*
X4374100Y-25000000D01*
%TO.N,EN_3V3*%
X27556900Y-56543400D02*
X27556900Y-59877000D01*
X33550000Y-55700000D02*
X28400300Y-55700000D01*
X38487200Y-58552500D02*
X39820000Y-58552500D01*
X39212500Y-53718000D02*
X39212500Y-53400000D01*
X28400300Y-55700000D02*
X27556900Y-56543400D01*
X27864400Y-60184500D02*
X36855200Y-60184500D01*
X40084500Y-54590000D02*
X39212500Y-53718000D01*
X39820000Y-58552500D02*
X39937500Y-58435000D01*
X27556900Y-59877000D02*
X27864400Y-60184500D01*
X36855200Y-60184500D02*
X38487200Y-58552500D01*
%TO.N,EN_5V*%
X38675000Y-37331300D02*
X38675000Y-37600000D01*
X36925100Y-36524900D02*
X37868600Y-36524900D01*
X38393100Y-42693000D02*
X39879500Y-42693000D01*
X37868600Y-36524900D02*
X38675000Y-37331300D01*
X33550000Y-39900000D02*
X36925100Y-36524900D01*
X38675000Y-38346200D02*
X38109200Y-38912000D01*
X39879500Y-42693000D02*
X39937500Y-42635000D01*
X38675000Y-37600000D02*
X38675000Y-38346200D01*
X39212500Y-37600000D02*
X38675000Y-37600000D01*
%TO.N,FB_3V3*%
X45062500Y-62034600D02*
X45062500Y-59705000D01*
X47412500Y-64000000D02*
X45447100Y-62034600D01*
X43552900Y-62034600D02*
X41587500Y-64000000D01*
X45062500Y-62034600D02*
X43552900Y-62034600D01*
X41587500Y-66662500D02*
X41450000Y-66800000D01*
X45447100Y-62034600D02*
X45062500Y-62034600D01*
X41587500Y-64000000D02*
X41587500Y-66662500D01*
%TO.N,FB_5V*%
X41587500Y-48200000D02*
X41587500Y-50862500D01*
X44598000Y-44369500D02*
X45062500Y-43905000D01*
X41587500Y-48200000D02*
X44402000Y-45385500D01*
X44598000Y-45385500D02*
X44598000Y-44369500D01*
X41587500Y-50862500D02*
X41450000Y-51000000D01*
X44402000Y-45385500D02*
X44598000Y-45385500D01*
X44598000Y-45385500D02*
X47412500Y-48200000D01*
%TO.N,GATE_RB*%
X12090700Y-55149500D02*
X11500500Y-55149500D01*
X11500500Y-55149500D02*
X10595000Y-56055000D01*
X12432500Y-64025000D02*
X13688700Y-64025000D01*
D62*
%TO.N,GND*%
X57450000Y-66200000D02*
X58450000Y-66200000D01*
X35450000Y-39900000D02*
X36450000Y-39900000D01*
X66820000Y-26795000D02*
X67751000Y-27495000D01*
X22535000Y-35885000D02*
X24285000Y-35885000D01*
X72377500Y-21875000D02*
X73390000Y-21875000D01*
X29135000Y-58185000D02*
X30885000Y-58185000D01*
X45237500Y-21795000D02*
X46250000Y-21795000D01*
X32987500Y-26695000D02*
X34000000Y-26695000D01*
X43412500Y-48200000D02*
X44425000Y-48200000D01*
X10157500Y-64025000D02*
X8995000Y-64025000D01*
X74675000Y-26625000D02*
X75675000Y-26625000D01*
X19875000Y-39105000D02*
X20741000Y-39717500D01*
D63*
X43150000Y-58450000D02*
X42500000Y-57800000D01*
D62*
X81150000Y-65400000D02*
X82500000Y-65400000D01*
X61637500Y-56575000D02*
X62650000Y-56575000D01*
X23545000Y-8795000D02*
X25295000Y-8795000D01*
X53620000Y-22595000D02*
X54695000Y-22595000D01*
X68527500Y-21875000D02*
X69540000Y-21875000D01*
X11895000Y-67195000D02*
X12761000Y-67807500D01*
X29195000Y-21885000D02*
X30061000Y-22497500D01*
X20637500Y-26695000D02*
X21650000Y-26695000D01*
X10537500Y-11785000D02*
X11775000Y-11785000D01*
X35350000Y-42200000D02*
X36216000Y-42812500D01*
X29137500Y-26695000D02*
X30150000Y-26695000D01*
X64695000Y-21905000D02*
X65561000Y-22517500D01*
X23802500Y-70995000D02*
X24877500Y-70995000D01*
X27537500Y-11785000D02*
X28775000Y-11785000D01*
X37545000Y-77135000D02*
X38345000Y-77135000D01*
X41087500Y-26695000D02*
X42100000Y-26695000D01*
X74850000Y-58400000D02*
X76200000Y-58400000D01*
X33637500Y-77135000D02*
X34514300Y-77735000D01*
D63*
X51200000Y-9260000D02*
X50500000Y-9260000D01*
D62*
X20095000Y-48845000D02*
X22795000Y-48845000D01*
X19577500Y-67165000D02*
X20590000Y-67165000D01*
X32037500Y-70595000D02*
X33275000Y-70595000D01*
X65695000Y-29415000D02*
X66561000Y-30027500D01*
X44025000Y-30795000D02*
X45250000Y-30795000D01*
X40145000Y-8795000D02*
X41895000Y-8795000D01*
X37237500Y-26695000D02*
X38250000Y-26695000D01*
X39937500Y-40095000D02*
X38735900Y-40495000D01*
X52975000Y-63600000D02*
X53906000Y-64300000D01*
X43250000Y-1540000D02*
X44500000Y-1540000D01*
X60750000Y-1540000D02*
X62000000Y-1540000D01*
X42632500Y-71096200D02*
X43882500Y-71096200D01*
X45237500Y-24185000D02*
X46250000Y-24185000D01*
X23765000Y-39105000D02*
X24631000Y-39717500D01*
X34725000Y-45100000D02*
X35800000Y-45100000D01*
X45695000Y-34015000D02*
X46695000Y-34015000D01*
X15045000Y-35885000D02*
X16560500Y-36585000D01*
X45237500Y-26575000D02*
X46250000Y-26575000D01*
X58035000Y-22425000D02*
X59035000Y-22425000D01*
X35637500Y-11785000D02*
X36875000Y-11785000D01*
X81150000Y-58400000D02*
X82500000Y-58400000D01*
X41377500Y-74685000D02*
X42390000Y-74685000D01*
X70785000Y-26625000D02*
X71651000Y-27237500D01*
X15985000Y-39105000D02*
X16851000Y-39717500D01*
X12195000Y-21885000D02*
X13061000Y-22497500D01*
D63*
X43150000Y-42650000D02*
X42500000Y-42000000D01*
D62*
X58457500Y-72495000D02*
X59464300Y-72895000D01*
X57975000Y-47800000D02*
X59050000Y-47800000D01*
X44025000Y-29795000D02*
X45250000Y-29795000D01*
X35450000Y-55700000D02*
X36450000Y-55700000D01*
X19037500Y-11785000D02*
X20275000Y-11785000D01*
X33695000Y-74715000D02*
X34561000Y-75327500D01*
X69650000Y-38675000D02*
X71025000Y-38675000D01*
X27597500Y-39075000D02*
X28610000Y-39075000D01*
X57450000Y-50400000D02*
X58450000Y-50400000D01*
X69585000Y-29415000D02*
X70451000Y-30027500D01*
X39937500Y-55895000D02*
X38550000Y-55895000D01*
X24487500Y-26695000D02*
X25500000Y-26695000D01*
X43412500Y-64000000D02*
X44425000Y-64000000D01*
X62957500Y-15945000D02*
X64070000Y-15945000D01*
X64387500Y-51995000D02*
X65625000Y-51995000D01*
X37295000Y-21885000D02*
X38161000Y-22497500D01*
X20695000Y-21885000D02*
X21561000Y-22497500D01*
X39412500Y-64000000D02*
X40425000Y-64000000D01*
X80045000Y-4750000D02*
X81270000Y-4750000D01*
X15045000Y-71595000D02*
X16795000Y-71595000D01*
X10770000Y-30310000D02*
X12245000Y-30310000D01*
X15987500Y-26695000D02*
X17000000Y-26695000D01*
X80450000Y-46575000D02*
X81725000Y-46575000D01*
X65820000Y-19285000D02*
X66751000Y-19985000D01*
X74850000Y-65400000D02*
X76200000Y-65400000D01*
X39412500Y-48200000D02*
X40425000Y-48200000D01*
X12137500Y-26695000D02*
X13150000Y-26695000D01*
X52975000Y-47800000D02*
X53906000Y-48500000D01*
X32045000Y-8795000D02*
X33795000Y-8795000D01*
X80045000Y-11250000D02*
X81270000Y-11250000D01*
X57975000Y-63600000D02*
X59050000Y-63600000D01*
X15045000Y-8795000D02*
X16795000Y-8795000D01*
X58457500Y-70595000D02*
X57295000Y-70595000D01*
D65*
%TO.N,I2C_SCL*%
X73227400Y-30610000D02*
X73337500Y-30720100D01*
X48425000Y-29392200D02*
X48172900Y-29140100D01*
X48425000Y-29795000D02*
X48425000Y-29392200D01*
X60750000Y-11700000D02*
X58358200Y-11700000D01*
X73337500Y-30720100D02*
X73337500Y-31835000D01*
%TO.N,I2C_SDA*%
X69487500Y-31660400D02*
X69487500Y-31835000D01*
X68519800Y-30692700D02*
X69487500Y-31660400D01*
X50078300Y-30295000D02*
X50284700Y-30088600D01*
X58059700Y-12970000D02*
X56566400Y-14463300D01*
X48425000Y-30295000D02*
X50078300Y-30295000D01*
X50284700Y-30088600D02*
X50311200Y-30088600D01*
X60750000Y-12970000D02*
X58059700Y-12970000D01*
%TO.N,IO15*%
X39865700Y-11000800D02*
X38464500Y-9599600D01*
X43250000Y-10430000D02*
X40539900Y-10430000D01*
X36372600Y-2161900D02*
X35359800Y-1149100D01*
X40539900Y-10430000D02*
X39969100Y-11000800D01*
X35359800Y-1149100D02*
X17620000Y-1149100D01*
X39468400Y-6989200D02*
X40035500Y-6989200D01*
X38464500Y-7993100D02*
X39468400Y-6989200D01*
X38464500Y-9599600D02*
X38464500Y-7993100D01*
X39969100Y-11000800D02*
X39865700Y-11000800D01*
%TO.N,IO16*%
X36937900Y-7389100D02*
X37222000Y-7389100D01*
X43250000Y-11700000D02*
X42173300Y-11700000D01*
X36570700Y-7021900D02*
X36937900Y-7389100D01*
X37222000Y-7389100D02*
X38012800Y-8179900D01*
X38012800Y-9786700D02*
X39730300Y-11504200D01*
X41977500Y-11504200D02*
X42173300Y-11700000D01*
X39730300Y-11504200D02*
X41977500Y-11504200D01*
X36570700Y-7021800D02*
X36570700Y-7021900D01*
X38012800Y-8179900D02*
X38012800Y-9786700D01*
X21871600Y-4711600D02*
X34260300Y-4711600D01*
X36570500Y-7021800D02*
X36570700Y-7021800D01*
X20160000Y-3000000D02*
X21871600Y-4711600D01*
X34260300Y-4711600D02*
X36570500Y-7021800D01*
%TO.N,IO3*%
X45462700Y-17897000D02*
X46345300Y-17014400D01*
X45015000Y-20376700D02*
X44830800Y-20376700D01*
X11985600Y-1823300D02*
X24128500Y-1823300D01*
X46345300Y-17014400D02*
X46504200Y-17014400D01*
X10000000Y-3000000D02*
X11176700Y-3000000D01*
X24128500Y-1823300D02*
X26481900Y-4176700D01*
X45462700Y-19390600D02*
X45462700Y-17897000D01*
X11176700Y-2632200D02*
X11985600Y-1823300D01*
X26481900Y-4176700D02*
X41964600Y-4176700D01*
X11176700Y-3000000D02*
X11176700Y-2632200D01*
X44830800Y-20376700D02*
X43412500Y-21795000D01*
X45015000Y-19838300D02*
X45462700Y-19390600D01*
X45015000Y-19300000D02*
X45015000Y-19838300D01*
X45015000Y-19838300D02*
X45015000Y-20376700D01*
%TO.N,IO45*%
X42621200Y-25215000D02*
X43412500Y-24423700D01*
X43412500Y-24423700D02*
X43412500Y-24185000D01*
X30045100Y-7772400D02*
X28300300Y-6027600D01*
X58985000Y-18223300D02*
X57945400Y-17183700D01*
X43412500Y-24185000D02*
X41972800Y-22745300D01*
X28300300Y-6027600D02*
X15567600Y-6027600D01*
X37268100Y-11065800D02*
X31778100Y-11065800D01*
X30045100Y-9332800D02*
X30045100Y-7772400D01*
X41972800Y-15770500D02*
X37268100Y-11065800D01*
X41972800Y-22745300D02*
X41972800Y-15770500D01*
X57945400Y-17183700D02*
X48755000Y-17183700D01*
X15567600Y-6027600D02*
X12540000Y-3000000D01*
X58985000Y-19300000D02*
X58985000Y-18223300D01*
X31778100Y-11065800D02*
X30045100Y-9332800D01*
%TO.N,IO46*%
X41423800Y-28563700D02*
X43412500Y-26575000D01*
X44268000Y-25719500D02*
X43412500Y-26575000D01*
X34268900Y-28563700D02*
X41423800Y-28563700D01*
X34194200Y-28489000D02*
X34268900Y-28563700D01*
X45882300Y-23063800D02*
X44772400Y-23063800D01*
X46285000Y-20376700D02*
X46902000Y-20993700D01*
X44772400Y-23063800D02*
X44268000Y-23568200D01*
X46902000Y-20993700D02*
X46902000Y-22044100D01*
X46902000Y-22044100D02*
X45882300Y-23063800D01*
X44268000Y-23568200D02*
X44268000Y-25719500D01*
X46285000Y-19300000D02*
X46285000Y-20376700D01*
D63*
%TO.N,LED_5V*%
X70500000Y-75597500D02*
X65877500Y-70975000D01*
X70500000Y-81500000D02*
X70500000Y-75597500D01*
D65*
%TO.N,LED_DIN*%
X60732500Y-72562800D02*
X59773600Y-73521700D01*
X59475800Y-73521700D02*
X58312500Y-74685000D01*
X59773600Y-73521700D02*
X59475800Y-73521700D01*
X60732500Y-72495000D02*
X60732500Y-72562800D01*
%TO.N,LED_DIN_A*%
X56636200Y-69965800D02*
X56636200Y-70825400D01*
X66585600Y-67254100D02*
X59347900Y-67254100D01*
X69777500Y-70795000D02*
X69777500Y-70446000D01*
X59347900Y-67254100D02*
X56636200Y-69965800D01*
X57355800Y-71545000D02*
X58457500Y-71545000D01*
X56636200Y-70825400D02*
X57355800Y-71545000D01*
X69777500Y-70446000D02*
X66585600Y-67254100D01*
%TO.N,LED_DIN_J*%
X68865000Y-71440500D02*
X73040000Y-75615500D01*
X59461400Y-67785300D02*
X66478000Y-67785300D01*
X73040000Y-75615500D02*
X73040000Y-81500000D01*
X61722300Y-72095900D02*
X61022200Y-71395800D01*
X59038100Y-68208600D02*
X59461400Y-67785300D01*
X59447300Y-70647600D02*
X59447300Y-69208300D01*
X68865000Y-70172300D02*
X68865000Y-71440500D01*
X59447300Y-69208300D02*
X59038100Y-68799100D01*
X60137500Y-74685000D02*
X61722300Y-73100200D01*
X60195500Y-71395800D02*
X59447300Y-70647600D01*
X59038100Y-68799100D02*
X59038100Y-68208600D01*
X61722300Y-73100200D02*
X61722300Y-72095900D01*
X66478000Y-67785300D02*
X68865000Y-70172300D01*
X61022200Y-71395800D02*
X60195500Y-71395800D01*
%TO.N,LED_DIN_MCU*%
X59675400Y-68513000D02*
X65670500Y-68513000D01*
X57715000Y-19300000D02*
X57715000Y-18223300D01*
X57506800Y-18015100D02*
X57498000Y-18015100D01*
X57715000Y-18223300D02*
X57506800Y-18015100D01*
X65670500Y-68513000D02*
X67952500Y-70795000D01*
%TO.N,MCU_BOOT*%
X63466200Y-30703400D02*
X62965100Y-30202300D01*
X62965100Y-24414800D02*
X61826700Y-23276400D01*
X65637500Y-31835000D02*
X64505900Y-30703400D01*
X74850000Y-61600000D02*
X73673300Y-61600000D01*
X69830700Y-33599800D02*
X67402300Y-33599800D01*
X70431500Y-33373200D02*
X70057300Y-33373200D01*
X67402300Y-33599800D02*
X65637500Y-31835000D01*
X60750000Y-18050000D02*
X61826700Y-18050000D01*
X70057300Y-33373200D02*
X69830700Y-33599800D01*
X73673300Y-36615000D02*
X70431500Y-33373200D01*
X64505900Y-30703400D02*
X63466200Y-30703400D01*
X62965100Y-30202300D02*
X62965100Y-24414800D01*
X61826700Y-23276400D02*
X61826700Y-18050000D01*
X73673300Y-61600000D02*
X73673300Y-36615000D01*
X81150000Y-61600000D02*
X74850000Y-61600000D01*
%TO.N,MCU_EN*%
X78548300Y-38701900D02*
X79701700Y-37548500D01*
X75501300Y-25517900D02*
X76326500Y-26343100D01*
X68885000Y-25847500D02*
X68885000Y-26625000D01*
X79051700Y-54600000D02*
X79051700Y-45297600D01*
X76326500Y-26343100D02*
X76326500Y-27685200D01*
X74626700Y-29385000D02*
X73417500Y-29385000D01*
X79051700Y-45297600D02*
X78548300Y-44794200D01*
X43250000Y-4080000D02*
X58097800Y-4080000D01*
X79701700Y-37548500D02*
X79701700Y-34460000D01*
X68885000Y-25847500D02*
X69214600Y-25517900D01*
X81150000Y-54600000D02*
X79051700Y-54600000D01*
X69214600Y-25517900D02*
X75501300Y-25517900D01*
X79051700Y-54600000D02*
X74850000Y-54600000D01*
X68319000Y-25281500D02*
X68885000Y-25847500D01*
X78548300Y-44794200D02*
X78548300Y-38701900D01*
X79701700Y-34460000D02*
X74626700Y-29385000D01*
X76326500Y-27685200D02*
X74626700Y-29385000D01*
%TO.N,PG_3V3*%
X48257200Y-64737700D02*
X47266700Y-65728200D01*
X43587500Y-66800000D02*
X39640000Y-70747500D01*
X44659300Y-65728200D02*
X43587500Y-66800000D01*
X45062500Y-58435000D02*
X45443700Y-58435000D01*
X39640000Y-70747500D02*
X39640000Y-71096200D01*
X48257200Y-61248500D02*
X48257200Y-64737700D01*
X45443700Y-58435000D02*
X48257200Y-61248500D01*
X47266700Y-65728200D02*
X44659300Y-65728200D01*
%TO.N,PG_5V*%
X44666400Y-49921100D02*
X46280300Y-49921100D01*
X45798400Y-42635000D02*
X46539300Y-43375900D01*
X46280300Y-49921100D02*
X46539300Y-50180100D01*
X45062500Y-42635000D02*
X45798400Y-42635000D01*
X43587500Y-51000000D02*
X44666400Y-49921100D01*
X36647500Y-71096200D02*
X36982800Y-71096200D01*
X36982800Y-71096200D02*
X37856300Y-70222700D01*
%TO.N,PWR_LED_K*%
X36708200Y-73654300D02*
X38521800Y-73654300D01*
X38521800Y-73654300D02*
X39552500Y-74685000D01*
X35677500Y-74685000D02*
X36708200Y-73654300D01*
%TO.N,RAMP_3V3*%
X46612500Y-53400000D02*
X50774100Y-53400000D01*
X40107500Y-72174400D02*
X39193400Y-72174400D01*
X51738200Y-54364100D02*
X51738200Y-64911800D01*
X38554100Y-67795900D02*
X39550000Y-66800000D01*
X50050000Y-66600000D02*
X48822300Y-67827700D01*
X51738200Y-64911800D02*
X50050000Y-66600000D01*
X39193400Y-72174400D02*
X38554100Y-71535100D01*
X38554100Y-71535100D02*
X38554100Y-67795900D01*
X44378300Y-67827700D02*
X41119600Y-71086400D01*
X48822300Y-67827700D02*
X44378300Y-67827700D01*
X41119600Y-71162300D02*
X40107500Y-72174400D01*
X41119600Y-71086400D02*
X41119600Y-71162300D01*
X50774100Y-53400000D02*
X51738200Y-54364100D01*
%TO.N,RAMP_5V*%
X50050000Y-50800000D02*
X48770800Y-52079200D01*
X47810500Y-52079200D02*
X40629200Y-52079200D01*
X48770800Y-52079200D02*
X47810500Y-52079200D01*
X46612500Y-37600000D02*
X47810500Y-37600000D01*
X40629200Y-52079200D02*
X39550000Y-51000000D01*
%TO.N,RON_3V3*%
X39937500Y-59705000D02*
X37587500Y-62055000D01*
X37587500Y-62055000D02*
X37587500Y-64000000D01*
%TO.N,RON_5V*%
X39937500Y-45850000D02*
X39937500Y-43905000D01*
X37587500Y-48200000D02*
X39937500Y-45850000D01*
%TO.N,SD_CD*%
X61037500Y-34155000D02*
X61037500Y-34268700D01*
X53206300Y-15510000D02*
X53675200Y-15978900D01*
X61037500Y-34155000D02*
X59968700Y-33086200D01*
X59968700Y-33086200D02*
X55467200Y-33086200D01*
X78875000Y-35350000D02*
X78875000Y-34298300D01*
X61037500Y-34268700D02*
X63693900Y-36925100D01*
X55467200Y-33086200D02*
X55292800Y-32911800D01*
X43250000Y-15510000D02*
X53206300Y-15510000D01*
X63693900Y-36925100D02*
X67849400Y-36925100D01*
X72243200Y-34298300D02*
X71979200Y-34034300D01*
X78875000Y-34298300D02*
X72243200Y-34298300D01*
%TO.N,SD_CLK*%
X55228200Y-20634800D02*
X54163100Y-20634800D01*
X50612500Y-25635000D02*
X51597300Y-26619800D01*
X54163100Y-20634800D02*
X53905000Y-20376700D01*
X52169400Y-29851800D02*
X53256500Y-29851800D01*
X53905000Y-19300000D02*
X53905000Y-20376700D01*
X51597300Y-26619800D02*
X51597300Y-29279700D01*
X51597300Y-29279700D02*
X52169400Y-29851800D01*
%TO.N,SD_CLK_C*%
X54180600Y-27378100D02*
X52437500Y-25635000D01*
X68448300Y-39775000D02*
X66725000Y-38051700D01*
X66725000Y-38051700D02*
X65527300Y-38051700D01*
X69650000Y-39775000D02*
X68448300Y-39775000D01*
X60304200Y-27378100D02*
X54180600Y-27378100D01*
%TO.N,SD_CMD*%
X52635000Y-19300000D02*
X52635000Y-20376700D01*
X52635000Y-20376700D02*
X52403700Y-20376700D01*
X53853800Y-24576300D02*
X54912500Y-25635000D01*
X52403700Y-20376700D02*
X52205400Y-20575000D01*
X50711000Y-24576300D02*
X53853800Y-24576300D01*
X50536500Y-24401800D02*
X50711000Y-24576300D01*
%TO.N,SD_CMD_C*%
X67737400Y-41264100D02*
X63384000Y-41264100D01*
X56737500Y-25635000D02*
X56737500Y-25715300D01*
X57703600Y-26681400D02*
X58452800Y-26681400D01*
X69650000Y-41975000D02*
X68448300Y-41975000D01*
X68448300Y-41975000D02*
X67737400Y-41264100D01*
X52437500Y-31315000D02*
X52506100Y-31246400D01*
X56737500Y-25715300D02*
X57703600Y-26681400D01*
X56737500Y-25715300D02*
X55771400Y-26681400D01*
X55771400Y-26681400D02*
X55770200Y-26681400D01*
X52506100Y-31246400D02*
X53668200Y-31246400D01*
%TO.N,SD_D0*%
X52088800Y-21344600D02*
X56635500Y-21344600D01*
X51365000Y-19300000D02*
X51365000Y-20376700D01*
X51365000Y-20376700D02*
X51365000Y-20620800D01*
X57060800Y-23483300D02*
X59212500Y-25635000D01*
X57060800Y-21769900D02*
X57060800Y-23483300D01*
X56635500Y-21344600D02*
X57060800Y-21769900D01*
X51365000Y-20620800D02*
X52088800Y-21344600D01*
%TO.N,SD_D0_C*%
X67972200Y-34298300D02*
X69771000Y-34298300D01*
X61995000Y-26592500D02*
X61995000Y-32169100D01*
X61037500Y-25635000D02*
X61995000Y-26592500D01*
X61995000Y-32169100D02*
X62411000Y-32585100D01*
X69650000Y-37575000D02*
X70851700Y-37575000D01*
X70192700Y-33876600D02*
X70296100Y-33876600D01*
X66651000Y-35619500D02*
X67972200Y-34298300D01*
X56774100Y-31351600D02*
X58183300Y-31351600D01*
X56737500Y-31315000D02*
X56774100Y-31351600D01*
X71304900Y-37121800D02*
X70851700Y-37575000D01*
X71304900Y-34885400D02*
X71304900Y-37121800D01*
X62803000Y-33978900D02*
X62803000Y-34756600D01*
X65786900Y-37425000D02*
X59816600Y-37425000D01*
X70296100Y-33876600D02*
X71304900Y-34885400D01*
X62803000Y-34756600D02*
X63665900Y-35619500D01*
X63665900Y-35619500D02*
X66651000Y-35619500D01*
X62411000Y-32585100D02*
X62411000Y-33586900D01*
X69650000Y-37575000D02*
X65936900Y-37575000D01*
X59816600Y-37425000D02*
X58494800Y-36103200D01*
X65936900Y-37575000D02*
X65786900Y-37425000D01*
X69771000Y-34298300D02*
X70192700Y-33876600D01*
X62411000Y-33586900D02*
X62803000Y-33978900D01*
%TO.N,SD_D1*%
X49736800Y-20734900D02*
X50095000Y-20376700D01*
X50612500Y-28475000D02*
X49736800Y-27599300D01*
X49736800Y-27599300D02*
X49736800Y-20734900D01*
X50095000Y-19300000D02*
X50095000Y-20376700D01*
%TO.N,SD_D1_C*%
X54211700Y-29920700D02*
X52766000Y-28475000D01*
X62299600Y-34253300D02*
X62299600Y-34892000D01*
X67904600Y-36071200D02*
X68308400Y-36475000D01*
X61037500Y-31315000D02*
X61037500Y-31953800D01*
X61959300Y-32875600D02*
X61959300Y-33913000D01*
X61037500Y-31315000D02*
X59643200Y-29920700D01*
X68308400Y-36475000D02*
X69650000Y-36475000D01*
X59643200Y-29920700D02*
X54211700Y-29920700D01*
X61037500Y-31953800D02*
X61959300Y-32875600D01*
X63478800Y-36071200D02*
X67904600Y-36071200D01*
X61959300Y-33913000D02*
X62299600Y-34253300D01*
X62299600Y-34892000D02*
X63478800Y-36071200D01*
X52766000Y-28475000D02*
X52437500Y-28475000D01*
%TO.N,SD_D2*%
X49001900Y-20553600D02*
X49087800Y-20553600D01*
X53471300Y-27924500D02*
X54362000Y-27924500D01*
X54362000Y-27924500D02*
X54912500Y-28475000D01*
X48825000Y-19300000D02*
X48825000Y-20376700D01*
X48825000Y-20376700D02*
X49001900Y-20553600D01*
%TO.N,SD_D2_C*%
X69650000Y-44175000D02*
X63369800Y-44175000D01*
X56737500Y-28475000D02*
X57759200Y-28475000D01*
X58259700Y-39064900D02*
X53349800Y-34155000D01*
X63369800Y-44175000D02*
X58259700Y-39064900D01*
X53349800Y-34155000D02*
X52437500Y-34155000D01*
%TO.N,SD_D3*%
X47555000Y-20414600D02*
X49070200Y-21929800D01*
X56575200Y-51980400D02*
X56575200Y-49677000D01*
X59212500Y-28596000D02*
X59212500Y-28475000D01*
X51385700Y-53372800D02*
X55182800Y-53372800D01*
X55182800Y-53372800D02*
X56575200Y-51980400D01*
X47555000Y-19300000D02*
X47555000Y-20414600D01*
X60303800Y-29687300D02*
X59212500Y-28596000D01*
X50603100Y-52590200D02*
X51385700Y-53372800D01*
X56575200Y-49677000D02*
X56904900Y-49347300D01*
X50515900Y-52590200D02*
X50603100Y-52590200D01*
X56904900Y-49347300D02*
X61029800Y-49347300D01*
%TO.N,SD_D3_C*%
X59496600Y-35858400D02*
X61367600Y-35858400D01*
X68448300Y-43075000D02*
X68394600Y-43128700D01*
X61037500Y-29705800D02*
X61366500Y-30034800D01*
X68394600Y-43128700D02*
X63723300Y-43128700D01*
X69650000Y-43075000D02*
X68448300Y-43075000D01*
X58034100Y-35451600D02*
X59089800Y-35451600D01*
X61037500Y-28475000D02*
X61037500Y-29705800D01*
X56737500Y-34155000D02*
X58034100Y-35451600D01*
X59089800Y-35451600D02*
X59496600Y-35858400D01*
%TO.N,SD_EN_G*%
X64451800Y-55220700D02*
X61427400Y-55220700D01*
X65828800Y-54185000D02*
X67605000Y-52408800D01*
X61427400Y-55220700D02*
X60073100Y-56575000D01*
X66804100Y-50095000D02*
X64387500Y-50095000D01*
X60073100Y-56575000D02*
X59812500Y-56575000D01*
X67605000Y-50895900D02*
X66804100Y-50095000D01*
X65487500Y-54185000D02*
X64451800Y-55220700D01*
X65487500Y-54185000D02*
X65828800Y-54185000D01*
X67605000Y-52408800D02*
X67605000Y-50895900D01*
%TO.N,SD_PG*%
X62381400Y-50095000D02*
X60037500Y-50095000D01*
X66091600Y-51215900D02*
X66262500Y-51045000D01*
X61637500Y-54185000D02*
X61637500Y-53080700D01*
X63502300Y-51215900D02*
X66091600Y-51215900D01*
X61637500Y-53080700D02*
X63502300Y-51215900D01*
X63502300Y-51215900D02*
X62381400Y-50095000D01*
%TO.N,SD_PWR_EN*%
X47668400Y-11536700D02*
X56489900Y-11536700D01*
X66978300Y-52149200D02*
X66505800Y-52621700D01*
X56489900Y-11536700D02*
X57619100Y-10407500D01*
X45291700Y-9160000D02*
X47668400Y-11536700D01*
X43250000Y-9160000D02*
X45291700Y-9160000D01*
X65225800Y-52621700D02*
X63662500Y-54185000D01*
X66505800Y-52621700D02*
X65225800Y-52621700D01*
D63*
%TO.N,SD_VDD*%
X54912500Y-32160100D02*
X54541100Y-32531500D01*
X54912500Y-31315000D02*
X54912500Y-32160100D01*
X50612500Y-34155000D02*
X50612500Y-32735000D01*
X50612500Y-31315000D02*
X50612500Y-31038600D01*
X54591300Y-23968700D02*
X52270200Y-23968700D01*
X68986700Y-40875000D02*
X68323300Y-40875000D01*
X59410900Y-38653400D02*
X54912500Y-34155000D01*
X59212500Y-31385500D02*
X59212500Y-31315000D01*
X61912500Y-51045000D02*
X60243400Y-51045000D01*
X60397400Y-38803400D02*
X66251700Y-38803400D01*
X56135000Y-22425000D02*
X54591300Y-23968700D01*
X51776400Y-23701400D02*
X50670000Y-22595000D01*
X60247400Y-38653400D02*
X59410900Y-38653400D01*
X66251700Y-38803400D02*
X68323300Y-40875000D01*
X54541100Y-33783600D02*
X54912500Y-34155000D01*
X55831000Y-32160100D02*
X56139600Y-32468700D01*
X52002900Y-23701400D02*
X51776400Y-23701400D01*
X60247400Y-38653400D02*
X60397400Y-38803400D01*
X54912500Y-32160100D02*
X55831000Y-32160100D01*
X68986700Y-40875000D02*
X69650000Y-40875000D01*
X50612500Y-32735000D02*
X50612500Y-31315000D01*
X50612500Y-31038600D02*
X51461100Y-30190000D01*
X52270200Y-23968700D02*
X52002900Y-23701400D01*
X54541100Y-32735000D02*
X54541100Y-33783600D01*
X54541100Y-32531500D02*
X54541100Y-32735000D01*
X56139600Y-32468700D02*
X58129300Y-32468700D01*
X50612500Y-32735000D02*
X54541100Y-32735000D01*
X58129300Y-32468700D02*
X59212500Y-31385500D01*
D65*
%TO.N,SPI_CS*%
X52904900Y-13114200D02*
X44511900Y-13114200D01*
X62447500Y-31148100D02*
X62447500Y-24883600D01*
X57940600Y-20376700D02*
X56445000Y-20376700D01*
X62899200Y-33311700D02*
X62899200Y-31599800D01*
X56445000Y-19300000D02*
X56445000Y-18223300D01*
X55410000Y-15619300D02*
X52904900Y-13114200D01*
X62899200Y-31599800D02*
X62447500Y-31148100D01*
X56445000Y-19838300D02*
X56445000Y-20376700D01*
X62447500Y-24883600D02*
X57940600Y-20376700D01*
X56445000Y-18223300D02*
X56110400Y-18223300D01*
X56110400Y-18223300D02*
X55870700Y-17983600D01*
X56445000Y-19838300D02*
X56445000Y-19300000D01*
X63812500Y-34225000D02*
X62899200Y-33311700D01*
%TO.N,SPI_MISO*%
X60750000Y-9160000D02*
X59673300Y-9160000D01*
X58245800Y-10676000D02*
X56933400Y-11988400D01*
X59602100Y-9160000D02*
X58245800Y-10516300D01*
X58245800Y-10516300D02*
X58245800Y-10676000D01*
X56933400Y-11988400D02*
X44526900Y-11988400D01*
X59673300Y-9160000D02*
X59602100Y-9160000D01*
%TO.N,SPI_MOSI*%
X53549900Y-7890000D02*
X52521400Y-6861500D01*
X60750000Y-7890000D02*
X53549900Y-7890000D01*
X52521400Y-6861500D02*
X44502700Y-6861500D01*
%TO.N,SPI_SCK*%
X60750000Y-10430000D02*
X59218300Y-10430000D01*
D63*
%TO.N,SW_3V3*%
X44787500Y-53400000D02*
X44787500Y-55620000D01*
X44787500Y-53400000D02*
X42950000Y-53400000D01*
X44787500Y-55620000D02*
X45062500Y-55895000D01*
X45062500Y-55895000D02*
X50000000Y-57800000D01*
%TO.N,SW_5V*%
X44787500Y-37600000D02*
X44787500Y-39820000D01*
X44787500Y-37600000D02*
X42950000Y-37600000D01*
X45062500Y-40095000D02*
X50000000Y-42000000D01*
X44787500Y-39820000D02*
X45062500Y-40095000D01*
D65*
%TO.N,TERM_A*%
X11845000Y-40532500D02*
X10312500Y-42065000D01*
X11845000Y-39375000D02*
X11845000Y-40532500D01*
%TO.N,UART_RX*%
X52966600Y-6620000D02*
X52579100Y-6232500D01*
X60750000Y-6620000D02*
X52966600Y-6620000D01*
%TO.N,UART_TX*%
X59446700Y-5123400D02*
X47968300Y-5123400D01*
X59673300Y-5350000D02*
X59446700Y-5123400D01*
X60750000Y-5350000D02*
X59673300Y-5350000D01*
D66*
%TO.N,USB_CC1*%
X66702500Y-21875000D02*
X67738100Y-22910600D01*
X78950200Y-6750000D02*
X80045000Y-6750000D01*
X77705200Y-5505000D02*
X78950200Y-6750000D01*
X78248700Y-2823200D02*
X77705200Y-3366700D01*
X77705200Y-3366700D02*
X77705200Y-5505000D01*
X67738100Y-22910600D02*
X73254700Y-22910600D01*
X82136100Y-4690500D02*
X80268800Y-2823200D01*
X73254700Y-22910600D02*
X82136100Y-14029200D01*
X82136100Y-14029200D02*
X82136100Y-4690500D01*
X80268800Y-2823200D02*
X78248700Y-2823200D01*
%TO.N,USB_CC2*%
X76915000Y-15512500D02*
X70552500Y-21875000D01*
X80045000Y-9750000D02*
X78447600Y-9750000D01*
X78447600Y-9750000D02*
X76915000Y-11282600D01*
X76915000Y-11282600D02*
X76915000Y-15512500D01*
D65*
%TO.N,USB_DM*%
X64263100Y-17864400D02*
X62468200Y-17864400D01*
X43250000Y-16780000D02*
X44326700Y-16780000D01*
X49063300Y-16605700D02*
X49014600Y-16557000D01*
X59431500Y-16605700D02*
X49063300Y-16605700D01*
X49014600Y-16557000D02*
X48495500Y-16557000D01*
X46981800Y-16605700D02*
X46763800Y-16387700D01*
X44719000Y-16387700D02*
X44326700Y-16780000D01*
X46763800Y-16387700D02*
X44719000Y-16387700D01*
X65232500Y-16895000D02*
X64263100Y-17864400D01*
X48495500Y-16557000D02*
X48446800Y-16605700D01*
X48446800Y-16605700D02*
X46981800Y-16605700D01*
%TO.N,USB_DM_CON*%
X80045000Y-8250000D02*
X81096700Y-8250000D01*
X62472100Y-16895000D02*
X61897200Y-16320100D01*
X62957500Y-16895000D02*
X62472100Y-16895000D01*
X80045000Y-7250000D02*
X81096700Y-7250000D01*
X61897200Y-16320100D02*
X61897200Y-14667400D01*
X81096700Y-8250000D02*
X81096700Y-7250000D01*
X69314600Y-7250000D02*
X80045000Y-7250000D01*
X61897200Y-14667400D02*
X69314600Y-7250000D01*
%TO.N,USB_DP*%
X64638300Y-14995000D02*
X64029100Y-14385800D01*
X51505100Y-6050500D02*
X45465000Y-6050500D01*
X65232500Y-14995000D02*
X64638300Y-14995000D01*
X58203300Y-5879400D02*
X57899000Y-5575100D01*
X57899000Y-5575100D02*
X51980500Y-5575100D01*
X51980500Y-5575100D02*
X51505100Y-6050500D01*
X43250000Y-18050000D02*
X44496100Y-18050000D01*
X44496100Y-18050000D02*
X44836000Y-17710100D01*
%TO.N,USB_DP_CON*%
X68778700Y-8750000D02*
X62957500Y-14571200D01*
X80045000Y-7750000D02*
X78993300Y-7750000D01*
X78993300Y-8750000D02*
X80045000Y-8750000D01*
X78993300Y-8750000D02*
X78993300Y-7750000D01*
X78993300Y-8750000D02*
X68778700Y-8750000D01*
X62957500Y-14571200D02*
X62957500Y-14995000D01*
D63*
%TO.N,VBAT_F*%
X19382200Y-65304700D02*
X17602500Y-63525000D01*
X24515500Y-65304700D02*
X19382200Y-65304700D01*
X25697500Y-64122700D02*
X24515500Y-65304700D01*
X25697500Y-63455000D02*
X25697500Y-64122700D01*
%TO.N,VBAT_FB*%
X8230800Y-65430800D02*
X8230800Y-63429500D01*
X13700000Y-68165000D02*
X13300000Y-68565000D01*
X9995000Y-67195000D02*
X8230800Y-65430800D01*
X11200000Y-68565000D02*
X10400000Y-67765000D01*
X11603400Y-62245900D02*
X12432500Y-63075000D01*
X20752500Y-63525000D02*
X22194900Y-62082600D01*
X13700000Y-67865000D02*
X13700000Y-68165000D01*
X20752500Y-63525000D02*
X16895000Y-59667500D01*
X13300000Y-68565000D02*
X11200000Y-68565000D01*
X9010400Y-61226000D02*
X9722400Y-61937900D01*
X22194900Y-62082600D02*
X28495100Y-62082600D01*
X15095400Y-68357900D02*
X24664600Y-68357900D01*
X10030300Y-62245900D02*
X11603400Y-62245900D01*
X9722400Y-61937900D02*
X10030300Y-62245900D01*
X10595000Y-58335000D02*
X9010400Y-59919600D01*
X9010400Y-59919600D02*
X9010400Y-61226000D01*
X13902500Y-67165000D02*
X15095400Y-68357900D01*
X24664600Y-68357900D02*
X29717500Y-63305000D01*
X8230800Y-63429500D02*
X9722400Y-61937900D01*
X16895000Y-59667500D02*
X16895000Y-58335000D01*
X28495100Y-62082600D02*
X29717500Y-63305000D01*
%TO.N,VBAT_IN*%
X23668700Y-64226200D02*
X22897500Y-63455000D01*
X24162700Y-64453000D02*
X23936000Y-64226300D01*
X23936000Y-64226200D02*
X23668700Y-64226200D01*
X23936000Y-64226300D02*
X23936000Y-64226200D01*
D65*
%TO.N,VBAT_SNS*%
X43250000Y-7890000D02*
X46118600Y-7890000D01*
X31812500Y-77135000D02*
X31812500Y-74732500D01*
X45227500Y-74685000D02*
X43499600Y-72957100D01*
X43499600Y-72957100D02*
X36681700Y-72957100D01*
X32010700Y-74715000D02*
X31795000Y-74715000D01*
X33912500Y-72813200D02*
X32010700Y-74715000D01*
X33912500Y-71545000D02*
X33912500Y-72813200D01*
X33912500Y-71545000D02*
X35269600Y-71545000D01*
X35269600Y-71545000D02*
X35269600Y-71436300D01*
X31812500Y-74732500D02*
X31795000Y-74715000D01*
X36681700Y-72957100D02*
X35269600Y-71545000D01*
%TO.N,VBAT_UVLO*%
X10157500Y-64975000D02*
X10574600Y-65392100D01*
X17752500Y-67165000D02*
X15727500Y-67165000D01*
X10574600Y-65392100D02*
X10574600Y-65779200D01*
X16502300Y-66390200D02*
X15727500Y-67165000D01*
X16738300Y-66390200D02*
X16502300Y-66390200D01*
D63*
%TO.N,VBUS*%
X69515200Y-17902700D02*
X69515200Y-16514800D01*
X66061900Y-15945000D02*
X66631700Y-16514800D01*
X62795000Y-19397500D02*
X62870000Y-19322500D01*
X66631700Y-16514800D02*
X67479800Y-16514800D01*
X67479800Y-16514800D02*
X69515200Y-16514800D01*
X65232500Y-15945000D02*
X66061900Y-15945000D01*
X62870000Y-19285000D02*
X62870000Y-19322500D01*
X69515200Y-16514800D02*
X70635000Y-15395000D01*
X67479800Y-16615200D02*
X67479800Y-16514800D01*
X70877500Y-19265000D02*
X69515200Y-17902700D01*
X62870000Y-19322500D02*
X64561000Y-19322500D01*
X62795000Y-21905000D02*
X62795000Y-19397500D01*
%TO.N,VBUS_IN*%
X81173499Y-10100000D02*
X81273500Y-10000000D01*
X81273500Y-9100000D02*
X81373500Y-9000000D01*
X80673499Y-10400000D02*
X80973500Y-10400000D01*
X67952500Y-19265000D02*
X69573500Y-19265000D01*
X80045000Y-5550000D02*
X81221700Y-5550000D01*
X81221700Y-5550000D02*
X81221700Y-5619800D01*
X81221700Y-5619800D02*
X81432700Y-5830800D01*
X81173499Y-10200000D02*
X81173499Y-10100000D01*
X80973500Y-10400000D02*
X81173499Y-10200000D01*
X81273500Y-10000000D02*
X81273500Y-9100000D01*
D65*
%TO.N,VCAP*%
X10596400Y-63075000D02*
X10157500Y-63075000D01*
X11855700Y-65763500D02*
X11179300Y-65087100D01*
X27817500Y-63305000D02*
X25231500Y-65891000D01*
X11179300Y-65087100D02*
X11179300Y-63657900D01*
X16997900Y-65763500D02*
X11855700Y-65763500D01*
X17125400Y-65891000D02*
X16997900Y-65763500D01*
X25231500Y-65891000D02*
X17125400Y-65891000D01*
X11179300Y-63657900D02*
X10596400Y-63075000D01*
D63*
%TO.N,VSENS_F*%
X15282500Y-74685000D02*
X13567500Y-74685000D01*
X13567500Y-74685000D02*
X13287500Y-74965000D01*
%TD*%
M02*
