M48
; DRILL file {KiCad 9.0.5} date 2026-08-11T10:30:34-0400
; FORMAT={-:-/ absolute / metric / decimal}
; #@! TF.CreationDate,2026-08-11T10:30:34-04:00
; #@! TF.GenerationSoftware,Kicad,Pcbnew,9.0.5
; #@! TF.FileFunction,Plated,1,4,PTH
FMAT,2
METRIC
; #@! TA.AperFunction,Plated,PTH,ComponentDrill
T1C0.200
; #@! TA.AperFunction,Plated,PTH,ViaDrill
T2C0.250
; #@! TA.AperFunction,Plated,PTH,ViaDrill
T3C0.300
; #@! TA.AperFunction,Plated,PTH,ViaDrill
T4C0.400
; #@! TA.AperFunction,Plated,PTH,ComponentDrill
T5C0.600
; #@! TA.AperFunction,Plated,PTH,ComponentDrill
T6C0.750
; #@! TA.AperFunction,Plated,PTH,ComponentDrill
T7C1.000
%
G90
G05
T1
X41.85Y-40.05
X41.85Y-41.35
X41.85Y-42.65
X41.85Y-43.95
X41.85Y-55.85
X41.85Y-57.15
X41.85Y-58.45
X41.85Y-59.75
X43.15Y-40.05
X43.15Y-41.35
X43.15Y-42.65
X43.15Y-43.95
X43.15Y-55.85
X43.15Y-57.15
X43.15Y-58.45
X43.15Y-59.75
X49.1Y-8.56
X49.1Y-9.96
X49.8Y-7.86
X49.8Y-9.26
X49.8Y-10.66
X50.5Y-8.56
X50.5Y-9.96
X51.2Y-7.86
X51.2Y-9.26
X51.2Y-10.66
X51.9Y-8.56
X51.9Y-9.96
T2
X64.07Y-15.945
X69.487Y-20.449
X69.713Y-12.605
X71.337Y-20.713
X72.902Y-6.564
T3
X10.512Y-40.648
X11.044Y-10.198
X12.988Y-56.055
X13.279Y-28.732
X13.677Y-63.737
X15.997Y-10.413
X15.997Y-40.691
X20.95Y-28.945
X20.95Y-33.332
X21.517Y-20.433
X21.649Y-7.528
X23.41Y-25.5
X25.576Y-15.672
X25.946Y-1.341
X25.946Y-12.735
X28.137Y-33.838
X29.987Y-8.795
X29.987Y-20.869
X30.207Y-71.545
X30.355Y-27.716
X31.37Y-16.175
X33.981Y-27.865
X34.307Y-11.82
X34.312Y-16.183
X36.488Y-40.953
X36.785Y-17.448
X37.014Y-69.827
X37.764Y-10.563
X38.4Y-42.993
X38.465Y-6.778
X38.525Y-10.111
X38.539Y-58.435
X39.031Y-6.102
X39.871Y-12.652
X40.112Y-54.574
X40.944Y-6.49
X41.0Y-54.641
X41.521Y-30.923
X41.799Y-23.189
X41.951Y-6.089
X42.377Y-33.672
X42.537Y-50.667
X43.351Y-19.105
X43.62Y-46.096
X44.539Y-5.428
X45.02Y-8.94
X45.357Y-13.631
X45.623Y-18.016
X45.94Y-29.274
X46.014Y-11.48
X46.466Y-58.163
X46.539Y-49.884
X46.88Y-20.571
X46.971Y-39.136
X47.21Y-25.585
X47.231Y-23.075
X47.658Y-28.342
X47.681Y-17.213
X47.731Y-6.036
X47.81Y-37.6
X48.241Y-50.8
X48.308Y-14.981
X48.393Y-32.931
X48.934Y-12.777
X49.054Y-28.877
X49.572Y-36.855
X50.044Y-27.202
X51.461Y-26.609
X51.765Y-21.772
X52.53Y-20.631
X52.654Y-27.271
X53.468Y-31.315
X53.582Y-28.475
X55.134Y-16.992
X55.189Y-20.602
X55.478Y-24.432
X57.407Y-30.171
X57.755Y-25.603
X57.799Y-31.315
X57.975Y-33.387
X58.011Y-15.914
X58.126Y-11.024
X58.136Y-36.089
X58.637Y-52.977
X58.645Y-8.109
X58.693Y-18.044
X58.808Y-14.23
X58.963Y-36.478
X59.112Y-1.488
X59.464Y-4.08
X59.484Y-2.812
X59.93Y-30.115
X60.291Y-24.539
X60.552Y-40.783
X60.622Y-35.765
X61.126Y-24.432
X61.35Y-37.829
X62.175Y-73.784
X62.585Y-13.35
X62.904Y-52.816
X62.999Y-35.869
X63.407Y-17.716
X63.539Y-68.084
X64.029Y-14.386
X65.895Y-13.931
X66.601Y-31.019
X67.289Y-17.812
X67.916Y-25.649
X68.096Y-34.184
X68.952Y-11.026
X72.957Y-34.126
X73.297Y-30.61
X75.53Y-7.75
X75.53Y-8.75
T4
X8.752Y-72.02
X8.995Y-64.025
X11.775Y-11.785
X11.775Y-13.685
X12.245Y-30.31
X12.761Y-67.807
X13.061Y-22.497
X13.15Y-26.695
X16.56Y-36.585
X16.795Y-8.795
X16.795Y-71.595
X16.851Y-39.718
X17.0Y-26.695
X17.195Y-32.85
X18.749Y-64.654
X18.841Y-39.718
X18.964Y-20.529
X20.275Y-11.785
X20.275Y-13.685
X20.59Y-67.165
X20.741Y-39.718
X21.142Y-60.824
X21.561Y-22.497
X21.65Y-26.695
X21.79Y-62.272
X22.795Y-48.845
X24.285Y-35.885
X24.631Y-39.718
X24.877Y-70.995
X25.295Y-8.795
X25.5Y-26.695
X27.281Y-20.537
X28.61Y-39.075
X28.775Y-11.785
X28.775Y-13.685
X30.061Y-22.497
X30.15Y-26.695
X30.885Y-58.185
X33.275Y-70.595
X33.275Y-72.495
X33.795Y-8.795
X34.0Y-26.695
X34.514Y-77.735
X34.561Y-75.328
X34.75Y-68.2
X35.8Y-45.1
X36.216Y-42.812
X36.245Y-77.135
X36.45Y-39.9
X36.45Y-55.7
X36.875Y-11.785
X36.875Y-13.685
X37.675Y-46.75
X37.675Y-56.365
X38.161Y-22.497
X38.25Y-26.695
X38.345Y-77.135
X38.408Y-75.285
X38.55Y-55.895
X38.736Y-40.495
X40.425Y-48.2
X40.425Y-64.0
X41.895Y-8.795
X42.1Y-26.695
X42.225Y-73.562
X42.39Y-74.685
X43.883Y-71.096
X44.425Y-48.2
X44.425Y-64.0
X44.5Y-1.54
X44.5Y-2.81
X44.661Y-34.627
X45.25Y-29.795
X45.25Y-30.795
X46.094Y-65.039
X46.25Y-21.795
X46.25Y-24.185
X46.25Y-26.575
X46.425Y-51.0
X46.425Y-66.8
X46.695Y-34.015
X47.2Y-30.795
X51.1Y-63.6
X52.95Y-66.6
X53.906Y-48.5
X53.906Y-64.3
X54.695Y-22.595
X56.1Y-63.6
X56.416Y-66.812
X57.295Y-70.595
X57.6Y-57.8
X58.45Y-50.4
X58.45Y-66.2
X59.035Y-22.425
X59.05Y-47.8
X59.05Y-63.6
X59.464Y-72.895
X59.719Y-35.194
X60.132Y-38.92
X60.319Y-55.224
X61.275Y-51.995
X62.0Y-1.54
X62.584Y-38.036
X62.65Y-56.575
X63.899Y-42.634
X64.319Y-32.874
X64.661Y-30.027
X64.945Y-26.795
X65.561Y-22.517
X65.625Y-51.995
X66.341Y-23.298
X66.513Y-16.618
X66.561Y-30.027
X66.65Y-34.225
X66.751Y-19.985
X67.751Y-27.495
X68.169Y-32.874
X69.43Y-28.02
X69.54Y-21.875
X70.451Y-30.027
X70.565Y-12.933
X71.025Y-38.675
X71.651Y-27.237
X72.019Y-32.874
X72.099Y-30.424
X73.08Y-4.75
X73.39Y-21.875
X73.641Y-27.237
X74.917Y-11.943
X75.675Y-26.625
X76.2Y-58.4
X76.2Y-65.4
X81.725Y-46.575
X82.5Y-58.4
X82.5Y-65.4
T6
X5.0Y-18.0
X5.0Y-20.0
X5.0Y-22.0
X5.0Y-24.0
X5.0Y-26.0
X5.0Y-28.0
X5.0Y-30.0
X5.0Y-32.0
X5.0Y-50.0
X5.0Y-52.0
X5.0Y-54.0
X5.0Y-56.0
T7
X10.0Y-3.0
X12.54Y-3.0
X15.08Y-3.0
X17.62Y-3.0
X20.16Y-3.0
X22.7Y-3.0
X26.0Y-81.5
X27.5Y-3.0
X28.54Y-81.5
X30.04Y-3.0
X31.08Y-81.5
X32.58Y-3.0
X33.62Y-81.5
X35.12Y-3.0
X37.66Y-3.0
X40.2Y-3.0
X41.0Y-81.5
X43.54Y-81.5
X46.08Y-81.5
X48.62Y-81.5
X56.0Y-81.5
X58.54Y-81.5
X61.08Y-81.5
X63.62Y-81.5
X70.5Y-81.5
X73.04Y-81.5
X75.58Y-81.5
T5
X74.67Y-3.68G85X75.77Y-3.68
G05
X74.67Y-12.32G85X75.77Y-12.32
G05
X79.1Y-3.68G85X79.7Y-3.68
G05
X79.1Y-12.32G85X79.7Y-12.32
G05
M30
