%TF.GenerationSoftware,KiCad,Pcbnew,9.0.5*%
%TF.CreationDate,2026-08-11T16:08:32-04:00*%
%TF.ProjectId,esp32s3-can-sd-logger,65737033-3273-4332-9d63-616e2d73642d,rev?*%
%TF.SameCoordinates,Original*%
%TF.FileFunction,Copper,L4,Bot*%
%TF.FilePolarity,Positive*%
%FSLAX46Y46*%
G04 Gerber Fmt 4.6, Leading zero omitted, Abs format (unit mm)*
G04 Created by KiCad (PCBNEW 9.0.5) date 2026-08-11 16:08:32*
%MOMM*%
%LPD*%
G01*
G04 APERTURE LIST*
G04 Aperture macros list*
%AMRoundRect*
0 Rectangle with rounded corners*
0 $1 Rounding radius*
0 $2 $3 $4 $5 $6 $7 $8 $9 X,Y pos of 4 corners*
0 Add a 4 corners polygon primitive as box body*
4,1,4,$2,$3,$4,$5,$6,$7,$8,$9,$2,$3,0*
0 Add four circle primitives for the rounded corners*
1,1,$1+$1,$2,$3*
1,1,$1+$1,$4,$5*
1,1,$1+$1,$6,$7*
1,1,$1+$1,$8,$9*
0 Add four rect primitives between the rounded corners*
20,1,$1+$1,$2,$3,$4,$5,0*
20,1,$1+$1,$4,$5,$6,$7,0*
20,1,$1+$1,$6,$7,$8,$9,0*
20,1,$1+$1,$8,$9,$2,$3,0*%
G04 Aperture macros list end*
%TA.AperFunction,ComponentPad*%
%ADD10RoundRect,0.250000X-0.625000X0.350000X-0.625000X-0.350000X0.625000X-0.350000X0.625000X0.350000X0*%
%TD*%
%TA.AperFunction,ComponentPad*%
%ADD11O,1.750000X1.200000*%
%TD*%
%TA.AperFunction,HeatsinkPad*%
%ADD12C,0.600000*%
%TD*%
%TA.AperFunction,HeatsinkPad*%
%ADD13C,0.500000*%
%TD*%
%TA.AperFunction,HeatsinkPad*%
%ADD14R,1.800000X4.400000*%
%TD*%
%TA.AperFunction,ComponentPad*%
%ADD15R,1.700000X1.700000*%
%TD*%
%TA.AperFunction,ComponentPad*%
%ADD16C,1.700000*%
%TD*%
%TA.AperFunction,HeatsinkPad*%
%ADD17O,2.100000X1.000000*%
%TD*%
%TA.AperFunction,HeatsinkPad*%
%ADD18O,1.600000X1.000000*%
%TD*%
%TA.AperFunction,ViaPad*%
%ADD19C,0.600000*%
%TD*%
%TA.AperFunction,ViaPad*%
%ADD20C,0.800000*%
%TD*%
%TA.AperFunction,ViaPad*%
%ADD21C,0.500000*%
%TD*%
%TA.AperFunction,Conductor*%
%ADD22C,0.500000*%
%TD*%
%TA.AperFunction,Conductor*%
%ADD23C,0.450000*%
%TD*%
%TA.AperFunction,Conductor*%
%ADD24C,0.250000*%
%TD*%
%TA.AperFunction,Conductor*%
%ADD25C,0.200000*%
%TD*%
G04 APERTURE END LIST*
D10*
%TO.P,J10,1*%
%TO.N,+5VS*%
X5000000Y-18000000D03*
D11*
%TO.P,J10,2*%
%TO.N,AIN1_IN*%
X5000000Y-20000000D03*
%TO.P,J10,3*%
%TO.N,AIN2_IN*%
X5000000Y-22000000D03*
%TO.P,J10,4*%
%TO.N,AIN3_IN*%
X5000000Y-24000000D03*
%TO.P,J10,5*%
%TO.N,AIN4_IN*%
X5000000Y-26000000D03*
%TO.P,J10,6*%
%TO.N,GND*%
X5000000Y-28000000D03*
%TO.P,J10,7*%
X5000000Y-30000000D03*
%TO.P,J10,8*%
%TO.N,+5VS*%
X5000000Y-32000000D03*
%TD*%
D12*
%TO.P,U4,41*%
%TO.N,GND*%
X49100000Y-8560000D03*
X49100000Y-9960000D03*
X49800000Y-7860000D03*
X49800000Y-9260000D03*
X49800000Y-10660000D03*
X50500000Y-8560000D03*
X50500000Y-9960000D03*
X51200000Y-7860000D03*
X51200000Y-9260000D03*
X51200000Y-10660000D03*
X51900000Y-8560000D03*
X51900000Y-9960000D03*
%TD*%
D13*
%TO.P,U2,9*%
%TO.N,GND*%
X41850000Y-40050000D03*
X41850000Y-41350000D03*
X41850000Y-42650000D03*
X41850000Y-43950000D03*
D14*
X42500000Y-42000000D03*
D13*
X43150000Y-40050000D03*
X43150000Y-41350000D03*
X43150000Y-42650000D03*
X43150000Y-43950000D03*
%TD*%
D15*
%TO.P,J7,1*%
%TO.N,IO3*%
X10000000Y-3000000D03*
D16*
%TO.P,J7,2*%
%TO.N,IO45*%
X12540000Y-3000000D03*
%TO.P,J7,3*%
%TO.N,IO46*%
X15080000Y-3000000D03*
%TO.P,J7,4*%
%TO.N,IO15*%
X17620000Y-3000000D03*
%TO.P,J7,5*%
%TO.N,IO16*%
X20160000Y-3000000D03*
%TO.P,J7,6*%
%TO.N,GND*%
X22700000Y-3000000D03*
%TD*%
D15*
%TO.P,J3,1*%
%TO.N,+3V3*%
X26000000Y-81500000D03*
D16*
%TO.P,J3,2*%
%TO.N,UART_TX*%
X28540000Y-81500000D03*
%TO.P,J3,3*%
%TO.N,UART_RX*%
X31080000Y-81500000D03*
%TO.P,J3,4*%
%TO.N,GND*%
X33620000Y-81500000D03*
%TD*%
D10*
%TO.P,J1,1*%
%TO.N,VBAT_IN*%
X5000000Y-50000000D03*
D11*
%TO.P,J1,2*%
%TO.N,GND*%
X5000000Y-52000000D03*
%TO.P,J1,3*%
%TO.N,CAN_H*%
X5000000Y-54000000D03*
%TO.P,J1,4*%
%TO.N,CAN_L*%
X5000000Y-56000000D03*
%TD*%
D17*
%TO.P,J2,S1*%
%TO.N,GND*%
X76720000Y-20320000D03*
D18*
X80900000Y-20320000D03*
D17*
X76720000Y-11680000D03*
D18*
X80900000Y-11680000D03*
%TD*%
D13*
%TO.P,U3,9*%
%TO.N,GND*%
X41850000Y-55850000D03*
X41850000Y-57150000D03*
X41850000Y-58450000D03*
X41850000Y-59750000D03*
D14*
X42500000Y-57800000D03*
D13*
X43150000Y-55850000D03*
X43150000Y-57150000D03*
X43150000Y-58450000D03*
X43150000Y-59750000D03*
%TD*%
D15*
%TO.P,J6,1*%
%TO.N,LED_5V*%
X70500000Y-81500000D03*
D16*
%TO.P,J6,2*%
%TO.N,LED_DIN_J*%
X73040000Y-81500000D03*
%TO.P,J6,3*%
%TO.N,GND*%
X75580000Y-81500000D03*
%TD*%
D15*
%TO.P,J4,1*%
%TO.N,GND*%
X41000000Y-81500000D03*
D16*
%TO.P,J4,2*%
%TO.N,+3V3*%
X43540000Y-81500000D03*
%TO.P,J4,3*%
%TO.N,I2C_SDA*%
X46080000Y-81500000D03*
%TO.P,J4,4*%
%TO.N,I2C_SCL*%
X48620000Y-81500000D03*
%TD*%
D15*
%TO.P,J8,1*%
%TO.N,+5V*%
X56000000Y-81500000D03*
D16*
%TO.P,J8,2*%
%TO.N,+3V3*%
X58540000Y-81500000D03*
%TO.P,J8,3*%
%TO.N,GND*%
X61080000Y-81500000D03*
%TO.P,J8,4*%
X63620000Y-81500000D03*
%TD*%
D15*
%TO.P,J5,1*%
%TO.N,+3V3*%
X27500000Y-3000000D03*
D16*
%TO.P,J5,2*%
%TO.N,GND*%
X30040000Y-3000000D03*
%TO.P,J5,3*%
%TO.N,SPI_SCK*%
X32580000Y-3000000D03*
%TO.P,J5,4*%
%TO.N,SPI_MISO*%
X35120000Y-3000000D03*
%TO.P,J5,5*%
%TO.N,SPI_MOSI*%
X37660000Y-3000000D03*
%TO.P,J5,6*%
%TO.N,SPI_CS*%
X40200000Y-3000000D03*
%TD*%
D19*
%TO.N,+3V3*%
X73641000Y-24637500D03*
X36275000Y-72495000D03*
X36875000Y-14570000D03*
X59718700Y-36444200D03*
X44661000Y-35587500D03*
X44500000Y-2810000D03*
X56416000Y-66812500D03*
X66650000Y-31235000D03*
X68208800Y-28824200D03*
X61275000Y-51995000D03*
X79758700Y-28824200D03*
X18841000Y-45744200D03*
X11775000Y-14570000D03*
X56100000Y-63600000D03*
X28775000Y-14570000D03*
X46425000Y-66800000D03*
X39245000Y-78405000D03*
X51100000Y-63600000D03*
X46093800Y-65039200D03*
X20275000Y-14570000D03*
X34750000Y-68200000D03*
X75908700Y-28824200D03*
X64945000Y-24195000D03*
X60318800Y-55339200D03*
X72058700Y-28824200D03*
X17195000Y-38650000D03*
X52950000Y-66600000D03*
X46425000Y-51000000D03*
X49650000Y-30795000D03*
X41407700Y-75920000D03*
X77531000Y-24637500D03*
X57600000Y-57800000D03*
D20*
%TO.N,+5V*%
X68514000Y-9195000D03*
X66413600Y-26111800D03*
X26900000Y-49800000D03*
X18704200Y-40271700D03*
X22999800Y-35995000D03*
X67770300Y-44752900D03*
X26743700Y-74965800D03*
%TO.N,+5VS*%
X35508000Y-20403500D03*
X6981100Y-78176900D03*
X18941500Y-23205200D03*
X25855000Y-20616700D03*
%TO.N,+VBAT*%
X39074999Y-72465000D03*
X46175000Y-74665000D03*
X44474999Y-72965000D03*
D19*
X37675000Y-56365000D03*
X37675000Y-46750000D03*
%TO.N,AIN1*%
X35326300Y-11199500D03*
X49737000Y-5225400D03*
X42650100Y-31295000D03*
%TO.N,AIN1_PU*%
X11696600Y-20544500D03*
X15495900Y-26899300D03*
%TO.N,AIN1_R1*%
X11169800Y-30657300D03*
X13372500Y-23751300D03*
%TO.N,AIN2*%
X46975200Y-33685400D03*
X50721000Y-5409100D03*
X20428500Y-19203000D03*
X46975200Y-31795000D03*
X23862100Y-23417500D03*
%TO.N,AIN2_IN*%
X20987800Y-23346300D03*
%TO.N,AIN2_R2*%
X27930800Y-19340400D03*
X23286300Y-30562400D03*
%TO.N,AIN3_IN*%
X17713900Y-9882900D03*
X30260700Y-24367500D03*
%TO.N,AIN3_R1*%
X28169800Y-30934000D03*
X27930800Y-16652900D03*
%TO.N,AIN3_R2*%
X30112800Y-30955300D03*
X33204400Y-17945000D03*
%TO.N,AIN4_IN*%
X30612300Y-11969800D03*
X9708400Y-11043200D03*
X38725500Y-23723700D03*
X14447300Y-11969800D03*
%TO.N,AIN4_R2*%
X40175000Y-30874000D03*
X40764700Y-18472700D03*
%TO.N,BST_3V3*%
X46452100Y-57880300D03*
X43894900Y-46370400D03*
X47051700Y-45925400D03*
X40380900Y-54574200D03*
%TO.N,BST_5V*%
X45012500Y-36393200D03*
X44192200Y-36294000D03*
%TO.N,CAN_L*%
X20215300Y-42865800D03*
X23625200Y-38227100D03*
X18134900Y-47851900D03*
%TO.N,CAN_RX*%
X39686300Y-14240000D03*
X12542700Y-39158400D03*
%TO.N,CAN_S*%
X49320000Y-28000000D03*
X55020000Y-23400000D03*
X55120000Y-20000000D03*
X34020000Y-41200000D03*
X52620000Y-24700000D03*
X44320000Y-28500000D03*
%TO.N,CAN_TX*%
X39950500Y-11965700D03*
X36867100Y-7217600D03*
%TO.N,EN_5V*%
X40009000Y-38629800D03*
X38534400Y-42858700D03*
%TO.N,GATE_RB*%
X13622500Y-70311100D03*
X12988300Y-63049700D03*
%TO.N,GND*%
X36275000Y-70595000D03*
X21561000Y-26037500D03*
X20590000Y-73645000D03*
X38250000Y-32005000D03*
X41895000Y-8795000D03*
X38550000Y-55895000D03*
X40425000Y-64000000D03*
X45250000Y-29795000D03*
X62650000Y-56805000D03*
X37514300Y-79005000D03*
X21650000Y-32005000D03*
X59035000Y-22425000D03*
X40425000Y-48200000D03*
X41345000Y-78405000D03*
X71651000Y-24637500D03*
X76200000Y-58400000D03*
X75541000Y-24637500D03*
X71025000Y-38675000D03*
X46250000Y-21795000D03*
X24733500Y-77095000D03*
X17000000Y-32005000D03*
X16560500Y-42498300D03*
X36216000Y-42812500D03*
X24285000Y-41798300D03*
D21*
X64070000Y-9745000D03*
D19*
X30061000Y-26037500D03*
X25500000Y-32005000D03*
X36875000Y-12670000D03*
X57295000Y-70595000D03*
X13061000Y-26037500D03*
X82500000Y-58400000D03*
X25295000Y-8795000D03*
X36450000Y-39900000D03*
X69540000Y-17675000D03*
X24631000Y-45744200D03*
X38735900Y-40495000D03*
X46250000Y-24600000D03*
X44425000Y-64000000D03*
X12761000Y-74287500D03*
X37561000Y-75962500D03*
X66751000Y-14785000D03*
X16851000Y-45744200D03*
X36450000Y-55700000D03*
X67751000Y-24895000D03*
X11775000Y-12670000D03*
X65625000Y-51995000D03*
X20275000Y-12670000D03*
X38161000Y-26037500D03*
X35800000Y-45100000D03*
X66561000Y-28427500D03*
X8995000Y-70478300D03*
X74580000Y-12750000D03*
X65561000Y-18317500D03*
X22795000Y-55245000D03*
X59464300Y-72895000D03*
X13150000Y-32005000D03*
X30885000Y-64611700D03*
X45250000Y-30795000D03*
X28775000Y-12670000D03*
X73390000Y-17675000D03*
X76200000Y-65400000D03*
X54695000Y-22595000D03*
X46250000Y-27405000D03*
X12245000Y-36110000D03*
X30150000Y-32005000D03*
X59050000Y-47800000D03*
X44425000Y-48200000D03*
X76417500Y-19942800D03*
X33795000Y-8795000D03*
X28610000Y-45101700D03*
X34000000Y-32005000D03*
X62000000Y-1540000D03*
X59050000Y-63600000D03*
X44500000Y-1540000D03*
X82500000Y-65400000D03*
X16795000Y-8795000D03*
X81725000Y-46575000D03*
X20741000Y-45744200D03*
X16795000Y-76995000D03*
X58450000Y-50400000D03*
X79565000Y-24025000D03*
X53906000Y-64300000D03*
X42100000Y-32005000D03*
X58450000Y-66200000D03*
X46882500Y-71096200D03*
X53906000Y-48500000D03*
X46695000Y-34975000D03*
X45390000Y-75320000D03*
%TO.N,I2C_SCL*%
X56025000Y-11800000D03*
X64250000Y-19000000D03*
X49025000Y-29595000D03*
X59450000Y-13200000D03*
%TO.N,I2C_SDA*%
X72280000Y-22200000D03*
X46879999Y-26695000D03*
X76780000Y-27200000D03*
X46879999Y-29195000D03*
X64280000Y-15300000D03*
X67380000Y-18900000D03*
X55180000Y-11500000D03*
X59480000Y-11100000D03*
X48480000Y-51695000D03*
X65580000Y-16600000D03*
X61780000Y-12600000D03*
X48180000Y-27795000D03*
X49480000Y-52695000D03*
%TO.N,IO15*%
X38719600Y-10548500D03*
%TO.N,IO16*%
X38969000Y-11700000D03*
%TO.N,IO3*%
X38332000Y-20112700D03*
%TO.N,IO45*%
X39979000Y-23378500D03*
X18715400Y-5640300D03*
X45525900Y-7832900D03*
%TO.N,IO46*%
X38156900Y-15976500D03*
X42328000Y-19120100D03*
X42328000Y-26769400D03*
%TO.N,LED_DIN_A*%
X66446500Y-73022500D03*
X64924500Y-72177700D03*
%TO.N,LED_DIN_MCU*%
X64730500Y-69504900D03*
X57258900Y-18024100D03*
%TO.N,MCU_EN*%
X64934300Y-21145600D03*
X59484100Y-4579300D03*
%TO.N,PG_5V*%
X41008300Y-62554800D03*
X44819900Y-46261900D03*
X42537300Y-50667200D03*
%TO.N,RAMP_5V*%
X39050000Y-61500000D03*
X46812500Y-38300000D03*
X43150000Y-61500000D03*
X39050000Y-52199999D03*
X49750000Y-51500000D03*
%TO.N,SD_CD*%
X55582400Y-15510000D03*
X60537000Y-34035900D03*
%TO.N,SD_CLK_C*%
X57953500Y-24428600D03*
X62469200Y-39775000D03*
%TO.N,SD_CMD*%
X54021000Y-18021700D03*
X54021000Y-26843700D03*
%TO.N,SD_CMD_C*%
X57390500Y-27673900D03*
X62707400Y-40834400D03*
%TO.N,SD_D0*%
X60869200Y-20929400D03*
X51860800Y-18026500D03*
X58778100Y-16052200D03*
X51860800Y-15179400D03*
%TO.N,SD_D1*%
X49098800Y-26805800D03*
X50283800Y-18034500D03*
%TO.N,SD_D1_C*%
X58645700Y-34109000D03*
X56079700Y-37728300D03*
X53667000Y-30939700D03*
X53667000Y-37728300D03*
%TO.N,SD_D2_C*%
X54797000Y-36833800D03*
X54702100Y-30941500D03*
%TO.N,SD_D3*%
X56238100Y-12691900D03*
X49352500Y-18026500D03*
X51507200Y-13449600D03*
X59167700Y-30341200D03*
%TO.N,SD_D3_C*%
X60748700Y-27884100D03*
X61836600Y-38524400D03*
%TO.N,SD_PWR_EN*%
X65751800Y-52853200D03*
X58564200Y-14848800D03*
D20*
%TO.N,SD_VDD*%
X58027100Y-32672300D03*
X60567000Y-51045000D03*
X63792400Y-40875000D03*
D19*
%TO.N,SPI_CS*%
X61176100Y-30550600D03*
X56457100Y-18047000D03*
%TO.N,SPI_MISO*%
X54632500Y-7966300D03*
%TO.N,SPI_MOSI*%
X55856400Y-8239400D03*
%TO.N,SPI_SCK*%
X44531700Y-6981800D03*
%TO.N,UART_RX*%
X46379999Y-15100000D03*
X48580000Y-14400000D03*
X52880000Y-6400000D03*
%TO.N,UART_TX*%
X62740000Y-6700000D03*
X51140000Y-67800000D03*
X69340000Y-11900000D03*
X64039999Y-49200000D03*
X32340000Y-80300000D03*
X48840000Y-70100000D03*
X67140000Y-11100000D03*
X68140000Y-45700000D03*
D21*
%TO.N,USB_CC2*%
X77245200Y-14218800D03*
X73487800Y-18988300D03*
D19*
%TO.N,USB_DM*%
X62029800Y-11735300D03*
X58964300Y-17560700D03*
%TO.N,USB_DP*%
X57453800Y-16659800D03*
X68929800Y-8326500D03*
D20*
%TO.N,VBAT_IN*%
X24306600Y-69908300D03*
D19*
%TO.N,VBAT_SNS*%
X38241000Y-71545000D03*
X46193600Y-9776000D03*
D20*
%TO.N,VBUS_IN*%
X72581700Y-15496600D03*
X74381700Y-19296600D03*
D19*
%TO.N,VCAP*%
X25643100Y-67834600D03*
X10425500Y-68717400D03*
%TD*%
D22*
%TO.N,+5V*%
X22999800Y-36422000D02*
X22999800Y-35995000D01*
X66413600Y-26111800D02*
X66413600Y-25102400D01*
X66413600Y-25102400D02*
X67941900Y-23574100D01*
X22999800Y-36422000D02*
X26743700Y-40166000D01*
X19150100Y-40271700D02*
X18704200Y-40271700D01*
X67941900Y-23574100D02*
X72811300Y-28443500D01*
X72811300Y-39711900D02*
X67770300Y-44752900D01*
X26743700Y-40166000D02*
X26743700Y-74965800D01*
X68514000Y-9195000D02*
X68514000Y-23002000D01*
X22999800Y-36422000D02*
X19150100Y-40271700D01*
X72811300Y-28443500D02*
X72811300Y-39711900D01*
X68514000Y-23002000D02*
X67941900Y-23574100D01*
%TO.N,+5VS*%
X5000000Y-18000000D02*
X6392200Y-19392200D01*
X3604700Y-63283300D02*
X6981100Y-66659700D01*
X18735900Y-22999600D02*
X18941500Y-23205200D01*
X6392200Y-22999600D02*
X18735900Y-22999600D01*
X6392200Y-22999600D02*
X6392200Y-30607800D01*
X35508000Y-19122500D02*
X32280000Y-15894500D01*
X27609700Y-15894500D02*
X25855000Y-17649200D01*
X32280000Y-15894500D02*
X27609700Y-15894500D01*
X6981100Y-66659700D02*
X6981100Y-78176900D01*
X5000000Y-33051700D02*
X3604700Y-34447000D01*
X5000000Y-32000000D02*
X5000000Y-33051700D01*
X6392200Y-30607800D02*
X5000000Y-32000000D01*
X25855000Y-17649200D02*
X25855000Y-20616700D01*
X3604700Y-34447000D02*
X3604700Y-63283300D01*
X6392200Y-19392200D02*
X6392200Y-22999600D01*
X35508000Y-20403500D02*
X35508000Y-19122500D01*
%TO.N,+VBAT*%
X37474999Y-72065000D02*
X37675000Y-72265000D01*
X37474999Y-56565000D02*
X37474999Y-72065000D01*
X38974999Y-72365000D02*
X39074999Y-72465000D01*
X37675000Y-72265000D02*
X37775000Y-72265000D01*
X37775000Y-72265000D02*
X37875000Y-72365000D01*
X37875000Y-72365000D02*
X38974999Y-72365000D01*
X44474999Y-72965000D02*
X46175000Y-74665000D01*
D23*
X37675000Y-46750000D02*
X37675000Y-56365000D01*
D24*
%TO.N,AIN1*%
X45549500Y-18091400D02*
X45549500Y-9533600D01*
X39691000Y-12592400D02*
X40210100Y-12592400D01*
X40577200Y-11895400D02*
X45266400Y-7206200D01*
X45097800Y-18543100D02*
X45549500Y-18091400D01*
X38400300Y-12386400D02*
X39485000Y-12386400D01*
X35326300Y-11199500D02*
X37213400Y-11199500D01*
X48197600Y-5491700D02*
X48834200Y-6128200D01*
X45843500Y-9239600D02*
X45843500Y-9118900D01*
X39485000Y-12386400D02*
X39691000Y-12592400D01*
X40577200Y-12225300D02*
X40577200Y-11895400D01*
X48834200Y-6128200D02*
X49737000Y-5225400D01*
X42954700Y-27029000D02*
X42954700Y-23539200D01*
X45266400Y-7206200D02*
X45525900Y-7206200D01*
X44655300Y-21788700D02*
X44656800Y-21787200D01*
X45549500Y-9533600D02*
X45843500Y-9239600D01*
X45525900Y-7206200D02*
X47240400Y-5491700D01*
X44655300Y-21838600D02*
X44655300Y-21788700D01*
X40210100Y-12592400D02*
X40577200Y-12225300D01*
X44656800Y-21787200D02*
X44656800Y-21198300D01*
X45096300Y-20758800D02*
X45096300Y-19862100D01*
X37213400Y-11199500D02*
X38400300Y-12386400D01*
X42650100Y-27333600D02*
X42954700Y-27029000D01*
X42954700Y-23539200D02*
X44655300Y-21838600D01*
X47240400Y-5491700D02*
X48197600Y-5491700D01*
X45843500Y-9118900D02*
X48834200Y-6128200D01*
X44656800Y-21198300D02*
X45096300Y-20758800D01*
X45097800Y-19860600D02*
X45097800Y-18543100D01*
X45096300Y-19862100D02*
X45097800Y-19860600D01*
X42650100Y-31295000D02*
X42650100Y-27333600D01*
%TO.N,AIN1_PU*%
X16297100Y-26899300D02*
X15495900Y-26899300D01*
X19726600Y-22961500D02*
X19726600Y-23469800D01*
X17309600Y-20544500D02*
X19726600Y-22961500D01*
X11696600Y-20544500D02*
X17309600Y-20544500D01*
X19726600Y-23469800D02*
X16297100Y-26899300D01*
%TO.N,AIN1_R1*%
X13372500Y-23751300D02*
X11169800Y-25954000D01*
X11169800Y-25954000D02*
X11169800Y-30657300D01*
%TO.N,AIN2*%
X20428500Y-19203000D02*
X20428500Y-19983900D01*
X46975200Y-31795000D02*
X46975200Y-33685400D01*
X47532900Y-31237300D02*
X47532900Y-8597200D01*
X20428500Y-19983900D02*
X23862100Y-23417500D01*
X47532900Y-8597200D02*
X50721000Y-5409100D01*
X46975200Y-31795000D02*
X47532900Y-31237300D01*
%TO.N,AIN2_IN*%
X3769100Y-20421600D02*
X4420800Y-21073300D01*
X5000000Y-22000000D02*
X5000000Y-21073300D01*
X4420800Y-21073300D02*
X5000000Y-21073300D01*
X4281900Y-16908900D02*
X3769100Y-17421700D01*
X3769100Y-17421700D02*
X3769100Y-20421600D01*
X20987800Y-23346300D02*
X14550400Y-16908900D01*
X14550400Y-16908900D02*
X4281900Y-16908900D01*
%TO.N,AIN2_R2*%
X27930800Y-25917900D02*
X23286300Y-30562400D01*
X27930800Y-19340400D02*
X27930800Y-25917900D01*
%TO.N,AIN3_IN*%
X17713900Y-9882900D02*
X17713900Y-13556300D01*
X28235900Y-18681600D02*
X30260700Y-20706400D01*
X25501100Y-21343500D02*
X26242400Y-21343500D01*
X26242400Y-21343500D02*
X27190400Y-20395500D01*
X30260700Y-20706400D02*
X30260700Y-24367500D01*
X27700800Y-18681600D02*
X28235900Y-18681600D01*
X27190400Y-20395500D02*
X27190400Y-19192000D01*
X17713900Y-13556300D02*
X25501100Y-21343500D01*
X27190400Y-19192000D02*
X27700800Y-18681600D01*
%TO.N,AIN3_R1*%
X28169800Y-30934000D02*
X30887400Y-28216400D01*
X30887400Y-28216400D02*
X30887400Y-19609500D01*
X30887400Y-19609500D02*
X27930800Y-16652900D01*
%TO.N,AIN3_R2*%
X33204400Y-17945000D02*
X33204400Y-27863700D01*
X33204400Y-27863700D02*
X30112800Y-30955300D01*
%TO.N,AIN4_IN*%
X38725500Y-23723700D02*
X38725500Y-23107000D01*
X5000000Y-25073300D02*
X4420800Y-25073300D01*
X3317400Y-23969900D02*
X3317400Y-17234600D01*
X9708400Y-11043200D02*
X13520700Y-11043200D01*
X4420800Y-25073300D02*
X3317400Y-23969900D01*
X31147700Y-11969800D02*
X30612300Y-11969800D01*
X5000000Y-26000000D02*
X5000000Y-25073300D01*
X38998300Y-22834200D02*
X38998300Y-19820400D01*
X38725500Y-23107000D02*
X38998300Y-22834200D01*
X9508800Y-11043200D02*
X9708400Y-11043200D01*
X13520700Y-11043200D02*
X14447300Y-11969800D01*
X3317400Y-17234600D02*
X9508800Y-11043200D01*
X38998300Y-19820400D02*
X31147700Y-11969800D01*
%TO.N,AIN4_R2*%
X40605800Y-18631600D02*
X40605800Y-30443200D01*
X40605800Y-30443200D02*
X40175000Y-30874000D01*
X40764700Y-18472700D02*
X40605800Y-18631600D01*
%TO.N,BST_3V3*%
X40380900Y-49884400D02*
X40380900Y-54574200D01*
X43894900Y-46370400D02*
X40380900Y-49884400D01*
X46452100Y-57880300D02*
X47051700Y-57280700D01*
X47051700Y-57280700D02*
X47051700Y-45925400D01*
%TO.N,BST_5V*%
X44291400Y-36393200D02*
X44192200Y-36294000D01*
X45012500Y-36393200D02*
X44291400Y-36393200D01*
%TO.N,CAN_L*%
X20215300Y-42865800D02*
X18134900Y-44946200D01*
X23625200Y-38227100D02*
X20215300Y-41637000D01*
X20215300Y-41637000D02*
X20215300Y-42865800D01*
X18134900Y-44946200D02*
X18134900Y-47851900D01*
%TO.N,CAN_RX*%
X38691100Y-24350400D02*
X30057900Y-32983600D01*
X39352300Y-23119000D02*
X39352300Y-24011500D01*
X18717500Y-32983600D02*
X12542700Y-39158400D01*
X39352300Y-24011500D02*
X39013400Y-24350400D01*
X39013400Y-24350400D02*
X38691100Y-24350400D01*
X39686300Y-14240000D02*
X39686300Y-22785000D01*
X39686300Y-22785000D02*
X39352300Y-23119000D01*
X30057900Y-32983600D02*
X18717500Y-32983600D01*
%TO.N,CAN_S*%
X43320000Y-29500000D02*
X44320000Y-28500000D01*
X34020000Y-41200000D02*
X42720000Y-32500000D01*
X42820000Y-32200000D02*
X43320000Y-31700000D01*
X49320000Y-28000000D02*
X52620000Y-24700000D01*
X42720000Y-32500000D02*
X42720000Y-32400000D01*
X43320000Y-31700000D02*
X43320000Y-29500000D01*
X42820000Y-32299999D02*
X42820000Y-32200000D01*
X55320000Y-23100000D02*
X55320000Y-20200000D01*
X55320000Y-20200000D02*
X55120000Y-20000000D01*
X42720000Y-32400000D02*
X42820000Y-32299999D01*
X55020000Y-23400000D02*
X55320000Y-23100000D01*
%TO.N,CAN_TX*%
X39950500Y-10301000D02*
X39950500Y-11965700D01*
X36867100Y-7217600D02*
X39950500Y-10301000D01*
%TO.N,EN_5V*%
X40009000Y-41384100D02*
X40009000Y-38629800D01*
X38534400Y-42858700D02*
X40009000Y-41384100D01*
%TO.N,GATE_RB*%
X13622500Y-63683900D02*
X12988300Y-63049700D01*
X13622500Y-70311100D02*
X13622500Y-63683900D01*
D22*
%TO.N,GND*%
X43150000Y-58450000D02*
X42500000Y-57800000D01*
X43150000Y-42650000D02*
X42500000Y-42000000D01*
D24*
%TO.N,I2C_SCL*%
X49025000Y-29595000D02*
X49025000Y-49695000D01*
X49025000Y-49695000D02*
X50425000Y-51095000D01*
X50425000Y-51095000D02*
X50425000Y-79095000D01*
X55625000Y-12300000D02*
X55525000Y-12400000D01*
X64250000Y-19000000D02*
X64250000Y-18000000D01*
X50425000Y-79095000D02*
X48824999Y-80695000D01*
X54925000Y-16000000D02*
X53325000Y-17600000D01*
X53325000Y-25200000D02*
X49225000Y-29300000D01*
X55525000Y-14500000D02*
X54925000Y-15100000D01*
X53325000Y-17600000D02*
X53325000Y-25200000D01*
X55525000Y-12400000D02*
X55525000Y-14500000D01*
X56025000Y-11800000D02*
X55625000Y-12200000D01*
X54925000Y-15100000D02*
X54925000Y-16000000D01*
X64250000Y-18000000D02*
X59450000Y-13200000D01*
X55625000Y-12200000D02*
X55625000Y-12300000D01*
%TO.N,I2C_SDA*%
X62480000Y-11100000D02*
X62680000Y-11300000D01*
X72280000Y-22200000D02*
X74280000Y-24200000D01*
X48180000Y-27795000D02*
X48180000Y-51395000D01*
X46879999Y-29195000D02*
X46879999Y-26695000D01*
X61980000Y-12400000D02*
X61780000Y-12600000D01*
X59480000Y-11100000D02*
X62480000Y-11100000D01*
X62680000Y-11300000D02*
X62680000Y-12200000D01*
X53879999Y-12800000D02*
X55180000Y-11500000D01*
X51080000Y-12800000D02*
X53879999Y-12800000D01*
X48379999Y-15500000D02*
X51080000Y-12800000D01*
X74280000Y-24700000D02*
X76780000Y-27200000D01*
X49480000Y-77495000D02*
X46280000Y-80695000D01*
X62080000Y-13100000D02*
X64280000Y-15300000D01*
X48379999Y-27500000D02*
X48379999Y-15500000D01*
X74280000Y-24200000D02*
X74280000Y-24700000D01*
X62680000Y-12200000D02*
X62480000Y-12400000D01*
X49480000Y-52695000D02*
X49480000Y-77495000D01*
X62480000Y-12400000D02*
X61980000Y-12400000D01*
X65580000Y-16600000D02*
X65580000Y-17100000D01*
X65580000Y-17100000D02*
X67380000Y-18900000D01*
X48180000Y-51395000D02*
X48480000Y-51695000D01*
X62080000Y-12800000D02*
X62080000Y-13100000D01*
%TO.N,IO15*%
X25558900Y-4176700D02*
X32347800Y-4176700D01*
X32347800Y-4176700D02*
X38719600Y-10548500D01*
X18822300Y-1797700D02*
X23179900Y-1797700D01*
X17620000Y-3000000D02*
X18822300Y-1797700D01*
X23179900Y-1797700D02*
X25558900Y-4176700D01*
%TO.N,IO16*%
X20160000Y-3000000D02*
X23035600Y-5875600D01*
X33144600Y-5875600D02*
X38969000Y-11700000D01*
X23035600Y-5875600D02*
X33144600Y-5875600D01*
%TO.N,IO3*%
X33417200Y-15197900D02*
X38332000Y-20112700D01*
X13903300Y-3502500D02*
X25598700Y-15197900D01*
X11176700Y-2632300D02*
X12029100Y-1779900D01*
X13027700Y-1779900D02*
X13903300Y-2655500D01*
X12029100Y-1779900D02*
X13027700Y-1779900D01*
X10000000Y-3000000D02*
X11176700Y-3000000D01*
X11176700Y-3000000D02*
X11176700Y-2632300D01*
X25598700Y-15197900D02*
X33417200Y-15197900D01*
X13903300Y-2655500D02*
X13903300Y-3502500D01*
%TO.N,IO45*%
X33087000Y-12011900D02*
X31209600Y-10134500D01*
X40471900Y-17879300D02*
X40138000Y-18213200D01*
X38450700Y-13235400D02*
X37227200Y-12011900D01*
X40138000Y-23219500D02*
X39979000Y-23378500D01*
X40205900Y-13235400D02*
X38450700Y-13235400D01*
X40471900Y-13501400D02*
X40471900Y-17879300D01*
X40205900Y-13235400D02*
X45525900Y-7915400D01*
X31209600Y-10134500D02*
X23209600Y-10134500D01*
X45525900Y-7915400D02*
X45525900Y-7832900D01*
X40205900Y-13235400D02*
X40471900Y-13501400D01*
X37227200Y-12011900D02*
X33087000Y-12011900D01*
X40138000Y-18213200D02*
X40138000Y-23219500D01*
X23209600Y-10134500D02*
X18715400Y-5640300D01*
%TO.N,IO46*%
X36251900Y-15976500D02*
X38156900Y-15976500D01*
X42328000Y-26769400D02*
X42328000Y-19120100D01*
X22717800Y-10637800D02*
X30913200Y-10637800D01*
X15080000Y-3000000D02*
X22717800Y-10637800D01*
X30913200Y-10637800D02*
X36251900Y-15976500D01*
%TO.N,LED_DIN_A*%
X66446500Y-73022500D02*
X65601700Y-72177700D01*
X65601700Y-72177700D02*
X64924500Y-72177700D01*
%TO.N,LED_DIN_MCU*%
X57434000Y-18199200D02*
X57434000Y-22943800D01*
X64730500Y-30240300D02*
X64730500Y-69504900D01*
X57258900Y-18024100D02*
X57434000Y-18199200D01*
X57434000Y-22943800D02*
X64730500Y-30240300D01*
%TO.N,MCU_EN*%
X64934300Y-9784900D02*
X59728700Y-4579300D01*
X64934300Y-21145600D02*
X64934300Y-9784900D01*
X59728700Y-4579300D02*
X59484100Y-4579300D01*
%TO.N,PG_5V*%
X41008300Y-52196200D02*
X41008300Y-62554800D01*
X44819900Y-46331700D02*
X44819900Y-46261900D01*
X42537300Y-50667200D02*
X41008300Y-52196200D01*
X42537300Y-50667200D02*
X42537300Y-48614300D01*
X42537300Y-48614300D02*
X44819900Y-46331700D01*
%TO.N,RAMP_5V*%
X39050000Y-52199999D02*
X39050000Y-55300000D01*
X48412499Y-52700000D02*
X47812500Y-52100000D01*
X47550000Y-53699999D02*
X49750000Y-51500000D01*
X47812500Y-52100000D02*
X47812500Y-51700000D01*
X39250000Y-61300000D02*
X39050000Y-61500000D01*
X39250000Y-55500000D02*
X39250000Y-61300000D01*
X39050000Y-55300000D02*
X39250000Y-55500000D01*
X47812500Y-51700000D02*
X47712500Y-51600000D01*
X47712500Y-51600000D02*
X47712500Y-39200000D01*
X47712500Y-39200000D02*
X46812500Y-38300000D01*
X43950000Y-61500000D02*
X47150000Y-58300000D01*
X47150000Y-58300000D02*
X47150000Y-57900000D01*
X47150000Y-57900000D02*
X47450000Y-57599999D01*
X47550000Y-57400000D02*
X47550000Y-53699999D01*
X43150000Y-61500000D02*
X43950000Y-61500000D01*
X47450000Y-57500000D02*
X47550000Y-57400000D01*
X47450000Y-57599999D02*
X47450000Y-57500000D01*
%TO.N,SD_CD*%
X55378700Y-18493600D02*
X55392400Y-18507300D01*
X55844000Y-29342900D02*
X60537000Y-34035900D01*
X55582400Y-15510000D02*
X55378700Y-15713700D01*
X55844000Y-19360800D02*
X55844000Y-29342900D01*
X55392400Y-18909200D02*
X55844000Y-19360800D01*
X55392400Y-18507300D02*
X55392400Y-18909200D01*
X55378700Y-15713700D02*
X55378700Y-18493600D01*
%TO.N,SD_CLK_C*%
X62469200Y-28718300D02*
X62469200Y-39775000D01*
X58179500Y-24428600D02*
X62469200Y-28718300D01*
X57953500Y-24428600D02*
X58179500Y-24428600D01*
%TO.N,SD_CMD*%
X54021000Y-26843700D02*
X54021000Y-18021700D01*
%TO.N,SD_CMD_C*%
X61163700Y-31447100D02*
X57390500Y-27673900D01*
X62628800Y-40834400D02*
X61163700Y-39369300D01*
X61163700Y-39369300D02*
X61163700Y-31447100D01*
X62707400Y-40834400D02*
X62628800Y-40834400D01*
%TO.N,SD_D0*%
X58778100Y-16052200D02*
X58564200Y-16266100D01*
X58337600Y-18397800D02*
X60869200Y-20929400D01*
X58337600Y-17301200D02*
X58337600Y-18397800D01*
X58564200Y-17074600D02*
X58337600Y-17301200D01*
X58564200Y-16266100D02*
X58564200Y-17074600D01*
X51860800Y-18026500D02*
X51860800Y-15179400D01*
%TO.N,SD_D1*%
X50283800Y-25620800D02*
X49098800Y-26805800D01*
X50283800Y-18034500D02*
X50283800Y-25620800D01*
%TO.N,SD_D1_C*%
X53667000Y-37728300D02*
X53667000Y-30939700D01*
X56079700Y-36675000D02*
X58645700Y-34109000D01*
X56079700Y-37728300D02*
X56079700Y-36675000D01*
%TO.N,SD_D2_C*%
X54797000Y-36833800D02*
X54797000Y-31036400D01*
X54797000Y-31036400D02*
X54702100Y-30941500D01*
%TO.N,SD_D3*%
X59167700Y-30341200D02*
X56370600Y-27544100D01*
X55830400Y-17787500D02*
X56238000Y-17379900D01*
X49352500Y-18026500D02*
X49352500Y-15604300D01*
X56238100Y-17379900D02*
X56238100Y-12691900D01*
X55830400Y-18306500D02*
X55830400Y-17787500D01*
X56370600Y-27544100D02*
X56370600Y-18846700D01*
X56370600Y-18846700D02*
X55830400Y-18306500D01*
X49352500Y-15604300D02*
X51507200Y-13449600D01*
X56238000Y-17379900D02*
X56238100Y-17379900D01*
%TO.N,SD_D3_C*%
X60748700Y-27884100D02*
X61836600Y-28972000D01*
X61836600Y-28972000D02*
X61836600Y-38524400D01*
%TO.N,SD_PWR_EN*%
X66302200Y-52302800D02*
X65751800Y-52853200D01*
X65182200Y-38198000D02*
X66302200Y-39318000D01*
X57885700Y-17114300D02*
X57885700Y-18851200D01*
X58112500Y-15300500D02*
X58112500Y-16887500D01*
X66302200Y-39318000D02*
X66302200Y-52302800D01*
X58564200Y-14848800D02*
X58112500Y-15300500D01*
X65182200Y-26147700D02*
X65182200Y-38198000D01*
X58112500Y-16887500D02*
X57885700Y-17114300D01*
X57885700Y-18851200D02*
X65182200Y-26147700D01*
D22*
%TO.N,SD_VDD*%
X62672600Y-48939400D02*
X62672600Y-41960500D01*
X59428600Y-33784900D02*
X59428600Y-35657600D01*
X62672600Y-41960500D02*
X62706900Y-41960500D01*
X62706900Y-41960500D02*
X63792400Y-40875000D01*
X60567000Y-51045000D02*
X62672600Y-48939400D01*
X59428600Y-35657600D02*
X58941900Y-36144300D01*
X58316000Y-32672300D02*
X59428600Y-33784900D01*
X58027100Y-32672300D02*
X58316000Y-32672300D01*
X58941900Y-38229800D02*
X62672600Y-41960500D01*
X58941900Y-36144300D02*
X58941900Y-38229800D01*
D24*
%TO.N,SPI_CS*%
X56901200Y-18552600D02*
X56901200Y-26275700D01*
X56632200Y-17764600D02*
X56632200Y-18047000D01*
X52416100Y-3653700D02*
X56901200Y-8138800D01*
X56901200Y-17495600D02*
X56632200Y-17764600D01*
X40200000Y-3000000D02*
X40853700Y-3653700D01*
X56632200Y-18047000D02*
X56632200Y-18283600D01*
X56632200Y-18047000D02*
X56457100Y-18047000D01*
X56901200Y-16993500D02*
X56901200Y-17495600D01*
X56827000Y-16400300D02*
X56827000Y-16919300D01*
X56827000Y-16919300D02*
X56901200Y-16993500D01*
X56901200Y-16326100D02*
X56827000Y-16400300D01*
X56901200Y-26275700D02*
X61176100Y-30550600D01*
X40853700Y-3653700D02*
X52416100Y-3653700D01*
X56632200Y-18283600D02*
X56901200Y-18552600D01*
X56901200Y-8138800D02*
X56901200Y-16326100D01*
%TO.N,SPI_MISO*%
X41720400Y-4695600D02*
X41832900Y-4583100D01*
X35120000Y-3000000D02*
X36815600Y-4695600D01*
X52010900Y-4583100D02*
X54632500Y-7204700D01*
X54632500Y-7204700D02*
X54632500Y-7966300D01*
X36815600Y-4695600D02*
X41720400Y-4695600D01*
X41832900Y-4583100D02*
X52010900Y-4583100D01*
%TO.N,SPI_MOSI*%
X41337800Y-4214200D02*
X41446600Y-4105400D01*
X55856400Y-7736200D02*
X55856400Y-8239400D01*
X38874200Y-4214200D02*
X41337800Y-4214200D01*
X52225600Y-4105400D02*
X55856400Y-7736200D01*
X37660000Y-3000000D02*
X38874200Y-4214200D01*
X41446600Y-4105400D02*
X52225600Y-4105400D01*
%TO.N,SPI_SCK*%
X44531700Y-6981800D02*
X44140800Y-6590900D01*
X36170900Y-6590900D02*
X32580000Y-3000000D01*
X44140800Y-6590900D02*
X36170900Y-6590900D01*
%TO.N,UART_RX*%
X31280000Y-65300000D02*
X31580000Y-65000000D01*
X45080000Y-22100000D02*
X45080000Y-22000000D01*
X45580000Y-18700000D02*
X46080000Y-18200000D01*
X45180000Y-21400000D02*
X45480000Y-21100000D01*
X43780000Y-31900000D02*
X43780000Y-30100000D01*
X45180000Y-21900000D02*
X45180000Y-21400000D01*
X43180000Y-32700000D02*
X43180000Y-32600000D01*
X48580000Y-14400000D02*
X52580000Y-10400000D01*
X52580000Y-6700000D02*
X52880000Y-6400000D01*
X46080000Y-18200000D02*
X46080000Y-15400000D01*
X43780000Y-30100000D02*
X44980000Y-28900000D01*
X52580000Y-10400000D02*
X52580000Y-6700000D01*
X45480000Y-21000000D02*
X45580000Y-20900000D01*
X44980000Y-28900000D02*
X44980000Y-22200000D01*
X43280000Y-32500000D02*
X43280000Y-32400000D01*
X45480000Y-21100000D02*
X45480000Y-21000000D01*
X31580000Y-65000000D02*
X31580000Y-45900000D01*
X31280000Y-80700000D02*
X31280000Y-65300000D01*
X45580000Y-20900000D02*
X45580000Y-18700000D01*
X37080000Y-38800000D02*
X43180000Y-32700000D01*
X31580000Y-45900000D02*
X37080000Y-40400000D01*
X43180000Y-32600000D02*
X43280000Y-32500000D01*
X37080000Y-40400000D02*
X37080000Y-38800000D01*
X43280000Y-32400000D02*
X43780000Y-31900000D01*
X45080000Y-22000000D02*
X45180000Y-21900000D01*
X46080000Y-15400000D02*
X46379999Y-15100000D01*
X44980000Y-22200000D02*
X45080000Y-22100000D01*
%TO.N,UART_TX*%
X37140000Y-78300000D02*
X37840000Y-78300000D01*
X32340000Y-80300000D02*
X35140000Y-80300000D01*
X51740000Y-62600000D02*
X61940000Y-52400000D01*
X68140000Y-45700000D02*
X68539999Y-45300000D01*
X72940000Y-25000000D02*
X72940000Y-24000000D01*
X73440000Y-39900000D02*
X73440000Y-25500000D01*
X48540000Y-70400000D02*
X48840000Y-70100000D01*
X44640000Y-72200000D02*
X46340000Y-70500000D01*
X71640000Y-14200000D02*
X69340000Y-11900000D01*
X68539999Y-45300000D02*
X68539999Y-44800000D01*
X51140000Y-64700000D02*
X51740000Y-64100000D01*
X72940000Y-24000000D02*
X71640000Y-22700000D01*
X71640000Y-22700000D02*
X71640000Y-14200000D01*
X61940000Y-51300000D02*
X64039999Y-49200000D01*
X51140000Y-67800000D02*
X51140000Y-64700000D01*
X61940000Y-52400000D02*
X61940000Y-51300000D01*
X43940000Y-72200000D02*
X44640000Y-72200000D01*
X68539999Y-44800000D02*
X73440000Y-39900000D01*
X73440000Y-25500000D02*
X72940000Y-25000000D01*
X37840000Y-78300000D02*
X43940000Y-72200000D01*
X35140000Y-80300000D02*
X37140000Y-78300000D01*
X46340000Y-70500000D02*
X46440000Y-70500000D01*
X51740000Y-64100000D02*
X51740000Y-62600000D01*
X46540000Y-70400000D02*
X48540000Y-70400000D01*
X67140000Y-11100000D02*
X62740000Y-6700000D01*
X46440000Y-70500000D02*
X46540000Y-70400000D01*
D25*
%TO.N,USB_CC2*%
X77245200Y-14218800D02*
X77245200Y-15230900D01*
X77245200Y-15230900D02*
X73487800Y-18988300D01*
D24*
%TO.N,USB_DM*%
X58536100Y-13210400D02*
X58536100Y-13856100D01*
X59409400Y-14729400D02*
X59409400Y-17115600D01*
X59409400Y-17115600D02*
X58964300Y-17560700D01*
X60011200Y-11735300D02*
X58536100Y-13210400D01*
X62029800Y-11735300D02*
X60011200Y-11735300D01*
X58536100Y-13856100D02*
X59409400Y-14729400D01*
%TO.N,USB_DP*%
X57453800Y-5676900D02*
X57453800Y-16659800D01*
X59216300Y-3914400D02*
X57453800Y-5676900D01*
X64517700Y-3914400D02*
X59216300Y-3914400D01*
X68929800Y-8326500D02*
X64517700Y-3914400D01*
D22*
%TO.N,VBAT_IN*%
X24306600Y-69306600D02*
X24306600Y-69908300D01*
X5000000Y-50000000D02*
X24306600Y-69306600D01*
D24*
%TO.N,VBAT_SNS*%
X47081200Y-10663600D02*
X47081200Y-21850200D01*
X41522600Y-46216100D02*
X39753500Y-47985200D01*
X45591900Y-28277400D02*
X45879000Y-28564500D01*
X45879000Y-37880200D02*
X44131100Y-39628100D01*
X39753500Y-70032500D02*
X38241000Y-71545000D01*
X44131100Y-39628100D02*
X44131100Y-45248000D01*
X47081200Y-21850200D02*
X45591900Y-23339500D01*
X45879000Y-28564500D02*
X45879000Y-37880200D01*
X43163100Y-46216000D02*
X43163100Y-46216100D01*
X45591900Y-23339500D02*
X45591900Y-28277400D01*
X43163100Y-46216100D02*
X41522600Y-46216100D01*
X46193600Y-9776000D02*
X47081200Y-10663600D01*
X44131100Y-45248000D02*
X43163100Y-46216000D01*
X39753500Y-47985200D02*
X39753500Y-70032500D01*
D22*
%TO.N,VBUS_IN*%
X73981700Y-19696600D02*
X72981700Y-19696600D01*
X72981700Y-19696600D02*
X72781700Y-19496600D01*
X72781700Y-18396600D02*
X72681700Y-18296599D01*
X72581700Y-18096600D02*
X72581700Y-15496600D01*
X72681700Y-18296599D02*
X72681700Y-18196600D01*
X72781700Y-19496600D02*
X72781700Y-18396600D01*
X74381700Y-19296600D02*
X73981700Y-19696600D01*
X72681700Y-18196600D02*
X72581700Y-18096600D01*
D24*
%TO.N,VCAP*%
X24339300Y-70940200D02*
X12648300Y-70940200D01*
X25643100Y-67834600D02*
X25643100Y-69636400D01*
X12648300Y-70940200D02*
X10425500Y-68717400D01*
X25643100Y-69636400D02*
X24339300Y-70940200D01*
%TD*%
M02*
