%TF.GenerationSoftware,KiCad,Pcbnew,9.0.5*%
%TF.CreationDate,2026-08-11T20:09:23-04:00*%
%TF.ProjectId,esp32s3-can-sd-logger,65737033-3273-4332-9d63-616e2d73642d,rev?*%
%TF.SameCoordinates,Original*%
%TF.FileFunction,Copper,L1,Top*%
%TF.FilePolarity,Positive*%
%FSLAX46Y46*%
G04 Gerber Fmt 4.6, Leading zero omitted, Abs format (unit mm)*
G04 Created by KiCad (PCBNEW 9.0.5) date 2026-08-11 20:09:23*
%MOMM*%
%LPD*%
G01*
G04 APERTURE LIST*
G04 Aperture macros list*
%AMRoundRect*
0 Rectangle with rounded corners*
0 $1 Rounding radius*
0 $2 $3 $4 $5 $6 $7 $8 $9 X,Y pos of 4 corners*
0 Add a 4 corners polygon primitive as box body*
4,1,4,$2,$3,$4,$5,$6,$7,$8,$9,$2,$3,0*
0 Add four circle primitives for the rounded corners*
1,1,$1+$1,$2,$3*
1,1,$1+$1,$4,$5*
1,1,$1+$1,$6,$7*
1,1,$1+$1,$8,$9*
0 Add four rect primitives between the rounded corners*
20,1,$1+$1,$2,$3,$4,$5,0*
20,1,$1+$1,$4,$5,$6,$7,0*
20,1,$1+$1,$6,$7,$8,$9,0*
20,1,$1+$1,$8,$9,$2,$3,0*%
G04 Aperture macros list end*
%TA.AperFunction,EtchedComponent*%
%ADD10C,0.000000*%
%TD*%
%TA.AperFunction,SMDPad,CuDef*%
%ADD11RoundRect,0.150000X-0.587500X-0.150000X0.587500X-0.150000X0.587500X0.150000X-0.587500X0.150000X0*%
%TD*%
%TA.AperFunction,ComponentPad*%
%ADD12R,1.700000X1.700000*%
%TD*%
%TA.AperFunction,ComponentPad*%
%ADD13C,1.700000*%
%TD*%
%TA.AperFunction,SMDPad,CuDef*%
%ADD14RoundRect,0.250000X-0.262500X-0.450000X0.262500X-0.450000X0.262500X0.450000X-0.262500X0.450000X0*%
%TD*%
%TA.AperFunction,SMDPad,CuDef*%
%ADD15RoundRect,0.250000X-0.250000X-0.475000X0.250000X-0.475000X0.250000X0.475000X-0.250000X0.475000X0*%
%TD*%
%TA.AperFunction,SMDPad,CuDef*%
%ADD16RoundRect,0.250000X-0.325000X-0.650000X0.325000X-0.650000X0.325000X0.650000X-0.325000X0.650000X0*%
%TD*%
%TA.AperFunction,SMDPad,CuDef*%
%ADD17RoundRect,0.150000X-0.512500X-0.150000X0.512500X-0.150000X0.512500X0.150000X-0.512500X0.150000X0*%
%TD*%
%TA.AperFunction,SMDPad,CuDef*%
%ADD18C,1.500000*%
%TD*%
%TA.AperFunction,SMDPad,CuDef*%
%ADD19RoundRect,0.250000X-1.000000X-0.650000X1.000000X-0.650000X1.000000X0.650000X-1.000000X0.650000X0*%
%TD*%
%TA.AperFunction,SMDPad,CuDef*%
%ADD20RoundRect,0.250000X-0.312500X-0.625000X0.312500X-0.625000X0.312500X0.625000X-0.312500X0.625000X0*%
%TD*%
%TA.AperFunction,SMDPad,CuDef*%
%ADD21RoundRect,0.249999X-0.850001X-3.500001X0.850001X-3.500001X0.850001X3.500001X-0.850001X3.500001X0*%
%TD*%
%TA.AperFunction,SMDPad,CuDef*%
%ADD22RoundRect,0.250000X0.325000X0.650000X-0.325000X0.650000X-0.325000X-0.650000X0.325000X-0.650000X0*%
%TD*%
%TA.AperFunction,SMDPad,CuDef*%
%ADD23RoundRect,0.225000X-0.225000X-0.375000X0.225000X-0.375000X0.225000X0.375000X-0.225000X0.375000X0*%
%TD*%
%TA.AperFunction,SMDPad,CuDef*%
%ADD24R,1.000000X1.500000*%
%TD*%
%TA.AperFunction,SMDPad,CuDef*%
%ADD25RoundRect,0.218750X-0.218750X-0.381250X0.218750X-0.381250X0.218750X0.381250X-0.218750X0.381250X0*%
%TD*%
%TA.AperFunction,SMDPad,CuDef*%
%ADD26RoundRect,0.150000X-0.737500X-0.150000X0.737500X-0.150000X0.737500X0.150000X-0.737500X0.150000X0*%
%TD*%
%TA.AperFunction,HeatsinkPad*%
%ADD27C,0.500000*%
%TD*%
%TA.AperFunction,HeatsinkPad*%
%ADD28R,2.950000X4.900000*%
%TD*%
%TA.AperFunction,SMDPad,CuDef*%
%ADD29RoundRect,0.250000X-0.375000X-0.625000X0.375000X-0.625000X0.375000X0.625000X-0.375000X0.625000X0*%
%TD*%
%TA.AperFunction,SMDPad,CuDef*%
%ADD30RoundRect,0.150000X-0.825000X-0.150000X0.825000X-0.150000X0.825000X0.150000X-0.825000X0.150000X0*%
%TD*%
%TA.AperFunction,SMDPad,CuDef*%
%ADD31RoundRect,0.250000X-1.950000X-1.000000X1.950000X-1.000000X1.950000X1.000000X-1.950000X1.000000X0*%
%TD*%
%TA.AperFunction,SMDPad,CuDef*%
%ADD32RoundRect,0.250000X1.000000X-1.400000X1.000000X1.400000X-1.000000X1.400000X-1.000000X-1.400000X0*%
%TD*%
%TA.AperFunction,ComponentPad*%
%ADD33RoundRect,0.250000X-0.625000X0.350000X-0.625000X-0.350000X0.625000X-0.350000X0.625000X0.350000X0*%
%TD*%
%TA.AperFunction,ComponentPad*%
%ADD34O,1.750000X1.200000*%
%TD*%
%TA.AperFunction,SMDPad,CuDef*%
%ADD35R,1.750000X0.700000*%
%TD*%
%TA.AperFunction,SMDPad,CuDef*%
%ADD36R,1.000000X1.450000*%
%TD*%
%TA.AperFunction,SMDPad,CuDef*%
%ADD37R,1.550000X1.000000*%
%TD*%
%TA.AperFunction,SMDPad,CuDef*%
%ADD38R,1.500000X0.800000*%
%TD*%
%TA.AperFunction,SMDPad,CuDef*%
%ADD39R,1.500000X1.300000*%
%TD*%
%TA.AperFunction,SMDPad,CuDef*%
%ADD40R,1.500000X1.500000*%
%TD*%
%TA.AperFunction,SMDPad,CuDef*%
%ADD41R,1.400000X0.800000*%
%TD*%
%TA.AperFunction,SMDPad,CuDef*%
%ADD42R,1.450000X0.600000*%
%TD*%
%TA.AperFunction,SMDPad,CuDef*%
%ADD43R,1.450000X0.300000*%
%TD*%
%TA.AperFunction,HeatsinkPad*%
%ADD44O,2.100000X1.000000*%
%TD*%
%TA.AperFunction,HeatsinkPad*%
%ADD45O,1.600000X1.000000*%
%TD*%
%TA.AperFunction,SMDPad,CuDef*%
%ADD46RoundRect,0.250000X0.250000X0.475000X-0.250000X0.475000X-0.250000X-0.475000X0.250000X-0.475000X0*%
%TD*%
%TA.AperFunction,SMDPad,CuDef*%
%ADD47R,1.350000X0.900000*%
%TD*%
%TA.AperFunction,SMDPad,CuDef*%
%ADD48RoundRect,0.243750X-0.243750X-0.456250X0.243750X-0.456250X0.243750X0.456250X-0.243750X0.456250X0*%
%TD*%
%TA.AperFunction,SMDPad,CuDef*%
%ADD49RoundRect,0.250000X-0.850000X-0.350000X0.850000X-0.350000X0.850000X0.350000X-0.850000X0.350000X0*%
%TD*%
%TA.AperFunction,SMDPad,CuDef*%
%ADD50RoundRect,0.249997X-2.950003X-2.650003X2.950003X-2.650003X2.950003X2.650003X-2.950003X2.650003X0*%
%TD*%
%TA.AperFunction,SMDPad,CuDef*%
%ADD51R,1.700000X1.000000*%
%TD*%
%TA.AperFunction,SMDPad,CuDef*%
%ADD52R,1.500000X0.900000*%
%TD*%
%TA.AperFunction,SMDPad,CuDef*%
%ADD53R,0.900000X1.500000*%
%TD*%
%TA.AperFunction,HeatsinkPad*%
%ADD54C,0.600000*%
%TD*%
%TA.AperFunction,HeatsinkPad*%
%ADD55R,3.900000X3.900000*%
%TD*%
%TA.AperFunction,SMDPad,CuDef*%
%ADD56RoundRect,0.112500X-0.187500X-0.112500X0.187500X-0.112500X0.187500X0.112500X-0.187500X0.112500X0*%
%TD*%
%TA.AperFunction,SMDPad,CuDef*%
%ADD57RoundRect,0.249998X-3.650002X-4.550002X3.650002X-4.550002X3.650002X4.550002X-3.650002X4.550002X0*%
%TD*%
%TA.AperFunction,SMDPad,CuDef*%
%ADD58RoundRect,0.250000X-0.275000X-0.700000X0.275000X-0.700000X0.275000X0.700000X-0.275000X0.700000X0*%
%TD*%
%TA.AperFunction,SMDPad,CuDef*%
%ADD59RoundRect,0.075000X-0.650000X-0.075000X0.650000X-0.075000X0.650000X0.075000X-0.650000X0.075000X0*%
%TD*%
%TA.AperFunction,ViaPad*%
%ADD60C,0.600000*%
%TD*%
%TA.AperFunction,ViaPad*%
%ADD61C,0.800000*%
%TD*%
%TA.AperFunction,ViaPad*%
%ADD62C,0.500000*%
%TD*%
%TA.AperFunction,Conductor*%
%ADD63C,0.300000*%
%TD*%
%TA.AperFunction,Conductor*%
%ADD64C,0.550000*%
%TD*%
%TA.AperFunction,Conductor*%
%ADD65C,0.250000*%
%TD*%
%TA.AperFunction,Conductor*%
%ADD66C,0.600000*%
%TD*%
%TA.AperFunction,Conductor*%
%ADD67C,0.200000*%
%TD*%
G04 APERTURE END LIST*
D10*
%TA.AperFunction,EtchedComponent*%
%TO.C,JP1*%
G36*
X11445000Y-45701700D02*
G01*
X10945000Y-45701700D01*
X10945000Y-45101700D01*
X11445000Y-45101700D01*
X11445000Y-45701700D01*
G37*
%TD.AperFunction*%
%TD*%
D11*
%TO.P,Q2,1*%
%TO.N,SENS_G*%
X39887500Y-69795000D03*
%TO.P,Q2,2*%
%TO.N,+5V*%
X39887500Y-71695000D03*
%TO.P,Q2,3*%
%TO.N,VSENS_SW*%
X41762500Y-70745000D03*
%TD*%
D12*
%TO.P,J6,1*%
%TO.N,LED_5V*%
X69000000Y-97500000D03*
D13*
%TO.P,J6,2*%
%TO.N,LED_DIN_J*%
X71540000Y-97500000D03*
%TO.P,J6,3*%
%TO.N,GND*%
X74080000Y-97500000D03*
%TD*%
D14*
%TO.P,R69,1*%
%TO.N,AIN4_PU*%
X35412500Y-28730000D03*
%TO.P,R69,2*%
%TO.N,AIN4_A*%
X37237500Y-28730000D03*
%TD*%
D15*
%TO.P,C34,1*%
%TO.N,SD_VDD*%
X56135000Y-22425000D03*
%TO.P,C34,2*%
%TO.N,GND*%
X58035000Y-22425000D03*
%TD*%
D14*
%TO.P,R73,1*%
%TO.N,+VBAT*%
X48312500Y-78835000D03*
%TO.P,R73,2*%
%TO.N,VBAT_SNS*%
X50137500Y-78835000D03*
%TD*%
D16*
%TO.P,C23,1*%
%TO.N,+3V3*%
X55025000Y-63600000D03*
%TO.P,C23,2*%
%TO.N,GND*%
X57975000Y-63600000D03*
%TD*%
D17*
%TO.P,U7,1*%
%TO.N,GND*%
X49457500Y-86595000D03*
%TO.P,U7,2*%
%TO.N,LED_DIN_A*%
X49457500Y-87545000D03*
%TO.P,U7,3*%
%TO.N,GND*%
X49457500Y-88495000D03*
%TO.P,U7,4*%
%TO.N,LED_DIN*%
X51732500Y-88495000D03*
%TO.P,U7,5*%
%TO.N,+5V*%
X51732500Y-86595000D03*
%TD*%
D14*
%TO.P,R10,1*%
%TO.N,+VBAT*%
X37387500Y-37600000D03*
%TO.P,R10,2*%
%TO.N,EN_5V*%
X39212500Y-37600000D03*
%TD*%
D18*
%TO.P,TP8,1*%
%TO.N,CAN_H*%
X25777500Y-41299600D03*
%TD*%
D19*
%TO.P,D7,1*%
%TO.N,CAN_L*%
X18535000Y-41798300D03*
%TO.P,D7,2*%
%TO.N,GND*%
X22535000Y-41798300D03*
%TD*%
D14*
%TO.P,R65,1*%
%TO.N,AIN3_A*%
X31162500Y-28730000D03*
%TO.P,R65,2*%
%TO.N,AIN3*%
X32987500Y-28730000D03*
%TD*%
D15*
%TO.P,C24,1*%
%TO.N,+3V3*%
X55550000Y-66200000D03*
%TO.P,C24,2*%
%TO.N,GND*%
X57450000Y-66200000D03*
%TD*%
%TO.P,C26,1*%
%TO.N,MCU_EN*%
X68885000Y-24025000D03*
%TO.P,C26,2*%
%TO.N,GND*%
X70785000Y-24025000D03*
%TD*%
D14*
%TO.P,R17,1*%
%TO.N,RON_3V3*%
X37587500Y-64000000D03*
%TO.P,R17,2*%
%TO.N,GND*%
X39412500Y-64000000D03*
%TD*%
%TO.P,R56,1*%
%TO.N,AIN1_R1*%
X10312500Y-32005000D03*
%TO.P,R56,2*%
%TO.N,GND*%
X12137500Y-32005000D03*
%TD*%
D15*
%TO.P,C8,1*%
%TO.N,PFD_SENSE*%
X35295000Y-74008300D03*
%TO.P,C8,2*%
%TO.N,GND*%
X37195000Y-74008300D03*
%TD*%
D20*
%TO.P,PF1,1*%
%TO.N,VSENS_SW*%
X40452500Y-86165000D03*
%TO.P,PF1,2*%
%TO.N,VSENS_F*%
X43377500Y-86165000D03*
%TD*%
D21*
%TO.P,L2,1*%
%TO.N,SW_3V3*%
X50000000Y-57800000D03*
%TO.P,L2,2*%
%TO.N,+3V3*%
X56000000Y-57800000D03*
%TD*%
D11*
%TO.P,D13,1*%
%TO.N,GND*%
X27537500Y-12670000D03*
%TO.P,D13,2*%
%TO.N,+3V3*%
X27537500Y-14570000D03*
%TO.P,D13,3*%
%TO.N,AIN3*%
X29412500Y-13620000D03*
%TD*%
D22*
%TO.P,C4,1*%
%TO.N,+VBAT*%
X37675000Y-45100000D03*
%TO.P,C4,2*%
%TO.N,GND*%
X34725000Y-45100000D03*
%TD*%
D14*
%TO.P,R30,1*%
%TO.N,LED_DIN_MCU*%
X58952500Y-86795000D03*
%TO.P,R30,2*%
%TO.N,LED_DIN_A*%
X60777500Y-86795000D03*
%TD*%
D16*
%TO.P,C22,1*%
%TO.N,+3V3*%
X50025000Y-63600000D03*
%TO.P,C22,2*%
%TO.N,GND*%
X52975000Y-63600000D03*
%TD*%
D14*
%TO.P,R34,1*%
%TO.N,IO46*%
X43412500Y-27405000D03*
%TO.P,R34,2*%
%TO.N,GND*%
X45237500Y-27405000D03*
%TD*%
%TO.P,R26,1*%
%TO.N,USB_CC2*%
X70552500Y-17675000D03*
%TO.P,R26,2*%
%TO.N,GND*%
X72377500Y-17675000D03*
%TD*%
D23*
%TO.P,D5,1*%
%TO.N,+5V*%
X67335000Y-9195000D03*
%TO.P,D5,2*%
%TO.N,VBUS*%
X70635000Y-9195000D03*
%TD*%
D14*
%TO.P,R46,1*%
%TO.N,SD_VDD*%
X59212500Y-32252500D03*
%TO.P,R46,2*%
%TO.N,SD_D1_C*%
X61037500Y-32252500D03*
%TD*%
D24*
%TO.P,JP6,1*%
%TO.N,AIN2_A*%
X22835000Y-21820000D03*
%TO.P,JP6,2*%
%TO.N,AIN2*%
X24135000Y-21820000D03*
%TD*%
D14*
%TO.P,R5,1*%
%TO.N,+3V3*%
X35312500Y-76521700D03*
%TO.P,R5,2*%
%TO.N,PWR_FAIL*%
X37137500Y-76521700D03*
%TD*%
%TO.P,R48,1*%
%TO.N,SD_VDD*%
X54912500Y-35405000D03*
%TO.P,R48,2*%
%TO.N,SD_D3_C*%
X56737500Y-35405000D03*
%TD*%
%TO.P,R13,1*%
%TO.N,FB_5V*%
X41587500Y-48200000D03*
%TO.P,R13,2*%
%TO.N,GND*%
X43412500Y-48200000D03*
%TD*%
%TO.P,R2,1*%
%TO.N,VBAT_UVLO*%
X17752500Y-73645000D03*
%TO.P,R2,2*%
%TO.N,GND*%
X19577500Y-73645000D03*
%TD*%
%TO.P,R21,1*%
%TO.N,PG_3V3*%
X43587500Y-66800000D03*
%TO.P,R21,2*%
%TO.N,+3V3*%
X45412500Y-66800000D03*
%TD*%
%TO.P,R47,1*%
%TO.N,SD_VDD*%
X50612500Y-35405000D03*
%TO.P,R47,2*%
%TO.N,SD_D2_C*%
X52437500Y-35405000D03*
%TD*%
D24*
%TO.P,JP7,1*%
%TO.N,AIN2_R1*%
X19045000Y-17945000D03*
%TO.P,JP7,2*%
%TO.N,AIN2*%
X20345000Y-17945000D03*
%TO.P,JP7,3*%
%TO.N,AIN2_R2*%
X21645000Y-17945000D03*
%TD*%
%TO.P,JP2,1*%
%TO.N,+5VS*%
X10545000Y-21820000D03*
%TO.P,JP2,2*%
%TO.N,AIN1_PU*%
X11845000Y-21820000D03*
%TD*%
D14*
%TO.P,R32,1*%
%TO.N,IO3*%
X43412500Y-21795000D03*
%TO.P,R32,2*%
%TO.N,GND*%
X45237500Y-21795000D03*
%TD*%
%TO.P,R74,1*%
%TO.N,VBAT_SNS*%
X52162500Y-78835000D03*
%TO.P,R74,2*%
%TO.N,GND*%
X53987500Y-78835000D03*
%TD*%
D11*
%TO.P,D16,1*%
%TO.N,GND*%
X48537500Y-70295000D03*
%TO.P,D16,2*%
%TO.N,+3V3*%
X48537500Y-72195000D03*
%TO.P,D16,3*%
%TO.N,VBAT_SNS*%
X50412500Y-71245000D03*
%TD*%
D25*
%TO.P,FB2,1*%
%TO.N,VSENS_F*%
X35232500Y-88675000D03*
%TO.P,FB2,2*%
%TO.N,+5VS*%
X37357500Y-88675000D03*
%TD*%
D24*
%TO.P,JP8,1*%
%TO.N,+5VS*%
X27545000Y-21820000D03*
%TO.P,JP8,2*%
%TO.N,AIN3_PU*%
X28845000Y-21820000D03*
%TD*%
D26*
%TO.P,U3,1*%
%TO.N,GND*%
X39937500Y-40095000D03*
%TO.P,U3,2*%
%TO.N,+VBAT*%
X39937500Y-41365000D03*
%TO.P,U3,3*%
%TO.N,EN_5V*%
X39937500Y-42635000D03*
%TO.P,U3,4*%
%TO.N,RON_5V*%
X39937500Y-43905000D03*
%TO.P,U3,5*%
%TO.N,FB_5V*%
X45062500Y-43905000D03*
%TO.P,U3,6*%
%TO.N,PG_5V*%
X45062500Y-42635000D03*
%TO.P,U3,7*%
%TO.N,BST_5V*%
X45062500Y-41365000D03*
%TO.P,U3,8*%
%TO.N,SW_5V*%
X45062500Y-40095000D03*
D27*
%TO.P,U3,9*%
%TO.N,GND*%
X41850000Y-40050000D03*
X41850000Y-41350000D03*
X41850000Y-42650000D03*
X41850000Y-43950000D03*
D28*
X42500000Y-42000000D03*
D27*
X43150000Y-40050000D03*
X43150000Y-41350000D03*
X43150000Y-42650000D03*
X43150000Y-43950000D03*
%TD*%
D14*
%TO.P,R66,1*%
%TO.N,AIN3_R1*%
X27312500Y-32005000D03*
%TO.P,R66,2*%
%TO.N,GND*%
X29137500Y-32005000D03*
%TD*%
D29*
%TO.P,F1,1*%
%TO.N,VBAT_IN*%
X22897500Y-69908300D03*
%TO.P,F1,2*%
%TO.N,VBAT_F*%
X25697500Y-69908300D03*
%TD*%
D15*
%TO.P,C41,1*%
%TO.N,AIN4*%
X35395000Y-25425000D03*
%TO.P,C41,2*%
%TO.N,GND*%
X37295000Y-25425000D03*
%TD*%
D24*
%TO.P,JP5,1*%
%TO.N,+5VS*%
X19045000Y-21820000D03*
%TO.P,JP5,2*%
%TO.N,AIN2_PU*%
X20345000Y-21820000D03*
%TD*%
D30*
%TO.P,U8,1*%
%TO.N,CAN_TX*%
X10770000Y-34840000D03*
%TO.P,U8,2*%
%TO.N,GND*%
X10770000Y-36110000D03*
%TO.P,U8,3*%
%TO.N,+5V*%
X10770000Y-37380000D03*
%TO.P,U8,4*%
%TO.N,CAN_RX*%
X10770000Y-38650000D03*
%TO.P,U8,5*%
%TO.N,+3V3*%
X15720000Y-38650000D03*
%TO.P,U8,6*%
%TO.N,CANL_T*%
X15720000Y-37380000D03*
%TO.P,U8,7*%
%TO.N,CANH_T*%
X15720000Y-36110000D03*
%TO.P,U8,8*%
%TO.N,CAN_S*%
X15720000Y-34840000D03*
%TD*%
D16*
%TO.P,C27,1*%
%TO.N,+3V3*%
X63870000Y-24195000D03*
%TO.P,C27,2*%
%TO.N,GND*%
X66820000Y-24195000D03*
%TD*%
D31*
%TO.P,C3,1*%
%TO.N,+VBAT*%
X11695000Y-55245000D03*
%TO.P,C3,2*%
%TO.N,GND*%
X20095000Y-55245000D03*
%TD*%
D14*
%TO.P,R28,1*%
%TO.N,+3V3*%
X75362500Y-27785000D03*
%TO.P,R28,2*%
%TO.N,I2C_SCL*%
X77187500Y-27785000D03*
%TD*%
D15*
%TO.P,C1,1*%
%TO.N,VCAP*%
X27817500Y-69758300D03*
%TO.P,C1,2*%
%TO.N,VBAT_FB*%
X29717500Y-69758300D03*
%TD*%
D14*
%TO.P,R15,1*%
%TO.N,PG_5V*%
X43587500Y-51000000D03*
%TO.P,R15,2*%
%TO.N,+3V3*%
X45412500Y-51000000D03*
%TD*%
D32*
%TO.P,D1,1*%
%TO.N,VBAT_F*%
X22335000Y-64611700D03*
%TO.P,D1,2*%
%TO.N,GND*%
X29135000Y-64611700D03*
%TD*%
D15*
%TO.P,C21,1*%
%TO.N,RAMP_3V3*%
X39550000Y-66800000D03*
%TO.P,C21,2*%
%TO.N,FB_3V3*%
X41450000Y-66800000D03*
%TD*%
%TO.P,C40,1*%
%TO.N,AIN3*%
X27295000Y-25425000D03*
%TO.P,C40,2*%
%TO.N,GND*%
X29195000Y-25425000D03*
%TD*%
D14*
%TO.P,R18,1*%
%TO.N,+3V3*%
X45587500Y-64000000D03*
%TO.P,R18,2*%
%TO.N,FB_3V3*%
X47412500Y-64000000D03*
%TD*%
%TO.P,R59,1*%
%TO.N,AIN2_PU*%
X18812500Y-28730000D03*
%TO.P,R59,2*%
%TO.N,AIN2_A*%
X20637500Y-28730000D03*
%TD*%
%TO.P,R6,1*%
%TO.N,PWR_FAIL*%
X39162500Y-76521700D03*
%TO.P,R6,2*%
%TO.N,PFD_SENSE*%
X40987500Y-76521700D03*
%TD*%
%TO.P,R64,1*%
%TO.N,AIN3_PU*%
X27312500Y-28730000D03*
%TO.P,R64,2*%
%TO.N,AIN3_A*%
X29137500Y-28730000D03*
%TD*%
D20*
%TO.P,PF3,1*%
%TO.N,+5V*%
X53952500Y-86975000D03*
%TO.P,PF3,2*%
%TO.N,LED_5V*%
X56877500Y-86975000D03*
%TD*%
D15*
%TO.P,C10,1*%
%TO.N,BST_5V*%
X41050000Y-37600000D03*
%TO.P,C10,2*%
%TO.N,SW_5V*%
X42950000Y-37600000D03*
%TD*%
D26*
%TO.P,U4,1*%
%TO.N,GND*%
X39937500Y-55895000D03*
%TO.P,U4,2*%
%TO.N,+VBAT*%
X39937500Y-57165000D03*
%TO.P,U4,3*%
%TO.N,EN_3V3*%
X39937500Y-58435000D03*
%TO.P,U4,4*%
%TO.N,RON_3V3*%
X39937500Y-59705000D03*
%TO.P,U4,5*%
%TO.N,FB_3V3*%
X45062500Y-59705000D03*
%TO.P,U4,6*%
%TO.N,PG_3V3*%
X45062500Y-58435000D03*
%TO.P,U4,7*%
%TO.N,BST_3V3*%
X45062500Y-57165000D03*
%TO.P,U4,8*%
%TO.N,SW_3V3*%
X45062500Y-55895000D03*
D27*
%TO.P,U4,9*%
%TO.N,GND*%
X41850000Y-55850000D03*
X41850000Y-57150000D03*
X41850000Y-58450000D03*
X41850000Y-59750000D03*
D28*
X42500000Y-57800000D03*
D27*
X43150000Y-55850000D03*
X43150000Y-57150000D03*
X43150000Y-58450000D03*
X43150000Y-59750000D03*
%TD*%
D15*
%TO.P,C38,1*%
%TO.N,AIN1*%
X10295000Y-25425000D03*
%TO.P,C38,2*%
%TO.N,GND*%
X12195000Y-25425000D03*
%TD*%
D19*
%TO.P,D12,1*%
%TO.N,AIN3_IN*%
X28045000Y-8795000D03*
%TO.P,D12,2*%
%TO.N,GND*%
X32045000Y-8795000D03*
%TD*%
D15*
%TO.P,C12,1*%
%TO.N,RAMP_5V*%
X39550000Y-51000000D03*
%TO.P,C12,2*%
%TO.N,FB_5V*%
X41450000Y-51000000D03*
%TD*%
D16*
%TO.P,C33,1*%
%TO.N,SD_VDD*%
X50670000Y-22595000D03*
%TO.P,C33,2*%
%TO.N,GND*%
X53620000Y-22595000D03*
%TD*%
D15*
%TO.P,C29,1*%
%TO.N,+3V3*%
X76665000Y-24025000D03*
%TO.P,C29,2*%
%TO.N,GND*%
X78565000Y-24025000D03*
%TD*%
D19*
%TO.P,D6,1*%
%TO.N,CAN_H*%
X11045000Y-41798300D03*
%TO.P,D6,2*%
%TO.N,GND*%
X15045000Y-41798300D03*
%TD*%
D14*
%TO.P,R24,1*%
%TO.N,+3V3*%
X67662500Y-27785000D03*
%TO.P,R24,2*%
%TO.N,MCU_BOOT*%
X69487500Y-27785000D03*
%TD*%
%TO.P,R51,1*%
%TO.N,TERM_A*%
X25732500Y-45101700D03*
%TO.P,R51,2*%
%TO.N,CAN_SPLIT*%
X27557500Y-45101700D03*
%TD*%
D33*
%TO.P,J1,1*%
%TO.N,VBAT_IN*%
X5000000Y-50000000D03*
D34*
%TO.P,J1,2*%
%TO.N,GND*%
X5000000Y-52000000D03*
%TO.P,J1,3*%
%TO.N,CAN_H*%
X5000000Y-54000000D03*
%TO.P,J1,4*%
%TO.N,CAN_L*%
X5000000Y-56000000D03*
%TD*%
D14*
%TO.P,R22,1*%
%TO.N,PWR_LED_K*%
X56052500Y-75385000D03*
%TO.P,R22,2*%
%TO.N,GND*%
X57877500Y-75385000D03*
%TD*%
D35*
%TO.P,J9,1*%
%TO.N,SD_D2_C*%
X69650000Y-44175000D03*
%TO.P,J9,2*%
%TO.N,SD_D3_C*%
X69650000Y-43075000D03*
%TO.P,J9,3*%
%TO.N,SD_CMD_C*%
X69650000Y-41975000D03*
%TO.P,J9,4*%
%TO.N,SD_VDD*%
X69650000Y-40875000D03*
%TO.P,J9,5*%
%TO.N,SD_CLK_C*%
X69650000Y-39775000D03*
%TO.P,J9,6*%
%TO.N,GND*%
X69650000Y-38675000D03*
%TO.P,J9,7*%
%TO.N,SD_D0_C*%
X69650000Y-37575000D03*
%TO.P,J9,8*%
%TO.N,SD_D1_C*%
X69650000Y-36475000D03*
D36*
%TO.P,J9,9*%
%TO.N,SD_CD*%
X78875000Y-35350000D03*
D37*
%TO.P,J9,10*%
%TO.N,GND*%
X80450000Y-46575000D03*
D38*
%TO.P,J9,11*%
%TO.N,N/C*%
X77375000Y-35025000D03*
D39*
X69775000Y-35275000D03*
D40*
X69775000Y-46625000D03*
D41*
X78025000Y-46975000D03*
%TD*%
D22*
%TO.P,C17,1*%
%TO.N,+VBAT*%
X37675000Y-60900000D03*
%TO.P,C17,2*%
%TO.N,GND*%
X34725000Y-60900000D03*
%TD*%
D14*
%TO.P,R60,1*%
%TO.N,AIN2_A*%
X22662500Y-28730000D03*
%TO.P,R60,2*%
%TO.N,AIN2*%
X24487500Y-28730000D03*
%TD*%
D15*
%TO.P,C39,1*%
%TO.N,AIN2*%
X18795000Y-25425000D03*
%TO.P,C39,2*%
%TO.N,GND*%
X20695000Y-25425000D03*
%TD*%
D14*
%TO.P,R72,1*%
%TO.N,AIN4_R2*%
X39262500Y-32005000D03*
%TO.P,R72,2*%
%TO.N,GND*%
X41087500Y-32005000D03*
%TD*%
D19*
%TO.P,D10,1*%
%TO.N,AIN2_IN*%
X19545000Y-8795000D03*
%TO.P,D10,2*%
%TO.N,GND*%
X23545000Y-8795000D03*
%TD*%
D24*
%TO.P,JP9,1*%
%TO.N,AIN3_A*%
X31335000Y-21820000D03*
%TO.P,JP9,2*%
%TO.N,AIN3*%
X32635000Y-21820000D03*
%TD*%
D14*
%TO.P,R54,1*%
%TO.N,AIN1_PU*%
X10312500Y-28730000D03*
%TO.P,R54,2*%
%TO.N,AIN1_A*%
X12137500Y-28730000D03*
%TD*%
D24*
%TO.P,JP1,1*%
%TO.N,CAN_H*%
X10545000Y-45401700D03*
%TO.P,JP1,2*%
%TO.N,TERM_A*%
X11845000Y-45401700D03*
%TD*%
D42*
%TO.P,J2,A1*%
%TO.N,GND*%
X75805000Y-19250000D03*
%TO.P,J2,A4*%
%TO.N,VBUS_IN*%
X75805000Y-18450000D03*
D43*
%TO.P,J2,A5*%
%TO.N,USB_CC1*%
X75805000Y-17250000D03*
%TO.P,J2,A6*%
%TO.N,USB_DP_CON*%
X75805000Y-16250000D03*
%TO.P,J2,A7*%
%TO.N,USB_DM_CON*%
X75805000Y-15750000D03*
%TO.P,J2,A8*%
%TO.N,N/C*%
X75805000Y-14750000D03*
D42*
%TO.P,J2,A9*%
%TO.N,VBUS_IN*%
X75805000Y-13550000D03*
%TO.P,J2,A12*%
%TO.N,GND*%
X75805000Y-12750000D03*
%TO.P,J2,B1*%
X75805000Y-12750000D03*
%TO.P,J2,B4*%
%TO.N,VBUS_IN*%
X75805000Y-13550000D03*
D43*
%TO.P,J2,B5*%
%TO.N,USB_CC2*%
X75805000Y-14250000D03*
%TO.P,J2,B6*%
%TO.N,USB_DP_CON*%
X75805000Y-15250000D03*
%TO.P,J2,B7*%
%TO.N,USB_DM_CON*%
X75805000Y-16750000D03*
%TO.P,J2,B8*%
%TO.N,N/C*%
X75805000Y-17750000D03*
D42*
%TO.P,J2,B9*%
%TO.N,VBUS_IN*%
X75805000Y-18450000D03*
%TO.P,J2,B12*%
%TO.N,GND*%
X75805000Y-19250000D03*
D44*
%TO.P,J2,S1*%
X76720000Y-20320000D03*
D45*
X80900000Y-20320000D03*
D44*
X76720000Y-11680000D03*
D45*
X80900000Y-11680000D03*
%TD*%
D15*
%TO.P,C42,1*%
%TO.N,+3V3*%
X43795000Y-34975000D03*
%TO.P,C42,2*%
%TO.N,GND*%
X45695000Y-34975000D03*
%TD*%
%TO.P,C9,1*%
%TO.N,EN_5V*%
X33550000Y-39900000D03*
%TO.P,C9,2*%
%TO.N,GND*%
X35450000Y-39900000D03*
%TD*%
D14*
%TO.P,R39,1*%
%TO.N,SD_CMD*%
X54912500Y-25947500D03*
%TO.P,R39,2*%
%TO.N,SD_CMD_C*%
X56737500Y-25947500D03*
%TD*%
%TO.P,R20,1*%
%TO.N,SW_3V3*%
X44787500Y-53400000D03*
%TO.P,R20,2*%
%TO.N,RAMP_3V3*%
X46612500Y-53400000D03*
%TD*%
D11*
%TO.P,Q3,1*%
%TO.N,SENS_EN_G*%
X44237500Y-69795000D03*
%TO.P,Q3,2*%
%TO.N,GND*%
X44237500Y-71695000D03*
%TO.P,Q3,3*%
%TO.N,SENS_G*%
X46112500Y-70745000D03*
%TD*%
D46*
%TO.P,C35,1*%
%TO.N,+5V*%
X8550000Y-37400000D03*
%TO.P,C35,2*%
%TO.N,GND*%
X6650000Y-37400000D03*
%TD*%
D24*
%TO.P,JP3,1*%
%TO.N,AIN1_A*%
X14335000Y-21820000D03*
%TO.P,JP3,2*%
%TO.N,AIN1*%
X15635000Y-21820000D03*
%TD*%
D47*
%TO.P,L3,1*%
%TO.N,CANH_T*%
X18360000Y-34745000D03*
%TO.P,L3,2*%
%TO.N,CAN_H*%
X22910000Y-34745000D03*
%TO.P,L3,3*%
%TO.N,CANL_T*%
X18360000Y-37245000D03*
%TO.P,L3,4*%
%TO.N,CAN_L*%
X22910000Y-37245000D03*
%TD*%
D15*
%TO.P,C36,1*%
%TO.N,+3V3*%
X14085000Y-45131700D03*
%TO.P,C36,2*%
%TO.N,GND*%
X15985000Y-45131700D03*
%TD*%
D14*
%TO.P,R58,1*%
%TO.N,AIN2_IN*%
X22702500Y-25395000D03*
%TO.P,R58,2*%
%TO.N,AIN2_A*%
X24527500Y-25395000D03*
%TD*%
%TO.P,R23,1*%
%TO.N,+3V3*%
X63812500Y-27785000D03*
%TO.P,R23,2*%
%TO.N,MCU_EN*%
X65637500Y-27785000D03*
%TD*%
%TO.P,R7,1*%
%TO.N,+5V*%
X43012500Y-76521700D03*
%TO.P,R7,2*%
%TO.N,SENS_G*%
X44837500Y-76521700D03*
%TD*%
D46*
%TO.P,C32,1*%
%TO.N,+5V*%
X51750000Y-84500000D03*
%TO.P,C32,2*%
%TO.N,GND*%
X49850000Y-84500000D03*
%TD*%
D14*
%TO.P,R11,1*%
%TO.N,RON_5V*%
X37587500Y-48200000D03*
%TO.P,R11,2*%
%TO.N,GND*%
X39412500Y-48200000D03*
%TD*%
D46*
%TO.P,C16,1*%
%TO.N,+VBAT*%
X37250000Y-58000000D03*
%TO.P,C16,2*%
%TO.N,GND*%
X35350000Y-58000000D03*
%TD*%
D14*
%TO.P,R42,1*%
%TO.N,SD_D2*%
X54912500Y-29100000D03*
%TO.P,R42,2*%
%TO.N,SD_D2_C*%
X56737500Y-29100000D03*
%TD*%
D24*
%TO.P,JP13,1*%
%TO.N,AIN4_R1*%
X35645000Y-17945000D03*
%TO.P,JP13,2*%
%TO.N,AIN4*%
X36945000Y-17945000D03*
%TO.P,JP13,3*%
%TO.N,AIN4_R2*%
X38245000Y-17945000D03*
%TD*%
D48*
%TO.P,D4,1*%
%TO.N,PWR_LED_K*%
X52177500Y-75385000D03*
%TO.P,D4,2*%
%TO.N,+3V3*%
X54052500Y-75385000D03*
%TD*%
D14*
%TO.P,R45,1*%
%TO.N,SD_VDD*%
X54912500Y-32252500D03*
%TO.P,R45,2*%
%TO.N,SD_D0_C*%
X56737500Y-32252500D03*
%TD*%
D15*
%TO.P,C20,1*%
%TO.N,RAMP_3V3*%
X50050000Y-66600000D03*
%TO.P,C20,2*%
%TO.N,+3V3*%
X51950000Y-66600000D03*
%TD*%
D49*
%TO.P,Q1,1*%
%TO.N,GATE_RB*%
X10595000Y-62481700D03*
%TO.P,Q1,2*%
%TO.N,VBAT_FB*%
X10595000Y-64761700D03*
D50*
X16895000Y-64761700D03*
D49*
%TO.P,Q1,3*%
%TO.N,+VBAT*%
X10595000Y-67041700D03*
%TD*%
D14*
%TO.P,R25,1*%
%TO.N,USB_CC1*%
X66702500Y-17675000D03*
%TO.P,R25,2*%
%TO.N,GND*%
X68527500Y-17675000D03*
%TD*%
D11*
%TO.P,D15,1*%
%TO.N,GND*%
X35637500Y-12670000D03*
%TO.P,D15,2*%
%TO.N,+3V3*%
X35637500Y-14570000D03*
%TO.P,D15,3*%
%TO.N,AIN4*%
X37512500Y-13620000D03*
%TD*%
D14*
%TO.P,R52,1*%
%TO.N,CAN_SPLIT*%
X10312500Y-48205000D03*
%TO.P,R52,2*%
%TO.N,CAN_L*%
X12137500Y-48205000D03*
%TD*%
%TO.P,R4,1*%
%TO.N,PFD_SENSE*%
X43052500Y-73978300D03*
%TO.P,R4,2*%
%TO.N,GND*%
X44877500Y-73978300D03*
%TD*%
%TO.P,R35,1*%
%TO.N,+3V3*%
X59812500Y-54300000D03*
%TO.P,R35,2*%
%TO.N,SD_PG*%
X61637500Y-54300000D03*
%TD*%
%TO.P,R40,1*%
%TO.N,SD_D0*%
X59212500Y-25947500D03*
%TO.P,R40,2*%
%TO.N,SD_D0_C*%
X61037500Y-25947500D03*
%TD*%
D24*
%TO.P,JP10,1*%
%TO.N,AIN3_R1*%
X27545000Y-17945000D03*
%TO.P,JP10,2*%
%TO.N,AIN3*%
X28845000Y-17945000D03*
%TO.P,JP10,3*%
%TO.N,AIN3_R2*%
X30145000Y-17945000D03*
%TD*%
D19*
%TO.P,D14,1*%
%TO.N,AIN4_IN*%
X36145000Y-8795000D03*
%TO.P,D14,2*%
%TO.N,GND*%
X40145000Y-8795000D03*
%TD*%
D14*
%TO.P,R8,1*%
%TO.N,SENS_EN*%
X35312500Y-79005000D03*
%TO.P,R8,2*%
%TO.N,SENS_EN_G*%
X37137500Y-79005000D03*
%TD*%
D18*
%TO.P,TP6,1*%
%TO.N,+5VS*%
X43287500Y-82296200D03*
%TD*%
D12*
%TO.P,J3,1*%
%TO.N,+3V3*%
X26000000Y-97500000D03*
D13*
%TO.P,J3,2*%
%TO.N,UART_TX*%
X28540000Y-97500000D03*
%TO.P,J3,3*%
%TO.N,UART_RX*%
X31080000Y-97500000D03*
%TO.P,J3,4*%
%TO.N,GND*%
X33620000Y-97500000D03*
%TD*%
D51*
%TO.P,SW1,1*%
%TO.N,MCU_EN*%
X74850000Y-54600000D03*
X81150000Y-54600000D03*
%TO.P,SW1,2*%
%TO.N,GND*%
X74850000Y-58400000D03*
X81150000Y-58400000D03*
%TD*%
D15*
%TO.P,C15,1*%
%TO.N,+5V*%
X55550000Y-50400000D03*
%TO.P,C15,2*%
%TO.N,GND*%
X57450000Y-50400000D03*
%TD*%
%TO.P,C2,1*%
%TO.N,VBAT_FB*%
X9995000Y-73675000D03*
%TO.P,C2,2*%
%TO.N,GND*%
X11895000Y-73675000D03*
%TD*%
D11*
%TO.P,U2,1*%
%TO.N,PWR_FAIL*%
X35537500Y-69795000D03*
%TO.P,U2,2*%
%TO.N,PFD_SENSE*%
X35537500Y-71695000D03*
%TO.P,U2,3*%
%TO.N,GND*%
X37412500Y-70745000D03*
%TD*%
D52*
%TO.P,U5,1*%
%TO.N,GND*%
X43250000Y-1540000D03*
%TO.P,U5,2*%
%TO.N,+3V3*%
X43250000Y-2810000D03*
%TO.P,U5,3*%
%TO.N,MCU_EN*%
X43250000Y-4080000D03*
%TO.P,U5,4*%
%TO.N,AIN3*%
X43250000Y-5350000D03*
%TO.P,U5,5*%
%TO.N,AIN4*%
X43250000Y-6620000D03*
%TO.P,U5,6*%
%TO.N,VBAT_SNS*%
X43250000Y-7890000D03*
%TO.P,U5,7*%
%TO.N,SD_PWR_EN*%
X43250000Y-9160000D03*
%TO.P,U5,8*%
%TO.N,PWR_FAIL*%
X43250000Y-10430000D03*
%TO.P,U5,9*%
%TO.N,SENS_EN*%
X43250000Y-11700000D03*
%TO.P,U5,10*%
%TO.N,CAN_TX*%
X43250000Y-12970000D03*
%TO.P,U5,11*%
%TO.N,CAN_RX*%
X43250000Y-14240000D03*
%TO.P,U5,12*%
%TO.N,SD_CD*%
X43250000Y-15510000D03*
%TO.P,U5,13*%
%TO.N,USB_DM*%
X43250000Y-16780000D03*
%TO.P,U5,14*%
%TO.N,USB_DP*%
X43250000Y-18050000D03*
D53*
%TO.P,U5,15*%
%TO.N,IO3*%
X45015000Y-19300000D03*
%TO.P,U5,16*%
%TO.N,IO46*%
X46285000Y-19300000D03*
%TO.P,U5,17*%
%TO.N,SD_D3*%
X47555000Y-19300000D03*
%TO.P,U5,18*%
%TO.N,SD_D2*%
X48825000Y-19300000D03*
%TO.P,U5,19*%
%TO.N,SD_D1*%
X50095000Y-19300000D03*
%TO.P,U5,20*%
%TO.N,SD_D0*%
X51365000Y-19300000D03*
%TO.P,U5,21*%
%TO.N,SD_CMD*%
X52635000Y-19300000D03*
%TO.P,U5,22*%
%TO.N,SD_CLK*%
X53905000Y-19300000D03*
%TO.P,U5,23*%
%TO.N,CAN_S*%
X55175000Y-19300000D03*
%TO.P,U5,24*%
%TO.N,SPI_CS*%
X56445000Y-19300000D03*
%TO.P,U5,25*%
%TO.N,LED_DIN_MCU*%
X57715000Y-19300000D03*
%TO.P,U5,26*%
%TO.N,IO45*%
X58985000Y-19300000D03*
D52*
%TO.P,U5,27*%
%TO.N,MCU_BOOT*%
X60750000Y-18050000D03*
%TO.P,U5,28*%
%TO.N,N/C*%
X60750000Y-16780000D03*
%TO.P,U5,29*%
X60750000Y-15510000D03*
%TO.P,U5,30*%
X60750000Y-14240000D03*
%TO.P,U5,31*%
%TO.N,I2C_SDA*%
X60750000Y-12970000D03*
%TO.P,U5,32*%
%TO.N,I2C_SCL*%
X60750000Y-11700000D03*
%TO.P,U5,33*%
%TO.N,SPI_SCK*%
X60750000Y-10430000D03*
%TO.P,U5,34*%
%TO.N,SPI_MISO*%
X60750000Y-9160000D03*
%TO.P,U5,35*%
%TO.N,SPI_MOSI*%
X60750000Y-7890000D03*
%TO.P,U5,36*%
%TO.N,UART_RX*%
X60750000Y-6620000D03*
%TO.P,U5,37*%
%TO.N,UART_TX*%
X60750000Y-5350000D03*
%TO.P,U5,38*%
%TO.N,AIN2*%
X60750000Y-4080000D03*
%TO.P,U5,39*%
%TO.N,AIN1*%
X60750000Y-2810000D03*
%TO.P,U5,40*%
%TO.N,GND*%
X60750000Y-1540000D03*
D54*
%TO.P,U5,41*%
X49100000Y-8560000D03*
X49100000Y-9960000D03*
X49800000Y-7860000D03*
X49800000Y-9260000D03*
X49800000Y-10660000D03*
X50500000Y-8560000D03*
D55*
X50500000Y-9260000D03*
D54*
X50500000Y-9960000D03*
X51200000Y-7860000D03*
X51200000Y-9260000D03*
X51200000Y-10660000D03*
X51900000Y-8560000D03*
X51900000Y-9960000D03*
%TD*%
D12*
%TO.P,J5,1*%
%TO.N,+3V3*%
X27500000Y-3000000D03*
D13*
%TO.P,J5,2*%
%TO.N,GND*%
X30040000Y-3000000D03*
%TO.P,J5,3*%
%TO.N,SPI_SCK*%
X32580000Y-3000000D03*
%TO.P,J5,4*%
%TO.N,SPI_MISO*%
X35120000Y-3000000D03*
%TO.P,J5,5*%
%TO.N,SPI_MOSI*%
X37660000Y-3000000D03*
%TO.P,J5,6*%
%TO.N,SPI_CS*%
X40200000Y-3000000D03*
%TD*%
D56*
%TO.P,D2,1*%
%TO.N,+3V3*%
X55795000Y-78835000D03*
%TO.P,D2,2*%
%TO.N,GND*%
X57895000Y-78835000D03*
%TD*%
D18*
%TO.P,TP9,1*%
%TO.N,CAN_L*%
X28770000Y-41299600D03*
%TD*%
D51*
%TO.P,SW2,1*%
%TO.N,MCU_BOOT*%
X74850000Y-61600000D03*
X81150000Y-61600000D03*
%TO.P,SW2,2*%
%TO.N,GND*%
X74850000Y-65400000D03*
X81150000Y-65400000D03*
%TD*%
D14*
%TO.P,R57,1*%
%TO.N,AIN1_R2*%
X14162500Y-32005000D03*
%TO.P,R57,2*%
%TO.N,GND*%
X15987500Y-32005000D03*
%TD*%
D18*
%TO.P,TP2,1*%
%TO.N,PG_3V3*%
X56140000Y-70796200D03*
%TD*%
D15*
%TO.P,C31,1*%
%TO.N,VBUS*%
X62795000Y-17705000D03*
%TO.P,C31,2*%
%TO.N,GND*%
X64695000Y-17705000D03*
%TD*%
%TO.P,C37,1*%
%TO.N,CAN_SPLIT*%
X17975000Y-45131700D03*
%TO.P,C37,2*%
%TO.N,GND*%
X19875000Y-45131700D03*
%TD*%
D19*
%TO.P,D8,1*%
%TO.N,AIN1_IN*%
X11045000Y-8795000D03*
%TO.P,D8,2*%
%TO.N,GND*%
X15045000Y-8795000D03*
%TD*%
D14*
%TO.P,R29,1*%
%TO.N,SPI_CS*%
X79212500Y-27785000D03*
%TO.P,R29,2*%
%TO.N,+3V3*%
X81037500Y-27785000D03*
%TD*%
D24*
%TO.P,JP12,1*%
%TO.N,AIN4_A*%
X39435000Y-21820000D03*
%TO.P,JP12,2*%
%TO.N,AIN4*%
X40735000Y-21820000D03*
%TD*%
%TO.P,JP4,1*%
%TO.N,AIN1_R1*%
X10545000Y-17945000D03*
%TO.P,JP4,2*%
%TO.N,AIN1*%
X11845000Y-17945000D03*
%TO.P,JP4,3*%
%TO.N,AIN1_R2*%
X13145000Y-17945000D03*
%TD*%
D14*
%TO.P,R62,1*%
%TO.N,AIN2_R2*%
X22662500Y-32005000D03*
%TO.P,R62,2*%
%TO.N,GND*%
X24487500Y-32005000D03*
%TD*%
D18*
%TO.P,TP7,1*%
%TO.N,GND*%
X59132500Y-70796200D03*
%TD*%
%TO.P,TP3,1*%
%TO.N,+VBAT*%
X15087500Y-70029600D03*
%TD*%
D46*
%TO.P,C5,1*%
%TO.N,+VBAT*%
X37250000Y-42200000D03*
%TO.P,C5,2*%
%TO.N,GND*%
X35350000Y-42200000D03*
%TD*%
D14*
%TO.P,R14,1*%
%TO.N,SW_5V*%
X44787500Y-37600000D03*
%TO.P,R14,2*%
%TO.N,RAMP_5V*%
X46612500Y-37600000D03*
%TD*%
D16*
%TO.P,C25,1*%
%TO.N,+5VS*%
X35370000Y-86185000D03*
%TO.P,C25,2*%
%TO.N,GND*%
X38320000Y-86185000D03*
%TD*%
D15*
%TO.P,C19,1*%
%TO.N,BST_3V3*%
X41050000Y-53400000D03*
%TO.P,C19,2*%
%TO.N,SW_3V3*%
X42950000Y-53400000D03*
%TD*%
D14*
%TO.P,R36,1*%
%TO.N,SD_PWR_EN*%
X63662500Y-54300000D03*
%TO.P,R36,2*%
%TO.N,SD_EN_G*%
X65487500Y-54300000D03*
%TD*%
%TO.P,R9,1*%
%TO.N,SENS_EN_G*%
X39162500Y-79005000D03*
%TO.P,R9,2*%
%TO.N,GND*%
X40987500Y-79005000D03*
%TD*%
%TO.P,R55,1*%
%TO.N,AIN1_A*%
X14162500Y-28730000D03*
%TO.P,R55,2*%
%TO.N,AIN1*%
X15987500Y-28730000D03*
%TD*%
D57*
%TO.P,C6,1*%
%TO.N,+VBAT*%
X14250000Y-83500000D03*
%TO.P,C6,2*%
%TO.N,GND*%
X26750000Y-83500000D03*
%TD*%
D14*
%TO.P,R67,1*%
%TO.N,AIN3_R2*%
X31162500Y-32005000D03*
%TO.P,R67,2*%
%TO.N,GND*%
X32987500Y-32005000D03*
%TD*%
D57*
%TO.P,C7,1*%
%TO.N,+VBAT*%
X65750000Y-77000000D03*
%TO.P,C7,2*%
%TO.N,GND*%
X78250000Y-77000000D03*
%TD*%
D17*
%TO.P,U6,1*%
%TO.N,USB_DP_CON*%
X62957500Y-8795000D03*
%TO.P,U6,2*%
%TO.N,GND*%
X62957500Y-9745000D03*
%TO.P,U6,3*%
%TO.N,USB_DM_CON*%
X62957500Y-10695000D03*
%TO.P,U6,4*%
%TO.N,USB_DM*%
X65232500Y-10695000D03*
%TO.P,U6,5*%
%TO.N,VBUS*%
X65232500Y-9745000D03*
%TO.P,U6,6*%
%TO.N,USB_DP*%
X65232500Y-8795000D03*
%TD*%
D14*
%TO.P,R19,1*%
%TO.N,FB_3V3*%
X41587500Y-64000000D03*
%TO.P,R19,2*%
%TO.N,GND*%
X43412500Y-64000000D03*
%TD*%
%TO.P,R31,1*%
%TO.N,LED_DIN*%
X49312500Y-91685000D03*
%TO.P,R31,2*%
%TO.N,LED_DIN_J*%
X51137500Y-91685000D03*
%TD*%
D20*
%TO.P,PF2,1*%
%TO.N,VBUS_IN*%
X67952500Y-14065000D03*
%TO.P,PF2,2*%
%TO.N,VBUS*%
X70877500Y-14065000D03*
%TD*%
D16*
%TO.P,C14,1*%
%TO.N,+5V*%
X55025000Y-47800000D03*
%TO.P,C14,2*%
%TO.N,GND*%
X57975000Y-47800000D03*
%TD*%
D14*
%TO.P,R27,1*%
%TO.N,+3V3*%
X71512500Y-27785000D03*
%TO.P,R27,2*%
%TO.N,I2C_SDA*%
X73337500Y-27785000D03*
%TD*%
D16*
%TO.P,C13,1*%
%TO.N,+5V*%
X50025000Y-47800000D03*
%TO.P,C13,2*%
%TO.N,GND*%
X52975000Y-47800000D03*
%TD*%
D12*
%TO.P,J4,1*%
%TO.N,GND*%
X41000000Y-97500000D03*
D13*
%TO.P,J4,2*%
%TO.N,+3V3*%
X43540000Y-97500000D03*
%TO.P,J4,3*%
%TO.N,I2C_SDA*%
X46080000Y-97500000D03*
%TO.P,J4,4*%
%TO.N,I2C_SCL*%
X48620000Y-97500000D03*
%TD*%
D15*
%TO.P,C28,1*%
%TO.N,+3V3*%
X72775000Y-24025000D03*
%TO.P,C28,2*%
%TO.N,GND*%
X74675000Y-24025000D03*
%TD*%
D21*
%TO.P,L1,1*%
%TO.N,SW_5V*%
X50000000Y-42000000D03*
%TO.P,L1,2*%
%TO.N,+5V*%
X56000000Y-42000000D03*
%TD*%
D58*
%TO.P,FB1,1*%
%TO.N,VBAT_F*%
X17602500Y-69978300D03*
%TO.P,FB1,2*%
%TO.N,VBAT_FB*%
X20752500Y-69978300D03*
%TD*%
D14*
%TO.P,R61,1*%
%TO.N,AIN2_R1*%
X18812500Y-32005000D03*
%TO.P,R61,2*%
%TO.N,GND*%
X20637500Y-32005000D03*
%TD*%
%TO.P,R53,1*%
%TO.N,AIN1_IN*%
X14202500Y-25395000D03*
%TO.P,R53,2*%
%TO.N,AIN1_A*%
X16027500Y-25395000D03*
%TD*%
D11*
%TO.P,D11,1*%
%TO.N,GND*%
X19037500Y-12670000D03*
%TO.P,D11,2*%
%TO.N,+3V3*%
X19037500Y-14570000D03*
%TO.P,D11,3*%
%TO.N,AIN2*%
X20912500Y-13620000D03*
%TD*%
D14*
%TO.P,R1,1*%
%TO.N,VBAT_FB*%
X13902500Y-73645000D03*
%TO.P,R1,2*%
%TO.N,VBAT_UVLO*%
X15727500Y-73645000D03*
%TD*%
D18*
%TO.P,TP5,1*%
%TO.N,+3V3*%
X33500000Y-68200000D03*
%TD*%
D15*
%TO.P,C43,1*%
%TO.N,VBAT_SNS*%
X48295000Y-75415000D03*
%TO.P,C43,2*%
%TO.N,GND*%
X50195000Y-75415000D03*
%TD*%
D14*
%TO.P,R33,1*%
%TO.N,IO45*%
X43412500Y-24600000D03*
%TO.P,R33,2*%
%TO.N,GND*%
X45237500Y-24600000D03*
%TD*%
D18*
%TO.P,TP4,1*%
%TO.N,+5V*%
X33800000Y-37400000D03*
%TD*%
D12*
%TO.P,J7,1*%
%TO.N,IO3*%
X10000000Y-3000000D03*
D13*
%TO.P,J7,2*%
%TO.N,IO45*%
X12540000Y-3000000D03*
%TO.P,J7,3*%
%TO.N,IO46*%
X15080000Y-3000000D03*
%TO.P,J7,4*%
%TO.N,PWR_FAIL*%
X17620000Y-3000000D03*
%TO.P,J7,5*%
%TO.N,SENS_EN*%
X20160000Y-3000000D03*
%TO.P,J7,6*%
%TO.N,GND*%
X22700000Y-3000000D03*
%TD*%
D14*
%TO.P,R71,1*%
%TO.N,AIN4_R1*%
X35412500Y-32005000D03*
%TO.P,R71,2*%
%TO.N,GND*%
X37237500Y-32005000D03*
%TD*%
%TO.P,R41,1*%
%TO.N,SD_D1*%
X50612500Y-29100000D03*
%TO.P,R41,2*%
%TO.N,SD_D1_C*%
X52437500Y-29100000D03*
%TD*%
%TO.P,R63,1*%
%TO.N,AIN3_IN*%
X31202500Y-25395000D03*
%TO.P,R63,2*%
%TO.N,AIN3_A*%
X33027500Y-25395000D03*
%TD*%
%TO.P,R43,1*%
%TO.N,SD_D3*%
X59212500Y-29100000D03*
%TO.P,R43,2*%
%TO.N,SD_D3_C*%
X61037500Y-29100000D03*
%TD*%
%TO.P,R12,1*%
%TO.N,+5V*%
X45587500Y-48200000D03*
%TO.P,R12,2*%
%TO.N,FB_5V*%
X47412500Y-48200000D03*
%TD*%
%TO.P,R38,1*%
%TO.N,SD_CLK*%
X50612500Y-25947500D03*
%TO.P,R38,2*%
%TO.N,SD_CLK_C*%
X52437500Y-25947500D03*
%TD*%
%TO.P,R70,1*%
%TO.N,AIN4_A*%
X39262500Y-28730000D03*
%TO.P,R70,2*%
%TO.N,AIN4*%
X41087500Y-28730000D03*
%TD*%
%TO.P,R3,1*%
%TO.N,VBAT_F*%
X39202500Y-73978300D03*
%TO.P,R3,2*%
%TO.N,PFD_SENSE*%
X41027500Y-73978300D03*
%TD*%
%TO.P,R49,1*%
%TO.N,+3V3*%
X59212500Y-35405000D03*
%TO.P,R49,2*%
%TO.N,SD_CD*%
X61037500Y-35405000D03*
%TD*%
D59*
%TO.P,U9,1*%
%TO.N,GND*%
X44025000Y-29795000D03*
%TO.P,U9,2*%
%TO.N,N/C*%
X44025000Y-30295000D03*
%TO.P,U9,3*%
%TO.N,GND*%
X44025000Y-30795000D03*
%TO.P,U9,4*%
%TO.N,AIN1*%
X44025000Y-31295000D03*
%TO.P,U9,5*%
%TO.N,AIN2*%
X44025000Y-31795000D03*
%TO.P,U9,6*%
%TO.N,AIN3*%
X48425000Y-31795000D03*
%TO.P,U9,7*%
%TO.N,AIN4*%
X48425000Y-31295000D03*
%TO.P,U9,8*%
%TO.N,+3V3*%
X48425000Y-30795000D03*
%TO.P,U9,9*%
%TO.N,I2C_SDA*%
X48425000Y-30295000D03*
%TO.P,U9,10*%
%TO.N,I2C_SCL*%
X48425000Y-29795000D03*
%TD*%
D12*
%TO.P,J8,1*%
%TO.N,+5V*%
X56000000Y-97500000D03*
D13*
%TO.P,J8,2*%
%TO.N,+3V3*%
X58540000Y-97500000D03*
%TO.P,J8,3*%
%TO.N,GND*%
X61080000Y-97500000D03*
%TO.P,J8,4*%
X63620000Y-97500000D03*
%TD*%
D17*
%TO.P,U1,1*%
%TO.N,VCAP*%
X10157500Y-69528300D03*
%TO.P,U1,2*%
%TO.N,GND*%
X10157500Y-70478300D03*
%TO.P,U1,3*%
%TO.N,VBAT_UVLO*%
X10157500Y-71428300D03*
%TO.P,U1,4*%
%TO.N,+VBAT*%
X12432500Y-71428300D03*
%TO.P,U1,5*%
%TO.N,GATE_RB*%
X12432500Y-70478300D03*
%TO.P,U1,6*%
%TO.N,VBAT_FB*%
X12432500Y-69528300D03*
%TD*%
D14*
%TO.P,R44,1*%
%TO.N,SD_VDD*%
X50612500Y-32252500D03*
%TO.P,R44,2*%
%TO.N,SD_CMD_C*%
X52437500Y-32252500D03*
%TD*%
D16*
%TO.P,C30,1*%
%TO.N,VBUS*%
X62870000Y-14085000D03*
%TO.P,C30,2*%
%TO.N,GND*%
X65820000Y-14085000D03*
%TD*%
D18*
%TO.P,TP1,1*%
%TO.N,PG_5V*%
X53147500Y-70796200D03*
%TD*%
D14*
%TO.P,R37,1*%
%TO.N,SD_EN_G*%
X59812500Y-56805000D03*
%TO.P,R37,2*%
%TO.N,GND*%
X61637500Y-56805000D03*
%TD*%
D15*
%TO.P,C11,1*%
%TO.N,RAMP_5V*%
X50050000Y-50800000D03*
%TO.P,C11,2*%
%TO.N,+5V*%
X51950000Y-50800000D03*
%TD*%
D14*
%TO.P,R68,1*%
%TO.N,AIN4_IN*%
X39302500Y-25395000D03*
%TO.P,R68,2*%
%TO.N,AIN4_A*%
X41127500Y-25395000D03*
%TD*%
D11*
%TO.P,D9,1*%
%TO.N,GND*%
X10537500Y-12670000D03*
%TO.P,D9,2*%
%TO.N,+3V3*%
X10537500Y-14570000D03*
%TO.P,D9,3*%
%TO.N,AIN1*%
X12412500Y-13620000D03*
%TD*%
D14*
%TO.P,R16,1*%
%TO.N,+VBAT*%
X37387500Y-53400000D03*
%TO.P,R16,2*%
%TO.N,EN_3V3*%
X39212500Y-53400000D03*
%TD*%
D11*
%TO.P,Q5,1*%
%TO.N,SD_EN_G*%
X64387500Y-50095000D03*
%TO.P,Q5,2*%
%TO.N,GND*%
X64387500Y-51995000D03*
%TO.P,Q5,3*%
%TO.N,SD_PG*%
X66262500Y-51045000D03*
%TD*%
D14*
%TO.P,R50,1*%
%TO.N,CAN_S*%
X21882500Y-45101700D03*
%TO.P,R50,2*%
%TO.N,GND*%
X23707500Y-45101700D03*
%TD*%
D19*
%TO.P,D3,1*%
%TO.N,+5VS*%
X36045000Y-82795000D03*
%TO.P,D3,2*%
%TO.N,GND*%
X40045000Y-82795000D03*
%TD*%
D24*
%TO.P,JP11,1*%
%TO.N,+5VS*%
X35645000Y-21820000D03*
%TO.P,JP11,2*%
%TO.N,AIN4_PU*%
X36945000Y-21820000D03*
%TD*%
D11*
%TO.P,Q4,1*%
%TO.N,SD_PG*%
X60037500Y-50095000D03*
%TO.P,Q4,2*%
%TO.N,+3V3*%
X60037500Y-51995000D03*
%TO.P,Q4,3*%
%TO.N,SD_VDD*%
X61912500Y-51045000D03*
%TD*%
D33*
%TO.P,J10,1*%
%TO.N,+5VS*%
X5000000Y-18000000D03*
D34*
%TO.P,J10,2*%
%TO.N,AIN1_IN*%
X5000000Y-20000000D03*
%TO.P,J10,3*%
%TO.N,AIN2_IN*%
X5000000Y-22000000D03*
%TO.P,J10,4*%
%TO.N,AIN3_IN*%
X5000000Y-24000000D03*
%TO.P,J10,5*%
%TO.N,AIN4_IN*%
X5000000Y-26000000D03*
%TO.P,J10,6*%
%TO.N,GND*%
X5000000Y-28000000D03*
%TO.P,J10,7*%
X5000000Y-30000000D03*
%TO.P,J10,8*%
%TO.N,+5VS*%
X5000000Y-32000000D03*
%TD*%
D15*
%TO.P,C18,1*%
%TO.N,EN_3V3*%
X33550000Y-55700000D03*
%TO.P,C18,2*%
%TO.N,GND*%
X35450000Y-55700000D03*
%TD*%
D60*
%TO.N,+3V3*%
X44500000Y-2810000D03*
X49650000Y-30795000D03*
X56416000Y-66812500D03*
X75868700Y-28824200D03*
X64318700Y-28824200D03*
X77531000Y-24637500D03*
X14951000Y-45744200D03*
X44661000Y-35587500D03*
X59718700Y-36444200D03*
X35818800Y-77560900D03*
X20275000Y-14570000D03*
X68168700Y-28824200D03*
X51100000Y-63600000D03*
X46425000Y-66800000D03*
X46093800Y-65039200D03*
X34750000Y-68200000D03*
X60318800Y-55339200D03*
X11775000Y-14570000D03*
X56595000Y-78835000D03*
X17195000Y-38650000D03*
X36875000Y-14570000D03*
X57600000Y-57800000D03*
X46425000Y-51000000D03*
X52950000Y-66600000D03*
X72018700Y-28824200D03*
X82050000Y-27785000D03*
X49775000Y-72195000D03*
X73641000Y-24637500D03*
X64945000Y-24195000D03*
X28775000Y-14570000D03*
X61275000Y-51995000D03*
X54907700Y-75985000D03*
X56100000Y-63600000D03*
D61*
%TO.N,+5V*%
X61887500Y-85403900D03*
X51751400Y-52400500D03*
X41353100Y-72170800D03*
X68395400Y-8848800D03*
X43869800Y-77608100D03*
%TO.N,+5VS*%
X10265000Y-23407500D03*
X6375000Y-18000000D03*
X35556200Y-23432700D03*
X27855800Y-23255800D03*
X6375000Y-32000000D03*
X19097500Y-23475900D03*
D60*
%TO.N,+VBAT*%
X37250000Y-56350000D03*
D61*
X16376700Y-68943100D03*
D60*
X37675000Y-46750000D03*
D61*
X37387500Y-39366100D03*
D60*
%TO.N,AIN1*%
X49807600Y-17491900D03*
X42751400Y-29190200D03*
X16400900Y-23718500D03*
%TO.N,AIN2*%
X25270100Y-21999300D03*
X46084600Y-30785200D03*
X51563900Y-17094300D03*
%TO.N,AIN2_IN*%
X18175600Y-11633300D03*
X21171700Y-20656800D03*
%TO.N,AIN2_R2*%
X22004400Y-24276800D03*
X22163800Y-29964600D03*
%TO.N,AIN3_IN*%
X20373500Y-11454500D03*
X29481500Y-20265400D03*
%TO.N,AIN4_IN*%
X39118000Y-27504600D03*
%TO.N,AIN4_R1*%
X36038900Y-20067900D03*
X35412500Y-30307300D03*
%TO.N,AIN4_R2*%
X38320500Y-20279500D03*
X38332600Y-32862300D03*
%TO.N,BST_3V3*%
X46318000Y-57746200D03*
X41947200Y-54297200D03*
%TO.N,BST_5V*%
X41955500Y-38505500D03*
X46476000Y-42372100D03*
%TO.N,CAN_RX*%
X42337400Y-24099900D03*
X13184600Y-36149200D03*
%TO.N,CAN_S*%
X54407600Y-20784800D03*
X20975400Y-44204000D03*
X14202900Y-35973300D03*
%TO.N,CAN_TX*%
X41592400Y-23395700D03*
X13379500Y-34729900D03*
%TO.N,EN_3V3*%
X38503700Y-58099500D03*
X39212500Y-54993800D03*
%TO.N,EN_5V*%
X38545800Y-42601700D03*
X38644900Y-39177700D03*
%TO.N,GATE_RB*%
X11724200Y-63657200D03*
X11442700Y-68179500D03*
%TO.N,GND*%
X53906000Y-48500000D03*
X31150000Y-83500000D03*
X76200000Y-65400000D03*
X16560500Y-42498300D03*
X62650000Y-56805000D03*
X69540000Y-17675000D03*
X45250000Y-29795000D03*
X38735900Y-56295000D03*
X21561000Y-26037500D03*
X17000000Y-32005000D03*
X7516000Y-38012500D03*
X59050000Y-63600000D03*
X44500000Y-1540000D03*
X44425000Y-64000000D03*
X49775000Y-70295000D03*
X71651000Y-24637500D03*
X45475000Y-71695000D03*
X65561000Y-18317500D03*
X72377500Y-18875000D03*
X58890000Y-75385000D03*
X30885000Y-64611700D03*
D62*
X64070000Y-9745000D03*
D60*
X36450000Y-55700000D03*
X59035000Y-22425000D03*
X82500000Y-58400000D03*
X24285000Y-41798300D03*
X20275000Y-12670000D03*
X24720000Y-45101700D03*
X75805000Y-20050000D03*
X46695000Y-34975000D03*
X38250000Y-32005000D03*
X45250000Y-30795000D03*
X62000000Y-1540000D03*
X36450000Y-39900000D03*
X38161000Y-26037500D03*
X66751000Y-14785000D03*
X45890000Y-73978300D03*
X41795000Y-82795000D03*
X65625000Y-51995000D03*
X30150000Y-32005000D03*
X58695000Y-78835000D03*
X38650000Y-70745000D03*
X30061000Y-26037500D03*
X22795000Y-55245000D03*
X46250000Y-21795000D03*
X82500000Y-65400000D03*
X53906000Y-64300000D03*
X59050000Y-47800000D03*
X25295000Y-8795000D03*
X8995000Y-70478300D03*
X58450000Y-50400000D03*
X74580000Y-12750000D03*
X50716000Y-85112500D03*
X13150000Y-32005000D03*
X35800000Y-60900000D03*
X48295000Y-86595000D03*
X38061000Y-74620800D03*
X71025000Y-38675000D03*
X36216000Y-42812500D03*
X42000000Y-79005000D03*
X42100000Y-32005000D03*
X12761000Y-74287500D03*
X75541000Y-24637500D03*
X51061000Y-76027500D03*
X82650000Y-77000000D03*
X40425000Y-64000000D03*
X67751000Y-24895000D03*
X13061000Y-26037500D03*
X81725000Y-46575000D03*
X40425000Y-48200000D03*
X25500000Y-32005000D03*
X35800000Y-45100000D03*
X20741000Y-45744200D03*
X16851000Y-45744200D03*
X20590000Y-73645000D03*
X39251000Y-86885000D03*
X58450000Y-66200000D03*
X28775000Y-12670000D03*
X79565000Y-24025000D03*
X38735900Y-40495000D03*
X36875000Y-12670000D03*
X33795000Y-8795000D03*
X46250000Y-24600000D03*
X11775000Y-12670000D03*
X16795000Y-8795000D03*
X46250000Y-27405000D03*
X41895000Y-8795000D03*
X34000000Y-32005000D03*
X76200000Y-58400000D03*
X12245000Y-36110000D03*
X21650000Y-32005000D03*
X54864300Y-79435000D03*
X44425000Y-48200000D03*
X50464300Y-88895000D03*
X54695000Y-22595000D03*
X36216000Y-58612500D03*
X60382500Y-70796200D03*
%TO.N,I2C_SCL*%
X59487200Y-17767300D03*
X73722600Y-53647600D03*
X71712900Y-30808900D03*
X48425000Y-29141400D03*
%TO.N,I2C_SDA*%
X73337500Y-25510700D03*
X62036200Y-12760500D03*
X45472200Y-79330200D03*
X70623700Y-30340400D03*
X47183000Y-30100600D03*
%TO.N,IO3*%
X43583500Y-19711200D03*
%TO.N,IO45*%
X58657300Y-17895600D03*
X42688600Y-19002000D03*
%TO.N,IO46*%
X45904200Y-18004300D03*
%TO.N,MCU_BOOT*%
X81150000Y-62600000D03*
X74850000Y-62600000D03*
%TO.N,MCU_EN*%
X74850000Y-55600000D03*
X81150000Y-55600000D03*
X54676300Y-11736900D03*
X65559600Y-20440800D03*
%TO.N,PG_5V*%
X48762400Y-67259800D03*
X46287400Y-45190200D03*
X43587500Y-49774300D03*
%TO.N,PWR_FAIL*%
X41950700Y-10536000D03*
X30533800Y-61928000D03*
%TO.N,SD_CD*%
X72274900Y-31869300D03*
X62492100Y-36364700D03*
X45946700Y-15822100D03*
%TO.N,SD_CLK_C*%
X64990300Y-33461600D03*
X54875000Y-27853100D03*
%TO.N,SD_CMD*%
X53502800Y-18032400D03*
X53893200Y-25908500D03*
%TO.N,SD_CMD_C*%
X64732100Y-36834100D03*
X55511600Y-30940600D03*
%TO.N,SD_D0_C*%
X68266800Y-37914600D03*
X57783200Y-32223600D03*
%TO.N,SD_D1_C*%
X61037500Y-30403800D03*
X53478000Y-29140700D03*
%TO.N,SD_D2_C*%
X57618400Y-31317600D03*
X67804600Y-43196000D03*
X53486300Y-34661800D03*
%TO.N,SD_D3*%
X52762600Y-17348100D03*
X59458000Y-23254700D03*
%TO.N,SD_PWR_EN*%
X63662500Y-52942500D03*
X48336700Y-13424900D03*
D61*
%TO.N,SD_VDD*%
X52840100Y-24033000D03*
X50420100Y-24285300D03*
X49444400Y-32553400D03*
D60*
%TO.N,SENS_EN*%
X26201800Y-64653100D03*
X41977600Y-11895700D03*
X2918100Y-33489400D03*
%TO.N,SPI_CS*%
X56544600Y-7706300D03*
X77379100Y-25858700D03*
%TO.N,SPI_MISO*%
X59464200Y-8950900D03*
%TO.N,SPI_MOSI*%
X59426000Y-7939400D03*
%TO.N,SPI_SCK*%
X59484800Y-10241500D03*
%TO.N,UART_RX*%
X59486900Y-6578800D03*
%TO.N,UART_TX*%
X58728600Y-13039400D03*
%TO.N,USB_DM*%
X64425500Y-11502000D03*
X44559500Y-16257200D03*
%TO.N,USB_DM_CON*%
X77030000Y-15750000D03*
X77030000Y-16750000D03*
%TO.N,USB_DP*%
X64090800Y-8307900D03*
X53032100Y-10878500D03*
%TO.N,USB_DP_CON*%
X66189500Y-7848400D03*
X74580000Y-16250000D03*
X74580000Y-15250000D03*
D61*
%TO.N,VBAT_F*%
X25249200Y-71406500D03*
X38235500Y-73011300D03*
%TO.N,VBAT_IN*%
X21142300Y-67295300D03*
D60*
%TO.N,VBAT_SNS*%
X50605800Y-72084400D03*
X48967400Y-14061300D03*
D61*
%TO.N,VBUS_IN*%
X73580000Y-18450000D03*
X73580000Y-13550000D03*
D60*
%TO.N,VCAP*%
X10357200Y-68712400D03*
X26922400Y-68863200D03*
D61*
%TO.N,VSENS_SW*%
X40366800Y-84313400D03*
X41762500Y-69841300D03*
%TD*%
D63*
%TO.N,+3V3*%
X19037500Y-14570000D02*
X20275000Y-14570000D01*
X35312500Y-76521700D02*
X35818800Y-77560900D01*
X15720000Y-38650000D02*
X17195000Y-38650000D01*
X59812500Y-54300000D02*
X60318800Y-55339200D01*
X45587500Y-64000000D02*
X46093800Y-65039200D01*
X10537500Y-14570000D02*
X11775000Y-14570000D01*
X55795000Y-78835000D02*
X56595000Y-78835000D01*
X43250000Y-2810000D02*
X44500000Y-2810000D01*
X72775000Y-24025000D02*
X73641000Y-24637500D01*
X55550000Y-66200000D02*
X56416000Y-66812500D01*
X56000000Y-57800000D02*
X57600000Y-57800000D01*
X67662500Y-27785000D02*
X68168700Y-28824200D01*
X27537500Y-14570000D02*
X28775000Y-14570000D01*
X76665000Y-24025000D02*
X77531000Y-24637500D01*
X43795000Y-34975000D02*
X44661000Y-35587500D01*
X33500000Y-68200000D02*
X34750000Y-68200000D01*
X81037500Y-27785000D02*
X82050000Y-27785000D01*
X48537500Y-72195000D02*
X49775000Y-72195000D01*
X54052500Y-75385000D02*
X54907700Y-75985000D01*
X55025000Y-63600000D02*
X56100000Y-63600000D01*
X45412500Y-66800000D02*
X46425000Y-66800000D01*
X35637500Y-14570000D02*
X36875000Y-14570000D01*
X59212500Y-35405000D02*
X59718700Y-36444200D01*
X71512500Y-27785000D02*
X72018700Y-28824200D01*
X48425000Y-30795000D02*
X49650000Y-30795000D01*
X45412500Y-51000000D02*
X46425000Y-51000000D01*
X63812500Y-27785000D02*
X64318700Y-28824200D01*
X50025000Y-63600000D02*
X51100000Y-63600000D01*
X51950000Y-66600000D02*
X52950000Y-66600000D01*
X60037500Y-51995000D02*
X61275000Y-51995000D01*
X14085000Y-45131700D02*
X14951000Y-45744200D01*
X63870000Y-24195000D02*
X64945000Y-24195000D01*
X75362500Y-27785000D02*
X75868700Y-28824200D01*
D64*
%TO.N,+5V*%
X45166100Y-77916100D02*
X51750000Y-84500000D01*
X54625000Y-50800000D02*
X51950000Y-50800000D01*
X49738800Y-48588800D02*
X49738800Y-48086200D01*
X8550000Y-37400000D02*
X8570000Y-37380000D01*
X55025000Y-41570200D02*
X55025000Y-42000000D01*
X30209200Y-33809200D02*
X33800000Y-37400000D01*
X44177800Y-77916100D02*
X45166100Y-77916100D01*
X56000000Y-42000000D02*
X55025000Y-42000000D01*
X37429000Y-33771000D02*
X47225800Y-33771000D01*
X41353100Y-72170800D02*
X40363300Y-72170800D01*
X9291300Y-37380000D02*
X10770000Y-37380000D01*
X56000000Y-96173300D02*
X53952500Y-94125800D01*
X56000000Y-97500000D02*
X56000000Y-96173300D01*
X48949900Y-49377700D02*
X49738800Y-48588800D01*
X43012500Y-76521700D02*
X43869800Y-77379000D01*
X9291300Y-37380000D02*
X9291300Y-34385800D01*
X55025000Y-42000000D02*
X55025000Y-47800000D01*
X49738800Y-48086200D02*
X50025000Y-47800000D01*
X33800000Y-37400000D02*
X37429000Y-33771000D01*
X47225800Y-33771000D02*
X55025000Y-41570200D01*
X55550000Y-50400000D02*
X55025000Y-50400000D01*
X8570000Y-37380000D02*
X9291300Y-37380000D01*
X55025000Y-47800000D02*
X55025000Y-50400000D01*
X61887500Y-85403900D02*
X61586600Y-85103000D01*
X52521500Y-85103000D02*
X52437300Y-85187200D01*
X67335000Y-9195000D02*
X68049200Y-9195000D01*
X40363300Y-72170800D02*
X39887500Y-71695000D01*
X51732500Y-85892000D02*
X51732500Y-86595000D01*
X9291300Y-34385800D02*
X9867900Y-33809200D01*
X68049200Y-9195000D02*
X68395400Y-8848800D01*
X53952500Y-94125800D02*
X53952500Y-86975000D01*
X43869800Y-77379000D02*
X43869800Y-77608100D01*
X52437300Y-85187200D02*
X51732500Y-85892000D01*
X51750000Y-84500000D02*
X52437300Y-85187200D01*
X9867900Y-33809200D02*
X30209200Y-33809200D01*
X45587500Y-48200000D02*
X46765200Y-49377700D01*
X49738800Y-48588800D02*
X51950000Y-50800000D01*
X46765200Y-49377700D02*
X48949900Y-49377700D01*
X55025000Y-50400000D02*
X54625000Y-50800000D01*
X51751400Y-52400500D02*
X51950000Y-52201900D01*
X43869800Y-77608100D02*
X44177800Y-77916100D01*
X61586600Y-85103000D02*
X52521500Y-85103000D01*
X51950000Y-52201900D02*
X51950000Y-50800000D01*
%TO.N,+5VS*%
X36045000Y-82795000D02*
X37425100Y-81414900D01*
X5000000Y-32000000D02*
X5000000Y-33076700D01*
X37425100Y-81414900D02*
X42406200Y-81414900D01*
X5000000Y-32000000D02*
X6375000Y-32000000D01*
X35370000Y-86821300D02*
X35370000Y-86185000D01*
X35645000Y-23046700D02*
X35556200Y-23135500D01*
X35645000Y-21820000D02*
X35645000Y-23046700D01*
X10300100Y-88782500D02*
X3634400Y-82116800D01*
X27646700Y-23046700D02*
X27545000Y-23046700D01*
X10545000Y-21820000D02*
X10545000Y-23046700D01*
X27855800Y-23255800D02*
X27646700Y-23046700D01*
X5000000Y-18000000D02*
X6375000Y-18000000D01*
X42406200Y-81414900D02*
X43287500Y-82296200D01*
X19097500Y-23475900D02*
X19097500Y-23099200D01*
X19097500Y-23099200D02*
X19045000Y-23046700D01*
X35503800Y-86821300D02*
X35370000Y-86821300D01*
X10265000Y-23326700D02*
X10545000Y-23046700D01*
X35556200Y-23135500D02*
X35556200Y-23432700D01*
X35370000Y-86821300D02*
X33408800Y-88782500D01*
X35370000Y-86185000D02*
X35370000Y-83470000D01*
X27545000Y-21820000D02*
X27545000Y-23046700D01*
X35370000Y-83470000D02*
X36045000Y-82795000D01*
X33408800Y-88782500D02*
X10300100Y-88782500D01*
X10265000Y-23407500D02*
X10265000Y-23326700D01*
X37357500Y-88675000D02*
X35503800Y-86821300D01*
X19045000Y-21820000D02*
X19045000Y-23046700D01*
X3634400Y-34442300D02*
X5000000Y-33076700D01*
X3634400Y-82116800D02*
X3634400Y-34442300D01*
%TO.N,+VBAT*%
X10595000Y-67041700D02*
X8213300Y-69423400D01*
X32545800Y-54499000D02*
X31535300Y-53488500D01*
X8213300Y-77463300D02*
X14250000Y-83500000D01*
X39937500Y-57165000D02*
X37250000Y-57165000D01*
X37250000Y-57165000D02*
X37250000Y-58000000D01*
X16376700Y-68943100D02*
X16174000Y-68943100D01*
X32644700Y-54400100D02*
X32545800Y-54499000D01*
X13688800Y-71428300D02*
X15087500Y-70029600D01*
X37250000Y-54400100D02*
X32644700Y-54400100D01*
X58436100Y-80245600D02*
X50763800Y-80245600D01*
X37387500Y-53400000D02*
X37387500Y-54262600D01*
X61683800Y-76997900D02*
X58436100Y-80245600D01*
X51774000Y-70938800D02*
X49310700Y-68475500D01*
X51774000Y-71162500D02*
X51774000Y-70938800D01*
X61683800Y-76997900D02*
X57945100Y-73259200D01*
X37387500Y-39366100D02*
X37387500Y-37600000D01*
X37387500Y-54262600D02*
X37250000Y-54400100D01*
X37675000Y-45100000D02*
X37675000Y-46750000D01*
X9004300Y-65451000D02*
X10595000Y-67041700D01*
X16174000Y-68943100D02*
X15087500Y-70029600D01*
X65750000Y-77000000D02*
X61685900Y-77000000D01*
X9004300Y-57935700D02*
X9004300Y-65451000D01*
X49721600Y-80244100D02*
X48312500Y-78835000D01*
X13451500Y-53488500D02*
X11695000Y-55245000D01*
X11695000Y-55245000D02*
X9004300Y-57935700D01*
X31535300Y-53488500D02*
X13451500Y-53488500D01*
X57945100Y-73259200D02*
X53870700Y-73259200D01*
X37250000Y-58000000D02*
X37675000Y-60900000D01*
X37250000Y-57165000D02*
X37250000Y-58000000D01*
X50762300Y-80244100D02*
X49721600Y-80244100D01*
X49310700Y-68475500D02*
X39427600Y-68475500D01*
X8213300Y-69423400D02*
X8213300Y-77463300D01*
X12432500Y-71428300D02*
X13688800Y-71428300D01*
X32545800Y-61593700D02*
X32545800Y-54499000D01*
X61685900Y-77000000D02*
X61683800Y-76997900D01*
X50763800Y-80245600D02*
X50762300Y-80244100D01*
X53870700Y-73259200D02*
X51774000Y-71162500D01*
X37250000Y-41365000D02*
X37250000Y-42200000D01*
X39427600Y-68475500D02*
X32545800Y-61593700D01*
X39937500Y-41365000D02*
X37250000Y-41365000D01*
X37250000Y-56350000D02*
X37250000Y-54400100D01*
X37250000Y-56350000D02*
X37250000Y-57165000D01*
X37250000Y-42200000D02*
X37675000Y-45100000D01*
D65*
%TO.N,AIN1*%
X12700900Y-23019100D02*
X10295000Y-25425000D01*
X42751400Y-30815200D02*
X42751400Y-29190200D01*
X11845000Y-15501800D02*
X11845000Y-17945000D01*
X11845000Y-17945000D02*
X11845000Y-19021700D01*
X12700900Y-20743300D02*
X15635000Y-20743300D01*
X16891400Y-24209000D02*
X16400900Y-23718500D01*
X44025000Y-31295000D02*
X43231200Y-31295000D01*
X12700900Y-19877600D02*
X12700900Y-20743300D01*
X16400900Y-23718500D02*
X16400900Y-23662600D01*
X15987500Y-28730000D02*
X16891400Y-27826100D01*
X43231200Y-31295000D02*
X42751400Y-30815200D01*
X12412500Y-14934300D02*
X11845000Y-15501800D01*
X12700900Y-20743300D02*
X12700900Y-23019100D01*
X11845000Y-19021700D02*
X12700900Y-19877600D01*
X49807600Y-17491900D02*
X55303000Y-11996500D01*
X60750000Y-2810000D02*
X59673300Y-2810000D01*
X15635000Y-21820000D02*
X15635000Y-22896700D01*
X16891400Y-27826100D02*
X16891400Y-24209000D01*
X15635000Y-21820000D02*
X15635000Y-20743300D01*
X55303000Y-7180300D02*
X59673300Y-2810000D01*
X12412500Y-13620000D02*
X12412500Y-14934300D01*
X55303000Y-11996500D02*
X55303000Y-7180300D01*
X16400900Y-23662600D02*
X15635000Y-22896700D01*
%TO.N,AIN1_A*%
X14335000Y-22896700D02*
X16027500Y-24589200D01*
X14335000Y-21820000D02*
X14335000Y-22896700D01*
X16027500Y-25395000D02*
X16027500Y-26865000D01*
X16027500Y-24589200D02*
X16027500Y-25395000D01*
X14162500Y-28730000D02*
X12137500Y-28730000D01*
X16027500Y-26865000D02*
X14162500Y-28730000D01*
%TO.N,AIN1_IN*%
X12142600Y-27128800D02*
X11225000Y-28046400D01*
X14202500Y-25782800D02*
X12856500Y-27128800D01*
X6201700Y-29452000D02*
X6201700Y-20000000D01*
X14202500Y-25395000D02*
X14202500Y-25782800D01*
X9807600Y-33057900D02*
X6201700Y-29452000D01*
X11225000Y-28046400D02*
X11225000Y-32633400D01*
X6201700Y-20000000D02*
X7104700Y-19097000D01*
X5000000Y-20000000D02*
X6201700Y-20000000D01*
X7104700Y-19097000D02*
X7104700Y-12735300D01*
X10800500Y-33057900D02*
X9807600Y-33057900D01*
X11225000Y-32633400D02*
X10800500Y-33057900D01*
X7104700Y-12735300D02*
X11045000Y-8795000D01*
X12856500Y-27128800D02*
X12142600Y-27128800D01*
%TO.N,AIN1_PU*%
X9462600Y-24692800D02*
X10021200Y-24134200D01*
X9462600Y-27880100D02*
X9462600Y-24692800D01*
X10607500Y-24134200D02*
X11845000Y-22896700D01*
X10021200Y-24134200D02*
X10607500Y-24134200D01*
X10312500Y-28730000D02*
X9462600Y-27880100D01*
X11845000Y-21820000D02*
X11845000Y-22896700D01*
%TO.N,AIN1_R1*%
X10312500Y-32005000D02*
X8987000Y-30679500D01*
X10545000Y-17945000D02*
X9718300Y-17945000D01*
X8987000Y-18676300D02*
X9718300Y-17945000D01*
X8987000Y-30679500D02*
X8987000Y-18676300D01*
%TO.N,AIN1_R2*%
X14295700Y-32005000D02*
X14162500Y-32005000D01*
X17353600Y-23985100D02*
X17353600Y-28947100D01*
X17040800Y-23672300D02*
X17353600Y-23985100D01*
X17353600Y-28947100D02*
X14295700Y-32005000D01*
X17040800Y-21014100D02*
X17040800Y-23672300D01*
X13145000Y-17945000D02*
X13971700Y-17945000D01*
X13971700Y-17945000D02*
X17040800Y-21014100D01*
%TO.N,AIN2*%
X44025000Y-31795000D02*
X45141600Y-31795000D01*
X46084600Y-30852000D02*
X46084600Y-30785200D01*
X24135000Y-18669600D02*
X24135000Y-21820000D01*
X25398400Y-27819100D02*
X25398400Y-22127600D01*
X24487500Y-28730000D02*
X25398400Y-27819100D01*
X20912500Y-16868300D02*
X22333700Y-16868300D01*
X25141000Y-21999300D02*
X24961700Y-21820000D01*
X18178000Y-23496800D02*
X18357900Y-23676700D01*
X60750000Y-4080000D02*
X59284700Y-4080000D01*
X18178000Y-20956800D02*
X18178000Y-23496800D01*
X59284700Y-4080000D02*
X55917900Y-7446800D01*
X18357900Y-24987900D02*
X18795000Y-25425000D01*
X20113100Y-19021700D02*
X18178000Y-20956800D01*
X24135000Y-21820000D02*
X24961700Y-21820000D01*
X20345000Y-19021700D02*
X20113100Y-19021700D01*
X25398400Y-22127600D02*
X25270100Y-21999300D01*
X18357900Y-23676700D02*
X18357900Y-24987900D01*
X55917900Y-7446800D02*
X55917900Y-12740300D01*
X25270100Y-21999300D02*
X25141000Y-21999300D01*
X45141600Y-31795000D02*
X46084600Y-30852000D01*
X20345000Y-17945000D02*
X20345000Y-19021700D01*
X20345000Y-17945000D02*
X20345000Y-16868300D01*
X20912500Y-13620000D02*
X20912500Y-16868300D01*
X55917900Y-12740300D02*
X51563900Y-17094300D01*
X20912500Y-16868300D02*
X20345000Y-16868300D01*
X22333700Y-16868300D02*
X24135000Y-18669600D01*
%TO.N,AIN2_A*%
X22662500Y-28730000D02*
X20637500Y-28730000D01*
X24527500Y-26865000D02*
X22662500Y-28730000D01*
X24527500Y-24589200D02*
X24527500Y-25395000D01*
X22835000Y-22896700D02*
X24527500Y-24589200D01*
X24527500Y-25395000D02*
X24527500Y-26865000D01*
X22835000Y-21820000D02*
X22835000Y-22896700D01*
%TO.N,AIN2_IN*%
X19545000Y-8795000D02*
X18175600Y-10164400D01*
X22236400Y-25395000D02*
X22702500Y-25395000D01*
X18175600Y-10164400D02*
X18175600Y-11633300D01*
X21171700Y-24330300D02*
X22236400Y-25395000D01*
X21171700Y-20656800D02*
X21171700Y-24330300D01*
%TO.N,AIN2_PU*%
X18812500Y-28730000D02*
X19745000Y-27797500D01*
X20345000Y-23979400D02*
X20345000Y-22896700D01*
X20345000Y-21820000D02*
X20345000Y-22896700D01*
X19745000Y-24579400D02*
X20345000Y-23979400D01*
X19745000Y-27797500D02*
X19745000Y-24579400D01*
%TO.N,AIN2_R1*%
X17690100Y-23680700D02*
X17886300Y-23876900D01*
X19045000Y-17945000D02*
X18218300Y-17945000D01*
X17886300Y-31078800D02*
X18812500Y-32005000D01*
X17886300Y-23876900D02*
X17886300Y-31078800D01*
X17690100Y-18473200D02*
X17690100Y-23680700D01*
X18218300Y-17945000D02*
X17690100Y-18473200D01*
%TO.N,AIN2_R2*%
X21645000Y-19021700D02*
X22004400Y-19381100D01*
X22662500Y-32005000D02*
X22163800Y-31506300D01*
X21645000Y-17945000D02*
X21645000Y-19021700D01*
X22004400Y-19381100D02*
X22004400Y-24276800D01*
X22163800Y-31506300D02*
X22163800Y-29964600D01*
%TO.N,AIN3*%
X32635000Y-20743300D02*
X30913400Y-19021700D01*
X40175000Y-32684300D02*
X40175000Y-31385200D01*
X40175000Y-31385200D02*
X39730100Y-30940300D01*
X35872400Y-33083200D02*
X28663000Y-33083200D01*
X29412500Y-13620000D02*
X29412500Y-14934300D01*
X28663000Y-33083200D02*
X28279700Y-32699900D01*
X33867700Y-24705800D02*
X32635000Y-23473100D01*
X40525600Y-33034900D02*
X40175000Y-32684300D01*
X36768800Y-30940300D02*
X36325000Y-31384100D01*
X29412500Y-14934300D02*
X28845000Y-15501800D01*
X39730100Y-30940300D02*
X36768800Y-30940300D01*
X32987500Y-28730000D02*
X33867700Y-27849800D01*
X48425000Y-31795000D02*
X47185100Y-33034900D01*
X26441700Y-26278300D02*
X27295000Y-25425000D01*
X30931800Y-30785700D02*
X32987500Y-28730000D01*
X27781900Y-30785700D02*
X26441700Y-29445500D01*
X36325000Y-32630600D02*
X35872400Y-33083200D01*
X32635000Y-23473100D02*
X32635000Y-21820000D01*
X26441700Y-29445500D02*
X26441700Y-26278300D01*
X47185100Y-33034900D02*
X40525600Y-33034900D01*
X33014200Y-5350000D02*
X43250000Y-5350000D01*
X29645800Y-13386700D02*
X29645800Y-8718400D01*
X32635000Y-21820000D02*
X32635000Y-20743300D01*
X33867700Y-27849800D02*
X33867700Y-24705800D01*
X28279700Y-30785700D02*
X30931800Y-30785700D01*
X28845000Y-15501800D02*
X28845000Y-17945000D01*
X29645800Y-8718400D02*
X33014200Y-5350000D01*
X29412500Y-13620000D02*
X29645800Y-13386700D01*
X28279700Y-32699900D02*
X28279700Y-30785700D01*
X28845000Y-17945000D02*
X28845000Y-19021700D01*
X30913400Y-19021700D02*
X28845000Y-19021700D01*
X36325000Y-31384100D02*
X36325000Y-32630600D01*
X28279700Y-30785700D02*
X27781900Y-30785700D01*
%TO.N,AIN3_A*%
X31335000Y-21820000D02*
X31335000Y-23856600D01*
X31162500Y-28730000D02*
X29137500Y-28730000D01*
X32873400Y-25395000D02*
X33027500Y-25395000D01*
X31335000Y-23856600D02*
X32873400Y-25395000D01*
X32873400Y-27019100D02*
X31162500Y-28730000D01*
X32873400Y-25395000D02*
X32873400Y-27019100D01*
%TO.N,AIN3_IN*%
X28045000Y-8795000D02*
X25385500Y-11454500D01*
X31202500Y-25395000D02*
X30021200Y-24213700D01*
X30021200Y-20805100D02*
X29481500Y-20265400D01*
X25385500Y-11454500D02*
X20373500Y-11454500D01*
X30021200Y-24213700D02*
X30021200Y-20805100D01*
%TO.N,AIN3_PU*%
X28245000Y-23894300D02*
X28845000Y-23294300D01*
X28845000Y-23294300D02*
X28845000Y-21820000D01*
X28245000Y-27797500D02*
X28245000Y-23894300D01*
X27312500Y-28730000D02*
X28245000Y-27797500D01*
%TO.N,AIN3_R1*%
X25990000Y-30682500D02*
X25990000Y-18673300D01*
X27312500Y-32005000D02*
X25990000Y-30682500D01*
X25990000Y-18673300D02*
X26718300Y-17945000D01*
X27545000Y-17945000D02*
X26718300Y-17945000D01*
%TO.N,AIN3_R2*%
X34350200Y-28903100D02*
X34350200Y-24547400D01*
X30145000Y-17945000D02*
X30971700Y-17945000D01*
X31162500Y-32005000D02*
X31248300Y-32005000D01*
X31248300Y-32005000D02*
X34350200Y-28903100D01*
X33884000Y-20857300D02*
X30971700Y-17945000D01*
X34350200Y-24547400D02*
X33884000Y-24081200D01*
X33884000Y-24081200D02*
X33884000Y-20857300D01*
%TO.N,AIN4*%
X40735000Y-23427800D02*
X41979100Y-24671900D01*
X40735000Y-21820000D02*
X40735000Y-22896700D01*
X34790700Y-20946500D02*
X34790700Y-24347200D01*
X37512500Y-12399500D02*
X37512500Y-13620000D01*
X34546600Y-9667600D02*
X36265000Y-11386000D01*
X40735000Y-20743300D02*
X40735000Y-11962100D01*
X40735000Y-21281600D02*
X40735000Y-20743300D01*
X36945000Y-20055200D02*
X36305600Y-20694600D01*
X34790700Y-24347200D02*
X35395000Y-24951500D01*
X34546600Y-7916000D02*
X34546600Y-9667600D01*
X38555900Y-9783000D02*
X38555900Y-7551800D01*
X36945000Y-17945000D02*
X36945000Y-19021700D01*
X38555900Y-7551800D02*
X39487700Y-6620000D01*
X35042600Y-20694600D02*
X34790700Y-20946500D01*
X36265000Y-11386000D02*
X36499000Y-11386000D01*
X46128700Y-29776900D02*
X46128700Y-29932500D01*
X46128700Y-29932500D02*
X47491200Y-31295000D01*
X44866500Y-28514700D02*
X46128700Y-29776900D01*
X36945000Y-19021700D02*
X36945000Y-20055200D01*
X40735000Y-11962100D02*
X38555900Y-9783000D01*
X41979100Y-28514700D02*
X41763800Y-28730000D01*
X36499000Y-11386000D02*
X37512500Y-12399500D01*
X39487700Y-6620000D02*
X43250000Y-6620000D01*
X36945000Y-16153000D02*
X36945000Y-17945000D01*
X34910800Y-7551800D02*
X34546600Y-7916000D01*
X41979100Y-28514700D02*
X44866500Y-28514700D01*
X41979100Y-24671900D02*
X41979100Y-28514700D01*
X40735000Y-21281600D02*
X40735000Y-21820000D01*
X41763800Y-28730000D02*
X41087500Y-28730000D01*
X47491200Y-31295000D02*
X48425000Y-31295000D01*
X35395000Y-24951500D02*
X35395000Y-25425000D01*
X38555900Y-7551800D02*
X34910800Y-7551800D01*
X36305600Y-20694600D02*
X35042600Y-20694600D01*
X40735000Y-22896700D02*
X40735000Y-23427800D01*
X37512500Y-13620000D02*
X37512500Y-15585500D01*
X37512500Y-15585500D02*
X36945000Y-16153000D01*
%TO.N,AIN4_A*%
X41127500Y-26865000D02*
X39262500Y-28730000D01*
X41127500Y-25395000D02*
X41127500Y-26865000D01*
X39435000Y-23702500D02*
X39435000Y-21820000D01*
X39262500Y-28730000D02*
X37237500Y-28730000D01*
X41127500Y-25395000D02*
X39435000Y-23702500D01*
%TO.N,AIN4_IN*%
X39118000Y-25579500D02*
X39118000Y-27504600D01*
X39085000Y-11735000D02*
X36145000Y-8795000D01*
X39302500Y-25395000D02*
X38608300Y-24700800D01*
X38608300Y-24700800D02*
X38608300Y-20919300D01*
X39085000Y-20442600D02*
X39085000Y-11735000D01*
X38608300Y-20919300D02*
X39085000Y-20442600D01*
X39302500Y-25395000D02*
X39118000Y-25579500D01*
%TO.N,AIN4_PU*%
X36370000Y-23471700D02*
X36945000Y-22896700D01*
X36370000Y-27772500D02*
X36370000Y-23471700D01*
X35412500Y-28730000D02*
X36370000Y-27772500D01*
X36945000Y-21820000D02*
X36945000Y-22896700D01*
%TO.N,AIN4_R1*%
X35645000Y-17945000D02*
X35645000Y-19021700D01*
X36038900Y-19415600D02*
X36038900Y-20067900D01*
X35645000Y-19021700D02*
X36038900Y-19415600D01*
X35412500Y-30307300D02*
X35412500Y-32005000D01*
%TO.N,AIN4_R2*%
X38245000Y-19021700D02*
X38320500Y-19097200D01*
X38320500Y-19097200D02*
X38320500Y-20279500D01*
X39262500Y-32005000D02*
X38405200Y-32862300D01*
X38405200Y-32862300D02*
X38332600Y-32862300D01*
X38245000Y-17945000D02*
X38245000Y-19021700D01*
%TO.N,BST_3V3*%
X41947200Y-54297200D02*
X41050000Y-53400000D01*
X45736800Y-57165000D02*
X46318000Y-57746200D01*
X45062500Y-57165000D02*
X45736800Y-57165000D01*
%TO.N,BST_5V*%
X41050000Y-37600000D02*
X41955500Y-38505500D01*
X45468900Y-41365000D02*
X46476000Y-42372100D01*
X45062500Y-41365000D02*
X45468900Y-41365000D01*
%TO.N,CANH_T*%
X17358300Y-34939300D02*
X16187600Y-36110000D01*
X16187600Y-36110000D02*
X15720000Y-36110000D01*
X17358300Y-34745000D02*
X17358300Y-34939300D01*
X18360000Y-34745000D02*
X17358300Y-34745000D01*
%TO.N,CANL_T*%
X18360000Y-37245000D02*
X15855000Y-37245000D01*
X15855000Y-37245000D02*
X15720000Y-37380000D01*
%TO.N,CAN_H*%
X5000000Y-54000000D02*
X5000000Y-53073300D01*
X23911700Y-34745000D02*
X23911700Y-39433800D01*
X22910000Y-34745000D02*
X21908300Y-34745000D01*
X6567900Y-52084600D02*
X5579200Y-53073300D01*
X6567900Y-48552100D02*
X6567900Y-52084600D01*
X10545000Y-42298300D02*
X10545000Y-45401700D01*
X23911700Y-39433800D02*
X25777500Y-41299600D01*
X12321700Y-40521600D02*
X16731500Y-40521600D01*
X5579200Y-53073300D02*
X5000000Y-53073300D01*
X16731500Y-40521600D02*
X21908300Y-35344800D01*
X11045000Y-41798300D02*
X10545000Y-42298300D01*
X10545000Y-45401700D02*
X9718300Y-45401700D01*
X11045000Y-41798300D02*
X12321700Y-40521600D01*
X22910000Y-34745000D02*
X23911700Y-34745000D01*
X21908300Y-35344800D02*
X21908300Y-34745000D01*
X9718300Y-45401700D02*
X6567900Y-48552100D01*
%TO.N,CAN_L*%
X27027500Y-43042100D02*
X28770000Y-41299600D01*
X26002100Y-48205000D02*
X28402100Y-45805000D01*
X12137500Y-48205000D02*
X26002100Y-48205000D01*
X19944500Y-41798300D02*
X19944500Y-39208800D01*
X19944500Y-39208800D02*
X21908300Y-37245000D01*
X21188300Y-43042100D02*
X19944500Y-41798300D01*
X5515800Y-55073300D02*
X12137500Y-48451600D01*
X19944500Y-41798300D02*
X18535000Y-41798300D01*
X28402100Y-44416700D02*
X27027500Y-43042100D01*
X22910000Y-37245000D02*
X21908300Y-37245000D01*
X27027500Y-43042100D02*
X21188300Y-43042100D01*
X5000000Y-55073300D02*
X5515800Y-55073300D01*
X28402100Y-45805000D02*
X28402100Y-44416700D01*
X12137500Y-48451600D02*
X12137500Y-48205000D01*
X5000000Y-56000000D02*
X5000000Y-55073300D01*
%TO.N,CAN_RX*%
X13184600Y-36693100D02*
X11227700Y-38650000D01*
X43250000Y-14240000D02*
X42173300Y-14240000D01*
X11227700Y-38650000D02*
X10770000Y-38650000D01*
X13184600Y-36149200D02*
X13184600Y-36693100D01*
X42337400Y-23017000D02*
X42337400Y-24099900D01*
X42053700Y-14359600D02*
X42053700Y-22733300D01*
X42053700Y-22733300D02*
X42337400Y-23017000D01*
X42173300Y-14240000D02*
X42053700Y-14359600D01*
%TO.N,CAN_S*%
X55175000Y-19300000D02*
X55175000Y-20376700D01*
X21882500Y-45101700D02*
X21873100Y-45101700D01*
X54815700Y-20376700D02*
X54407600Y-20784800D01*
X21873100Y-45101700D02*
X20975400Y-44204000D01*
X15336200Y-34840000D02*
X15720000Y-34840000D01*
X14202900Y-35973300D02*
X15336200Y-34840000D01*
X55175000Y-20376700D02*
X54815700Y-20376700D01*
%TO.N,CAN_SPLIT*%
X16882000Y-44486800D02*
X16882000Y-44486900D01*
X16432500Y-44037300D02*
X16882000Y-44486800D01*
X12409100Y-46549800D02*
X13127900Y-45831000D01*
X17975000Y-45131700D02*
X19267000Y-46423700D01*
X13127900Y-44532100D02*
X13622700Y-44037300D01*
X11967700Y-46549800D02*
X12409100Y-46549800D01*
X13622700Y-44037300D02*
X16432500Y-44037300D01*
X26235500Y-46423700D02*
X27557500Y-45101700D01*
X17330200Y-44486900D02*
X17975000Y-45131700D01*
X13127900Y-45831000D02*
X13127900Y-44532100D01*
X10312500Y-48205000D02*
X11967700Y-46549800D01*
X19267000Y-46423700D02*
X26235500Y-46423700D01*
X16882000Y-44486900D02*
X17330200Y-44486900D01*
%TO.N,CAN_TX*%
X43250000Y-12970000D02*
X42173300Y-12970000D01*
X10880100Y-34729900D02*
X13379500Y-34729900D01*
X41592400Y-13550900D02*
X41592400Y-23395700D01*
X10770000Y-34840000D02*
X10880100Y-34729900D01*
X42173300Y-12970000D02*
X41592400Y-13550900D01*
%TO.N,EN_3V3*%
X34162900Y-62129800D02*
X33550000Y-61516900D01*
X38239000Y-62129800D02*
X34162900Y-62129800D01*
X39228300Y-58824000D02*
X38503700Y-58099500D01*
X38577700Y-59474600D02*
X38577700Y-61791100D01*
X39937500Y-58435000D02*
X39617300Y-58435000D01*
X39617300Y-58435000D02*
X39228300Y-58824000D01*
X39228300Y-58824000D02*
X38577700Y-59474600D01*
X38577700Y-61791100D02*
X38239000Y-62129800D01*
X33550000Y-61516900D02*
X33550000Y-55700000D01*
X39212500Y-53400000D02*
X39212500Y-54993800D01*
%TO.N,EN_5V*%
X37555100Y-40267500D02*
X38644900Y-39177700D01*
X38579100Y-42635000D02*
X38545800Y-42601700D01*
X39937500Y-42635000D02*
X38579100Y-42635000D01*
X34628100Y-40978100D02*
X36347600Y-40978100D01*
X36347600Y-40978100D02*
X37058200Y-40267500D01*
X38644900Y-38167600D02*
X39212500Y-37600000D01*
X37058200Y-40267500D02*
X37555100Y-40267500D01*
X33550000Y-39900000D02*
X34628100Y-40978100D01*
X38644900Y-39177700D02*
X38644900Y-38167600D01*
%TO.N,FB_3V3*%
X43937500Y-61650000D02*
X45062500Y-61650000D01*
X41587500Y-66662500D02*
X41587500Y-64000000D01*
X41587500Y-64000000D02*
X43937500Y-61650000D01*
X45062500Y-61650000D02*
X47412500Y-64000000D01*
X45062500Y-59705000D02*
X45062500Y-61650000D01*
X41450000Y-66800000D02*
X41587500Y-66662500D01*
%TO.N,FB_5V*%
X41450000Y-48337500D02*
X41587500Y-48200000D01*
X43937500Y-45850000D02*
X45062500Y-45850000D01*
X41587500Y-48200000D02*
X43937500Y-45850000D01*
X45062500Y-43905000D02*
X45062500Y-45850000D01*
X45062500Y-45850000D02*
X47412500Y-48200000D01*
X41450000Y-51000000D02*
X41450000Y-48337500D01*
%TO.N,GATE_RB*%
X11993600Y-70478300D02*
X11442700Y-69927400D01*
X11442700Y-69927400D02*
X11442700Y-68179500D01*
X11724200Y-63610900D02*
X11724200Y-63657200D01*
X10595000Y-62481700D02*
X11724200Y-63610900D01*
X12432500Y-70478300D02*
X11993600Y-70478300D01*
D63*
%TO.N,GND*%
X12137500Y-32005000D02*
X13150000Y-32005000D01*
X44237500Y-71695000D02*
X45475000Y-71695000D01*
X32987500Y-32005000D02*
X34000000Y-32005000D01*
X37295000Y-25425000D02*
X38161000Y-26037500D01*
X39412500Y-64000000D02*
X40425000Y-64000000D01*
X49850000Y-84500000D02*
X50716000Y-85112500D01*
X6650000Y-37400000D02*
X7516000Y-38012500D01*
X35450000Y-39900000D02*
X36450000Y-39900000D01*
D64*
X50500000Y-9960000D02*
X50500000Y-9260000D01*
D63*
X52975000Y-47800000D02*
X53906000Y-48500000D01*
X44025000Y-29795000D02*
X45250000Y-29795000D01*
X10537500Y-12670000D02*
X11775000Y-12670000D01*
X57450000Y-50400000D02*
X58450000Y-50400000D01*
X11895000Y-73675000D02*
X12761000Y-74287500D01*
X20695000Y-25425000D02*
X21561000Y-26037500D01*
X74850000Y-58400000D02*
X76200000Y-58400000D01*
X45237500Y-24600000D02*
X46250000Y-24600000D01*
X70785000Y-24025000D02*
X71651000Y-24637500D01*
X23707500Y-45101700D02*
X24720000Y-45101700D01*
X37412500Y-70745000D02*
X38650000Y-70745000D01*
X44025000Y-30795000D02*
X45250000Y-30795000D01*
X37195000Y-74008300D02*
X38061000Y-74620800D01*
X66820000Y-24195000D02*
X67751000Y-24895000D01*
D64*
X43150000Y-58450000D02*
X42500000Y-57800000D01*
D63*
X78250000Y-77000000D02*
X82650000Y-77000000D01*
X57450000Y-66200000D02*
X58450000Y-66200000D01*
X48537500Y-70295000D02*
X49775000Y-70295000D01*
X50195000Y-75415000D02*
X51061000Y-76027500D01*
X20095000Y-55245000D02*
X22795000Y-55245000D01*
X78565000Y-24025000D02*
X79565000Y-24025000D01*
X15987500Y-32005000D02*
X17000000Y-32005000D01*
X43412500Y-64000000D02*
X44425000Y-64000000D01*
X27537500Y-12670000D02*
X28775000Y-12670000D01*
X40045000Y-82795000D02*
X41795000Y-82795000D01*
X81150000Y-65400000D02*
X82500000Y-65400000D01*
X81150000Y-58400000D02*
X82500000Y-58400000D01*
X69650000Y-38675000D02*
X71025000Y-38675000D01*
X10770000Y-36110000D02*
X12245000Y-36110000D01*
X45237500Y-21795000D02*
X46250000Y-21795000D01*
X64695000Y-17705000D02*
X65561000Y-18317500D01*
X43250000Y-1540000D02*
X44500000Y-1540000D01*
X41087500Y-32005000D02*
X42100000Y-32005000D01*
X80450000Y-46575000D02*
X81725000Y-46575000D01*
X34725000Y-45100000D02*
X35800000Y-45100000D01*
X44877500Y-73978300D02*
X45890000Y-73978300D01*
X35350000Y-58000000D02*
X36216000Y-58612500D01*
X52975000Y-63600000D02*
X53906000Y-64300000D01*
X72377500Y-17675000D02*
X72377500Y-18875000D01*
X49457500Y-86595000D02*
X48295000Y-86595000D01*
X20637500Y-32005000D02*
X21650000Y-32005000D01*
X75805000Y-12750000D02*
X74580000Y-12750000D01*
X53987500Y-78835000D02*
X54864300Y-79435000D01*
X39412500Y-48200000D02*
X40425000Y-48200000D01*
X65820000Y-14085000D02*
X66751000Y-14785000D01*
X19577500Y-73645000D02*
X20590000Y-73645000D01*
X32045000Y-8795000D02*
X33795000Y-8795000D01*
X59132500Y-70796200D02*
X60382500Y-70796200D01*
X58035000Y-22425000D02*
X59035000Y-22425000D01*
X38320000Y-86185000D02*
X39251000Y-86885000D01*
X39937500Y-55895000D02*
X38735900Y-56295000D01*
X15045000Y-8795000D02*
X16795000Y-8795000D01*
X19875000Y-45131700D02*
X20741000Y-45744200D01*
X35450000Y-55700000D02*
X36450000Y-55700000D01*
X49457500Y-88495000D02*
X50464300Y-88895000D01*
X19037500Y-12670000D02*
X20275000Y-12670000D01*
X45695000Y-34975000D02*
X46695000Y-34975000D01*
X29137500Y-32005000D02*
X30150000Y-32005000D01*
X37237500Y-32005000D02*
X38250000Y-32005000D01*
X12195000Y-25425000D02*
X13061000Y-26037500D01*
X57975000Y-47800000D02*
X59050000Y-47800000D01*
X64387500Y-51995000D02*
X65625000Y-51995000D01*
X29135000Y-64611700D02*
X30885000Y-64611700D01*
X74850000Y-65400000D02*
X76200000Y-65400000D01*
X35637500Y-12670000D02*
X36875000Y-12670000D01*
X60750000Y-1540000D02*
X62000000Y-1540000D01*
X74675000Y-24025000D02*
X75541000Y-24637500D01*
X15985000Y-45131700D02*
X16851000Y-45744200D01*
X34725000Y-60900000D02*
X35800000Y-60900000D01*
X24487500Y-32005000D02*
X25500000Y-32005000D01*
X40987500Y-79005000D02*
X42000000Y-79005000D01*
X57975000Y-63600000D02*
X59050000Y-63600000D01*
X57877500Y-75385000D02*
X58890000Y-75385000D01*
X61637500Y-56805000D02*
X62650000Y-56805000D01*
X35350000Y-42200000D02*
X36216000Y-42812500D01*
X45237500Y-27405000D02*
X46250000Y-27405000D01*
X26750000Y-83500000D02*
X31150000Y-83500000D01*
X75805000Y-19250000D02*
X75805000Y-20050000D01*
X39937500Y-40095000D02*
X38735900Y-40495000D01*
X22535000Y-41798300D02*
X24285000Y-41798300D01*
X43412500Y-48200000D02*
X44425000Y-48200000D01*
X53620000Y-22595000D02*
X54695000Y-22595000D01*
X29195000Y-25425000D02*
X30061000Y-26037500D01*
X10157500Y-70478300D02*
X8995000Y-70478300D01*
D64*
X43150000Y-42650000D02*
X42500000Y-42000000D01*
D63*
X68527500Y-17675000D02*
X69540000Y-17675000D01*
X15045000Y-41798300D02*
X16560500Y-42498300D01*
X23545000Y-8795000D02*
X25295000Y-8795000D01*
X40145000Y-8795000D02*
X41895000Y-8795000D01*
X62957500Y-9745000D02*
X64070000Y-9745000D01*
X57895000Y-78835000D02*
X58695000Y-78835000D01*
D65*
%TO.N,I2C_SCL*%
X71648200Y-31389500D02*
X71648200Y-32188800D01*
X74533900Y-31113800D02*
X71923900Y-31113800D01*
X71923900Y-31113800D02*
X71712900Y-30902800D01*
X59673300Y-17581200D02*
X59487200Y-17767300D01*
X71648200Y-32188800D02*
X73722600Y-34263200D01*
X73722600Y-34263200D02*
X73722600Y-53647600D01*
X71923900Y-31113800D02*
X71648200Y-31389500D01*
X59673300Y-11700000D02*
X59673300Y-17581200D01*
X77187500Y-27785000D02*
X77187500Y-28460200D01*
X71712900Y-30902800D02*
X71712900Y-30808900D01*
X60750000Y-11700000D02*
X59673300Y-11700000D01*
X77187500Y-28460200D02*
X74533900Y-31113800D01*
X48425000Y-29795000D02*
X48425000Y-29141400D01*
%TO.N,I2C_SDA*%
X48425000Y-30295000D02*
X47377400Y-30295000D01*
X47377400Y-30295000D02*
X47183000Y-30100600D01*
X71030400Y-29933700D02*
X71825400Y-29933700D01*
X46080000Y-97500000D02*
X46080000Y-79938000D01*
X73337500Y-28421600D02*
X73337500Y-27785000D01*
X46080000Y-79938000D02*
X45472200Y-79330200D01*
X70623700Y-30340400D02*
X71030400Y-29933700D01*
X62036200Y-12760500D02*
X61826700Y-12970000D01*
X60750000Y-12970000D02*
X61826700Y-12970000D01*
X73337500Y-27785000D02*
X73337500Y-25510700D01*
X71825400Y-29933700D02*
X73337500Y-28421600D01*
%TO.N,IO3*%
X44830800Y-20376700D02*
X44539900Y-20667600D01*
X45015000Y-19300000D02*
X45015000Y-20376700D01*
X45015000Y-20376700D02*
X44830800Y-20376700D01*
X44539900Y-20667600D02*
X43412500Y-21795000D01*
X44539900Y-20667600D02*
X43583500Y-19711200D01*
%TO.N,IO45*%
X43412500Y-24600000D02*
X43412500Y-23364100D01*
X42564900Y-19125700D02*
X42688600Y-19002000D01*
X58985000Y-19300000D02*
X58985000Y-18223300D01*
X58985000Y-18223300D02*
X58657300Y-17895600D01*
X43412500Y-23364100D02*
X42564900Y-22516500D01*
X42564900Y-22516500D02*
X42564900Y-19125700D01*
%TO.N,IO46*%
X46285000Y-20376700D02*
X46934400Y-21026100D01*
X46285000Y-18223300D02*
X46123200Y-18223300D01*
X44325000Y-26492500D02*
X43412500Y-27405000D01*
X46285000Y-19300000D02*
X46285000Y-20376700D01*
X46285000Y-19300000D02*
X46285000Y-18223300D01*
X45664400Y-23271300D02*
X44994600Y-23271300D01*
X46123200Y-18223300D02*
X45904200Y-18004300D01*
X44994600Y-23271300D02*
X44325000Y-23940900D01*
X46934400Y-21026100D02*
X46934400Y-22001300D01*
X46934400Y-22001300D02*
X45664400Y-23271300D01*
X44325000Y-23940900D02*
X44325000Y-26492500D01*
D64*
%TO.N,LED_5V*%
X67402500Y-97500000D02*
X69000000Y-97500000D01*
X56877500Y-86975000D02*
X67402500Y-97500000D01*
D65*
%TO.N,LED_DIN*%
X51732500Y-88495000D02*
X51732500Y-89265000D01*
X51732500Y-89265000D02*
X49312500Y-91685000D01*
%TO.N,LED_DIN_A*%
X60777500Y-86795000D02*
X59748700Y-85766200D01*
X59748700Y-85766200D02*
X53406900Y-85766200D01*
X53406900Y-85766200D02*
X52831700Y-86341400D01*
X52831700Y-86341400D02*
X52831700Y-86891000D01*
X52177700Y-87545000D02*
X49457500Y-87545000D01*
X52831700Y-86891000D02*
X52177700Y-87545000D01*
%TO.N,LED_DIN_J*%
X70363300Y-98676700D02*
X71540000Y-97500000D01*
X51137500Y-91685000D02*
X53318400Y-93865900D01*
X54990900Y-98676700D02*
X70363300Y-98676700D01*
X53318400Y-97004200D02*
X54990900Y-98676700D01*
X53318400Y-93865900D02*
X53318400Y-97004200D01*
%TO.N,LED_DIN_MCU*%
X58952500Y-86795000D02*
X59980800Y-87823300D01*
X59980800Y-87823300D02*
X64009000Y-87823300D01*
X71654600Y-80177700D02*
X71654600Y-35292500D01*
X57962100Y-20376700D02*
X57715000Y-20376700D01*
X62356300Y-24770900D02*
X57962100Y-20376700D01*
X57715000Y-19300000D02*
X57715000Y-20376700D01*
X71654600Y-35292500D02*
X70341800Y-33979700D01*
X67794200Y-33979700D02*
X62356300Y-28541800D01*
X64009000Y-87823300D02*
X71654600Y-80177700D01*
X70341800Y-33979700D02*
X67794200Y-33979700D01*
X62356300Y-28541800D02*
X62356300Y-24770900D01*
%TO.N,MCU_BOOT*%
X63911600Y-29457300D02*
X62940900Y-28486600D01*
X72644200Y-59752600D02*
X74850000Y-61958400D01*
X60750000Y-18050000D02*
X61826700Y-18050000D01*
X81150000Y-61600000D02*
X81150000Y-62600000D01*
X72644200Y-35216700D02*
X72644200Y-59752600D01*
X69487500Y-32060000D02*
X72644200Y-35216700D01*
X74850000Y-61600000D02*
X74850000Y-61958400D01*
X74850000Y-61958400D02*
X74850000Y-62600000D01*
X69487500Y-29457300D02*
X63911600Y-29457300D01*
X62940900Y-28486600D02*
X62940900Y-20240900D01*
X62940900Y-20240900D02*
X61826700Y-19126700D01*
X61826700Y-19126700D02*
X61826700Y-18050000D01*
X69487500Y-29457300D02*
X69487500Y-27785000D01*
X69487500Y-29457300D02*
X69487500Y-32060000D01*
%TO.N,MCU_EN*%
X54676300Y-11736900D02*
X54676300Y-9058400D01*
X74850000Y-54600000D02*
X73673300Y-54600000D01*
X73095900Y-34965000D02*
X73095900Y-54022600D01*
X81150000Y-54600000D02*
X81150000Y-55600000D01*
X68885000Y-25542900D02*
X70347700Y-27005600D01*
X68885000Y-25542900D02*
X68885000Y-24025000D01*
X68885000Y-23766200D02*
X65559600Y-20440800D01*
X68885000Y-25542900D02*
X67879600Y-25542900D01*
X69969400Y-31838500D02*
X73095900Y-34965000D01*
X68885000Y-24025000D02*
X68885000Y-23766200D01*
X49697900Y-4080000D02*
X43250000Y-4080000D01*
X69969400Y-30108500D02*
X69969400Y-31838500D01*
X70347700Y-29730200D02*
X69969400Y-30108500D01*
X67879600Y-25542900D02*
X65637500Y-27785000D01*
X54676300Y-9058400D02*
X49697900Y-4080000D01*
X74850000Y-54600000D02*
X74850000Y-55600000D01*
X70347700Y-27005600D02*
X70347700Y-29730200D01*
X73095900Y-54022600D02*
X73673300Y-54600000D01*
%TO.N,PFD_SENSE*%
X35297100Y-74008300D02*
X35297100Y-71935400D01*
X41027500Y-73978300D02*
X39735800Y-75270000D01*
X36558800Y-75270000D02*
X35297100Y-74008300D01*
X35297100Y-71935400D02*
X35537500Y-71695000D01*
X39735800Y-75270000D02*
X36558800Y-75270000D01*
X43052500Y-73978300D02*
X41027500Y-73978300D01*
X39735800Y-75270000D02*
X40987500Y-76521700D01*
X35297100Y-74008300D02*
X35295000Y-74008300D01*
%TO.N,PG_3V3*%
X52325800Y-68550000D02*
X51000000Y-67224200D01*
X48275300Y-64733900D02*
X47293200Y-65716000D01*
X51000000Y-67224200D02*
X51000000Y-65956700D01*
X50280800Y-65237500D02*
X48778900Y-65237500D01*
X45368300Y-58435000D02*
X48275300Y-61342000D01*
X45062500Y-58435000D02*
X45368300Y-58435000D01*
X47293200Y-65716000D02*
X44671500Y-65716000D01*
X48275300Y-61342000D02*
X48275300Y-64733900D01*
X44671500Y-65716000D02*
X43587500Y-66800000D01*
X51000000Y-65956700D02*
X50280800Y-65237500D01*
X56140000Y-70796200D02*
X53893800Y-68550000D01*
X48778900Y-65237500D02*
X48275300Y-64733900D01*
X53893800Y-68550000D02*
X52325800Y-68550000D01*
%TO.N,PG_5V*%
X52429300Y-70078000D02*
X51764100Y-70078000D01*
X43587500Y-51000000D02*
X43587500Y-49774300D01*
X48945900Y-67259800D02*
X48762400Y-67259800D01*
X45378700Y-42635000D02*
X46287400Y-43543700D01*
X53147500Y-70796200D02*
X52429300Y-70078000D01*
X51764100Y-70078000D02*
X48945900Y-67259800D01*
X46287400Y-43543700D02*
X46287400Y-45190200D01*
X45062500Y-42635000D02*
X45378700Y-42635000D01*
%TO.N,PWR_FAIL*%
X30533800Y-61928000D02*
X35537500Y-66931700D01*
X37171700Y-76521700D02*
X35723600Y-75073600D01*
X37313900Y-76521700D02*
X37171700Y-76521700D01*
X34818000Y-75073600D02*
X34425100Y-74680700D01*
X35537500Y-66931700D02*
X35537500Y-69795000D01*
X42067300Y-10536000D02*
X42173300Y-10430000D01*
X34425100Y-70907400D02*
X35537500Y-69795000D01*
X35723600Y-75073600D02*
X34818000Y-75073600D01*
X41950700Y-10536000D02*
X42067300Y-10536000D01*
X34425100Y-74680700D02*
X34425100Y-70907400D01*
X39162500Y-76521700D02*
X37313900Y-76521700D01*
X43250000Y-10430000D02*
X42173300Y-10430000D01*
X37313900Y-76521700D02*
X37137500Y-76521700D01*
%TO.N,PWR_LED_K*%
X53222900Y-74339600D02*
X55007100Y-74339600D01*
X55007100Y-74339600D02*
X56052500Y-75385000D01*
X52177500Y-75385000D02*
X53222900Y-74339600D01*
%TO.N,RAMP_3V3*%
X50050000Y-66600000D02*
X50050000Y-66947500D01*
X50050000Y-66600000D02*
X48471600Y-66600000D01*
X56586500Y-71897700D02*
X57236000Y-71248200D01*
X53473600Y-69580500D02*
X55052000Y-71158900D01*
X52034100Y-64714000D02*
X52034100Y-54661400D01*
X48471600Y-66600000D02*
X47202700Y-67868900D01*
X57236000Y-69915900D02*
X52034100Y-64714000D01*
X55052000Y-71283500D02*
X55666200Y-71897700D01*
X50772700Y-53400000D02*
X46612500Y-53400000D01*
X52034100Y-54661400D02*
X50772700Y-53400000D01*
X40618900Y-67868900D02*
X39550000Y-66800000D01*
X52683000Y-69580500D02*
X53473600Y-69580500D01*
X47202700Y-67868900D02*
X40618900Y-67868900D01*
X50050000Y-66947500D02*
X52683000Y-69580500D01*
X57236000Y-71248200D02*
X57236000Y-69915900D01*
X55666200Y-71897700D02*
X56586500Y-71897700D01*
X55052000Y-71158900D02*
X55052000Y-71283500D01*
%TO.N,RAMP_5V*%
X34144500Y-38585100D02*
X36227700Y-36501900D01*
X39550000Y-51000000D02*
X38764200Y-51000000D01*
X32721100Y-39160000D02*
X33296000Y-38585100D01*
X40610600Y-52060600D02*
X39550000Y-51000000D01*
X36227700Y-36501900D02*
X45514400Y-36501900D01*
X45514400Y-36501900D02*
X46612500Y-37600000D01*
X50050000Y-50800000D02*
X48789400Y-52060600D01*
X33296000Y-38585100D02*
X34144500Y-38585100D01*
X32721100Y-44956900D02*
X32721100Y-39160000D01*
X48789400Y-52060600D02*
X40610600Y-52060600D01*
X38764200Y-51000000D02*
X32721100Y-44956900D01*
%TO.N,RON_3V3*%
X39937500Y-59705000D02*
X39937500Y-61650000D01*
X39937500Y-61650000D02*
X37587500Y-64000000D01*
%TO.N,RON_5V*%
X39937500Y-43905000D02*
X39937500Y-45850000D01*
X39937500Y-45850000D02*
X37587500Y-48200000D01*
%TO.N,SD_CD*%
X45634600Y-15510000D02*
X45946700Y-15822100D01*
X43250000Y-15510000D02*
X45634600Y-15510000D01*
X78875000Y-34298300D02*
X76446000Y-31869300D01*
X78875000Y-35350000D02*
X78875000Y-34298300D01*
X62492100Y-36364700D02*
X61997200Y-36364700D01*
X76446000Y-31869300D02*
X72274900Y-31869300D01*
X61997200Y-36364700D02*
X61037500Y-35405000D01*
%TO.N,SD_CLK*%
X53905000Y-20376700D02*
X51833400Y-22448300D01*
X50612500Y-25120600D02*
X50612500Y-25947500D01*
X51833400Y-22448300D02*
X51833400Y-23899700D01*
X51833400Y-23899700D02*
X50612500Y-25120600D01*
X53905000Y-19300000D02*
X53905000Y-20376700D01*
%TO.N,SD_CLK_C*%
X52437500Y-25947500D02*
X52969400Y-25947500D01*
X68448300Y-39775000D02*
X68448300Y-39163900D01*
X64990300Y-35705900D02*
X64990300Y-33461600D01*
X69650000Y-39775000D02*
X68448300Y-39775000D01*
X52969400Y-25947500D02*
X54875000Y-27853100D01*
X68448300Y-39163900D02*
X64990300Y-35705900D01*
%TO.N,SD_CMD*%
X52635000Y-18223300D02*
X53311900Y-18223300D01*
X54873500Y-25908500D02*
X54912500Y-25947500D01*
X53893200Y-25908500D02*
X54873500Y-25908500D01*
X52635000Y-19300000D02*
X52635000Y-18223300D01*
X53311900Y-18223300D02*
X53502800Y-18032400D01*
%TO.N,SD_CMD_C*%
X55511600Y-30940600D02*
X55752700Y-30699500D01*
X52437500Y-32252500D02*
X53749400Y-30940600D01*
X69650000Y-41975000D02*
X68448300Y-41975000D01*
X53749400Y-30940600D02*
X55511600Y-30940600D01*
X55752700Y-30699500D02*
X55752700Y-26932300D01*
X68448300Y-41975000D02*
X68448300Y-40550300D01*
X55752700Y-26932300D02*
X56737500Y-25947500D01*
X68448300Y-40550300D02*
X64732100Y-36834100D01*
%TO.N,SD_D0*%
X51365000Y-19300000D02*
X51365000Y-20376700D01*
X51147300Y-26975700D02*
X51525000Y-26598000D01*
X51365000Y-20376700D02*
X51069200Y-20376700D01*
X51069200Y-20376700D02*
X49691900Y-21754000D01*
X50086100Y-26975700D02*
X51147300Y-26975700D01*
X51525000Y-25308800D02*
X51921700Y-24912100D01*
X58177100Y-24912100D02*
X59212500Y-25947500D01*
X51525000Y-26598000D02*
X51525000Y-25308800D01*
X51921700Y-24912100D02*
X58177100Y-24912100D01*
X49691900Y-21754000D02*
X49691900Y-26581500D01*
X49691900Y-26581500D02*
X50086100Y-26975700D01*
%TO.N,SD_D0_C*%
X69650000Y-37575000D02*
X68448300Y-37575000D01*
X68266800Y-37756500D02*
X68266800Y-37914600D01*
X56737500Y-32252500D02*
X57754300Y-32252500D01*
X58305600Y-31701200D02*
X57783200Y-32223600D01*
X57754300Y-32252500D02*
X57783200Y-32223600D01*
X61037500Y-25947500D02*
X60819300Y-25947500D01*
X68448300Y-37575000D02*
X68266800Y-37756500D01*
X60819300Y-25947500D02*
X58305600Y-28461200D01*
X58305600Y-28461200D02*
X58305600Y-31701200D01*
%TO.N,SD_D1*%
X50095000Y-20376700D02*
X49237500Y-21234200D01*
X49237500Y-21234200D02*
X49237500Y-26798200D01*
X49237500Y-26798200D02*
X50612500Y-28173200D01*
X50612500Y-28173200D02*
X50612500Y-29100000D01*
X50095000Y-19300000D02*
X50095000Y-20376700D01*
%TO.N,SD_D1_C*%
X52437500Y-29100000D02*
X52478200Y-29140700D01*
X64667500Y-32252500D02*
X61037500Y-32252500D01*
X52478200Y-29140700D02*
X53478000Y-29140700D01*
X61037500Y-32252500D02*
X61037500Y-30403800D01*
X69650000Y-36475000D02*
X68448300Y-36475000D01*
X68448300Y-36475000D02*
X68448300Y-36033300D01*
X68448300Y-36033300D02*
X64667500Y-32252500D01*
%TO.N,SD_D2*%
X48825000Y-19300000D02*
X48825000Y-20376700D01*
X48825000Y-20376700D02*
X48783000Y-20418700D01*
X53878400Y-30134100D02*
X54912500Y-29100000D01*
X50116900Y-30134100D02*
X53878400Y-30134100D01*
X48783000Y-27225600D02*
X49728600Y-28171200D01*
X49728600Y-28171200D02*
X49728600Y-29745800D01*
X48783000Y-20418700D02*
X48783000Y-27225600D01*
X49728600Y-29745800D02*
X50116900Y-30134100D01*
%TO.N,SD_D2_C*%
X53180700Y-34661800D02*
X53486300Y-34661800D01*
X52437500Y-35405000D02*
X53180700Y-34661800D01*
X68448300Y-44175000D02*
X68448300Y-43839700D01*
X56737500Y-29100000D02*
X57618400Y-29980900D01*
X69650000Y-44175000D02*
X68448300Y-44175000D01*
X57618400Y-29980900D02*
X57618400Y-31317600D01*
X68448300Y-43839700D02*
X67804600Y-43196000D01*
%TO.N,SD_D3*%
X59458000Y-23254700D02*
X59874100Y-23254700D01*
X61891200Y-26636300D02*
X59427500Y-29100000D01*
X61891200Y-25271800D02*
X61891200Y-26636300D01*
X59427500Y-29100000D02*
X59212500Y-29100000D01*
X59874100Y-23254700D02*
X61891200Y-25271800D01*
X47555000Y-19300000D02*
X47555000Y-18223300D01*
X51887400Y-18223300D02*
X52762600Y-17348100D01*
X47555000Y-18223300D02*
X51887400Y-18223300D01*
%TO.N,SD_D3_C*%
X57876400Y-34266100D02*
X56737500Y-35405000D01*
X68448300Y-42953400D02*
X63400200Y-37905300D01*
X68448300Y-43075000D02*
X68448300Y-42953400D01*
X63400200Y-37905300D02*
X63400200Y-36225300D01*
X60183500Y-29954000D02*
X61037500Y-29100000D01*
X63400200Y-36225300D02*
X60183500Y-33008600D01*
X58926000Y-34266100D02*
X57876400Y-34266100D01*
X69650000Y-43075000D02*
X68448300Y-43075000D01*
X60183500Y-33008600D02*
X58926000Y-34266100D01*
X60183500Y-33008600D02*
X60183500Y-29954000D01*
%TO.N,SD_EN_G*%
X65487500Y-54300000D02*
X67333300Y-52454200D01*
X64448700Y-55338800D02*
X65487500Y-54300000D01*
X67333300Y-52454200D02*
X67333300Y-50667500D01*
X67333300Y-50667500D02*
X66760800Y-50095000D01*
X61278700Y-55338800D02*
X64448700Y-55338800D01*
X66760800Y-50095000D02*
X64387500Y-50095000D01*
X59812500Y-56805000D02*
X61278700Y-55338800D01*
%TO.N,SD_PG*%
X61637500Y-52711700D02*
X59317500Y-52711700D01*
X63566700Y-51045000D02*
X61900000Y-52711700D01*
X61900000Y-52711700D02*
X61637500Y-52711700D01*
X58971100Y-51161400D02*
X60037500Y-50095000D01*
X58971100Y-52365300D02*
X58971100Y-51161400D01*
X59317500Y-52711700D02*
X58971100Y-52365300D01*
X61637500Y-52711700D02*
X61637500Y-54300000D01*
X66262500Y-51045000D02*
X63566700Y-51045000D01*
%TO.N,SD_PWR_EN*%
X44326700Y-9160000D02*
X44326700Y-9414900D01*
X63662500Y-54300000D02*
X63662500Y-52942500D01*
X44326700Y-9414900D02*
X48336700Y-13424900D01*
X43250000Y-9160000D02*
X44326700Y-9160000D01*
D64*
%TO.N,SD_VDD*%
X50670000Y-22595000D02*
X50420100Y-22844900D01*
X54912500Y-33757100D02*
X54912500Y-35405000D01*
X50612500Y-32854300D02*
X50612500Y-32553400D01*
X71001700Y-44780900D02*
X71001700Y-40875000D01*
X54912500Y-35405000D02*
X63964900Y-44457400D01*
X63964900Y-44457400D02*
X63964900Y-45052400D01*
X54912500Y-33456200D02*
X54912500Y-33757100D01*
X51515300Y-33757100D02*
X50612500Y-32854300D01*
X63964900Y-45052400D02*
X61912500Y-47104800D01*
X61912500Y-47104800D02*
X61912500Y-51045000D01*
X58008800Y-33456200D02*
X59212500Y-32252500D01*
X54912500Y-33757100D02*
X51515300Y-33757100D01*
X54527000Y-24033000D02*
X56135000Y-22425000D01*
X52840100Y-24033000D02*
X54527000Y-24033000D01*
X50612500Y-32553400D02*
X50612500Y-32252500D01*
X50612500Y-32553400D02*
X49444400Y-32553400D01*
X50612500Y-34659900D02*
X50612500Y-35405000D01*
X69650000Y-40875000D02*
X71001700Y-40875000D01*
X54912500Y-33456200D02*
X58008800Y-33456200D01*
X54912500Y-33456200D02*
X54912500Y-32252500D01*
X70730200Y-45052400D02*
X71001700Y-44780900D01*
X51515300Y-33757100D02*
X50612500Y-34659900D01*
X50420100Y-22844900D02*
X50420100Y-24285300D01*
X63964900Y-45052400D02*
X70730200Y-45052400D01*
D65*
%TO.N,SENS_EN*%
X31051200Y-74743700D02*
X35312500Y-79005000D01*
X41977600Y-11895700D02*
X42173300Y-11700000D01*
X28971000Y-67731200D02*
X29245800Y-67731200D01*
X31051200Y-69536600D02*
X31051200Y-74743700D01*
X15954300Y-7205700D02*
X10136800Y-7205700D01*
X2918100Y-14424400D02*
X2918100Y-33489400D01*
X29245800Y-67731200D02*
X31051200Y-69536600D01*
X43250000Y-11700000D02*
X42173300Y-11700000D01*
X26201800Y-64653100D02*
X26201800Y-64962000D01*
X26201800Y-64962000D02*
X28971000Y-67731200D01*
X10136800Y-7205700D02*
X2918100Y-14424400D01*
X20160000Y-3000000D02*
X15954300Y-7205700D01*
%TO.N,SENS_EN_G*%
X43907400Y-73303000D02*
X43907400Y-74666900D01*
X43164800Y-72560400D02*
X43907400Y-73303000D01*
X43164800Y-70867700D02*
X43164800Y-72560400D01*
X42585200Y-75403800D02*
X42000000Y-75989000D01*
X40404200Y-77763300D02*
X39162500Y-79005000D01*
X42000000Y-77051900D02*
X41288600Y-77763300D01*
X39162500Y-79005000D02*
X37137500Y-79005000D01*
X43170500Y-75403800D02*
X42585200Y-75403800D01*
X43907400Y-74666900D02*
X43170500Y-75403800D01*
X44237500Y-69795000D02*
X43164800Y-70867700D01*
X42000000Y-75989000D02*
X42000000Y-77051900D01*
X41288600Y-77763300D02*
X40404200Y-77763300D01*
%TO.N,SENS_G*%
X46518200Y-74841000D02*
X44837500Y-76521700D01*
X46112500Y-70238200D02*
X46112500Y-70745000D01*
X40569300Y-69113200D02*
X44987500Y-69113200D01*
X39887500Y-69795000D02*
X40569300Y-69113200D01*
X46112500Y-70745000D02*
X46518200Y-71150700D01*
X44987500Y-69113200D02*
X46112500Y-70238200D01*
X46518200Y-71150700D02*
X46518200Y-74841000D01*
%TO.N,SPI_CS*%
X56544600Y-18123700D02*
X56544600Y-7706300D01*
X56445000Y-19300000D02*
X56445000Y-18223300D01*
X56445000Y-18223300D02*
X56544600Y-18123700D01*
X77379100Y-25858700D02*
X79212500Y-27692100D01*
X79212500Y-27692100D02*
X79212500Y-27785000D01*
%TO.N,SPI_MISO*%
X59464200Y-8950900D02*
X59673300Y-9160000D01*
X60750000Y-9160000D02*
X59673300Y-9160000D01*
%TO.N,SPI_MOSI*%
X59623900Y-7939400D02*
X59673300Y-7890000D01*
X59426000Y-7939400D02*
X59623900Y-7939400D01*
X60750000Y-7890000D02*
X59673300Y-7890000D01*
%TO.N,SPI_SCK*%
X60750000Y-10430000D02*
X59673300Y-10430000D01*
X59484800Y-10241500D02*
X59673300Y-10430000D01*
D64*
%TO.N,SW_3V3*%
X44787500Y-54318700D02*
X45637500Y-55168700D01*
X45637500Y-55168700D02*
X45637500Y-56116800D01*
D66*
X45637500Y-56116800D02*
X50000000Y-57800000D01*
D64*
X44787500Y-53400000D02*
X44787500Y-54318700D01*
X42950000Y-53400000D02*
X44787500Y-53400000D01*
D66*
X45062500Y-55895000D02*
X45637500Y-56116800D01*
%TO.N,SW_5V*%
X45062500Y-40095000D02*
X50000000Y-42000000D01*
D64*
X44787500Y-39820000D02*
X45062500Y-40095000D01*
X42950000Y-37600000D02*
X44787500Y-37600000D01*
X44787500Y-37600000D02*
X44787500Y-39820000D01*
D65*
%TO.N,TERM_A*%
X24181700Y-43550900D02*
X25732500Y-45101700D01*
X11845000Y-45401700D02*
X11845000Y-44325000D01*
X12619100Y-43550900D02*
X24181700Y-43550900D01*
X11845000Y-44325000D02*
X12619100Y-43550900D01*
%TO.N,UART_RX*%
X59486900Y-6578900D02*
X59486900Y-6578800D01*
X59632200Y-6578900D02*
X59486900Y-6578900D01*
X60750000Y-6620000D02*
X59673300Y-6620000D01*
X59673300Y-6620000D02*
X59632200Y-6578900D01*
%TO.N,UART_TX*%
X58728600Y-6294700D02*
X58728600Y-13039400D01*
X59673300Y-5350000D02*
X58728600Y-6294700D01*
X60750000Y-5350000D02*
X59673300Y-5350000D01*
D67*
%TO.N,USB_CC1*%
X78128800Y-18493300D02*
X78128800Y-20656200D01*
X75805000Y-17250000D02*
X76672200Y-17250000D01*
X76672200Y-17250000D02*
X76987600Y-17565400D01*
X76987600Y-17565400D02*
X77200900Y-17565400D01*
X77200900Y-17565400D02*
X78128800Y-18493300D01*
X70173500Y-21146000D02*
X66702500Y-17675000D01*
X78128800Y-20656200D02*
X77639000Y-21146000D01*
X77639000Y-21146000D02*
X70173500Y-21146000D01*
%TO.N,USB_CC2*%
X70552500Y-17675000D02*
X73977500Y-14250000D01*
X73977500Y-14250000D02*
X75805000Y-14250000D01*
D65*
%TO.N,USB_DM*%
X44326700Y-16780000D02*
X44559500Y-16547200D01*
X44559500Y-16547200D02*
X44559500Y-16257200D01*
X43250000Y-16780000D02*
X44326700Y-16780000D01*
X65232500Y-10695000D02*
X64425500Y-11502000D01*
%TO.N,USB_DM_CON*%
X75805000Y-16750000D02*
X77030000Y-16750000D01*
X73998000Y-7187800D02*
X63216800Y-7187800D01*
X78161100Y-14618900D02*
X78161100Y-11350900D01*
X78161100Y-11350900D02*
X73998000Y-7187800D01*
X62497400Y-10695000D02*
X62957500Y-10695000D01*
X61897200Y-8507400D02*
X61897200Y-10094800D01*
X75805000Y-15750000D02*
X77030000Y-15750000D01*
X63216800Y-7187800D02*
X61897200Y-8507400D01*
X77030000Y-15750000D02*
X78161100Y-14618900D01*
X61897200Y-10094800D02*
X62497400Y-10695000D01*
%TO.N,USB_DP*%
X44326700Y-18050000D02*
X45146500Y-17230200D01*
X53032100Y-11103600D02*
X53032100Y-10878500D01*
X46905500Y-17230200D02*
X53032100Y-11103600D01*
X64577900Y-8795000D02*
X64090800Y-8307900D01*
X65232500Y-8795000D02*
X64577900Y-8795000D01*
X45146500Y-17230200D02*
X46905500Y-17230200D01*
X43250000Y-18050000D02*
X44326700Y-18050000D01*
%TO.N,USB_DP_CON*%
X75805000Y-15250000D02*
X74580000Y-15250000D01*
X66014000Y-7672900D02*
X66189500Y-7848400D01*
X75805000Y-16250000D02*
X74580000Y-16250000D01*
X62957500Y-8544100D02*
X63828700Y-7672900D01*
X63828700Y-7672900D02*
X66014000Y-7672900D01*
X62957500Y-8795000D02*
X62957500Y-8544100D01*
D64*
%TO.N,VBAT_F*%
X25249200Y-70356600D02*
X25249200Y-71406500D01*
X25697500Y-69908300D02*
X25249200Y-70356600D01*
X25697500Y-67974200D02*
X25697500Y-69908300D01*
X17602500Y-69978300D02*
X19030700Y-71406500D01*
X39202500Y-73978300D02*
X38235500Y-73011300D01*
X19030700Y-71406500D02*
X25249200Y-71406500D01*
X22335000Y-64611700D02*
X25697500Y-67974200D01*
%TO.N,VBAT_FB*%
X19292600Y-68518400D02*
X19292600Y-64761700D01*
X13902500Y-74256200D02*
X13902500Y-73645000D01*
X9995000Y-73675000D02*
X11389400Y-75069400D01*
X16895000Y-64761700D02*
X14270000Y-64761700D01*
X19292600Y-64761700D02*
X16895000Y-64761700D01*
X14470800Y-74824500D02*
X24651300Y-74824500D01*
X23661700Y-62434100D02*
X24761500Y-63533900D01*
X21060400Y-62434100D02*
X23661700Y-62434100D01*
X19292600Y-64761700D02*
X19292600Y-64201900D01*
X24651300Y-74824500D02*
X29717500Y-69758300D01*
X24761500Y-64802300D02*
X29717500Y-69758300D01*
X24761500Y-63533900D02*
X24761500Y-64802300D01*
X19292600Y-64201900D02*
X21060400Y-62434100D01*
X12432500Y-66599200D02*
X10595000Y-64761700D01*
X12432500Y-69528300D02*
X12432500Y-66599200D01*
X20752500Y-69978300D02*
X19292600Y-68518400D01*
X11389400Y-75069400D02*
X13089300Y-75069400D01*
X13902500Y-74256200D02*
X14470800Y-74824500D01*
X14270000Y-64761700D02*
X12432500Y-66599200D01*
X13089300Y-75069400D02*
X13902500Y-74256200D01*
%TO.N,VBAT_IN*%
X21142300Y-67295300D02*
X22897500Y-69050500D01*
X22897500Y-69050500D02*
X22897500Y-69908300D01*
D65*
%TO.N,VBAT_SNS*%
X50412500Y-72084400D02*
X50605800Y-72084400D01*
X48464700Y-75415000D02*
X48464700Y-77162200D01*
X48295000Y-75415000D02*
X48464700Y-75415000D01*
X44326700Y-7890000D02*
X48967400Y-12530700D01*
X48464700Y-77162200D02*
X50137500Y-78835000D01*
X48464700Y-75415000D02*
X50412500Y-73467200D01*
X50412500Y-73467200D02*
X50412500Y-72084400D01*
X43250000Y-7890000D02*
X44326700Y-7890000D01*
X48967400Y-12530700D02*
X48967400Y-14061300D01*
X52162500Y-78835000D02*
X50137500Y-78835000D01*
X50412500Y-72084400D02*
X50412500Y-71245000D01*
%TO.N,VBAT_UVLO*%
X15727500Y-73645000D02*
X14138100Y-72055600D01*
X17752500Y-73645000D02*
X15727500Y-73645000D01*
X10784800Y-72055600D02*
X10157500Y-71428300D01*
X14138100Y-72055600D02*
X10784800Y-72055600D01*
D64*
%TO.N,VBUS*%
X62870000Y-17630000D02*
X62795000Y-17705000D01*
X66402900Y-10297200D02*
X66402900Y-11144800D01*
X65850700Y-9745000D02*
X66402900Y-10297200D01*
X66402900Y-11144800D02*
X67957300Y-11144800D01*
X70635000Y-9195000D02*
X68321300Y-11508700D01*
X66402900Y-11144800D02*
X63462700Y-14085000D01*
X62870000Y-14085000D02*
X62870000Y-17630000D01*
X63462700Y-14085000D02*
X62870000Y-14085000D01*
X68321300Y-11508700D02*
X70877500Y-14065000D01*
X65232500Y-9745000D02*
X65850700Y-9745000D01*
X67957300Y-11144800D02*
X68321300Y-11508700D01*
%TO.N,VBUS_IN*%
X75805000Y-13550000D02*
X73580000Y-13550000D01*
X71709500Y-15420500D02*
X69308000Y-15420500D01*
X73580000Y-13550000D02*
X71709500Y-15420500D01*
X75805000Y-18450000D02*
X73580000Y-18450000D01*
X69308000Y-15420500D02*
X67952500Y-14065000D01*
D65*
%TO.N,VCAP*%
X10157500Y-69528300D02*
X10357200Y-69328600D01*
X26922400Y-68863200D02*
X27817500Y-69758300D01*
X10357200Y-69328600D02*
X10357200Y-68712400D01*
D64*
%TO.N,VSENS_F*%
X39774200Y-89768300D02*
X43377500Y-86165000D01*
X36325800Y-89768300D02*
X39774200Y-89768300D01*
X35232500Y-88675000D02*
X36325800Y-89768300D01*
%TO.N,VSENS_SW*%
X40452500Y-86165000D02*
X40452500Y-84399100D01*
X41762500Y-70745000D02*
X41762500Y-69841300D01*
X40452500Y-84399100D02*
X40366800Y-84313400D01*
%TD*%
M02*
